<svg width="42" height="42" viewBox="0 0 42 42" fill="none" xmlns="http://www.w3.org/2000/svg">
<path d="M29.9997 35.0002C29.2097 35.0002 28.4297 34.9002 27.6697 34.6902C26.0697 34.2602 25.1197 32.6102 25.5497 31.0102C25.8997 29.7002 27.0897 28.7902 28.4497 28.7902C28.7097 28.7902 28.9797 28.8302 29.2297 28.8902C29.4797 28.9602 29.7397 28.9902 29.9997 28.9902C31.6497 28.9902 28.9997 27.6402 28.9997 25.9902V15.8202L30.4297 11.5302C30.0197 10.8402 29.8997 10.0402 30.0897 9.26023C30.2797 8.48023 30.7697 7.83023 31.4597 7.42023C31.9297 7.14023 32.4597 6.99023 32.9997 6.99023C34.0497 6.99023 35.0297 7.55023 35.5697 8.45023L38.5697 13.4502C38.8497 13.9202 38.9997 14.4502 38.9997 14.9902V25.9902C38.9997 30.9502 34.9597 34.9902 29.9997 34.9902V35.0002Z" fill="white"/>
<path d="M32 7.73V40H4V7.73C4 4.57 6.57 2 9.73 2H26.27C29.43 2 32 4.57 32 7.73Z" fill="white"/>
<path d="M34 35.91V37.09C34 38.7 32.7 40 31.09 40H4.91C3.3 40 2 38.69 2 37.09V35.91C2 34.3 3.3 33 4.91 33H31.09C32.7 33 34 34.31 34 35.91Z" fill="white"/>
<path d="M30.0002 33.0008C29.3902 33.0008 28.7802 32.9208 28.1902 32.7608C27.6602 32.6208 27.3402 32.0708 27.4802 31.5308C27.6202 31.0008 28.1702 30.6808 28.7102 30.8208C29.1302 30.9308 29.5602 30.9908 30.0002 30.9908C32.7602 30.9908 35.0002 28.7508 35.0002 25.9908V15.2708L32.1402 10.5108C31.8602 10.0408 32.0102 9.4208 32.4802 9.1408C32.9502 8.8608 33.5702 9.0108 33.8502 9.4808L36.8502 14.4808C36.9402 14.6408 36.9902 14.8108 36.9902 14.9908V25.9908C36.9902 29.8508 33.8502 32.9908 29.9902 32.9908L30.0002 33.0008Z" fill="#221F1F"/>
<path d="M30.0002 33.0008C29.3902 33.0008 28.7802 32.9208 28.1902 32.7608C27.6602 32.6208 27.3402 32.0708 27.4802 31.5308C27.6202 31.0008 28.1702 30.6808 28.7102 30.8208C29.1302 30.9308 29.5602 30.9908 30.0002 30.9908C32.7602 30.9908 35.0002 28.7508 35.0002 25.9908V15.2708L32.1402 10.5108C31.8602 10.0408 32.0102 9.4208 32.4802 9.1408C32.9502 8.8608 33.5702 9.0108 33.8502 9.4808L36.8502 14.4808C36.9402 14.6408 36.9902 14.8108 36.9902 14.9908V25.9908C36.9902 29.8508 33.8502 32.9908 29.9902 32.9908L30.0002 33.0008Z" fill="#221F1F"/>
<path d="M30 7.73V38H6V7.73C6 5.67 7.67 4 9.73 4H26.27C28.33 4 30 5.67 30 7.73Z" fill="#221F1F"/>
<path d="M9.73 6H26.27C27.23 6 28 6.78 28 7.73V36H8V7.73C8 6.77 8.78 6 9.73 6Z" fill="#F0AA97"/>
<path d="M27.9998 32.68L12.5098 6H9.73977C8.77977 6 8.00977 6.77 8.00977 7.73V36H28.0098V32.68H27.9998Z" fill="#D88C7D"/>
<path d="M31.09 35H4.91C4.40742 35 4 35.4074 4 35.91V37.09C4 37.5926 4.40742 38 4.91 38H31.09C31.5926 38 32 37.5926 32 37.09V35.91C32 35.4074 31.5926 35 31.09 35Z" fill="#221F1F"/>
<path d="M36.2502 17.7495C36.3302 16.1895 35.3602 14.2595 34.7502 13.0195C34.7002 13.0595 34.6402 13.0895 34.6002 13.1395L32.6002 15.1395C32.3002 15.4395 32.2202 15.9095 32.4102 16.2895L34.9202 21.1095C35.0902 21.4595 35.4402 21.6695 35.8202 21.6695C35.8902 21.6695 35.9602 21.6695 36.0302 21.6495C36.1102 21.6295 36.1702 21.5995 36.2402 21.5695C36.2102 20.2095 36.2002 18.6995 36.2502 17.7595V17.7495Z" fill="#221F1F"/>
<path d="M24.26 9H11.74C11.3313 9 11 9.33131 11 9.74V18.26C11 18.6687 11.3313 19 11.74 19H24.26C24.6687 19 25 18.6687 25 18.26V9.74C25 9.33131 24.6687 9 24.26 9Z" fill="#221F1F"/>
<path d="M23 16.51V11.49C23 11.2194 22.7806 11 22.51 11H13.49C13.2194 11 13 11.2194 13 11.49V16.51C13 16.7806 13.2194 17 13.49 17H22.51C22.7806 17 23 16.7806 23 16.51Z" fill="white"/>
<path d="M13.49 17H18.89L15.41 11H13.49C13.22 11 13 11.22 13 11.49V16.51C13 16.78 13.22 17 13.49 17Z" fill="#C4C4C4"/>
<path d="M24.4 21H18.6C18.2686 21 18 21.2686 18 21.6V25.4C18 25.7314 18.2686 26 18.6 26H24.4C24.7314 26 25 25.7314 25 25.4V21.6C25 21.2686 24.7314 21 24.4 21Z" fill="#221F1F"/>
</svg>
