<svg width="42" height="42" viewBox="0 0 42 42" fill="none" xmlns="http://www.w3.org/2000/svg">
<path d="M20 12C17.79 12 16 10.21 16 8C16 5.79 17.79 4 20 4H22C24.21 4 26 5.79 26 8C26 10.21 24.21 12 22 12H20Z" fill="white"/>
<path d="M13 20C10.79 20 9 18.21 9 16V14C9 11.79 10.79 10 13 10C15.21 10 17 11.79 17 14V16C17 18.21 15.21 20 13 20Z" fill="white"/>
<path d="M29 20C26.79 20 25 18.21 25 16V14C25 11.79 26.79 10 29 10C31.21 10 33 11.79 33 14V16C33 18.21 31.21 20 29 20Z" fill="white"/>
<path d="M31 12.77V20C31 22.21 29.21 24 27 24H15C12.79 24 11 22.21 11 20V12.77C11 9.03 14.04 6 17.77 6H24.22C27.96 6 30.99 9.04 30.99 12.77H31Z" fill="white"/>
<path d="M21 31V25C21 22.7909 19.2091 21 17 21H15C12.7909 21 11 22.7909 11 25V31C11 33.2091 12.7909 35 15 35H17C19.2091 35 21 33.2091 21 31Z" fill="white"/>
<path d="M19 31V25C19 23.8954 18.1046 23 17 23H15C13.8954 23 13 23.8954 13 25V31C13 32.1046 13.8954 33 15 33H17C18.1046 33 19 32.1046 19 31Z" fill="white"/>
<path d="M31 31V25C31 22.7909 29.2091 21 27 21H25C22.7909 21 21 22.7909 21 25V31C21 33.2091 22.7909 35 25 35H27C29.2091 35 31 33.2091 31 31Z" fill="white"/>
<path d="M29 31V25C29 23.8954 28.1046 23 27 23H25C23.8954 23 23 23.8954 23 25V31C23 32.1046 23.8954 33 25 33H27C28.1046 33 29 32.1046 29 31Z" fill="white"/>
<path d="M19 25V20C19 18.8954 18.1046 18 17 18H15C13.8954 18 13 18.8954 13 20V25C13 26.1046 13.8954 27 15 27H17C18.1046 27 19 26.1046 19 25Z" fill="white"/>
<path d="M29 25V20C29 18.8954 28.1046 18 27 18H25C23.8954 18 23 18.8954 23 20V25C23 26.1046 23.8954 27 25 27H27C28.1046 27 29 26.1046 29 25Z" fill="white"/>
<path d="M21 41C18.24 41 16 38.76 16 36V25C16 22.24 18.24 20 21 20C23.76 20 26 22.24 26 25V36C26 38.76 23.76 41 21 41Z" fill="white"/>
<path d="M15.2 12.6C14.59 12.6 13.99 12.32 13.6 11.8L11.5 9H5C3.9 9 3 8.1 3 7V5C3 3.9 3.9 3 5 3H13.5C14.13 3 14.72 3.3 15.1 3.8L18.4 8.2C18.72 8.62 18.86 9.16 18.78 9.68C18.7 10.2 18.42 10.68 18 11L16.4 12.2C16.04 12.47 15.62 12.6 15.2 12.6Z" fill="white"/>
<path d="M26.7996 12.6C26.3796 12.6 25.9596 12.47 25.5996 12.2L23.9996 11C23.5796 10.68 23.2896 10.21 23.2196 9.68C23.1496 9.15 23.2796 8.62 23.5996 8.2L26.8996 3.8C27.2796 3.3 27.8696 3 28.4996 3H36.9996C38.0996 3 38.9996 3.9 38.9996 5V7C38.9996 8.1 38.0996 9 36.9996 9H30.4996L28.3996 11.8C28.0096 12.32 27.4096 12.6 26.7996 12.6Z" fill="white"/>
<path d="M29 12.77V20C29 21.1 28.1 22 27 22H15C13.9 22 13 21.1 13 20V12.77C13 10.13 15.14 8 17.77 8H24.22C26.86 8 28.99 10.14 28.99 12.77H29Z" fill="white"/>
<path d="M21 21C24.3137 21 27 18.3137 27 15C27 11.6863 24.3137 9 21 9C17.6863 9 15 11.6863 15 15C15 18.3137 17.6863 21 21 21Z" fill="white"/>
<path d="M21 19C23.2091 19 25 17.2091 25 15C25 12.7909 23.2091 11 21 11C18.7909 11 17 12.7909 17 15C17 17.2091 18.7909 19 21 19Z" fill="white"/>
<path d="M22 6H20C18.8954 6 18 6.89543 18 8C18 9.10457 18.8954 10 20 10H22C23.1046 10 24 9.10457 24 8C24 6.89543 23.1046 6 22 6Z" fill="#221F1F"/>
<path d="M15 14C15 12.8954 14.1046 12 13 12C11.8954 12 11 12.8954 11 14V16C11 17.1046 11.8954 18 13 18C14.1046 18 15 17.1046 15 16V14Z" fill="#221F1F"/>
<path d="M31 14C31 12.8954 30.1046 12 29 12C27.8954 12 27 12.8954 27 14V16C27 17.1046 27.8954 18 29 18C30.1046 18 31 17.1046 31 16V14Z" fill="#221F1F"/>
<path d="M29 12.77V20C29 21.1 28.1 22 27 22H15C13.9 22 13 21.1 13 20V12.77C13 10.13 15.14 8 17.77 8H24.22C26.86 8 28.99 10.14 28.99 12.77H29Z" fill="#221F1F"/>
<path d="M19 31V25C19 23.8954 18.1046 23 17 23H15C13.8954 23 13 23.8954 13 25V31C13 32.1046 13.8954 33 15 33H17C18.1046 33 19 32.1046 19 31Z" fill="#221F1F"/>
<path d="M17 25H15V31H17V25Z" fill="#D88C7D"/>
<path d="M29 31V25C29 23.8954 28.1046 23 27 23H25C23.8954 23 23 23.8954 23 25V31C23 32.1046 23.8954 33 25 33H27C28.1046 33 29 32.1046 29 31Z" fill="#221F1F"/>
<path d="M27 25H25V31H27V25Z" fill="#FFCCBD"/>
<path d="M17 20H15V25H17V20Z" fill="#221F1F"/>
<path d="M27 20H25V25H27V20Z" fill="#221F1F"/>
<path d="M24 25C24 23.3431 22.6569 22 21 22C19.3431 22 18 23.3431 18 25V36C18 37.6569 19.3431 39 21 39C22.6569 39 24 37.6569 24 36V25Z" fill="#221F1F"/>
<path d="M15.2 10.6L12.5 7H5V5H13.5L16.8 9.4L15.2 10.6Z" fill="#221F1F"/>
<path d="M26.8002 10.6L25.2002 9.4L28.5002 5H37.0002V7H29.5002L26.8002 10.6Z" fill="#221F1F"/>
<path d="M17.7702 10H24.2202C25.7502 10 26.9902 11.24 26.9902 12.77V20H14.9902V12.77C14.9902 11.24 16.2302 10 17.7602 10H17.7702Z" fill="#FFCCBD"/>
<path d="M27 17.8196L15.27 11.5996C15.1 11.9596 15 12.3596 15 12.7796V20.0096H27V17.8296V17.8196Z" fill="#D88C7D"/>
<path d="M21 19C23.2091 19 25 17.2091 25 15C25 12.7909 23.2091 11 21 11C18.7909 11 17 12.7909 17 15C17 17.2091 18.7909 19 21 19Z" fill="#221F1F"/>
<path d="M21 17C22.1046 17 23 16.1046 23 15C23 13.8954 22.1046 13 21 13C19.8954 13 19 13.8954 19 15C19 16.1046 19.8954 17 21 17Z" fill="white"/>
</svg>
