<svg width="42" height="42" viewBox="0 0 42 42" fill="none" xmlns="http://www.w3.org/2000/svg">
<path d="M25 40C26.1 40 27 39.1 27 38V34.54L30.47 30.68C31.08 30 31.44 29.13 31.49 28.23L31.67 25.05C33.82 22.52 35 19.33 35 16C35 8.28 28.72 2 21 2C13.28 2 7 8.28 7 16C7 19.33 8.18 22.51 10.33 25.05L10.51 28.23C10.56 29.14 10.92 30.01 11.53 30.68L15 34.54V38C15 39.1 15.9 40 17 40H25Z" fill="white"/>
<path d="M21 4C14.38 4 9 9.38 9 16C9 19.06 10.19 22.01 12.29 24.24L12.5 28.12C12.53 28.58 12.71 29.01 13.01 29.35L17 33.78V38.01H25V33.78L28.99 29.35C29.29 29.01 29.47 28.58 29.5 28.12L29.71 24.24C31.81 22.02 33 19.06 33 16C33 9.38 27.62 4 21 4Z" fill="#221F1F"/>
<path d="M21 6C15.48 6 11 10.48 11 16C11 18.91 12.25 21.53 14.24 23.36L14.5 28L19 33V38H23V33L27.5 28L27.76 23.36C29.75 21.53 31 18.92 31 16C31 10.48 26.52 6 21 6Z" fill="#C4C4C4"/>
<path d="M11.2002 17.9297C11.6202 20.0597 12.7102 21.9397 14.2502 23.3597L14.5102 27.9997L19.0102 32.9997V37.9997H23.0102V32.9997L27.5102 27.9997L27.7702 23.3597C27.7702 23.3597 27.8302 23.2897 27.8602 23.2597L11.2002 17.9297Z" fill="#9E9E9E"/>
<path d="M21 8C16.59 8 13 11.59 13 16H29C29 11.59 25.41 8 21 8Z" fill="#221F1F"/>
<path d="M15.3398 14C16.1698 11.67 18.3898 10 20.9998 10C23.6098 10 25.8298 11.67 26.6598 14H15.3498H15.3398Z" fill="white"/>
<path d="M19 19H17V24H19V19Z" fill="#221F1F"/>
<path d="M24.29 18H23.71C23.3179 18 23 18.3179 23 18.71V25.29C23 25.6821 23.3179 26 23.71 26H24.29C24.6821 26 25 25.6821 25 25.29V18.71C25 18.3179 24.6821 18 24.29 18Z" fill="#221F1F"/>
<path d="M24 24C25.1046 24 26 23.1046 26 22C26 20.8954 25.1046 20 24 20C22.8954 20 22 20.8954 22 22C22 23.1046 22.8954 24 24 24Z" fill="#221F1F"/>
<path d="M20 9H22V11C22 11.55 21.55 12 21 12C20.45 12 20 11.55 20 11V9Z" fill="#221F1F"/>
<path d="M23.6788 13.0321C23.2701 12.6641 23.2368 12.0286 23.6048 11.6199L24.9431 10.1335L26.4294 11.4718L25.0911 12.9581C24.7231 13.3669 24.0876 13.4002 23.6788 13.0321Z" fill="#221F1F"/>
<path d="M15.5713 11.4608L17.0576 10.1226L18.3958 11.6089C18.7639 12.0176 18.7306 12.6531 18.3218 13.0211C17.9131 13.3892 17.2776 13.3559 16.9096 12.9471L15.5713 11.4608Z" fill="#221F1F"/>
</svg>
