<svg width="42" height="42" viewBox="0 0 42 42" fill="none" xmlns="http://www.w3.org/2000/svg">
<path d="M15 23.58V19.42C15 17.5312 13.4688 16 11.58 16H10.42C8.53119 16 7 17.5312 7 19.42V23.58C7 25.4688 8.53119 27 10.42 27H11.58C13.4688 27 15 25.4688 15 23.58Z" fill="white"/>
<path d="M16 40C14.35 40 13 38.65 13 37V34C13 32.35 14.35 31 16 31C17.65 31 19 32.35 19 34V37C19 38.65 17.65 40 16 40Z" fill="white"/>
<path d="M28 40C26.35 40 25 38.65 25 37V34C25 32.35 26.35 31 28 31C29.65 31 31 32.35 31 34V37C31 38.65 29.65 40 28 40Z" fill="white"/>
<path d="M35 30.58V14.42C35 10.3221 31.678 7 27.58 7H16.42C12.322 7 9 10.3221 9 14.42V30.58C9 34.678 12.322 38 16.42 38H27.58C31.678 38 35 34.678 35 30.58Z" fill="white"/>
<path d="M33 30.58V14.42C33 11.4266 30.5734 9 27.58 9H16.42C13.4266 9 11 11.4266 11 14.42V30.58C11 33.5734 13.4266 36 16.42 36H27.58C30.5734 36 33 33.5734 33 30.58Z" fill="white"/>
<path d="M17 8C15.35 8 14 6.65 14 5C14 3.35 15.35 2 17 2H27C28.65 2 30 3.35 30 5C30 6.65 28.65 8 27 8H17Z" fill="white"/>
<path d="M22 10V5C22 3.89543 21.1046 3 20 3H18C16.8954 3 16 3.89543 16 5V10C16 11.1046 16.8954 12 18 12H20C21.1046 12 22 11.1046 22 10Z" fill="white"/>
<path d="M28 10V5C28 3.89543 27.1046 3 26 3H24C22.8954 3 22 3.89543 22 5V10C22 11.1046 22.8954 12 24 12H26C27.1046 12 28 11.1046 28 10Z" fill="white"/>
<path d="M11.58 18H10.42C9.63576 18 9 18.6358 9 19.42V23.58C9 24.3642 9.63576 25 10.42 25H11.58C12.3642 25 13 24.3642 13 23.58V19.42C13 18.6358 12.3642 18 11.58 18Z" fill="#221F1F"/>
<path d="M17 34C17 33.4477 16.5523 33 16 33C15.4477 33 15 33.4477 15 34V37C15 37.5523 15.4477 38 16 38C16.5523 38 17 37.5523 17 37V34Z" fill="#221F1F"/>
<path d="M27 37C27 37.5523 27.4477 38 28 38C28.5523 38 29 37.5523 29 37V34C29 33.4477 28.5523 33 28 33C27.4477 33 27 33.4477 27 34V37Z" fill="#221F1F"/>
<path d="M33 30.58V14.42C33 11.4266 30.5734 9 27.58 9H16.42C13.4266 9 11 11.4266 11 14.42V30.58C11 33.5734 13.4266 36 16.42 36H27.58C30.5734 36 33 33.5734 33 30.58Z" fill="#221F1F"/>
<path d="M27.58 11H16.42C14.5312 11 13 12.5312 13 14.42V30.58C13 32.4688 14.5312 34 16.42 34H27.58C29.4688 34 31 32.4688 31 30.58V14.42C31 12.5312 29.4688 11 27.58 11Z" fill="#B7EDB7"/>
<path d="M16.42 34H27.59C29.48 34 31.01 32.47 31.01 30.58V25.5L13 16.5V30.58C13 32.47 14.53 34 16.42 34Z" fill="#9CDB9C"/>
<path d="M17 6H27C27.5523 6 28 5.55228 28 5C28 4.44772 27.5523 4 27 4H17C16.4477 4 16 4.44772 16 5C16 5.55228 16.4477 6 17 6Z" fill="#221F1F"/>
<path d="M20 5H18V10H20V5Z" fill="#221F1F"/>
<path d="M24 10H26V5H24V10Z" fill="#221F1F"/>
<path d="M23 15C23 14.4477 22.5523 14 22 14C21.4477 14 21 14.4477 21 15V30C21 30.5523 21.4477 31 22 31C22.5523 31 23 30.5523 23 30V15Z" fill="#221F1F"/>
<path d="M18 15C18 14.4477 17.5523 14 17 14C16.4477 14 16 14.4477 16 15V30C16 30.5523 16.4477 31 17 31C17.5523 31 18 30.5523 18 30V15Z" fill="#221F1F"/>
<path d="M28 15C28 14.4477 27.5523 14 27 14C26.4477 14 26 14.4477 26 15V30C26 30.5523 26.4477 31 27 31C27.5523 31 28 30.5523 28 30V15Z" fill="#221F1F"/>
</svg>
