<svg width="42" height="42" viewBox="0 0 42 42" fill="none" xmlns="http://www.w3.org/2000/svg">
<path d="M7.87 36.0002C4.64 36.0002 2 33.3702 2 30.1302V22.2502C2 19.8902 3.67 17.8302 5.97 17.3602C10.32 16.4702 15.51 15.9902 21 15.9902C26.49 15.9902 31.68 16.4602 36.03 17.3602C38.33 17.8302 40 19.8902 40 22.2502V30.1302C40 33.3602 37.37 36.0002 34.13 36.0002H7.87Z" fill="white"/>
<path d="M18.21 15.9998C16.94 15.9998 14 15.4898 14 10.7898V7.21977C14 4.33977 16.34 2.00977 19.21 2.00977H22.78C25.66 2.00977 27.99 4.34977 27.99 7.21977V10.7898C27.99 13.6698 25.65 15.9998 22.78 15.9998H18.21Z" fill="white"/>
<path d="M6.99994 29C5.71994 29 4.49994 28.38 3.74994 27.34C2.99994 26.3 2.79994 24.96 3.19994 23.74L7.78994 9.95C8.57994 7.59 10.7799 6 13.2699 6H28.7099C31.1999 6 33.3999 7.59 34.1899 9.95L38.7799 23.73C39.1899 24.95 38.9799 26.29 38.2299 27.33C37.4799 28.37 36.2699 28.99 34.9799 28.99H6.99994V29Z" fill="white"/>
<path d="M13.9998 31V37.18C13.9998 38.74 12.7298 40 11.1798 40H7.82978C6.26978 40 5.00977 38.73 5.00977 37.18V31C5.00977 29.9 5.90977 29 7.00977 29H12.0098C13.1098 29 14.0098 29.9 14.0098 31H13.9998Z" fill="white"/>
<path d="M36.9998 31V37.18C36.9998 38.74 35.7298 40 34.1798 40H30.8298C29.2698 40 28.0098 38.73 28.0098 37.18V31C28.0098 29.9 28.9098 29 30.0098 29H35.0098C36.1098 29 37.0098 29.9 37.0098 31H36.9998Z" fill="white"/>
<path d="M7.87 34.0002C5.74 34.0002 4 32.2702 4 30.1302V22.2502C4 20.8402 5 19.6002 6.38 19.3202C10.6 18.4502 15.66 17.9902 21 17.9902C26.34 17.9902 31.41 18.4502 35.63 19.3202C37 19.6002 38 20.8302 38 22.2502V30.1302C38 32.2602 36.27 34.0002 34.13 34.0002H7.87Z" fill="#221F1F"/>
<path d="M25.9998 7.21V10.78C25.9998 12.55 24.5598 13.99 22.7898 13.99H18.2198C16.9998 13.99 16.0098 13 16.0098 11.78V7.21C16.0098 5.44 17.4498 4 19.2198 4H22.7898C24.5598 4 25.9998 5.44 25.9998 7.21Z" fill="#221F1F"/>
<path d="M22.79 6H19.21C18.5417 6 18 6.54174 18 7.21V10.79C18 11.4583 18.5417 12 19.21 12H22.79C23.4583 12 24 11.4583 24 10.79V7.21C24 6.54174 23.4583 6 22.79 6Z" fill="#FCD26E"/>
<path d="M6.99984 26.9998C6.35984 26.9998 5.74984 26.6898 5.37984 26.1698C4.99984 25.6498 4.89984 24.9798 5.10984 24.3698L9.69984 10.5898C10.2198 9.04977 11.6598 8.00977 13.2798 8.00977H28.7198C30.3498 8.00977 31.7898 9.04977 32.2998 10.5898L36.8898 24.3698C37.0898 24.9798 36.9898 25.6498 36.6198 26.1698C36.2398 26.6898 35.6398 26.9998 34.9998 26.9998H6.99984Z" fill="#221F1F"/>
<path d="M7 31H12V37.18C12 37.63 11.63 38 11.18 38H7.83C7.38 38 7.01 37.63 7.01 37.18V31H7Z" fill="#221F1F"/>
<path d="M34.1798 38H30.8298C30.3798 38 30.0098 37.63 30.0098 37.18V31H35.0098V37.18C35.0098 37.63 34.6398 38 34.1898 38H34.1798Z" fill="#221F1F"/>
<path d="M35 25H7L11.59 11.22C11.83 10.49 12.51 10 13.28 10H28.72C29.49 10 30.16 10.49 30.41 11.22L35 25Z" fill="#FCD26E"/>
<path d="M9.76953 23L13.4395 12H28.5595L32.2295 23H9.76953Z" fill="#221F1F"/>
<path d="M12.5498 21L14.8798 14H27.1198L29.4498 21H12.5498Z" fill="#B9B9FF"/>
<path d="M23.9998 20L19.4398 14H14.8798L12.5498 21H21.9998L23.9998 20Z" fill="#7A72EB"/>
<path d="M21.0004 18C17.5804 18 14.2904 18.2 11.2604 18.56L10.1104 22H31.8904L30.7404 18.56C27.7004 18.2 24.4104 18 21.0004 18Z" fill="#221F1F"/>
<path d="M34.13 32.0002H7.87C6.84 32.0002 6 31.1702 6 30.1302V22.2502C6 21.7802 6.32 21.3802 6.78 21.2802C10.69 20.4702 15.63 19.9902 21 19.9902C26.37 19.9902 31.31 20.4702 35.22 21.2802C35.68 21.3702 36 21.7802 36 22.2502V30.1302C36 31.1602 35.16 32.0002 34.13 32.0002Z" fill="#FCD26E"/>
<path d="M6 23V30.13C6 30.46 6.09 30.76 6.24 31.03C6.32 31.18 6.42 31.33 6.55 31.45C6.63 31.53 6.73 31.61 6.83 31.68C7.13 31.88 7.49 32 7.87 32H25.75L18.49 23H6Z" fill="#E0B344"/>
<path d="M9 25H11.23C12.76 25 14 26.24 14 27.77V28C14 28.55 13.55 29 13 29H9C8.45 29 8 28.55 8 28V26C8 25.45 8.45 25 9 25Z" fill="#221F1F"/>
<path d="M33 29H29C28.45 29 28 28.55 28 28V27.77C28 26.24 29.24 25 30.77 25H33C33.55 25 34 25.45 34 26V28C34 28.55 33.55 29 33 29Z" fill="#221F1F"/>
<path d="M26 26H16V29H26V26Z" fill="#221F1F"/>
</svg>
