<svg width="42" height="42" viewBox="0 0 42 42" fill="none" xmlns="http://www.w3.org/2000/svg">
<path d="M12.1597 16.0002C10.8297 16.0002 9.66969 15.2702 9.13969 14.0802L6.34969 7.86023C5.97969 7.04023 6.05969 6.08023 6.56969 5.30023C7.09969 4.48023 7.98969 3.99023 8.93969 3.99023H18.0797L15.9597 15.9902H12.1497L12.1597 16.0002Z" fill="white"/>
<path d="M12.1597 37.0002C10.8297 37.0002 9.66969 36.2702 9.13969 35.0802L6.34969 28.8602C5.97969 28.0402 6.05969 27.0802 6.56969 26.3002C7.09969 25.4802 7.98969 24.9902 8.93969 24.9902H18.0797L15.9597 36.9902H12.1497L12.1597 37.0002Z" fill="white"/>
<path d="M12.1597 26.5002C10.8297 26.5002 9.66969 25.7702 9.13969 24.5802L6.34969 18.3602C5.97969 17.5402 6.05969 16.5802 6.56969 15.8002C7.09969 14.9802 7.98969 14.4902 8.93969 14.4902H18.0797L15.9597 26.4902H12.1497L12.1597 26.5002Z" fill="white"/>
<path d="M26.0302 16L23.9102 4H33.0502C34.0002 4 34.8902 4.49 35.4202 5.31C35.9302 6.09 36.0102 7.05 35.6402 7.87L32.8502 14.09C32.3202 15.27 31.1702 16 29.8302 16H26.0202H26.0302Z" fill="white"/>
<path d="M26.0302 37L23.9102 25H33.0502C34.0002 25 34.8902 25.49 35.4202 26.31C35.9302 27.09 36.0102 28.05 35.6402 28.87L32.8502 35.09C32.3202 36.27 31.1702 37 29.8302 37H26.0202H26.0302Z" fill="white"/>
<path d="M26.0302 26.5L23.9102 14.5H33.0502C34.0002 14.5 34.8902 14.99 35.4202 15.81C35.9302 16.59 36.0102 17.55 35.6402 18.37L32.8502 24.59C32.3202 25.77 31.1702 26.5 29.8302 26.5H26.0202H26.0302Z" fill="white"/>
<path d="M31 36.84V5.16C31 3.41478 29.5852 2 27.84 2H14.16C12.4148 2 11 3.41478 11 5.16V36.84C11 38.5852 12.4148 40 14.16 40H27.84C29.5852 40 31 38.5852 31 36.84Z" fill="white"/>
<path d="M27.84 4H14.16C13.5193 4 13 4.51935 13 5.16V36.84C13 37.4807 13.5193 38 14.16 38H27.84C28.4807 38 29 37.4807 29 36.84V5.16C29 4.51935 28.4807 4 27.84 4Z" fill="#221F1F"/>
<path d="M21 25.5C23.4853 25.5 25.5 23.4853 25.5 21C25.5 18.5147 23.4853 16.5 21 16.5C18.5147 16.5 16.5 18.5147 16.5 21C16.5 23.4853 18.5147 25.5 21 25.5Z" fill="#EDD286"/>
<path d="M21 15C23.4853 15 25.5 12.9853 25.5 10.5C25.5 8.01472 23.4853 6 21 6C18.5147 6 16.5 8.01472 16.5 10.5C16.5 12.9853 18.5147 15 21 15Z" fill="#EF615E"/>
<path d="M21 36C23.4853 36 25.5 33.9853 25.5 31.5C25.5 29.0147 23.4853 27 21 27C18.5147 27 16.5 29.0147 16.5 31.5C16.5 33.9853 18.5147 36 21 36Z" fill="#9CDB9C"/>
<path d="M14.2897 14H12.1497C11.6097 14 11.1597 13.72 10.9597 13.27L8.16969 7.05C7.95969 6.59 8.39969 6 8.93969 6H15.6997L14.2897 14Z" fill="#221F1F"/>
<path d="M14.2897 35H12.1497C11.6097 35 11.1597 34.72 10.9597 34.27L8.16969 28.05C7.95969 27.59 8.39969 27 8.93969 27H15.6997L14.2897 35Z" fill="#221F1F"/>
<path d="M14.2897 24.5H12.1497C11.6097 24.5 11.1597 24.22 10.9597 23.77L8.16969 17.55C7.95969 17.09 8.39969 16.5 8.93969 16.5H15.6997L14.2897 24.5Z" fill="#221F1F"/>
<path d="M27.7098 14H29.8498C30.3898 14 30.8398 13.72 31.0398 13.27L33.8298 7.05C34.0398 6.59 33.5998 6 33.0598 6H26.2998L27.7098 14Z" fill="#221F1F"/>
<path d="M27.7098 35H29.8498C30.3898 35 30.8398 34.72 31.0398 34.27L33.8298 28.05C34.0398 27.59 33.5998 27 33.0598 27H26.2998L27.7098 35Z" fill="#221F1F"/>
<path d="M27.7098 24.5H29.8498C30.3898 24.5 30.8398 24.22 31.0398 23.77L33.8298 17.55C34.0398 17.09 33.5998 16.5 33.0598 16.5H26.2998L27.7098 24.5Z" fill="#221F1F"/>
</svg>
