<svg width="42" height="42" viewBox="0 0 42 42" fill="none" xmlns="http://www.w3.org/2000/svg">
<path d="M10.45 37C7.44 37 5 34.55 5 31.55V12C5 6.21 11.73 2 21 2C30.27 2 37 6.21 37 12V31.55C37 34.55 34.55 37 31.55 37H10.45Z" fill="white"/>
<path d="M11.0002 16.23V20.78C11.0002 22.56 9.55023 24.01 7.77023 24.01H6.22023C4.44023 24.01 2.99023 22.56 2.99023 20.78V16.23C2.99023 14.45 4.44023 13 6.22023 13H7.77023C9.55023 13 11.0002 14.45 11.0002 16.23Z" fill="white"/>
<path d="M39.0002 16.23V20.78C39.0002 22.56 37.5502 24.01 35.7702 24.01H34.2202C32.4402 24.01 30.9902 22.56 30.9902 20.78V16.23C30.9902 14.45 32.4402 13 34.2202 13H35.7702C37.5502 13 39.0002 14.45 39.0002 16.23Z" fill="white"/>
<path d="M17.0002 31V37.15C17.0002 38.72 15.7202 40 14.1502 40H11.8402C10.2702 40 8.99023 38.72 8.99023 37.15V31H16.9902H17.0002Z" fill="white"/>
<path d="M33.0002 31V37.15C33.0002 38.72 31.7202 40 30.1502 40H27.8402C26.2702 40 24.9902 38.72 24.9902 37.15V31H32.9902H33.0002Z" fill="white"/>
<path d="M31.55 35C33.45 35 35 33.45 35 31.55V12C35 7.44 28.98 4 21 4C13.02 4 7 7.44 7 12V31.55C7 33.45 8.55 35 10.45 35H31.55Z" fill="#221F1F"/>
<path d="M7.77 15H6.23C5.55069 15 5 15.5507 5 16.23V20.77C5 21.4493 5.55069 22 6.23 22H7.77C8.44931 22 9 21.4493 9 20.77V16.23C9 15.5507 8.44931 15 7.77 15Z" fill="#221F1F"/>
<path d="M34.23 22H35.77C36.4493 22 37 21.4493 37 20.77V16.23C37 15.5507 36.4493 15 35.77 15H34.23C33.5507 15 33 15.5507 33 16.23V20.77C33 21.4493 33.5507 22 34.23 22Z" fill="#221F1F"/>
<path d="M11.0002 33H15.0002V37.15C15.0002 37.62 14.6202 38 14.1502 38H11.8402C11.3702 38 10.9902 37.62 10.9902 37.15V33H11.0002Z" fill="#221F1F"/>
<path d="M30.1502 38H27.8402C27.3702 38 26.9902 37.62 26.9902 37.15V33H30.9902V37.15C30.9902 37.62 30.6102 38 30.1402 38H30.1502Z" fill="#221F1F"/>
<path d="M21 6C27.63 6 33 8.69 33 12V31.55C33 32.35 32.35 33 31.55 33H10.45C9.65 33 9 32.35 9 31.55V12C9 8.69 14.37 6 21 6Z" fill="#FFCCBD"/>
<path d="M11.82 8.14062C10.06 9.18062 9 10.5306 9 12.0006V31.5506C9 32.3506 9.65 33.0006 10.45 33.0006H26.26L11.82 8.14062Z" fill="#D88C7D"/>
<path d="M29.98 13H12.02C11.4567 13 11 13.4567 11 14.02V24.98C11 25.5433 11.4567 26 12.02 26H29.98C30.5433 26 31 25.5433 31 24.98V14.02C31 13.4567 30.5433 13 29.98 13Z" fill="#221F1F"/>
<path d="M29 24V15H13V24H29Z" fill="#B9B9FF"/>
<path d="M15.81 15H13V24H21.03L15.81 15Z" fill="#7A72EB"/>
<path d="M17.3698 9H24.6398C24.8398 9 25.0098 9.16 25.0098 9.37V10.64C25.0098 10.84 24.8498 11.01 24.6398 11.01H17.3798C17.1798 11.01 17.0098 10.85 17.0098 10.64V9.38C17.0098 9.18 17.1698 9.01 17.3798 9.01L17.3698 9Z" fill="#221F1F"/>
<path d="M12.5 31C13.3284 31 14 30.3284 14 29.5C14 28.6716 13.3284 28 12.5 28C11.6716 28 11 28.6716 11 29.5C11 30.3284 11.6716 31 12.5 31Z" fill="#221F1F"/>
<path d="M29.5 31C30.3284 31 31 30.3284 31 29.5C31 28.6716 30.3284 28 29.5 28C28.6716 28 28 28.6716 28 29.5C28 30.3284 28.6716 31 29.5 31Z" fill="#221F1F"/>
<path d="M26 28H16V31H26V28Z" fill="#221F1F"/>
</svg>
