<svg width="42" height="42" viewBox="0 0 42 42" fill="none" xmlns="http://www.w3.org/2000/svg">
<path d="M10.0001 40C9.33009 40 8.70009 39.66 8.33009 39.1C7.96009 38.54 7.90009 37.83 8.16009 37.21L11.1601 30.21C11.4801 29.47 12.2001 29 13.0001 29H15.0001C15.6701 29 16.3001 29.34 16.6701 29.9C17.0401 30.46 17.1001 31.17 16.8401 31.79L13.8401 38.79C13.5201 39.53 12.8001 40 12.0001 40H10.0001Z" fill="white"/>
<path d="M30.0001 40C29.2001 40 28.4801 39.52 28.1601 38.79L25.1601 31.79C24.9001 31.17 24.9601 30.46 25.3301 29.9C25.7001 29.34 26.3301 29 27.0001 29H29.0001C29.8001 29 30.5201 29.48 30.8401 30.21L33.8401 37.21C34.1001 37.83 34.0401 38.54 33.6701 39.1C33.3001 39.66 32.6701 40 32.0001 40H30.0001Z" fill="white"/>
<path d="M12.4595 33.9998C8.68952 33.9998 5.56951 31.2598 5.20951 27.6298C4.47951 20.2998 5.31951 12.3698 6.15951 7.01977C6.60951 4.11977 9.11952 2.00977 12.1295 2.00977H29.8595C32.8695 2.00977 35.3795 4.11977 35.8295 7.01977C36.6695 12.3798 37.5095 20.2998 36.7795 27.6398C36.4195 31.2698 33.2995 34.0098 29.5295 34.0098H12.4595V33.9998Z" fill="white"/>
<path d="M32 36.84V34.16C32 32.9671 31.0329 32 29.84 32H12.16C10.9671 32 10 32.9671 10 34.16V36.84C10 38.0329 10.9671 39 12.16 39H29.84C31.0329 39 32 38.0329 32 36.84Z" fill="white"/>
<path d="M12 38H10L13 31H15L12 38Z" fill="#221F1F"/>
<path d="M30 38H32L29 31H27L30 38Z" fill="#221F1F"/>
<path d="M12.4595 31C9.71952 31 7.45952 29.1 7.19952 26.59C6.48952 19.72 7.31952 12.25 8.13952 7.2C8.43952 5.35 10.1195 4 12.1395 4H29.8695C31.8795 4 33.5695 5.35 33.8695 7.2C34.6895 12.26 35.5195 19.72 34.8095 26.59C34.5495 29.1 32.2895 31 29.5495 31H12.4595Z" fill="#221F1F"/>
<g opacity="0.25">
<path d="M12.4704 29.2807C11.6704 29.2807 10.9904 28.6807 10.9104 27.9107C10.2404 20.9107 11.0304 13.2207 11.8204 7.9907C11.8404 7.8307 11.9804 7.7207 12.1304 7.7207H29.8604C30.0204 7.7207 30.1504 7.8307 30.1704 7.9907C30.9604 13.2107 31.7604 20.9107 31.0804 27.9107C31.0104 28.6807 30.3204 29.2807 29.5204 29.2807H12.4704Z" fill="#9891F5"/>
</g>
<path d="M29.8701 6H12.1301C11.1201 6 10.2601 6.68 10.1101 7.6C9.32014 12.44 8.49014 19.69 9.19014 26.31C9.35014 27.85 10.7801 29 12.4601 29H29.5301C31.2101 29 32.6401 27.84 32.8001 26.31C33.4901 19.69 32.6701 12.44 31.8801 7.6C31.7301 6.68 30.8701 6 29.8601 6H29.8701Z" fill="#CAE5FF"/>
<path d="M10.7801 6.4707C10.4301 6.7507 10.1901 7.1407 10.1101 7.5907C9.32014 12.4307 8.49014 19.6807 9.19014 26.3007C9.35014 27.8407 10.7801 28.9907 12.4601 28.9907H24.4301L10.7801 6.4707Z" fill="#8EBFE2"/>
<path d="M27.5 8H14.5C14.2239 8 14 8.22386 14 8.5V9.5C14 9.77614 14.2239 10 14.5 10H27.5C27.7761 10 28 9.77614 28 9.5V8.5C28 8.22386 27.7761 8 27.5 8Z" fill="#221F1F"/>
<path d="M29.9904 12.0295H22.8604C22.4204 12.0295 22.0604 12.3895 22.0604 12.8295V19.8395C22.0604 20.2795 22.4204 20.6395 22.8604 20.6395H30.4904C30.9404 20.6395 31.3104 20.2595 31.3004 19.8095C31.2204 17.3395 31.0304 14.9395 30.7904 12.7295C30.7504 12.3195 30.4004 12.0195 29.9904 12.0195V12.0295ZM11.5104 20.6595H19.1404C19.5804 20.6595 19.9404 20.2995 19.9404 19.8595V12.8495C19.9404 12.4095 19.5804 12.0495 19.1404 12.0495H12.0104C11.6004 12.0495 11.2504 12.3495 11.2104 12.7595C10.9704 14.9695 10.7804 17.3695 10.7004 19.8395C10.6904 20.2895 11.0504 20.6695 11.5104 20.6695V20.6595Z" fill="#221F1F"/>
<path d="M24.06 18.6591V14.0391H28.91C29.06 15.6191 29.18 17.1691 29.25 18.6591H24.06ZM12.75 18.6591C12.82 17.1591 12.93 15.6191 13.09 14.0391H17.94V18.6591H12.75Z" fill="#B9B9FF"/>
<path d="M15.1602 14.0293H13.0802C12.9302 15.6093 12.8102 17.1493 12.7402 18.6493H17.8402L15.1602 14.0293Z" fill="#7A72EB"/>
<path d="M14.0999 27.0494C15.0498 27.0494 15.8199 26.2793 15.8199 25.3294C15.8199 24.3794 15.0498 23.6094 14.0999 23.6094C13.15 23.6094 12.3799 24.3794 12.3799 25.3294C12.3799 26.2793 13.15 27.0494 14.0999 27.0494Z" fill="#221F1F"/>
<path d="M27.8997 27.0494C28.8496 27.0494 29.6197 26.2793 29.6197 25.3294C29.6197 24.3794 28.8496 23.6094 27.8997 23.6094C26.9498 23.6094 26.1797 24.3794 26.1797 25.3294C26.1797 26.2793 26.9498 27.0494 27.8997 27.0494Z" fill="#221F1F"/>
<path d="M30 35H12V37H30V35Z" fill="#221F1F"/>
<path d="M30 34H12L13 32H29L30 34Z" fill="#221F1F"/>
</svg>
