<svg width="624" height="625" viewBox="0 0 624 625" fill="none" xmlns="http://www.w3.org/2000/svg">
<path d="M311.967 624.001C453.872 624.001 568.909 508.965 568.909 367.06C311.967 367.06 311.967 146.825 55.0264 146.825V367.06C55.0264 508.965 170.063 624.001 311.967 624.001Z" fill="#E31665"/>
<path d="M97.2544 508.262C143.203 577.983 222.202 623.995 311.948 623.995C398.188 623.995 474.504 581.508 521.107 516.323V516.324C474.505 581.509 398.189 623.997 311.949 623.997C247.39 623.997 188.393 600.187 143.259 560.87C143.224 560.839 143.188 560.808 143.152 560.777C136.142 554.664 129.467 548.177 123.159 541.347C123.134 541.32 123.109 541.293 123.084 541.267C120.485 538.45 117.949 535.575 115.476 532.645C115.423 532.582 115.371 532.519 115.319 532.457C114.853 531.904 114.389 531.35 113.928 530.793C113.916 530.778 113.904 530.764 113.892 530.749C111.441 527.786 109.055 524.768 106.736 521.695C106.696 521.642 106.656 521.588 106.616 521.535C106.172 520.946 105.729 520.356 105.291 519.763C104.796 519.094 104.305 518.423 103.817 517.75C102.034 515.291 100.292 512.8 98.5952 510.276C98.5576 510.22 98.5205 510.164 98.4829 510.108L97.2544 508.262ZM531.945 499.868C529.025 504.694 525.951 509.416 522.73 514.027L521.921 515.178C525.438 510.202 528.782 505.095 531.945 499.867V499.868ZM88.7554 494.434C89.8917 496.42 91.0533 498.391 92.2407 500.344L93.4683 502.342C92.6772 501.067 91.8967 499.785 91.1274 498.495C91.0621 498.386 90.9973 498.276 90.9321 498.166C90.2139 496.958 89.5051 495.743 88.8062 494.522C88.7892 494.493 88.7723 494.463 88.7554 494.434ZM538.25 488.838C536.685 491.741 535.065 494.611 533.392 497.446L532.671 498.659C534.601 495.43 536.461 492.155 538.25 488.837V488.838ZM86.7544 490.867C87.354 491.955 87.9599 493.04 88.5747 494.118C88.5575 494.088 88.5402 494.058 88.5229 494.027C87.9258 492.979 87.3372 491.925 86.7544 490.867ZM83.0737 483.94C83.4313 484.639 83.792 485.336 84.1558 486.031L85.2554 488.11C84.9164 487.477 84.5804 486.842 84.2466 486.205C84.1905 486.098 84.1346 485.991 84.0786 485.884L83.0737 483.94ZM540.234 485.086C540.017 485.505 539.799 485.923 539.58 486.341L538.918 487.591C539.361 486.758 539.8 485.923 540.234 485.085V485.086ZM546.984 471.023C545.257 474.922 543.436 478.77 541.523 482.564L540.881 483.827C542.814 480.045 544.656 476.209 546.404 472.321L546.984 471.023ZM549.775 464.479C549.234 465.797 548.683 467.11 548.122 468.417L547.556 469.722C548.125 468.418 548.682 467.109 549.23 465.795L549.775 464.479ZM553.383 455.162C552.566 457.401 551.72 459.626 550.842 461.835L550.312 463.158C551.201 460.955 552.06 458.737 552.889 456.504L553.383 455.162ZM555.287 449.762C554.979 450.666 554.667 451.569 554.35 452.469L553.871 453.817C554.354 452.47 554.825 451.118 555.287 449.761V449.762ZM558.333 440.18C557.651 442.48 556.938 444.768 556.194 447.041L555.744 448.402C556.5 446.135 557.225 443.854 557.919 441.559L558.333 440.18ZM559.526 436.024C559.397 436.488 559.268 436.951 559.136 437.413L558.738 438.798C558.872 438.337 559.004 437.875 559.135 437.413L559.526 436.024ZM562.372 424.807C562.263 425.278 562.154 425.749 562.043 426.22L561.707 427.629C561.82 427.16 561.932 426.69 562.042 426.22L562.372 424.807ZM566.289 403.755C566.257 403.976 566.223 404.196 566.191 404.417C566.246 404.038 566.3 403.659 566.354 403.279C566.332 403.438 566.311 403.597 566.289 403.755ZM568.89 367.057C568.89 367.253 568.888 367.45 568.887 367.646C568.888 367.45 568.888 367.253 568.888 367.056L568.89 367.057ZM568.892 330.351H568.89C454.438 330.351 398.969 283.183 335.836 229.069L335.234 228.554C324.055 218.971 312.645 209.192 300.698 199.565C368.911 102.779 432.929 9.22867e-05 568.892 0V330.351Z" fill="#E31665"/>
<path opacity="0.6" d="M111.278 176.34C111.278 167.699 111.61 159.059 112.109 150.418C94.661 147.593 75.7177 145.931 55.1128 145.599V365.939C55.1128 508.179 170.932 623.999 313.339 623.999C360.863 623.999 405.397 611.038 443.615 588.605C253.684 547.561 111.278 378.568 111.278 176.34Z" fill="#B81457"/>
</svg>
