<svg width="992" height="224" viewBox="0 0 992 224" fill="none" xmlns="http://www.w3.org/2000/svg">
<g clip-path="url(#clip0_4242_4438)">
<path d="M297.247 173.449V78.1133H315.31V173.449H297.247ZM315.31 119.057L308.486 116.047C308.486 103.871 311.296 94.1698 316.916 86.9444C322.536 79.7189 330.631 76.1062 341.201 76.1062C346.018 76.1062 350.367 76.976 354.247 78.7154C358.127 80.3211 361.74 83.064 365.085 86.9444L353.244 99.1874C351.237 97.0466 349.029 95.5078 346.62 94.5712C344.212 93.6346 341.402 93.1663 338.191 93.1663C331.5 93.1663 326.014 95.3071 321.733 99.5889C317.451 103.871 315.31 110.36 315.31 119.057Z" fill="#0F0E0E"/>
<path d="M418.221 175.456C408.854 175.456 400.425 173.248 392.932 168.832C385.439 164.417 379.484 158.463 375.069 150.97C370.653 143.343 368.446 134.846 368.446 125.48C368.446 116.247 370.653 107.952 375.069 100.592C379.484 93.0994 385.439 87.1451 392.932 82.7295C400.425 78.314 408.854 76.1062 418.221 76.1062C427.453 76.1062 435.816 78.314 443.309 82.7295C450.936 87.0113 456.957 92.8987 461.372 100.392C465.788 107.885 467.996 116.247 467.996 125.48C467.996 134.846 465.788 143.343 461.372 150.97C456.957 158.463 450.936 164.417 443.309 168.832C435.816 173.248 427.453 175.456 418.221 175.456ZM418.221 157.994C424.242 157.994 429.594 156.589 434.277 153.78C438.96 150.97 442.64 147.156 445.316 142.339C447.992 137.389 449.33 131.769 449.33 125.48C449.33 119.325 447.925 113.839 445.115 109.022C442.439 104.205 438.76 100.459 434.076 97.7825C429.527 94.9726 424.242 93.5677 418.221 93.5677C412.199 93.5677 406.847 94.9726 402.164 97.7825C397.481 100.459 393.801 104.205 391.125 109.022C388.449 113.839 387.111 119.325 387.111 125.48C387.111 131.769 388.449 137.389 391.125 142.339C393.801 147.156 397.481 150.97 402.164 153.78C406.847 156.589 412.199 157.994 418.221 157.994Z" fill="#0F0E0E"/>
<path d="M518.655 175.456C513.303 175.456 508.219 174.787 503.402 173.449C498.718 171.977 494.37 169.97 490.356 167.428C486.342 164.751 482.863 161.607 479.919 157.994L491.56 146.353C495.039 150.635 499.053 153.846 503.602 155.987C508.152 157.994 513.236 158.998 518.856 158.998C524.476 158.998 528.824 158.061 531.902 156.188C534.979 154.181 536.518 151.438 536.518 147.959C536.518 144.48 535.247 141.804 532.705 139.931C530.296 137.924 527.152 136.318 523.271 135.114C519.391 133.776 515.243 132.505 510.828 131.3C506.546 129.962 502.465 128.29 498.585 126.283C494.704 124.276 491.493 121.533 488.951 118.054C486.542 114.575 485.338 109.959 485.338 104.205C485.338 98.4515 486.743 93.5008 489.553 89.3528C492.363 85.0711 496.243 81.7929 501.194 79.5182C506.278 77.2436 512.366 76.1062 519.458 76.1062C526.951 76.1062 533.574 77.4443 539.328 80.1204C545.215 82.6626 550.032 86.543 553.779 91.7613L542.138 103.402C539.462 99.9234 536.117 97.2473 532.103 95.374C528.222 93.5008 523.807 92.5641 518.856 92.5641C513.638 92.5641 509.623 93.5008 506.814 95.374C504.137 97.1135 502.799 99.5889 502.799 102.8C502.799 106.011 504.004 108.487 506.412 110.226C508.821 111.966 511.965 113.438 515.845 114.642C519.859 115.846 524.007 117.117 528.289 118.455C532.571 119.659 536.652 121.332 540.532 123.473C544.413 125.614 547.557 128.491 549.965 132.103C552.508 135.716 553.779 140.466 553.779 146.353C553.779 155.318 550.568 162.41 544.145 167.628C537.856 172.847 529.36 175.456 518.655 175.456Z" fill="#0F0E0E"/>
<path d="M618.157 175.456C608.657 175.456 600.093 173.315 592.466 169.033C584.84 164.618 578.818 158.663 574.403 151.17C569.987 143.677 567.78 135.181 567.78 125.681C567.78 116.314 569.92 107.885 574.202 100.392C578.618 92.8987 584.505 87.0113 591.864 82.7295C599.357 78.314 607.72 76.1062 616.953 76.1062C625.784 76.1062 633.544 78.1133 640.234 82.1274C647.059 86.1415 652.344 91.6944 656.09 98.786C659.971 105.878 661.911 113.906 661.911 122.871C661.911 124.209 661.844 125.681 661.71 127.286C661.576 128.758 661.309 130.498 660.907 132.505H580.424V117.452H651.273L644.65 123.272C644.65 116.85 643.513 111.431 641.238 107.015C638.963 102.466 635.752 98.9867 631.604 96.5783C627.456 94.036 622.439 92.7648 616.551 92.7648C610.396 92.7648 604.977 94.1029 600.294 96.779C595.611 99.4551 591.998 103.202 589.456 108.019C586.914 112.835 585.642 118.522 585.642 125.079C585.642 131.769 586.98 137.656 589.657 142.741C592.333 147.691 596.146 151.572 601.097 154.382C606.048 157.058 611.734 158.396 618.157 158.396C623.509 158.396 628.393 157.459 632.808 155.586C637.358 153.713 641.238 150.903 644.449 147.156L656.09 158.998C651.541 164.35 645.921 168.431 639.231 171.241C632.675 174.051 625.65 175.456 618.157 175.456Z" fill="#0F0E0E"/>
<path d="M731.783 175.456C724.558 175.456 718.001 173.984 712.114 171.04C706.36 167.963 701.744 163.748 698.265 158.396C694.786 153.044 692.846 146.956 692.445 140.131V111.431C692.846 104.473 694.786 98.3846 698.265 93.1663C701.878 87.8141 706.561 83.6662 712.315 80.7225C718.202 77.645 724.692 76.1062 731.783 76.1062C740.48 76.1062 748.308 78.314 755.266 82.7295C762.357 87.1451 767.91 93.0994 771.924 100.592C775.939 108.085 777.946 116.515 777.946 125.881C777.946 135.248 775.939 143.677 771.924 151.17C767.91 158.663 762.357 164.618 755.266 169.033C748.308 173.315 740.48 175.456 731.783 175.456ZM728.773 158.396C734.794 158.396 740.079 156.991 744.628 154.181C749.178 151.371 752.79 147.558 755.466 142.741C758.143 137.79 759.481 132.103 759.481 125.681C759.481 119.392 758.143 113.772 755.466 108.821C752.79 103.871 749.178 100.057 744.628 97.3811C740.079 94.5712 734.861 93.1663 728.973 93.1663C722.952 93.1663 717.667 94.5712 713.117 97.3811C708.568 100.057 705.022 103.871 702.48 108.821C699.938 113.772 698.667 119.459 698.667 125.881C698.667 132.17 699.871 137.79 702.279 142.741C704.822 147.558 708.367 151.371 712.917 154.181C717.6 156.991 722.885 158.396 728.773 158.396ZM681.607 173.449V30.1445H699.67V101.395L696.258 124.476L699.67 147.758V173.449H681.607Z" fill="#0F0E0E"/>
<path d="M836.759 175.456C828.998 175.456 821.973 173.716 815.685 170.237C809.53 166.625 804.713 161.674 801.234 155.385C797.755 149.096 796.015 141.804 796.015 133.508V78.1133H814.079V132.705C814.079 137.924 814.949 142.473 816.688 146.353C818.561 150.1 821.237 152.977 824.716 154.984C828.195 156.991 832.276 157.994 836.959 157.994C844.051 157.994 849.604 155.787 853.618 151.371C857.632 146.822 859.639 140.6 859.639 132.705V78.1133H877.703V133.508C877.703 141.804 875.963 149.096 872.484 155.385C869.006 161.674 864.189 166.625 858.034 170.237C852.012 173.716 844.921 175.456 836.759 175.456Z" fill="#0F0E0E"/>
<path d="M942.255 175.456C933.424 175.456 925.529 173.315 918.572 169.033C911.614 164.618 906.061 158.663 901.913 151.17C897.899 143.677 895.892 135.248 895.892 125.881C895.892 116.515 897.899 108.085 901.913 100.592C906.061 93.0994 911.614 87.1451 918.572 82.7295C925.529 78.314 933.424 76.1062 942.255 76.1062C949.347 76.1062 955.769 77.645 961.523 80.7225C967.276 83.6662 971.893 87.8141 975.371 93.1663C978.984 98.3846 980.991 104.473 981.393 111.431V140.131C980.991 146.956 979.051 153.044 975.572 158.396C972.093 163.748 967.477 167.963 961.723 171.04C955.97 173.984 949.48 175.456 942.255 175.456ZM945.266 158.396C951.287 158.396 956.505 156.991 960.921 154.181C965.47 151.371 969.016 147.558 971.558 142.741C974.1 137.79 975.371 132.17 975.371 125.881C975.371 119.325 974.033 113.638 971.357 108.821C968.815 104.004 965.269 100.191 960.72 97.3811C956.304 94.5712 951.086 93.1663 945.065 93.1663C939.044 93.1663 933.758 94.5712 929.209 97.3811C924.66 100.191 921.047 104.071 918.371 109.022C915.829 113.839 914.557 119.392 914.557 125.681C914.557 132.103 915.829 137.79 918.371 142.741C921.047 147.558 924.66 151.371 929.209 154.181C933.892 156.991 939.244 158.396 945.266 158.396ZM992.431 173.449H974.167V147.758L977.579 124.476L974.167 101.395V30.1445H992.431V173.449Z" fill="#0F0E0E"/>
<path d="M92.4884 224C143.656 224 185.135 182.521 185.135 131.353C92.4884 131.353 92.4884 51.9417 -0.158691 51.9417V131.353C-0.158691 182.521 41.3208 224 92.4884 224Z" fill="#E31665"/>
<path d="M94.8551 223.968C94.0665 223.988 93.2754 223.999 92.4821 223.999C91.7954 223.999 91.1105 223.991 90.4274 223.976C91.1101 223.99 91.7947 223.998 92.4811 223.998C93.2747 223.998 94.0662 223.988 94.8551 223.968ZM88.2926 223.904C87.6486 223.875 87.0064 223.84 86.3658 223.798C87.0064 223.84 87.6486 223.876 88.2926 223.904ZM184.191 144.585C184.157 144.824 184.12 145.062 184.084 145.301C184.129 145 184.173 144.699 184.215 144.397C184.207 144.46 184.2 144.523 184.191 144.585ZM137.558 122.422C137.415 122.361 137.27 122.303 137.128 122.242L136.717 122.062C136.997 122.183 137.277 122.303 137.558 122.422ZM185.13 118.117H185.129C143.86 118.117 123.859 101.109 101.095 81.5977L100.878 81.4111C96.8464 77.9558 92.7326 74.4293 88.4244 70.958C113.02 36.0592 136.104 -1 185.13 -1V118.117ZM89.3405 223.945C89.0161 223.934 88.6923 223.921 88.3688 223.907C88.6922 223.921 89.0161 223.934 89.3405 223.945Z" fill="#E31665"/>
<path opacity="0.6" d="M20.1243 62.5842C20.1243 59.4685 20.2441 56.3529 20.4238 53.2372C14.1326 52.2186 7.3021 51.6195 -0.127563 51.4996V130.949C-0.127563 182.238 41.6343 224 92.9829 224C110.119 224 126.177 219.326 139.958 211.237C71.4728 196.438 20.1243 135.503 20.1243 62.5842Z" fill="#B81457"/>
</g>
<defs>
<clipPath id="clip0_4242_4438">
<rect width="992" height="224" fill="white"/>
</clipPath>
</defs>
</svg>
