<svg width="1013" height="224" viewBox="0 0 1013 224" fill="none" xmlns="http://www.w3.org/2000/svg">
<path d="M317.247 173.449V78.1138H335.31V173.449H317.247ZM335.31 119.058L328.486 116.047C328.486 103.871 331.296 94.1703 336.916 86.9449C342.536 79.7194 350.631 76.1067 361.201 76.1067C366.018 76.1067 370.367 76.9765 374.247 78.7159C378.127 80.3216 381.74 83.0645 385.085 86.9449L373.244 99.1879C371.237 97.0471 369.029 95.5083 366.62 94.5717C364.212 93.6351 361.402 93.1667 358.191 93.1667C351.5 93.1667 346.014 95.3076 341.733 99.5893C337.451 103.871 335.31 110.361 335.31 119.058Z" fill="white"/>
<path d="M438.221 175.456C428.854 175.456 420.425 173.248 412.932 168.833C405.439 164.417 399.484 158.463 395.069 150.97C390.653 143.343 388.446 134.847 388.446 125.48C388.446 116.248 390.653 107.952 395.069 100.593C399.484 93.0998 405.439 87.1456 412.932 82.73C420.425 78.3145 428.854 76.1067 438.221 76.1067C447.453 76.1067 455.816 78.3145 463.309 82.73C470.936 87.0118 476.957 92.8991 481.372 100.392C485.788 107.885 487.996 116.248 487.996 125.48C487.996 134.847 485.788 143.343 481.372 150.97C476.957 158.463 470.936 164.417 463.309 168.833C455.816 173.248 447.453 175.456 438.221 175.456ZM438.221 157.995C444.242 157.995 449.594 156.59 454.277 153.78C458.96 150.97 462.64 147.157 465.316 142.34C467.992 137.389 469.33 131.769 469.33 125.48C469.33 119.325 467.925 113.839 465.115 109.023C462.439 104.206 458.76 100.459 454.076 97.783C449.527 94.9731 444.242 93.5682 438.221 93.5682C432.199 93.5682 426.847 94.9731 422.164 97.783C417.481 100.459 413.801 104.206 411.125 109.023C408.449 113.839 407.111 119.325 407.111 125.48C407.111 131.769 408.449 137.389 411.125 142.34C413.801 147.157 417.481 150.97 422.164 153.78C426.847 156.59 432.199 157.995 438.221 157.995Z" fill="white"/>
<path d="M538.655 175.456C533.303 175.456 528.219 174.787 523.402 173.449C518.718 171.977 514.37 169.97 510.356 167.428C506.342 164.752 502.863 161.608 499.919 157.995L511.56 146.354C515.039 150.636 519.053 153.847 523.602 155.988C528.152 157.995 533.236 158.998 538.856 158.998C544.476 158.998 548.824 158.062 551.902 156.188C554.979 154.181 556.518 151.438 556.518 147.96C556.518 144.481 555.247 141.805 552.705 139.931C550.296 137.924 547.152 136.319 543.271 135.114C539.391 133.776 535.243 132.505 530.828 131.301C526.546 129.963 522.465 128.29 518.585 126.283C514.704 124.276 511.493 121.533 508.951 118.054C506.542 114.575 505.338 109.959 505.338 104.206C505.338 98.452 506.743 93.5013 509.553 89.3533C512.363 85.0716 516.243 81.7934 521.194 79.5187C526.278 77.2441 532.366 76.1067 539.458 76.1067C546.951 76.1067 553.574 77.4448 559.328 80.1208C565.215 82.6631 570.032 86.5434 573.779 91.7618L562.138 103.403C559.462 99.9239 556.117 97.2478 552.103 95.3745C548.222 93.5013 543.807 92.5646 538.856 92.5646C533.638 92.5646 529.623 93.5013 526.814 95.3745C524.137 97.114 522.799 99.5893 522.799 102.801C522.799 106.012 524.004 108.487 526.412 110.227C528.821 111.966 531.965 113.438 535.845 114.642C539.859 115.847 544.007 117.118 548.289 118.456C552.571 119.66 556.652 121.332 560.532 123.473C564.413 125.614 567.557 128.491 569.965 132.104C572.508 135.716 573.779 140.466 573.779 146.354C573.779 155.319 570.568 162.41 564.145 167.629C557.856 172.847 549.36 175.456 538.655 175.456Z" fill="white"/>
<path d="M638.157 175.456C628.657 175.456 620.093 173.315 612.466 169.034C604.84 164.618 598.818 158.664 594.403 151.171C589.987 143.678 587.78 135.181 587.78 125.681C587.78 116.315 589.92 107.885 594.202 100.392C598.618 92.8991 604.505 87.0118 611.864 82.73C619.357 78.3145 627.72 76.1067 636.953 76.1067C645.784 76.1067 653.544 78.1138 660.234 82.1279C667.059 86.142 672.344 91.6949 676.09 98.7865C679.971 105.878 681.911 113.906 681.911 122.871C681.911 124.209 681.844 125.681 681.71 127.287C681.576 128.759 681.309 130.498 680.907 132.505H600.424V117.452H671.273L664.65 123.273C664.65 116.85 663.513 111.431 661.238 107.015C658.963 102.466 655.752 98.9872 651.604 96.5788C647.456 94.0365 642.439 92.7653 636.551 92.7653C630.396 92.7653 624.977 94.1034 620.294 96.7795C615.611 99.4555 611.998 103.202 609.456 108.019C606.914 112.836 605.642 118.523 605.642 125.079C605.642 131.769 606.98 137.657 609.657 142.741C612.333 147.692 616.146 151.572 621.097 154.382C626.048 157.058 631.734 158.396 638.157 158.396C643.509 158.396 648.393 157.46 652.808 155.586C657.358 153.713 661.238 150.903 664.449 147.157L676.09 158.998C671.541 164.351 665.921 168.432 659.231 171.241C652.675 174.051 645.65 175.456 638.157 175.456Z" fill="white"/>
<path d="M751.783 175.456C744.558 175.456 738.001 173.984 732.114 171.041C726.36 167.963 721.744 163.748 718.265 158.396C714.786 153.044 712.846 146.956 712.445 140.132V111.431C712.846 104.473 714.786 98.3851 718.265 93.1667C721.878 87.8146 726.561 83.6667 732.315 80.723C738.202 77.6455 744.692 76.1067 751.783 76.1067C760.48 76.1067 768.308 78.3145 775.266 82.73C782.357 87.1456 787.91 93.0998 791.924 100.593C795.939 108.086 797.946 116.516 797.946 125.882C797.946 135.248 795.939 143.678 791.924 151.171C787.91 158.664 782.357 164.618 775.266 169.034C768.308 173.315 760.48 175.456 751.783 175.456ZM748.773 158.396C754.794 158.396 760.079 156.991 764.628 154.181C769.178 151.372 772.79 147.558 775.466 142.741C778.143 137.79 779.481 132.104 779.481 125.681C779.481 119.392 778.143 113.773 775.466 108.822C772.79 103.871 769.178 100.058 764.628 97.3816C760.079 94.5717 754.861 93.1667 748.973 93.1667C742.952 93.1667 737.667 94.5717 733.117 97.3816C728.568 100.058 725.022 103.871 722.48 108.822C719.938 113.773 718.667 119.459 718.667 125.882C718.667 132.171 719.871 137.79 722.279 142.741C724.822 147.558 728.367 151.372 732.917 154.181C737.6 156.991 742.885 158.396 748.773 158.396ZM701.607 173.449V30.145H719.67V101.396L716.258 124.477L719.67 147.759V173.449H701.607Z" fill="white"/>
<path d="M856.759 175.456C848.998 175.456 841.973 173.717 835.685 170.238C829.53 166.625 824.713 161.674 821.234 155.386C817.755 149.097 816.015 141.805 816.015 133.509V78.1138H834.079V132.706C834.079 137.924 834.949 142.474 836.688 146.354C838.561 150.1 841.237 152.977 844.716 154.984C848.195 156.991 852.276 157.995 856.959 157.995C864.051 157.995 869.604 155.787 873.618 151.372C877.632 146.822 879.639 140.6 879.639 132.706V78.1138H897.703V133.509C897.703 141.805 895.963 149.097 892.484 155.386C889.006 161.674 884.189 166.625 878.034 170.238C872.012 173.717 864.921 175.456 856.759 175.456Z" fill="white"/>
<path d="M962.255 175.456C953.424 175.456 945.529 173.315 938.572 169.034C931.614 164.618 926.061 158.664 921.913 151.171C917.899 143.678 915.892 135.248 915.892 125.882C915.892 116.516 917.899 108.086 921.913 100.593C926.061 93.0998 931.614 87.1456 938.572 82.73C945.529 78.3145 953.424 76.1067 962.255 76.1067C969.347 76.1067 975.769 77.6455 981.523 80.723C987.276 83.6667 991.893 87.8146 995.371 93.1667C998.984 98.3851 1000.99 104.473 1001.39 111.431V140.132C1000.99 146.956 999.051 153.044 995.572 158.396C992.093 163.748 987.477 167.963 981.723 171.041C975.97 173.984 969.48 175.456 962.255 175.456ZM965.266 158.396C971.287 158.396 976.505 156.991 980.921 154.181C985.47 151.372 989.016 147.558 991.558 142.741C994.1 137.79 995.371 132.171 995.371 125.882C995.371 119.325 994.033 113.639 991.357 108.822C988.815 104.005 985.269 100.191 980.72 97.3816C976.304 94.5717 971.086 93.1667 965.065 93.1667C959.044 93.1667 953.758 94.5717 949.209 97.3816C944.66 100.191 941.047 104.072 938.371 109.023C935.829 113.839 934.557 119.392 934.557 125.681C934.557 132.104 935.829 137.79 938.371 142.741C941.047 147.558 944.66 151.372 949.209 154.181C953.892 156.991 959.244 158.396 965.266 158.396ZM1012.43 173.449H994.167V147.759L997.579 124.477L994.167 101.396V30.145H1012.43V173.449Z" fill="white"/>
<path d="M111.979 224C162.919 224 204.214 182.705 204.214 131.765C111.979 131.765 111.979 52.7059 19.7435 52.7059V131.765C19.7435 182.705 61.0387 224 111.979 224Z" fill="white"/>
<path opacity="0.7" d="M111.979 224C61.0387 224 19.7435 182.705 19.7435 131.765C111.979 131.765 111.979 0 204.214 0V131.765C204.214 182.705 162.919 224 111.979 224Z" fill="white"/>
</svg>
