<svg width="624" height="625" viewBox="0 0 624 625" fill="none" xmlns="http://www.w3.org/2000/svg">
<path d="M311.968 624.001C453.872 624.001 568.909 508.965 568.909 367.06C311.968 367.06 311.968 146.825 55.0264 146.825V367.06C55.0264 508.965 170.063 624.001 311.968 624.001Z" fill="#42B08F"/>
<path d="M92.4481 500.684C137.561 574.629 218.989 623.995 311.948 623.995C402.707 623.995 482.475 576.939 528.185 505.893V505.894C482.475 576.94 402.708 623.997 311.949 623.997C226.882 623.997 151.471 582.658 104.709 518.973C104.696 518.955 104.683 518.937 104.67 518.919C103.743 517.657 102.828 516.385 101.925 515.105C101.887 515.052 101.85 514.999 101.812 514.946C100.443 513.004 99.0995 511.042 97.7831 509.061C97.7273 508.977 97.6717 508.893 97.6161 508.809C95.876 506.183 94.1829 503.523 92.538 500.831C92.4881 500.749 92.4384 500.668 92.3885 500.586L92.4481 500.684ZM532.457 499.019C531.994 499.79 531.527 500.56 531.057 501.326L529.633 503.617C530.59 502.095 531.531 500.561 532.457 499.018V499.019ZM537.821 489.632C536.959 491.217 536.081 492.791 535.187 494.355L533.834 496.694C535.199 494.363 536.528 492.008 537.821 489.631V489.632ZM86.3094 490.059C87.0949 491.496 87.894 492.926 88.7059 494.347L89.9335 496.473C89.1084 495.06 88.2966 493.639 87.4979 492.21L86.3094 490.059ZM81.0067 479.806C81.978 481.791 82.9725 483.763 83.993 485.72L85.1415 487.896C84.7553 487.172 84.3715 486.447 83.9921 485.72C83.9829 485.702 83.9739 485.685 83.9647 485.667C82.9539 483.728 81.9692 481.773 81.0067 479.806ZM543.978 477.559C542.809 480.01 541.602 482.439 540.358 484.847L539.101 487.246C540.37 484.854 541.601 482.439 542.796 480.002L543.978 477.559ZM78.576 474.695C79.2474 476.149 79.9312 477.595 80.6288 479.033C80.6157 479.006 80.6028 478.979 80.5897 478.952C79.9212 477.573 79.2644 476.186 78.62 474.793C78.605 474.761 78.591 474.728 78.576 474.695ZM554.388 452.362C551.962 459.257 549.25 466.018 546.266 472.629L545.135 475.101C548.186 468.527 550.967 461.802 553.464 454.941L554.388 452.362ZM560.09 433.965C559.372 436.635 558.612 439.287 557.81 441.922L556.995 444.55C558.1 441.053 559.132 437.524 560.09 433.964V433.965ZM563.787 418.247C563.648 418.932 563.508 419.617 563.364 420.3C563.508 419.617 563.648 418.932 563.787 418.247ZM564.706 413.462C565.325 410.069 565.879 406.654 566.363 403.216C566.338 403.395 566.315 403.575 566.289 403.755C565.823 407.011 565.293 410.247 564.706 413.462ZM568.892 330.351H568.89C454.438 330.35 398.969 283.183 335.837 229.069L335.234 228.553C324.055 218.97 312.646 209.191 300.698 199.564C368.911 102.778 432.93 3.07622e-05 568.892 0V330.351ZM564.214 416.091C564.14 416.47 564.065 416.849 563.99 417.228C564.065 416.849 564.14 416.47 564.214 416.091Z" fill="#42B08F"/>
<path opacity="0.6" d="M111.278 176.34C111.278 167.699 111.61 159.059 112.109 150.418C94.6612 147.593 75.718 145.931 55.113 145.599V365.939C55.113 508.179 170.933 623.999 313.339 623.999C360.864 623.999 405.397 611.038 443.616 588.605C253.685 547.561 111.278 378.568 111.278 176.34Z" fill="#35826B"/>
</svg>
