<svg width="34" height="34" viewBox="0 0 34 34" fill="none" xmlns="http://www.w3.org/2000/svg">
<path d="M28.333 19.1709C29.1428 19.1709 29.7976 19.825 29.7978 20.6348V23.2266H32.3887C33.1985 23.2266 33.8533 23.8806 33.8535 24.6904C33.8533 25.5002 33.1985 26.1553 32.3887 26.1553H29.7978V28.7383C29.7977 29.5481 29.1429 30.2031 28.333 30.2031C27.5233 30.2029 26.8693 29.548 26.8691 28.7383V26.1553H24.2852C23.4755 26.155 22.8215 25.5001 22.8213 24.6904C22.8215 23.8808 23.4755 23.2268 24.2852 23.2266H26.8691V20.6348C26.8694 19.8251 27.5234 19.1711 28.333 19.1709Z" fill="black"/>
<path fill-rule="evenodd" clip-rule="evenodd" d="M11.333 3.79785C15.4863 3.79785 18.8691 7.18067 18.8691 11.334C18.869 13.2545 18.1471 15.0517 16.8838 16.4209C18.9219 18.3144 20.5586 21.2293 21.5957 24.8154L21.6592 25.0596C21.9394 26.2891 21.6653 27.6052 20.9072 28.6133C20.1504 29.6194 19.0258 30.2021 17.8096 30.2021H4.85742C3.64203 30.2021 2.50832 29.6201 1.75878 28.6123C0.950281 27.537 0.693593 26.1205 1.07128 24.8154C2.10837 21.2214 3.75208 18.3145 5.78222 16.4219C4.51871 15.0519 3.79801 13.2467 3.79785 11.334C3.79785 7.18079 7.17987 3.79804 11.333 3.79785ZM11.3252 6.72656C8.78748 6.73098 6.72656 8.79525 6.72656 11.334C6.72678 12.9232 7.53245 14.3815 8.88476 15.2344C9.31299 15.5069 9.56724 15.9756 9.56738 16.4736C9.5673 16.9101 9.36628 17.3311 9.02734 17.6064L8.87402 17.7148C6.80448 18.9959 4.96797 21.8656 3.875 25.6348C3.75092 26.0624 3.83436 26.5144 4.09277 26.8545L4.09375 26.8555C4.2226 27.0272 4.47351 27.2742 4.84863 27.2744H17.8018C18.1769 27.2743 18.4278 27.0272 18.5566 26.8555L18.5576 26.8545C18.8144 26.5165 18.8925 26.0558 18.7744 25.6318C17.7155 21.9824 15.9593 19.1759 13.9697 17.8398L13.7764 17.7148C13.3465 17.4508 13.0831 16.9813 13.083 16.4736C13.0831 15.9692 13.3357 15.4981 13.7685 15.2324C15.1193 14.3793 15.9236 12.9221 15.9238 11.334C15.9238 8.79522 13.8629 6.73093 11.3252 6.72656Z" fill="black"/>
<path d="M19.4199 3.79785C23.5732 3.79785 26.9561 7.18067 26.9561 11.334C26.9559 13.254 26.2344 15.0509 24.9717 16.4199C25.3925 16.8091 25.8006 17.2447 26.1875 17.7246C26.6958 18.3503 26.5984 19.2775 25.9736 19.7852L25.9697 19.7871C25.7694 19.9444 25.5409 20.0447 25.3047 20.0859V20.1162H25.0547C24.6257 20.1161 24.2048 19.93 23.9131 19.5703L23.9121 19.5693C23.3512 18.8699 22.7584 18.308 22.1445 17.8867L21.8799 17.7148C21.4501 17.4508 21.1866 16.9813 21.1865 16.4736C21.1867 15.9693 21.4394 15.4981 21.8721 15.2324C23.2227 14.3793 24.0271 12.9221 24.0273 11.334C24.0273 8.79253 21.9614 6.72656 19.4199 6.72656C18.6104 6.72608 17.9562 6.07128 17.9561 5.26172C17.9563 4.45224 18.6105 3.79834 19.4199 3.79785Z" fill="black"/>
</svg>
