<svg width="34" height="34" viewBox="0 0 34 34" fill="none" xmlns="http://www.w3.org/2000/svg">
<path d="M18.9 31.5C18.2814 31.5 17.7512 31.1465 17.6628 30.5279C16.4256 26.1093 12.8907 22.5744 8.47209 21.3372C7.94186 21.1605 7.5 20.6302 7.5 20.1C7.5 19.5698 7.85349 18.9512 8.47209 18.8628C12.8907 17.6256 16.3372 14.0907 17.6628 9.67211C17.8395 9.14187 18.3698 8.70001 18.9 8.70001C19.5186 8.70001 20.0488 9.0535 20.1372 9.67211C21.3744 14.0907 24.9093 17.6256 29.3279 18.8628C29.8581 19.0395 30.3 19.5698 30.3 20.1C30.3 20.6302 29.9465 21.2488 29.3279 21.3372C24.9093 22.5744 21.4628 26.1093 20.1372 30.5279C19.9605 31.1465 19.4302 31.5 18.9 31.5Z" fill="black"/>
<path d="M8.01656 13.7669C7.54834 13.7669 7.14702 13.4994 7.08013 13.0312C6.61192 11.4259 5.34106 10.0881 3.66887 9.6199C3.26755 9.48612 3 9.0848 3 8.61659C3 8.14837 3.26755 7.74705 3.73576 7.68016C5.34106 7.21195 6.67881 5.8742 7.14702 4.2689C7.21391 3.80069 7.61523 3.53314 8.01656 3.53314C8.41788 3.53314 8.88609 3.80069 8.95298 4.2689C9.42119 5.8742 10.6921 7.21195 12.3642 7.68016C12.7656 7.81394 13.1 8.21526 13.1 8.61659C13.1 9.01791 12.8325 9.48612 12.3642 9.55301C10.7589 10.0212 9.42119 11.359 8.95298 12.9643C8.88609 13.4325 8.48477 13.7669 8.01656 13.7669Z" fill="black"/>
</svg>
