<svg width="34" height="34" viewBox="0 0 34 34" fill="none" xmlns="http://www.w3.org/2000/svg">
<path d="M19.8008 7.2002C20.5005 7.20034 21.1001 7.60008 21.2002 8.2998C22.6002 13.2998 26.6006 17.3002 31.6006 18.7002C32.2003 18.9002 32.7 19.4998 32.7002 20.0996C32.7002 20.6996 32.3005 21.3999 31.6006 21.5C26.6006 22.9 22.7002 26.9004 21.2002 31.9004C21.0001 32.6 20.4005 32.9998 19.8008 33C19.1009 33 18.5005 32.6002 18.4004 31.9004C17.0004 26.9004 13 22.9 8 21.5C7.40016 21.2999 6.90039 20.6995 6.90039 20.0996C6.90057 19.4998 7.30041 18.8004 8 18.7002C13 17.3002 16.9004 13.2998 18.4004 8.2998C18.6005 7.69989 19.2008 7.2002 19.8008 7.2002ZM19.8008 12.5996C18.1009 15.6995 15.4006 18.2996 12.3008 20.0996C15.5007 21.7996 18.1008 24.3997 19.8008 27.5996C21.5008 24.3998 24.1009 21.7995 27.3008 20.0996C24.1008 18.3996 21.5008 15.7996 19.8008 12.5996ZM8.90039 1C9.5003 1 10.2006 1.39981 10.3008 2.09961C11.0008 4.49961 12.9004 6.5002 15.4004 7.2002C16.0002 7.40017 16.4998 7.99976 16.5 8.59961C16.5 9.19961 16.1004 9.9 15.4004 10C13.0005 10.7 11.0009 12.6998 10.3008 15.0996C10.2008 15.7996 9.60039 16.2998 8.90039 16.2998C8.20044 16.2998 7.60006 15.9001 7.5 15.2002C6.8 12.8002 4.90039 10.7996 2.40039 10.0996C1.80046 9.89957 1.40039 9.29956 1.40039 8.59961C1.40054 7.89991 1.80038 7.30035 2.5 7.2002C4.9 6.5002 6.90059 4.49961 7.60059 2.09961C7.70076 1.39986 8.30051 1 8.90039 1ZM9 5.90039C8.2002 7.00003 7.30047 7.89975 6.30078 8.59961C7.30065 9.29953 8.20008 10.2 9 11.2998C9.7 10.2998 10.6002 9.29961 11.7002 8.59961C10.7003 7.89966 9.7999 7.00024 9 5.90039Z" fill="black"/>
</svg>
