<svg width="34" height="34" viewBox="0 0 34 34" fill="none" xmlns="http://www.w3.org/2000/svg">
<path d="M15.5 31.1667V3.54175C15.5 2.71332 16.1716 2.04175 17 2.04175C17.8284 2.04175 18.5 2.71332 18.5 3.54175V31.1667C18.5 31.9952 17.8284 32.6667 17 32.6667C16.1716 32.6667 15.5 31.9952 15.5 31.1667Z" fill="black"/>
<path d="M15.9388 1.77275C16.5245 1.18702 17.4741 1.18713 18.0599 1.77275L27.2688 10.9808C27.8545 11.5664 27.8543 12.516 27.2688 13.1019C26.6831 13.6876 25.7335 13.6876 25.1478 13.1019L16.9993 4.95342L8.85186 13.1019C8.26607 13.6876 7.31655 13.6876 6.73076 13.1019C6.14514 12.5161 6.14503 11.5665 6.73076 10.9808L15.9388 1.77275Z" fill="black"/>
</svg>
