<svg width="34" height="34" viewBox="0 0 34 34" fill="none" xmlns="http://www.w3.org/2000/svg">
<path d="M15.5 2.8335V30.4585C15.5 31.2869 16.1716 31.9585 17 31.9585C17.8284 31.9585 18.5 31.2869 18.5 30.4585V2.8335C18.5 2.00507 17.8284 1.3335 17 1.3335C16.1716 1.3335 15.5 2.00507 15.5 2.8335Z" fill="black"/>
<path d="M15.9388 32.2275C16.5245 32.8132 17.4741 32.8131 18.0599 32.2275L27.2688 23.0195C27.8545 22.4338 27.8543 21.4842 27.2688 20.8984C26.6831 20.3126 25.7335 20.3126 25.1478 20.8984L16.9993 29.0468L8.85186 20.8984C8.26607 20.3126 7.31655 20.3126 6.73076 20.8984C6.14514 21.4842 6.14503 22.4337 6.73076 23.0195L15.9388 32.2275Z" fill="black"/>
</svg>
