<svg width="34" height="34" viewBox="0 0 34 34" fill="none" xmlns="http://www.w3.org/2000/svg">
<path d="M28.2998 3.5C30.8998 3.5 33 5.6002 33 8.2002V28.2998C33 30.8998 30.8998 33 28.2998 33H5.7002C3.1002 33 1 30.8998 1 28.2998V8.2002C1 5.6002 3.1002 3.5 5.7002 3.5H28.2998ZM5.7002 6.5C4.8002 6.5 4 7.2002 4 8.2002V28.2998C4 29.1998 4.7002 30 5.7002 30H28.2998C29.1998 30 30 29.2998 30 28.2998V8.2002C30 7.3002 29.2998 6.5 28.2998 6.5H5.7002Z" fill="black"/>
<rect x="8" y="21" width="18" height="3" rx="1.5" fill="black"/>
<rect x="8" y="15" width="18" height="3" rx="1.5" fill="black"/>
</svg>
