<svg width="34" height="34" viewBox="0 0 34 34" fill="none" xmlns="http://www.w3.org/2000/svg">
<path d="M2.73 32.9C2.37 32.9 2 32.77 1.72 32.51C1.24 32.07 1.1 31.38 1.36 30.79L4.3 24.22C2.17 21.72 1 18.65 1 15.49C1 7.54996 8.18 1.09998 17 1.09998C25.82 1.09998 33 7.54996 33 15.48C33 23.41 25.82 29.86 17 29.86C14.79 29.86 12.64 29.45 10.61 28.65L3.47 32.7C3.24 32.83 2.98 32.9 2.73 32.9ZM17 4.09998C9.83 4.09998 4 9.20996 4 15.48C4 18.18 5.12 20.81 7.14 22.88C7.57 23.32 7.69 23.98 7.44 24.54L5.96 27.84L9.77 25.68C10.19 25.44 10.69 25.42 11.12 25.61C12.97 26.44 14.95 26.86 17 26.86C24.17 26.86 30 21.75 30 15.48C30 9.20996 24.17 4.09998 17 4.09998Z" fill="black"/>
<path d="M16.59 20.68C15.98 20.68 15.54 21.13 15.54 21.78C15.54 22.39 15.96 22.86 16.57 22.86C17.22 22.86 17.62 22.39 17.62 21.78C17.62 21.13 17.2 20.68 16.59 20.68Z" fill="black"/>
<path d="M16.57 23.86C15.41 23.86 14.54 22.96 14.54 21.78C14.54 20.6 15.42 19.68 16.59 19.68C17.76 19.68 18.62 20.58 18.62 21.78C18.62 22.98 17.74 23.86 16.57 23.86ZM16.55 21.68C16.55 21.68 16.54 21.71 16.54 21.78L16.62 21.86C16.62 21.7 16.6 21.67 16.6 21.67H16.59C16.59 21.67 16.56 21.69 16.55 21.69V21.68Z" fill="black"/>
<path d="M16.8501 8.33001C16.1401 8.33001 15.3901 8.50001 14.8201 8.76001C14.5501 8.89001 14.4301 9.21001 14.5401 9.50001C14.6601 9.81001 15.0001 9.96001 15.3101 9.84001C15.6901 9.68001 16.1301 9.59001 16.5401 9.59001C17.6401 9.61001 18.2001 10.2 18.2001 11.09C18.2001 11.87 17.7601 12.55 16.9801 13.48C16.3101 14.28 15.9701 15.31 15.9001 16.17C15.8601 16.57 16.1701 16.91 16.5701 16.91H16.6201C16.9801 16.91 17.2601 16.63 17.2901 16.28C17.3701 15.51 17.6701 14.64 18.2701 13.93C19.1101 12.94 19.7701 12.08 19.7701 10.89C19.7701 9.56001 18.8601 8.32001 16.8601 8.32001L16.8501 8.33001Z" fill="black"/>
<path d="M16.6098 17.91C16.0898 17.91 15.6398 17.71 15.3198 17.37C14.9998 17.02 14.8398 16.55 14.8898 16.09C14.9998 14.9 15.4698 13.72 16.1998 12.84C16.9198 11.99 17.1898 11.52 17.1898 11.09C17.1898 10.87 17.1898 10.6 16.5198 10.59C16.2598 10.59 15.9498 10.65 15.6798 10.76C15.2798 10.92 14.8498 10.92 14.4498 10.75C14.0598 10.58 13.7498 10.26 13.5998 9.86002C13.2998 9.08002 13.6498 8.20002 14.3998 7.86002C15.1098 7.53002 16.0098 7.33002 16.8498 7.33002C19.5398 7.33002 20.7698 9.18002 20.7698 10.9C20.7698 12.52 19.8098 13.66 19.0298 14.58C18.6198 15.06 18.3498 15.72 18.2798 16.39C18.1898 17.26 17.4698 17.92 16.6098 17.92V17.91Z" fill="black"/>
</svg>
