<svg width="34" height="34" viewBox="0 0 34 34" fill="none" xmlns="http://www.w3.org/2000/svg">
<path d="M26.5059 27.625C25.3301 29.3817 24.0834 31.0959 22.1851 31.1242C20.2867 31.1667 19.6776 30.005 17.5242 30.005C15.3567 30.005 14.6909 31.0959 12.8917 31.1667C11.0359 31.2375 9.63336 29.2967 8.44336 27.5825C6.02086 24.0834 4.16503 17.6375 6.65836 13.3025C7.89086 11.1492 10.1009 9.78921 12.495 9.74671C14.3084 9.71837 16.0367 10.9792 17.1559 10.9792C18.2609 10.9792 20.3576 9.46337 22.5534 9.69004C23.4742 9.73254 26.0526 10.0584 27.7101 12.495C27.5826 12.58 24.6359 14.3084 24.6642 17.8925C24.7067 22.1709 28.4184 23.6017 28.4609 23.6159C28.4184 23.715 27.8659 25.6559 26.5059 27.625ZM18.4167 4.95837C19.4509 3.78254 21.1651 2.89004 22.5817 2.83337C22.7659 4.49087 22.1001 6.16254 21.1084 7.35254C20.1309 8.55671 18.5159 9.49171 16.9292 9.36421C16.7167 7.73504 17.5101 6.03504 18.4167 4.95837Z" fill="black"/>
</svg>
