<svg width="34" height="34" viewBox="0 0 34 34" fill="none" xmlns="http://www.w3.org/2000/svg">
<path d="M29.6998 28.1H4.2998C3.4998 28.1 2.7998 27.4 2.7998 26.6V25.8C2.7998 23.7 3.6998 21.8 5.2998 20.5C5.2998 20.5 5.2998 20.5 5.3998 20.4C6.0998 19.9 6.89981 19.2 6.89981 15.2V13.1C6.89981 9.2 8.9998 5.7 12.3998 4C13.0998 2.4 14.5998 1.3 16.3998 1C16.6998 1 17.2998 1 17.6998 1C19.4998 1.2 20.9998 2.4 21.6998 4C25.0998 5.8 27.1998 9.4 27.1998 13.3V15.1C27.1998 19.1 27.9998 19.8 28.6998 20.3C28.6998 20.3 28.7998 20.3 28.7998 20.4C30.3998 21.7 31.2998 23.6 31.2998 25.7V26.5C31.1998 27.4 30.4998 28.1 29.6998 28.1ZM5.8998 25.1H28.0998C27.8998 24.2 27.3998 23.4 26.6998 22.8L26.5998 22.7C25.2998 21.6 24.0998 20.1 24.0998 15.2V13.4C24.0998 10.4 22.3998 7.7 19.7998 6.5C19.3998 6.3 19.0998 6 18.9998 5.5C18.7998 4.7 18.0998 4.1 17.2998 4H17.1998C17.1998 4 16.8998 4 16.7998 4C15.9998 4.1 15.2998 4.7 15.0998 5.5C14.9998 5.9 14.6998 6.3 14.2998 6.5C11.6998 7.7 9.9998 10.3 9.9998 13.1V15.2C9.9998 20.1 8.7998 21.6 7.4998 22.7L7.39981 22.8C6.4998 23.4 6.0998 24.2 5.8998 25.1Z" fill="black"/>
<path d="M22 29C22 31.2091 19.7614 33 17 33C14.2386 33 12 31.2091 12 29C16.5 29 19.5 29 22 29Z" fill="black"/>
</svg>
