<svg width="34" height="34" viewBox="0 0 34 34" fill="none" xmlns="http://www.w3.org/2000/svg">
<path d="M20.3498 32.9995C19.1198 32.9995 17.9398 32.5695 16.9998 31.8095C16.0598 32.5695 14.8898 32.9995 13.6498 32.9995C11.2098 32.9995 9.13977 31.3595 8.49977 29.1195C5.56977 28.8395 3.26977 26.3695 3.26977 23.3695C3.26977 22.8495 3.33977 22.3295 3.48977 21.8195C1.95977 20.7195 1.00977 18.9395 1.00977 17.0095C1.00977 15.0795 1.96977 13.2995 3.48977 12.1995C3.33977 11.6895 3.26977 11.1695 3.26977 10.6495C3.26977 7.64953 5.56977 5.16953 8.49977 4.89953C9.13977 2.65953 11.2098 1.01953 13.6498 1.01953C14.8798 1.01953 16.0598 1.44953 16.9998 2.20953C17.9398 1.44953 19.1098 1.01953 20.3498 1.01953C22.7898 1.01953 24.8598 2.65953 25.4998 4.89953C28.4298 5.17953 30.7298 7.64953 30.7298 10.6495C30.7298 11.1695 30.6598 11.6895 30.5098 12.1995C32.0398 13.2995 32.9898 15.0795 32.9898 17.0095C32.9898 18.9395 32.0298 20.7195 30.5098 21.8195C30.6598 22.3295 30.7298 22.8495 30.7298 23.3695C30.7298 26.3695 28.4298 28.8495 25.4998 29.1195C24.8598 31.3595 22.7898 32.9995 20.3498 32.9995ZM16.9998 28.0195C17.5398 28.0195 18.0398 28.3095 18.3098 28.7795C18.7398 29.5395 19.4998 29.9895 20.3498 29.9895C21.6298 29.9895 22.6698 28.9695 22.7098 27.6995C22.7098 27.6595 22.7098 27.6195 22.7098 27.5895C22.7098 27.1395 22.8898 26.7095 23.2398 26.4195C23.5898 26.1295 24.0298 25.9995 24.4798 26.0795C24.6898 26.1195 24.8398 26.1295 24.9698 26.1295C26.4998 26.1295 27.7498 24.8795 27.7498 23.3495C27.7498 22.8495 27.6098 22.3695 27.3298 21.9095C27.0998 21.5295 27.0498 21.0595 27.1898 20.6395C27.3398 20.2195 27.6698 19.8795 28.0898 19.7295C29.2398 19.2995 30.0098 18.1995 30.0098 16.9895C30.0098 15.7795 29.2398 14.6795 28.0898 14.2495C27.6698 14.0895 27.3398 13.7595 27.1898 13.3395C27.0398 12.9195 27.0898 12.4495 27.3298 12.0695C27.6098 11.6195 27.7498 11.1295 27.7498 10.6295C27.7498 9.09953 26.4998 7.84953 24.9698 7.84953C24.8298 7.84953 24.6798 7.86953 24.4798 7.89953C24.0398 7.97953 23.5798 7.84953 23.2398 7.55953C22.8998 7.26953 22.7098 6.83953 22.7098 6.38953C22.7098 6.35953 22.7098 6.31953 22.7098 6.27953C22.6798 5.00953 21.6298 3.98953 20.3498 3.98953C19.4998 3.98953 18.7398 4.43953 18.3098 5.19953C18.0398 5.66953 17.5398 5.95953 16.9998 5.95953C16.4598 5.95953 15.9598 5.66953 15.6898 5.19953C15.2598 4.43953 14.4998 3.98953 13.6498 3.98953C12.3698 3.98953 11.3298 5.00953 11.2898 6.27953C11.2898 6.31953 11.2898 6.35953 11.2898 6.38953C11.2898 6.83953 11.1098 7.26953 10.7598 7.55953C10.4198 7.84953 9.95976 7.96953 9.51976 7.89953C9.30976 7.85953 9.15977 7.84953 9.02977 7.84953C7.49977 7.84953 6.24977 9.09953 6.24977 10.6295C6.24977 11.1295 6.38977 11.6095 6.66977 12.0695C6.89977 12.4495 6.94977 12.9195 6.80977 13.3395C6.65977 13.7595 6.32977 14.0995 5.90977 14.2495C4.75977 14.6795 3.98977 15.7795 3.98977 16.9895C3.98977 18.1995 4.75977 19.2995 5.90977 19.7295C6.32977 19.8895 6.65977 20.2195 6.80977 20.6395C6.95977 21.0595 6.90977 21.5295 6.66977 21.9095C6.38977 22.3595 6.24977 22.8495 6.24977 23.3495C6.24977 24.8795 7.49977 26.1295 9.02977 26.1295C9.16977 26.1295 9.31977 26.1095 9.51976 26.0795C9.95976 25.9995 10.4198 26.1195 10.7598 26.4195C11.0998 26.7095 11.2898 27.1395 11.2898 27.5895C11.2898 27.6195 11.2898 27.6595 11.2898 27.6995C11.3198 28.9695 12.3698 29.9895 13.6498 29.9895C14.4998 29.9895 15.2598 29.5395 15.6898 28.7795C15.9598 28.3095 16.4598 28.0195 16.9998 28.0195Z" fill="black"/>
<path d="M17 31.2602C16.17 31.2602 15.5 30.5902 15.5 29.7602V4.24023C15.5 3.41023 16.17 2.74023 17 2.74023C17.83 2.74023 18.5 3.41023 18.5 4.24023V29.7602C18.5 30.5902 17.83 31.2602 17 31.2602Z" fill="black"/>
<path fill-rule="evenodd" clip-rule="evenodd" d="M5.40039 21.1499C5.40039 21.1499 7.88039 17.9699 10.9404 19.2399L5.40039 21.1499Z" fill="white"/>
<path d="M5.39984 22.6404C5.07984 22.6404 4.74983 22.5404 4.46983 22.3204C3.81983 21.8104 3.70984 20.8704 4.20984 20.2204C5.38984 18.7004 8.25984 16.4904 11.5098 17.8504C12.2798 18.1704 12.6398 19.0504 12.3198 19.8104C11.9998 20.5804 11.1198 20.9404 10.3598 20.6204C8.40983 19.8104 6.64984 21.9804 6.56984 22.0804C6.26984 22.4504 5.82983 22.6504 5.38984 22.6504L5.39984 22.6404Z" fill="black"/>
<path d="M13.5498 25.6303C12.9198 25.6303 12.3298 25.2303 12.1198 24.5903C11.8598 23.8003 12.2998 22.9603 13.0798 22.7003L15.6898 21.8503C16.4798 21.5903 17.3198 22.0303 17.5798 22.8103C17.8398 23.6003 17.3998 24.4403 16.6198 24.7003L14.0098 25.5503C13.8598 25.6003 13.6998 25.6203 13.5498 25.6203V25.6303Z" fill="black"/>
<path fill-rule="evenodd" clip-rule="evenodd" d="M28.5996 12.8496C28.5996 12.8496 26.1196 16.0296 23.0596 14.7596L28.5996 12.8496Z" fill="white"/>
<path d="M24.5404 16.57C23.8804 16.57 23.1904 16.45 22.4804 16.15C21.7104 15.83 21.3504 14.95 21.6704 14.19C21.9904 13.43 22.8704 13.06 23.6304 13.38C25.5804 14.19 27.3404 12.02 27.4204 11.92C27.9304 11.27 28.8804 11.16 29.5204 11.67C30.1704 12.18 30.2804 13.12 29.7804 13.77C28.8604 14.96 26.9004 16.56 24.5404 16.56V16.57Z" fill="black"/>
<path d="M17.8399 12.2202C17.2099 12.2202 16.6199 11.8202 16.4099 11.1802C16.1499 10.3902 16.5899 9.55015 17.3699 9.29015L19.9799 8.44015C20.7699 8.18015 21.6099 8.62015 21.8699 9.40015C22.1299 10.1902 21.6899 11.0302 20.9099 11.2902L18.2999 12.1402C18.1499 12.1902 17.9899 12.2102 17.8399 12.2102V12.2202Z" fill="black"/>
<path d="M20.4496 23.13C20.2996 23.13 20.1396 23.11 19.9896 23.06L17.3796 22.21C16.5896 21.96 16.1596 21.11 16.4196 20.32C16.6796 19.53 17.5196 19.1 18.3096 19.36L20.9196 20.21C21.7096 20.46 22.1396 21.31 21.8796 22.1C21.6696 22.73 21.0896 23.14 20.4496 23.14V23.13Z" fill="black"/>
<path d="M16.1596 14.7199C16.0096 14.7199 15.8496 14.6999 15.6996 14.6499L13.0896 13.7999C12.2996 13.5499 11.8696 12.6999 12.1296 11.9099C12.3896 11.1199 13.2296 10.6899 14.0196 10.9499L16.6296 11.7999C17.4196 12.0499 17.8496 12.8999 17.5896 13.6899C17.3796 14.3199 16.7996 14.7299 16.1596 14.7299V14.7199Z" fill="black"/>
<path d="M8.4502 15.3697C8.2902 15.3697 8.1302 15.3497 7.9702 15.2897L4.9302 14.2697C4.1402 14.0097 3.7202 13.1597 3.9802 12.3697C4.2402 11.5797 5.0902 11.1597 5.8802 11.4197L8.9202 12.4397C9.7102 12.6997 10.1302 13.5497 9.8702 14.3397C9.6602 14.9697 9.0802 15.3697 8.4502 15.3697Z" fill="black"/>
<path d="M28.5996 22.6499C28.4396 22.6499 28.2796 22.6299 28.1196 22.5699L25.0796 21.5499C24.2896 21.2899 23.8696 20.4399 24.1296 19.6499C24.3896 18.8599 25.2396 18.4399 26.0296 18.6999L29.0696 19.7199C29.8596 19.9799 30.2796 20.8299 30.0196 21.6199C29.8096 22.2499 29.2296 22.6499 28.5996 22.6499Z" fill="black"/>
</svg>
