<svg width="34" height="34" viewBox="0 0 34 34" fill="none" xmlns="http://www.w3.org/2000/svg">
<g clip-path="url(#clip0_4242_188)">
<path d="M17 0C7.6 0 0 7.6 0 17C0 26.4 7.6 34 17 34C26.4 34 34 26.4 34 17C34 7.6 26.4 0 17 0ZM26.1 11.9L14.6 24C14.3 24.3 13.8 24.5 13.3 24.5C12.8 24.5 12.3 24.3 12 23.9L7.1 18.3C6.5 17.6 6.5 16.5 7.3 15.8C8 15.2 9.1 15.3 9.7 16L13.3 20.2L23.5 9.5C24.2 8.8 25.4 8.8 26.1 9.4C26.8 10.1 26.8 11.2 26.1 11.9Z" fill="black"/>
</g>
<defs>
<clipPath>
<rect width="34" height="34" fill="white"/>
</clipPath>
</defs>
</svg>
