<svg width="34" height="34" viewBox="0 0 34 34" fill="none" xmlns="http://www.w3.org/2000/svg">
<path d="M17 1C8.2 1 1 8.2 1 17C1 25.8 8.2 33 17 33C25.8 33 33 25.8 33 17C33 8.2 25.8 1 17 1ZM17 30C9.8 30 4 24.2 4 17C4 9.8 9.8 4 17 4C24.2 4 30 9.8 30 17C30 24.2 24.2 30 17 30Z" fill="black"/>
<path d="M17.0001 20.5C16.8001 20.5 16.5001 20.4 16.3001 20.3L10.2001 17.1C9.50006 16.7 9.20006 15.8 9.60006 15.1C10.0001 14.4 10.9001 14.1 11.6001 14.5L16.6001 17.1L22.0001 9.8C22.4001 9.1 23.4001 9 24.0001 9.5C24.7001 10 24.8001 10.9 24.3001 11.6L18.2001 19.9C17.9001 20.3 17.5001 20.5 17.0001 20.5Z" fill="black"/>
</svg>
