<svg width="34" height="34" viewBox="0 0 34 34" fill="none" xmlns="http://www.w3.org/2000/svg">
<path d="M20.69 33H5.31C2.93 33 1 31.07 1 28.69V13.31C1 10.93 2.93 9 5.31 9H20.69C23.07 9 25 10.93 25 13.31V28.69C25 31.07 23.07 33 20.69 33ZM5.31 12C4.59 12 4 12.59 4 13.31V28.69C4 29.41 4.59 30 5.31 30H20.69C21.41 30 22 29.41 22 28.69V13.31C22 12.59 21.41 12 20.69 12H5.31Z" fill="black"/>
<path d="M28.69 25H23.51C22.68 25 22.01 24.33 22.01 23.5C22.01 22.67 22.68 22 23.51 22H28.69C29.41 22 30 21.41 30 20.69V5.31C30 4.59 29.41 4 28.69 4H13.31C12.59 4 12 4.59 12 5.31V10.22C12 11.05 11.33 11.72 10.5 11.72C9.67 11.72 9 11.05 9 10.22V5.31C9 2.93 10.93 1 13.31 1H28.69C31.07 1 33 2.93 33 5.31V20.69C33 23.07 31.07 25 28.69 25Z" fill="black"/>
</svg>
