<svg width="34" height="34" viewBox="0 0 34 34" fill="none" xmlns="http://www.w3.org/2000/svg">
<path d="M26.15 33H7.85C4.07 33 1 29.93 1 26.15V7.85C1 4.07 4.07 1 7.85 1H26.14C29.92 1 32.99 4.07 32.99 7.85V26.14C32.99 29.92 29.92 32.99 26.14 32.99L26.15 33ZM7.85 4C5.73 4 4 5.73 4 7.85V26.14C4 28.26 5.73 29.99 7.85 29.99H26.14C28.26 29.99 29.99 28.26 29.99 26.14V7.85C29.99 5.73 28.26 4 26.14 4H7.85Z" fill="black"/>
<path d="M9.99957 25.4996C9.61957 25.4996 9.22957 25.3496 8.93957 25.0596C8.34957 24.4696 8.34957 23.5196 8.93957 22.9396L22.9396 8.93957C23.5296 8.34957 24.4796 8.34957 25.0596 8.93957C25.6396 9.52957 25.6496 10.4796 25.0596 11.0596L11.0596 25.0596C10.7696 25.3496 10.3796 25.4996 9.99957 25.4996Z" fill="black"/>
<path d="M23.9996 25.4997C23.6196 25.4997 23.2296 25.3497 22.9396 25.0597L8.93957 11.0597C8.34957 10.4697 8.34957 9.51973 8.93957 8.93973C9.52957 8.35973 10.4796 8.34973 11.0596 8.93973L25.0596 22.9397C25.6496 23.5297 25.6496 24.4797 25.0596 25.0597C24.7696 25.3497 24.3796 25.4997 23.9996 25.4997Z" fill="black"/>
</svg>
