<svg width="34" height="34" viewBox="0 0 34 34" fill="none" xmlns="http://www.w3.org/2000/svg">
<path d="M28.9996 30.4997C28.6196 30.4997 28.2296 30.3497 27.9396 30.0597L3.93957 6.05973C3.34957 5.46973 3.34957 4.51973 3.93957 3.93973C4.52957 3.35973 5.47957 3.34973 6.05957 3.93973L30.0596 27.9397C30.6496 28.5297 30.6496 29.4797 30.0596 30.0597C29.7696 30.3497 29.3796 30.4997 28.9996 30.4997Z" fill="black"/>
<path d="M4.99957 30.4996C4.61957 30.4996 4.22957 30.3496 3.93957 30.0596C3.34957 29.4696 3.34957 28.5196 3.93957 27.9396L27.9396 3.93957C28.5296 3.34957 29.4796 3.34957 30.0596 3.93957C30.6396 4.52957 30.6496 5.47957 30.0596 6.05957L6.05957 30.0596C5.76957 30.3496 5.37957 30.4996 4.99957 30.4996Z" fill="black"/>
</svg>
