<svg width="34" height="34" viewBox="0 0 34 34" fill="none" xmlns="http://www.w3.org/2000/svg">
<path d="M29.5 15H4.5C3.67 15 3 14.33 3 13.5V9.07C3 7.37 4.38 6 6.07 6H27.92C29.62 6 30.99 7.38 30.99 9.07V13.5C30.99 14.33 30.32 15 29.49 15H29.5ZM6 12H28V9.07C28 9.07 27.97 9 27.93 9H6.07C6.07 9 6 9.03 6 9.07V12Z" fill="black"/>
<path d="M25.4999 33H8.49992C7.69992 33 7.04992 32.38 6.99992 31.58L5.99992 13.58C5.97992 13.17 6.11992 12.77 6.40992 12.47C6.68992 12.17 7.08992 12 7.49992 12H26.4999C26.9099 12 27.3099 12.17 27.5899 12.47C27.8699 12.77 28.0199 13.17 27.9999 13.58L26.9999 31.58C26.9599 32.37 26.2999 33 25.4999 33ZM9.91992 30H24.0799L24.9099 15H9.07992L9.90992 30H9.91992Z" fill="black"/>
<path d="M12 8.65C11.17 8.65 10.5 7.98 10.5 7.15V4.5C10.5 2.57 12.07 1 14 1H20C21.93 1 23.5 2.57 23.5 4.5V7.08C23.5 7.91 22.83 8.58 22 8.58C21.17 8.58 20.5 7.91 20.5 7.08V4.5C20.5 4.23 20.27 4 20 4H14C13.73 4 13.5 4.23 13.5 4.5V7.15C13.5 7.98 12.83 8.65 12 8.65Z" fill="black"/>
<path d="M19.9991 27.9988C19.9991 27.9988 19.9591 27.9988 19.9391 27.9988C19.1091 27.9688 18.4691 27.2688 18.4991 26.4388L18.9991 13.4388C19.0291 12.6088 19.7391 11.9488 20.5591 11.9988C21.3891 12.0288 22.0291 12.7288 21.9991 13.5588L21.4991 26.5588C21.4691 27.3688 20.7991 27.9988 19.9991 27.9988Z" fill="black"/>
<path d="M13.9991 28.0018C13.1991 28.0018 12.5291 27.3718 12.4991 26.5618L11.9991 13.5618C11.9691 12.7318 12.6091 12.0418 13.4391 12.0018C14.2591 11.9618 14.9591 12.6118 14.9991 13.4418L15.4991 26.4418C15.5291 27.2718 14.8891 27.9618 14.0591 28.0018C14.0391 28.0018 14.0191 28.0018 13.9991 28.0018Z" fill="black"/>
</svg>
