<svg width="34" height="34" viewBox="0 0 34 34" fill="none" xmlns="http://www.w3.org/2000/svg">
<path d="M16.9996 0.999853C16.0512 0.999853 15.2856 1.76542 15.2856 2.71381V23.2813C15.2856 23.9783 15.7084 24.5953 16.3483 24.8695C16.9882 25.1324 17.7309 24.9838 18.2108 24.4925L24.2096 18.4936C24.8838 17.8195 24.8838 16.734 24.2096 16.0712C23.5355 15.4085 22.45 15.3971 21.7872 16.0712L18.7136 19.1449V2.71381C18.7136 1.76542 17.948 0.999853 16.9996 0.999853Z" fill="black"/>
<path d="M11.0005 15.5693C10.5663 15.5693 10.1207 15.7407 9.78931 16.072C9.11515 16.7462 9.11515 17.8317 9.78931 18.4944L15.7882 24.4933C16.4623 25.1674 17.5478 25.1674 18.2105 24.4933C18.8733 23.8191 18.8847 22.7336 18.2105 22.0709L12.2117 16.072C11.8803 15.7407 11.4347 15.5693 11.0005 15.5693Z" fill="black"/>
<path d="M25.7061 32.9972H8.30369C4.28161 32.9972 1.01367 29.7292 1.01367 25.7071V20.9995C1.01367 20.0511 1.77924 19.2855 2.72763 19.2855C3.67602 19.2855 4.44158 20.0511 4.44158 20.9995V25.7071C4.44158 27.8439 6.17839 29.5693 8.30369 29.5693H25.7061C27.8428 29.5693 29.5682 27.8324 29.5682 25.7071V20.9995C29.5682 20.0511 30.3338 19.2855 31.2822 19.2855C32.2305 19.2855 32.9961 20.0511 32.9961 20.9995V25.7071C32.9961 29.7292 29.7282 32.9972 25.7061 32.9972Z" fill="black"/>
</svg>
