<svg width="34" height="34" viewBox="0 0 34 34" fill="none" xmlns="http://www.w3.org/2000/svg">
<path d="M26.15 33H7.85C4.07 33 1 29.93 1 26.15V7.85C1 4.07 4.07 1 7.85 1H26.14C29.92 1 32.99 4.07 32.99 7.85V26.14C32.99 29.92 29.92 32.99 26.14 32.99L26.15 33ZM7.85 4C5.73 4 4 5.73 4 7.85V26.14C4 28.26 5.73 29.99 7.85 29.99H26.14C28.26 29.99 29.99 28.26 29.99 26.14V7.85C29.99 5.73 28.26 4 26.14 4H7.85Z" fill="black"/>
<path d="M16.9995 24.7398C16.5595 24.7398 16.1395 24.5398 15.8495 24.1998L7.07952 13.7298C6.70952 13.2798 6.61952 12.6598 6.86952 12.1298C7.11952 11.5998 7.64952 11.2598 8.22952 11.2598H25.7695C26.3495 11.2598 26.8795 11.5998 27.1295 12.1298C27.3795 12.6598 27.2895 13.2798 26.9195 13.7298L18.1495 24.1998C17.8595 24.5398 17.4395 24.7398 16.9995 24.7398ZM11.4395 14.2598L16.9995 20.8898L22.5595 14.2598H11.4395Z" fill="black"/>
</svg>
