<svg width="34" height="34" viewBox="0 0 34 34" fill="none" xmlns="http://www.w3.org/2000/svg">
<path d="M29.6 29.5H4.4C2.5 29.5 1 28 1 26.1V7.9C1 6 2.5 4.5 4.4 4.5H29.7C31.5 4.5 33 6 33 7.9V26.2C33 28 31.5 29.5 29.6 29.5ZM4.4 7.5C4.2 7.5 4 7.7 4 7.9V26.2C4 26.4 4.2 26.6 4.4 26.6H29.7C29.9 26.6 30.1 26.4 30.1 26.2V7.9C30.1 7.7 29.9 7.5 29.7 7.5H4.4Z" fill="black"/>
<path d="M17 22C16.2 22 15.5 21.7 15 21.2L2.2 7.89998C1.6 7.29998 1.6 6.39998 2.2 5.79998C2.8 5.19998 3.7 5.19998 4.3 5.79998L17 18.8L29.4 5.99998C30 5.39998 30.9 5.39998 31.5 5.99998C32.1 6.59998 32.1 7.49998 31.5 8.09998L19 21.1C18.5 21.6 17.7 22 17 22Z" fill="black"/>
<path d="M3.4002 28.5C3.0002 28.5 2.6002 28.4 2.4002 28.1C1.8002 27.5 1.8002 26.6 2.4002 26L11.9002 16.1C12.5002 15.5 13.4002 15.5 14.0002 16.1C14.6002 16.7 14.6002 17.6 14.0002 18.2L4.5002 28.1C4.2002 28.4 3.8002 28.5 3.4002 28.5Z" fill="black"/>
<path d="M30.4002 28.4C30.0002 28.4 29.6002 28.2 29.3002 27.9L19.9002 18.2C19.3002 17.6 19.3002 16.7 19.9002 16.1C20.5002 15.5 21.4002 15.5 22.0002 16.1L31.4002 25.8C32.0002 26.4 32.0002 27.3 31.4002 27.9C31.2002 28.2 30.8002 28.4 30.4002 28.4Z" fill="black"/>
</svg>
