<svg width="34" height="34" viewBox="0 0 34 34" fill="none" xmlns="http://www.w3.org/2000/svg">
<g clip-path="url(#clip0_4242_190)">
<path d="M17 0C26.4 0 34 7.6 34 17C34 26.4 26.4 34 17 34C7.6 34 0 26.4 0 17C0 7.6 7.6 0 17 0ZM17 22C15.3431 22 14 23.3431 14 25C14 26.6569 15.3431 28 17 28C18.6569 28 20 26.6569 20 25C20 23.3431 18.6569 22 17 22ZM15.3633 6C15.0906 6.00012 14.6818 6.13657 14.4092 6.40918C14.1365 6.68183 14.0001 6.95439 14 7.36328L14.6816 18.4092C14.6817 19.091 15.3641 19.6367 16.0459 19.6367H17.9541C18.6359 19.6367 19.3183 19.091 19.3184 18.4092L20 7.36328C19.9999 7.09055 19.8634 6.68179 19.5908 6.40918C19.3182 6.13653 19.0456 6.00008 18.6367 6H15.3633Z" fill="black"/>
</g>
<defs>
<clipPath>
<rect width="34" height="34" fill="white"/>
</clipPath>
</defs>
</svg>
