<svg width="34" height="34" viewBox="0 0 34 34" fill="none" xmlns="http://www.w3.org/2000/svg">
<path fill-rule="evenodd" clip-rule="evenodd" d="M20.2 18.2L14.3 25.7C14 26 13.5 25.8 13.5 25.4L13.8 15.9L19.7 8.40004C20 8.00004 20.5 8.20004 20.5 8.60004L20.2 18.2Z" fill="black"/>
<path d="M17 1C25.8366 1 33 8.16344 33 17C33 25.8366 25.8366 33 17 33C8.16344 33 1 25.8366 1 17C1 8.16344 8.16344 1 17 1ZM17 4C9.8203 4 4 9.8203 4 17C4 24.1797 9.8203 30 17 30C24.1797 30 30 24.1797 30 17C30 9.8203 24.1797 4 17 4Z" fill="black"/>
</svg>
