<svg width="34" height="34" viewBox="0 0 34 34" fill="none" xmlns="http://www.w3.org/2000/svg">
<path d="M17 1C8.18 1 1 8.18 1 17C1 25.82 8.18 33 17 33C25.82 33 33 25.82 33 17C33 8.18 25.82 1 17 1ZM26.93 18.18L19.93 23.68C19.66 23.89 19.33 24 19 24C18.78 24 18.55 23.95 18.34 23.85C17.82 23.6 17.5 23.08 17.5 22.5V18.11C17.5 18.11 17.45 18.16 17.43 18.18L10.43 23.68C10.16 23.89 9.83 24 9.5 24C9.28 24 9.05 23.95 8.84 23.85C8.32 23.6 8 23.08 8 22.5V11.5C8 10.93 8.33 10.4 8.84 10.15C9.35 9.9 9.97 9.96 10.42 10.32L17.42 15.82C17.42 15.82 17.47 15.87 17.49 15.89V11.5C17.49 10.93 17.82 10.4 18.33 10.15C18.85 9.9 19.46 9.96 19.91 10.32L26.91 15.82C27.27 16.1 27.48 16.54 27.48 17C27.48 17.46 27.27 17.9 26.91 18.18H26.93Z" fill="black"/>
</svg>
