<svg width="34" height="34" viewBox="0 0 34 34" fill="none" xmlns="http://www.w3.org/2000/svg">
<path d="M29.93 14.3893L19.48 8.46925C18.54 7.93925 17.42 7.93925 16.49 8.48925C15.56 9.02925 15 9.99925 15 11.0793V13.8593L5.48 8.46925C4.54 7.93925 3.42 7.93925 2.49 8.48925C1.56 9.02925 1 9.99925 1 11.0793V22.9193C1 23.9993 1.56 24.9693 2.49 25.5093C2.96 25.7793 3.48 25.9193 4 25.9193C4.52 25.9193 5.02 25.7893 5.48 25.5193L15 20.1293V22.9093C15 23.9893 15.56 24.9593 16.49 25.4993C16.96 25.7693 17.48 25.9093 18 25.9093C18.52 25.9093 19.02 25.7793 19.48 25.5093L29.93 19.5893C30.88 19.0493 31.45 18.0693 31.45 16.9793C31.45 15.8893 30.88 14.9093 29.93 14.3693V14.3893Z" fill="black"/>
</svg>
