<svg width="34" height="34" viewBox="0 0 34 34" fill="none" xmlns="http://www.w3.org/2000/svg">
<path d="M4 25.8282C3.49 25.8282 2.99 25.6982 2.53 25.4482C1.59 24.9182 1 23.9182 1 22.8282V11.1682C1 10.0882 1.59 9.07823 2.53 8.54823C3.47 8.01823 4.63 8.03823 5.56 8.59823L15.16 14.4282C16.06 14.9782 16.6 15.9382 16.6 16.9982C16.6 18.0582 16.06 19.0182 15.16 19.5682L5.56 25.3982C5.08 25.6882 4.54 25.8382 4 25.8382V25.8282ZM4 11.1682V22.8282L13.61 16.9882L4.01 11.1582L4 11.1682Z" fill="black"/>
<path d="M19 25.8282C18.49 25.8282 17.99 25.6982 17.53 25.4482C16.59 24.9182 16 23.9182 16 22.8282V11.1682C16 10.0882 16.59 9.07823 17.53 8.54823C18.47 8.01823 19.63 8.03823 20.56 8.59823L30.16 14.4282C31.06 14.9782 31.6 15.9382 31.6 16.9982C31.6 18.0582 31.06 19.0182 30.16 19.5682L20.56 25.3982C20.08 25.6882 19.54 25.8382 19 25.8382V25.8282ZM19 11.1682V22.8282L28.61 16.9882L19.01 11.1582L19 11.1682Z" fill="black"/>
</svg>
