<svg width="34" height="34" viewBox="0 0 34 34" fill="none" xmlns="http://www.w3.org/2000/svg">
<path d="M2.5002 33C2.1002 33 1.7002 32.9 1.4002 32.6C0.800195 32 0.800195 31.1 1.4002 30.5L23.4002 8.49999C24.0002 7.89999 24.9002 7.89999 25.5002 8.49999C26.1002 9.09999 26.1002 9.99999 25.5002 10.6L3.5002 32.6C3.3002 32.9 2.9002 33 2.5002 33Z" fill="black"/>
<path d="M7.2998 28.2C6.8998 28.2 6.4998 28 6.1998 27.8C5.9998 27.4 5.7998 27 5.7998 26.6L6.4998 15.3C6.4998 14.9 6.6998 14.6 6.8998 14.3L17.5998 3.59998C21.0998 0.0999756 26.7998 0.0999756 30.2998 3.59998C33.7998 7.09998 33.7998 12.8 30.2998 16.3L19.6998 27C19.3998 27.3 19.0998 27.4 18.6998 27.4L7.2998 28.2C7.3998 28.2 7.3998 28.2 7.2998 28.2ZM9.4998 16L8.8998 25L17.8998 24.4L28.1998 14.1C30.4998 11.8 30.4998 7.99998 28.1998 5.59998C25.8998 3.29998 22.0998 3.29998 19.6998 5.59998L9.4998 16Z" fill="black"/>
<path d="M15.5 20C14.7 20 14 19.3 14 18.5V8.69995C14 7.89995 14.7 7.19995 15.5 7.19995C16.3 7.19995 17 7.29995 17 8.09995V18.5C17 19.3 16.3 20 15.5 20Z" fill="black"/>
</svg>
