<svg width="34" height="34" viewBox="0 0 34 34" fill="none" xmlns="http://www.w3.org/2000/svg">
<path d="M12.9998 33C12.8998 33 12.7998 33 12.6998 33C9.39979 32.3 2.99979 29.1 3.09979 21.6C3.19979 17.1 6.59979 14.1 9.59979 11.5C13.1998 8.3 15.3998 6.2 14.1998 3C13.9998 2.4 14.1998 1.7 14.6998 1.3C15.1998 0.9 15.9998 0.9 16.4998 1.3C16.7998 1.6 24.2998 7.1 24.1998 15.5L27.9998 13.8C28.3998 13.6 28.7998 13.6 29.1998 13.8C29.5998 14 29.8998 14.3 29.9998 14.7C31.3998 19.6 31.0998 23.7 29.0998 27C26.2998 31.6 21.2998 32.8 21.0998 32.8C20.4998 32.9 19.7998 32.6 19.4998 32.1C19.1998 31.5 19.2998 30.8 19.6998 30.3C20.0998 29.9 21.0998 28.5 20.7998 27.3C20.5998 26.5 19.7998 25.8 18.4998 25.2C16.8998 24.5 15.6998 23.4 15.1998 21.9C14.8998 21.1 14.7998 20.2 14.7998 19.4C13.2998 20.6 12.3998 22 12.0998 23.5C11.3998 27.1 14.1998 30.5 14.1998 30.5C14.5998 31 14.6998 31.7 14.2998 32.2C13.9998 32.7 13.4998 33 12.9998 33Z" fill="black"/>
</svg>
