<svg width="34" height="34" viewBox="0 0 34 34" fill="none" xmlns="http://www.w3.org/2000/svg">
<path d="M4.5 33C3.67 33 3 32.33 3 31.5V2.5C3 1.67 3.67 1 4.5 1C5.33 1 6 1.67 6 2.5V31.5C6 32.33 5.33 33 4.5 33Z" fill="black"/>
<path d="M25.0198 25.52C22.2298 25.52 19.5198 24.56 16.9998 23.67C12.7398 22.17 9.05975 20.87 5.35975 23.48C4.89975 23.8 4.29975 23.84 3.79975 23.59C3.29975 23.33 2.98975 22.82 2.98975 22.26V4.25998C2.98975 3.76998 3.22975 3.31998 3.61975 3.02998C8.58975 -0.480017 13.5798 1.27998 17.9798 2.83998C22.2398 4.33998 25.9198 5.63998 29.6198 3.02998C30.1598 2.64998 30.8898 2.66998 31.4098 3.07998C31.9298 3.48998 32.1198 4.18998 31.8798 4.80998C30.4298 8.47998 28.8998 11.85 27.1998 15.09C28.7898 17.76 30.2198 19.78 31.5798 21.24C31.8698 21.56 32.0198 21.99 31.9698 22.42C31.9298 22.85 31.6998 23.24 31.3398 23.49C29.2198 24.99 27.0798 25.53 24.9998 25.53L25.0198 25.52ZM9.97975 19C12.7698 19 15.4798 19.96 17.9998 20.85C21.6998 22.16 24.9698 23.31 28.1898 21.87C26.9298 20.29 25.6198 18.32 24.2098 15.88C23.9498 15.43 23.9398 14.88 24.1898 14.42C25.4298 12.1 26.5798 9.71998 27.6698 7.20998C23.9598 8.12998 20.3198 6.83998 17.0098 5.66998C12.9898 4.24998 9.49975 3.01998 6.00975 5.06998V19.74C7.33975 19.21 8.66975 19 9.98975 19H9.97975Z" fill="black"/>
</svg>
