<svg width="34" height="34" viewBox="0 0 34 34" fill="none" xmlns="http://www.w3.org/2000/svg">
<path d="M21.0204 32.9996C19.2604 32.9996 17.5404 32.3396 16.2004 31.0796C15.8504 30.7496 15.6804 30.2796 15.7404 29.8096C16.0604 27.1496 17.8204 24.9296 20.3304 24.0196C22.8404 23.0996 25.6104 23.6796 27.5704 25.5096C27.9204 25.8396 28.0904 26.3096 28.0304 26.7796C27.7104 29.4396 25.9504 31.6596 23.4404 32.5696C22.6504 32.8596 21.8304 32.9996 21.0204 32.9996ZM18.8804 29.3896C19.9304 30.0396 21.2204 30.1896 22.4004 29.7596C23.5904 29.3296 24.4804 28.3796 24.8604 27.2096C23.8104 26.5596 22.5204 26.4096 21.3404 26.8396C20.1504 27.2696 19.2604 28.2196 18.8804 29.3896Z" fill="black"/>
<path d="M12.9804 33C12.1704 33 11.3504 32.86 10.5604 32.57C8.0504 31.66 6.2904 29.44 5.9704 26.78C5.9104 26.31 6.0904 25.83 6.4304 25.51C8.3804 23.68 11.1604 23.11 13.6704 24.02C16.1804 24.93 17.9404 27.15 18.2604 29.81C18.3204 30.28 18.1404 30.76 17.8004 31.08C16.4604 32.33 14.7404 33 12.9804 33ZM9.1304 27.21C9.5104 28.38 10.4004 29.33 11.5904 29.76C12.7804 30.2 14.0704 30.05 15.1104 29.39C14.7304 28.22 13.8404 27.27 12.6504 26.84C11.4604 26.41 10.1704 26.55 9.1304 27.21Z" fill="black"/>
<path d="M15.53 19.2301C15.45 19.2401 15.39 19.2701 15.31 19.2801C13.65 19.4901 11.61 18.6301 11.08 16.8401C10.46 14.7301 10.78 13.4401 11.19 11.8201C11.54 10.4301 11.93 8.91008 11.69 6.86008C13.02 7.51008 14.64 8.46008 15.98 9.66008C16.64 8.92008 17.41 8.25008 18.21 7.65008C14.9 4.54008 10.33 3.01008 10.02 2.91008C9.48004 2.73008 8.88004 2.88008 8.48004 3.29008C8.08004 3.70008 7.95004 4.29008 8.13004 4.83008C9.12004 7.70008 8.73004 9.26008 8.26004 11.0801C7.82004 12.8201 7.32004 14.7801 8.18004 17.6901C8.99004 20.4401 11.72 22.3101 14.74 22.3101C15.04 22.3101 15.35 22.2901 15.66 22.2501C16.82 22.1001 18.03 21.6401 19.05 20.7801C17.75 20.7401 16.47 20.2601 15.5 19.2201L15.53 19.2301Z" fill="black"/>
<path d="M16.9998 4.27977C17.9598 4.98977 18.6598 5.96977 19.0498 7.07977C19.9598 6.46977 20.8698 5.96977 21.6798 5.55977C20.9098 3.72977 19.5298 2.16977 17.7198 1.18977C17.2698 0.949765 16.7398 0.949765 16.2898 1.18977C14.4898 2.16977 13.1198 3.69977 12.3398 5.51977C13.1498 5.91977 14.0598 6.41977 14.9698 7.01977C15.3598 5.93977 16.0598 4.97977 16.9998 4.27977Z" fill="black"/>
<path d="M19.28 22.3099C19.01 22.3099 18.73 22.2899 18.46 22.2599C15.71 21.9399 12.68 19.8599 12.4 14.9699C11.96 7.18994 23.46 3.08994 23.94 2.91994C24.5 2.72994 25.11 2.86994 25.52 3.29994C25.93 3.72994 26.04 4.34994 25.82 4.89994C24.63 7.81994 25.08 9.37994 25.6 11.1799C26.09 12.8799 26.64 14.8199 25.8 17.6799C24.99 20.4199 22.27 22.2999 19.28 22.2999V22.3099ZM22.15 6.97994C19.04 8.58994 15.2 11.3999 15.39 14.8099C15.54 17.4199 16.78 19.0499 18.8 19.2799C20.42 19.4799 22.4 18.6099 22.93 16.8399C23.53 14.8099 23.17 13.5799 22.72 12.0199C22.32 10.6099 21.87 9.06994 22.16 6.97994H22.15Z" fill="black"/>
<path d="M15.5 21.0195V29.5995C15.5 30.4295 16.17 31.0995 17 31.0995C17.83 31.0995 18.5 30.4295 18.5 29.5995V21.0195H15.5Z" fill="black"/>
</svg>
