<svg width="34" height="34" viewBox="0 0 34 34" fill="none" xmlns="http://www.w3.org/2000/svg">
<path d="M18 34C9.18 34 2 26.82 2 18C2 9.18 9.18 2 18 2C26.82 2 34 9.18 34 18C34 26.82 26.82 34 18 34ZM18 5C10.83 5 5 10.83 5 18C5 25.17 10.83 31 18 31C25.17 31 31 25.17 31 18C31 10.83 25.17 5 18 5Z" fill="black"/>
<path d="M18.0008 34C12.4208 34 8.05078 26.97 8.05078 18C8.05078 9.03 12.4208 2 18.0008 2C23.5808 2 27.9508 9.03 27.9508 18C27.9508 26.97 23.5808 34 18.0008 34ZM18.0008 5C14.2308 5 11.0508 10.95 11.0508 18C11.0508 25.05 14.2308 31 18.0008 31C21.7708 31 24.9508 25.05 24.9508 18C24.9508 10.95 21.7708 5 18.0008 5Z" fill="black"/>
<path d="M18 34C17.17 34 16.5 33.33 16.5 32.5V3.5C16.5 2.67 17.17 2 18 2C18.83 2 19.5 2.67 19.5 3.5V32.5C19.5 33.33 18.83 34 18 34Z" fill="black"/>
<path d="M32.5 19.5H3.5C2.67 19.5 2 18.83 2 18C2 17.17 2.67 16.5 3.5 16.5H32.5C33.33 16.5 34 17.17 34 18C34 18.83 33.33 19.5 32.5 19.5Z" fill="black"/>
</svg>
