<svg width="34" height="34" viewBox="0 0 34 34" fill="none" xmlns="http://www.w3.org/2000/svg">
<path d="M14 15.5H2.5C1.67 15.5 1 14.83 1 14V2.5C1 1.67 1.67 1 2.5 1H14C14.83 1 15.5 1.67 15.5 2.5V14C15.5 14.83 14.83 15.5 14 15.5ZM4 12.5H12.5V4H4V12.5Z" fill="black"/>
<path d="M14 33H2.5C1.67 33 1 32.33 1 31.5V20C1 19.17 1.67 18.5 2.5 18.5H14C14.83 18.5 15.5 19.17 15.5 20V31.5C15.5 32.33 14.83 33 14 33ZM4 30H12.5V21.5H4V30Z" fill="black"/>
<path d="M31.5 33H20C19.17 33 18.5 32.33 18.5 31.5V20C18.5 19.17 19.17 18.5 20 18.5H31.5C32.33 18.5 33 19.17 33 20V31.5C33 32.33 32.33 33 31.5 33ZM21.5 30H30V21.5H21.5V30Z" fill="black"/>
<path d="M31.5 15.5H20C19.17 15.5 18.5 14.83 18.5 14V2.5C18.5 1.67 19.17 1 20 1H31.5C32.33 1 33 1.67 33 2.5V14C33 14.83 32.33 15.5 31.5 15.5ZM21.5 12.5H30V4H21.5V12.5Z" fill="black"/>
</svg>
