<svg width="34" height="34" viewBox="0 0 34 34" fill="none" xmlns="http://www.w3.org/2000/svg">
<path d="M17 31.5C16.17 31.5 15.5 30.83 15.5 30V4C15.5 3.17 16.17 2.5 17 2.5C17.83 2.5 18.5 3.17 18.5 4V30C18.5 30.83 17.83 31.5 17 31.5Z" fill="black"/>
<path d="M9 31.5C8.17 31.5 7.5 30.83 7.5 30V4C7.5 3.17 8.17 2.5 9 2.5C9.83 2.5 10.5 3.17 10.5 4V30C10.5 30.83 9.83 31.5 9 31.5Z" fill="black"/>
<path d="M25 31.5C24.17 31.5 23.5 30.83 23.5 30V4C23.5 3.17 24.17 2.5 25 2.5C25.83 2.5 26.5 3.17 26.5 4V30C26.5 30.83 25.83 31.5 25 31.5Z" fill="black"/>
</svg>
