<svg width="34" height="34" viewBox="0 0 34 34" fill="none" xmlns="http://www.w3.org/2000/svg">
<path d="M30 18.5H4C3.17 18.5 2.5 17.83 2.5 17C2.5 16.17 3.17 15.5 4 15.5H30C30.83 15.5 31.5 16.17 31.5 17C31.5 17.83 30.83 18.5 30 18.5Z" fill="black"/>
<path d="M30 10.5H4C3.17 10.5 2.5 9.83 2.5 9C2.5 8.17 3.17 7.5 4 7.5H30C30.83 7.5 31.5 8.17 31.5 9C31.5 9.83 30.83 10.5 30 10.5Z" fill="black"/>
<path d="M30 26.5H4C3.17 26.5 2.5 25.83 2.5 25C2.5 24.17 3.17 23.5 4 23.5H30C30.83 23.5 31.5 24.17 31.5 25C31.5 25.83 30.83 26.5 30 26.5Z" fill="black"/>
</svg>
