<svg width="34" height="34" viewBox="0 0 34 34" fill="none" xmlns="http://www.w3.org/2000/svg">
<path d="M16.9996 31.5C16.7996 31.5 16.4996 31.4 16.2996 31.3C1.09957 23 0.599572 14.3 1.09957 11C1.69957 6.79998 4.79957 3.49998 8.59957 2.69998C11.6996 2.09998 14.6996 3.19998 16.8996 5.79998C19.0996 3.29998 22.0996 2.09998 25.1996 2.69998C29.0996 3.49998 32.0996 6.79998 32.6996 11C33.1996 14.4 32.7996 23 17.4996 31.3C17.4996 31.4 17.1996 31.5 16.9996 31.5ZM10.2996 5.49998C9.89957 5.49998 9.59957 5.49998 9.19957 5.59998C6.59957 6.09998 4.49957 8.39998 3.99957 11.4C3.69957 14.1 4.19957 21 16.9996 28.3C29.7996 21 30.2996 14.1 29.8996 11.4C29.4996 8.49998 27.3996 6.19998 24.6996 5.59998C22.1996 5.09998 19.8996 6.39998 18.1996 8.99998C17.9996 9.49998 17.4996 9.79998 16.9996 9.79998C16.4996 9.79998 15.9996 9.49998 15.6996 9.09998C14.2996 6.79998 12.3996 5.49998 10.2996 5.49998Z" fill="black"/>
</svg>
