<svg width="34" height="34" viewBox="0 0 34 34" fill="none" xmlns="http://www.w3.org/2000/svg">
<g clip-path="url(#clip0_4242_180)">
<path d="M11.5811 3.15625C13.7061 3.15625 15.725 4.21875 17 5.8125C18.275 4.21875 20.2939 3.15625 22.4189 3.15625H32.4062C33.2562 3.15625 34 3.9 34 4.75V28.125C34 28.975 33.2562 29.7188 32.4062 29.7188H21.3564C20.1877 29.7188 19.1246 30.2498 18.3809 31.2061C18.0446 31.5945 17.5376 31.8437 17.001 31.8438C16.4331 31.8438 15.9304 31.6032 15.6211 31.2061H15.6191C14.8754 30.2498 13.8123 29.7188 12.6436 29.7188H1.59375C0.74375 29.7188 0 28.975 0 28.125V4.75C0 3.9 0.74375 3.15625 1.59375 3.15625H11.5811ZM3.1875 6.2373V26.4248H12.6436C13.5998 26.4248 14.5562 26.6375 15.4062 27.0625V10.2754C15.4062 8.04414 13.7061 6.2373 11.5811 6.2373H3.1875ZM22.4189 6.2373C20.2939 6.2373 18.5938 8.04414 18.5938 10.2754V27.0625C19.4438 26.6375 20.4002 26.4248 21.3564 26.4248H30.8125V6.2373H22.4189Z" fill="black"/>
</g>
<defs>
<clipPath>
<rect width="34" height="34" fill="white"/>
</clipPath>
</defs>
</svg>
