<svg width="34" height="34" viewBox="0 0 34 34" fill="none" xmlns="http://www.w3.org/2000/svg">
<path d="M27.5 33H6.5C3.5 33 1 30.1 1 26.5C1 25.7 1.1 24.8 1.4 24C2.1 21.7 3.7 18.9 5.2 16.2C7.1 13 9 9.6 9 7.5C9 6.7 9.7 6 10.5 6H22.1C22.7 3.1 24.9 1 27.5 1C30.5 1 33 3.9 33 7.5C33 8.3 32.9 9.2 32.6 9.9C31.9 12.3 30.3 15 28.8 17.7C27.5 20.1 25 23.5 25.4 24.4C25.1452 26.0563 23.6725 26.9808 24.677 29.2542C24.677 30.0542 28.3 33 27.5 33ZM11.8 9C11.3 11.6 9.6 14.6 7.8 17.7C6.4 20.2 4.9 22.9 4.3 24.9C4.1 25.5 4 26 4 26.5C4 28.4 5.1 30 6.5 30H26C24.5782 29.3265 23.7894 28.592 22.6 27.7C22.2 27.4 22 27 22 26.5C22 23.6 24 20 26.2 16.3C27.6 13.8 29.1 11.1 29.7 9.1C29.7 9.1 29.7 9.1 29.7 9C29.9 8.5 30 8 30 7.5C30 5.6 28.9 4 27.5 4C26.1 4 25 5.6 25 7.5C25 8.3 24.3 9 23.5 9H11.8Z" fill="black"/>
<path d="M27.5 33C24.5 33 22 30.1 22 26.5C22 26.1 22 25.7 22.1 25.3C22.2 24.6 22.8 24 23.6 24H31.4C32.1 24 32.8 24.5 32.9 25.3C33 25.7 33 26.1 33 26.5C33 30.1 30.5 33 27.5 33ZM25 27C25.2 28.7 26.2 30 27.5 30C28.8 30 29.8 28.7 30 27H25Z" fill="black"/>
<path d="M23.6 9H2.6C1.9 9 1.2 8.5 1.1 7.7C1 7.3 1 6.9 1 6.5C1 2.9 3.5 1 6.5 1H27.5C28.3 1 29 1.7 29 2.5C29 3.3 28.3 4 27.5 4C26.1 4 25 4.6 25 6.5C25 6.8 25 7 25.1 7.3C25.2 7.7 25 8.2 24.8 8.5C24.4 8.8 24 9 23.6 9ZM4 6H22C22.1 4.9 22.4 4.9 22.9 4H6.5C5.3 4 4.2 4.3 4 6Z" fill="black"/>
</svg>
