<svg width="34" height="34" viewBox="0 0 34 34" fill="none" xmlns="http://www.w3.org/2000/svg">
<path d="M28.3 33H5.7C3.4 33 1.5 31.1 1.5 28.8V16.4C1.5 15.2 2 14.1 2.9 13.3L16 1.40002C16.6 0.900024 17.4 0.900024 18 1.40002L31.1 13.2C32 14 32.5 15.1 32.5 16.3V28.7C32.5 31.1 30.6 33 28.3 33ZM17 4.50002L4.9 15.5C4.6 15.7 4.5 16.1 4.5 16.4V28.8C4.5 29.5 5.1 30 5.7 30H28.2C28.9 30 29.4 29.4 29.4 28.8V16.4C29.4 16.1 29.3 15.7 29 15.5L17 4.50002Z" fill="black"/>
<path d="M13 31H21V21C21 19.8954 20.1046 19 19 19H15C13.8954 19 13 19.8954 13 21V31Z" fill="black"/>
</svg>
