<svg width="34" height="34" viewBox="0 0 34 34" fill="none" xmlns="http://www.w3.org/2000/svg">
<path d="M27.8887 1.5C28.7171 1.5 29.3887 2.17157 29.3887 3C29.3887 3.82843 28.7171 4.5 27.8887 4.5H6.11133C5.2829 4.5 4.61133 3.82843 4.61133 3C4.61133 2.17157 5.2829 1.5 6.11133 1.5H27.8887Z" fill="black"/>
<path d="M27.8887 29.5C28.7171 29.5 29.3887 30.1716 29.3887 31C29.3887 31.8284 28.7171 32.5 27.8887 32.5H6.11133C5.2829 32.5 4.61133 31.8284 4.61133 31C4.61133 30.1716 5.2829 29.5 6.11133 29.5H27.8887Z" fill="black"/>
<path d="M20.322 8.26914C20.0283 7.88938 19.5726 7.66663 19.0925 7.66663H14.9078C14.4279 7.66663 13.972 7.88938 13.6783 8.26914C13.3846 8.64891 13.2813 9.1442 13.4007 9.61003C13.9719 11.8229 15.0474 12.554 15.9104 13.1403C16.2064 13.3602 16.6075 13.4852 17.0001 13.4998C17.3928 13.485 17.7939 13.36 18.0898 13.1403C18.9526 12.554 20.0283 11.8227 20.5995 9.61003C20.719 9.1442 20.6157 8.64891 20.322 8.26914Z" fill="black"/>
<path d="M24.3154 31C24.3154 27.0314 24.0222 24.4213 23.333 22.5146C22.6749 20.6941 21.625 19.4342 19.8691 18.2402C19.4586 17.9609 19.2129 17.4965 19.2129 17C19.2129 16.5035 19.4586 16.0391 19.8691 15.7598C21.625 14.5658 22.6749 13.3059 23.333 11.4854C24.0222 9.57868 24.3154 6.96863 24.3154 3C24.3154 2.17157 24.987 1.5 25.8154 1.5C26.6437 1.50017 27.3154 2.17168 27.3154 3C27.3154 7.0371 27.0294 10.085 26.1543 12.5059C25.4868 14.3523 24.4954 15.7798 23.1445 17C24.4954 18.2202 25.4868 19.6477 26.1543 21.4941C27.0294 23.915 27.3154 26.9629 27.3154 31C27.3154 31.8283 26.6437 32.4998 25.8154 32.5C24.987 32.5 24.3154 31.8284 24.3154 31Z" fill="black"/>
<path d="M6.68506 31C6.68506 26.9629 6.9701 23.915 7.84521 21.4941C8.51258 19.648 9.50353 18.22 10.854 17C9.50353 15.78 8.51258 14.352 7.84521 12.5059C6.9701 10.085 6.68506 7.03709 6.68506 3C6.68506 2.17157 7.35663 1.5 8.18506 1.5C9.01349 1.5 9.68506 2.17157 9.68506 3C9.68506 6.96883 9.97725 9.57963 10.6665 11.4863C11.3246 13.3066 12.3747 14.5659 14.1304 15.7598C14.5411 16.039 14.7876 16.5033 14.7876 17C14.7876 17.4967 14.5411 17.961 14.1304 18.2402C12.3747 19.4341 11.3246 20.6934 10.6665 22.5137C9.97725 24.4204 9.68506 27.0312 9.68506 31C9.68506 31.8284 9.01349 32.5 8.18506 32.5C7.35663 32.5 6.68506 31.8284 6.68506 31Z" fill="black"/>
</svg>
