<svg width="34" height="34" viewBox="0 0 34 34" fill="none" xmlns="http://www.w3.org/2000/svg">
<g clip-path="url(#clip0_6146_4687)">
<path d="M14.1673 9.4447C14.1673 8.92687 13.7391 8.50061 13.223 8.50037C12.7066 8.50037 12.2777 8.92672 12.2777 9.4447V23.0726C12.2777 23.6765 11.8952 24.2141 11.3245 24.4115C10.7537 24.6088 10.1204 24.4226 9.74738 23.9476L6.40754 19.6937C6.08827 19.2868 5.48878 19.2146 5.08136 19.5345C4.75043 19.7945 4.56877 20.2772 5.00031 20.9701L8.69855 26.6566C10.5283 29.4713 13.6572 31.1683 17.012 31.1683H20.3079C24.7406 31.1682 28.3352 27.5737 28.3353 23.141V19.3607C28.3352 18.9919 28.2366 18.8368 28.1575 18.7552C28.0607 18.6554 27.8108 18.4828 27.2103 18.4056C23.293 17.9022 19.8264 17.4064 15.4153 16.8793C14.7031 16.7941 14.1673 16.1894 14.1673 15.472V9.4447ZM17.0003 14.2201C20.8536 14.6937 24.0773 15.1461 27.5716 15.5951C28.5795 15.7246 29.5101 16.0804 30.1917 16.7836C30.8909 17.5049 31.1692 18.4266 31.1693 19.3607V23.141C31.1692 29.1385 26.3054 34.0022 20.3079 34.0023H17.012C12.6981 34.0023 8.67489 31.8193 6.32258 28.2006L2.62043 22.5082C2.61672 22.5025 2.61331 22.4964 2.60969 22.4906C1.56504 20.8319 1.62504 18.6466 3.33234 17.306C4.96487 16.0245 7.34605 16.3006 8.63605 17.9447L9.44465 18.974V9.4447C9.44465 7.35602 11.1477 5.66638 13.223 5.66638C15.298 5.66662 17.0003 7.35617 17.0003 9.4447V14.2201Z" fill="black"/>
<path d="M19.833 9.44397C19.8328 5.79297 16.8727 2.83362 13.2217 2.83362C9.57083 2.83385 6.61156 5.79312 6.61133 9.44397C6.61133 10.2312 6.74785 10.984 6.99805 11.6803C7.26236 12.4165 6.87974 13.2273 6.14355 13.4918C5.40744 13.7562 4.59673 13.3743 4.33203 12.6383C3.97288 11.6388 3.77734 10.5622 3.77734 9.44397C3.77758 4.22831 8.00602 -0.000131787 13.2217 -0.000366211C18.4375 -0.000366211 22.6668 4.22817 22.667 9.44397C22.667 9.70743 22.6558 9.96856 22.6348 10.2262C22.5711 11.006 21.8872 11.5867 21.1074 11.5231C20.3276 11.4594 19.7469 10.7755 19.8105 9.99573C19.8254 9.81377 19.833 9.62954 19.833 9.44397Z" fill="black"/>
</g>
<defs>
<clipPath>
<rect width="34" height="34" fill="white"/>
</clipPath>
</defs>
</svg>
