<svg width="34" height="34" viewBox="0 0 34 34" fill="none" xmlns="http://www.w3.org/2000/svg">
<path d="M29.6 31H4.4C2.5 31 1 29.5 1 27.6V6.4C1 4.5 2.5 3 4.4 3H29.5C31.5 3 33 4.5 33 6.4V27.5C33 29.5 31.5 31 29.6 31ZM4.4 6C4.2 6 4 6.2 4 6.4V27.5C4 27.8 4.2 28 4.4 28H29.5C29.7 28 29.9 27.8 29.9 27.6V6.4C30 6.2 29.8 6 29.6 6H4.4Z" fill="black"/>
<path d="M11.2002 9.70001C9.3002 9.70001 7.7002 11.3 7.7002 13.2C7.7002 15.1 9.3002 16.7 11.2002 16.7C13.1002 16.7 14.7002 15.1 14.7002 13.2C14.7002 11.3 13.1002 9.70001 11.2002 9.70001Z" fill="black"/>
<path d="M7.5 28.5L23.2991 15.2C23.8991 14.7 24.6991 14.7 25.2991 15.2L32.1991 21.2C32.7991 21.7 32.8991 22.7 32.3991 23.3C31.8991 23.9 30.8991 24 30.2991 23.5L24.2991 18.3L12 28.5C11.6009 29 7.5 28.5 7.5 28.5Z" fill="black"/>
</svg>
