<svg width="34" height="34" viewBox="0 0 34 34" fill="none" xmlns="http://www.w3.org/2000/svg">
<path d="M30.4 30H3.6C2.2 30 1 28.8 1 27.4V17C1 16.7 1.1 16.5 1.2 16.2L8 5.1C8.4 4.4 9.1 4 9.9 4H24.1C24.9 4 25.6 4.4 26 5.1L32.8 16.3C32.9 16.5 33 16.8 33 17.1V27.5C33 28.8 31.8 30 30.4 30ZM4 27H30V17.4L23.7 7H10.3L4 17.4V27Z" fill="black"/>
<path d="M21.4 22.4H12.5C11.9 22.4 11.4 22.1 11.2 21.6L9.6 18.5H3.5C2.7 18.5 2 17.8 2 17C2 16.2 2.7 15.5 3.5 15.5H10.6C11.2 15.5 11.7 15.8 11.9 16.3L13.5 19.4H20.6L22.2 16.3C22.5 15.8 23 15.5 23.5 15.5H30.6C31.4 15.5 32.1 16.2 32.1 17C32.1 17.8 31.4 18.5 30.6 18.5H24.5L22.9 21.6C22.5 22.1 22 22.4 21.4 22.4Z" fill="black"/>
</svg>
