<svg width="34" height="34" viewBox="0 0 34 34" fill="none" xmlns="http://www.w3.org/2000/svg">
<g clip-path="url(#clip0_5599_27291)">
<path d="M17 0C26.4 0 34 7.6 34 17C34 26.4 26.4 34 17 34C7.6 34 0 26.4 0 17C0 7.6 7.6 0 17 0ZM18.9902 14.3604C18.5902 14.0004 18.0295 13.8905 17.5195 14.0605L14.5195 15.0605C13.7297 15.3206 13.3094 16.171 13.5693 16.9609C13.8393 17.7508 14.6898 18.181 15.4697 17.9111L16.0195 17.7305L14.5303 25.2002C14.4303 25.7302 14.6098 26.2711 15.0098 26.6211C15.2897 26.871 15.6401 27.001 16 27.001H16.0098C16.1696 27.001 16.3296 26.9708 16.4795 26.9209L19.4795 25.9209C20.2695 25.6609 20.6897 24.8105 20.4297 24.0205C20.1697 23.2308 19.3201 22.8107 18.5303 23.0703L17.9795 23.251L19.4697 15.7803C19.5696 15.2504 19.3901 14.7103 18.9902 14.3604ZM17.5 7C16.1193 7.00002 15 8.11931 15 9.5C15 10.8807 16.1193 12 17.5 12C18.8807 12 20 10.8807 20 9.5C20 8.1193 18.8807 7 17.5 7Z" fill="black"/>
</g>
<defs>
<clipPath>
<rect width="34" height="34" fill="white"/>
</clipPath>
</defs>
</svg>
