<svg width="34" height="34" viewBox="0 0 34 34" fill="none" xmlns="http://www.w3.org/2000/svg">
<path d="M17 1C8.16 1 1 8.16 1 17C1 25.84 8.16 33 17 33C25.84 33 33 25.84 33 17C33 8.16 25.84 1 17 1ZM17 30C9.83 30 4 24.17 4 17C4 9.83 9.83 4 17 4C24.17 4 30 9.83 30 17C30 24.17 24.17 30 17 30Z" fill="black"/>
<path d="M16 27.0007C15.64 27.0007 15.29 26.8707 15.01 26.6207C14.61 26.2707 14.43 25.7307 14.53 25.2007L16.02 17.7307L15.47 17.9107C14.69 18.1807 13.84 17.7507 13.57 16.9607C13.31 16.1707 13.73 15.3207 14.52 15.0607L17.52 14.0607C18.03 13.8907 18.59 14.0007 18.99 14.3607C19.39 14.7107 19.57 15.2507 19.47 15.7807L17.98 23.2507L18.53 23.0707C19.32 22.8107 20.17 23.2307 20.43 24.0207C20.69 24.8107 20.27 25.6607 19.48 25.9207L16.48 26.9207C16.33 26.9707 16.17 27.0007 16.01 27.0007H16Z" fill="black"/>
<path d="M17.5 12C18.8807 12 20 10.8807 20 9.5C20 8.11929 18.8807 7 17.5 7C16.1193 7 15 8.11929 15 9.5C15 10.8807 16.1193 12 17.5 12Z" fill="black"/>
</svg>
