<svg width="34" height="34" viewBox="0 0 34 34" fill="none" xmlns="http://www.w3.org/2000/svg">
<path d="M17 33C16 33 15.1 32.3 14.8 31.4C13.1 25.5 8.5 20.9 2.6 19.2C1.7 18.9 1 18 1 17C1 16 1.7 15.1 2.6 14.8C8.4 13.1 13.1 8.5 14.8 2.6C15.1 1.7 16 1 17 1C18 1 18.9 1.7 19.2 2.6C20.9 8.4 25.5 13.1 31.4 14.8C32.4 15.1 33 16 33 17C33 18 32.3 18.9 31.4 19.2C25.6 20.9 20.9 25.5 19.2 31.4C18.9 32.3 18 33 17 33ZM5.5 17C10.7 19.1 14.9 23.3 17 28.5C19.1 23.3 23.3 19.1 28.5 17C23.3 14.9 19.1 10.7 17 5.5C14.9 10.7 10.7 14.9 5.5 17Z" fill="black"/>
</svg>
