<svg width="34" height="34" viewBox="0 0 34 34" fill="none" xmlns="http://www.w3.org/2000/svg">
<path d="M21 31H13L12.5 27H21.5L21 31Z" fill="black"/>
<path d="M18.5996 33H15.3996C12.3996 33 9.99961 30.6 9.99961 27.6V23.6C6.69961 21.3 4.59961 17.5 4.59961 13.4C4.59961 9.99999 5.99961 6.79999 8.39961 4.49999C10.8996 2.09999 14.0996 0.899993 17.4996 1.09999C23.6996 1.29999 28.6996 6.09999 29.2996 12.3C29.6996 16.9 27.6996 21.2 23.9996 23.7V27.7C23.9996 30.6 21.5996 33 18.5996 33ZM16.9996 3.99999C14.5996 3.99999 12.2996 4.89999 10.4996 6.59999C8.59961 8.39999 7.59961 10.8 7.59961 13.4C7.59961 16.7 9.39961 19.8 12.1996 21.5C12.6996 21.8 12.8996 22.3 12.8996 22.8V27.7C12.8996 29 13.9996 30.1 15.2996 30.1H18.4996C19.7996 30.1 20.8996 29 20.8996 27.7V22.8C20.8996 22.3 21.1996 21.8 21.5996 21.5C24.7996 19.6 26.4996 16.2 26.1996 12.5C25.8996 7.89999 21.9996 4.19999 17.3996 3.99999C17.2996 3.99999 17.0996 3.99999 16.9996 3.99999Z" fill="black"/>
</svg>
