<svg width="34" height="34" viewBox="0 0 34 34" fill="none" xmlns="http://www.w3.org/2000/svg">
<path d="M17 21.46C14.54 21.46 12.54 19.46 12.54 17C12.54 14.54 14.54 12.54 17 12.54C19.46 12.54 21.46 14.54 21.46 17C21.46 19.46 19.46 21.46 17 21.46ZM17 15.54C16.19 15.54 15.54 16.2 15.54 17C15.54 17.8 16.2 18.46 17 18.46C17.8 18.46 18.46 17.8 18.46 17C18.46 16.2 17.8 15.54 17 15.54Z" fill="black"/>
<path d="M17 9.92977C14.54 9.92977 12.54 7.92977 12.54 5.46977C12.54 3.00977 14.54 1.00977 17 1.00977C19.46 1.00977 21.46 3.00977 21.46 5.46977C21.46 7.92977 19.46 9.92977 17 9.92977ZM17 3.99977C16.19 3.99977 15.54 4.65977 15.54 5.45977C15.54 6.25977 16.2 6.91977 17 6.91977C17.8 6.91977 18.46 6.25977 18.46 5.45977C18.46 4.65977 17.8 3.99977 17 3.99977Z" fill="black"/>
<path d="M17 33.0001C14.54 33.0001 12.54 31.0001 12.54 28.5401C12.54 26.0801 14.54 24.0801 17 24.0801C19.46 24.0801 21.46 26.0801 21.46 28.5401C21.46 31.0001 19.46 33.0001 17 33.0001ZM17 27.0701C16.19 27.0701 15.54 27.7301 15.54 28.5301C15.54 29.3301 16.2 29.9901 17 29.9901C17.8 29.9901 18.46 29.3301 18.46 28.5301C18.46 27.7301 17.8 27.0701 17 27.0701Z" fill="black"/>
</svg>
