<svg width="34" height="34" viewBox="0 0 34 34" fill="none" xmlns="http://www.w3.org/2000/svg">
<path d="M17 21.46C14.54 21.46 12.54 19.46 12.54 17C12.54 14.54 14.54 12.54 17 12.54C19.46 12.54 21.46 14.54 21.46 17C21.46 19.46 19.46 21.46 17 21.46ZM17 15.54C16.19 15.54 15.54 16.2 15.54 17C15.54 17.8 16.2 18.46 17 18.46C17.8 18.46 18.46 17.8 18.46 17C18.46 16.2 17.8 15.54 17 15.54Z" fill="black"/>
<path d="M28.5401 21.46C26.0801 21.46 24.0801 19.46 24.0801 17C24.0801 14.54 26.0801 12.54 28.5401 12.54C31.0001 12.54 33.0001 14.54 33.0001 17C33.0001 19.46 31.0001 21.46 28.5401 21.46ZM28.5401 15.54C27.7301 15.54 27.0801 16.2 27.0801 17C27.0801 17.8 27.7401 18.46 28.5401 18.46C29.3401 18.46 30.0001 17.8 30.0001 17C30.0001 16.2 29.3401 15.54 28.5401 15.54Z" fill="black"/>
<path d="M5.46 21.46C3 21.46 1 19.46 1 17C1 14.54 3 12.54 5.46 12.54C7.92 12.54 9.92 14.54 9.92 17C9.92 19.46 7.92 21.46 5.46 21.46ZM5.46 15.54C4.65 15.54 4 16.2 4 17C4 17.8 4.66 18.46 5.46 18.46C6.26 18.46 6.92 17.8 6.92 17C6.92 16.2 6.26 15.54 5.46 15.54Z" fill="black"/>
</svg>
