<svg width="34" height="34" viewBox="0 0 34 34" fill="none" xmlns="http://www.w3.org/2000/svg">
<path d="M17 21C14.7937 21 13 19.2063 13 17C13 14.7937 14.7937 13 17 13C19.2063 13 21 14.7937 21 17C21 19.2063 19.2063 21 17 21Z" fill="black"/>
<path d="M29 21C26.7937 21 25 19.2063 25 17C25 14.7937 26.7937 13 29 13C31.2063 13 33 14.7937 33 17C33 19.2063 31.2063 21 29 21Z" fill="black"/>
<path d="M5 21C2.79372 21 1 19.2063 1 17C1 14.7937 2.79372 13 5 13C7.20628 13 9 14.7937 9 17C9 19.2063 7.20628 21 5 21Z" fill="black"/>
</svg>
