<svg width="34" height="34" viewBox="0 0 34 34" fill="none" xmlns="http://www.w3.org/2000/svg">
<path d="M17 21C14.7937 21 13 19.2063 13 17C13 14.7937 14.7937 13 17 13C19.2063 13 21 14.7937 21 17C21 19.2063 19.2063 21 17 21Z" fill="black"/>
<path d="M17 9.00977C14.7937 9.00977 13 7.21604 13 5.00977C13 2.80349 14.7937 1.00977 17 1.00977C19.2063 1.00977 21 2.80349 21 5.00977C21 7.21604 19.2063 9.00977 17 9.00977Z" fill="black"/>
<path d="M17 33C14.7937 33 13 31.2063 13 29C13 26.7937 14.7937 25 17 25C19.2063 25 21 26.7937 21 29C21 31.2063 19.2063 33 17 33Z" fill="black"/>
</svg>
