<svg width="34" height="34" viewBox="0 0 34 34" fill="none" xmlns="http://www.w3.org/2000/svg">
<path fill-rule="evenodd" clip-rule="evenodd" d="M28.1 16H5.9C4.3 16 3 17.3 3 18.9V30C3 31.7 4.3 33 5.9 33H28C29.6 33 30.9 31.7 30.9 30.1V18.9C31 17.3 29.7 16 28.1 16ZM28 28.8C28 29.5 27.4 30 26.8 30H7.2C6.6 30 6 29.4 6 28.8V20.3C6 19.6 6.6 19 7.2 19H26.7C27.4 19 27.9 19.6 27.9 20.2V28.8H28Z" fill="black"/>
<path d="M17 1C11.5 1 7 5.5 7 11V17H10V11C10 7.1 13.1 4 17 4C20.9 4 24 7.1 24 11V17H27V11C27 5.5 22.5 1 17 1ZM17 8C15.3 8 14 9.3 14 11V17H20V11C20 9.3 18.7 8 17 8Z" fill="black"/>
</svg>
