<svg width="34" height="34" viewBox="0 0 34 34" fill="none" xmlns="http://www.w3.org/2000/svg">
<path d="M24.4701 33H16.2701C14.4901 33 13.0401 31.55 13.0401 29.77V28.54H10.2901C7.71013 28.54 5.62013 26.44 5.62013 23.87V21.61C4.82013 21.54 4.09013 21.08 3.69013 20.37C3.26013 19.6 3.28013 18.65 3.74013 17.9L5.57013 14.92C5.76013 14.61 5.85013 14.24 5.84013 13.85C5.84013 13.7 5.84013 13.55 5.84013 13.4C5.84013 10 7.19013 6.83001 9.63013 4.47001C12.0801 2.11001 15.3001 0.870019 18.7001 1.01001C25.1601 1.25001 30.4001 6.49002 30.6301 12.96C30.7101 15.29 30.1401 17.59 28.9801 19.6C27.6901 22.7 27.2501 25.99 27.6801 29.36C27.8001 30.28 27.5101 31.21 26.9001 31.91C26.2901 32.6 25.4101 33 24.4801 33H24.4701ZM6.80013 18.64C7.82013 18.78 8.61013 19.66 8.61013 20.72V23.87C8.61013 24.79 9.36013 25.54 10.2801 25.54H14.5301C15.3601 25.54 16.0301 26.21 16.0301 27.04V29.77C16.0301 29.9 16.1301 30 16.2601 30H24.4601C24.5301 30 24.5801 29.97 24.6301 29.92C24.6601 29.88 24.7001 29.82 24.6901 29.73C24.1901 25.79 24.7101 21.96 26.2401 18.34C26.2701 18.28 26.3001 18.22 26.3301 18.16C27.2401 16.62 27.6801 14.85 27.6201 13.05C27.4501 8.15002 23.4801 4.18002 18.5801 4.00002C16.0001 3.91002 13.5601 4.84001 11.7001 6.63001C9.85013 8.42001 8.82013 10.82 8.82013 13.4C8.82013 13.51 8.82013 13.63 8.82013 13.74C8.86013 14.73 8.61013 15.68 8.11013 16.49L6.79013 18.63L6.80013 18.64Z" fill="black"/>
<path d="M18.1505 19.51C17.6078 19.51 17.138 19.1536 16.9841 18.6352C16.4819 16.9018 15.0887 15.5086 13.3553 15.0064C12.8369 14.8525 12.4805 14.3827 12.4805 13.84C12.4805 13.2973 12.8369 12.8275 13.3553 12.6736C15.0887 12.1714 16.4819 10.7782 16.9841 9.04484C17.138 8.52644 17.6078 8.17004 18.1505 8.17004C18.6932 8.17004 19.163 8.52644 19.3169 9.04484C19.8191 10.7782 21.2123 12.1714 22.9457 12.6736C23.4641 12.8275 23.8205 13.2973 23.8205 13.84C23.8205 14.3827 23.4641 14.8525 22.9457 15.0064C21.2123 15.5086 19.8191 16.9018 19.3169 18.6352C19.163 19.1536 18.6932 19.51 18.1505 19.51Z" fill="black"/>
</svg>
