<svg width="34" height="34" viewBox="0 0 34 34" fill="none" xmlns="http://www.w3.org/2000/svg">
<path d="M17 23C13.1 23 10 19.9 10 16V8C10 4.1 13.1 1 17 1C20.9 1 24 4.1 24 8V16C24 19.9 20.9 23 17 23ZM17 4C14.8 4 13 5.8 13 8V16C13 18.2 14.8 20 17 20C19.2 20 21 18.2 21 16V8C21 5.8 19.2 4 17 4Z" fill="black"/>
<path d="M27.5 11C26.7 11 26 11.6695 26 12.5C26 13.3305 26 14 26 14V16C26 21 22 25 17 25C12 25 8 21 8 16V14C8 14 8 13.0858 8 12.5C8 11.6722 7.3 11 6.5 11C5.7 11 5 11.7 5 12.5V16C5 22.6 10.4 28 17 28C23.6 28 29 22.6 29 16V12.5C29 11.7 28.3 11 27.5 11Z" fill="black"/>
<rect x="11" y="30" width="11" height="3" rx="1.5" fill="black"/>
<rect x="15" y="32" width="6" height="3" rx="1.5" transform="rotate(-90 15 32)" fill="black"/>
</svg>
