<svg width="34" height="34" viewBox="0 0 34 34" fill="none" xmlns="http://www.w3.org/2000/svg">
<path d="M14.2 33C10.7 33 7.20004 31.9 4.40004 29.7C3.70004 29.2 3.50004 28.3 3.80004 27.5C4.10004 26.7 4.90004 26.2 5.70004 26.2C7.40004 26.3 9.00004 26 10.6 25.4C13.9 24.2 16.5 21.8 18 18.6C19.5 15.4 19.6 11.8 18.4 8.5C17.8 6.9 17 5.5 15.8 4.2C15.2 3.6 15.1 2.7 15.6 1.9C16 1.2 16.9 0.800001 17.7 1C23.1 2.2 27.5 6.1 29.4 11.3C30.9 15.4 30.6 19.8 28.7 23.7C26.8 27.7 23.5 30.6 19.4 32C17.8 32.7 16 33 14.2 33ZM9.00004 28.9C12 30.2 15.4 30.3 18.5 29.2C21.8 28.1 24.5 25.6 26 22.4C27.5 19.2 27.7 15.6 26.5 12.3C25.3 9.1 23 6.5 20 5C20.4 5.8 20.8 6.6 21.1 7.4C22.6 11.5 22.4 15.8 20.6 19.8C18.8 23.7 15.5 26.7 11.5 28.2C10.7 28.5 9.90004 28.8 9.00004 28.9Z" fill="black"/>
</svg>
