<svg width="34" height="34" viewBox="0 0 34 34" fill="none" xmlns="http://www.w3.org/2000/svg">
<path d="M17 1C8.18 1 1 8.18 1 17C1 25.82 8.18 33 17 33C25.82 33 33 25.82 33 17C33 8.18 25.82 1 17 1ZM15.18 23.5C15.18 24.33 14.51 25 13.68 25H11.33C10.5 25 9.83 24.33 9.83 23.5V10.5C9.83 9.67 10.5 9 11.33 9H13.68C14.51 9 15.18 9.67 15.18 10.5V23.5ZM24.18 23.5C24.18 24.33 23.51 25 22.68 25H20.33C19.5 25 18.83 24.33 18.83 23.5V10.5C18.83 9.67 19.5 9 20.33 9H22.68C23.51 9 24.18 9.67 24.18 10.5V23.5Z" fill="black"/>
</svg>
