<svg width="34" height="34" viewBox="0 0 34 34" fill="none" xmlns="http://www.w3.org/2000/svg">
<path d="M10.58 33H4.69C2.66 33 1 31.35 1 29.31V4.69C1 2.66 2.65 1 4.69 1H10.58C12.61 1 14.27 2.65 14.27 4.69V29.32C14.27 31.35 12.62 33.01 10.58 33.01V33ZM4.69 4C4.31 4 4 4.31 4 4.69V29.32C4 29.7 4.31 30.01 4.69 30.01H10.58C10.96 30.01 11.27 29.7 11.27 29.32V4.69C11.27 4.31 10.96 4 10.58 4H4.69Z" fill="black"/>
<path d="M29.3105 33H23.4205C21.3905 33 19.7305 31.35 19.7305 29.31V4.69C19.7305 2.66 21.3805 1 23.4205 1H29.3105C31.3405 1 33.0005 2.65 33.0005 4.69V29.32C33.0005 31.35 31.3505 33.01 29.3105 33.01V33ZM23.4205 4C23.0405 4 22.7305 4.31 22.7305 4.69V29.32C22.7305 29.7 23.0405 30.01 23.4205 30.01H29.3105C29.6905 30.01 30.0005 29.7 30.0005 29.32V4.69C30.0005 4.31 29.6905 4 29.3105 4H23.4205Z" fill="black"/>
</svg>
