<svg width="34" height="34" viewBox="0 0 34 34" fill="none" xmlns="http://www.w3.org/2000/svg">
<path d="M10.57 1H6.69C4.65207 1 3 2.65207 3 4.69V29.31C3 31.3479 4.65207 33 6.69 33H10.57C12.6079 33 14.26 31.3479 14.26 29.31V4.69C14.26 2.65207 12.6079 1 10.57 1Z" fill="black"/>
<path d="M27.3102 1H23.4302C21.3923 1 19.7402 2.65207 19.7402 4.69V29.31C19.7402 31.3479 21.3923 33 23.4302 33H27.3102C29.3482 33 31.0002 31.3479 31.0002 29.31V4.69C31.0002 2.65207 29.3482 1 27.3102 1Z" fill="black"/>
</svg>
