<svg width="34" height="34" viewBox="0 0 34 34" fill="none" xmlns="http://www.w3.org/2000/svg">
<path d="M16.0004 16.2C11.8104 16.2 8.40039 12.79 8.40039 8.6C8.40039 4.41 11.8104 1 16.0004 1C20.1904 1 23.6004 4.41 23.6004 8.6C23.6004 12.79 20.1904 16.2 16.0004 16.2ZM16.0004 4C13.4604 4 11.4004 6.06 11.4004 8.6C11.4004 11.14 13.4604 13.2 16.0004 13.2C18.5404 13.2 20.6004 11.14 20.6004 8.6C20.6004 6.06 18.5404 4 16.0004 4Z" fill="black"/>
<path d="M17.9994 33.0006H5.58937C4.35937 33.0006 3.21937 32.3906 2.53937 31.3706C1.85937 30.3606 1.72937 29.0906 2.18937 27.9706C4.48937 22.3706 10.4194 18.1406 15.9994 18.1406C17.4094 18.1406 18.8794 18.4106 20.3594 18.9606C21.1394 19.2506 21.5394 20.1106 21.2494 20.8806C20.9594 21.6606 20.0994 22.0506 19.3294 21.7706C18.1894 21.3506 17.0694 21.1406 16.0094 21.1406C11.6594 21.1406 6.80937 24.6406 4.97937 29.1006C4.86937 29.3706 4.97937 29.5806 5.03937 29.6906C5.09937 29.7806 5.27937 29.9906 5.59937 29.9906H17.9994C18.8294 29.9906 19.4994 30.6606 19.4994 31.4906C19.4994 32.3206 18.8294 32.9906 17.9994 32.9906V33.0006Z" fill="black"/>
<path d="M23.6295 32.4986C23.2495 32.4986 22.8595 32.3486 22.5695 32.0586L19.0695 28.5586C18.4795 27.9686 18.4795 27.0186 19.0695 26.4386L22.5695 22.9386C23.1595 22.3486 24.1095 22.3486 24.6895 22.9386C25.2695 23.5286 25.2795 24.4786 24.6895 25.0586L22.2495 27.4986L24.6895 29.9386C25.2795 30.5286 25.2795 31.4786 24.6895 32.0586C24.3995 32.3486 24.0095 32.4986 23.6295 32.4986Z" fill="black"/>
<path d="M28.5009 29H20.1309C19.3009 29 18.6309 28.33 18.6309 27.5C18.6309 26.67 19.3009 26 20.1309 26H28.5009C29.3309 26 30.0009 26.67 30.0009 27.5C30.0009 28.33 29.3309 29 28.5009 29Z" fill="black"/>
<path d="M28.0005 22.4988C27.6205 22.4988 27.2305 22.3488 26.9405 22.0588C26.3505 21.4688 26.3505 20.5188 26.9405 19.9388L29.3805 17.4988L26.9405 15.0588C26.3505 14.4688 26.3505 13.5188 26.9405 12.9388C27.5305 12.3588 28.4805 12.3488 29.0605 12.9388L32.5605 16.4388C33.1505 17.0288 33.1505 17.9788 32.5605 18.5588L29.0605 22.0588C28.7705 22.3488 28.3805 22.4988 28.0005 22.4988Z" fill="black"/>
<path d="M31.5009 19H23.1309C22.3009 19 21.6309 18.33 21.6309 17.5C21.6309 16.67 22.3009 16 23.1309 16H31.5009C32.3309 16 33.0009 16.67 33.0009 17.5C33.0009 18.33 32.3309 19 31.5009 19Z" fill="black"/>
</svg>
