<svg width="34" height="34" viewBox="0 0 34 34" fill="none" xmlns="http://www.w3.org/2000/svg">
<path d="M17 18.2002C22.5999 18.2002 28.6003 22.4997 30.9004 28.0996C31.3004 29.1996 31.2 30.5004 30.5 31.4004C29.8 32.4002 28.6999 33 27.5 33H6.5C5.30011 33 4.20001 32.4002 3.5 31.4004C2.8 30.4004 2.69961 29.1996 3.09961 28.0996C5.39968 22.3997 11.3001 18.2002 17 18.2002ZM17 21.0996C12.6 21.0996 7.70039 24.6002 5.90039 29.2002C5.80039 29.4002 5.9 29.6002 6 29.7002C6.09996 29.8002 6.20012 30 6.5 30H27.5C27.7999 30 27.9 29.8002 28 29.7002C28.1 29.6002 28.1996 29.4002 28.0996 29.2002C26.2996 24.7002 21.4 21.0996 17 21.0996ZM17 1C21.1999 1 24.6004 4.39979 24.6006 8.59961C24.6006 12.7996 21.2 16.2002 17 16.2002C12.8001 16.2001 9.40039 12.7996 9.40039 8.59961C9.4006 4.39984 12.8002 1.00009 17 1ZM17 4C14.5002 4.00009 12.4006 6.09984 12.4004 8.59961C12.4004 11.0996 14.5001 13.2001 17 13.2002C19.5 13.2002 21.6006 11.0996 21.6006 8.59961C21.6004 6.09978 19.4999 4 17 4Z" fill="black"/>
</svg>
