<svg width="34" height="34" viewBox="0 0 34 34" fill="none" xmlns="http://www.w3.org/2000/svg">
<path d="M17.0002 16.2C21.2002 16.2 24.6002 12.8 24.6002 8.6C24.6002 4.4 21.2002 1 17.0002 1C12.8002 1 9.40017 4.4 9.40017 8.6C9.40017 12.8 12.8002 16.2 17.0002 16.2ZM30.9002 28.1C28.6002 22.4 22.7002 18.2 17.0002 18.2C11.3002 18.2 5.40017 22.4 3.10017 28.1C2.70017 29.2 2.80017 30.4 3.50017 31.4C4.20017 32.4 5.30017 33 6.50017 33H27.5002C28.7002 33 29.8002 32.4 30.5002 31.4C31.2002 30.4 31.3002 29.2 30.9002 28.1Z" fill="black"/>
</svg>
