<svg width="34" height="34" viewBox="0 0 34 34" fill="none" xmlns="http://www.w3.org/2000/svg">
<path d="M10.2999 31.9C7.79994 31.9 3.89994 30.8 2.19994 26.4C1.79994 25.3 1.89994 24.1 2.39994 23.1C2.89994 22.1 3.89994 21.3 4.99994 21L9.49994 19.3C10.8999 18.6 12.5999 19.2 13.2999 20.5L13.9999 21.7C15.5999 20.7 17.0999 19.6 18.3999 18.2C19.6999 16.9 20.8999 15.4 21.8999 13.8L20.6999 13.2C19.2999 12.5 18.7999 10.8 19.3999 9.39998L21.0999 4.99998C21.3999 3.89998 22.0999 2.99998 23.0999 2.49998C24.0999 1.99998 25.2999 1.89998 26.3999 2.29998C31.0999 4.09998 32.0999 8.49998 31.8999 10.8C31.3999 15.7 28.7999 20.7 24.7999 24.7C20.7999 28.7 15.6999 31.3 10.7999 31.8C10.6999 31.9 10.4999 31.9 10.2999 31.9ZM10.6999 22.1C10.6999 22.1 5.89994 23.9 5.79994 24C5.49994 24.1 5.19994 24.3 5.09994 24.6C4.99994 24.7 4.89994 25 5.09994 25.4C6.49994 29.2 10.4999 28.9 10.5999 28.9C14.6999 28.5 19.1999 26.2 22.6999 22.7C26.1999 19.2 28.4999 14.8 28.9999 10.6C28.9999 10.5 29.1999 6.59998 25.3999 5.19998C24.9999 5.09998 24.6999 5.19998 24.4999 5.29998C24.2999 5.39998 23.9999 5.59998 23.8999 5.99998C23.8999 6.09998 22.1999 10.7 22.1999 10.7V10.8L23.8999 11.7C24.4999 12 24.8999 12.6 25.0999 13.2C25.2999 13.8 25.1999 14.5 24.8999 15.1C23.6999 17.1 22.2999 18.9 20.5999 20.6C18.8999 22.3 17.0999 23.7 15.0999 24.8C14.4999 25.1 13.8999 25.2 13.1999 25C12.5999 24.8 11.9999 24.4 11.6999 23.8L10.6999 22.1Z" fill="black"/>
</svg>
