<svg width="34" height="34" viewBox="0 0 34 34" fill="none" xmlns="http://www.w3.org/2000/svg">
<path d="M9.79994 33C7.19994 33 2.99994 31.8 1.19994 27.2C0.799943 26.1 0.899943 24.8 1.39994 23.7C1.99994 22.6 2.89994 21.9 4.09994 21.5L8.99994 19.7C10.3999 19 12.1999 19.6 12.9999 21L13.7999 22.4C15.4999 21.3 17.1999 20.1 18.5999 18.6C19.9999 17.1 21.3999 15.5 22.3999 13.8L20.9999 13C19.5999 12.2 18.9999 10.5 19.6999 8.99999L21.4999 4.19999C21.7999 2.99998 22.5999 2.09999 23.6999 1.49999C24.7999 0.899985 25.9999 0.899985 27.1999 1.29999C32.1999 3.19999 33.1999 7.89998 32.9999 10.4C32.4999 15.6 29.6999 21.1 25.3999 25.4C21.0999 29.7 15.6999 32.5 10.4999 33C10.1999 33 9.99994 33 9.79994 33ZM10.2999 22.4C10.1999 22.4 5.09994 24.4 4.99994 24.5C4.59994 24.6 4.29994 24.8 4.09994 25.2C3.99994 25.4 3.89994 25.8 3.99994 26.2C5.59994 30.3 9.99994 30 10.0999 30C14.5999 29.5 19.2999 27.1 23.1999 23.2C26.9999 19.4 29.4999 14.6 29.9999 10.1C29.9999 9.99998 30.2999 5.59999 26.0999 4.09999C25.6999 3.89999 25.2999 4.09999 25.0999 4.19999C24.7999 4.39999 24.4999 4.69999 24.3999 5.09999C24.3999 5.19999 22.3999 10.3 22.2999 10.4L24.1999 11.5C24.7999 11.8 25.1999 12.4 25.3999 13C25.5999 13.7 25.4999 14.3 25.1999 14.9C23.9999 17 22.3999 19 20.5999 20.8C18.7999 22.6 16.7999 24.1 14.6999 25.4C14.0999 25.7 13.3999 25.8 12.7999 25.6C12.1999 25.4 11.5999 25 11.2999 24.4L10.2999 22.4Z" fill="black"/>
</svg>
