<svg width="34" height="34" viewBox="0 0 34 34" fill="none" xmlns="http://www.w3.org/2000/svg">
<path d="M30.0004 31.5C29.6004 31.5 29.2004 31.4 28.9004 31.1L5.40039 7.59999C4.90039 6.99999 4.90039 5.99999 5.40039 5.39999C6.00039 4.89999 7.00039 4.89999 7.60039 5.39999L31.1004 28.9C31.7004 29.5 31.7004 30.4 31.1004 31C30.8004 31.4 30.4004 31.5 30.0004 31.5Z" fill="black"/>
<path d="M21.565 19.7895C21.2501 20.1318 20.9297 20.4706 20.6002 20.8002C18.8002 22.6002 16.7997 24.0998 14.6998 25.3998C14.0999 25.6997 13.4002 25.7999 12.8004 25.6C12.2004 25.4 11.6004 24.9998 11.3004 24.3998L10.3004 22.3998C10.2004 22.4998 5.20275 24.3996 5.00055 24.5004C4.60065 24.6004 4.30016 24.7998 4.10016 25.1996C4.00018 25.3996 3.90065 25.7997 4.00055 26.1996C5.60051 30.2995 9.99994 30.0004 10.1002 30.0004C14.6002 29.5004 19.2998 27.0996 23.1998 23.1996C23.4968 22.9026 23.7842 22.5981 24.065 22.2895L26.2681 24.4926C25.9859 24.8003 25.6967 25.1031 25.4 25.3998C21.1001 29.6997 15.7004 32.5003 10.5005 33.0004H9.80035C7.20035 33.0004 2.99977 31.7996 1.19977 27.1996C0.799959 26.0997 0.900031 24.7995 1.39996 23.6996C1.99994 22.5998 2.9003 21.9004 4.10016 21.5004L9.00055 19.6996C10.4005 19 12.2006 19.6006 13.0005 21.0004L13.8004 22.3998C15.5003 21.2999 17.2002 20.0999 18.6002 18.6C18.8844 18.2954 19.1669 17.9851 19.4478 17.6723L21.565 19.7895ZM23.6998 1.50041C24.7997 0.900456 25.9999 0.90031 27.1998 1.30021C32.1996 3.20016 33.2005 7.89977 33.0005 10.3998C32.6219 14.3379 30.9219 18.4469 28.2525 22.0776L26.0308 19.8559C28.2256 16.7756 29.6384 13.3595 30.0005 10.1C30.0005 10 30.3002 5.60002 26.1002 4.10002C25.7003 3.90006 25.3002 4.0996 25.1002 4.19963C24.8002 4.39963 24.5 4.70002 24.4 5.10002C24.2994 5.30148 22.4016 10.1966 22.3004 10.3998L24.1998 11.5004C24.7998 11.8004 25.2 12.4004 25.4 13.0004C25.5998 13.7003 25.4997 14.2999 25.1998 14.8998C24.7152 15.7479 24.1649 16.5793 23.563 17.3881L21.4322 15.2572C21.7812 14.7794 22.1089 14.295 22.4 13.8002L21.0005 13.0004C19.6007 12.2005 19.0001 10.5003 19.6998 9.00041L21.5005 4.19963C21.8006 3.00002 22.6001 2.10034 23.6998 1.50041Z" fill="black"/>
</svg>
