<svg width="34" height="34" viewBox="0 0 34 34" fill="none" xmlns="http://www.w3.org/2000/svg">
<path d="M10.3996 31.9C7.89955 31.9 3.99955 30.8 2.29955 26.4C1.89955 25.3 1.99955 24.1 2.49955 23.1C2.99955 22.1 3.99955 21.3 5.09955 21L9.59955 19.3C10.9996 18.6 12.6996 19.2 13.3996 20.5L14.0996 21.7C14.4996 21.5 14.7996 21.2 15.1996 21C15.8996 20.5 16.7996 20.7 17.2996 21.4C17.7996 22.1 17.5996 23 16.8996 23.5C16.2996 23.9 15.6996 24.3 15.0996 24.6C14.4996 24.9 13.8996 25 13.1996 24.8C12.5996 24.6 11.9996 24.2 11.6996 23.6L10.7996 21.9C10.6996 21.9 6.09955 24 6.09955 24C5.99955 24 5.29955 24.3 5.19955 24.6C5.09955 24.7 4.99955 25 5.09955 25.4C6.49955 29.2 10.4996 28.9 10.5996 28.9C13.4996 28.6 16.4996 27.4 19.2996 25.5C19.9996 25 20.8996 25.2 21.3996 25.9C21.8996 26.6 21.6996 27.5 20.9996 28C17.7996 30.2 14.2996 31.5 10.8996 31.9C10.7996 31.9 10.5996 31.9 10.3996 31.9Z" fill="black"/>
<path d="M26.7993 21.7C26.4993 21.7 26.1993 21.6 25.9993 21.4C25.2993 20.9 25.0993 20 25.5993 19.3C27.4993 16.5 28.6993 13.5 28.9993 10.6C28.9993 10.5 29.1993 6.50002 25.4993 5.10002C25.0993 5.00002 24.7993 5.10002 24.6993 5.20002C24.3993 5.30002 24.1993 5.60002 24.0993 5.90002C23.9993 6.00002 22.2993 10.8 22.1993 10.9L23.8993 11.8C24.4993 12.1 24.8993 12.6 25.0993 13.3C25.2993 13.9 25.1993 14.6 24.8993 15.2C24.4993 15.8 24.1993 16.4 23.7993 17C23.2993 17.7 22.3993 17.9 21.6993 17.4C20.9993 16.9 20.7993 16 21.2993 15.3C21.4993 14.9 21.7993 14.6 21.9993 14.2L20.7993 13.5C19.3993 12.8 18.8993 11.1 19.5993 9.70002L21.2993 5.20002C21.5993 4.10002 22.2993 3.20002 23.3993 2.60002C24.3993 2.10002 25.5993 2.00002 26.6993 2.40002C31.3993 4.20002 32.2993 8.60002 32.1993 11C31.7993 14.4 30.4993 17.9 28.2993 21.2C27.6993 21.5 27.2993 21.7 26.7993 21.7Z" fill="black"/>
<path d="M29.9998 31.5C29.5998 31.5 29.1998 31.4 28.8998 31.1L5.4998 7.59999C4.8998 6.99999 4.8998 6.09999 5.4998 5.49999C6.0998 4.89999 6.9998 4.89999 7.5998 5.49999L31.0998 29C31.6998 29.6 31.6998 30.5 31.0998 31.1C30.7998 31.4 30.3998 31.5 29.9998 31.5Z" fill="black"/>
</svg>
