<svg width="34" height="34" viewBox="0 0 34 34" fill="none" xmlns="http://www.w3.org/2000/svg">
<path d="M8.57 33.0003C8.02 33.0003 7.46 32.8603 6.95 32.5803C5.75 31.9303 5 30.6303 5 29.1903V4.81028C5 3.37028 5.75 2.07028 6.95 1.42028C8.06 0.820279 9.35 0.870279 10.42 1.56028L29.24 13.7503C30.31 14.4503 30.95 15.6603 30.95 17.0003C30.95 18.3403 30.31 19.5603 29.24 20.2503L10.42 32.4403C9.85 32.8103 9.21 33.0003 8.57 33.0003ZM8.57 4.00028C8.51 4.00028 8.45 4.01028 8.38 4.05028C8.2 4.15028 8 4.40028 8 4.81028V29.1903C8 29.6003 8.2 29.8503 8.38 29.9503C8.56 30.0503 8.69 29.9903 8.78 29.9303L27.6 17.7403C27.92 17.5303 27.94 17.1203 27.94 17.0003C27.94 16.8803 27.92 16.4703 27.6 16.2603L8.78 4.07028C8.72 4.03028 8.65 4.00028 8.56 4.00028H8.57Z" fill="black"/>
</svg>
