<svg width="34" height="34" viewBox="0 0 34 34" fill="none" xmlns="http://www.w3.org/2000/svg">
<path d="M25.1003 23.5C24.3003 24.3 22.8003 24.2 21.0003 23.5L4.60033 29.5L10.6003 13.1C9.80033 11.3 9.80033 9.79999 10.6003 8.99999C10.7003 8.89999 10.8003 8.79999 11.0003 8.69999C10.6003 8.39999 10.2003 8.39999 9.80033 8.49999C9.30033 8.69999 8.90033 8.99999 8.70033 9.49999L1.20033 30.1C0.900329 30.9 1.10033 31.8 1.70033 32.4C2.10033 32.8 2.60033 33 3.20033 33C3.40033 33 3.70033 33 3.90033 32.9L24.5003 25.3C25.0003 25.1 25.4003 24.7 25.5003 24.2C25.6003 23.8 25.5003 23.5 25.3003 23.1C25.3003 23.3 25.2003 23.4 25.1003 23.5Z" fill="black"/>
<path d="M23.6998 25.7C22.8998 25.7 21.7998 25.5 20.4998 24.9C18.3998 24 16.0998 22.4 13.9998 20.3C11.8998 18.2 10.2998 15.9 9.39982 13.8C7.89982 10.4 8.89982 8.7 9.59982 8C12.1998 5.4 17.6998 8.2 21.8998 12.4C23.9998 14.5 25.5998 16.8 26.4998 18.9C27.9998 22.3 26.9998 24 26.2998 24.7C25.9362 25.0636 25.0998 25.7 23.6998 25.7ZM12.3998 10.1C12.0998 10.1 11.9998 10.2 11.8998 10.2C11.6998 10.4 11.5998 11.2 12.2998 12.7C12.9998 14.4 14.4998 16.4 16.2998 18.2C18.0998 20 20.0998 21.4 21.7998 22.2C23.2998 22.9 24.1998 22.7 24.2998 22.6C24.4998 22.4 24.5998 21.6 23.8998 20.1C23.1998 18.4 21.6998 16.4 19.8998 14.6C16.5998 11.2 13.5998 10.1 12.3998 10.1Z" fill="black"/>
<path d="M17.8998 15.4C17.5998 15.4 17.1998 15.3 16.8998 15.1C15.8998 14.6 15.5998 13.3 16.0998 12.4C18.3998 8.29999 16.1998 4.19999 16.0998 3.99999C15.5998 2.99999 15.8998 1.79999 16.8998 1.29999C17.7998 0.699994 18.9998 0.999994 19.5998 1.99999C19.6998 2.19999 22.9998 8.19999 19.5998 14.3C19.1998 15 18.5998 15.4 17.8998 15.4Z" fill="black"/>
<path fill-rule="evenodd" clip-rule="evenodd" d="M8.79981 4.7L7.1998 6.3C6.9998 6.5 6.59981 6.5 6.29981 6.3L4.6998 4.7C4.4998 4.4 4.4998 4 4.6998 3.8L6.29981 2.2C6.49981 2 6.8998 2 7.1998 2.2L8.79981 3.8C8.9998 4 8.9998 4.4 8.79981 4.7Z" fill="black"/>
<path fill-rule="evenodd" clip-rule="evenodd" d="M32.7998 17.7L31.1998 19.3C30.9998 19.5 30.5998 19.5 30.2998 19.3L28.6998 17.7C28.4998 17.5 28.4998 17.1 28.6998 16.8L30.2998 15.2C30.4998 15 30.8998 15 31.1998 15.2L32.7998 16.8C33.0998 17 33.0998 17.4 32.7998 17.7Z" fill="black"/>
<path fill-rule="evenodd" clip-rule="evenodd" d="M27.7998 4.7L26.1998 6.3C25.9998 6.5 25.5998 6.5 25.2998 6.3L23.6998 4.7C23.4998 4.5 23.4998 4.1 23.6998 3.8L25.2998 2.2C25.4998 2 25.8998 2 26.1998 2.2L27.7998 3.8C28.0998 4 28.0998 4.4 27.7998 4.7Z" fill="black"/>
<path d="M31.4 9.40001C29.5 9.10001 27.5 9.20001 25.6 9.80001C24.5 10.1 23.9 11.2 24.2 12.3C24.4 13.1 25.2 13.7 26.1 13.7C26.1 13.7 26.5 13.7 27.5 13.5C28.4 13.3 29.6 13.2 30.8 13.4C31.9 13.5 32.9 12.8 33.1 11.7C33.2 10.6 32.5 9.60001 31.4 9.40001Z" fill="black"/>
</svg>
