<svg width="34" height="34" viewBox="0 0 34 34" fill="none" xmlns="http://www.w3.org/2000/svg">
<path d="M17 33C16.2 33 15.5 32.3 15.5 31.5V10.5C15.5 9.7 16.2 9 17 9C17.8 9 18.5 9.7 18.5 10.5V31.5C18.5 32.3 17.8 33 17 33Z" fill="black"/>
<path d="M16.9997 30C10.5997 30 5.0997 25.2 4.0997 18.9C3.9997 18.4 4.1997 17.8 4.5997 17.5C4.9997 17.2 5.5997 17.1 6.0997 17.3L10.9997 19.1C11.7997 19.4 12.1997 20.2 11.8997 21C11.5997 21.8 10.6997 22.2 9.9997 21.9L7.8997 21.1C9.4997 24.6 12.9997 27 16.9997 27C17.7997 27 18.4997 27.7 18.4997 28.5C18.4997 29.3 17.7997 30 16.9997 30Z" fill="black"/>
<path d="M17 30C16.2 30 15.5 29.3 15.5 28.5C15.5 27.7 16.2 27 17 27C21 27 24.5 24.6 26.1 21.1L24 21.9C23.2 22.2 22.4 21.8 22.1 21C21.8 20.2 22.2 19.4 23 19.1L27.9 17.3C28.4 17.1 29 17.2 29.4 17.5C29.8 17.8 30 18.4 29.9 18.9C28.9 25.2 23.4 30 17 30Z" fill="black"/>
<path d="M17 11C14.2 11 12 8.8 12 6C12 3.2 14.2 1 17 1C19.8 1 22 3.2 22 6C22 8.8 19.8 11 17 11ZM17 4C15.9 4 15 4.9 15 6C15 7.1 15.9 8 17 8C18.1 8 19 7.1 19 6C19 4.9 18.1 4 17 4Z" fill="black"/>
<path d="M23.5 14H10.5C9.7 14 9 13.3 9 12.5C9 11.7 9.7 11 10.5 11H23.5C24.3 11 25 11.7 25 12.5C25 13.3 24.3 14 23.5 14Z" fill="black"/>
</svg>
