<svg width="34" height="34" viewBox="0 0 34 34" fill="none" xmlns="http://www.w3.org/2000/svg">
<path fill-rule="evenodd" clip-rule="evenodd" d="M2.5 11.5V4.5L8.5 8L2.5 11.5Z" fill="black"/>
<path d="M2.5 12.9988C2.24 12.9988 1.98 12.9288 1.75 12.7988C1.28 12.5288 1 12.0388 1 11.4988V4.49877C1 3.95877 1.29 3.46877 1.75 3.19877C2.21 2.92877 2.79 2.93877 3.25 3.19877L9.25 6.69877C9.71 6.96877 9.99 7.45877 9.99 7.99877C9.99 8.53877 9.71 9.02877 9.25 9.29877L3.25 12.7988C3.02 12.9388 2.76 12.9988 2.49 12.9988H2.5ZM4 7.10877V8.88877L5.52 7.99877L4 7.10877Z" fill="black"/>
<path d="M31.5 19.5H2.5C1.67 19.5 1 18.83 1 18C1 17.17 1.67 16.5 2.5 16.5H31.5C32.33 16.5 33 17.17 33 18C33 18.83 32.33 19.5 31.5 19.5Z" fill="black"/>
<path d="M31.5 9.5H14.5C13.67 9.5 13 8.83 13 8C13 7.17 13.67 6.5 14.5 6.5H31.5C32.33 6.5 33 7.17 33 8C33 8.83 32.33 9.5 31.5 9.5Z" fill="black"/>
<path d="M31.5 29.5H2.5C1.67 29.5 1 28.83 1 28C1 27.17 1.67 26.5 2.5 26.5H31.5C32.33 26.5 33 27.17 33 28C33 28.83 32.33 29.5 31.5 29.5Z" fill="black"/>
</svg>
