<svg width="34" height="34" viewBox="0 0 34 34" fill="none" xmlns="http://www.w3.org/2000/svg">
<path d="M6.5 33C6.1 33 5.7 32.8 5.4 32.6C5.1 32.3 4.9 31.8 5 31.3L5.9 25.1C2.8 22.4 1 18.8 1 15C1 7.3 8.2 1 17 1C25.8 1 33 7.3 33 15C33 22.7 25.8 29 17 29C16.2 29 15.4 29 14.7 28.9C11 32.4 6.9 33 6.7 33C6.6 33 6.6 33 6.5 33ZM17 4C9.8 4 4 8.9 4 15C4 18.1 5.6 21.1 8.4 23.2C8.8 23.5 9.1 24.1 9 24.6L8.3 29.4C9.6 28.9 11.4 27.9 13 26.2C13.3 25.8 13.9 25.7 14.4 25.7C15.3 25.8 16.1 25.9 17 25.9C24.2 25.9 30 21 30 14.9C30 8.8 24.2 4 17 4Z" fill="black"/>
<path fill-rule="evenodd" clip-rule="evenodd" d="M14.2998 16.5H10.1998C9.3998 16.5 8.7998 15.9 8.7998 15.1V11.4C8.7998 10.6 9.3998 10 10.1998 10H13.8998C14.6998 10 15.2998 10.6 15.2998 11.4V15.5C15.1998 16.1 14.7998 16.5 14.2998 16.5Z" fill="black"/>
<path d="M10.7998 21C9.9998 21 9.2998 20.3 9.2998 19.5C9.2998 18.7 9.8998 18 10.7998 18C12.2998 18 12.2998 15.6 12.2998 15.5C12.2998 14.7 12.9998 14 13.7998 14C14.5998 14 15.2998 14.7 15.2998 15.5C15.1998 17.4 14.2998 21 10.7998 21Z" fill="black"/>
<path fill-rule="evenodd" clip-rule="evenodd" d="M24.2998 16.5H20.1998C19.3998 16.5 18.7998 15.9 18.7998 15.1V11.4C18.7998 10.6 19.3998 10 20.1998 10H23.8998C24.6998 10 25.2998 10.6 25.2998 11.4V15.5C25.1998 16.1 24.7998 16.5 24.2998 16.5Z" fill="black"/>
<path d="M20.7998 21C19.9998 21 19.2998 20.3 19.2998 19.5C19.2998 18.7 19.9998 18 20.7998 18C22.2998 18 22.2998 15.6 22.2998 15.5C22.2998 14.7 22.9998 14 23.7998 14C24.5998 14 25.2998 14.7 25.2998 15.5C25.1998 17.4 24.2998 21 20.7998 21Z" fill="black"/>
</svg>
