<svg width="34" height="34" viewBox="0 0 34 34" fill="none" xmlns="http://www.w3.org/2000/svg">
<path d="M30.5 20H20.5C19.67 20 19 19.33 19 18.5V8.5C19 7.67 19.67 7 20.5 7H30.5C31.33 7 32 7.67 32 8.5V18.5C32 19.33 31.33 20 30.5 20ZM22 17H29V10H22V17Z" fill="black"/>
<path d="M22.5 28.9981C21.67 28.9981 21 28.3281 21 27.4981C21 26.6681 21.67 25.9981 22.5 25.9981C26.63 25.9981 29 23.6281 29 19.4981V14.8281C29 13.9981 29.67 13.3281 30.5 13.3281C31.33 13.3281 32 13.9981 32 14.8281V19.4981C32 25.2681 28.27 28.9981 22.5 28.9981Z" fill="black"/>
<path d="M12.5 20H2.5C1.67 20 1 19.33 1 18.5V8.5C1 7.67 1.67 7 2.5 7H12.5C13.33 7 14 7.67 14 8.5V18.5C14 19.33 13.33 20 12.5 20ZM4 17H11V10H4V17Z" fill="black"/>
<path d="M4.5 28.9981C3.67 28.9981 3 28.3281 3 27.4981C3 26.6681 3.67 25.9981 4.5 25.9981C8.63 25.9981 11 23.6281 11 19.4981V14.8281C11 13.9981 11.67 13.3281 12.5 13.3281C13.33 13.3281 14 13.9981 14 14.8281V19.4981C14 25.2681 10.27 28.9981 4.5 28.9981Z" fill="black"/>
</svg>
