<svg width="34" height="34" viewBox="0 0 34 34" fill="none" xmlns="http://www.w3.org/2000/svg">
<path d="M17 33C25.8366 33 33 25.8366 33 17C33 8.16344 25.8366 1 17 1C8.16344 1 1 8.16344 1 17C1 25.8366 8.16344 33 17 33Z" fill="black"/>
<path d="M17 30C24.1797 30 30 24.1797 30 17C30 9.8203 24.1797 4 17 4C9.8203 4 4 9.8203 4 17C4 24.1797 9.8203 30 17 30Z" fill="white"/>
<path d="M17 26C21.9706 26 26 21.9706 26 17C26 12.0294 21.9706 8 17 8C12.0294 8 8 12.0294 8 17C8 21.9706 12.0294 26 17 26Z" fill="black"/>
</svg>
