<svg width="34" height="34" viewBox="0 0 34 34" fill="none" xmlns="http://www.w3.org/2000/svg">
<path fill-rule="evenodd" clip-rule="evenodd" d="M11.8499 10.7697C11.6799 10.7897 4.41992 12.0797 4.41992 12.0797L5.48992 4.92969L11.8499 10.7697Z" fill="black"/>
<path d="M4.42018 13.5819C4.03018 13.5819 3.66018 13.4319 3.37018 13.1619C3.02018 12.8219 2.86018 12.3419 2.93018 11.8619L4.00018 4.7119C4.08018 4.1619 4.46018 3.7019 4.98018 3.5219C5.50018 3.3419 6.09018 3.4519 6.49018 3.8319L12.8502 9.6719C13.2802 10.0719 13.4402 10.6819 13.2602 11.2419C13.0802 11.7919 12.6002 12.1819 12.0302 12.2619C11.6802 12.3219 7.44018 13.0619 4.66018 13.5619C4.57018 13.5819 4.48018 13.5819 4.40018 13.5819H4.42018ZM6.56018 7.9419L6.22018 10.2319C7.17018 10.0619 7.95018 9.9219 8.60018 9.8119L6.56018 7.9419Z" fill="black"/>
<path d="M16.9897 31.06C9.22969 31.06 2.92969 24.75 2.92969 17C2.92969 16.17 3.59969 15.5 4.42969 15.5C5.25969 15.5 5.92969 16.17 5.92969 17C5.92969 23.1 10.8897 28.06 16.9897 28.06C19.9697 28.06 22.7697 26.89 24.8697 24.77C25.4497 24.18 26.3997 24.17 26.9897 24.76C27.5797 25.34 27.5897 26.29 26.9997 26.88C24.3397 29.58 20.7797 31.07 16.9897 31.07V31.06Z" fill="black"/>
<path d="M29.5798 18.4997C28.7498 18.4997 28.0798 17.8297 28.0798 16.9997C28.0798 10.8997 23.1198 5.93969 17.0198 5.93969C14.0398 5.93969 11.2398 7.10969 9.1398 9.22969C8.5598 9.81969 7.6098 9.82969 7.0198 9.23969C6.4298 8.64969 6.4198 7.70969 7.0098 7.11969C9.6698 4.41969 13.2298 2.92969 17.0198 2.92969C24.7798 2.92969 31.0798 9.23969 31.0798 16.9897C31.0798 17.8197 30.4098 18.4897 29.5798 18.4897V18.4997Z" fill="black"/>
<path fill-rule="evenodd" clip-rule="evenodd" d="M22.1504 23.2319C22.3204 23.2119 29.5804 21.9219 29.5804 21.9219L28.5104 29.0719L22.1504 23.2319Z" fill="black"/>
<path d="M28.5091 30.5691C28.1391 30.5691 27.7791 30.4291 27.4991 30.1691L21.1391 24.3291C20.7091 23.9291 20.5491 23.3191 20.7291 22.7591C20.9091 22.2091 21.3891 21.8191 21.9591 21.7391C22.3091 21.6791 26.5491 20.9391 29.3291 20.4391C29.7991 20.3591 30.2891 20.5091 30.6391 20.8391C30.9891 21.1791 31.1491 21.6591 31.0791 22.1391L30.0091 29.2891C29.9291 29.8391 29.5491 30.2991 29.0291 30.4791C28.8691 30.5391 28.6991 30.5691 28.5291 30.5691H28.5091ZM25.4091 24.1791L27.4491 26.0491L27.7891 23.7591C26.8391 23.9291 26.0591 24.0691 25.4091 24.1791Z" fill="black"/>
</svg>
