<svg width="34" height="34" viewBox="0 0 34 34" fill="none" xmlns="http://www.w3.org/2000/svg">
<path d="M17.0101 31.06C9.90011 31.06 3.89011 25.74 3.05011 18.69C2.95011 17.87 3.54011 17.12 4.36011 17.02C5.18011 16.91 5.93011 17.51 6.03011 18.33C6.70011 23.88 11.4201 28.06 17.0201 28.06C23.1201 28.06 28.0801 23.1 28.0801 17C28.0801 10.9 23.1201 5.93999 17.0201 5.93999C14.0401 5.93999 11.2401 7.10999 9.14011 9.22999C8.56011 9.81999 7.61011 9.82999 7.02011 9.23999C6.43011 8.64999 6.42011 7.70999 7.01011 7.11999C9.67011 4.41999 13.2301 2.92999 17.0201 2.92999C24.7801 2.92999 31.0801 9.23999 31.0801 16.99C31.0801 24.74 24.7701 31.05 17.0201 31.05L17.0101 31.06Z" fill="black"/>
<path fill-rule="evenodd" clip-rule="evenodd" d="M11.8499 10.77C11.6799 10.79 4.41992 12.08 4.41992 12.08L5.48992 4.92999L11.8499 10.77Z" fill="black"/>
<path d="M4.42018 13.58C4.03018 13.58 3.66018 13.43 3.37018 13.16C3.02018 12.82 2.86018 12.34 2.93018 11.86L4.00018 4.71001C4.08018 4.16001 4.46018 3.70001 4.98018 3.52001C5.50018 3.34001 6.09018 3.45001 6.49018 3.83001L12.8502 9.67001C13.2802 10.07 13.4402 10.68 13.2602 11.24C13.0802 11.79 12.6002 12.18 12.0302 12.26C11.6802 12.32 7.44018 13.06 4.66018 13.56C4.57018 13.58 4.48018 13.58 4.40018 13.58H4.42018ZM6.56018 7.94001L6.22018 10.23C7.17018 10.06 7.95018 9.92001 8.60018 9.81001L6.56018 7.94001Z" fill="black"/>
</svg>
