<svg width="34" height="34" viewBox="0 0 34 34" fill="none" xmlns="http://www.w3.org/2000/svg">
<path d="M17 33C8.18 33 1 25.82 1 17C1 8.18 8.18 1 17 1C25.82 1 33 8.18 33 17C33 25.82 25.82 33 17 33ZM17 4C9.83 4 4 9.83 4 17C4 24.17 9.83 30 17 30C24.17 30 30 24.17 30 17C30 9.83 24.17 4 17 4Z" fill="black"/>
<path d="M21.9494 23.4495C21.5694 23.4495 21.1794 23.2995 20.8894 23.0095L10.9894 13.1095C10.3994 12.5195 10.3994 11.5695 10.9894 10.9895C11.5794 10.4095 12.5294 10.3995 13.1094 10.9895L23.0094 20.8895C23.5994 21.4795 23.5994 22.4295 23.0094 23.0095C22.7194 23.2995 22.3294 23.4495 21.9494 23.4495Z" fill="black"/>
<path d="M12.0494 23.4494C11.6694 23.4494 11.2794 23.2994 10.9894 23.0094C10.3994 22.4194 10.3994 21.4694 10.9894 20.8894L20.8894 10.9894C21.4694 10.3994 22.4294 10.3994 23.0094 10.9894C23.5894 11.5794 23.5994 12.5294 23.0094 13.1094L13.1094 23.0094C12.8194 23.2994 12.4294 23.4494 12.0494 23.4494Z" fill="black"/>
</svg>
