<svg width="34" height="34" viewBox="0 0 34 34" fill="none" xmlns="http://www.w3.org/2000/svg">
<path d="M16.0004 16.2C11.8104 16.2 8.40039 12.79 8.40039 8.6C8.40039 4.41 11.8104 1 16.0004 1C20.1904 1 23.6004 4.41 23.6004 8.6C23.6004 12.79 20.1904 16.2 16.0004 16.2ZM16.0004 4C13.4604 4 11.4004 6.06 11.4004 8.6C11.4004 11.14 13.4604 13.2 16.0004 13.2C18.5404 13.2 20.6004 11.14 20.6004 8.6C20.6004 6.06 18.5404 4 16.0004 4Z" fill="black"/>
<path d="M26.4094 33.0006H5.58937C4.35937 33.0006 3.21937 32.3906 2.53937 31.3706C1.85937 30.3606 1.72937 29.0906 2.18937 27.9706C4.48937 22.3706 10.4194 18.1406 15.9994 18.1406C18.1094 18.1406 20.3594 18.7606 22.4894 19.9306C23.2194 20.3306 23.4794 21.2406 23.0794 21.9706C22.6794 22.7006 21.7694 22.9606 21.0394 22.5606C19.3494 21.6306 17.5994 21.1406 15.9894 21.1406C11.6394 21.1406 6.78937 24.6406 4.95937 29.1006C4.84937 29.3706 4.95937 29.5806 5.01937 29.6906C5.07937 29.7806 5.25937 29.9906 5.57937 29.9906H26.3994C26.7294 29.9906 26.9094 29.7806 26.9694 29.6906C27.0494 29.5706 27.1294 29.3706 27.0394 29.1406C26.7294 28.3806 27.0794 27.5006 27.8394 27.1806C28.5994 26.8606 29.4594 27.1806 29.7894 27.9406C30.2694 29.1106 30.1294 30.3706 29.4594 31.3606C28.7694 32.3806 27.6294 32.9906 26.3994 32.9906L26.4094 33.0006Z" fill="black"/>
<path d="M25.5005 25.9986C25.1205 25.9986 24.7305 25.8486 24.4405 25.5586C23.8505 24.9686 23.8505 24.0186 24.4405 23.4386L30.4405 17.4386C31.0305 16.8486 31.9805 16.8486 32.5605 17.4386C33.1405 18.0286 33.1505 18.9786 32.5605 19.5586L26.5605 25.5586C26.2705 25.8486 25.8805 25.9986 25.5005 25.9986Z" fill="black"/>
<path d="M31.5005 25.9988C31.1205 25.9988 30.7305 25.8488 30.4405 25.5588L24.4405 19.5588C23.8505 18.9688 23.8505 18.0188 24.4405 17.4388C25.0305 16.8588 25.9805 16.8488 26.5605 17.4388L32.5605 23.4388C33.1505 24.0288 33.1505 24.9788 32.5605 25.5588C32.2705 25.8488 31.8805 25.9988 31.5005 25.9988Z" fill="black"/>
</svg>
