<svg width="34" height="34" viewBox="0 0 34 34" fill="none" xmlns="http://www.w3.org/2000/svg">
<path d="M31.4752 30C31.7752 30 32.0752 29.9 32.2752 29.8C32.8752 29.4 33.0752 28.7 32.8752 28.1C30.2752 19.8 23.2752 13.4 14.7752 11.7V5.49999C14.7752 4.89999 14.3752 4.29999 13.8752 4.09999C13.2752 3.89999 12.6752 3.99999 12.2752 4.49999L1.47519 15.7C0.875195 16.3 0.875195 17.2 1.47519 17.8L12.1752 29.1C12.5752 29.5 13.2752 29.7 13.7752 29.5C14.3752 29.3 14.6752 28.7 14.6752 28.1V22.5C14.7752 22.5 14.8752 22.5 14.9752 22.5C20.6752 22.5 26.0752 24.9 29.9752 29.2L30.0752 29.3C30.1752 29.4 30.1752 29.4 30.2752 29.5L30.3752 29.6C30.7752 29.8 31.0752 30 31.4752 30Z" fill="black"/>
</svg>
