<svg width="34" height="34" viewBox="0 0 34 34" fill="none" xmlns="http://www.w3.org/2000/svg">
<path d="M31.5108 8.48164C30.5808 7.94164 29.4608 7.93164 28.5208 8.46164L19.0008 13.8516V11.0716C19.0008 9.99164 18.4408 9.02164 17.5108 8.48164C16.5808 7.94164 15.4608 7.93164 14.5208 8.46164L4.07078 14.3816C3.12078 14.9216 2.55078 15.9016 2.55078 16.9916C2.55078 18.0816 3.12078 19.0616 4.07078 19.6016L14.5208 25.5216C14.9808 25.7816 15.4908 25.9216 16.0008 25.9216C16.5108 25.9216 17.0408 25.7816 17.5108 25.5116C18.4408 24.9716 19.0008 24.0016 19.0008 22.9216V20.1416L28.5208 25.5316C28.9808 25.7916 29.4908 25.9316 30.0008 25.9316C30.5108 25.9316 31.0408 25.7916 31.5108 25.5216C32.4408 24.9816 33.0008 24.0116 33.0008 22.9316V11.0916C33.0008 10.0116 32.4408 9.04164 31.5108 8.50164V8.48164Z" fill="black"/>
</svg>
