<svg width="34" height="34" viewBox="0 0 34 34" fill="none" xmlns="http://www.w3.org/2000/svg">
<path d="M17 1C8.18 1 1 8.18 1 17C1 25.82 8.18 33 17 33C25.82 33 33 25.82 33 17C33 8.18 25.82 1 17 1ZM26 22.5C26 23.07 25.67 23.6 25.16 23.85C24.95 23.95 24.73 24 24.5 24C24.17 24 23.84 23.89 23.57 23.68L16.57 18.18C16.57 18.18 16.52 18.13 16.5 18.11V22.5C16.5 23.07 16.17 23.6 15.66 23.85C15.45 23.95 15.23 24 15 24C14.67 24 14.34 23.89 14.07 23.68L7.07 18.18C6.71 17.9 6.5 17.46 6.5 17C6.5 16.54 6.71 16.1 7.07 15.82L14.07 10.32C14.52 9.96 15.14 9.9 15.65 10.15C16.17 10.4 16.49 10.92 16.49 11.5V15.89C16.49 15.89 16.54 15.84 16.56 15.82L23.56 10.32C24.01 9.96 24.63 9.9 25.14 10.15C25.66 10.4 25.98 10.92 25.98 11.5V22.5H26Z" fill="black"/>
</svg>
