<svg width="34" height="34" viewBox="0 0 34 34" fill="none" xmlns="http://www.w3.org/2000/svg">
<path d="M30.0004 25.8304C29.4604 25.8304 28.9204 25.6804 28.4404 25.3904L18.8404 19.5604C17.9404 19.0104 17.4004 18.0504 17.4004 16.9904C17.4004 15.9304 17.9404 14.9704 18.8404 14.4204L28.4404 8.59042C29.3604 8.03042 30.5304 8.01042 31.4704 8.54042C32.4104 9.07042 33.0004 10.0704 33.0004 11.1604V22.8204C33.0004 23.9004 32.4104 24.9104 31.4704 25.4404C31.0104 25.7004 30.5104 25.8204 30.0004 25.8204V25.8304ZM30.0004 11.1704L20.3904 17.0004L29.9904 22.8304V11.1704H30.0004Z" fill="black"/>
<path d="M15.0004 25.8304C14.4604 25.8304 13.9204 25.6804 13.4404 25.3904L3.84039 19.5604C2.94039 19.0104 2.40039 18.0504 2.40039 16.9904C2.40039 15.9304 2.94039 14.9704 3.84039 14.4204L13.4404 8.59042C14.3604 8.03042 15.5304 8.01042 16.4704 8.54042C17.4104 9.07042 18.0004 10.0704 18.0004 11.1604V22.8204C18.0004 23.9004 17.4104 24.9104 16.4704 25.4404C16.0104 25.7004 15.5104 25.8204 15.0004 25.8204V25.8304ZM15.0004 11.1704L5.39039 17.0004L14.9904 22.8304V11.1704H15.0004Z" fill="black"/>
</svg>
