<svg width="34" height="34" viewBox="0 0 34 34" fill="none" xmlns="http://www.w3.org/2000/svg">
<path d="M5.5 12.1C4.7 12.1 4 11.4 4 10.6V7.6C4 5 6 3 8.6 3H12C12.8 3 13.5 3.7 13.5 4.5C13.5 5.3 12.8 6 12 6H8.6C7.7 6 7 6.7 7 7.6V10.7C7 11.5 6.3 12.1 5.5 12.1Z" fill="black"/>
<path d="M28.5 12.1C27.7 12.1 27 11.4 27 10.6V7.6C27 6.7 26.3 6 25.4 6H22C21.2 6 20.5 5.3 20.5 4.5C20.5 3.7 21.2 3 22 3H25.4C28 3 30 5 30 7.6V10.7C30 11.5 29.3 12.1 28.5 12.1Z" fill="black"/>
<path d="M12 31H8.6C6 31 4 29 4 26.4V23.3C4 22.5 4.7 21.8 5.5 21.8C6.3 21.8 7 22.5 7 23.4V26.5C7 27.3 7.7 28 8.6 28H12C12.8 28 13.5 28.7 13.5 29.5C13.5 30.3 12.8 31 12 31Z" fill="black"/>
<path d="M25.4 31H22C21.2 31 20.5 30.3 20.5 29.5C20.5 28.7 21.2 28 22 28H25.4C26.3 28 27 27.3 27 26.4V23.3C27 22.5 27.7 21.8 28.5 21.8C29.3 21.8 30 22.5 30 23.3V26.4C30 29 28 31 25.4 31Z" fill="black"/>
<path d="M31.5 18.5H2.5C1.7 18.5 1 17.8 1 17C1 16.2 1.7 15.5 2.5 15.5H31.5C32.3 15.5 33 16.2 33 17C33 17.8 32.3 18.5 31.5 18.5Z" fill="black"/>
</svg>
