<svg width="34" height="34" viewBox="0 0 34 34" fill="none" xmlns="http://www.w3.org/2000/svg">
<path d="M13.8 26.6C6.7 26.6 1 20.8 1 13.8C1 6.8 6.7 1 13.8 1C20.9 1 26.6 6.7 26.6 13.8C26.6 20.9 20.8 26.6 13.8 26.6ZM13.8 4C8.4 4 4 8.4 4 13.8C4 19.2 8.4 23.6 13.8 23.6C19.2 23.6 23.6 19.2 23.6 13.8C23.6 8.4 19.2 4 13.8 4Z" fill="black"/>
<path d="M31.5 33C31.1 33 30.7 32.9 30.4 32.6L24.2 26.4C23.6 25.8 23.6 24.9 24.2 24.3C24.8 23.7 25.7 23.7 26.3 24.3L32.5 30.5C33.1 31.1 33.1 32 32.5 32.6C32.3 32.9 31.9 33 31.5 33Z" fill="black"/>
</svg>
