<svg width="34" height="34" viewBox="0 0 34 34" fill="none" xmlns="http://www.w3.org/2000/svg">
<path d="M18.7 33H15.3C14 33 12.9 32.1 12.6 30.9L11.9 28.3C11.1 28 10.4 27.5 9.7 27.1L7.1 27.8C6 28.1 4.6 27.6 4 26.5L2.3 23.5C1.7 22.4 1.9 21 2.8 20.1L4.7 18.2C4.7 17.8 4.6 17.4 4.6 17C4.6 16.6 4.6 16.2 4.7 15.8L2.8 13.9C1.9 13 1.7 11.6 2.3 10.5L4 7.5C4.6 6.4 6 5.9 7.2 6.2L9.8 7C10.5 6.5 11.2 6.1 12 5.8L12.7 3.2C12.9 1.9 14 1 15.3 1H18.7C20 1 21.1 1.9 21.4 3.1L22.1 5.7C22.9 6 23.6 6.5 24.3 6.9L26.9 6.2C28 5.9 29.4 6.4 30 7.5L31.7 10.5C32.3 11.6 32.1 13 31.2 13.9L29.3 15.8C29.3 16.2 29.4 16.6 29.4 17C29.4 17.4 29.4 17.8 29.3 18.2L31.2 20.1C32.1 21 32.3 22.4 31.7 23.5L30 26.5C29.4 27.6 28 28.1 26.8 27.8L24.2 27C23.5 27.5 22.8 27.9 22 28.2L21.3 30.8C21.1 32.1 20 33 18.7 33ZM15.5 30H18.6L19.4 26.8C19.5 26.3 19.9 25.9 20.3 25.8C21.3 25.4 22.2 24.9 23 24.3C23.4 24 23.9 23.9 24.4 24L27.5 24.9L29 22.2L26.6 19.9C26.2 19.6 26.1 19.1 26.2 18.6C26.3 18 26.3 17.5 26.3 17C26.3 16.5 26.3 16 26.2 15.4C26.1 14.9 26.3 14.4 26.6 14.1L29 11.8L27.5 9.1L24.4 10C23.9 10.1 23.4 10 23 9.7C22.2 9 21.3 8.5 20.3 8.2C19.8 8 19.5 7.6 19.4 7.2L18.5 4H15.4L14.6 7.2C14.5 7.7 14.1 8.1 13.7 8.2C12.7 8.6 11.8 9.1 11 9.7C10.6 10 10.1 10.1 9.6 10L6.5 9.2L5 11.8L7.4 14.1C7.8 14.4 7.9 14.9 7.8 15.4C7.7 16 7.6 16.5 7.6 17C7.6 17.5 7.6 18 7.7 18.6C7.8 19.1 7.6 19.6 7.3 19.9L5 22.2L6.5 24.9L9.6 24C10.1 23.9 10.6 24 11 24.3C11.8 25 12.7 25.5 13.7 25.8C14.2 26 14.5 26.4 14.6 26.8L15.5 30Z" fill="black"/>
<path d="M17 12C19.7614 12 22 14.2386 22 17C22 19.7614 19.7614 22 17 22C14.2386 22 12 19.7614 12 17C12 14.2386 14.2386 12 17 12ZM17 15C15.8954 15 15 15.8954 15 17C15 18.1046 15.8954 19 17 19C18.1046 19 19 18.1046 19 17C19 15.8954 18.1046 15 17 15Z" fill="black"/>
</svg>
