<svg width="34" height="34" viewBox="0 0 34 34" fill="none" xmlns="http://www.w3.org/2000/svg">
<path d="M2.50039 30C2.20039 30 1.90039 29.9 1.70039 29.8C1.10039 29.4 0.900391 28.7 1.10039 28.1C3.70039 19.8 10.7004 13.4 19.2004 11.7V5.49999C19.2004 4.89999 19.6004 4.29999 20.1004 4.09999C20.7004 3.89999 21.3004 3.99999 21.7004 4.49999L32.5004 15.7C33.1004 16.3 33.1004 17.2 32.5004 17.8L21.8004 29.1C21.4004 29.5 20.7004 29.7 20.2004 29.5C19.6004 29.3 19.3004 28.7 19.3004 28.1V22.5C19.2004 22.5 19.1004 22.5 19.0004 22.5C13.3004 22.5 7.90039 24.9 4.00039 29.2L3.90039 29.3C3.80039 29.4 3.80039 29.4 3.70039 29.5L3.60039 29.6C3.20039 29.8 2.90039 30 2.50039 30Z" fill="black"/>
</svg>
