<svg width="34" height="34" viewBox="0 0 34 34" fill="none" xmlns="http://www.w3.org/2000/svg">
<path d="M16.9991 24.999C16.0507 24.999 15.2852 24.2334 15.2852 23.285V2.71762C15.2852 2.02061 15.7079 1.40359 16.3478 1.12936C16.9877 0.86655 17.7304 1.01509 18.2103 1.50642L24.2091 7.50525C24.8833 8.1794 24.8833 9.26491 24.2091 9.92764C23.535 10.5904 22.4495 10.6018 21.7867 9.92764L18.7131 6.85395V23.285C18.7131 24.2334 17.9475 24.999 16.9991 24.999Z" fill="black"/>
<path d="M11.0005 10.4296C10.5663 10.4296 10.1207 10.2582 9.78931 9.92685C9.11515 9.2527 9.11515 8.16717 9.78931 7.50444L15.7881 1.50562C16.4623 0.831462 17.5478 0.831462 18.2105 1.50562C18.8732 2.17977 18.8847 3.26527 18.2105 3.928L12.2117 9.92685C11.8803 10.2582 11.4347 10.4296 11.0005 10.4296Z" fill="black"/>
<path d="M25.706 32.9971H8.30367C4.2816 32.9971 1.01367 29.7292 1.01367 25.7071V20.9995C1.01367 20.0511 1.77924 19.2855 2.72762 19.2855C3.67601 19.2855 4.44157 20.0511 4.44157 20.9995V25.7071C4.44157 27.8438 6.17837 29.5692 8.30367 29.5692H25.706C27.8427 29.5692 29.5681 27.8324 29.5681 25.7071V20.9995C29.5681 20.0511 30.3337 19.2855 31.2821 19.2855C32.2304 19.2855 32.996 20.0511 32.996 20.9995V25.7071C32.996 29.7292 29.7281 32.9971 25.706 32.9971Z" fill="black"/>
</svg>
