<svg width="34" height="34" viewBox="0 0 34 34" fill="none" xmlns="http://www.w3.org/2000/svg">
<path d="M27.0005 16.4988C26.6205 16.4988 26.2305 16.3488 25.9405 16.0588C25.3505 15.4688 25.3505 14.5188 25.9405 13.9388L29.3805 10.4988L25.9405 7.05876C25.3505 6.46876 25.3505 5.51876 25.9405 4.93876C26.5305 4.35876 27.4805 4.34876 28.0605 4.93876L32.5605 9.43876C33.1505 10.0288 33.1505 10.9788 32.5605 11.5588L28.0605 16.0588C27.7705 16.3488 27.3805 16.4988 27.0005 16.4988Z" fill="black"/>
<path d="M27.0005 31.4988C26.6205 31.4988 26.2305 31.3488 25.9405 31.0588C25.3505 30.4688 25.3505 29.5188 25.9405 28.9388L29.3805 25.4988L25.9405 22.0588C25.3505 21.4688 25.3505 20.5188 25.9405 19.9388C26.5305 19.3588 27.4805 19.3488 28.0605 19.9388L32.5605 24.4388C33.1505 25.0288 33.1505 25.9788 32.5605 26.5588L28.0605 31.0588C27.7705 31.3488 27.3805 31.4988 27.0005 31.4988Z" fill="black"/>
<path d="M31.5 26.9983H23.13C20.93 26.9983 18.87 25.9183 17.62 24.0983L10.4 13.5883C9.71 12.5883 8.58 11.9883 7.37 11.9883H2.5C1.67 11.9883 1 11.3183 1 10.4883C1 9.65828 1.67 8.98828 2.5 8.98828H7.37C9.57 8.98828 11.63 10.0683 12.88 11.8883L20.1 22.3983C20.79 23.3983 21.92 23.9983 23.13 23.9983H31.5C32.33 23.9983 33 24.6683 33 25.4983C33 26.3283 32.33 26.9983 31.5 26.9983Z" fill="black"/>
<path d="M7.37 26.999H2.5C1.67 26.999 1 26.329 1 25.499C1 24.669 1.67 23.999 2.5 23.999H7.37C8.58 23.999 9.72 23.399 10.4 22.399L11.44 20.879C11.91 20.199 12.84 20.019 13.53 20.489C14.21 20.959 14.39 21.889 13.92 22.579L12.88 24.099C11.63 25.909 9.58 26.999 7.37 26.999Z" fill="black"/>
<path d="M17.8501 15.72C17.5601 15.72 17.2601 15.64 17.0001 15.46C16.3201 14.99 16.1401 14.06 16.6101 13.37L17.6201 11.9C18.8701 10.09 20.9301 9 23.1301 9H31.5001C32.3301 9 33.0001 9.67 33.0001 10.5C33.0001 11.33 32.3301 12 31.5001 12H23.1301C21.9201 12 20.7801 12.6 20.1001 13.6L19.0901 15.07C18.8001 15.49 18.3301 15.72 17.8501 15.72Z" fill="black"/>
</svg>
