<svg width="34" height="34" viewBox="0 0 34 34" fill="none" xmlns="http://www.w3.org/2000/svg">
<path d="M17 1C8.18 1 1 8.18 1 17C1 25.82 8.18 33 17 33C25.82 33 33 25.82 33 17C33 8.18 25.82 1 17 1ZM24.5 23.5C24.5 24.05 24.2 24.56 23.72 24.82C23.5 24.94 23.25 25 23 25C22.71 25 22.43 24.92 22.18 24.76L12.5 18.47V23.51C12.5 24.34 11.83 25.01 11 25.01C10.17 25.01 9.5 24.34 9.5 23.51V10.51C9.5 9.68 10.17 9.01 11 9.01C11.83 9.01 12.5 9.68 12.5 10.51V15.55L22.18 9.26C22.64 8.96 23.23 8.94 23.71 9.2C24.19 9.46 24.49 9.97 24.49 10.52V23.52L24.5 23.5Z" fill="black"/>
</svg>
