<svg width="34" height="34" viewBox="0 0 34 34" fill="none" xmlns="http://www.w3.org/2000/svg">
<path fill-rule="evenodd" clip-rule="evenodd" d="M15.5 2.19922V9.22922L20.26 5.70922L15.5 2.19922Z" fill="black"/>
<path d="M15.5 10.7312C15.27 10.7312 15.04 10.6812 14.82 10.5712C14.31 10.3212 14 9.80118 14 9.23118V2.20118C14 1.63118 14.32 1.12118 14.82 0.861179C15.33 0.601179 15.93 0.661179 16.39 0.991179L21.15 4.50118C21.53 4.78118 21.76 5.23118 21.76 5.71118C21.76 6.19118 21.53 6.63118 21.15 6.92118L16.39 10.4312C16.13 10.6212 15.81 10.7212 15.5 10.7212V10.7312ZM17 5.17118V6.25118L17.73 5.71118L17 5.17118Z" fill="black"/>
<path d="M17 32C9.28 32 3 25.72 3 18C3 10.28 9.28 4 17 4C17.83 4 18.5 4.67 18.5 5.5C18.5 6.33 17.83 7 17 7C10.93 7 6 11.93 6 18C6 24.07 10.93 29 17 29C23.07 29 28 24.07 28 18C28 14.52 26.41 11.32 23.63 9.22C22.97 8.72 22.84 7.78 23.34 7.12C23.84 6.46 24.78 6.33 25.44 6.83C28.97 9.5 31 13.58 31 18C31 25.72 24.72 32 17 32Z" fill="black"/>
<path d="M20.5 24C18.02 24 16 21.76 16 19C16 16.24 18.02 14 20.5 14C22.98 14 25 16.24 25 19C25 21.76 22.98 24 20.5 24ZM20.5 17C19.69 17 19 17.92 19 19C19 20.08 19.69 21 20.5 21C21.31 21 22 20.08 22 19C22 17.92 21.31 17 20.5 17Z" fill="black"/>
<path d="M12.5 24C11.67 24 11 23.33 11 22.5V15.5C11 14.67 11.67 14 12.5 14C13.33 14 14 14.67 14 15.5V22.5C14 23.33 13.33 24 12.5 24Z" fill="black"/>
<path d="M10.4993 19.0012C10.0193 19.0012 9.53929 18.7712 9.24929 18.3312C8.78929 17.6412 8.97929 16.7112 9.66929 16.2512L11.1693 15.2512C11.8593 14.7912 12.7893 14.9812 13.2493 15.6712C13.7093 16.3612 13.5193 17.2912 12.8293 17.7512L11.3293 18.7512C11.0693 18.9212 10.7893 19.0012 10.4993 19.0012Z" fill="black"/>
</svg>
