<svg width="34" height="34" viewBox="0 0 34 34" fill="none" xmlns="http://www.w3.org/2000/svg">
<path d="M17 1C8.18 1 1 8.18 1 17C1 25.82 8.18 33 17 33C25.82 33 33 25.82 33 17C33 8.18 25.82 1 17 1ZM24.5 23.5C24.5 24.33 23.83 25 23 25C22.17 25 21.5 24.33 21.5 23.5V18.46L11.82 24.75C11.57 24.91 11.29 24.99 11 24.99C10.75 24.99 10.51 24.93 10.28 24.81C9.8 24.55 9.5 24.04 9.5 23.49V10.49C9.5 9.94 9.8 9.43 10.28 9.17C10.76 8.91 11.35 8.93 11.81 9.23L21.49 15.52V10.48C21.49 9.65 22.16 8.98 22.99 8.98C23.82 8.98 24.49 9.65 24.49 10.48V23.48L24.5 23.5Z" fill="black"/>
</svg>
