<svg width="34" height="34" viewBox="0 0 34 34" fill="none" xmlns="http://www.w3.org/2000/svg">
<path d="M30.5501 33.4996C30.1101 33.4996 29.6701 33.3796 29.2801 33.1496C29.2501 33.1296 29.2201 33.1096 29.2001 33.0996L8.92008 19.0196C8.27008 18.6396 7.83008 17.8696 7.83008 17.0296C7.83008 16.1896 8.27008 15.4196 9.00008 14.9796L29.2401 1.87956C30.0501 1.39956 31.0101 1.37956 31.7801 1.81956C32.5501 2.24956 33.0001 3.02956 33.0001 3.89956V31.0996C33.0001 31.9696 32.5401 32.7396 31.7801 33.1796C31.4001 33.3896 30.9801 33.4996 30.5601 33.4996H30.5501ZM11.3201 17.0396L30.0001 29.9996V4.95956L11.3201 17.0396ZM10.6001 17.5096H10.5801C10.5801 17.5096 10.5901 17.5096 10.6001 17.5096ZM10.5401 16.4996L10.6001 16.5396C10.6001 16.5396 10.5601 16.5096 10.5401 16.4996Z" fill="black"/>
<path d="M7.38023 33H3.44023C2.09023 33 0.990234 31.9 0.990234 30.55V3.45C0.990234 2.1 2.09023 1 3.44023 1H7.38023C8.73023 1 9.83023 2.1 9.83023 3.45V30.56C9.83023 31.91 8.73023 33.01 7.38023 33.01V33ZM4.00023 30H6.83023V4H4.00023V30Z" fill="black"/>
</svg>
