<svg width="34" height="34" viewBox="0 0 34 34" fill="none" xmlns="http://www.w3.org/2000/svg">
<path d="M31.7802 1.82C31.0002 1.38 30.0502 1.39 29.2402 1.88L9.83023 14.44V3.45C9.83023 2.1 8.73023 1 7.38023 1H3.44023C2.09023 1 0.990234 2.1 0.990234 3.45V30.56C0.990234 31.91 2.09023 33.01 3.44023 33.01H7.38023C8.73023 33.01 9.83023 31.91 9.83023 30.56V19.66L29.2002 33.1C29.2002 33.1 29.2602 33.14 29.2802 33.15C29.6702 33.38 30.1102 33.5 30.5502 33.5C30.9902 33.5 31.3902 33.39 31.7702 33.18C32.5402 32.75 32.9902 31.97 32.9902 31.1V3.9C32.9902 3.03 32.5302 2.26 31.7702 1.82H31.7802Z" fill="black"/>
</svg>
