<svg width="34" height="34" viewBox="0 0 34 34" fill="none" xmlns="http://www.w3.org/2000/svg">
<path d="M3.44977 33.4988C3.02977 33.4988 2.60977 33.3888 2.22977 33.1788C1.45977 32.7488 1.00977 31.9688 1.00977 31.0988V3.89876C1.00977 3.02876 1.46977 2.25876 2.22977 1.81876C3.00977 1.37876 3.95977 1.38876 4.72977 1.84876L25.0598 14.9988C25.7498 15.4088 26.1898 16.1788 26.1898 17.0188C26.1898 17.8588 25.7498 18.6288 25.0198 19.0688L4.81977 33.0888C4.81977 33.0888 4.75977 33.1288 4.73977 33.1388C4.34977 33.3688 3.90977 33.4888 3.46977 33.4888L3.44977 33.4988ZM3.99977 4.95876V29.9988L22.6698 17.0388L3.99977 4.95876ZM23.4298 17.5288C23.4298 17.5288 23.4498 17.5388 23.4598 17.5488L23.4298 17.5288ZM23.3798 16.5488C23.3798 16.5488 23.3598 16.5588 23.3598 16.5688L23.3798 16.5488Z" fill="black"/>
<path d="M30.5502 33H26.6102C25.2602 33 24.1602 31.9 24.1602 30.55V3.45C24.1602 2.1 25.2602 1 26.6102 1H30.5502C31.9002 1 33.0002 2.1 33.0002 3.45V30.56C33.0002 31.91 31.9002 33.01 30.5502 33.01V33ZM27.1702 30H30.0002V4H27.1702V30Z" fill="black"/>
</svg>
