<svg width="34" height="34" viewBox="0 0 34 34" fill="none" xmlns="http://www.w3.org/2000/svg">
<path fill-rule="evenodd" clip-rule="evenodd" d="M18.5002 2.19922V9.22922L13.7402 5.70922L18.5002 2.19922Z" fill="black"/>
<path d="M18.5002 10.7282C18.1902 10.7282 17.8702 10.6282 17.6102 10.4382L12.8502 6.92818C12.4702 6.64818 12.2402 6.19818 12.2402 5.71818C12.2402 5.23818 12.4702 4.79818 12.8502 4.50818L17.6102 0.998179C18.0702 0.658179 18.6702 0.608179 19.1802 0.868179C19.6902 1.11818 20.0002 1.63818 20.0002 2.20818V9.23818C20.0002 9.80818 19.6802 10.3182 19.1802 10.5782C18.9702 10.6882 18.7302 10.7382 18.5002 10.7382V10.7282ZM16.2702 5.70818L17.0002 6.24818V5.16818L16.2702 5.70818Z" fill="black"/>
<path d="M17 32C9.28 32 3 25.72 3 18C3 13.58 5.03 9.5 8.56 6.83C9.22 6.33 10.16 6.46 10.66 7.12C11.16 7.78 11.03 8.72 10.37 9.22C7.59 11.32 6 14.52 6 18C6 24.07 10.93 29 17 29C23.07 29 28 24.07 28 18C28 11.93 23.07 7 17 7C16.17 7 15.5 6.33 15.5 5.5C15.5 4.67 16.17 4 17 4C24.72 4 31 10.28 31 18C31 25.72 24.72 32 17 32Z" fill="black"/>
<path d="M20.5 24C18.02 24 16 21.76 16 19C16 16.24 18.02 14 20.5 14C22.98 14 25 16.24 25 19C25 21.76 22.98 24 20.5 24ZM20.5 17C19.69 17 19 17.92 19 19C19 20.08 19.69 21 20.5 21C21.31 21 22 20.08 22 19C22 17.92 21.31 17 20.5 17Z" fill="black"/>
<path d="M12.5 24C11.67 24 11 23.33 11 22.5V15.5C11 14.67 11.67 14 12.5 14C13.33 14 14 14.67 14 15.5V22.5C14 23.33 13.33 24 12.5 24Z" fill="black"/>
<path d="M10.4993 19.0012C10.0193 19.0012 9.53929 18.7712 9.24929 18.3312C8.78929 17.6412 8.97929 16.7112 9.66929 16.2512L11.1693 15.2512C11.8593 14.7912 12.7893 14.9812 13.2493 15.6712C13.7093 16.3612 13.5193 17.2912 12.8293 17.7512L11.3293 18.7512C11.0693 18.9212 10.7893 19.0012 10.4993 19.0012Z" fill="black"/>
</svg>
