<svg width="34" height="34" viewBox="0 0 34 34" fill="none" xmlns="http://www.w3.org/2000/svg">
<path d="M18.5 31.2998C18.5 31.6998 18.2002 32 17.7002 32H16.2002C15.8003 31.9999 15.4005 31.7 15.4004 31.2002V25.0996H18.5V31.2998ZM17.7002 2C18.1001 2 18.4999 2.29992 18.5 2.7998V22H15.4004V2.7998C15.4005 2.39992 15.7004 2.0001 16.2002 2H17.7002Z" fill="black"/>
<path fill-rule="evenodd" clip-rule="evenodd" d="M22.75 12.3L22.75 10.8C22.75 10.4 23.05 10 23.55 10L29.95 10C30.45 10.1 30.75 10.4 30.75 10.8L30.75 12.3C30.75 12.7 30.45 13.1 29.95 13.1L23.45 13.1C23.05 13.1 22.75 12.7 22.75 12.3Z" fill="black"/>
<path d="M28.2998 31.2998C28.2998 31.6998 27.9 32 27.5 32H26C25.6001 31.9999 25.2003 31.7 25.2002 31.2002V11.0996H28.2998V31.2998ZM27.5 2C27.8999 2 28.2997 2.29992 28.2998 2.7998V8H25.2002V2.7998C25.3002 2.3 25.6001 2.0001 26 2H27.5Z" fill="black"/>
<path fill-rule="evenodd" clip-rule="evenodd" d="M3.2002 15.3L3.2002 13.8C3.2002 13.4 3.50019 13 4.00019 13L10.4002 13C10.9002 13.1 11.2002 13.4 11.2002 13.8L11.2002 15.3C11.2002 15.7 10.9002 16.1 10.4002 16.1L3.9002 16.1C3.5002 16.1 3.2002 15.7 3.2002 15.3Z" fill="black"/>
<path d="M8.7998 31.2002C8.7997 31.7001 8.39995 32 8 32H6.5C6.10007 31.9999 5.7002 31.6997 5.7002 31.2998V14.0996H8.7998V31.2002ZM8 2C8.39993 2 8.69975 2.29996 8.7998 2.7998V11H5.7002V2.7998C5.7003 2.3 6.10012 2.0001 6.5 2H8Z" fill="black"/>
<path fill-rule="evenodd" clip-rule="evenodd" d="M13 22.3L13 20.8C13 20.4 13.3 20 13.8 20L20.2 20C20.7 20.1 21 20.4 21 20.8L21 22.3C21 22.7 20.7 23.1 20.2 23.1L13.7 23.1C13.3 23.1 13 22.7 13 22.3Z" fill="black"/>
</svg>
