<svg width="34" height="34" viewBox="0 0 34 34" fill="none" xmlns="http://www.w3.org/2000/svg">
<path d="M2.5 19.5C1.67 19.5 1 18.83 1 18V16C1 15.17 1.67 14.5 2.5 14.5C3.33 14.5 4 15.17 4 16V18C4 18.83 3.33 19.5 2.5 19.5Z" fill="black"/>
<path d="M8.30078 26.5C7.47078 26.5 6.80078 25.83 6.80078 25V9C6.80078 8.17 7.47078 7.5 8.30078 7.5C9.13078 7.5 9.80078 8.17 9.80078 9V25C9.80078 25.83 9.13078 26.5 8.30078 26.5Z" fill="black"/>
<path d="M14.0996 23.5C13.2696 23.5 12.5996 22.83 12.5996 22V12C12.5996 11.17 13.2696 10.5 14.0996 10.5C14.9296 10.5 15.5996 11.17 15.5996 12V22C15.5996 22.83 14.9296 23.5 14.0996 23.5Z" fill="black"/>
<path d="M19.9004 29.5C19.0704 29.5 18.4004 28.83 18.4004 28V6C18.4004 5.17 19.0704 4.5 19.9004 4.5C20.7304 4.5 21.4004 5.17 21.4004 6V28C21.4004 28.83 20.7304 29.5 19.9004 29.5Z" fill="black"/>
<path d="M25.6992 23.5C24.8692 23.5 24.1992 22.83 24.1992 22V12C24.1992 11.17 24.8692 10.5 25.6992 10.5C26.5292 10.5 27.1992 11.17 27.1992 12V22C27.1992 22.83 26.5292 23.5 25.6992 23.5Z" fill="black"/>
<path d="M31.5 19.5C30.67 19.5 30 18.83 30 18V16C30 15.17 30.67 14.5 31.5 14.5C32.33 14.5 33 15.17 33 16V18C33 18.83 32.33 19.5 31.5 19.5Z" fill="black"/>
</svg>
