<svg width="34" height="34" viewBox="0 0 34 34" fill="none" xmlns="http://www.w3.org/2000/svg">
<path d="M16.5005 19.9988C16.1205 19.9988 15.7305 19.8488 15.4405 19.5588L5.69055 9.80876C5.10055 9.21876 5.10055 8.26876 5.69055 7.68876C6.28055 7.10876 7.23055 7.09876 7.81055 7.68876L17.5605 17.4388C18.1505 18.0288 18.1505 18.9788 17.5605 19.5588C17.2705 19.8488 16.8805 19.9988 16.5005 19.9988Z" fill="black"/>
<path d="M6.5 20.5H2.5C1.67 20.5 1 19.83 1 19C1 18.17 1.67 17.5 2.5 17.5H6.5C7.33 17.5 8 18.17 8 19C8 19.83 7.33 20.5 6.5 20.5Z" fill="black"/>
<path d="M31.5 20.5H27.5C26.67 20.5 26 19.83 26 19C26 18.17 26.67 17.5 27.5 17.5H31.5C32.33 17.5 33 18.17 33 19C33 19.83 32.33 20.5 31.5 20.5Z" fill="black"/>
<path d="M9.58055 13.0788C9.20055 13.0788 8.81055 12.9288 8.52055 12.6388L5.69055 9.80876C5.10055 9.21876 5.10055 8.26876 5.69055 7.68876C6.28055 7.10876 7.23055 7.09876 7.81055 7.68876L10.6405 10.5188C11.2305 11.1088 11.2305 12.0588 10.6405 12.6388C10.3505 12.9288 9.96055 13.0788 9.58055 13.0788Z" fill="black"/>
<path d="M27.2505 30.7506C26.8705 30.7506 26.4805 30.6006 26.1905 30.3106L23.3605 27.4806C22.7705 26.8906 22.7705 25.9406 23.3605 25.3606C23.9505 24.7806 24.9005 24.7706 25.4805 25.3606L28.3105 28.1906C28.9005 28.7806 28.9005 29.7306 28.3105 30.3106C28.0205 30.6006 27.6305 30.7506 27.2505 30.7506Z" fill="black"/>
<path d="M17 10C16.17 10 15.5 9.33 15.5 8.5V4.5C15.5 3.67 16.17 3 17 3C17.83 3 18.5 3.67 18.5 4.5V8.5C18.5 9.33 17.83 10 17 10Z" fill="black"/>
<path d="M24.4205 13.0786C24.0405 13.0786 23.6505 12.9286 23.3605 12.6386C22.7705 12.0486 22.7705 11.0986 23.3605 10.5186L26.1905 7.68859C26.7805 7.09859 27.7305 7.09859 28.3105 7.68859C28.8905 8.27859 28.9005 9.22859 28.3105 9.80859L25.4805 12.6386C25.1905 12.9286 24.8005 13.0786 24.4205 13.0786Z" fill="black"/>
<path d="M6.75055 30.7505C6.37055 30.7505 5.98055 30.6005 5.69055 30.3105C5.10055 29.7205 5.10055 28.7705 5.69055 28.1905L8.52055 25.3605C9.11055 24.7705 10.0605 24.7705 10.6405 25.3605C11.2205 25.9505 11.2305 26.9005 10.6405 27.4805L7.81055 30.3105C7.52055 30.6005 7.13055 30.7505 6.75055 30.7505Z" fill="black"/>
<path d="M17 21.5C18.3807 21.5 19.5 20.3807 19.5 19C19.5 17.6193 18.3807 16.5 17 16.5C15.6193 16.5 14.5 17.6193 14.5 19C14.5 20.3807 15.6193 21.5 17 21.5Z" fill="black"/>
<path d="M17 23C14.79 23 13 21.21 13 19C13 16.79 14.79 15 17 15C19.21 15 21 16.79 21 19C21 21.21 19.21 23 17 23ZM17 18C16.45 18 16 18.45 16 19C16 19.55 16.45 20 17 20C17.55 20 18 19.55 18 19C18 18.45 17.55 18 17 18Z" fill="black"/>
<path d="M5.20023 13.57L2.97023 11.34C1.72023 13.62 0.990234 16.22 0.990234 19C0.990234 23.41 2.78023 27.41 5.68023 30.31L7.80023 28.19C5.45023 25.84 3.99023 22.59 3.99023 19C3.99023 17.06 4.43023 15.22 5.19023 13.57H5.20023ZM17.0002 3C14.2202 3 11.6202 3.72 9.34023 4.98L11.5702 7.21C13.2202 6.44 15.0602 6.01 17.0002 6.01C24.1702 6.01 30.0002 11.84 30.0002 19.01C30.0002 22.59 28.5402 25.84 26.1902 28.2L28.3102 30.32C31.2102 27.42 33.0002 23.42 33.0002 19.01C33.0002 10.19 25.8202 3.01 17.0002 3.01V3Z" fill="black"/>
<path d="M15.5005 18.9988C15.1205 18.9988 14.7305 18.8488 14.4405 18.5588L4.69055 8.80876C4.10055 8.21876 4.10055 7.26876 4.69055 6.68876C5.28055 6.10876 6.23055 6.09876 6.81055 6.68876L16.5605 16.4388C17.1505 17.0288 17.1505 17.9788 16.5605 18.5588C16.2705 18.8488 15.8805 18.9988 15.5005 18.9988Z" fill="black"/>
</svg>
