<svg width="34" height="34" viewBox="0 0 34 34" fill="none" xmlns="http://www.w3.org/2000/svg">
<path d="M32.4 13.4C32.2 12.9 31.8 12.5 31.2 12.4L22.4 11L18.4 3.00001C18.1 2.50001 17.6 2.20001 17.1 2.20001C16.6 2.20001 15.9 2.50001 15.7 3.00001L11.7 11L2.90004 12.4C2.30004 12.5 1.90004 12.9 1.70004 13.4C1.50004 13.9 1.70004 14.5 2.10004 14.9L8.40004 21.2L6.90004 30C6.90004 30.6 6.90004 31.1 7.50004 31.4C8.10004 31.7 8.60004 31.8 9.10004 31.5L17 27.4L24.9 31.5C25.1 31.6 25.3 31.7 25.6 31.7C25.9 31.7 26.2 31.6 26.5 31.4C27 31.1 27.2 30.5 27.1 30L25.7 21.2L32 14.9C32.4 14.5 32.6 13.9 32.4 13.4Z" fill="black"/>
</svg>
