<svg width="34" height="34" viewBox="0 0 34 34" fill="none" xmlns="http://www.w3.org/2000/svg">
<path d="M17.1001 2.2002C17.6 2.20027 18.0999 2.50007 18.3999 3L22.3999 11L31.1997 12.4004C31.7997 12.5004 32.1999 12.9004 32.3999 13.4004C32.5997 13.9003 32.3994 14.5005 31.9995 14.9004L25.6997 21.2002L27.1001 30C27.2001 30.5 26.9995 31.1004 26.4995 31.4004C26.1997 31.6001 25.8999 31.7002 25.6001 31.7002C25.3001 31.7002 25.0999 31.6 24.8999 31.5L16.9995 27.4004L9.1001 31.5C8.6001 31.8 8.09951 31.7004 7.49951 31.4004C6.89967 31.1004 6.8999 30.5999 6.8999 30L8.3999 21.2002L2.1001 14.9004C1.7002 14.5005 1.49997 13.9003 1.69971 13.4004C1.8997 12.9004 2.29993 12.5004 2.8999 12.4004L11.6997 11L15.6997 3C15.8997 2.5 16.6001 2.2002 17.1001 2.2002ZM13.8999 13C13.6999 13.3999 13.3001 13.6997 12.8003 13.7998L6.1001 14.7998L10.8999 19.5996C11.1999 19.8996 11.4003 20.4004 11.3003 20.9004L10.1997 27.5996L16.1997 24.5C16.4995 24.4001 16.7995 24.4004 16.9995 24.4004C17.1994 24.4004 17.4997 24.4997 17.6997 24.5996L23.6997 27.7002L22.6001 21C22.5001 20.5002 22.6997 20.0002 22.9995 19.7002L27.8003 14.9004L21.1001 13.9004C20.6001 13.8004 20.1995 13.4996 19.9995 13.0996L16.9995 7L13.8999 13Z" fill="black"/>
</svg>
