<svg width="34" height="34" viewBox="0 0 34 34" fill="none" xmlns="http://www.w3.org/2000/svg">
<path d="M17 5.2C16.2 5.2 15.5 4.5 15.5 3.7V2.5C15.5 1.7 16.2 1 17 1C17.8 1 18.5 1.7 18.5 2.5V3.7C18.5 4.5 17.8 5.2 17 5.2Z" fill="black"/>
<path d="M17 33C16.2 33 15.5 32.3 15.5 31.5V30.3C15.5 29.5 16.2 28.8 17 28.8C17.8 28.8 18.5 29.5 18.5 30.3V31.5C18.5 32.3 17.8 33 17 33Z" fill="black"/>
<path d="M3.7 18.5H2.5C1.7 18.5 1 17.8 1 17C1 16.2 1.7 15.5 2.5 15.5H3.7C4.5 15.5 5.2 16.2 5.2 17C5.2 17.8 4.5 18.5 3.7 18.5Z" fill="black"/>
<path d="M31.4998 18.5H30.2998C29.4998 18.5 28.7998 17.8 28.7998 17C28.7998 16.2 29.4998 15.5 30.2998 15.5H31.4998C32.2998 15.5 32.9998 16.2 32.9998 17C32.9998 17.8 32.2998 18.5 31.4998 18.5Z" fill="black"/>
<path d="M7.6 9.1C7.2 9.1 6.8 9 6.5 8.7L5.7 7.8C5.1 7.2 5.1 6.3 5.7 5.7C6.3 5.1 7.2 5.1 7.8 5.7L8.6 6.5C9.2 7.1 9.2 8 8.6 8.6C8.3 8.9 8 9.1 7.6 9.1Z" fill="black"/>
<path d="M27.3002 28.8C26.9002 28.8 26.5002 28.7 26.2002 28.4L25.4002 27.6C24.8002 27 24.8002 26.1 25.4002 25.5C26.0002 24.9 26.9002 24.9 27.5002 25.5L28.3002 26.3C28.9002 26.9 28.9002 27.8 28.3002 28.4C28.0002 28.6 27.6002 28.8 27.3002 28.8Z" fill="black"/>
<path d="M6.70039 28.8C6.30039 28.8 5.90039 28.7 5.60039 28.4C5.00039 27.8 5.00039 26.9 5.60039 26.3L6.40039 25.5C7.00039 24.9 7.90039 24.9 8.50039 25.5C9.10039 26.1 9.10039 27 8.50039 27.6L7.70039 28.4C7.50039 28.6 7.10039 28.8 6.70039 28.8Z" fill="black"/>
<path d="M26.3996 9.09998C25.9996 9.09998 25.5996 8.99998 25.2996 8.69998C24.6996 8.09998 24.6996 7.19998 25.2996 6.59998L26.0996 5.79998C26.6996 5.19998 27.5996 5.19998 28.1996 5.79998C28.7996 6.39998 28.7996 7.29998 28.1996 7.89998L27.3996 8.69998C27.1996 8.89998 26.7996 9.09998 26.3996 9.09998Z" fill="black"/>
<path d="M17.0004 26.7C11.7004 26.7 7.40039 22.3 7.40039 17C7.40039 11.7 11.7004 7.29999 17.0004 7.29999C22.3004 7.29999 26.6004 11.7 26.6004 17C26.6004 22.3 22.3004 26.7 17.0004 26.7ZM17.0004 10.3C13.4004 10.3 10.4004 13.3 10.4004 17C10.4004 20.7 13.4004 23.7 17.0004 23.7C20.6004 23.7 23.6004 20.7 23.6004 17C23.6004 13.3 20.6004 10.3 17.0004 10.3Z" fill="black"/>
</svg>
