<svg width="34" height="34" viewBox="0 0 34 34" fill="none" xmlns="http://www.w3.org/2000/svg">
<path d="M6.8 17C6.8 16.5 6.8 16 6.9 15.5H2.5C1.7 15.5 1 16.2 1 17C1 17.8 1.7 18.5 2.5 18.5H7C6.9 18 6.8 17.5 6.8 17ZM10.7 9C11.5 8.4 12.4 7.9 13.3 7.5L11 3.7C10.6 3 9.7 2.7 9 3.2C8.3 3.6 8 4.5 8.5 5.2L10.7 9ZM3.7 11L7.6 13.2C8 12.3 8.5 11.4 9.1 10.6L5.2 8.5C4.5 8 3.6 8.3 3.1 9C2.7 9.7 3 10.6 3.7 11ZM17 1C16.2 1 15.5 1.7 15.5 2.5V6.9C16 6.8 16.5 6.8 17 6.8C17.5 6.8 18 6.9 18.5 6.9V2.5C18.5 1.7 17.8 1 17 1ZM25.5 5.2C25.9 4.5 25.7 3.6 25 3.2C24.3 2.8 23.4 3 23 3.7L20.8 7.5C21.7 7.9 22.6 8.4 23.4 9L25.5 5.2ZM26.4 13.3L30.3 11.1C31 10.7 31.3 9.8 30.8 9.1C30.4 8.4 29.5 8.1 28.8 8.6L25 10.7C25.6 11.5 26.1 12.3 26.4 13.3ZM15.5 27.1V31.5C15.5 32.3 16.2 33 17 33C17.8 33 18.5 32.3 18.5 31.5V27.1C18 27.2 17.5 27.2 17 27.2C16.5 27.2 16 27.1 15.5 27.1ZM7.6 20.7L3.7 23C3 23.4 2.7 24.3 3.2 25C3.5 25.5 4 25.8 4.5 25.8C4.8 25.8 5 25.7 5.2 25.6L9 23.3C8.4 22.5 7.9 21.7 7.6 20.7ZM31.5 15.5H27C27.1 16 27.1 16.5 27.1 17C27.1 17.5 27.1 18 27 18.5H31.5C32.3 18.5 33 17.8 33 17C33 16.2 32.3 15.5 31.5 15.5ZM30.3 23L26.4 20.8C26 21.7 25.5 22.6 24.9 23.4L28.8 25.6C29 25.7 29.3 25.8 29.5 25.8C30 25.8 30.5 25.5 30.8 25C31.3 24.3 31 23.4 30.3 23ZM8.5 28.8C8.1 29.5 8.3 30.4 9 30.8C9.2 30.9 9.5 31 9.7 31C10.2 31 10.7 30.7 11 30.2L13.2 26.4C12.3 26 11.4 25.5 10.6 24.9L8.5 28.8ZM23.3 25C22.5 25.6 21.6 26.1 20.7 26.5L22.9 30.3C23.2 30.8 23.7 31.1 24.2 31.1C24.5 31.1 24.7 31 24.9 30.9C25.6 30.5 25.9 29.6 25.4 28.9L23.3 25Z" fill="black"/>
<path d="M16.9998 28.7C10.5998 28.7 5.2998 23.5 5.2998 17C5.2998 10.5 10.5998 5.29999 16.9998 5.29999C23.3998 5.29999 28.6998 10.6 28.6998 17C28.6998 23.4 23.3998 28.7 16.9998 28.7ZM16.9998 8.29999C12.1998 8.29999 8.2998 12.2 8.2998 17C8.2998 21.8 12.1998 25.7 16.9998 25.7C21.7998 25.7 25.6998 21.8 25.6998 17C25.6998 12.2 21.7998 8.29999 16.9998 8.29999Z" fill="black"/>
</svg>
