<svg width="34" height="34" viewBox="0 0 34 34" fill="none" xmlns="http://www.w3.org/2000/svg">
<path fill-rule="evenodd" clip-rule="evenodd" d="M17.7993 1.49998L19.0993 4.19998L21.9993 4.59998C22.6993 4.69998 22.9993 5.49998 22.4993 5.99998L20.3993 8.09998L20.8993 11C20.9993 11.7 20.2993 12.2 19.6993 11.9L16.9993 10.5L14.3993 11.9C13.7993 12.2 13.0993 11.7 13.1993 11L13.6993 8.09998L11.4993 5.99998C10.9993 5.49998 11.2993 4.69998 11.9993 4.59998L14.8993 4.19998L16.1993 1.49998C16.5993 0.799976 17.3993 0.799976 17.7993 1.49998Z" fill="black"/>
<path fill-rule="evenodd" clip-rule="evenodd" d="M6.29975 10.4L8.29975 12.6L11.2997 12.3C11.9997 12.2 12.4997 13 12.0997 13.6L10.5997 16.2L11.7997 18.9C12.0997 19.5 11.4997 20.2 10.8997 20.1L7.99975 19.4L5.79975 21.4C5.29975 21.9 4.49975 21.6 4.39975 20.9L4.09975 17.9L1.49975 16.4C0.899745 16.1 0.899745 15.2 1.59975 14.9L4.29975 13.7L4.89975 10.8C4.99975 10.1 5.79975 9.89997 6.29975 10.4Z" fill="black"/>
<path d="M17 33C16.2 33 15.5 32.3 15.5 31.5V14.5C15.5 13.7 16.2 13 17 13C17.8 13 18.5 13.7 18.5 14.5V31.5C18.5 32.3 17.8 33 17 33Z" fill="black"/>
<path d="M10.8997 33C10.0997 33 9.39972 32.3 9.39972 31.5C9.39972 26.6 8.59972 24.9 8.09972 23.9L7.99972 23.7C7.59972 23 7.99972 22.1 8.69972 21.7C9.39972 21.3 10.2997 21.7 10.6997 22.4L10.7997 22.6C11.3997 23.8 12.3997 26 12.3997 31.5C12.3997 32.3 11.6997 33 10.8997 33Z" fill="black"/>
<path fill-rule="evenodd" clip-rule="evenodd" d="M27.7 10.3999L25.7 12.5999L22.7 12.2999C22 12.1999 21.5 12.9999 21.9 13.5999L23.4 16.1999L22.2 18.8999C21.9 19.4999 22.5 20.1999 23.1 20.0999L26 19.3999L28.2 21.3999C28.7 21.8999 29.5 21.5999 29.6 20.8999L29.9 17.8999L32.5 16.3999C33.1 16.0999 33.1 15.1999 32.4 14.8999L29.7 13.6999L29.1 10.7999C29 10.0999 28.2 9.89994 27.7 10.3999Z" fill="black"/>
<path d="M23.0996 33C22.2996 33 21.5996 32.3 21.5996 31.5C21.5996 25.9 22.6996 23.7 23.1996 22.6L23.2996 22.4C23.6996 21.7 24.5996 21.3 25.2996 21.7C25.9996 22.1 26.3996 23 25.9996 23.7V23.9C25.4996 24.9 24.6996 26.6 24.6996 31.5C24.5996 32.3 23.9996 33 23.0996 33Z" fill="black"/>
</svg>
