<svg width="34" height="34" viewBox="0 0 34 34" fill="none" xmlns="http://www.w3.org/2000/svg">
<path d="M27.5 33H6.5C3.5 33 1 30.5 1 27.5V6.5C1 3.5 3.5 1 6.5 1H27.4C30.5 1 33 3.5 33 6.5V27.4C33 30.5 30.5 33 27.5 33ZM6.5 4C5.1 4 4 5.1 4 6.5V27.4C4 28.9 5.1 30 6.5 30H27.4C28.8 30 29.9 28.9 29.9 27.5V6.5C30 5.1 28.9 4 27.5 4H6.5Z" fill="black"/>
<path d="M11.5 26C13.433 26 15 24.433 15 22.5C15 20.567 13.433 19 11.5 19C9.567 19 8 20.567 8 22.5C8 24.433 9.567 26 11.5 26Z" fill="black"/>
<path d="M22.5 15C24.433 15 26 13.433 26 11.5C26 9.567 24.433 8 22.5 8C20.567 8 19 9.567 19 11.5C19 13.433 20.567 15 22.5 15Z" fill="black"/>
</svg>
