<svg width="34" height="34" viewBox="0 0 34 34" fill="none" xmlns="http://www.w3.org/2000/svg">
<path d="M14.6 33C7.1 33 1 26.9 1 19.4C1 11.9 7.1 5.79999 14.6 5.79999C15.6 5.79999 16.6 5.89999 17.6 6.09999C18.4 6.29999 18.9 7.09999 18.7 7.89999C18.5 8.69999 17.8 9.19999 17 8.99999C16.2 8.79999 15.5 8.69999 14.7 8.69999C8.8 8.79999 4 13.5 4 19.4C4 25.2 8.8 30 14.6 30C20.4 30 25.2 25.2 25.2 19.4C25.2 18.7 25.1 17.9 25 17.2C24.8 16.4 25.3 15.6 26.2 15.4C27 15.2 27.8 15.7 28 16.6C28.2 17.5 28.3 18.5 28.3 19.4C28.2 26.9 22.1 33 14.6 33Z" fill="black"/>
<path d="M14.6 27C10.5 27 7 23.5 7 19.4C7 15.2 10.4 11.8 14.6 11.8C18.8 11.8 22.2 15.2 22.2 19.4C22.2 23.5 18.8 27 14.6 27ZM14.6 14.8C12.1 14.8 10 16.9 10 19.4C10 21.9 12.1 24 14.6 24C17.1 24 19.2 21.9 19.2 19.4C19.2 16.8 17.2 14.8 14.6 14.8Z" fill="black"/>
<path d="M14.5002 21C14.1002 21 13.7002 20.9 13.4002 20.6C12.8002 20 12.8002 19.1 13.4002 18.5L30.0002 1.90001C30.6002 1.30001 31.5002 1.30001 32.1002 1.90001C32.7002 2.50001 32.7002 3.40001 32.1002 4.00001L15.6002 20.6C15.3002 20.9 14.9002 21 14.5002 21Z" fill="black"/>
<path d="M26.4 7.6L26 2.5L22 6.6V12L26.4 7.6Z" fill="black"/>
<path d="M22 13.5C21.8 13.5 21.6 13.5 21.4 13.4C20.8 13.2 20.5 12.6 20.5 12V6.59999C20.5 6.19999 20.7 5.79999 20.9 5.49999L24.9 1.49999C25.3 1.09999 25.9 0.899986 26.5 1.19999C27.1 1.39999 27.4 1.89999 27.5 2.49999L27.8 7.59999C27.8 7.99999 27.7 8.49999 27.4 8.79999L23.1 13C22.8 13.3 22.4 13.5 22 13.5ZM23.5 7.19999V8.39999L24.8 6.99999L24.7 5.89999L23.5 7.19999Z" fill="black"/>
<path d="M26.4 7.59998L31.5 7.99998L27.4 12H22L26.4 7.59998Z" fill="black"/>
<path d="M27.4 13.5H22C21.4 13.5 20.8 13.1 20.6 12.6C20.4 12 20.5 11.4 20.9 11L25.2 6.7C25.5 6.4 25.9 6.2 26.4 6.3L31.5 6.6C31.9 6.6 32.5 7 32.8 7.6C33 7.9 32.7 8.8 32.5 9L28.5 13C28.2 13.3 27.8 13.5 27.4 13.5ZM25.6 10.5H26.8L28 9.3L27 9.2L25.6 10.5Z" fill="black"/>
</svg>
