<svg width="34" height="34" viewBox="0 0 34 34" fill="none" xmlns="http://www.w3.org/2000/svg">
<path d="M17 16C16.17 16 15.5 15.33 15.5 14.5V2.5C15.5 1.67 16.17 1 17 1C17.83 1 18.5 1.67 18.5 2.5V14.5C18.5 15.33 17.83 16 17 16Z" fill="black"/>
<path d="M22.5 6C21.67 6 21 5.33 21 4.5V4H13V4.5C13 5.33 12.33 6 11.5 6C10.67 6 10 5.33 10 4.5V2.5C10 1.67 10.67 1 11.5 1H22.5C23.33 1 24 1.67 24 2.5V4.5C24 5.33 23.33 6 22.5 6Z" fill="black"/>
<path d="M19 16H15C14.17 16 13.5 15.33 13.5 14.5C13.5 13.67 14.17 13 15 13H19C19.83 13 20.5 13.67 20.5 14.5C20.5 15.33 19.83 16 19 16Z" fill="black"/>
<path d="M29.65 33H4.35C2.5 33 1 31.5 1 29.65V4.35C1 2.5 2.5 1 4.35 1H6.74C7.57 1 8.24 1.67 8.24 2.5C8.24 3.33 7.57 4 6.74 4H4.35C4.15 4 4 4.16 4 4.35V29.64C4 29.84 4.16 29.99 4.35 29.99H29.64C29.84 29.99 29.99 29.83 29.99 29.64V4.35C29.99 4.15 29.83 4 29.64 4H27.29C26.46 4 25.79 3.33 25.79 2.5C25.79 1.67 26.46 1 27.29 1H29.64C31.49 1 32.99 2.5 32.99 4.35V29.64C32.99 31.49 31.49 32.99 29.64 32.99L29.65 33Z" fill="black"/>
<path d="M5.50006 32.9994C5.09006 32.9994 4.67006 32.8294 4.38006 32.4994C3.83006 31.8794 3.89006 30.9294 4.50006 30.3794L13.5001 22.3794C14.0301 21.9094 14.8301 21.8694 15.4001 22.2994L18.4401 24.5794L24.5301 19.3594C25.0401 18.9194 25.7801 18.8794 26.3401 19.2494L32.3401 23.2494C33.0301 23.7094 33.2201 24.6394 32.7601 25.3294C32.3001 26.0194 31.3701 26.2094 30.6801 25.7494L25.6301 22.3794L19.4901 27.6394C18.9601 28.0994 18.1801 28.1194 17.6101 27.6994L14.5901 25.4394L6.51006 32.6294C6.22006 32.8794 5.87006 33.0094 5.51006 33.0094L5.50006 32.9994Z" fill="black"/>
<path d="M8.75 22C9.99264 22 11 20.9926 11 19.75C11 18.5074 9.99264 17.5 8.75 17.5C7.50736 17.5 6.5 18.5074 6.5 19.75C6.5 20.9926 7.50736 22 8.75 22Z" fill="black"/>
</svg>
