<svg width="34" height="34" viewBox="0 0 34 34" fill="none" xmlns="http://www.w3.org/2000/svg">
<path d="M10.8303 3.4001H22.8085C23.6314 3.4001 24.0886 3.73987 24.2715 3.99471C24.8201 4.58932 24.6372 5.35382 24.5458 5.77854C24.5458 5.94843 24.5458 6.11832 24.5458 6.28821V19.0299C24.5458 19.9643 24.18 20.7288 23.54 21.2384L16.4994 29.7329C16.4079 29.8178 16.4079 29.8178 16.3165 29.9028C15.4021 30.6673 14.0306 30.8372 12.9333 30.2425C11.9275 29.7329 11.3789 28.6286 11.6532 27.6093L12.8419 21.918H5.06979C3.88112 21.918 2.69244 21.4933 1.86952 20.7288C1.13802 19.9643 0.772274 19.0299 0.86371 18.0955V15.3773C0.86371 14.5278 1.13802 13.6784 1.68664 12.9988L6.71565 5.60865C7.53858 4.24954 9.18444 3.4001 10.8303 3.4001Z" fill="black"/>
<path d="M28.1916 3.3999H31.2988C32.2905 3.3999 33.1499 4.46753 33.1499 5.69942V18.1004C33.1499 19.3323 32.2905 20.3999 31.2988 20.3999H28.1916C27.6627 20.3999 27.1999 19.825 27.1999 19.168V4.63179C27.1999 3.97478 27.6627 3.3999 28.1916 3.3999Z" fill="black"/>
</svg>
