<svg width="34" height="34" viewBox="0 0 34 34" fill="none" xmlns="http://www.w3.org/2000/svg">
<path d="M21.9996 33H8.89963C7.99963 33 7.49963 32.6 7.29963 32.3C6.69963 31.6 6.89963 30.7 6.99963 30.2C6.99963 30 6.99963 29.8 6.99963 29.6V14.6C6.99963 13.5 7.39963 12.6 8.09963 12L15.7996 2C15.8996 1.9 15.8996 1.9 15.9996 1.8C16.9996 0.899997 18.4996 0.699997 19.6996 1.4C20.7996 2 21.3996 3.3 21.0996 4.5L19.7996 11.2H28.2996C29.5996 11.2 30.8996 11.7 31.7996 12.6C32.5996 13.5 32.9996 14.6 32.8996 15.7V18.9C32.8996 19.9 32.5996 20.9 31.9996 21.7L26.4996 30.4C25.5996 32 23.7996 33 21.9996 33ZM9.99963 30H21.9996C22.7996 30 23.5996 29.6 23.9996 28.9L29.4996 20.2C29.6996 19.8 29.8996 19.4 29.8996 19V15.7C29.8996 15.2 29.6996 14.9 29.5996 14.7C29.2996 14.4 28.7996 14.2 28.2996 14.2H17.9996C17.5996 14.2 17.0996 14 16.7996 13.7C16.4996 13.4 16.3996 12.9 16.4996 12.5L18.0996 4C18.0996 4 18.0996 4 17.9996 4L10.2996 13.9C10.1996 14 10.0996 14.1 10.0996 14.2C9.99963 14.3 9.99963 14.5 9.99963 14.6V29.6C9.99963 29.7 9.99963 29.9 9.99963 30Z" fill="black"/>
<path d="M8.5 33H3.8C2.3 33 1 31.7 1 30.2V15.1C1 13.6 2.3 12.3 3.8 12.3H8.5C9.3 12.3 10 13 10 13.8V31.5C10 32.3 9.3 33 8.5 33ZM4 30H7V15.3H4V30Z" fill="black"/>
</svg>
