<svg width="34" height="34" viewBox="0 0 34 34" fill="none" xmlns="http://www.w3.org/2000/svg">
<path d="M23.1697 30.6H11.1915C10.3686 30.6 9.91141 30.2602 9.72854 30.0054C9.17992 29.4108 9.36279 28.6463 9.45423 28.2216C9.45423 28.0517 9.45423 27.8818 9.45423 27.7119V14.9702C9.45423 14.0358 9.81998 13.2713 10.46 12.7617L17.5006 4.26722C17.5921 4.18227 17.5921 4.18227 17.6835 4.09733C18.5979 3.33283 19.9694 3.16294 21.0667 3.75755C22.0725 4.26722 22.6211 5.3715 22.3468 6.39083L21.1581 12.0821H28.9302C30.1189 12.0821 31.3076 12.5068 32.1305 13.2713C32.862 14.0358 33.2277 14.9702 33.1363 15.9046V18.6228C33.1363 19.4723 32.862 20.3217 32.3134 21.0013L27.2843 28.3914C26.4614 29.7506 24.8156 30.6 23.1697 30.6Z" fill="black"/>
<path d="M5.80843 30.6H2.70121C1.70954 30.6 0.850098 29.5324 0.850098 28.3005V15.8995C0.850098 14.6676 1.70954 13.6 2.70121 13.6H5.80843C6.33732 13.6 6.8001 14.1749 6.8001 14.8319V29.3681C6.8001 30.0251 6.33732 30.6 5.80843 30.6Z" fill="black"/>
</svg>
