<svg width="34" height="34" viewBox="0 0 34 34" fill="none" xmlns="http://www.w3.org/2000/svg">
<path d="M15.8152 33C16.6152 33 17.3152 32.7 17.9152 32.2C18.0152 32.1 18.0152 32.1 18.1152 32L25.8152 22C26.5152 21.4 26.9152 20.5 26.9152 19.4V4.4C26.9152 4.2 26.9152 4 27.0152 3.8C27.1152 3.3 27.2152 2.4 26.6152 1.7C26.4152 1.4 25.9152 1 25.0152 1H11.9152C10.1152 1 8.31523 2 7.31523 3.5L1.81523 12.2C1.31523 13 1.01523 14 1.01523 15V18.3C0.915226 19.4 1.31523 20.5 2.11523 21.4C3.01523 22.3 4.21523 22.8 5.61523 22.8H14.1152L12.8152 29.5C12.5152 30.7 13.1152 31.9 14.2152 32.6C14.7152 32.9 15.3152 33 15.8152 33ZM15.8152 30L17.3152 21.6C17.4152 21.2 17.3152 20.7 17.0152 20.4C16.7152 20.1 16.3152 19.9 15.8152 19.9H5.51523C5.01523 19.9 4.51523 19.7 4.21523 19.4C4.01523 19.2 3.81523 18.9 3.91523 18.5V15.1C3.91523 14.7 4.01523 14.3 4.21523 13.9L9.91523 5.1C10.3152 4.4 11.1152 4 11.9152 4H23.9152C23.9152 4.1 23.9152 4.3 23.9152 4.4V19.4C23.9152 19.5 23.9152 19.7 23.8152 19.8C23.7152 19.9 23.6152 20 23.6152 20.1L15.8152 30Z" fill="black"/>
<path d="M25.415 21.7H30.115C31.615 21.7 32.915 20.4 32.915 18.9V3.8C32.915 2.3 31.615 1 30.115 1H25.415C24.615 1 23.915 1.7 23.915 2.5V20.2C23.915 21 24.615 21.7 25.415 21.7ZM29.915 18.7H26.915V4H29.915V18.7Z" fill="black"/>
</svg>
