<svg width="34" height="34" viewBox="0 0 34 34" fill="none" xmlns="http://www.w3.org/2000/svg">
<path d="M23.0002 24.5C22.6002 24.5 22.2002 24.4 21.9002 24.1C21.3002 23.5 21.3002 22.6 21.9002 22C23.2002 20.7 24.0002 18.9 24.0002 17.1C24.0002 15.3 23.3002 13.5 21.9002 12.2C21.3002 11.6 21.3002 10.7 21.9002 10.1C22.5002 9.49999 23.4002 9.49999 24.0002 10.1C26.0002 11.8 27.0002 14.3 27.0002 17C27.0002 19.7 26.0002 22.2 24.1002 24.1C23.8002 24.4 23.4002 24.5 23.0002 24.5Z" fill="black"/>
<path d="M15.6 30.9C15 30.9 14.5 30.7 14 30.3L6.9 24H3C1.3 24 0 22.6 0 21V13C0 11.3 1.4 9.99999 3 9.99999H6.9L14 3.69999C14.7 3.09999 15.7 2.89999 16.5 3.29999C17.5 3.69999 18 4.49999 18 5.39999V28.5C18 29.4 17.4 30.3 16.6 30.7C16.3 30.9 15.9 30.9 15.6 30.9ZM3 13V21H7.5C7.9 21 8.2 21.1 8.5 21.4L15 27.2V6.79999L8.5 12.6C8.2 12.8 7.9 13 7.5 13H3Z" fill="black"/>
</svg>
