<svg width="34" height="34" viewBox="0 0 34 34" fill="none" xmlns="http://www.w3.org/2000/svg">
<path d="M28.5603 33.2399H5.44033C3.65033 33.2399 2.03033 32.3199 1.12033 30.7899C0.200333 29.2499 0.160333 27.3999 1.01033 25.8199L12.5603 4.31992C13.4403 2.67992 15.1403 1.66992 17.0003 1.66992C18.8603 1.66992 20.5603 2.68992 21.4403 4.31992L33.0003 25.8199C33.8503 27.3999 33.8103 29.2499 32.8903 30.7899C31.9703 32.3299 30.3603 33.2399 28.5703 33.2399H28.5603ZM17.0003 4.65992C16.2403 4.65992 15.5703 5.05992 15.2103 5.72992L3.64033 27.2399C3.29033 27.8899 3.31033 28.6199 3.69033 29.2499C4.07033 29.8799 4.70033 30.2399 5.44033 30.2399H28.5603C29.2903 30.2399 29.9303 29.8799 30.3103 29.2499C30.6903 28.6199 30.7003 27.8899 30.3603 27.2399L18.7903 5.73992C18.4303 5.06992 17.7603 4.66992 17.0003 4.66992V4.65992Z" fill="black"/>
<path d="M17 21.4001C16.17 21.4001 15.5 20.7301 15.5 19.9001V12.1001C15.5 11.2701 16.17 10.6001 17 10.6001C17.83 10.6001 18.5 11.2701 18.5 12.1001V19.9001C18.5 20.7301 17.83 21.4001 17 21.4001Z" fill="black"/>
<path d="M17 27C18.1046 27 19 26.1046 19 25C19 23.8954 18.1046 23 17 23C15.8954 23 15 23.8954 15 25C15 26.1046 15.8954 27 17 27Z" fill="black"/>
</svg>
