<svg width="34" height="34" viewBox="0 0 34 34" fill="none" xmlns="http://www.w3.org/2000/svg">
<path d="M17 33C8.16 33 1 25.84 1 17C1 8.16 8.16 1 17 1C25.84 1 33 8.16 33 17C33 25.84 25.84 33 17 33ZM17 4C9.83 4 4 9.83 4 17C4 24.17 9.83 30 17 30C24.17 30 30 24.17 30 17C30 9.83 24.17 4 17 4Z" fill="black"/>
<path d="M17 27C18.3807 27 19.5 25.8807 19.5 24.5C19.5 23.1193 18.3807 22 17 22C15.6193 22 14.5 23.1193 14.5 24.5C14.5 25.8807 15.6193 27 17 27Z" fill="black"/>
<path d="M17 20C16.17 20 15.5 19.33 15.5 18.5V8.5C15.5 7.67 16.17 7 17 7C17.83 7 18.5 7.67 18.5 8.5V18.5C18.5 19.33 17.83 20 17 20Z" fill="black"/>
</svg>
