<svg width="34" height="34" viewBox="0 0 34 34" fill="none" xmlns="http://www.w3.org/2000/svg">
<path d="M23.7 23.1C23.3 23.1 22.9 22.9 22.6 22.6C22.1 22 22.1 21 22.8 20.5C24.5 19 26.4 17.9 28.5 17C23.3 14.9 19.1 10.7 17 5.5C14.9 10.7 10.7 14.9 5.5 17C7.5 17.8 9.3 18.9 11 20.3C11.6 20.8 11.7 21.8 11.2 22.4C10.7 23 9.7 23.1 9.1 22.6C7.2 21 5 19.9 2.6 19.2C1.7 18.9 1 18 1 17C1 16 1.7 15.1 2.6 14.8C8.4 13.1 13.1 8.5 14.8 2.6C15.1 1.7 16 1 17 1C18 1 18.9 1.7 19.2 2.6C20.9 8.4 25.5 13.1 31.4 14.8C32.4 15.1 33 16 33 17C33 18 32.3 18.9 31.4 19.2C28.9 19.9 26.7 21.1 24.7 22.8C24.4 23 24.1 23.1 23.7 23.1Z" fill="black"/>
<path d="M17 22.5C19.2091 22.5 21 20.4853 21 18C21 15.5147 19.2091 13.5 17 13.5C14.7909 13.5 13 15.5147 13 18C13 20.4853 14.7909 22.5 17 22.5Z" fill="black"/>
<path fill-rule="evenodd" clip-rule="evenodd" d="M11.5996 33H22.3996C23.7996 33 24.7996 31.5 24.3996 30.1C22.9996 25.3 20.1996 22 16.9996 22C13.7996 22 10.9996 25.3 9.59962 30.1C9.19962 31.5 10.1996 33 11.5996 33Z" fill="black"/>
</svg>
