<svg width="34" height="34" viewBox="0 0 34 34" fill="none" xmlns="http://www.w3.org/2000/svg">
<path d="M2.49994 33C2.09994 33 1.69994 32.8 1.39994 32.6C0.999935 32.2 0.899935 31.7 0.999935 31.3L2.89994 21.7C3.09994 20.4 3.79993 19.3 4.69993 18.4L19.6999 3.40004C21.5999 1.50004 24.2999 0.700042 26.9999 1.30004C29.8999 1.90004 32.1999 4.30004 32.8999 7.20004C33.4999 9.90004 32.6999 12.6 30.7999 14.5L15.7999 29.5C14.8999 30.4 13.6999 31 12.4999 31.3L2.79994 33C2.69994 33 2.59994 33 2.49994 33ZM25.0999 4.00004C23.7999 4.00004 22.5999 4.50004 21.6999 5.40004L6.69993 20.4C6.19993 20.9 5.89994 21.5 5.79994 22.2L4.39994 29.7L11.8999 28.3C12.5999 28.2 13.1999 27.8 13.6999 27.4L28.6999 12.4C29.8999 11.2 30.3999 9.50004 29.9999 7.80004C29.4999 6.00004 27.9999 4.50004 26.2999 4.10004C25.8999 4.00004 25.4999 4.00004 25.0999 4.00004Z" fill="black"/>
<path d="M27.5002 16C27.1002 16 26.7002 15.9 26.4002 15.6L18.4002 7.60005C17.8002 7.00005 17.8002 6.10005 18.4002 5.50005C19.0002 4.90005 19.9002 4.90005 20.5002 5.50005L28.5002 13.5C29.1002 14.1 29.1002 15 28.5002 15.6C28.3002 15.9 27.9002 16 27.5002 16Z" fill="black"/>
<rect x="1" y="30" width="32" height="3" rx="1.5" fill="black"/>
</svg>
