<svg width="34" height="34" viewBox="0 0 34 34" fill="none" xmlns="http://www.w3.org/2000/svg">
<g clip-path="url(#clip0_4242_189)">
<path d="M17 0C26.4 0 34 7.6 34 17C34 26.4 26.4 34 17 34C7.6 34 0 26.4 0 17C0 7.6 7.6 0 17 0ZM23.3281 10.4287C22.9377 10.0384 22.3046 10.0386 21.9141 10.4287L17.6719 14.6709C17.2814 15.0614 16.6474 15.0614 16.2568 14.6709L12.0146 10.4287C11.6242 10.0386 10.991 10.0384 10.6006 10.4287L9.89355 11.1357C9.50288 11.5262 9.50297 12.1602 9.89355 12.5508L14.1348 16.792C14.5251 17.1824 14.5258 17.8155 14.1357 18.2061L9.89258 22.4492C9.50226 22.8396 9.50247 23.4727 9.89258 23.8633L10.5996 24.5713C10.9901 24.962 11.6241 24.9619 12.0146 24.5713L16.2568 20.3281C16.6474 19.9376 17.2814 19.9376 17.6719 20.3281L21.9141 24.5713C22.3047 24.9619 22.9386 24.962 23.3291 24.5713L24.0361 23.8633C24.4262 23.4727 24.4265 22.8396 24.0361 22.4492L19.793 18.2061C19.4025 17.8155 19.4024 17.1825 19.793 16.792L24.0352 12.5508C24.4258 12.1602 24.4259 11.5263 24.0352 11.1357L23.3281 10.4287Z" fill="black"/>
</g>
<defs>
<clipPath>
<rect width="34" height="34" fill="white"/>
</clipPath>
</defs>
</svg>
