<svg width="42" height="42" viewBox="0 0 42 42" fill="none" xmlns="http://www.w3.org/2000/svg">
<path d="M12.1099 40.0006C11.0399 40.0006 10.0399 39.5806 9.27989 38.8306L7.83989 37.3906C6.93989 36.4906 6.51989 35.2006 6.71989 33.9406L9.79989 14.2706C10.0299 12.8206 11.0299 11.6106 12.4199 11.1206C12.8499 10.9706 13.2999 10.8906 13.7499 10.8906C14.7499 10.8906 15.6999 11.2606 16.4399 11.9306L23.0499 17.9406C24.4199 19.1906 24.7599 21.1906 23.8699 22.8206L15.6299 37.9206C15.0299 39.0206 13.9299 39.7806 12.6899 39.9606C12.4999 39.9906 12.3099 40.0006 12.1199 40.0006H12.1099Z" fill="white"/>
<path d="M20.8998 24.3597C19.7698 24.3597 18.6998 23.8797 17.9398 23.0497L11.9298 16.4497C10.9398 15.3597 10.6298 13.8197 11.1198 12.4297C11.6098 11.0397 12.8198 10.0297 14.2698 9.80969L33.9298 6.72969C34.1298 6.69969 34.3398 6.67969 34.5498 6.67969C35.6198 6.67969 36.6198 7.09969 37.3798 7.84969L38.8198 9.28969C39.7098 10.1797 40.1298 11.4497 39.9498 12.6897C39.7698 13.9297 39.0098 15.0297 37.9098 15.6297L22.8098 23.8697C22.2198 24.1897 21.5598 24.3597 20.8898 24.3597H20.8998Z" fill="white"/>
<path d="M27.4701 33.59C26.4601 33.59 25.4901 33.21 24.7501 32.52L5.49013 14.67C3.37013 12.55 2.15013 9.99 2.01013 7.41C1.93013 6 2.44013 4.62 3.40013 3.6C4.36013 2.58 5.72013 2 7.12013 2C7.18013 2 7.35013 2 7.40013 2C9.96013 2.14 12.5601 3.37 14.5601 5.37L32.5101 24.74C33.2601 25.55 33.6401 26.64 33.5701 27.74C33.4901 28.84 32.9601 29.87 32.1001 30.56L31.2501 31.25L30.5601 32.1C29.8701 32.96 28.8401 33.49 27.7401 33.57C27.6301 33.57 27.5501 33.57 27.4601 33.57L27.4701 33.59Z" fill="white"/>
<path d="M26.8803 38.9394C25.8103 38.9394 24.8103 38.5194 24.0503 37.7694L22.8003 36.5194C21.9003 35.6194 21.4803 34.3294 21.6803 33.0694L22.7203 26.4694C22.8503 25.6294 23.2403 24.8694 23.8403 24.2594L24.2803 23.8194C24.8803 23.2194 25.6503 22.8294 26.4903 22.6994L33.0903 21.6594C33.2903 21.6294 33.5003 21.6094 33.7103 21.6094C34.7803 21.6094 35.7803 22.0294 36.5403 22.7794L37.7903 24.0294C38.7103 24.9494 39.1303 26.2694 38.9003 27.5494C38.6703 28.8394 37.8303 29.9294 36.6503 30.4794L32.4703 32.4294L30.5203 36.6094C29.9703 37.7894 28.8703 38.6294 27.5903 38.8594C27.3603 38.8994 27.1203 38.9194 26.8903 38.9194L26.8803 38.9394Z" fill="white"/>
<path d="M12.1098 38.0006C11.5798 38.0006 11.0698 37.7906 10.6998 37.4106L9.25979 35.9706C8.80979 35.5206 8.59979 34.8806 8.69979 34.2506L11.7798 14.5806C11.8898 13.8506 12.3998 13.2506 13.0898 13.0006C13.3098 12.9206 13.5298 12.8906 13.7498 12.8906C14.2398 12.8906 14.7198 13.0706 15.0998 13.4106L21.6998 19.4206C22.3798 20.0406 22.5498 21.0506 22.1098 21.8606L13.8698 36.9606C13.5698 37.5106 13.0198 37.8906 12.3998 37.9806C12.2998 37.9906 12.2098 38.0006 12.1198 38.0006H12.1098Z" fill="#221F1F"/>
<path d="M20.8997 22.3595C20.3497 22.3595 19.8097 22.1295 19.4197 21.7095L13.4097 15.1095C12.9097 14.5695 12.7597 13.7895 12.9997 13.0995C13.2397 12.4095 13.8497 11.8995 14.5797 11.7895L34.2497 8.70945C34.3497 8.68945 34.4597 8.68945 34.5597 8.68945C35.0897 8.68945 35.5997 8.89945 35.9697 9.27945L37.4097 10.7195C37.8597 11.1695 38.0697 11.7895 37.9797 12.4195C37.8897 13.0395 37.5097 13.5895 36.9597 13.8895L21.8597 22.1295C21.5597 22.2995 21.2297 22.3795 20.8997 22.3795V22.3595Z" fill="#221F1F"/>
<path d="M20.3599 20.9006L12.1099 36.0006L10.6699 34.5606L13.7499 14.8906L20.3599 20.9006Z" fill="#A2D6FF"/>
<path d="M20.9001 20.3599L36.0001 12.1099L34.5601 10.6699L14.8901 13.7499L20.9001 20.3599Z" fill="#A2D6FF"/>
<path d="M11.9902 26.1506L15.6402 29.5406L20.3602 20.9006L13.7502 14.8906L11.9902 26.1506Z" fill="#5AB2ED"/>
<path d="M27.4701 31.5902C26.9701 31.5902 26.4801 31.4002 26.1101 31.0602L6.85012 13.2002C5.14012 11.4902 4.12012 9.35023 4.01012 7.29023C3.96012 6.43023 4.27012 5.58023 4.85012 4.96023C5.43012 4.34023 6.26012 3.99023 7.12012 3.99023C7.16012 3.99023 7.26012 3.99023 7.30012 3.99023C9.36012 4.11023 11.5001 5.12023 13.1501 6.78023L31.0501 26.0902C31.4301 26.5002 31.6201 27.0402 31.5801 27.5902C31.5401 28.1402 31.2701 28.6502 30.8501 29.0002L29.8401 29.8202L29.0201 30.8302C28.6701 31.2602 28.1601 31.5302 27.6101 31.5702C27.5601 31.5702 27.5201 31.5702 27.4701 31.5702V31.5902Z" fill="#221F1F"/>
<path d="M26.8802 36.9391C26.3502 36.9391 25.8402 36.7291 25.4702 36.3491L24.2202 35.0991C23.7702 34.6491 23.5602 34.0091 23.6602 33.3791L24.7002 26.7791C24.7702 26.3591 24.9602 25.9791 25.2602 25.6791L25.7002 25.2391C26.0002 24.9391 26.3902 24.7391 26.8002 24.6791L33.4002 23.6391C33.5002 23.6191 33.6102 23.6191 33.7102 23.6191C34.2402 23.6191 34.7502 23.8291 35.1202 24.2091L36.3702 25.4591C36.8302 25.9191 37.0402 26.5791 36.9302 27.2191C36.8202 27.8591 36.4002 28.4091 35.8002 28.6891L30.9502 30.9391L28.7002 35.7791C28.4202 36.3691 27.8802 36.7891 27.2302 36.9091C27.1102 36.9291 27.0002 36.9391 26.8802 36.9391Z" fill="#221F1F"/>
<path d="M11.7399 8.21013C10.3699 6.84013 8.6999 6.09013 7.1899 6.00013C6.5099 5.96013 5.9699 6.50013 6.0099 7.18013C6.0899 8.69013 6.8499 10.3601 8.2199 11.7301L27.4799 29.5801L28.4299 28.4101L29.5999 27.4601L11.7399 8.21013Z" fill="white"/>
<path d="M27.0901 26.6591L26.6601 27.0891L25.6201 33.6891L26.8801 34.9391L29.4401 29.4391L34.9401 26.8791L33.6901 25.6191L27.0901 26.6591Z" fill="white"/>
<path d="M6.39973 6.26953C6.13973 6.48953 5.97973 6.80953 5.99973 7.17953C6.07973 8.68953 6.83973 10.3595 8.20973 11.7295L26.4198 28.6095L25.6198 33.6895L26.8698 34.9395L29.4298 29.4295L29.5198 29.3895L6.39973 6.26953Z" fill="#CAE5FF"/>
</svg>
