<svg width="42" height="42" viewBox="0 0 42 42" fill="none" xmlns="http://www.w3.org/2000/svg">
<path d="M28.0006 40C26.6606 40 25.4206 39.33 24.6706 38.22L24.3006 37.66C23.2206 37.89 22.1206 38 21.0006 38C19.8806 38 18.7806 37.88 17.7006 37.66L17.3306 38.22C16.5906 39.34 15.3406 40 14.0006 40H12.0006C10.7206 40 9.50059 39.38 8.75059 38.34C8.00059 37.3 7.80059 35.96 8.20059 34.74L8.94059 32.51C6.38059 29.59 4.99059 25.91 4.99059 22C4.99059 20.25 5.28059 18.54 5.84059 16.88C4.55059 15.38 3.86059 13.5 3.89059 11.51C3.93059 9.36999 4.79059 7.37999 6.33059 5.88999C7.68059 4.58999 9.46059 3.79999 11.3306 3.65999C11.5206 3.64999 11.7106 3.63999 11.8906 3.63999C13.3406 3.63999 14.7606 4.03999 16.0006 4.77999C16.1106 3.21999 17.4106 1.98999 18.9906 1.98999H22.9906C24.5706 1.98999 25.8706 3.21999 25.9806 4.77999C27.2106 4.03999 28.6406 3.63999 30.0906 3.63999C30.2806 3.63999 30.4606 3.63999 30.6506 3.65999C32.5206 3.78999 34.3006 4.57999 35.6506 5.87999C37.1906 7.36999 38.0506 9.35999 38.0906 11.5C38.1206 13.49 37.4406 15.38 36.1406 16.87C36.7006 18.52 36.9906 20.24 36.9906 21.99C36.9906 25.89 35.6006 29.58 33.0406 32.5L33.7806 34.73C34.1906 35.95 33.9806 37.29 33.2306 38.33C32.4806 39.37 31.2706 39.99 29.9806 39.99H27.9806L28.0006 40Z" fill="white"/>
<path d="M11.9999 38C11.3599 38 10.7498 37.69 10.3798 37.17C9.99984 36.65 9.89984 35.98 10.1098 35.37L13.1099 26.37C13.3799 25.55 14.1499 25 15.0099 25H20.0099C20.7499 25 21.4299 25.41 21.7699 26.06C22.1199 26.71 22.0799 27.5 21.6699 28.11L15.6699 37.11C15.2999 37.67 14.6699 38 14.0099 38H12.0099H11.9999Z" fill="#221F1F"/>
<path d="M28.0003 38C27.3303 38 26.7103 37.67 26.3403 37.11L20.3403 28.11C19.9303 27.5 19.8903 26.71 20.2403 26.06C20.5903 25.41 21.2703 25 22.0003 25H27.0003C27.8603 25 28.6203 25.55 28.9003 26.37L31.9003 35.37C32.1003 35.98 32.0003 36.65 31.6303 37.17C31.2503 37.69 30.6503 38 30.0103 38H28.0103H28.0003Z" fill="#221F1F"/>
<path d="M20 27H15L12 36H14L20 27Z" fill="#D88C7D"/>
<path d="M22 27H27L30 36H28L22 27Z" fill="#D88C7D"/>
<path d="M32.8401 16.4199C33.4101 16.4599 33.9901 16.2599 34.4201 15.8099C35.5301 14.6599 36.1301 13.1399 36.1001 11.5399C36.0701 9.93992 35.4201 8.43992 34.2701 7.32992C33.2601 6.34992 31.9301 5.75992 30.5201 5.65992C28.7501 5.53992 27.0201 6.19992 25.7801 7.47992C25.4101 7.85992 25.2101 8.36992 25.2201 8.89992C25.2201 9.42992 25.4501 9.93992 25.8301 10.2999L31.5801 15.8599C31.9301 16.1999 32.3801 16.3799 32.8301 16.4199H32.8401Z" fill="#221F1F"/>
<path d="M21 36C13.28 36 7 29.72 7 22C7 14.28 13.28 8 21 8C28.72 8 35 14.28 35 22C35 29.72 28.72 36 21 36Z" fill="#221F1F"/>
<path d="M9.16049 16.4199C8.59049 16.4599 8.01049 16.2599 7.58049 15.8099C6.47049 14.6599 5.87049 13.1399 5.90049 11.5399C5.93049 9.93992 6.58049 8.43992 7.73049 7.32992C8.74049 6.34992 10.0705 5.75992 11.4805 5.65992C13.2505 5.53992 14.9805 6.19992 16.2205 7.47992C16.5905 7.85992 16.7905 8.36992 16.7805 8.89992C16.7805 9.42992 16.5505 9.93992 16.1705 10.2999L10.4205 15.8599C10.0705 16.1999 9.62049 16.3799 9.17049 16.4199H9.16049Z" fill="#221F1F"/>
<path d="M21 34C27.6274 34 33 28.6274 33 22C33 15.3726 27.6274 10 21 10C14.3726 10 9 15.3726 9 22C9 28.6274 14.3726 34 21 34Z" fill="#D88C7D"/>
<path d="M9.12 8.77C7.53 10.3 7.49 12.84 9.02 14.43L14.77 8.87C13.24 7.28 10.7 7.24 9.11 8.77H9.12Z" fill="white"/>
<path d="M21 32C15.49 32 11 27.51 11 22C11 16.49 15.49 12 21 12C26.51 12 31 16.49 31 22C31 27.51 26.51 32 21 32Z" fill="#221F1F"/>
<path d="M21 30C25.4183 30 29 26.4183 29 22C29 17.5817 25.4183 14 21 14C16.5817 14 13 17.5817 13 22C13 26.4183 16.5817 30 21 30Z" fill="white"/>
<path d="M23 4H19C18.4477 4 18 4.44772 18 5C18 5.55228 18.4477 6 19 6H23C23.5523 6 24 5.55228 24 5C24 4.44772 23.5523 4 23 4Z" fill="#221F1F"/>
<path d="M22 5H20V9H22V5Z" fill="#221F1F"/>
<path d="M9.08024 8.82006C7.54024 10.3601 7.51025 12.8501 9.02025 14.4201L12.1002 11.4401L9.07024 8.81006L9.08024 8.82006Z" fill="#CAE5FF"/>
<path d="M32.8805 8.77C34.4705 10.3 34.5105 12.84 32.9805 14.43L27.2305 8.87C28.7605 7.28 31.3005 7.24 32.8905 8.77H32.8805Z" fill="white"/>
<path d="M32.9194 8.82006C34.4594 10.3601 34.4894 12.8501 32.9794 14.4201L29.8994 11.4401L32.9294 8.81006L32.9194 8.82006Z" fill="#CAE5FF"/>
<path d="M28.21 25.44C28.71 24.4 29 23.23 29 22C29 17.59 25.41 14 21 14C18.87 14 16.94 14.84 15.5 16.2C21.09 17.03 25.78 20.56 28.21 25.44Z" fill="#CAE5FF"/>
<path d="M22 17C22 16.4477 21.5523 16 21 16C20.4477 16 20 16.4477 20 17V23C20 23.5523 20.4477 24 21 24C21.5523 24 22 23.5523 22 23V17Z" fill="#221F1F"/>
<path d="M25.0857 22.4976C25.6008 22.2982 25.8567 21.7191 25.6573 21.2041C25.458 20.689 24.8788 20.4331 24.3638 20.6325L20.6335 22.0764C20.1184 22.2757 19.8625 22.8549 20.0619 23.3699C20.2612 23.8849 20.8404 24.1409 21.3554 23.9415L25.0857 22.4976Z" fill="#221F1F"/>
</svg>
