<svg width="42" height="42" viewBox="0 0 42 42" fill="none" xmlns="http://www.w3.org/2000/svg">
<path d="M21 36C26.5228 36 31 30.1797 31 23C31 15.8203 26.5228 10 21 10C15.4772 10 11 15.8203 11 23C11 30.1797 15.4772 36 21 36Z" fill="white"/>
<path d="M21 38C14.38 38 9 31.27 9 23C9 14.73 14.38 8 21 8C27.62 8 33 14.73 33 23C33 31.27 27.62 38 21 38Z" fill="#221F1F"/>
<path d="M29.8295 18.61C29.5795 18.61 29.3395 18.59 29.1095 18.55C27.9995 18.35 26.8695 17.64 26.0895 16.63C25.1895 15.46 24.8195 14.04 25.0695 12.63C25.5595 9.88001 28.0595 8.39001 30.1695 8.39001C30.4195 8.39001 30.6595 8.41001 30.8895 8.45001C31.9995 8.65001 33.1295 9.36002 33.9095 10.37C34.8095 11.54 35.1795 12.96 34.9295 14.37C34.4395 17.12 31.9395 18.61 29.8295 18.61Z" fill="white"/>
<path d="M12.1696 18.61C10.0596 18.61 7.55956 17.12 7.06956 14.37C6.81956 12.96 7.17956 11.54 8.08956 10.37C8.86956 9.36002 9.99956 8.65001 11.1096 8.45001C11.3396 8.41001 11.5796 8.39001 11.8296 8.39001C13.9396 8.39001 16.4396 9.88001 16.9296 12.63C17.1796 14.04 16.8196 15.46 15.9096 16.63C15.1296 17.64 13.9996 18.35 12.8896 18.55C12.6596 18.59 12.4196 18.61 12.1696 18.61Z" fill="white"/>
<path d="M21 40C13.28 40 7 32.37 7 23C7 13.63 13.28 6 21 6C28.72 6 35 13.63 35 23C35 32.37 28.72 40 21 40Z" fill="white"/>
<path d="M21 24C14.38 24 9 19.07 9 13C9 6.93 14.38 2 21 2C27.62 2 33 6.93 33 13C33 19.07 27.62 24 21 24Z" fill="white"/>
<path d="M21 38C14.38 38 9 31.27 9 23C9 21.71 9.14 20.4 9.42 19.11C9.53 18.58 9.86 18.12 10.32 17.83C10.64 17.63 11.01 17.53 11.38 17.53C11.54 17.53 11.71 17.55 11.87 17.59C12.29 17.7 22.14 20.26 31.03 27.8C31.7 28.37 31.92 29.31 31.57 30.12C29.48 34.98 25.43 38 21 38Z" fill="#221F1F"/>
<path d="M29.4602 16.5801C30.6602 16.7901 32.6302 15.9001 32.9602 14.0201C33.2902 12.1401 31.7502 10.6301 30.5502 10.4201C29.3502 10.2101 27.3802 11.1001 27.0502 12.9801C26.7202 14.8601 28.2602 16.3701 29.4602 16.5801Z" fill="#221F1F"/>
<path d="M12.5404 16.5801C11.3404 16.7901 9.37044 15.9001 9.04044 14.0201C8.71044 12.1401 10.2504 10.6301 11.4504 10.4201C12.6504 10.2101 14.6204 11.1001 14.9504 12.9801C15.2804 14.8601 13.7404 16.3701 12.5404 16.5801Z" fill="#221F1F"/>
<path d="M21 22C15.49 22 11 17.96 11 13C11 8.04 15.49 4 21 4C26.51 4 31 8.04 31 13C31 17.96 26.51 22 21 22Z" fill="#221F1F"/>
<path d="M21 20C25.4183 20 29 16.866 29 13C29 9.13401 25.4183 6 21 6C16.5817 6 13 9.13401 13 13C13 16.866 16.5817 20 21 20Z" fill="#F7DF69"/>
<path fill-rule="evenodd" clip-rule="evenodd" d="M12.2003 14.61C12.0103 14.64 11.1503 14.41 11.0203 13.68C10.8903 12.95 11.6203 12.43 11.8103 12.4C12.0003 12.37 12.8603 12.6 12.9903 13.33C13.1203 14.06 12.3903 14.58 12.2003 14.61Z" fill="#F4AB69"/>
<path fill-rule="evenodd" clip-rule="evenodd" d="M29.7995 14.61C29.9895 14.64 30.8495 14.41 30.9795 13.68C31.1095 12.95 30.3795 12.43 30.1895 12.4C29.9995 12.37 29.1395 12.6 29.0095 13.33C28.8795 14.06 29.6095 14.58 29.7995 14.61Z" fill="#F7DF69"/>
<path d="M25 13C24.45 13 24 12.55 24 12V11C24 10.45 24.45 10 25 10C25.55 10 26 10.45 26 11V12C26 12.55 25.55 13 25 13Z" fill="#221F1F"/>
<path d="M21 36C24.75 36 28.02 33.31 29.73 29.33C21.09 22 11.37 19.53 11.37 19.53C11.13 20.64 11 21.8 11 23C11 30.18 15.48 36 21 36Z" fill="#B9B9FF"/>
<path d="M13.2598 20.11C12.0798 19.71 11.3798 19.53 11.3798 19.53C11.1398 20.64 11.0098 21.8 11.0098 23C11.0098 30.18 15.4898 36 21.0098 36C23.5798 36 25.9098 34.74 27.6798 32.67C21.0398 31.43 15.6098 26.58 13.2598 20.1V20.11Z" fill="#9891F5"/>
<path d="M21.0005 38C27.6205 38 33.0005 31.27 33.0005 23C33.0005 21.71 32.8605 20.4 32.5805 19.11C32.4705 18.58 32.1405 18.12 31.6805 17.83C31.3605 17.63 30.9905 17.53 30.6205 17.53C30.4605 17.53 30.2905 17.55 30.1305 17.59C29.7105 17.7 19.8605 20.26 10.9705 27.8C10.3005 28.37 10.0805 29.31 10.4305 30.12C12.5205 34.98 16.5705 38 21.0005 38Z" fill="#221F1F"/>
<path d="M20.9995 36C17.2495 36 13.9795 33.31 12.2695 29.33C20.9095 22 30.6295 19.53 30.6295 19.53C30.8695 20.64 30.9995 21.8 30.9995 23C30.9995 30.18 26.5195 36 20.9995 36Z" fill="#B9B9FF"/>
<path d="M16.6295 26.0601C15.1795 27.0201 13.7095 28.1101 12.2695 29.3301C13.9795 33.3101 17.2495 36.0001 20.9995 36.0001C23.5595 36.0001 25.8895 34.7401 27.6595 32.6701C23.2795 31.8501 19.4195 29.4601 16.6295 26.0601Z" fill="#9891F5"/>
<path fill-rule="evenodd" clip-rule="evenodd" d="M17 8.5C17 7.95 17.05 7.41 17.13 6.88C14.67 8.07 13 10.37 13 13C13 16.87 16.58 20 21 20C22.08 20 23.1 19.81 24.04 19.48C19.85 17.36 17 13.24 17 8.5Z" fill="#F4AB69"/>
<path d="M20.9999 17.57C19.6799 17.57 18.4699 16.91 17.8299 15.84C17.5499 15.37 17.6999 14.75 18.1799 14.47C18.6599 14.19 19.2699 14.34 19.5499 14.82C19.8299 15.29 20.3899 15.58 20.9999 15.58C21.6099 15.58 22.1699 15.29 22.4499 14.82C22.7299 14.34 23.3499 14.19 23.8199 14.47C24.2899 14.75 24.4499 15.37 24.1699 15.84C23.5299 16.91 22.3199 17.57 20.9999 17.57Z" fill="#221F1F"/>
<path d="M17 13C16.45 13 16 12.55 16 12V11C16 10.45 16.45 10 17 10C17.55 10 18 10.45 18 11V12C18 12.55 17.55 13 17 13Z" fill="#221F1F"/>
</svg>
