<svg width="42" height="42" viewBox="0 0 42 42" fill="none" xmlns="http://www.w3.org/2000/svg">
<path d="M9.56 40C6.49 40 4 37.5 4 34.44V29.5C4 22.43 5.66 6 21 6C36.34 6 38 22.43 38 29.5V34.44C38 37.51 35.5 40 32.44 40H9.56Z" fill="white"/>
<path d="M21 20C17.69 20 15 17.31 15 14V8C15 4.69 17.69 2 21 2C24.31 2 27 4.69 27 8V14C27 17.31 24.31 20 21 20Z" fill="white"/>
<path d="M9.56 38C7.6 38 6 36.4 6 34.44V29.5C6 10.79 15.4 8 21 8C26.6 8 36 10.79 36 29.5V34.44C36 36.4 34.4 38 32.44 38H9.56Z" fill="#221F1F"/>
<path d="M21 4C18.8 4 17 5.8 17 8V14C17 16.2 18.8 18 21 18C23.2 18 25 16.2 25 14V8C25 5.8 23.2 4 21 4ZM23 14C23 15.1 22.1 16 21 16C19.9 16 19 15.1 19 14V8C19 6.9 19.9 6 21 6C22.1 6 23 6.9 23 8V14Z" fill="#221F1F"/>
<path d="M21 10C13 10 8 16 8 29.5V34.44C8 35.3 8.7 36 9.56 36H32.44C33.3 36 34 35.3 34 34.44V29.5C34 16 29 10 21 10Z" fill="#CAE5FF"/>
<path d="M8 29.4999V34.4399C8 35.2999 8.7 35.9999 9.56 35.9999H22.94C23.62 33.5199 24 30.8199 24 27.9999C24 20.7899 21.56 14.3999 17.78 10.3799C11.68 11.8699 8 17.9199 8 29.4999Z" fill="#8EBFE2"/>
<path d="M31 34.35V22.65C31 20.6342 29.3658 19 27.35 19H14.65C12.6342 19 11 20.6342 11 22.65V34.35C11 36.3658 12.6342 38 14.65 38H27.35C29.3658 38 31 36.3658 31 34.35Z" fill="#221F1F"/>
<path d="M27.35 21H14.65C13.7387 21 13 21.7387 13 22.65V34.35C13 35.2613 13.7387 36 14.65 36H27.35C28.2613 36 29 35.2613 29 34.35V22.65C29 21.7387 28.2613 21 27.35 21Z" fill="#CAE5FF"/>
<path d="M21 17C22.6569 17 24 16.1046 24 15C24 13.8954 22.6569 13 21 13C19.3431 13 18 13.8954 18 15C18 16.1046 19.3431 17 21 17Z" fill="#221F1F"/>
<path d="M20.93 36C20.56 30.07 18.59 24.79 15.61 21H14.65C13.74 21 13 21.74 13 22.65V34.35C13 35.26 13.74 36 14.65 36H20.93Z" fill="#8EBFE2"/>
<path d="M30 25H12V27H30V25Z" fill="#221F1F"/>
<path d="M18 27C18 27.55 18.45 28 19 28C19.55 28 20 27.55 20 27V26H18V27ZM14 27C14 27.55 14.45 28 15 28C15.55 28 16 27.55 16 27V26H14V27ZM22 27C22 27.55 22.45 28 23 28C23.55 28 24 27.55 24 27V26H22V27ZM26 26V27C26 27.55 26.45 28 27 28C27.55 28 28 27.55 28 27V26H26Z" fill="#221F1F"/>
</svg>
