<svg width="42" height="42" viewBox="0 0 42 42" fill="none" xmlns="http://www.w3.org/2000/svg">
<path d="M27.8704 40C24.6304 40 21.5904 38.74 19.3004 36.45L5.55043 22.7C0.82043 17.97 0.82043 10.28 5.55043 5.55C7.84043 3.26 10.8904 2 14.1304 2C17.3704 2 20.4104 3.26 22.7004 5.55L36.4504 19.3C41.1804 24.03 41.1804 31.72 36.4504 36.45C34.1604 38.74 31.1104 40 27.8704 40Z" fill="white"/>
<path d="M27.8696 38C25.1596 38 22.6196 36.95 20.7096 35.03L6.95957 21.28C3.00957 17.33 3.00957 10.91 6.95957 6.95999C8.86957 5.04999 11.4196 3.98999 14.1196 3.98999C16.8196 3.98999 19.3696 5.03999 21.2796 6.95999L35.0296 20.71C38.9796 24.66 38.9796 31.08 35.0296 35.03C33.1196 36.94 30.5696 38 27.8696 38Z" fill="#221F1F"/>
<path d="M19.8733 8.38519C16.6983 5.21022 11.5522 5.20864 8.37921 8.38165C5.2062 11.5546 5.20778 16.7007 8.38275 19.8756L22.1219 33.6147C25.2968 36.7897 30.4429 36.7913 33.6159 33.6182C36.7889 30.4452 36.7873 25.2992 33.6123 22.1242L19.8733 8.38519Z" fill="#FFCCBD"/>
<path d="M8.38043 19.8699L22.1304 33.6199C25.3004 36.7899 30.4504 36.7899 33.6204 33.6199L8.38043 8.37988C5.21043 11.5499 5.21043 16.6999 8.38043 19.8699Z" fill="#F0AA97"/>
<path d="M14.9721 18.5464L18.5501 14.9685C19.9006 13.6179 22.0998 13.6108 23.4574 14.9685L27.0354 18.5464C28.3859 19.897 28.393 22.0961 27.0354 23.4538L23.4574 27.0317C22.1068 28.3823 19.9077 28.3894 18.5501 27.0317L14.9721 23.4538C13.6215 22.1032 13.6145 19.9041 14.9721 18.5464Z" fill="#221F1F"/>
<path d="M19.9651 16.3825L16.3871 19.9605C15.813 20.5345 15.813 21.4653 16.3871 22.0393L19.9651 25.6173C20.5391 26.1914 21.4699 26.1914 22.044 25.6173L25.6219 22.0393C26.196 21.4653 26.196 20.5345 25.6219 19.9605L22.044 16.3825C21.4699 15.8084 20.5391 15.8084 19.9651 16.3825Z" fill="#FFCCBD"/>
<path d="M22.8296 24.8299L17.1696 19.1699L16.3796 19.9599C15.8096 20.5299 15.8096 21.4599 16.3796 22.0399L19.9596 25.6199C20.5296 26.1899 21.4596 26.1899 22.0396 25.6199L22.8296 24.8299Z" fill="#F0AA97"/>
<path d="M12.5098 17.76C13.0621 17.76 13.5098 17.3123 13.5098 16.76C13.5098 16.2077 13.0621 15.76 12.5098 15.76C11.9575 15.76 11.5098 16.2077 11.5098 16.76C11.5098 17.3123 11.9575 17.76 12.5098 17.76Z" fill="#221F1F"/>
<path d="M12.9697 13.97C13.522 13.97 13.9697 13.5223 13.9697 12.97C13.9697 12.4177 13.522 11.97 12.9697 11.97C12.4174 11.97 11.9697 12.4177 11.9697 12.97C11.9697 13.5223 12.4174 13.97 12.9697 13.97Z" fill="#221F1F"/>
<path d="M16.7598 13.51C17.3121 13.51 17.7598 13.0623 17.7598 12.51C17.7598 11.9577 17.3121 11.51 16.7598 11.51C16.2075 11.51 15.7598 11.9577 15.7598 12.51C15.7598 13.0623 16.2075 13.51 16.7598 13.51Z" fill="#221F1F"/>
<path d="M9.19043 14.4299C9.74271 14.4299 10.1904 13.9822 10.1904 13.4299C10.1904 12.8776 9.74271 12.4299 9.19043 12.4299C8.63814 12.4299 8.19043 12.8776 8.19043 13.4299C8.19043 13.9822 8.63814 14.4299 9.19043 14.4299Z" fill="#221F1F"/>
<path d="M13.4297 10.1899C13.982 10.1899 14.4297 9.74223 14.4297 9.18994C14.4297 8.63766 13.982 8.18994 13.4297 8.18994C12.8774 8.18994 12.4297 8.63766 12.4297 9.18994C12.4297 9.74223 12.8774 10.1899 13.4297 10.1899Z" fill="#221F1F"/>
<path d="M25.2402 30.49C25.7925 30.49 26.2402 30.0423 26.2402 29.49C26.2402 28.9377 25.7925 28.49 25.2402 28.49C24.6879 28.49 24.2402 28.9377 24.2402 29.49C24.2402 30.0423 24.6879 30.49 25.2402 30.49Z" fill="#221F1F"/>
<path d="M29.0303 30.03C29.5826 30.03 30.0303 29.5823 30.0303 29.03C30.0303 28.4777 29.5826 28.03 29.0303 28.03C28.478 28.03 28.0303 28.4777 28.0303 29.03C28.0303 29.5823 28.478 30.03 29.0303 30.03Z" fill="#221F1F"/>
<path d="M29.4902 26.24C30.0425 26.24 30.4902 25.7923 30.4902 25.24C30.4902 24.6877 30.0425 24.24 29.4902 24.24C28.9379 24.24 28.4902 24.6877 28.4902 25.24C28.4902 25.7923 28.9379 26.24 29.4902 26.24Z" fill="#221F1F"/>
<path d="M28.5703 33.8101C29.1226 33.8101 29.5703 33.3624 29.5703 32.8101C29.5703 32.2578 29.1226 31.8101 28.5703 31.8101C28.018 31.8101 27.5703 32.2578 27.5703 32.8101C27.5703 33.3624 28.018 33.8101 28.5703 33.8101Z" fill="#221F1F"/>
<path d="M32.8096 29.5701C33.3619 29.5701 33.8096 29.1224 33.8096 28.5701C33.8096 28.0178 33.3619 27.5701 32.8096 27.5701C32.2573 27.5701 31.8096 28.0178 31.8096 28.5701C31.8096 29.1224 32.2573 29.5701 32.8096 29.5701Z" fill="#221F1F"/>
</svg>
