<svg width="42" height="42" viewBox="0 0 42 42" fill="none" xmlns="http://www.w3.org/2000/svg">
<path d="M21.0099 40C12.5799 40 5.05986 34.34 2.73986 26.23C-0.150141 16.17 5.68986 5.62 15.7599 2.74C17.4699 2.25 19.2299 2 20.9899 2C29.4199 2 36.9399 7.66 39.2599 15.77C42.1499 25.84 36.2999 36.38 26.2299 39.27C24.5199 39.76 22.7599 40.01 20.9999 40.01L21.0099 40Z" fill="white"/>
<path d="M25.6901 37.3394C16.6801 39.9194 7.25007 34.6994 4.66007 25.6794C2.07007 16.6594 7.30007 7.23939 16.3101 4.65939C25.3201 2.07939 34.7501 7.29939 37.3401 16.3194C39.9201 25.3294 34.7001 34.7594 25.6801 37.3494L25.6901 37.3394Z" fill="#221F1F"/>
<path d="M21 36C29.2843 36 36 29.2843 36 21C36 12.7157 29.2843 6 21 6C12.7157 6 6 12.7157 6 21C6 29.2843 12.7157 36 21 36Z" fill="#F9A936"/>
<path d="M16.8699 6.57956C15.3199 7.01956 13.8999 7.69956 12.6299 8.55956C15.3799 18.5996 21.4799 27.2496 29.6599 33.2296C34.7199 29.6496 37.2199 23.1596 35.4199 16.8596C33.1399 8.89956 24.8299 4.28956 16.8699 6.57956Z" fill="#FFD781"/>
<path d="M6.32006 14.6704C9.60006 16.3804 12.2101 19.3704 13.3101 23.2104C14.4101 27.0404 13.7801 30.9604 11.9001 34.1604C12.4501 34.5404 13.0301 34.8704 13.6201 35.1804C15.7701 31.5304 16.4901 27.0504 15.2301 22.6604C13.9701 18.2704 10.9901 14.8604 7.23006 12.9004C6.89006 13.4704 6.58006 14.0604 6.31006 14.6804L6.32006 14.6704Z" fill="#221F1F"/>
<path d="M30.1 7.84984C28.22 11.0398 27.59 14.9598 28.69 18.7998C29.79 22.6398 32.4 25.6198 35.68 27.3398C35.42 27.9498 35.1 28.5398 34.76 29.1198C31 27.1598 28.02 23.7398 26.76 19.3598C25.5 14.9798 26.22 10.4898 28.37 6.83984C28.96 7.14984 29.54 7.47984 30.09 7.85984L30.1 7.84984Z" fill="#221F1F"/>
<path d="M17.549 5.34717L15.6265 5.89845L24.4469 36.6588L26.3694 36.1075L17.549 5.34717Z" fill="#221F1F"/>
<path d="M5.34668 24.4505L5.89796 26.373L36.6583 17.5527L36.107 15.6301L5.34668 24.4505Z" fill="#221F1F"/>
</svg>
