<svg width="42" height="42" viewBox="0 0 42 42" fill="none" xmlns="http://www.w3.org/2000/svg">
<path d="M20.9699 40C17.6499 40 14.3799 39.12 11.4999 37.46C2.42986 32.22 -0.690149 20.57 4.54985 11.5C7.92985 5.64 14.2399 2 21.0299 2C24.3499 2 27.6199 2.88 30.4999 4.54C39.5699 9.78 42.6899 21.42 37.4499 30.5C34.0699 36.36 27.7499 40 20.9699 40Z" fill="white"/>
<path d="M12.5001 35.7206C4.38008 31.0406 1.59009 20.6206 6.28008 12.5006C10.9601 4.38057 21.3801 1.59057 29.5001 6.28057C37.6201 10.9706 40.4101 21.3806 35.7201 29.5006C31.0301 37.6206 20.6201 40.4106 12.5001 35.7206Z" fill="#221F1F"/>
<path d="M21 36C29.2843 36 36 29.2843 36 21C36 12.7157 29.2843 6 21 6C12.7157 6 6 12.7157 6 21C6 29.2843 12.7157 36 21 36Z" fill="white"/>
<path d="M13.4998 33.9902C19.9898 37.7402 28.0998 36.0702 32.6598 30.4102C27.7198 32.1502 22.0798 31.8102 17.1898 28.9902C11.4698 25.6902 8.18982 19.8002 7.93982 13.6602C3.91982 20.8102 6.38982 29.8802 13.5098 33.9902H13.4998Z" fill="#CAE5FF"/>
<path d="M32.6399 10.0293C30.2999 10.2593 27.6499 10.9293 25.0399 12.4393C22.6999 13.7993 21.3499 14.8793 21.3799 16.3893C21.3899 17.2293 21.8599 17.9793 22.6199 18.3893C23.4699 18.8493 24.9099 18.9093 26.9199 18.5793C27.5599 18.7893 28.8999 19.2693 30.3799 20.0793C32.5699 21.2593 35.1799 23.2193 36.1799 26.0593C38.0499 20.4593 36.6399 14.2693 32.6399 10.0293Z" fill="#221F1F"/>
<path d="M33.0099 12.0098C30.8799 12.1998 28.4399 12.7898 26.0499 14.1798C19.5099 17.9698 27.0399 16.5398 27.0399 16.5398C27.0399 16.5398 32.5499 18.0398 35.9599 21.8898C36.1599 18.3698 35.1299 14.8498 32.9999 12.0198L33.0099 12.0098Z" fill="#A2D6FF"/>
<path d="M24.68 5.42964C19 4.08964 12.94 5.95964 9.02002 10.3796C11.99 9.81964 14.98 11.1096 17.1 12.4096C18.54 13.2896 19.63 14.2096 20.13 14.6596C20.84 16.5596 21.62 17.7796 22.44 18.2896C23.18 18.7396 24.06 18.7696 24.79 18.3596C26.11 17.6196 26.38 15.9096 26.38 13.2096C26.38 10.1896 25.64 7.55964 24.67 5.41964L24.68 5.42964Z" fill="#221F1F"/>
<path d="M22.7898 6.11012C19.2698 5.69012 15.7098 6.55012 12.7598 8.49012C17.7998 9.52012 21.8498 13.5401 21.8498 13.5401C21.8498 13.5401 24.3698 20.7801 24.3898 13.2201C24.3898 10.4601 23.6898 8.05012 22.7898 6.11012Z" fill="#9CDB9C"/>
<path d="M25.0998 17.1202L23.6898 16.2702L22.3098 15.5102C21.7798 15.2202 21.1498 15.1802 20.5898 15.4102C19.6798 15.7802 12.0698 19.1202 7.06982 28.8302C8.42982 31.2602 10.4198 33.3702 12.9998 34.8602C15.5798 36.3502 18.3998 37.0202 21.1898 36.9802C27.0998 27.7902 26.1898 19.5302 26.0498 18.5602C25.9698 17.9602 25.6198 17.4302 25.0998 17.1202Z" fill="#221F1F"/>
<path d="M22.7201 18.0198L21.3401 17.2598C20.6601 17.5298 13.5401 20.6198 8.83008 29.7598C10.0301 31.4298 11.5901 32.8898 13.4901 33.9898C15.3901 35.0898 17.4301 35.7098 19.4801 35.9098C25.0401 27.2598 24.1501 19.5498 24.0501 18.8198L22.7001 18.0098L22.7201 18.0198Z" fill="#F0AA97"/>
<path d="M13.5001 33.9899C15.4001 35.0899 17.4401 35.7099 19.4901 35.9099C20.5901 34.1999 21.4301 32.5299 22.0801 30.9399C20.4001 30.5299 18.7501 29.8899 17.1801 28.9799C15.1901 27.8299 13.5001 26.3499 12.1201 24.6699C10.9701 26.1099 9.84008 27.7799 8.83008 29.7499C10.0301 31.4199 11.5901 32.8799 13.4901 33.9799L13.5001 33.9899Z" fill="#D88C7D"/>
<path d="M28.4602 17.2233C29.5648 15.3101 28.6844 12.734 26.4938 11.4692C24.3033 10.2045 21.632 10.7302 20.5274 12.6433C19.4229 14.5565 20.3033 17.1327 22.4938 18.3974C24.6844 19.6622 27.3557 19.1365 28.4602 17.2233Z" fill="#221F1F"/>
<path d="M23.5 16.6699C22.29 15.9699 21.73 14.5899 22.27 13.6499C22.81 12.7099 24.29 12.4999 25.5 13.1999C26.71 13.8999 27.27 15.2799 26.73 16.2199C26.19 17.1599 24.71 17.3699 23.5 16.6699Z" fill="#FCD26E"/>
</svg>
