<svg width="42" height="42" viewBox="0 0 42 42" fill="none" xmlns="http://www.w3.org/2000/svg">
<path d="M40 21.39C40 18.42 37.58 16 34.61 16H22.99C22.88 13.39 21.81 10.91 19.95 9.05C18.05 7.15 15.54 6.08 12.86 6.01C12.42 4.28 10.86 3 9 3H6C3.79 3 2 4.79 2 7V36C2 38.21 3.79 40 6 40H9C11.21 40 13 38.21 13 36V35H29V36C29 38.21 30.79 40 33 40H36C38.21 40 40 38.21 40 36V28C40 27.44 39.88 26.9 39.67 26.41C39.87 25.84 40 25.24 40 24.61V21.39Z" fill="white"/>
<path d="M13 16H10V20H13V16Z" fill="#221F1F"/>
<path d="M33 38C31.9 38 31 37.1 31 36V33H11V36C11 37.1 10.1 38 9 38H6C4.9 38 4 37.1 4 36V7C4 5.9 4.9 5 6 5H9C10.1 5 11 5.9 11 7V26H36C37.1 26 38 26.9 38 28V36C38 37.1 37.1 38 36 38H33Z" fill="#221F1F"/>
<path d="M38 24.61V21.39C38 19.5178 36.4822 18 34.61 18H12.39C10.5178 18 9 19.5178 9 21.39V24.61C9 26.4822 10.5178 28 12.39 28H34.61C36.4822 28 38 26.4822 38 24.61Z" fill="#221F1F"/>
<path d="M35 28H33H9V7H6V36H9V31H33V36H36V28H35Z" fill="#F7DF69"/>
<path d="M17.4202 20C15.1702 20 13.0502 19.12 11.4702 17.54C9.7702 15.84 8.8802 13.48 9.0202 11.08C9.1202 9.44 10.4302 8.12 12.0802 8.02C12.2502 8.01 12.4202 8 12.5902 8C14.8402 8 16.9602 8.88 18.5402 10.46C20.2402 12.16 21.1302 14.52 20.9902 16.92C20.8902 18.56 19.5802 19.88 17.9302 19.98C17.7602 19.99 17.5902 20 17.4202 20Z" fill="#221F1F"/>
<path d="M12.8805 16.1199C14.2305 17.4699 16.0405 18.0899 17.8105 17.9899C18.4405 17.9499 18.9505 17.4399 18.9905 16.8099C19.1005 15.0399 18.4805 13.2299 17.1205 11.8799C15.7705 10.5299 13.9605 9.90993 12.1905 10.0099C11.5605 10.0499 11.0505 10.5599 11.0105 11.1899C10.9005 12.9599 11.5205 14.7699 12.8805 16.1199Z" fill="white"/>
<path d="M34.61 20H12.39C11.6223 20 11 20.6223 11 21.39V24.61C11 25.3777 11.6223 26 12.39 26H34.61C35.3777 26 36 25.3777 36 24.61V21.39C36 20.6223 35.3777 20 34.61 20Z" fill="#9CDB9C"/>
<path d="M34.6103 20H22.5703L26.4303 26H34.6103C35.3703 26 36.0003 25.38 36.0003 24.61V21.39C36.0003 20.63 35.3803 20 34.6103 20Z" fill="#B7EDB7"/>
<path d="M11 27H9V32H11V27Z" fill="#221F1F"/>
<path d="M12.8803 16.1199C14.2303 17.4699 16.0403 18.0899 17.8103 17.9899C18.4403 17.9499 18.9503 17.4399 18.9903 16.8099C19.0303 16.0799 18.9503 15.3399 18.7403 14.6399C16.6103 13.3699 13.9603 12.4899 11.0303 12.1599C11.1603 13.6099 11.7703 15.0199 12.8703 16.1299L12.8803 16.1199Z" fill="#CAE5FF"/>
<path d="M33 27H31V33H33V27Z" fill="#221F1F"/>
</svg>
