<svg width="42" height="42" viewBox="0 0 42 42" fill="none" xmlns="http://www.w3.org/2000/svg">
<path d="M33.8799 26.15L28.8798 9.15C28.5098 7.88 27.3198 7 25.9998 7H22.9398C21.2898 7 19.9398 8.35 19.9398 10C19.9398 10.77 20.2298 11.47 20.7098 12H18.8298C18.9398 11.69 18.9998 11.35 18.9998 11C18.9998 9.35 17.6498 8 15.9998 8H10.9999C9.34985 8 7.99985 9.35 7.99985 11C7.99985 12.65 9.34985 14 10.9999 14H11.6198L12.4398 15.75L8.22985 25.85C7.83985 26.78 7.93985 27.83 8.49985 28.67C9.05985 29.51 9.98985 30.01 10.9999 30.01H20.9998C21.3398 30.01 21.6598 29.95 21.9898 29.83C22.0798 29.8 22.1798 29.77 22.2598 29.73C22.3398 29.69 22.4298 29.65 22.5098 29.59C22.7798 29.43 23.0199 29.25 23.1999 29.05C23.2499 29 23.2998 28.94 23.3398 28.88C23.4698 28.72 23.5798 28.55 23.6798 28.36L26.5898 22.62L28.1298 27.85C28.4998 29.12 29.6898 30 31.0098 30C31.2998 30 31.5898 29.96 31.8598 29.88C32.6298 29.65 33.2599 29.14 33.6499 28.44C34.0299 27.74 34.1198 26.93 33.8898 26.16L33.8799 26.15Z" fill="white"/>
<path d="M11 36C6.04 36 2 31.96 2 27C2 22.04 6.04 18 11 18C15.96 18 20 22.04 20 27C20 31.96 15.96 36 11 36Z" fill="white"/>
<path d="M31 36C26.04 36 22 31.96 22 27C22 22.04 26.04 18 31 18C35.96 18 40 22.04 40 27C40 31.96 35.96 36 31 36Z" fill="white"/>
<path d="M11 34C14.866 34 18 30.866 18 27C18 23.134 14.866 20 11 20C7.13401 20 4 23.134 4 27C4 30.866 7.13401 34 11 34Z" fill="#221F1F"/>
<path d="M11 32C13.7614 32 16 29.7614 16 27C16 24.2386 13.7614 22 11 22C8.23858 22 6 24.2386 6 27C6 29.7614 8.23858 32 11 32Z" fill="white"/>
<path d="M31 34C34.866 34 38 30.866 38 27C38 23.134 34.866 20 31 20C27.134 20 24 23.134 24 27C24 30.866 27.134 34 31 34Z" fill="#221F1F"/>
<path d="M31 32C33.7614 32 36 29.7614 36 27C36 24.2386 33.7614 22 31 22C28.2386 22 26 24.2386 26 27C26 29.7614 28.2386 32 31 32Z" fill="white"/>
<path d="M21.0002 28.0002H11.0002C10.6702 28.0002 10.3502 27.8302 10.1702 27.5502C9.99023 27.2702 9.95023 26.9202 10.0802 26.6102L15.0802 14.6102C15.2402 14.2402 15.6002 13.9902 16.0002 13.9902H27.0802C27.4302 13.9902 27.7502 14.1702 27.9302 14.4702C28.1102 14.7702 28.1302 15.1402 27.9702 15.4502L21.8902 27.4502C21.7202 27.7902 21.3702 28.0002 21.0002 28.0002ZM12.5002 26.0002H20.3902L25.4602 16.0002H16.6702L12.5002 26.0002Z" fill="#221F1F"/>
<path d="M30.9999 28C30.5699 28 30.1699 27.72 30.0399 27.28L25.2499 11H22.9399C22.3899 11 21.9399 10.55 21.9399 10C21.9399 9.45 22.3899 9 22.9399 9H25.9999C26.4399 9 26.8299 9.29 26.9599 9.72L31.9599 26.72C32.1199 27.25 31.8099 27.81 31.2799 27.96C31.1899 27.99 31.0899 28 30.9999 28Z" fill="#221F1F"/>
<path d="M21.0001 27.9991C20.6201 27.9991 20.2601 27.7891 20.0901 27.4191L13.0901 12.4191C12.8601 11.9191 13.0701 11.3191 13.5701 11.0891C14.0701 10.8592 14.6701 11.0691 14.9001 11.5691L21.9001 26.5691C22.1301 27.0691 21.9201 27.6691 21.4201 27.8991C21.2801 27.9591 21.1401 27.9891 21.0001 27.9891V27.9991Z" fill="#221F1F"/>
<path d="M16 10H11C10.4477 10 10 10.4477 10 11C10 11.5523 10.4477 12 11 12H16C16.5523 12 17 11.5523 17 11C17 10.4477 16.5523 10 16 10Z" fill="#221F1F"/>
</svg>
