<svg width="42" height="42" viewBox="0 0 42 42" fill="none" xmlns="http://www.w3.org/2000/svg">
<path d="M26 17V11C26 8.79086 24.2091 7 22 7H20C17.7909 7 16 8.79086 16 11V17C16 19.2091 17.7909 21 20 21H22C24.2091 21 26 19.2091 26 17Z" fill="white"/>
<path d="M40 22.17V36C40 38.21 38.21 40 36 40H6C3.79 40 2 38.21 2 36V22.17C2 18.76 4.77 16 8.17 16H33.83C37.24 16 40 18.77 40 22.17Z" fill="white"/>
<path d="M20 19C18.9 19 18 20.1 18 19V11C18 9.9 18.9 9 20 9H22C23.1 9 24 9.9 24 11V19C24 20.1 23.1 19 22 19H20Z" fill="#221F1F"/>
<path d="M38 22.17V36C38 37.1 37.1 38 36 38H6C4.9 38 4 37.1 4 36V22.17C4 19.87 5.87 18 8.17 18H33.83C36.13 18 38 19.87 38 22.17Z" fill="#221F1F"/>
<path d="M8.17 20H33.82C35.02 20 35.99 20.97 35.99 22.17V36H6V22.17C6 20.97 6.97 20 8.17 20Z" fill="white"/>
<path d="M13.42 20H8.17C6.97 20 6 20.97 6 22.17V36H18.19C17.27 29.92 15.62 24.45 13.43 20H13.42Z" fill="#CAE5FF"/>
<path d="M26.3598 28.9998C24.3498 28.9998 23.2298 28.1598 22.4798 27.5998C21.9098 27.1698 21.6698 26.9998 20.9898 26.9998C20.3098 26.9998 20.0698 27.1798 19.4998 27.5998C18.7498 28.1598 17.6198 28.9998 15.6198 28.9998C13.6198 28.9998 12.4898 28.1598 11.7398 27.5998C11.1698 27.1698 10.9298 26.9998 10.2498 26.9998C9.56977 26.9998 9.32977 27.1798 8.74977 27.6098C8.24977 27.9798 7.54977 28.4998 6.54977 28.7798C6.36977 28.8298 6.18977 28.8598 6.00977 28.8598C5.57977 28.8598 5.14977 28.7198 4.79977 28.4498C4.29977 28.0698 4.00977 27.4798 4.00977 26.8598V22.1798C4.00977 19.8798 5.87977 18.0098 8.17977 18.0098H33.8298C36.1298 18.0098 37.9998 19.8798 37.9998 22.1798V26.8598C37.9998 27.4898 37.7098 28.0698 37.2098 28.4498C36.8598 28.7198 36.4298 28.8598 35.9998 28.8598C35.8198 28.8598 35.6398 28.8398 35.4598 28.7898C34.4498 28.5098 33.7498 27.9898 33.2398 27.6198C32.6598 27.1898 32.4198 27.0098 31.7398 27.0098C31.0598 27.0098 30.8198 27.1898 30.2498 27.6098C29.4998 28.1698 28.3698 29.0098 26.3698 29.0098L26.3598 28.9998Z" fill="#221F1F"/>
<path d="M33.83 20H8.17C6.97 20 6 20.97 6 22.17V26.85C7.63 26.39 8 25 10.25 25C12.94 25 12.94 27 15.62 27C18.3 27 18.31 25 20.99 25C23.67 25 23.68 27 26.36 27C29.04 27 29.05 25 31.74 25C33.99 25 34.36 26.4 36 26.85V22.17C36 20.97 35.03 20 33.83 20Z" fill="#FFCCBD"/>
<path d="M13.42 20H8.17C6.97 20 6 20.97 6 22.17V26.85C7.63 26.39 8 25 10.25 25C12.94 25 12.94 27 15.62 27C15.82 27 15.99 26.99 16.16 26.97C15.38 24.45 14.46 22.11 13.42 20Z" fill="#D88C7D"/>
<path d="M22 11H20V18H22V11Z" fill="white"/>
<path d="M21 2C19.81 2.7 19 4 19 5.5C19 7 19.81 8.3 21 9C22.19 8.3 23 7 23 5.5C23 4 22.19 2.7 21 2Z" fill="#E0B344"/>
</svg>
