<svg width="42" height="42" viewBox="0 0 42 42" fill="none" xmlns="http://www.w3.org/2000/svg">
<path d="M26 17V11C26 8.79086 24.2091 7 22 7H20C17.7909 7 16 8.79086 16 11V17C16 19.2091 17.7909 21 20 21H22C24.2091 21 26 19.2091 26 17Z" fill="white"/>
<path d="M35 20.17V28C35 30.21 33.21 32 31 32H11C8.79 32 7 30.21 7 28V20.17C7 16.76 9.77 14 13.17 14H28.82C32.23 14 34.99 16.77 34.99 20.17H35Z" fill="white"/>
<path d="M40 29.17V36C40 38.21 38.21 40 36 40H6C3.79 40 2 38.21 2 36V29.17C2 25.76 4.77 23 8.17 23H33.82C37.23 23 39.99 25.77 39.99 29.17H40Z" fill="white"/>
<path d="M24 17V11C24 9.89543 23.1046 9 22 9H20C18.8954 9 18 9.89543 18 11V17C18 18.1046 18.8954 19 20 19H22C23.1046 19 24 18.1046 24 17Z" fill="#221F1F"/>
<path d="M33 20.17V28C33 29.1 32.1 30 31 30H11C9.9 30 9 29.1 9 28V20.17C9 17.87 10.87 16 13.17 16H28.82C31.12 16 32.99 17.87 32.99 20.17H33Z" fill="#221F1F"/>
<path d="M38 29.17V36C38 37.1 37.1 38 36 38H6C4.9 38 4 37.1 4 36V29.17C4 26.87 5.87 25 8.17 25H33.82C36.12 25 37.99 26.87 37.99 29.17H38Z" fill="#221F1F"/>
<path d="M8.17 27H33.82C35.02 27 35.99 27.97 35.99 29.17V36H6V29.17C6 27.97 6.97 27 8.17 27Z" fill="white"/>
<path d="M6 29.17V36H16V27H8.17C6.97 27 6 27.97 6 29.17Z" fill="#CAE5FF"/>
<path d="M13.17 18H28.82C30.02 18 30.99 18.97 30.99 20.17V28H11V20.17C11 18.97 11.97 18 13.17 18Z" fill="white"/>
<path d="M17 26V18H13.17C11.97 18 11 18.97 11 20.17V26H17Z" fill="#CAE5FF"/>
<path d="M26.3598 33.9998C24.3498 33.9998 23.2298 33.1598 22.4798 32.5998C21.9098 32.1698 21.6698 31.9998 20.9898 31.9998C20.3098 31.9998 20.0698 32.1798 19.4998 32.5998C18.7498 33.1598 17.6198 33.9998 15.6198 33.9998C13.6198 33.9998 12.4898 33.1598 11.7398 32.5998C11.1698 32.1698 10.9298 31.9998 10.2498 31.9998C9.56977 31.9998 9.32977 32.1798 8.74977 32.6098C8.24977 32.9798 7.54977 33.4998 6.54977 33.7798C6.36977 33.8298 6.18977 33.8598 6.00977 33.8598C5.57977 33.8598 5.14977 33.7198 4.79977 33.4498C4.29977 33.0698 4.00977 32.4798 4.00977 31.8598V29.1798C4.00977 26.8798 5.87977 25.0098 8.17977 25.0098H33.8298C36.1298 25.0098 37.9998 26.8798 37.9998 29.1798V31.8598C37.9998 32.4898 37.7098 33.0698 37.2098 33.4498C36.8598 33.7198 36.4298 33.8598 35.9998 33.8598C35.8198 33.8598 35.6398 33.8398 35.4598 33.7898C34.4498 33.5098 33.7498 32.9898 33.2398 32.6198C32.6598 32.1898 32.4198 32.0098 31.7398 32.0098C31.0598 32.0098 30.8198 32.1898 30.2498 32.6098C29.4998 33.1698 28.3698 34.0098 26.3698 34.0098L26.3598 33.9998Z" fill="#221F1F"/>
<path d="M33.83 27H8.17C6.97 27 6 27.97 6 29.17V31.85C7.63 31.39 8 30 10.25 30C12.94 30 12.94 32 15.62 32C18.3 32 18.31 30 20.99 30C23.67 30 23.68 32 26.36 32C29.04 32 29.05 30 31.74 30C33.99 30 34.36 31.4 36 31.85V29.17C36 27.97 35.03 27 33.83 27Z" fill="#FFCCBD"/>
<path d="M6 29.17V31.85C7.63 31.39 8 30 10.25 30C12.94 30 12.94 32 15.62 32C15.76 32 15.88 32 16 31.98V27H8.17C6.97 27 6 27.97 6 29.17Z" fill="#D88C7D"/>
<path d="M21.1198 24C19.1098 24 17.9898 23.16 17.2398 22.6C16.6698 22.17 16.4298 22 15.7498 22C15.0698 22 14.8298 22.18 14.2498 22.6C13.6098 23.08 12.7198 23.73 11.2798 23.93C11.1898 23.94 11.0998 23.95 11.0098 23.95C10.5298 23.95 10.0598 23.78 9.69977 23.46C9.25977 23.08 9.00977 22.53 9.00977 21.95V20.17C9.00977 17.87 10.8798 16 13.1798 16H28.8298C31.1298 16 32.9998 17.87 32.9998 20.17V21.92C32.9998 22.52 32.7298 23.09 32.2698 23.47C31.9098 23.77 31.4598 23.92 30.9998 23.92C30.8698 23.92 30.7398 23.91 30.6098 23.88C29.3698 23.63 28.5698 23.04 27.9898 22.61C27.4198 22.18 27.1798 22.01 26.4998 22.01C25.8198 22.01 25.5798 22.19 25.0098 22.61C24.2598 23.17 23.1298 24.01 21.1298 24.01L21.1198 24Z" fill="#221F1F"/>
<path d="M28.8298 18H13.1798C11.9798 18 11.0098 18.97 11.0098 20.17V21.95C13.0798 21.66 13.2998 20 15.7598 20C18.4498 20 18.4498 22 21.1298 22C23.8098 22 23.8198 20 26.4998 20C28.8598 20 29.1498 21.54 31.0098 21.92V20.17C31.0098 18.97 30.0398 18 28.8398 18H28.8298Z" fill="#FFCCBD"/>
<path d="M17 18H13.17C11.97 18 11 18.97 11 20.17V21.95C13.07 21.66 13.29 20 15.75 20C16.25 20 16.66 20.07 17 20.18V18Z" fill="#D88C7D"/>
<path d="M22 11H20V16H22V11Z" fill="white"/>
<path d="M21 2C19.81 2.7 19 4 19 5.5C19 7 19.81 8.3 21 9C22.19 8.3 23 7 23 5.5C23 4 22.19 2.7 21 2Z" fill="#E0B344"/>
</svg>
