<svg width="42" height="42" viewBox="0 0 42 42" fill="none" xmlns="http://www.w3.org/2000/svg">
<path d="M24.4805 39.9998C19.3005 39.8198 16.2505 36.4498 14.8905 34.4598L12.2505 30.6998C11.0705 29.0098 11.1005 26.7698 12.3205 25.1098L13.4105 23.6398L3.50047 9.48981C2.23047 7.67981 2.68047 5.1798 4.48047 3.9198L6.12047 2.7698C6.80047 2.2998 7.59047 2.0498 8.41047 2.0498C9.72047 2.0498 10.9405 2.6898 11.6905 3.7598L21.6005 17.9098L23.3505 17.3898C23.7905 17.2598 24.2505 17.1898 24.7105 17.1898C26.2705 17.1898 27.7305 17.9498 28.6205 19.2298L30.3305 21.6698C30.4105 21.7598 30.4805 21.8498 30.5505 21.9398C30.5505 21.9398 32.4905 24.4898 35.3205 24.5898C37.0405 24.6498 38.5205 25.7998 39.0105 27.4498C39.5005 29.0898 38.9005 30.8498 37.5105 31.8398C37.5005 31.8498 26.8905 39.2798 26.8905 39.2798C26.2205 39.7498 25.4305 39.9998 24.6105 39.9998C24.6105 39.9998 24.4905 39.9998 24.4705 39.9998H24.4805Z" fill="white"/>
<path d="M16.5596 33.3704L19.4696 32.2804L16.5996 28.1904L14.1396 29.9104L16.5596 33.3704Z" fill="#221F1F"/>
<path d="M35.26 26.6004C31.36 26.4704 28.92 23.1204 28.9 23.1004C28.27 22.2004 27.02 21.9804 26.11 22.6104L16.28 29.4904C16.09 29.6304 15.92 29.7904 15.79 29.9704L21.26 26.1404L28.14 35.9704L36.33 30.2304C37.04 29.7404 37.35 28.8504 37.1 28.0204C36.85 27.1904 36.11 26.6204 35.25 26.5904L35.26 26.6004Z" fill="#221F1F"/>
<path d="M25.7603 37.6405C25.4103 37.8905 24.9803 38.0105 24.5503 38.0005C18.3903 37.7805 15.8003 32.1105 15.6903 31.8705C15.3003 31.0005 15.5803 29.9705 16.3603 29.4305L26.1403 22.5805C27.0403 21.9505 28.2803 22.1705 28.9203 23.0805C28.9403 23.1105 31.3803 26.4605 35.2703 26.5905C36.1303 26.6205 36.8703 27.2005 37.1203 28.0205C37.3703 28.8405 37.0603 29.7305 36.3603 30.2205L25.7703 37.6405H25.7603Z" fill="#221F1F"/>
<path d="M35.1897 28.5905C30.1897 28.4305 27.2597 24.2305 27.2597 24.2305L17.4297 31.1105C17.4297 31.1105 19.5497 35.8805 24.5397 36.0405L35.1897 28.5805V28.5905Z" fill="#EDD286"/>
<path d="M28.3903 22.3701L28.9003 23.0901L28.1503 23.7601L27.5703 22.9401L28.3903 22.3701Z" fill="#221F1F"/>
<path d="M17.4502 31.1596C17.6302 31.5396 19.7702 35.8996 24.5502 36.0496L29.1402 32.8396C24.1702 30.8196 22.9002 27.5996 22.9002 27.5996L17.4602 31.1596H17.4502Z" fill="#BF9E6F"/>
<path d="M7.27355 4.41174L5.63524 5.55889C4.73043 6.19245 4.51054 7.43954 5.14409 8.34435L17.0917 25.4073C17.7253 26.3121 18.9724 26.532 19.8772 25.8984L21.5155 24.7513C22.4203 24.1177 22.6402 22.8706 22.0066 21.9658L10.059 4.90289C9.42545 3.99808 8.17836 3.77818 7.27355 4.41174Z" fill="#221F1F"/>
<path d="M26.0199 25.6602L24.6299 26.5102C24.6299 26.5102 25.9999 29.1302 30.6999 31.7402L32.5699 30.4302C28.3999 28.8702 26.0199 25.6602 26.0199 25.6602Z" fill="#BF9E6F"/>
<path d="M18.0702 32.0397C17.1702 32.6697 15.9202 32.4497 15.2802 31.5497L13.8802 29.5497C13.1902 28.5697 13.2102 27.2597 13.9202 26.2997L16.5102 22.8097C16.9102 22.2697 17.4002 21.7997 17.9502 21.4097C18.5002 21.0197 19.1102 20.7297 19.7602 20.5397L23.9202 19.2997C25.0702 18.9597 26.3002 19.3897 26.9902 20.3697L28.3902 22.3697C29.0202 23.2697 28.8002 24.5197 27.9002 25.1597L18.0702 32.0397Z" fill="#221F1F"/>
<path d="M24.4999 21.2201L20.3399 22.4601C19.4599 22.7201 18.6799 23.2701 18.1299 24.0101L15.5399 27.5001C15.3399 27.7701 15.3299 28.1401 15.5299 28.4101L16.9299 30.4101L26.7599 23.5301L25.3599 21.5301C25.1699 21.2501 24.8199 21.1301 24.4999 21.2301V21.2201Z" fill="#B7EDB7"/>
<path d="M8.04048 6.31025L7.16048 6.93025C6.95048 7.08025 6.90048 7.36025 7.05048 7.57025L18.7305 24.2502L20.3705 23.1002L8.68048 6.42025C8.53048 6.21025 8.25048 6.16025 8.04048 6.31025Z" fill="#B7EDB7"/>
<path d="M17.4999 24.8496L15.5399 27.4896C15.3399 27.7596 15.3299 28.1296 15.5299 28.3996L16.9299 30.3996L21.9999 26.8496L17.4999 24.8496Z" fill="#8FD18F"/>
</svg>
