<svg width="42" height="42" viewBox="0 0 42 42" fill="none" xmlns="http://www.w3.org/2000/svg">
<path d="M37 6H35V5.5C35 3.8 33.7 2.5 32 2.5C30.3 2.5 29 3.8 29 5.5V6H27.7V5.5C27.7 3.8 26.4 2.5 24.7 2.5C23 2.5 21.7 3.8 21.7 5.5V6H20.4V5.5C20.4 3.8 19.1 2.5 17.4 2.5C15.7 2.5 14.4 3.8 14.4 5.5V6H13V5.5C13 3.8 11.7 2.5 10 2.5C8.3 2.5 7 3.8 7 5.5V6H5C3.3 6 2 7.3 2 9V36.5C2 38.2 3.3 39.5 5 39.5H37C38.7 39.5 40 38.2 40 36.5V9C40 7.3 38.7 6 37 6Z" fill="white"/>
<path d="M26 28.5H22.5V32H26V28.5Z" fill="#221F1F"/>
<path d="M26 22.1H22.5V25.6H26V22.1Z" fill="#221F1F"/>
<path d="M32.5 22.1H29V25.6H32.5V22.1Z" fill="#221F1F"/>
<path d="M37 9H5V36.5H37V9Z" fill="#CAE5FF"/>
<path d="M37 37.5H5C4.4 37.5 4 37.1 4 36.5V9C4 8.4 4.4 8 5 8H37C37.6 8 38 8.4 38 9V36.5C38 37 37.6 37.5 37 37.5ZM6 35.5H36V10H6V35.5Z" fill="#221F1F"/>
<path d="M13 28.5H9.5V32H13V28.5Z" fill="#221F1F"/>
<path d="M19.5 28.5H16V32H19.5V28.5Z" fill="#221F1F"/>
<path d="M13 22.1H9.5V25.6H13V22.1Z" fill="#221F1F"/>
<path d="M19.5 22.1H16V25.6H19.5V22.1Z" fill="#221F1F"/>
<path d="M19.5 15.6H16V19.1H19.5V15.6Z" fill="#221F1F"/>
<path d="M26 15.6H22.5V19.1H26V15.6Z" fill="#221F1F"/>
<path d="M32.5 15.6H29V19.1H32.5V15.6Z" fill="#221F1F"/>
<path d="M32 12.8C31.4 12.8 31 12.4 31 11.8V5.5C31 4.9 31.4 4.5 32 4.5C32.6 4.5 33 4.9 33 5.5V11.8C33 12.4 32.5 12.8 32 12.8Z" fill="#221F1F"/>
<path d="M24.7002 12.8C24.1002 12.8 23.7002 12.4 23.7002 11.8V5.5C23.7002 4.9 24.1002 4.5 24.7002 4.5C25.3002 4.5 25.7002 4.9 25.7002 5.5V11.8C25.7002 12.4 25.2002 12.8 24.7002 12.8Z" fill="#221F1F"/>
<path d="M17.2998 12.8C16.6998 12.8 16.2998 12.4 16.2998 11.8V5.5C16.2998 4.9 16.6998 4.5 17.2998 4.5C17.8998 4.5 18.2998 4.9 18.2998 5.5V11.8C18.2998 12.4 17.8998 12.8 17.2998 12.8Z" fill="#221F1F"/>
<path d="M10 12.8C9.4 12.8 9 12.4 9 11.8V5.5C9 4.9 9.4 4.5 10 4.5C10.6 4.5 11 4.9 11 5.5V11.8C11 12.4 10.6 12.8 10 12.8Z" fill="#221F1F"/>
<path fill-rule="evenodd" clip-rule="evenodd" d="M37.0006 18C36.3006 21 33.7006 23.2 30.5006 23.2H23.8006V29.3C23.8006 32.9 21.1006 36 17.6006 36.4C27.7006 35.8 35.8006 27.9 37.0006 18Z" fill="#8EBFE2"/>
<path d="M17.6003 37.5C17.1003 37.5 16.7003 37.1 16.6003 36.6C16.5003 36.1 16.9003 35.6 17.5003 35.5C20.6003 35.1 22.9003 32.4 22.9003 29.4V23.3C22.9003 22.7 23.3003 22.3 23.9003 22.3H30.6003C33.2003 22.3 35.6003 20.4 36.1003 17.8C36.2003 17.3 36.7003 16.9 37.2003 17C37.7003 17.1 38.1003 17.6 38.0003 18.1C36.8003 28.6 28.2003 36.7 17.6003 37.5ZM24.8003 24.2V29.3C24.8003 31.1 24.2003 32.8 23.2003 34.2C28.4003 32.2 32.7003 28.1 34.7003 22.9C33.5003 23.7 32.0003 24.2 30.5003 24.2H24.8003Z" fill="#221F1F"/>
</svg>
