<svg width="42" height="42" viewBox="0 0 42 42" fill="none" xmlns="http://www.w3.org/2000/svg">
<path fill-rule="evenodd" clip-rule="evenodd" d="M7.57 33C4.5 33 2 30.5 2 27.43V22.94C2 20.61 3.09 18.4 4.93 17.03C6.82 15.61 9.06 14.42 11.44 13.58C12.99 7.59 18.59 3.5 25.5 3.5C33.25 3.5 39.02 8.2 39.88 15.2C39.96 15.6 40 15.99 40 16.38V27.43C40 30.5 37.5 33 34.43 33H7.57Z" fill="white"/>
<path d="M13 38C17.4183 38 21 34.4183 21 30C21 25.5817 17.4183 22 13 22C8.58172 22 5 25.5817 5 30C5 34.4183 8.58172 38 13 38Z" fill="white"/>
<path d="M29 38C33.4183 38 37 34.4183 37 30C37 25.5817 33.4183 22 29 22C24.5817 22 21 25.5817 21 30C21 34.4183 24.5817 38 29 38Z" fill="white"/>
<path fill-rule="evenodd" clip-rule="evenodd" d="M7.57 31C5.6 31 4 29.4 4 27.43V22.94C4 21.24 4.79 19.63 6.13 18.63C8.15 17.11 10.56 15.9 13.16 15.11C14.06 9.46 19.02 5.5 25.5 5.5C31.98 5.5 37.2 9.52 37.91 15.52C37.97 15.82 38 16.1 38 16.38V27.43C38 29.4 36.4 31 34.43 31H7.57Z" fill="#221F1F"/>
<path d="M34.0004 16.38C34.0004 16.28 33.9604 16.17 33.8804 16.1C31.9604 14.13 29.0904 13 26.0004 13C22.1504 13 18.6004 14.82 16.9504 17.63C16.8004 17.88 16.6004 18.09 16.3604 18.26L34.0004 16.38Z" fill="#221F1F"/>
<path fill-rule="evenodd" clip-rule="evenodd" d="M35.93 15.84C35.35 10.59 30.9 7.5 25.5 7.5C19.81 7.5 15.19 11.03 15.02 16.68C12.12 17.38 9.5 18.6 7.33 20.23C6.48 20.87 6 21.88 6 22.94V27.43C6 28.3 6.7 29 7.57 29H34.43C35.3 29 36 28.3 36 27.43V16.38C36 16.2 35.97 16.02 35.93 15.84Z" fill="#F0AA97"/>
<path d="M13 36C16.3137 36 19 33.3137 19 30C19 26.6863 16.3137 24 13 24C9.68629 24 7 26.6863 7 30C7 33.3137 9.68629 36 13 36Z" fill="#221F1F"/>
<path d="M13 34C15.2091 34 17 32.2091 17 30C17 27.7909 15.2091 26 13 26C10.7909 26 9 27.7909 9 30C9 32.2091 10.7909 34 13 34Z" fill="#9891F5"/>
<path fill-rule="evenodd" clip-rule="evenodd" d="M33.7702 15.12C32.9502 11.68 29.8102 9.5 25.5002 9.5C20.6302 9.5 17.1402 12.48 17.0202 16.74C17.0202 16.79 17.0002 16.84 16.9902 16.9L33.7802 15.12H33.7702Z" fill="#221F1F"/>
<path d="M27 9H25V17H27V9Z" fill="#F0AA97"/>
<path d="M36.0003 27.43V20.46L16.3203 22.73C18.7803 23.86 20.5703 26.21 20.9203 29H34.4203C35.2903 29 35.9903 28.3 35.9903 27.43H36.0003Z" fill="#D88C7D"/>
<path d="M29 36C32.3137 36 35 33.3137 35 30C35 26.6863 32.3137 24 29 24C25.6863 24 23 26.6863 23 30C23 33.3137 25.6863 36 29 36Z" fill="#221F1F"/>
<path d="M29 34C31.2091 34 33 32.2091 33 30C33 27.7909 31.2091 26 29 26C26.7909 26 25 27.7909 25 30C25 32.2091 26.7909 34 29 34Z" fill="#9891F5"/>
<path d="M12.9994 26C11.8794 26 10.8794 26.46 10.1494 27.19L15.8194 32.83C16.5494 32.11 16.9994 31.1 16.9994 30C16.9994 27.79 15.2094 26 12.9994 26Z" fill="#B9B9FF"/>
<path d="M28.9994 26C27.8794 26 26.8794 26.46 26.1494 27.19L31.8194 32.83C32.5494 32.11 32.9994 31.1 32.9994 30C32.9994 27.79 31.2094 26 28.9994 26Z" fill="#B9B9FF"/>
<path d="M13 32C14.1046 32 15 31.1046 15 30C15 28.8954 14.1046 28 13 28C11.8954 28 11 28.8954 11 30C11 31.1046 11.8954 32 13 32Z" fill="#221F1F"/>
<path d="M29 32C30.1046 32 31 31.1046 31 30C31 28.8954 30.1046 28 29 28C27.8954 28 27 28.8954 27 30C27 31.1046 27.8954 32 29 32Z" fill="#221F1F"/>
</svg>
