<svg width="42" height="42" viewBox="0 0 42 42" fill="none" xmlns="http://www.w3.org/2000/svg">
<path d="M5.99982 39.4C4.99982 39.4 4.09982 39 3.39982 38.3C2.39982 37.3 2.09982 35.8 2.59982 34.5L9.99982 14.1C10.0998 13.8 10.1998 13.5 10.2998 13.3C9.59982 13.3 8.99982 13 8.49982 12.6L7.09982 11.2C6.09982 10.2 6.09982 8.60001 7.09982 7.60001L8.49982 6.20001C8.99982 5.70001 9.59982 5.50001 10.2998 5.50001C10.9998 5.50001 11.5998 5.80001 12.0998 6.20001L13.4998 7.60001C14.2998 8.40001 14.3998 9.50001 13.9998 10.4C14.2998 10.3 14.6998 10.3 14.9998 10.3C16.1998 10.3 17.2998 10.6 18.3998 11C18.1998 9.80001 17.7998 9.00001 17.7998 9.00001C16.9998 7.60001 17.4998 5.80001 18.8998 5.00001L22.3998 3.00001C22.7998 2.70001 23.3998 2.60001 23.8998 2.60001C24.9998 2.60001 25.9998 3.20001 26.4998 4.10001C26.9998 4.90001 27.3998 6.00001 27.7998 7.30001L28.7998 6.30001C29.2998 5.80001 29.8998 5.60001 30.5998 5.60001C31.2998 5.60001 31.8998 5.90001 32.3998 6.30001L33.7998 7.70001C34.6998 8.60001 34.7998 9.90001 34.0998 10.9C34.2998 10.9 34.4998 10.9 34.6998 10.9C35.4998 10.9 36.2998 11 37.0998 11.1C38.6998 11.4 39.8998 12.9 39.5998 14.5L38.9998 18.5C38.8998 19.3 38.3998 20 37.7998 20.5C37.2998 20.9 36.6998 21.1 35.9998 21.1C35.7998 21.1 35.6998 21.1 35.4998 21.1C35.1998 21.1 34.9998 21 34.6998 21C34.5998 21 34.4998 21 34.3998 21C34.4998 21.1 34.4998 21.1 34.5998 21.2L35.9998 22.6C36.4998 23.1 36.6998 23.7 36.6998 24.4C36.6998 25.1 36.3998 25.7 35.9998 26.2L34.5998 27.6C34.0998 28.1 33.4998 28.3 32.7998 28.3C32.2998 28.3 31.7998 28.1 31.3998 27.9C31.1998 29.1 30.6998 30.1 29.9998 30.8C29.3998 31.4 28.5998 31.8 27.6998 32.1L7.29982 39.2C6.89982 39.3 6.39982 39.4 5.99982 39.4ZM30.0998 21.9C30.0998 21.8 30.1998 21.8 30.0998 21.9V21.9Z" fill="white"/>
<path fill-rule="evenodd" clip-rule="evenodd" d="M12.8996 14.8L5.39965 35.5C5.19965 36 5.69965 36.5 6.19965 36.3L26.9996 28.8L12.8996 14.8Z" fill="#EDD286"/>
<path d="M6.00029 37.4C5.60029 37.4 5.20029 37.2 4.80029 36.9C4.30029 36.4 4.20029 35.8 4.40029 35.2L12.0003 14.5C12.1003 14.2 12.4003 13.9 12.7003 13.9C13.0003 13.8 13.4003 13.9 13.6003 14.2L27.6003 28.2C27.8003 28.4 27.9003 28.8 27.9003 29.1C27.9003 29.4 27.6003 29.7 27.3003 29.8L6.60029 37.3C6.40029 37.4 6.20029 37.4 6.00029 37.4ZM13.3003 16.6L6.60029 35.2L25.1003 28.5L13.3003 16.6Z" fill="#221F1F"/>
<path fill-rule="evenodd" clip-rule="evenodd" d="M6.7002 35.1L25.1002 28.4L21.3002 24.5L6.7002 35.1Z" fill="#D0B366"/>
<path d="M27.9703 28.3586C29.5714 26.7575 27.6086 22.1988 23.5862 18.1764C19.5639 14.154 15.0051 12.1913 13.404 13.7924C11.8029 15.3935 13.7657 19.9523 17.788 23.9746C21.8104 27.997 26.3691 29.9598 27.9703 28.3586Z" fill="#D0B366"/>
<path d="M26.3994 29.9C23.6994 29.9 19.9994 27.6 17.0994 24.7C13.1994 20.8 10.3994 15.5 12.6994 13.1C13.7994 12 15.6994 12 17.9994 13C19.9994 13.9 22.2994 15.5 24.2994 17.5C28.1994 21.4 30.9994 26.7 28.6994 29.1C27.9994 29.7 27.2994 29.9 26.3994 29.9ZM14.9994 14.3C14.5994 14.3 14.2994 14.4 14.0994 14.6C13.1994 15.5 14.4994 19.3 18.4994 23.3C22.4994 27.3 26.2994 28.5 27.1994 27.7C28.0994 26.8 26.7994 23 22.7994 19C20.8994 17.1 18.8994 15.7 17.0994 14.9C16.2994 14.4 15.4994 14.3 14.9994 14.3Z" fill="#221F1F"/>
<path fill-rule="evenodd" clip-rule="evenodd" d="M30.2998 18.8L28.2998 15.3C28.4998 15.2 32.0998 13.2 36.5998 13.9L35.9998 17.9C32.8998 17.4 30.2998 18.8 30.2998 18.8Z" fill="#B9B9FF"/>
<path d="M30.2997 19.8C29.9997 19.8 29.5997 19.6 29.3997 19.3L27.3997 15.8C27.0997 15.3 27.2997 14.7 27.7997 14.4C27.9997 14.3 31.8997 12.1 36.7997 12.9C37.2997 13 37.6997 13.5 37.5997 14L36.9997 18C36.9997 18.3 36.7997 18.5 36.5997 18.7C36.3997 18.9 36.0997 18.9 35.8997 18.9C33.1997 18.5 30.8997 19.7 30.7997 19.7C30.5997 19.8 30.4997 19.8 30.2997 19.8ZM29.6997 15.8L30.6997 17.5C31.6997 17.1 33.2997 16.7 35.0997 16.8L35.3997 14.8C32.9997 14.7 30.8997 15.3 29.6997 15.8Z" fill="#221F1F"/>
<path fill-rule="evenodd" clip-rule="evenodd" d="M11.9996 9.70001L10.5996 11.1C10.3996 11.3 10.0996 11.3 9.79961 11.1L8.49961 9.70001C8.29961 9.50001 8.29961 9.20001 8.49961 9.00001L9.89961 7.60001C10.0996 7.40001 10.3996 7.40001 10.6996 7.60001L11.9996 9.00001C12.1996 9.20001 12.1996 9.50001 11.9996 9.70001Z" fill="#221F1F"/>
<path fill-rule="evenodd" clip-rule="evenodd" d="M34.5996 24.5L33.1996 25.9C32.9996 26.1 32.6996 26.1 32.3996 25.9L30.9996 24.5C30.7996 24.3 30.7996 24 30.9996 23.7L32.3996 22.3C32.5996 22.1 32.8996 22.1 33.1996 22.3L34.5996 23.7C34.7996 24 34.7996 24.3 34.5996 24.5Z" fill="#221F1F"/>
<path fill-rule="evenodd" clip-rule="evenodd" d="M32.3994 9.79998L30.9994 11.2C30.7994 11.4 30.4994 11.4 30.1994 11.2L28.7994 9.79998C28.5994 9.59998 28.5994 9.29998 28.7994 8.99998L30.1994 7.59998C30.3994 7.39998 30.6994 7.39998 30.9994 7.59998L32.3994 8.99998C32.5994 9.19998 32.5994 9.59998 32.3994 9.79998Z" fill="#221F1F"/>
<path fill-rule="evenodd" clip-rule="evenodd" d="M17.0996 21.8C17.4996 22.3 17.9996 22.8 18.4996 23.3C20.3996 25.2 22.3996 26.6 24.1996 27.4C25.8996 28.1 26.8996 28 27.2996 27.7C27.9996 27 27.3996 24.6 25.2996 21.7C24.0996 21.5 22.8996 21.3 21.5996 21.3C19.8996 21.2 18.4996 21.4 17.0996 21.8Z" fill="#EDD286"/>
<path fill-rule="evenodd" clip-rule="evenodd" d="M21.5998 21L18.7998 18.2C23.6998 13.3 20.4998 7.70001 20.4998 7.60001L23.9998 5.60001C25.5998 8.50001 27.1998 15.4 21.5998 21Z" fill="#F0AA97"/>
<path d="M21.6002 22C21.3002 22 21.1002 21.9 20.9002 21.7L18.0002 18.9C17.6002 18.5 17.6002 17.9 18.0002 17.5C22.3002 13.2 19.6002 8.30001 19.5002 8.10001C19.2002 7.60001 19.4002 7.00001 19.9002 6.70001L23.4002 4.70001C23.9002 4.40001 24.5002 4.60001 24.8002 5.10001C26.6002 8.20001 28.3002 15.7 22.3002 21.7C22.1002 21.9 21.8002 22 21.6002 22ZM20.1002 18.2L21.5002 19.6C25.4002 15.1 24.7002 9.90001 23.4002 7.00001L21.6002 8.00001C22.4002 9.90001 23.5002 14.2 20.1002 18.2Z" fill="#221F1F"/>
</svg>
