<svg width="42" height="42" viewBox="0 0 42 42" fill="none" xmlns="http://www.w3.org/2000/svg">
<path d="M12.9302 31.78C11.4002 31.78 9.99018 30.89 9.32018 29.51L2.99018 16.33C1.83018 13.92 1.68018 11.21 2.57018 8.69C3.46018 6.17 5.27018 4.14 7.68018 2.99C9.04018 2.34 10.5002 2 12.0002 2C13.1202 2 14.2202 2.19 15.2702 2.55C15.3502 2.57 15.5202 2.63 15.6902 2.71C15.6902 2.71 18.0102 3.68 21.0002 3.68C23.9902 3.68 26.3302 2.71 26.3502 2.7C26.4902 2.64 26.6302 2.59 26.7802 2.54C27.7702 2.19 28.8802 2 30.0002 2C31.5002 2 32.9602 2.33 34.3202 2.99C36.7302 4.14 38.5402 6.17 39.4302 8.69C40.3202 11.21 40.1702 13.93 39.0102 16.33L32.6702 29.51C32.0102 30.89 30.5902 31.78 29.0602 31.78H12.9302Z" fill="white"/>
<path d="M34 36V28C34 25.7909 32.2091 24 30 24H12C9.79086 24 8 25.7909 8 28V36C8 38.2091 9.79086 40 12 40H30C32.2091 40 34 38.2091 34 36Z" fill="white"/>
<path d="M12.9298 29.78C12.1598 29.78 11.4598 29.34 11.1298 28.65L4.78977 15.46C3.85976 13.53 3.73976 11.36 4.44976 9.35C5.15976 7.33 6.60977 5.71 8.53976 4.79C9.62977 4.27 10.7898 4 11.9998 4C12.8898 4 13.7698 4.15 14.6198 4.44C14.6998 4.46 14.7798 4.49 14.8598 4.53C14.8798 4.53 17.5198 5.68 20.9998 5.68C24.4798 5.68 27.1198 4.54 27.1498 4.53C27.2198 4.5 27.2998 4.47 27.3698 4.45C28.2198 4.15 29.1098 4 30.0098 4C31.2098 4 32.3798 4.27 33.4698 4.79C35.3998 5.71 36.8498 7.33 37.5598 9.35C38.2698 11.37 38.1498 13.54 37.2198 15.46L30.8798 28.64C30.5498 29.33 29.8498 29.77 29.0798 29.77H12.9298V29.78Z" fill="#221F1F"/>
<path d="M32.5902 6.5906C31.0802 5.8606 29.4102 5.8306 27.9502 6.3606C27.9502 6.3606 24.9902 7.6806 20.9902 7.6806C16.9902 7.6806 14.0302 6.3606 14.0302 6.3606C12.5702 5.8306 10.9102 5.8706 9.39023 6.5906C6.40023 8.0206 5.14023 11.6106 6.58023 14.6006L12.9202 27.7806H29.0602L35.4002 14.6006C36.8402 11.6106 35.5802 8.0306 32.5902 6.5906Z" fill="white"/>
<path d="M11.4098 13.0207C8.58982 12.9907 7.00982 11.0207 6.35982 9.9707C5.82982 11.4307 5.86982 13.0907 6.59982 14.6007L12.9398 27.7807H20.1598C21.0698 25.7707 21.9598 22.8107 21.9598 18.8107C21.9598 10.4807 15.2798 13.0707 11.4198 13.0207H11.4098Z" fill="#C4C4C4"/>
<path d="M32 36V28C32 26.8954 31.1046 26 30 26H12C10.8954 26 10 26.8954 10 28V36C10 37.1046 10.8954 38 12 38H30C31.1046 38 32 37.1046 32 36Z" fill="#221F1F"/>
<path d="M30 28H12V36H30V28Z" fill="white"/>
<path d="M20.83 28H12V36H20.83V28Z" fill="#C4C4C4"/>
<path d="M14.5098 10.3993C14.0098 10.3993 13.5798 10.0293 13.5198 9.52927C13.4498 8.97927 13.8398 8.47927 14.3798 8.40927C18.5898 7.86927 27.7298 4.35927 27.8198 4.32927C28.3298 4.12927 28.9099 4.38927 29.1098 4.89927C29.3098 5.41927 29.0499 5.98927 28.5399 6.18927C28.1599 6.33927 19.0799 9.81927 14.6398 10.3893C14.5998 10.3893 14.5498 10.3893 14.5098 10.3893V10.3993Z" fill="#221F1F"/>
<path d="M21 27.0098C20.45 27.0098 20 26.5598 20 26.0098V18.7598C20 18.2098 20.45 17.7598 21 17.7598C21.55 17.7598 22 18.2098 22 18.7598V26.0098C22 26.5598 21.55 27.0098 21 27.0098Z" fill="#221F1F"/>
<path d="M15.5102 27.0107C15.0702 27.0107 14.6702 26.7207 14.5502 26.2807L12.5502 19.0307C12.4002 18.5007 12.7202 17.9507 13.2502 17.8007C13.7802 17.6507 14.3302 17.9707 14.4802 18.5007L16.4802 25.7507C16.6302 26.2807 16.3102 26.8307 15.7802 26.9807C15.6902 27.0007 15.6002 27.0207 15.5102 27.0207V27.0107Z" fill="#221F1F"/>
<path d="M26.4899 27.0109C26.3999 27.0109 26.3099 27.0009 26.2199 26.9709C25.6899 26.8209 25.3799 26.2709 25.5199 25.7409L27.5199 18.4909C27.6699 17.9609 28.2099 17.6409 28.7499 17.7909C29.2799 17.9409 29.5899 18.4909 29.4499 19.0209L27.4499 26.2709C27.3299 26.7109 26.9299 27.0009 26.4899 27.0009V27.0109Z" fill="#221F1F"/>
</svg>
