<svg width="42" height="42" viewBox="0 0 42 42" fill="none" xmlns="http://www.w3.org/2000/svg">
<path d="M12.64 40.0002C10.08 40.0002 8 37.9202 8 35.3602V33.1402C8 30.9602 9.4 29.0502 11.39 28.3202C12 27.2002 12.69 25.6002 13.22 23.4502C11.9 22.7102 11 21.2902 11 19.6702V18.3202C11 16.8602 11.73 15.5702 12.83 14.7802C12.28 13.6102 12 12.3202 12 10.9902C12 6.03023 16.04 1.99023 21 1.99023C25.96 1.99023 30 6.03023 30 10.9902C30 12.3202 29.71 13.6102 29.17 14.7802C30.28 15.5602 31 16.8602 31 18.3202V19.6702C31 21.2902 30.1 22.7102 28.78 23.4502C29.31 25.6002 30 27.2002 30.61 28.3202C32.6 29.0502 34 30.9602 34 33.1402V35.3602C34 37.9202 31.92 40.0002 29.36 40.0002H12.64Z" fill="white"/>
<path d="M25.19 13.7105C23.97 10.5405 21.46 8.03055 18.29 6.81055C16.91 7.70055 16 9.24055 16 11.0005C16 13.7605 18.24 16.0005 21 16.0005C22.76 16.0005 24.3 15.0805 25.19 13.7105Z" fill="#727272"/>
<path d="M23.0001 36.0007C22.9301 36.0007 22.8701 36.0007 22.8001 36.0007L21.0001 35.8207L19.2001 36.0007C19.1301 36.0007 19.0701 36.0007 19.0001 36.0007C18.5001 36.0007 18.0201 35.8107 17.6501 35.4707L12.8001 34.9907C12.0301 34.9107 11.3701 34.4007 11.1101 33.6707C10.85 32.9407 11.0401 32.1307 11.5901 31.5807C11.6201 31.5507 16.0801 26.8607 16.0801 15.9907C16.0801 12.4707 16.0801 8.4707 18.9801 8.4707C19.8101 8.4707 20.4501 8.8607 21.0001 9.4707C21.5501 8.8607 22.1901 8.4707 23.0201 8.4707C25.9201 8.4707 25.9201 12.4607 25.9201 15.9907C25.9201 26.8607 30.3701 31.5507 30.4201 31.5907C30.9601 32.1407 31.1401 32.9607 30.8801 33.6807C30.6201 34.4007 29.9701 34.9207 29.2101 34.9907L24.3601 35.4707C23.9901 35.8107 23.5101 36.0007 23.0101 36.0007H23.0001Z" fill="#221F1F"/>
<path d="M22.98 33.6005L29 33.0005C29 33.0005 23.92 27.9805 23.92 15.9905C23.92 7.6205 22.48 10.6005 21 13.1605C19.53 10.6005 18.08 7.6205 18.08 15.9905C18.08 27.9805 13 33.0005 13 33.0005L19.02 33.6005L19 34.0005L21 33.8005L23 34.0005L22.98 33.6005Z" fill="#D0B366"/>
<path d="M29.0002 32.9992C29.0002 32.9992 24.9002 28.9092 24.0702 19.3592L21.7002 19.1992L22.0002 33.7992L23.0002 33.9992L22.9802 33.5992L29.0002 32.9992Z" fill="#FCE9B9"/>
<path d="M32 33.14V35.36C32 36.82 30.82 38 29.36 38H12.64C11.18 38 10 36.82 10 35.36V33.14C10 31.41 11.41 30 13.14 30H28.85C30.59 30 31.99 31.41 31.99 33.14H32Z" fill="#221F1F"/>
<path d="M13.14 32H28.85C29.48 32 29.99 32.51 29.99 33.14V35.36C29.99 35.71 29.7 36 29.35 36H12.64C12.29 36 12 35.71 12 35.36V33.14C12 32.51 12.51 32 13.14 32Z" fill="#D0B366"/>
<path d="M28.86 32H23V36H29.36C29.71 36 30 35.71 30 35.36V33.14C30 32.51 29.49 32 28.86 32Z" fill="#FCE9B9"/>
<path d="M21 18C24.866 18 28 14.866 28 11C28 7.13401 24.866 4 21 4C17.134 4 14 7.13401 14 11C14 14.866 17.134 18 21 18Z" fill="#221F1F"/>
<path d="M21 16C23.7614 16 26 13.7614 26 11C26 8.23858 23.7614 6 21 6C18.2386 6 16 8.23858 16 11C16 13.7614 18.2386 16 21 16Z" fill="#D0B366"/>
<path d="M25.4801 13.18C25.8001 12.52 26.0001 11.79 26.0001 11C26.0001 8.24 23.7601 6 21.0001 6C20.2201 6 19.4801 6.2 18.8201 6.52C18.7101 6.94 18.6401 7.38 18.6401 7.84C18.6401 10.89 21.1101 13.36 24.1601 13.36C24.6201 13.36 25.0501 13.28 25.4801 13.18Z" fill="#FCE9B9"/>
<path d="M29 19.67V18.33C29 17.0432 27.9568 16 26.67 16H15.33C14.0432 16 13 17.0432 13 18.33V19.67C13 20.9568 14.0432 22 15.33 22H26.67C27.9568 22 29 20.9568 29 19.67Z" fill="#221F1F"/>
<path d="M26.67 18H15.33C15.1477 18 15 18.1477 15 18.33V19.67C15 19.8523 15.1477 20 15.33 20H26.67C26.8523 20 27 19.8523 27 19.67V18.33C27 18.1477 26.8523 18 26.67 18Z" fill="#D0B366"/>
<path d="M23 20.0002H26.67C26.85 20.0002 27 19.8502 27 19.6702V18.3202C27 18.1402 26.85 17.9902 26.67 17.9902H23V19.9902V20.0002Z" fill="#FCE9B9"/>
</svg>
