<svg width="42" height="42" viewBox="0 0 42 42" fill="none" xmlns="http://www.w3.org/2000/svg">
<path d="M28.4091 21.8803L22.3691 17.7103L28.9991 14.5703L28.4091 21.8803Z" fill="#221F1F"/>
<path d="M14.3891 27.5407L20.4291 23.3707L13.7891 20.2207L14.3891 27.5407Z" fill="#221F1F"/>
<path d="M33 39.9995C32.3 39.9995 31.6 39.8095 31 39.4595C30.39 39.8095 29.7 39.9995 29 39.9995C28.3 39.9995 27.6 39.8095 27 39.4595C26.39 39.8095 25.7 39.9995 25 39.9995C24.3 39.9995 23.6 39.8095 23 39.4595C22.39 39.8095 21.7 39.9995 21 39.9995C20.3 39.9995 19.6 39.8095 19 39.4595C18.39 39.8095 17.7 39.9995 17 39.9995C16.3 39.9995 15.6 39.8095 15 39.4595C14.39 39.8095 13.7 39.9995 13 39.9995C12.3 39.9995 11.6 39.8095 11 39.4595C10.39 39.8095 9.7 39.9995 9 39.9995C8.07 39.9995 7.16 39.6695 6.44 39.0795L4.44 37.4095C3.52 36.6495 3 35.5295 3 34.3395V31.0095C3 30.3295 3.17 29.6595 3.5 29.0695L4.52 27.2395C4.17 25.2095 4 23.1195 4 21.0195C4 18.9195 4.17 16.9495 4.5 14.9595L3.42 12.8095C3.14 12.2595 3 11.6395 3 11.0195V7.68953C3 6.49953 3.52 5.37953 4.44 4.61953L6.44 2.94953C7.16 2.34953 8.07 2.01953 9 2.01953C9.7 2.01953 10.4 2.20953 11 2.55953C11.61 2.20953 12.3 2.01953 13 2.01953C13.7 2.01953 14.4 2.20953 15 2.55953C15.61 2.20953 16.3 2.01953 17 2.01953C17.7 2.01953 18.4 2.20953 19 2.55953C19.61 2.20953 20.3 2.01953 21 2.01953C21.7 2.01953 22.4 2.20953 23 2.55953C23.61 2.20953 24.3 2.01953 25 2.01953C25.7 2.01953 26.4 2.20953 27 2.55953C27.61 2.20953 28.3 2.01953 29 2.01953C29.7 2.01953 30.4 2.20953 31 2.55953C31.61 2.20953 32.3 2.01953 33 2.01953C33.93 2.01953 34.84 2.34953 35.56 2.93953L37.56 4.60953C38.48 5.36953 39 6.48953 39 7.67953V11.0095C39 11.6295 38.85 12.2495 38.58 12.7995L37.5 14.9495C37.83 16.9395 38 18.9695 38 21.0095C38 23.0495 37.82 25.2095 37.48 27.2295L38.5 29.0595C38.83 29.6495 39 30.3295 39 30.9995V34.3295C39 35.5195 38.48 36.6395 37.56 37.3995L35.56 39.0695C34.84 39.6695 33.93 39.9995 33 39.9995Z" fill="white"/>
<path d="M28.4103 23.8805C28.0103 23.8805 27.6103 23.7605 27.2703 23.5305L21.2303 19.3605C20.6403 18.9505 20.3103 18.2705 20.3703 17.5505C20.4303 16.8305 20.8603 16.2105 21.5103 15.9005L28.1403 12.7505C28.4103 12.6205 28.7103 12.5605 29.0003 12.5605C29.4003 12.5605 29.8003 12.6805 30.1403 12.9105C30.7303 13.3205 31.0603 14.0005 31.0003 14.7205L30.4103 22.0405C30.3503 22.7505 29.9203 23.3805 29.2703 23.6905C29.0003 23.8205 28.7103 23.8805 28.4103 23.8805Z" fill="#221F1F"/>
<path d="M14.3802 29.5407C14.0902 29.5407 13.8002 29.4807 13.5202 29.3507C12.8702 29.0407 12.4402 28.4207 12.3802 27.7007L11.7902 20.3807C11.7302 19.6707 12.0602 18.9807 12.6502 18.5707C12.9902 18.3307 13.3902 18.2207 13.7902 18.2207C14.0802 18.2207 14.3702 18.2807 14.6502 18.4107L21.2802 21.5607C21.9302 21.8707 22.3602 22.4907 22.4202 23.2107C22.4802 23.9307 22.1502 24.6107 21.5602 25.0207L15.5202 29.1907C15.1802 29.4307 14.7802 29.5407 14.3802 29.5407Z" fill="#221F1F"/>
<path d="M33 37.9998C32.55 37.9998 32.09 37.8498 31.72 37.5398L31 36.9398L30.28 37.5398C29.91 37.8498 29.45 37.9998 29 37.9998C28.55 37.9998 28.09 37.8498 27.72 37.5398L27 36.9398L26.28 37.5398C25.91 37.8498 25.45 37.9998 25 37.9998C24.55 37.9998 24.09 37.8498 23.72 37.5398L23 36.9398L22.28 37.5398C21.91 37.8498 21.45 37.9998 21 37.9998C20.55 37.9998 20.09 37.8498 19.72 37.5398L19 36.9398L18.28 37.5398C17.91 37.8498 17.45 37.9998 17 37.9998C16.55 37.9998 16.09 37.8498 15.72 37.5398L15 36.9398L14.28 37.5398C13.91 37.8498 13.45 37.9998 13 37.9998C12.55 37.9998 12.09 37.8498 11.72 37.5398L11 36.9398L10.28 37.5398C9.91 37.8498 9.45 37.9998 9 37.9998C8.55 37.9998 8.09 37.8498 7.72 37.5398L5.72 35.8698C5.26 35.4898 5 34.9298 5 34.3298V30.9998C5 30.6598 5.09 30.3298 5.25 30.0298L6.62 27.5698C6.21 25.4398 6 23.2298 6 20.9998C6 18.7698 6.2 16.7198 6.58 14.6398L5.21 11.8998C5.07 11.6198 5 11.3198 5 11.0098V7.67977C5 7.08977 5.26 6.51977 5.72 6.13977L7.72 4.46977C8.09 4.15977 8.55 4.00977 9 4.00977C9.45 4.00977 9.91 4.15977 10.28 4.46977L11 5.06977L11.72 4.46977C12.09 4.15977 12.55 4.00977 13 4.00977C13.45 4.00977 13.91 4.15977 14.28 4.46977L15 5.06977L15.72 4.46977C16.09 4.15977 16.55 4.00977 17 4.00977C17.45 4.00977 17.91 4.15977 18.28 4.46977L19 5.06977L19.72 4.46977C20.09 4.15977 20.55 4.00977 21 4.00977C21.45 4.00977 21.91 4.15977 22.28 4.46977L23 5.06977L23.72 4.46977C24.09 4.15977 24.55 4.00977 25 4.00977C25.45 4.00977 25.91 4.15977 26.28 4.46977L27 5.06977L27.72 4.46977C28.09 4.15977 28.55 4.00977 29 4.00977C29.45 4.00977 29.91 4.15977 30.28 4.46977L31 5.06977L31.72 4.46977C32.09 4.15977 32.55 4.00977 33 4.00977C33.45 4.00977 33.91 4.15977 34.28 4.46977L36.28 6.13977C36.74 6.51977 37 7.07977 37 7.67977V11.0098C37 11.3198 36.93 11.6298 36.79 11.8998L35.42 14.6398C35.81 16.7198 36 18.8598 36 20.9998C36 23.1398 35.79 25.4398 35.38 27.5698L36.75 30.0298C36.92 30.3298 37 30.6598 37 30.9998V34.3298C37 34.9198 36.74 35.4898 36.28 35.8698L34.28 37.5398C33.91 37.8498 33.45 37.9998 33 37.9998Z" fill="#221F1F"/>
<path d="M35 7.67L33 6L31 7.67L29 6L27 7.67L25 6L23 7.67L21 6L19 7.67L17 6L15 7.67L13 6L11 7.67L9 6L7 7.67V11L8.68 14.35C8.25 16.44 8 18.67 8 21C8 23.33 8.26 25.74 8.72 27.9L7 31V34.33L9 36L11 34.33L13 36L15 34.33L17 36L19 34.33L21 36L23 34.33L25 36L27 34.33L29 36L31 34.33L33 36L35 34.33V31L33.28 27.9C33.75 25.74 34 23.42 34 21C34 18.58 33.76 16.44 33.32 14.35L35 11V7.67Z" fill="white"/>
<path d="M35 10H7V11L8.68 14.35C8.25 16.44 8 18.67 8 21C8 23.33 8.26 25.74 8.72 27.9L7 31V32H35V31L33.28 27.9C33.75 25.74 34 23.42 34 21C34 18.58 33.76 16.44 33.32 14.35L35 11V10Z" fill="#FFD781"/>
<path d="M8.68 14.35C8.25 16.44 8 18.67 8 21C8 23.33 8.26 25.74 8.72 27.9L7 31V34.33L9 36L11 34.33L13 36L15 34.33L17 36L19 34.33L21 36L23 34.33L25 36L25.71 35.41C25.9 34.14 26 32.83 26 31.5C26 19.07 17.49 9 7 9V11L8.68 14.35Z" fill="#CAE5FF"/>
<path d="M7 11L8.68 14.35C8.25 16.44 8 18.67 8 21C8 23.33 8.26 25.74 8.72 27.9L7 31V32H25.99C25.99 31.83 26 31.67 26 31.5C26 21.39 20.37 12.84 12.62 10H7V11Z" fill="#F9A936"/>
<path d="M36 9H6V11H36V9Z" fill="#221F1F"/>
<path d="M36 31H6V33H36V31Z" fill="#221F1F"/>
<path d="M28.7406 22.3307C28.5406 22.3707 28.3406 22.3507 28.1506 22.2607L21.4206 19.3207C21.0906 19.1807 20.8706 18.8707 20.8306 18.5107C20.7906 18.1607 20.9406 17.8107 21.2306 17.5907L27.1406 13.2407C27.2606 13.1507 27.4006 13.0907 27.5406 13.0607C27.7406 13.0207 27.9406 13.0407 28.1306 13.1307C28.4606 13.2707 28.6806 13.5807 28.7206 13.9407L29.5406 21.2307C29.5806 21.5907 29.4306 21.9307 29.1406 22.1507C29.0206 22.2407 28.8806 22.3007 28.7406 22.3307Z" fill="#221F1F"/>
<path d="M14.3807 28.0498C14.2307 28.0398 14.0907 27.9898 13.9607 27.9098C13.6507 27.7298 13.4707 27.3898 13.4707 27.0398L13.5807 19.6998C13.5807 19.3398 13.7807 19.0098 14.0907 18.8398C14.2707 18.7398 14.4707 18.6998 14.6707 18.7198C14.8207 18.7298 14.9607 18.7798 15.0907 18.8598L21.3907 22.6198C21.7007 22.7998 21.8807 23.1398 21.8807 23.4898C21.8807 23.8498 21.6807 24.1798 21.3707 24.3498L14.9607 27.9298C14.7807 28.0298 14.5807 28.0698 14.3807 28.0498Z" fill="#221F1F"/>
</svg>
