<svg width="42" height="42" viewBox="0 0 42 42" fill="none" xmlns="http://www.w3.org/2000/svg">
<path d="M24.3893 39.9999C21.0193 39.9999 17.9293 38.7599 15.6693 36.4999C10.5892 31.4199 11.1293 22.6099 16.8693 16.8699C19.8593 13.8799 23.8293 12.1699 27.7793 12.1699C31.1493 12.1699 34.2393 13.4099 36.4993 15.6699C38.9993 18.1699 40.2193 21.6199 39.9593 25.3799C39.6993 29.0399 38.0493 32.5599 35.3093 35.2999C32.3193 38.2899 28.3493 39.9999 24.3993 39.9999H24.3893Z" fill="white"/>
<path d="M17.6103 29.8398C13.6603 29.8398 9.69029 28.1298 6.70029 25.1398C3.96029 22.3998 2.31029 18.8798 2.05029 15.2198C1.78029 11.4598 3.01029 8.00977 5.51029 5.50977C7.77029 3.24977 10.8703 2.00977 14.2303 2.00977C18.1803 2.00977 22.1503 3.71977 25.1403 6.70977C30.8803 12.4498 31.4203 21.2598 26.3403 26.3398C24.0803 28.5998 20.9803 29.8398 17.6203 29.8398H17.6103Z" fill="white"/>
<path d="M17.6102 27.84C14.1902 27.84 10.7302 26.34 8.12015 23.72C3.15015 18.76 2.62015 11.22 6.92015 6.92C8.80015 5.04 11.4002 4 14.2302 4C17.6502 4 21.1102 5.5 23.7302 8.12C28.6902 13.08 29.2302 20.62 24.9302 24.92C23.0502 26.8 20.4502 27.84 17.6202 27.84H17.6102Z" fill="#221F1F"/>
<path d="M23.507 23.5081C27.0333 19.9817 26.4951 13.726 22.3048 9.5357C18.1144 5.34537 11.8589 4.80718 8.33239 8.33362C4.80596 11.86 5.34415 18.1157 9.53447 22.306C13.7248 26.4963 19.9805 27.0345 23.507 23.5081Z" fill="#FFD781"/>
<path d="M14.4303 6.01031C13.5603 5.99031 12.7103 6.09031 11.9003 6.31031L25.5303 19.9403C25.7503 19.1303 25.8503 18.2803 25.8303 17.4103L14.4303 6.01031ZM8.33031 8.33031C8.09031 8.57031 7.87031 8.82031 7.67031 9.09031L22.7403 24.1603C23.0003 23.9603 23.2603 23.7403 23.5003 23.5003C23.7403 23.2603 23.9603 23.0103 24.1603 22.7403L9.09031 7.67031C8.83031 7.87031 8.57031 8.09031 8.33031 8.33031ZM6.01031 14.4303L17.4103 25.8303C18.2803 25.8503 19.1303 25.7503 19.9403 25.5303L6.31031 11.9003C6.09031 12.7103 5.99031 13.5603 6.01031 14.4303Z" fill="#F9A936"/>
<path d="M24.3908 38.0002C21.5608 38.0002 18.9608 36.9602 17.0808 35.0802C12.7808 30.7802 13.3208 23.2402 18.2808 18.2802C20.9008 15.6602 24.3608 14.1602 27.7808 14.1602C30.6108 14.1602 33.2108 15.2002 35.0908 17.0802C39.3908 21.3802 38.8508 28.9202 33.8908 33.8802C31.2708 36.5002 27.8108 38.0002 24.4008 38.0002H24.3908Z" fill="#221F1F"/>
<path d="M32.4631 32.4642C36.6534 28.2739 37.1916 22.0182 33.6652 18.4918C30.1387 14.9654 23.883 15.5036 19.6927 19.6939C15.5024 23.8842 14.9642 30.1399 18.4906 33.6663C22.0171 37.1928 28.2727 36.6546 32.4631 32.4642Z" fill="#FFD781"/>
<path d="M35.6905 22.0602L22.0605 35.6902C22.8705 35.9102 23.7205 36.0102 24.5905 35.9902L35.9905 24.5902C36.0105 23.7202 35.9105 22.8702 35.6905 22.0602ZM33.6705 18.5002C33.4305 18.2602 33.1805 18.0402 32.9105 17.8402L17.8405 32.9102C18.0405 33.1702 18.2605 33.4302 18.5005 33.6702C18.7405 33.9102 18.9905 34.1302 19.2605 34.3302L34.3305 19.2602C34.1305 19.0002 33.9105 18.7402 33.6705 18.5002ZM27.5705 16.1802L16.1705 27.5802C16.1505 28.4502 16.2505 29.3002 16.4705 30.1102L30.1005 16.4802C29.2905 16.2602 28.4405 16.1602 27.5705 16.1802Z" fill="#F9A936"/>
</svg>
