<svg width="42" height="42" viewBox="0 0 42 42" fill="none" xmlns="http://www.w3.org/2000/svg">
<path d="M28.2 2.19998L12 10.8C12 10.8 13.7 14.7 13.9 14.7C14.1 14.7 26 16.4 26 16.3C26 16.2 29.3 12.4 29.3 11.6C29.3 10.7 28.2 2.19998 28.2 2.19998Z" fill="white"/>
<path d="M32.0002 2.89999C31.8002 2.69999 31.7002 2.59999 31.6002 2.49999C31.5002 2.39999 31.4002 2.29999 31.3002 2.29999C31.0002 2.09999 30.7002 1.99999 30.4002 1.89999C30.3002 1.89999 30.2002 1.89999 30.2002 1.89999C30.1002 1.89999 29.9002 1.89999 29.8002 1.89999C29.6002 1.89999 29.4002 1.89999 29.2002 1.99999C29.1002 1.99999 28.9002 2.09999 28.8002 2.09999C28.7002 2.09999 28.5002 2.19999 28.3002 2.29999L18.9002 7.39999C17.8002 7.99999 17.2002 9.19999 17.4002 10.5C17.6002 11.7 18.6002 12.7 19.8002 13L21.9002 13.4H17.0002L16.3002 8.49999C16.2002 7.89999 15.8002 7.29999 15.2002 6.99999L6.40022 2.39999C6.10022 2.19999 5.80022 2.09999 5.50022 2.09999C5.30022 2.09999 5.10022 2.09999 4.90022 2.19999C4.40022 2.39999 4.00022 2.69999 3.70022 3.19999L2.80022 4.99999C2.30022 5.99999 2.70022 7.19999 3.70022 7.69999L10.7002 11.3L11.0002 13.3H9.50022C8.50022 13.3 7.60022 13.8 7.00022 14.6C5.20022 17.3 4.20022 20.5 4.20022 23.8C4.20022 32.9 11.6002 40.2 20.6002 40.2C29.6002 40.2 37.0002 32.8 37.0002 23.8C37.0002 21 36.3002 18.3 35.0002 15.9L35.8002 16.1C36.0002 16.1 36.2002 16.2 36.4002 16.2C37.5002 16.2 38.4002 15.6 39.0002 14.7C39.6002 13.6 39.5002 12.2 38.7002 11.3L32.0002 2.89999Z" fill="white"/>
<path d="M14.0006 19.9999L12.5006 9.99995L4.60059 5.89995L5.50059 4.09995L14.3006 8.69994L16.0006 19.6999L14.0006 19.9999Z" fill="#221F1F"/>
<path d="M26.9998 19.4C26.8998 19.4 26.8998 19.4 26.7998 19.4C26.2998 19.3 25.8998 18.8 25.9998 18.2L28.5998 4.6C28.6998 4.1 29.1998 3.7 29.7998 3.8C30.2998 3.9 30.6998 4.4 30.5998 5L27.9998 18.6C27.8998 19.1 27.4998 19.4 26.9998 19.4Z" fill="#221F1F"/>
<path fill-rule="evenodd" clip-rule="evenodd" d="M29.6002 4.80002L36.4002 13.1L20.2002 9.90002L29.6002 4.80002Z" fill="#F0AA97"/>
<path d="M36.4003 14.1C36.3003 14.1 36.3003 14.1 36.2003 14.1L20.0003 10.9C19.6003 10.8 19.3003 10.5 19.2003 10.1C19.1003 9.70002 19.3003 9.30002 19.7003 9.10002L29.1003 4.00002C29.5003 3.80002 30.0003 3.90002 30.4003 4.20002L37.2003 12.5C37.5003 12.8 37.5003 13.3 37.3003 13.6C37.1003 13.9 36.8003 14.1 36.4003 14.1ZM23.2003 9.50002L33.9003 11.6L29.4003 6.10002L23.2003 9.50002Z" fill="#221F1F"/>
<path fill-rule="evenodd" clip-rule="evenodd" d="M7.2002 23.8C7.2002 31.2 13.2002 37.2 20.6002 37.2C28.0002 37.2 34.0002 31.2 34.0002 23.8C34.0002 21 33.2002 18.5 31.7002 16.3H9.5002C8.0002 18.4 7.2002 21 7.2002 23.8Z" fill="#BF9E6F"/>
<path d="M20.6002 38.2C12.6002 38.2 6.2002 31.7 6.2002 23.8C6.2002 20.9 7.0002 18.1 8.6002 15.8C8.8002 15.5 9.1002 15.4 9.4002 15.4H31.7002C32.0002 15.4 32.3002 15.6 32.5002 15.8C34.1002 18.2 34.9002 21 34.9002 23.8C35.0002 31.7 28.6002 38.2 20.6002 38.2ZM10.0002 17.3C8.8002 19.2 8.2002 21.5 8.2002 23.8C8.2002 30.6 13.8002 36.2 20.6002 36.2C27.4002 36.2 33.0002 30.6 33.0002 23.8C33.0002 21.5 32.4002 19.3 31.2002 17.3H10.0002Z" fill="#221F1F"/>
<path fill-rule="evenodd" clip-rule="evenodd" d="M13.1002 17.3H10.0002C8.8002 19.2 8.2002 21.5 8.2002 23.8C8.2002 30.6 13.8002 36.2 20.6002 36.2C22.7002 36.2 24.7002 35.7 26.4002 34.8C19.8002 32.7 14.6002 25.9 13.1002 17.3Z" fill="#AD8657"/>
</svg>
