<svg width="42" height="42" viewBox="0 0 42 42" fill="none" xmlns="http://www.w3.org/2000/svg">
<path d="M20.5804 15.98C20.0904 15.98 19.6004 15.8 19.2204 15.42C18.2504 14.46 15.9504 11.99 15.7204 9.89999C15.5404 8.31999 16.6004 7.11999 17.4604 6.14999C17.7804 5.78999 18.6204 4.82999 18.5504 4.58999C18.3004 3.79999 18.5704 2.93999 19.2104 2.41999C19.5704 2.12999 20.0104 1.98999 20.4504 1.98999C20.8004 1.98999 21.1504 2.07999 21.4704 2.26999C21.8504 2.48999 23.7604 3.71999 24.2204 5.81999C24.4704 6.99999 24.2204 8.18999 23.4604 9.25999C22.1704 11.1 22.1004 12.56 22.2904 12.86C22.8304 13.72 22.6604 14.88 21.8704 15.52C21.4904 15.82 21.0404 15.98 20.5904 15.98H20.5804Z" fill="white"/>
<path d="M20 38C10.63 38 3 28.58 3 17C3 14.79 4.79 13 7 13H33C35.21 13 37 14.79 37 17C37 28.58 29.37 38 20 38Z" fill="white"/>
<path d="M30.5795 33C28.3495 33 26.3995 32.06 25.0895 30.34C23.6695 28.48 23.2595 25.97 23.9495 23.44C25.1095 19.2 29.0195 15.99 33.0395 15.99C35.2695 15.99 37.2195 16.93 38.5295 18.65C39.9495 20.51 40.3595 23.02 39.6695 25.55C38.5095 29.79 34.5995 33 30.5795 33Z" fill="white"/>
<path d="M9.38 40C5.17 40 2 37.48 2 34.13V34C2 31.79 3.79 30 6 30H34C36.21 30 38 31.79 38 34V34.13C38 37.48 34.83 40 30.62 40H9.38Z" fill="white"/>
<path d="M30.5795 31C28.9895 31 27.5995 30.34 26.6795 29.13C25.6395 27.77 25.3495 25.89 25.8795 23.97C26.7995 20.62 29.9395 18 33.0395 18C34.6295 18 36.0195 18.66 36.9395 19.87C37.9795 21.23 38.2694 23.11 37.7394 25.03C36.8194 28.38 33.6795 31 30.5795 31Z" fill="#221F1F"/>
<path d="M20 36C11.73 36 5 27.48 5 17C5 15.9 5.9 15 7 15H33C34.1 15 35 15.9 35 17C35 27.48 28.27 36 20 36Z" fill="#221F1F"/>
<path d="M33.0403 21.9C33.5803 21.9 33.7703 22.15 33.8403 22.24C34.1303 22.62 34.1803 23.28 33.9803 24.01C33.4803 25.84 31.7903 27.11 30.5803 27.11C30.0403 27.11 29.8503 26.86 29.7803 26.77C29.4903 26.39 29.4403 25.73 29.6403 25C30.1403 23.17 31.8303 21.9 33.0403 21.9ZM33.0403 20C30.8303 20 28.4903 22.01 27.8103 24.5C27.1303 26.99 28.3703 29 30.5803 29C32.7903 29 35.1303 26.99 35.8103 24.5C36.4903 22.01 35.2503 20 33.0403 20Z" fill="#A0CBEF"/>
<path d="M20.4506 4C20.4506 4 23.4606 5.78 21.8206 8.12C20.1806 10.46 19.8106 12.8 20.6306 14C20.6306 14 17.8906 11.3 17.7106 9.68C17.5306 8.07 21.1806 6.33 20.4506 4Z" fill="#9E9E9E"/>
<path d="M20 34C27.18 34 33 26.39 33 17H7C7 26.39 12.82 34 20 34Z" fill="white"/>
<path d="M15.09 17H7C7 26.39 12.82 34 20 34C21.4 34 22.74 33.7 24 33.17C19.09 29.85 15.64 23.92 15.08 17H15.09Z" fill="#CAE5FF"/>
<path d="M9.38 38C6.31 38 4 36.34 4 34.13V34C4 32.9 4.9 32 6 32H34C35.1 32 36 32.9 36 34V34.13C36 36.34 33.69 38 30.62 38H9.38Z" fill="#221F1F"/>
<path d="M6 34V34.13C6 35.16 7.52 36 9.38 36H30.62C32.48 36 34 35.16 34 34.13V34H6Z" fill="white"/>
<path d="M18.35 34H6V34.13C6 35.16 7.52 36 9.38 36H19.95C19.37 35.38 18.84 34.71 18.35 34Z" fill="#CAE5FF"/>
</svg>
