<svg width="42" height="42" viewBox="0 0 42 42" fill="none" xmlns="http://www.w3.org/2000/svg">
<path d="M19.5 40C9.85 40 2 33.27 2 25C2 18.27 9.69 13 19.5 13C29.31 13 37 18.27 37 25C37 33.27 29.15 40 19.5 40Z" fill="white"/>
<path d="M24.0599 24.97C22.8699 24.97 21.7399 24.21 21.2699 23.08C20.7999 21.97 21.0399 20.73 21.8999 19.86L33.2999 8.21003C34.1099 7.42003 35.0499 7.03003 36.0499 7.03003C37.6699 7.03003 39.1599 8.08003 39.7399 9.65003C40.3099 11.17 39.8599 12.8 38.5899 13.91L25.9499 24.29C25.3999 24.74 24.7499 24.98 24.0599 24.98V24.97Z" fill="white"/>
<path d="M15.4197 19.28C14.2397 19.28 13.2097 18.61 12.7197 17.52L8.12966 7.5C7.57966 6.17 7.67966 4.83 8.39966 3.76C9.12966 2.67 10.3997 2 11.7397 2C13.4397 2 14.8797 3.09 15.4097 4.78L18.3597 15.49C18.6097 16.39 18.4397 17.33 17.8797 18.07C17.3097 18.83 16.3897 19.28 15.4197 19.28Z" fill="white"/>
<path d="M14.6098 31.2299C12.3298 31.2299 10.2698 29.7899 9.48976 27.6399L7.89976 23.2599C7.08976 21.0299 7.19976 18.6199 8.19976 16.4699C9.19976 14.3199 10.9798 12.6899 13.2098 11.8799L14.3698 11.4599C15.3498 11.0999 16.3698 10.9199 17.4098 10.9199C21.1298 10.9199 24.4898 13.2699 25.7598 16.7699L27.3598 21.1499C28.3898 23.9699 26.9298 27.1099 24.1098 28.1399L16.4998 30.9099C15.8998 31.1299 15.2698 31.2399 14.6398 31.2399L14.6098 31.2299Z" fill="white"/>
<path d="M19.5 38C10.95 38 4 32.17 4 25C4 19.39 10.81 15 19.5 15C28.19 15 35 19.39 35 25C35 32.17 28.05 38 19.5 38Z" fill="#221F1F"/>
<path d="M23.3203 21.2599L34.7203 9.60995C36.5903 7.77995 39.2603 10.6799 37.2703 12.3899L24.6703 22.7399C23.7103 23.5299 22.4503 22.1499 23.3203 21.2699V21.2599Z" fill="#221F1F"/>
<path d="M19.5 36C26.96 36 33 31.08 33 25H6C6 31.08 12.04 36 19.5 36Z" fill="#221F1F"/>
<path d="M19.5 33C26.9558 33 33 29.4183 33 25C33 20.5817 26.9558 17 19.5 17C12.0442 17 6 20.5817 6 25C6 29.4183 12.0442 33 19.5 33Z" fill="#E4E4E4"/>
<path d="M19.5 31C12.72 31 8 27.84 8 25C8 22.16 12.72 19 19.5 19C26.28 19 31 22.16 31 25C31 27.84 26.28 31 19.5 31Z" fill="#221F1F"/>
<path d="M19.4997 22C13.9097 22 9.71969 24.15 8.42969 26.5C9.72969 28.85 13.9097 31 19.4997 31C25.0897 31 29.2797 28.85 30.5697 26.5C29.2697 24.15 25.0897 22 19.4997 22Z" fill="#979797"/>
<path d="M14.5503 16.7L9.95031 6.67C8.92031 4.18 12.6903 2.8 13.5003 5.38L16.4303 16.02C16.7603 17.19 15.0503 17.81 14.5503 16.7Z" fill="#221F1F"/>
<path d="M14.6105 29.2299C13.1605 29.2299 11.8605 28.3199 11.3605 26.9599L9.77052 22.5799C8.47052 19.0099 10.3205 15.0599 13.8805 13.7599L15.0405 13.3399C15.8005 13.0599 16.5905 12.9199 17.3905 12.9199C20.2705 12.9199 22.8705 14.7399 23.8605 17.4499L25.4605 21.8299C26.1105 23.6199 25.1905 25.5999 23.4005 26.2599L15.7905 29.0299C15.4105 29.1699 15.0105 29.2399 14.6105 29.2399V29.2299Z" fill="#221F1F"/>
<path d="M14.5698 15.6298L15.7257 15.2091C18.2628 14.2856 21.0604 15.598 21.9804 18.1257L23.5742 22.5047C23.8478 23.2564 23.4594 24.0896 22.7076 24.3632L15.1055 27.1301C14.3537 27.4037 13.5206 27.0152 13.247 26.2635L11.6532 21.8845C10.7297 19.3474 12.0421 16.5498 14.5698 15.6298Z" fill="white"/>
<path d="M11.6499 21.8899L13.2399 26.2699C13.5099 27.0199 14.3499 27.4099 15.0999 27.1399L22.7099 24.3699C23.4599 24.0999 23.8499 23.2599 23.5799 22.5099L23.3299 21.8199L11.3799 20.3999C11.3999 20.8999 11.4699 21.3999 11.6499 21.8899Z" fill="#C4C4C4"/>
<path d="M15.7496 19.9993C15.5607 19.4803 14.9868 19.2127 14.4679 19.4016C13.9489 19.5905 13.6813 20.1644 13.8702 20.6833L14.8962 23.5024C15.0851 24.0214 15.659 24.289 16.178 24.1001C16.6969 23.9112 16.9645 23.3374 16.7756 22.8184L15.7496 19.9993Z" fill="#221F1F"/>
<path d="M19.5044 18.626C19.3155 18.107 18.7417 17.8394 18.2227 18.0283C17.7037 18.2172 17.4361 18.7911 17.625 19.3101L18.6511 22.1291C18.84 22.6481 19.4138 22.9157 19.9328 22.7268C20.4518 22.5379 20.7194 21.9641 20.5305 21.4451L19.5044 18.626Z" fill="#221F1F"/>
</svg>
