<svg width="42" height="42" viewBox="0 0 42 42" fill="none" xmlns="http://www.w3.org/2000/svg">
<path d="M11 29H13V27.85L8.76 22.33C8.45 21.92 8.23 21.48 8.06 21.02C6.82 20.11 6 18.65 6 17C6 14.72 7.54 12.82 9.62 12.22C9.93 11.85 10.27 11.51 10.68 11.23L16.84 7.09C16.9 7.05 16.97 7.02 17.03 6.98C17.38 5.56 18.28 4.29 19.63 3.51L20.96 2.74C21.8 2.25 22.76 2 23.73 2C25.27 2 26.75 2.65 27.79 3.77L28.82 4.88C30.45 4.98 31.97 5.74 33.04 6.99L36.04 10.52C36.81 11.43 37.13 12.62 36.93 13.79C36.73 14.96 36.02 15.98 34.99 16.57L24.59 22.57C23.98 22.92 23.29 23.1 22.59 23.1C22.36 23.1 22.13 23.08 21.91 23.04L21.95 23.09C22.62 23.96 22.98 25.04 22.98 26.14V28.99H24.98C28.84 28.99 31.98 32.13 31.98 35.99C31.98 38.2 30.19 39.99 27.98 39.99H8C5.79 39.99 4 38.2 4 35.99C4 32.13 7.14 28.99 11 28.99V29Z" fill="white"/>
<path d="M28 38C29.1 38 30 37.1 30 36C30 33.24 27.76 31 25 31H11C8.24 31 6 33.24 6 36C6 37.1 6.9 38 8 38H28Z" fill="#221F1F"/>
<path d="M22.6102 21.12C22.9602 21.12 23.3002 21.03 23.6102 20.85L34.0002 14.85C34.5102 14.55 34.8702 14.04 34.9702 13.46C35.0702 12.88 34.9102 12.28 34.5202 11.82L31.5202 8.29C30.7602 7.39 29.6402 6.87 28.4602 6.87H27.9502L26.3202 5.13C25.6502 4.41 24.7102 4 23.7202 4C23.1002 4 22.4902 4.16 21.9502 4.47L20.6102 5.24C19.1702 6.07 18.5102 7.76 19.0002 9.35L19.7002 11.62L19.4802 11.99C18.8502 13.03 18.7302 14.28 19.1402 15.42L20.7002 19.78C20.9002 20.34 21.3402 20.78 21.8902 20.98C22.1102 21.06 22.3502 21.1 22.5802 21.1L22.6102 21.12Z" fill="#221F1F"/>
<path d="M18.0001 36.7293C19.6501 36.7293 21.0001 35.3793 21.0001 33.7293V26.1493C21.0001 25.4893 20.7801 24.8393 20.3801 24.3193L15.1001 17.4493C14.5301 16.6993 13.6601 16.2793 12.7201 16.2793C12.0601 16.2793 11.4101 16.4993 10.8901 16.8993C9.58011 17.9093 9.34011 19.7893 10.3401 21.0993L15.0001 27.1593V33.7193C15.0001 35.3693 16.3501 36.7193 18.0001 36.7193V36.7293Z" fill="#221F1F"/>
<path d="M13.4699 18.3802C14.0699 18.3802 14.6499 18.2002 15.1399 17.8702L21.2999 13.7302C21.9599 13.2802 22.4199 12.6102 22.5699 11.8202C22.7199 11.0302 22.5699 10.2402 22.1199 9.57023C21.5599 8.74023 20.6299 8.24023 19.6299 8.24023C19.0299 8.24023 18.4499 8.42023 17.9599 8.75023L11.7999 12.8902C11.1399 13.3402 10.6799 14.0102 10.5299 14.8002C10.3799 15.5902 10.5299 16.3802 10.9799 17.0502C11.5399 17.8802 12.4699 18.3802 13.4699 18.3802Z" fill="#221F1F"/>
<path d="M11 20C12.6569 20 14 18.6569 14 17C14 15.3431 12.6569 14 11 14C9.34315 14 8 15.3431 8 17C8 18.6569 9.34315 20 11 20Z" fill="#221F1F"/>
<path d="M22.2999 6.59049L22.9699 6.20049C23.5899 5.84049 24.3799 5.96049 24.8699 6.49049L26.4899 8.24049C26.8799 8.66049 27.4299 8.90049 28.0099 8.88049H28.4299C29.0399 8.86049 29.6099 9.12049 30.0099 9.58049L33.0099 13.1105L27.8099 16.1105L22.6099 19.1105L21.0499 14.7505C20.8499 14.1805 20.9099 13.5505 21.2199 13.0305L21.4399 12.6705C21.7399 12.1805 21.8099 11.5805 21.6399 11.0305L20.9399 8.76049C20.7299 8.07049 21.0199 7.33049 21.6399 6.97049L22.3099 6.58049L22.2999 6.59049Z" fill="#B9B9FF"/>
<path d="M17.9998 34.7299C18.5498 34.7299 18.9998 34.2799 18.9998 33.7299V26.1499C18.9998 25.9299 18.9298 25.7199 18.7898 25.5399L13.5098 18.6699C13.1698 18.2299 12.5498 18.1499 12.1098 18.4899C11.6698 18.8299 11.5898 19.4499 11.9298 19.8899L16.9998 26.4899V33.7299C16.9998 34.2799 17.4498 34.7299 17.9998 34.7299Z" fill="#C4C4C4"/>
<path d="M13.4699 16.3791C13.6599 16.3791 13.8599 16.3291 14.0299 16.2091L19.9299 12.2891C20.3899 11.9791 20.5099 11.3591 20.1999 10.8991C19.8899 10.4391 19.2699 10.3191 18.8099 10.6291L12.9099 14.5491C12.4499 14.8591 12.3299 15.4791 12.6399 15.9391C12.8299 16.2291 13.1499 16.3791 13.4699 16.3791Z" fill="#C4C4C4"/>
<path d="M11 18C11.5523 18 12 17.5523 12 17C12 16.4477 11.5523 16 11 16C10.4477 16 10 16.4477 10 17C10 17.5523 10.4477 18 11 18Z" fill="#C4C4C4"/>
<path d="M11 31H25C26.65 31 28 32.35 28 34H8C8 32.35 9.35 31 11 31Z" fill="#221F1F"/>
<path d="M25 33H11C9.35 33 8 34.35 8 36H28C28 34.35 26.65 33 25 33Z" fill="#B9B9FF"/>
<path d="M17.21 33H11C9.35 33 8 34.35 8 36H18.2L17.21 33Z" fill="#9891F5"/>
<path d="M21.21 7.35938C20.9 7.74937 20.79 8.26937 20.94 8.76937L21.64 11.0394C21.81 11.5894 21.74 12.1894 21.44 12.6794L21.22 13.0394C20.91 13.5594 20.84 14.1894 21.05 14.7594L22.61 19.1194L27.81 16.1194L27.86 16.0894C25.66 11.2494 23.2 8.69938 21.21 7.35938Z" fill="#9891F5"/>
</svg>
