<svg width="42" height="42" viewBox="0 0 42 42" fill="none" xmlns="http://www.w3.org/2000/svg">
<path d="M17.4394 27.7598C14.5994 27.7598 13.3194 25.5098 12.7794 24.5498L12.7294 24.4498L3.92941 11.2098L3.79941 11.0098C2.98941 9.61977 2.77941 7.99977 3.19941 6.44977C3.60941 4.89977 4.60941 3.60977 5.98941 2.80977C6.89941 2.28977 7.92941 2.00977 8.97941 2.00977C11.1194 2.00977 13.1094 3.15977 14.1794 5.00977C14.2194 5.07977 14.2594 5.15977 14.3094 5.23977L21.3794 19.4598L21.4394 19.5598C21.9494 20.4198 22.8894 22.0398 22.3594 24.0598C22.0294 25.3098 21.1894 26.3698 19.9894 27.0598C19.1694 27.5298 18.3094 27.7698 17.4394 27.7698V27.7598Z" fill="white"/>
<path d="M22 25C16.49 25 12 20.51 12 15C12 9.49 16.49 5 22 5C27.51 5 32 9.49 32 15C32 20.51 27.51 25 22 25Z" fill="white"/>
<path d="M16 32C10.49 32 6 27.51 6 22C6 16.49 10.49 12 16 12C21.51 12 26 16.49 26 22C26 27.51 21.51 32 16 32Z" fill="white"/>
<path d="M28 32C22.49 32 18 27.51 18 22C18 16.49 22.49 12 28 12C33.51 12 38 16.49 38 22C38 27.51 33.51 32 28 32Z" fill="white"/>
<path d="M22 40C12.63 40 5 32.37 5 23C5 20.79 6.79 19 9 19H35C37.21 19 39 20.79 39 23C39 32.37 31.37 40 22 40Z" fill="white"/>
<path d="M13.9992 39.9998C12.8192 39.9998 11.7092 39.4798 10.9492 38.5898C10.1892 37.6898 9.85925 36.5098 10.0592 35.3498L11.0592 29.3498C11.3792 27.4098 13.0392 26.0098 15.0092 26.0098H29.0092C30.9692 26.0098 32.6292 27.4198 32.9592 29.3498L33.9592 35.3498C34.1492 36.5098 33.8292 37.6898 33.0692 38.5898C32.3092 39.4898 31.1992 40.0098 30.0192 40.0098H13.9992V39.9998Z" fill="white"/>
<path d="M17.4405 25.7602C15.7705 25.7602 14.9805 24.3802 14.5205 23.5602L14.4305 23.4002L5.60047 10.1002C5.60047 10.1002 5.56047 10.0302 5.54047 9.99023C5.01047 9.07023 4.86047 7.99023 5.14047 6.95023C5.42047 5.92023 6.08047 5.05023 7.00047 4.52023C7.61047 4.17023 8.29047 3.99023 8.99047 3.99023C10.4205 3.99023 11.7505 4.76023 12.4605 5.99023C12.4805 6.03023 12.5005 6.06023 12.5205 6.10023L19.6205 20.4002L19.7105 20.5602C20.1505 21.3002 20.7405 22.3202 20.4205 23.5402C20.2805 24.0502 19.9305 24.7802 18.9905 25.3202C18.4805 25.6102 17.9605 25.7602 17.4405 25.7602Z" fill="#221F1F"/>
<path d="M18.0003 23.5903C17.0503 24.1403 16.6803 23.3103 16.1303 22.3603L7.27026 9.00026C6.72026 8.05026 7.05026 6.82026 8.00026 6.27026C8.95026 5.72026 10.1803 6.05026 10.7303 7.00026L17.8603 21.3603C18.4103 22.3103 18.9503 23.0403 17.9903 23.5903H18.0003Z" fill="#CAE5FF"/>
<path d="M22 23C26.4183 23 30 19.4183 30 15C30 10.5817 26.4183 7 22 7C17.5817 7 14 10.5817 14 15C14 19.4183 17.5817 23 22 23Z" fill="#221F1F"/>
<path d="M22 21C25.3137 21 28 18.3137 28 15C28 11.6863 25.3137 9 22 9C18.6863 9 16 11.6863 16 15C16 18.3137 18.6863 21 22 21Z" fill="#E3DBBB"/>
<path d="M16 30C20.4183 30 24 26.4183 24 22C24 17.5817 20.4183 14 16 14C11.5817 14 8 17.5817 8 22C8 26.4183 11.5817 30 16 30Z" fill="#221F1F"/>
<path d="M16 28C19.3137 28 22 25.3137 22 22C22 18.6863 19.3137 16 16 16C12.6863 16 10 18.6863 10 22C10 25.3137 12.6863 28 16 28Z" fill="#FFAEFD"/>
<path d="M28 30C32.4183 30 36 26.4183 36 22C36 17.5817 32.4183 14 28 14C23.5817 14 20 17.5817 20 22C20 26.4183 23.5817 30 28 30Z" fill="#221F1F"/>
<path d="M28 28C31.3137 28 34 25.3137 34 22C34 18.6863 31.3137 16 28 16C24.6863 16 22 18.6863 22 22C22 25.3137 24.6863 28 28 28Z" fill="#F9A936"/>
<path d="M22 38C13.73 38 7 31.27 7 23C7 21.9 7.9 21 9 21H35C36.1 21 37 21.9 37 23C37 31.27 30.27 38 22 38Z" fill="#221F1F"/>
<path d="M14.0006 38C13.4106 38 12.8506 37.74 12.4706 37.29C12.0906 36.84 11.9306 36.25 12.0206 35.67L13.0206 29.67C13.1806 28.71 14.0206 28 14.9906 28H28.9906C29.9706 28 30.8006 28.71 30.9606 29.67L31.9606 35.67C32.0606 36.25 31.8906 36.84 31.5106 37.29C31.1306 37.74 30.5706 38 29.9806 38H14.0006Z" fill="#221F1F"/>
<path d="M29 30H15L14 36H30L29 30Z" fill="#CAE5FF"/>
<path d="M22 36C29.18 36 35 30.18 35 23H9C9 30.18 14.82 36 22 36Z" fill="white"/>
<path d="M27 33.85C20.59 33.85 15.29 29.15 14.32 23H9C9 30.18 14.82 36 22 36C24.8 36 27.39 35.1 29.51 33.6C28.7 33.76 27.86 33.85 27 33.85Z" fill="#CAE5FF"/>
</svg>
