<svg width="42" height="42" viewBox="0 0 42 42" fill="none" xmlns="http://www.w3.org/2000/svg">
<path d="M23.5 40C14.4 40 7 32.6 7 23.5C7 14.4 14.4 7 23.5 7C32.6 7 40 14.4 40 23.5C40 32.6 32.6 40 23.5 40ZM23.5 17C19.92 17 17 19.92 17 23.5C17 27.08 19.92 30 23.5 30C27.08 30 30 27.08 30 23.5C30 19.92 27.08 17 23.5 17Z" fill="white"/>
<path d="M6 18C3.79 18 2 16.21 2 14V10C2 8.93 2.42 7.93 3.17 7.17L7.17 3.17C7.93 2.41 8.93 2 10 2H14C16.21 2 18 3.79 18 6V14C18 16.21 16.21 18 14 18H6Z" fill="white"/>
<path d="M23.5 38C15.5 38 9 31.5 9 23.5C9 15.5 15.5 9 23.5 9C31.5 9 38 15.5 38 23.5C38 31.5 31.5 38 23.5 38ZM23.5 15C18.81 15 15 18.81 15 23.5C15 28.19 18.81 32 23.5 32C28.19 32 32 28.19 32 23.5C32 18.81 28.19 15 23.5 15Z" fill="#221F1F"/>
<path d="M6 16C4.9 16 4 15.1 4 14V10C4 9.47 4.21 8.96 4.59 8.59L8.59 4.59C8.97 4.21 9.47 4 10 4H14C15.1 4 16 4.9 16 6V14C16 15.1 15.1 16 14 16H6Z" fill="#221F1F"/>
<path d="M10 6L6 10V14H14V6H10Z" fill="#A2D6FF"/>
<path d="M10 6L8 8L10 10L14 6H10Z" fill="white"/>
<path d="M5.4602 14.54C5.4802 14.83 5.5002 15.06 5.5402 15.04C5.6302 15.01 12.9602 15.16 12.9602 15.16L13.9902 14L9.9902 10L5.4502 14.54H5.4602Z" fill="#221F1F"/>
<path d="M23.5 11C16.6 11 11 16.6 11 23.5C11 30.4 16.6 36 23.5 36C30.4 36 36 30.4 36 23.5C36 16.6 30.4 11 23.5 11ZM23.5 34C17.7 34 13 29.3 13 23.5C13 17.7 17.7 13 23.5 13C29.3 13 34 17.7 34 23.5C34 29.3 29.3 34 23.5 34Z" fill="#F7DF69"/>
<path d="M33.63 26.2099C32.43 30.6899 28.36 33.9999 23.5 33.9999C17.7 33.9999 13 29.2999 13 23.4999C13 22.3599 13.19 21.2599 13.52 20.2399L11.6 19.6699C11.21 20.8799 11 22.1699 11 23.4999C11 30.3999 16.6 35.9999 23.5 35.9999C29.26 35.9999 34.1 32.0899 35.55 26.7899L33.63 26.2199V26.2099Z" fill="#F9A936"/>
</svg>
