<svg width="42" height="42" viewBox="0 0 42 42" fill="none" xmlns="http://www.w3.org/2000/svg">
<path d="M4.41007 23.89C3.60007 23.89 2.81007 23.55 2.24007 22.96C1.10008 21.77 1.14008 19.87 2.33007 18.72L18.9301 2.83C19.4901 2.29 20.2301 2 21.0001 2C21.7701 2 22.5101 2.29 23.0701 2.83L39.6601 18.72C40.8501 19.87 40.8901 21.77 39.7501 22.96C39.1901 23.55 38.4001 23.88 37.5801 23.88C36.7601 23.88 36.0601 23.58 35.5001 23.05L20.9901 9.15L6.48007 23.05C5.92007 23.59 5.19007 23.88 4.41007 23.88V23.89Z" fill="white"/>
<path d="M37.6102 16.8L23.0802 2.84C22.5202 2.3 21.7802 2 21.0002 2C20.2202 2 19.4802 2.3 18.9202 2.84L14.8802 6.73C14.5602 5.41 13.3802 4.42 11.9702 4.42H6.47021C4.82021 4.42 3.47021 5.77 3.47021 7.42V37C3.47021 38.65 4.82021 40 6.47021 40H35.5402C37.1902 40 38.5402 38.65 38.5402 37V18.96C38.5402 18.15 38.2002 17.36 37.6202 16.8H37.6102ZM32.5302 34H9.47021V28.24H11.9702C13.6202 28.24 14.9702 26.89 14.9702 25.24V14.96L21.0002 9.16L32.5302 20.24V34Z" fill="white"/>
<path d="M6.45996 25.2304H11.96V7.4104H6.45996V25.2304Z" fill="#D88C7D"/>
<path d="M6.47021 26.2399H11.9702C12.5202 26.2399 12.9702 25.7899 12.9702 25.2399V7.41992C12.9702 6.86992 12.5202 6.41992 11.9702 6.41992H6.47021C5.92021 6.41992 5.47021 6.86992 5.47021 7.41992V25.2399C5.47021 25.7899 5.92021 26.2399 6.47021 26.2399ZM10.9702 24.2399H7.47021V8.41992H10.9702V24.2399Z" fill="#221F1F"/>
<path fill-rule="evenodd" clip-rule="evenodd" d="M6.47021 37H35.5302V18.96L21.0002 5L6.47021 18.96V37Z" fill="white"/>
<path d="M35.5302 37.9995H6.47021C5.92021 37.9995 5.47021 37.5495 5.47021 36.9995V18.9595C5.47021 18.6895 5.58022 18.4295 5.78022 18.2395L20.3102 4.27945C20.7002 3.90945 21.3102 3.90945 21.7002 4.27945L36.2302 18.2395C36.4302 18.4295 36.5402 18.6895 36.5402 18.9595V36.9995C36.5402 37.5495 36.0902 37.9995 35.5402 37.9995H35.5302ZM7.47021 35.9995H34.5402V19.3895L21.0102 6.38945L7.48022 19.3895V35.9995H7.47021Z" fill="#221F1F"/>
<path fill-rule="evenodd" clip-rule="evenodd" d="M18.8501 8.45039L34.5301 23.5204V18.8504L20.8401 5.40039L18.8501 8.45039Z" fill="#C4C4C4"/>
<path fill-rule="evenodd" clip-rule="evenodd" d="M20.9998 32.4105C6.38977 24.4405 16.9598 14.5305 20.9998 21.2005C25.0498 14.5205 35.6198 24.4405 20.9998 32.4105Z" fill="#F0AA97"/>
<path d="M20.9998 33.4103C20.8298 33.4103 20.6698 33.3703 20.5198 33.2903C12.5398 28.9303 12.3098 24.3303 12.5798 22.5503C12.9198 20.3003 14.5598 18.5103 16.6498 18.0903C18.2598 17.7703 19.8098 18.3103 20.9998 19.5603C22.1898 18.3103 23.7398 17.7803 25.3498 18.0903C27.4398 18.5103 29.0798 20.3003 29.4198 22.5503C29.6898 24.3303 29.4598 28.9403 21.4798 33.2903C21.3298 33.3703 21.1698 33.4103 20.9998 33.4103ZM17.5398 20.0003C17.3698 20.0003 17.2098 20.0203 17.0398 20.0503C15.7698 20.3003 14.7698 21.4303 14.5598 22.8403C14.1398 25.5803 16.5398 28.7003 21.0098 31.2603C25.4698 28.7103 27.8698 25.5803 27.4598 22.8403C27.2398 21.4203 26.2398 20.3003 24.9698 20.0503C23.7798 19.8103 22.6498 20.4203 21.8598 21.7203C21.6798 22.0203 21.3498 22.2003 21.0098 22.2003C20.6598 22.2003 20.3398 22.0203 20.1598 21.7203C19.4898 20.6103 18.5598 20.0003 17.5598 20.0003H17.5398Z" fill="#221F1F"/>
<path d="M37.5898 21.8895C37.3398 21.8895 37.0898 21.7995 36.8998 21.6095L20.9998 6.38945L5.0998 21.6095C4.6998 21.9895 4.0698 21.9795 3.6898 21.5795C3.3098 21.1795 3.3198 20.5495 3.7198 20.1695L20.3098 4.27945C20.6998 3.90945 21.3098 3.90945 21.6898 4.27945L38.2798 20.1595C38.6798 20.5395 38.6898 21.1795 38.3098 21.5695C38.1098 21.7795 37.8498 21.8795 37.5898 21.8795V21.8895Z" fill="#221F1F"/>
<path d="M37.5898 21.8795C37.3398 21.8795 37.0898 21.7895 36.8998 21.5995L20.9998 6.37945L5.0998 21.5995C4.6998 21.9795 4.0698 21.9695 3.6898 21.5695C3.3098 21.1695 3.3198 20.5395 3.7198 20.1595L20.3098 4.27945C20.6998 3.90945 21.3098 3.90945 21.6898 4.27945L38.2798 20.1595C38.6798 20.5395 38.6898 21.1795 38.3098 21.5695C38.1098 21.7795 37.8498 21.8795 37.5898 21.8795Z" fill="#221F1F"/>
</svg>
