<svg width="42" height="42" viewBox="0 0 42 42" fill="none" xmlns="http://www.w3.org/2000/svg">
<path d="M30.4698 39.9993C29.5798 39.9993 28.7598 39.5193 28.3098 38.7593C27.8598 37.9893 27.8598 37.0393 28.2998 36.2693L29.0398 34.9793C26.6998 32.9693 25.2998 30.0093 25.2998 26.8793C25.2998 23.4793 26.9398 20.2893 29.6498 18.2893V10.6493C22.7098 12.8393 17.8198 20.2993 15.4598 24.6793C15.5398 24.7993 15.6098 24.9193 15.6798 25.0493C19.2198 25.3893 21.9998 28.3893 21.9998 32.0193C21.9998 35.8793 18.8598 39.0193 14.9998 39.0193C13.6698 39.0193 12.4098 38.6493 11.3298 37.9793C10.6698 39.2293 9.3498 40.0193 7.9298 40.0193C7.3698 40.0193 6.8198 39.8993 6.2998 39.6593L4.2198 38.6893C3.2898 38.2593 2.5798 37.4793 2.2298 36.5193C1.8798 35.5493 1.9198 34.5093 2.3598 33.5793L6.7098 24.2493C7.3198 22.9393 8.6298 22.0793 10.0598 22.0293C11.0398 20.1793 12.4198 17.8393 14.1898 15.4793C19.7998 7.9893 26.5198 4.0293 33.6498 4.0293C34.7498 4.0293 35.6498 4.9293 35.6498 6.0293V18.3093C38.3598 20.3093 39.9998 23.4993 39.9998 26.8993C39.9998 30.0293 38.6098 32.9893 36.2598 34.9993L36.9898 36.2893C37.4298 37.0593 37.4198 38.0193 36.9798 38.7793C36.5298 39.5493 35.7098 40.0193 34.8198 40.0193H30.4598L30.4698 39.9993Z" fill="white"/>
<path d="M15 37C17.7614 37 20 34.7614 20 32C20 29.2386 17.7614 27 15 27C12.2386 27 10 29.2386 10 32C10 34.7614 12.2386 37 15 37Z" fill="#221F1F"/>
<path d="M11.7299 27.85L9.85986 27.14C9.93986 26.93 11.9099 21.83 15.7899 16.65C20.9999 9.68 27.1799 6 33.6399 6V8C19.4999 8 11.7999 27.65 11.7299 27.85Z" fill="#221F1F"/>
<path d="M35.26 37.2504L32.65 32.6504L30.04 37.2504C29.85 37.5804 30.09 38.0004 30.48 38.0004H34.84C35.22 38.0004 35.46 37.5904 35.28 37.2504H35.26Z" fill="#221F1F"/>
<path d="M32.65 34.6498C32.31 34.6498 31.96 34.5598 31.65 34.3798C28.96 32.8398 27.29 29.9598 27.29 26.8698C27.29 23.7798 28.96 20.8998 31.65 19.3598C31.96 19.1798 32.3 19.0898 32.65 19.0898C33 19.0898 33.34 19.1798 33.65 19.3598C36.34 20.8998 38.01 23.7798 38.01 26.8698C38.01 29.9598 36.34 32.8398 33.65 34.3798C33.34 34.5598 33 34.6498 32.65 34.6498Z" fill="#221F1F"/>
<path d="M32.6498 21.0898C30.6498 22.2398 29.2998 24.3998 29.2998 26.8698C29.2998 29.3398 30.6498 31.4998 32.6498 32.6498C34.6498 31.4998 35.9998 29.3398 35.9998 26.8698C35.9998 24.3998 34.6498 22.2398 32.6498 21.0898Z" fill="#B7EDB7"/>
<path d="M33.6499 7H31.6499V20H33.6499V7Z" fill="#221F1F"/>
<path d="M9.60234 36.9317L13.9553 27.5967C14.3871 26.6707 13.9864 25.57 13.0604 25.1382L10.976 24.1662C10.05 23.7344 8.94926 24.135 8.51746 25.061L4.1645 34.396C3.7327 35.322 4.13332 36.4227 5.05932 36.8545L7.14383 37.8265C8.06983 38.2583 9.17054 37.8577 9.60234 36.9317Z" fill="#221F1F"/>
<path d="M12.0847 26.8902L10.2721 26.0449L6.0459 35.108L7.85852 35.9532L12.0847 26.8902Z" fill="#F0AA97"/>
<path d="M15 35C16.6569 35 18 33.6569 18 32C18 30.3431 16.6569 29 15 29C13.3431 29 12 30.3431 12 32C12 33.6569 13.3431 35 15 35Z" fill="#C4C4C4"/>
<path d="M15 33C15.5523 33 16 32.5523 16 32C16 31.4477 15.5523 31 15 31C14.4477 31 14 31.4477 14 32C14 32.5523 14.4477 33 15 33Z" fill="#221F1F"/>
<path d="M32.6499 25.5C33.2022 25.5 33.6499 25.0523 33.6499 24.5C33.6499 23.9477 33.2022 23.5 32.6499 23.5C32.0976 23.5 31.6499 23.9477 31.6499 24.5C31.6499 25.0523 32.0976 25.5 32.6499 25.5Z" fill="#221F1F"/>
<path d="M29.65 24.7598C29.43 25.4298 29.29 26.1298 29.29 26.8698C29.29 29.3398 30.64 31.4998 32.64 32.6498C34.07 31.8298 35.16 30.4798 35.67 28.8798C33.18 28.4698 31.03 26.9398 29.64 24.7598H29.65Z" fill="#9CDB9C"/>
</svg>
