<svg width="42" height="42" viewBox="0 0 42 42" fill="none" xmlns="http://www.w3.org/2000/svg">
<path d="M37.14 19.92C38.95 18.07 40 15.2 40 12C40 6.39 36.71 2 32.5 2C30.54 2 28.79 2.95 27.46 4.53C27.23 3.1 25.99 2 24.5 2C21.76 2 19.55 3.87 18 6.27V5C18 3.35 16.65 2 15 2H6C4.35 2 3 3.35 3 5V14.5C3 16.8 4.06 18.94 5.83 20.35L5 34.26C5 34.26 5 34.34 5 34.38C5 37.48 7.47 40 10.5 40C11.99 40 13.38 39.4 14.42 38.31C15.25 37.44 15.75 36.34 15.92 35.15C16.53 36.46 17.24 37.41 17.84 38.05C18.85 39.24 20.34 40 22 40C24.46 40 26.55 38.34 27.25 36.06C27.95 38.34 30.04 40 32.5 40C33.99 40 35.38 39.4 36.42 38.31C37.44 37.24 38 35.82 38 34.32C38 34.28 38 34.24 38 34.2L37.15 19.91L37.14 19.92Z" fill="white"/>
<path d="M32.5 19C34.9853 19 37 15.866 37 12C37 8.13401 34.9853 5 32.5 5C30.0147 5 28 8.13401 28 12C28 15.866 30.0147 19 32.5 19Z" fill="#CAE5FF"/>
<path fill-rule="evenodd" clip-rule="evenodd" d="M32.5 37C31.13 37 30 35.82 30 34.38L31 17.62C31 16.18 31.12 15 32.5 15C33.87 15 34 16.18 34 17.62L35 34.38C35 35.82 33.88 37 32.5 37Z" fill="#CAE5FF"/>
<path fill-rule="evenodd" clip-rule="evenodd" d="M10.5 37C9.13 37 8 35.82 8 34.38L9 17.62C9 16.18 9.12 15 10.5 15C11.87 15 12 16.18 12 17.62L13 34.38C13 35.82 11.88 37 10.5 37Z" fill="#CAE5FF"/>
<path fill-rule="evenodd" clip-rule="evenodd" d="M22 37C20.63 37 19.5 35.82 19.5 34.38L21.5 17.62C21.5 16.18 20.62 15 22 15C23.37 15 24.5 16.18 24.5 17.62V34.38C24.5 35.82 23.38 37 22 37Z" fill="#CAE5FF"/>
<path d="M6 5.00002H15V14.5C15 16.98 12.98 19 10.5 19C8.02 19 6 16.98 6 14.5V5.00002Z" fill="#CAE5FF"/>
<path d="M24.5 5.00002V25H18.5V11C18.5 7.69002 21.19 5.00002 24.5 5.00002Z" fill="#CAE5FF"/>
<path d="M32.5 38C30.57 38 29 36.38 29 34.38L29.91 19.07C28.12 17.71 27 15.02 27 12C27 7.51003 29.42 4.00003 32.5 4.00003C35.58 4.00003 38 7.51003 38 12C38 15.02 36.87 17.71 35.09 19.07L36 34.32C36 36.37 34.43 38 32.5 38ZM32.5 6.00003C30.6 6.00003 29 8.75003 29 12C29 14.57 29.98 16.86 31.44 17.69C31.77 17.88 31.96 18.24 31.94 18.62L31 34.44C31 35.27 31.67 36 32.5 36C33.33 36 34 35.27 34 34.38L33.06 18.62C33.04 18.24 33.23 17.88 33.56 17.69C35.02 16.85 36 14.56 36 12C36 8.75003 34.4 6.00003 32.5 6.00003ZM22 38C20.07 38 18.5 36.38 18.5 34.38C18.5 34.34 18.5 34.3 18.5 34.26L19.49 26H18.5C17.95 26 17.5 25.55 17.5 25V14C17.5 10.49 20.39 4.00003 24.5 4.00003C25.05 4.00003 25.5 4.45003 25.5 5.00003V34.38C25.5 36.38 23.93 38 22 38ZM20.5 34.43C20.53 35.3 21.19 36 22 36C22.81 36 23.5 35.27 23.5 34.38V6.25003C21.36 7.31003 19.5 11.45 19.5 14V24H20.62C20.91 24 21.18 24.12 21.37 24.34C21.56 24.55 21.65 24.84 21.62 25.12L20.51 34.44L20.5 34.43ZM10.5 38C8.57 38 7 36.38 7 34.38L7.9 19.33C6.14 18.38 5 16.52 5 14.5V5.00003C5 4.45003 5.45 4.00003 6 4.00003H15C15.55 4.00003 16 4.45003 16 5.00003V14.5C16 16.52 14.86 18.38 13.1 19.33L13.99 34.32C13.99 36.37 12.42 38 10.49 38H10.5ZM7 6.00003V14.5C7 15.94 7.92 17.26 9.29 17.77C9.7 17.92 9.96 18.33 9.94 18.77L9 34.45C9 35.28 9.67 36.01 10.5 36.01C11.33 36.01 12 35.28 12 34.39L11.07 18.77C11.04 18.33 11.31 17.93 11.72 17.77C13.09 17.26 14.01 15.95 14.01 14.5V6.00003H7.01H7Z" fill="#221F1F"/>
<path d="M9 13.5C8.72 13.5 8.5 13.28 8.5 13V4.99998C8.5 4.71998 8.72 4.49998 9 4.49998C9.28 4.49998 9.5 4.71998 9.5 4.99998V13C9.5 13.28 9.28 13.5 9 13.5Z" fill="#221F1F"/>
<path d="M12 13.5C11.72 13.5 11.5 13.28 11.5 13V5C11.5 4.72 11.72 4.5 12 4.5C12.28 4.5 12.5 4.72 12.5 5V13C12.5 13.28 12.28 13.5 12 13.5Z" fill="#221F1F"/>
</svg>
