<svg width="42" height="42" viewBox="0 0 42 42" fill="none" xmlns="http://www.w3.org/2000/svg">
<path d="M15.0899 40.0002C14.1299 40.0002 13.1699 39.8902 12.2399 39.6702C11.4799 39.4902 10.7999 39.1002 10.2599 38.5302C6.54992 34.6002 5.83992 28.5902 8.53992 23.9102L12.0999 17.7402C12.8099 16.5102 14.1399 15.7402 15.5699 15.7402C16.2699 15.7402 16.9599 15.9202 17.5699 16.2802L27.8599 22.2202C29.7699 23.3202 30.4299 25.7702 29.3199 27.6802L25.7599 33.8502C23.5699 37.6502 19.4799 40.0102 15.0899 40.0102V40.0002Z" fill="white"/>
<path d="M18.3102 29.8607C17.7902 29.8607 17.2702 29.7207 16.8102 29.4607C15.3802 28.6307 14.8802 26.7907 15.7102 25.3607L23.8702 11.2207C24.4102 10.2907 25.4002 9.7207 26.4702 9.7207C26.9902 9.7207 27.5102 9.8607 27.9702 10.1207C29.4002 10.9507 29.8902 12.7807 29.0702 14.2207L20.9102 28.3607C20.3702 29.2907 19.3802 29.8607 18.3102 29.8607Z" fill="white"/>
<path d="M25.1699 20.76C24.1599 20.76 23.1599 20.49 22.2799 19.99C20.9499 19.22 19.9899 17.98 19.5899 16.48C19.1899 14.99 19.3899 13.43 20.1699 12.09L24.3299 4.89C25.3599 3.11 27.2799 2 29.3399 2C30.3499 2 31.3499 2.27 32.2299 2.77C33.5599 3.54 34.5199 4.79 34.9199 6.28C35.3199 7.77 35.1199 9.33 34.3399 10.67L30.1799 17.87C29.1499 19.65 27.2299 20.76 25.1699 20.76Z" fill="white"/>
<path d="M15.0902 38.0005C14.2902 38.0005 13.4802 37.9105 12.7002 37.7205C12.3202 37.6305 11.9802 37.4305 11.7102 37.1505C8.6002 33.8605 8.0102 28.8305 10.2702 24.9005L13.8302 18.7305C14.2002 18.0905 14.8702 17.7305 15.5602 17.7305C15.9002 17.7305 16.2402 17.8205 16.5602 18.0005L26.8502 23.9405C27.8102 24.4905 28.1302 25.7205 27.5802 26.6705L24.0202 32.8405C22.1802 36.0205 18.7602 38.0005 15.0802 38.0005H15.0902Z" fill="#221F1F"/>
<path d="M15.5698 19.7305L12.0098 25.9005C10.1298 29.1605 10.7098 33.1705 13.1698 35.7705C16.6598 36.6005 20.4198 35.1005 22.2998 31.8405L25.8598 25.6705L15.5698 19.7305Z" fill="white"/>
<path d="M15.5698 19.7305L12.0098 25.9005C10.1298 29.1605 10.7098 33.1705 13.1698 35.7705L20.7198 22.7005L15.5798 19.7305H15.5698Z" fill="#C4C4C4"/>
<path d="M18.3099 27.8595C18.1399 27.8595 17.9699 27.8195 17.8099 27.7295C17.3299 27.4495 17.1699 26.8395 17.4399 26.3595L25.5999 12.2195C25.8799 11.7395 26.4899 11.5795 26.9699 11.8495C27.4499 12.1295 27.6099 12.7395 27.3399 13.2195L19.1799 27.3595C18.9899 27.6795 18.6599 27.8595 18.3099 27.8595Z" fill="#221F1F"/>
<path d="M25.17 18.76C24.51 18.76 23.86 18.59 23.28 18.25C22.41 17.75 21.78 16.93 21.52 15.96C21.26 14.98 21.39 13.96 21.9 13.09L26.06 5.89C26.73 4.72 27.99 4 29.34 4C30 4 30.65 4.17 31.23 4.51C32.1 5.01 32.73 5.83 32.99 6.81C33.25 7.79 33.12 8.81 32.61 9.68L28.45 16.88C27.78 18.05 26.52 18.77 25.17 18.77V18.76Z" fill="#221F1F"/>
<path d="M30.8749 8.67103C31.3664 7.81966 31.0747 6.73103 30.2234 6.2395C29.372 5.74797 28.2834 6.03966 27.7918 6.89102L23.6318 14.0964C23.1403 14.9477 23.432 16.0364 24.2834 16.5279C25.1347 17.0194 26.2234 16.7277 26.7149 15.8764L30.8749 8.67103Z" fill="#D88C7D"/>
</svg>
