<svg width="42" height="42" viewBox="0 0 42 42" fill="none" xmlns="http://www.w3.org/2000/svg">
<path d="M37 10.7H32.9C33.2 9.99999 33.4 9.19999 33.4 8.39999C33.4 6.69999 32.7 5.19999 31.4 3.99999C30.2 2.89999 28.6 2.29999 27 2.29999C25.3 2.29999 23.8 2.89999 22.6 3.99999C22.2 4.39999 21.6 4.99999 21.1 5.69999C20.4 4.99999 19.9 4.39999 19.5 3.99999C18.3 2.89999 16.7 2.29999 15.1 2.29999C13.4 2.29999 11.9 2.89999 10.7 3.99999C9.4 5.19999 8.7 6.69999 8.7 8.39999C8.7 9.19999 8.9 9.99999 9.2 10.7H5C3.3 10.7 2 12 2 13.7V22.7C2 24.4 3.3 25.7 5 25.7V36.7C5 38.4 6.3 39.7 8 39.7H34C35.7 39.7 37 38.4 37 36.7V25.7C38.7 25.7 40 24.4 40 22.7V13.7C40 12 38.7 10.7 37 10.7Z" fill="white"/>
<path d="M19.7002 14.5C17.0002 14.5 12.8002 12 12.0002 11.3C11.2002 10.5 10.7002 9.5 10.7002 8.4C10.7002 7.3 11.2002 6.3 12.0002 5.5C13.7002 4 16.4002 4 18.1002 5.5C19.3002 6.6 22.0002 10.2 22.0002 12.4C22.0002 13.2 21.7002 13.7 21.4002 14C20.9002 14.3 20.3002 14.5 19.7002 14.5ZM15.0002 6.3C14.4002 6.3 13.7002 6.5 13.3002 6.9C12.9002 7.3 12.6002 7.8 12.6002 8.3C12.6002 8.8 12.8002 9.3 13.3002 9.7C14.7002 10.9 19.2002 12.8 20.0002 12.4C20.3002 11.7 18.1002 8.2 16.7002 6.9C16.3002 6.5 15.7002 6.3 15.0002 6.3Z" fill="#221F1F"/>
<path d="M22.3 14.5C21.6 14.5 21 14.3 20.6 14C20.3 13.7 20 13.2 20 12.4C20 10.2 22.7 6.5 23.9 5.5C25.6 4 28.3 4 30 5.5C30.8 6.3 31.3 7.3 31.3 8.4C31.3 9.5 30.8 10.5 30 11.3C29.2 12 25.1 14.5 22.3 14.5ZM25.2 7C23.8 8.3 21.7 11.8 22 12.6C22.8 13 27.3 11.1 28.7 9.9C29.1 9.5 29.4 9 29.4 8.5C29.4 8 29.2 7.5 28.7 7.1C27.7 6.1 26.2 6.1 25.2 7Z" fill="#221F1F"/>
<path d="M34 19.7H8V36.7H34V19.7Z" fill="#F0AA97"/>
<path d="M34 37.7H8C7.4 37.7 7 37.3 7 36.7V19.7C7 19.1 7.4 18.7 8 18.7H34C34.6 18.7 35 19.1 35 19.7V36.7C35 37.2 34.6 37.7 34 37.7ZM9 35.7H33V20.7H9V35.7Z" fill="#221F1F"/>
<path d="M33 23.1H9V27.6H33V23.1Z" fill="#D88C7D"/>
<path d="M37 13.7H5V22.7H37V13.7Z" fill="#F0AA97"/>
<path d="M37 23.7H5C4.4 23.7 4 23.3 4 22.7V13.7C4 13.1 4.4 12.7 5 12.7H37C37.6 12.7 38 13.1 38 13.7V22.7C38 23.2 37.6 23.7 37 23.7ZM6 21.7H36V14.7H6V21.7Z" fill="#221F1F"/>
<path d="M21 37C20.4 37 20 36.6 20 36V14.3C20 13.7 20.4 13.3 21 13.3C21.6 13.3 22 13.7 22 14.3V36C22 36.6 21.6 37 21 37Z" fill="#221F1F"/>
</svg>
