<svg width="42" height="42" viewBox="0 0 42 42" fill="none" xmlns="http://www.w3.org/2000/svg">
<path d="M12.03 39C11.17 39 10.32 38.72 9.63 38.2C4.78 34.57 2 29.03 2 23C2 18.63 3.47 14.48 6.17 11.13L5.87 10.78C4.66 9.4 4.37 7.42 5.13 5.75C5.89 4.08 7.56 3 9.4 3H32.61C34.45 3 36.12 4.08 36.88 5.75C37.64 7.42 37.35 9.39 36.14 10.78L35.84 11.13C38.54 14.49 40.01 18.64 40.01 23C40.01 29.03 37.23 34.57 32.38 38.2C31.69 38.71 30.84 39 29.98 39H12.03Z" fill="white"/>
<path d="M12.03 37C11.6 37 11.18 36.86 10.83 36.6C6.49 33.35 4 28.39 4 23C4 18.52 5.74 14.3 8.83 11.13L7.37 9.46C6.68 8.67 6.51 7.54 6.94 6.58C7.38 5.62 8.34 5 9.39 5H32.6C33.65 5 34.62 5.62 35.05 6.58C35.49 7.54 35.32 8.67 34.62 9.46L33.16 11.13C36.25 14.29 37.99 18.51 37.99 23C37.99 28.39 35.5 33.35 31.16 36.6C30.81 36.86 30.39 37 29.96 37H12.03Z" fill="#221F1F"/>
<path d="M30.3698 11.2902L33.1298 8.14023C33.5198 7.69023 33.1998 6.99023 32.6098 6.99023H9.39977C8.80977 6.99023 8.48977 7.69023 8.87977 8.14023L11.6398 11.2902C8.20977 14.0402 6.00977 18.2602 6.00977 23.0002C6.00977 27.7402 8.37977 32.2602 12.0398 35.0002H29.9898C33.6398 32.2602 36.0198 27.9202 36.0198 23.0002C36.0198 18.0802 33.8198 14.0402 30.3898 11.2902H30.3698Z" fill="#8EBFE2"/>
<path d="M25.0499 32.9991H32.1399C34.5299 30.3491 36.0099 26.8491 36.0099 22.9991C36.0099 18.2591 33.8099 14.0391 30.3799 11.2891H24.4199C25.6699 14.0391 26.4699 18.2591 26.4699 22.9991C26.4699 26.8491 25.9299 30.3491 25.0599 32.9991H25.0499Z" fill="#CAE5FF"/>
<path d="M19 29.0507C15.42 29.0507 12.07 27.1207 10.27 24.0107C9.91 23.3907 9.91 22.6307 10.27 22.0107C12.07 18.9007 15.42 16.9707 19 16.9707C22.58 16.9707 25.93 18.9007 27.73 22.0107C28.09 22.6307 28.09 23.3907 27.73 24.0107C25.93 27.1207 22.58 29.0507 19 29.0507Z" fill="#221F1F"/>
<path d="M19 18.9492C16.01 18.9492 13.4 20.5792 12 22.9992C13.4 25.4192 16.01 27.0492 19 27.0492C21.99 27.0492 24.6 25.4192 26 22.9992C24.6 20.5792 21.99 18.9492 19 18.9492Z" fill="#F9A936"/>
<path d="M30.6099 25.7492L26.1899 22.9992L30.6099 20.2492C31.2199 19.8692 31.9999 20.3092 31.9999 21.0192V24.9792C31.9999 25.6992 31.2099 26.1292 30.6099 25.7492Z" fill="#221F1F"/>
<path d="M17 24C17.5523 24 18 23.5523 18 23C18 22.4477 17.5523 22 17 22C16.4477 22 16 22.4477 16 23C16 23.5523 16.4477 24 17 24Z" fill="#221F1F"/>
</svg>
