<svg width="42" height="42" viewBox="0 0 42 42" fill="none" xmlns="http://www.w3.org/2000/svg">
<path d="M21 28C20.31 28 19.63 27.82 19.03 27.48L4.03 18.98C2.78 18.27 2 16.94 2 15.5C2 14.06 2.78 12.73 4.03 12.02L19.03 3.52C19.63 3.18 20.31 3 21 3C21.69 3 22.37 3.18 22.97 3.52L37.97 12.02C39.22 12.73 40 14.06 40 15.5C40 16.94 39.22 18.27 37.97 18.98L22.97 27.48C22.37 27.82 21.69 28 21 28Z" fill="white"/>
<path d="M28.0002 39C26.3502 39 25.0002 37.65 25.0002 36V22.38L19.0502 17.28C18.4402 16.76 18.0702 16.03 18.0102 15.23C17.9502 14.43 18.2002 13.66 18.7202 13.05C19.2902 12.38 20.1202 12 21.0002 12C21.7202 12 22.4102 12.26 22.9502 12.72L29.9502 18.72C30.6102 19.29 31.0002 20.12 31.0002 21V36C31.0002 37.65 29.6502 39 28.0002 39Z" fill="white"/>
<path d="M20.9998 35C12.8898 35 6.77979 30.8 6.77979 25.22C6.77979 20.35 12.7898 11 20.9998 11C29.2098 11 35.2198 20.35 35.2198 25.22C35.2198 30.79 29.1098 35 20.9998 35Z" fill="white"/>
<path d="M20.9998 33C14.1498 33 8.77979 29.58 8.77979 25.22C8.77979 21.14 14.0598 13 20.9998 13C27.9398 13 33.2198 21.15 33.2198 25.22C33.2198 29.58 27.8498 33 20.9998 33Z" fill="#221F1F"/>
<path d="M31.2198 25.22C31.2198 28.41 26.6398 31 20.9998 31C15.3598 31 10.7798 28.41 10.7798 25.22C10.7798 22.03 15.3598 15 20.9998 15C26.6398 15 31.2198 22.03 31.2198 25.22Z" fill="#A2D6FF"/>
<path d="M16.9998 30.5C16.9998 24.7 22.1498 20 28.4998 20C28.6998 20 28.8898 20.02 29.0898 20.03C27.2198 17.4 24.2998 15 20.9998 15C15.3498 15 10.7798 22.03 10.7798 25.22C10.7798 27.61 13.3498 29.66 16.9998 30.54C16.9998 30.53 16.9998 30.51 16.9998 30.5Z" fill="#6DA8CC"/>
<path d="M21 26C20.66 26 20.32 25.91 20.01 25.74L5.01 17.24C4.38 16.88 4 16.22 4 15.5C4 14.78 4.39 14.12 5.01 13.76L20.01 5.26C20.32 5.09 20.66 5 21 5C21.34 5 21.68 5.09 21.99 5.26L36.99 13.76C37.62 14.12 38 14.78 38 15.5C38 16.22 37.61 16.88 36.99 17.24L21.99 25.74C21.68 25.91 21.34 26 21 26Z" fill="#221F1F"/>
<path d="M36 15.5L21 24L6 15.5L21 7L36 15.5Z" fill="#A2D6FF"/>
<path d="M28.0001 37.0006C27.4501 37.0006 27.0001 36.5506 27.0001 36.0006V21.4606L20.3501 15.7606C19.9301 15.4006 19.8801 14.7706 20.2401 14.3506C20.6001 13.9306 21.2301 13.8806 21.6501 14.2406L28.6501 20.2406C28.8701 20.4306 29.0001 20.7106 29.0001 21.0006V36.0006C29.0001 36.5506 28.5501 37.0006 28.0001 37.0006Z" fill="#221F1F"/>
</svg>
