<svg width="42" height="42" viewBox="0 0 42 42" fill="none" xmlns="http://www.w3.org/2000/svg">
<path d="M29.7409 39.0002C28.6709 39.0002 27.6709 38.5802 26.9109 37.8302L21.5509 32.4702C20.5109 31.4302 20.1609 29.9402 20.5209 28.6102L19.3109 27.4002L18.0909 28.6102C18.4509 29.9402 18.1009 31.4302 17.0609 32.4702L11.7009 37.8302C10.9409 38.5902 9.9409 39.0002 8.8709 39.0002C7.8009 39.0002 6.8009 38.5802 6.0409 37.8302L4.6309 36.4202C3.0709 34.8602 3.0709 32.3202 4.6309 30.7602L9.9909 25.4002C10.7509 24.6402 11.7509 24.2302 12.8209 24.2302C13.1709 24.2302 13.5209 24.2802 13.8609 24.3602L15.0709 23.1502L13.0109 21.0902C12.4809 21.2902 11.9209 21.3902 11.3409 21.3902C9.9509 21.3902 8.6309 20.7902 7.7109 19.7402C7.6709 19.6902 7.6309 19.6402 7.5909 19.5902L2.2609 12.1302C1.6909 11.3302 1.7809 10.2502 2.4709 9.55016L5.7109 6.31016C6.1009 5.92016 6.6109 5.72016 7.1209 5.72016C7.5209 5.72016 7.9309 5.84016 8.2809 6.09016L15.7309 11.4002C15.7809 11.4402 15.8409 11.4802 15.8909 11.5202C16.8909 12.3902 17.4809 13.6502 17.5309 14.9702C17.5509 15.6002 17.4509 16.2302 17.2309 16.8102L19.2909 18.8702L20.3309 17.8302L20.1809 17.6802C18.2109 15.7102 18.0709 12.4902 19.8809 10.3602L24.8209 4.34016C25.8109 3.17016 27.2309 2.47016 28.7409 2.41016H28.9609C30.3809 2.41016 31.7809 2.98016 32.7809 3.99016L38.4009 9.61016C39.4709 10.6702 40.0409 12.1502 39.9809 13.6502C39.9209 15.1602 39.2209 16.5802 38.0709 17.5502L32.0109 22.5202C31.0609 23.3202 29.8209 23.7702 28.5409 23.7702C27.0909 23.7702 25.7309 23.2102 24.7109 22.1902L24.5609 22.0402L23.5209 23.0802L24.7309 24.2902C25.0609 24.2002 25.4109 24.1602 25.7709 24.1602C26.8409 24.1602 27.8409 24.5802 28.6009 25.3302L33.9609 30.7002C35.5209 32.2602 35.5209 34.8002 33.9609 36.3602L32.5409 37.7702C31.7909 38.5302 30.7809 38.9402 29.7109 38.9402L29.7409 39.0002Z" fill="white"/>
<path d="M27.4124 16.4455L25.9981 15.0312L9.56494 31.4644L10.9792 32.8786L27.4124 16.4455Z" fill="#221F1F"/>
<path d="M21.6097 16.3003C20.3697 15.0603 20.2797 13.0303 21.4197 11.6903L26.3797 5.65028C26.9897 4.92028 27.8897 4.49028 28.8397 4.45028C29.7897 4.41028 30.7197 4.77028 31.3897 5.44028L37.0097 11.0603C37.6797 11.7303 38.0397 12.6603 37.9997 13.6103C37.9597 14.5603 37.5197 15.4603 36.7997 16.0703L30.7597 21.0303C29.4197 22.1703 27.3897 22.0803 26.1497 20.8403L21.6197 16.3103L21.6097 16.3003Z" fill="#221F1F"/>
<path d="M27.5596 19.4193L23.0296 14.8893C22.5096 14.3693 22.4796 13.5493 22.9496 12.9893L27.9096 6.94928C28.4396 6.31928 29.3996 6.27928 29.9796 6.85928L35.5996 12.4793C36.1796 13.0593 36.1396 14.0193 35.5096 14.5493L29.4696 19.5093C28.9096 19.9793 28.0796 19.9493 27.5696 19.4293L27.5596 19.4193Z" fill="#A2D6FF"/>
<path d="M10.2698 36.4139L15.6368 31.0469C16.4178 30.2659 16.4178 28.9995 15.6368 28.2185L14.2226 26.8043C13.4415 26.0232 12.1752 26.0232 11.3941 26.8043L6.02719 32.1712C5.24614 32.9523 5.24614 34.2186 6.02719 34.9997L7.4414 36.4139C8.22245 37.1949 9.48878 37.1949 10.2698 36.4139Z" fill="#221F1F"/>
<path d="M13.9259 29.3359L13.1057 28.5156C12.9417 28.3516 12.6757 28.3516 12.5117 28.5156L7.73874 33.2886C7.57472 33.4526 7.57472 33.7186 7.73874 33.8826L8.55898 34.7028C8.723 34.8668 8.98893 34.8668 9.15295 34.7028L13.9259 29.9298C14.0899 29.7658 14.0899 29.4999 13.9259 29.3359Z" fill="#D88C7D"/>
<path d="M29.0395 31.4593L28.6195 33.8793L11.1895 16.4393L12.5995 15.0293L29.0395 31.4593Z" fill="#221F1F"/>
<path d="M32.584 32.1795L27.217 26.8126C26.436 26.0315 25.1697 26.0315 24.3886 26.8126L22.9744 28.2268C22.1934 29.0078 22.1934 30.2741 22.9744 31.0552L28.3413 36.4221C29.1224 37.2032 30.3887 37.2032 31.1698 36.4221L32.584 35.0079C33.365 34.2269 33.365 32.9605 32.584 32.1795Z" fill="#221F1F"/>
<path d="M25.5037 28.5156L24.6835 29.3358C24.5195 29.4998 24.5195 29.7658 24.6835 29.9298L29.4565 34.7028C29.6205 34.8668 29.8864 34.8668 30.0504 34.7028L30.8707 33.8825C31.0347 33.7185 31.0347 33.4526 30.8707 33.2886L26.0977 28.5156C25.9337 28.3516 25.6678 28.3516 25.5037 28.5156Z" fill="#D88C7D"/>
<path d="M6.22039 8.64094L11.9004 14.3209L10.4904 15.7309L4.81039 10.0509L3.90039 10.9609L9.22039 18.4109C10.2904 19.6409 12.1804 19.7009 13.3404 18.5509L14.7404 17.1509C15.8904 16.0009 15.8304 14.1109 14.6004 13.0309L7.15039 7.71094L6.24039 8.62094L6.22039 8.64094Z" fill="#221F1F"/>
<path d="M29.9692 6.85928C29.3892 6.27928 28.4292 6.31928 27.8992 6.94928L26.9492 8.10928L31.5592 17.7893L35.4992 14.5593C36.1292 14.0293 36.1692 13.0693 35.5892 12.4893L29.9692 6.86928V6.85928Z" fill="white"/>
<path d="M29.9493 11.0824C30.3398 10.6918 30.3398 10.0587 29.9493 9.66813C29.5588 9.27761 28.9256 9.27761 28.5351 9.66813L25.2895 12.9138C24.8989 13.3043 24.8989 13.9375 25.2895 14.328C25.68 14.7185 26.3131 14.7185 26.7037 14.328L29.9493 11.0824Z" fill="#221F1F"/>
<path d="M32.7794 13.9046C33.1699 13.5141 33.1699 12.8809 32.7794 12.4904C32.3888 12.0999 31.7557 12.0999 31.3652 12.4904L28.1195 15.736C27.729 16.1266 27.729 16.7597 28.1195 17.1502C28.5101 17.5408 29.1432 17.5408 29.5338 17.1502L32.7794 13.9046Z" fill="#221F1F"/>
</svg>
