<svg width="42" height="42" viewBox="0 0 42 42" fill="none" xmlns="http://www.w3.org/2000/svg">
<path fill-rule="evenodd" clip-rule="evenodd" d="M34.63 12.35C34.63 12.35 34.65 12.28 34.65 12.25C34.82 10.9 34.45 9.56999 33.62 8.50999C33.08 7.80999 32.37 7.26999 31.56 6.92999C31.2 6.33999 30.72 5.82999 30.14 5.42999C29.41 4.91999 28.58 4.61999 27.71 4.53999C27.19 4.07999 26.58 3.73999 25.9 3.52999C25.41 3.37999 24.9 3.29999 24.38 3.29999C24.02 3.29999 23.66 3.33999 23.31 3.40999C22.68 3.12999 21.99 2.98999 21.29 2.98999C20.65 2.98999 20.04 3.11999 19.47 3.33999C18.74 2.51999 17.68 1.98999 16.5 1.98999H14.5C12.29 1.98999 10.5 3.77999 10.5 5.98999V6.62999C8.63 7.99999 7.34 10.1 7.06 12.51C5.84 13.2 5 14.49 5 15.99V35.99C5 38.2 6.79 39.99 9 39.99H33C35.21 39.99 37 38.2 37 35.99V16C37 14.38 36.02 12.98 34.63 12.35Z" fill="white"/>
<path fill-rule="evenodd" clip-rule="evenodd" d="M22.81 20C22.42 20 22.04 19.93 21.68 19.79C21.55 19.81 21.42 19.82 21.29 19.82C19.59 19.82 18.21 18.44 18.21 16.74V8.08C18.21 6.38 19.59 5 21.29 5C21.96 5 22.59 5.22 23.1 5.59C23.49 5.41 23.93 5.31 24.39 5.31C24.7 5.31 25.01 5.36 25.31 5.45C25.95 5.65 26.49 6.05 26.86 6.55C26.99 6.53 27.12 6.53 27.25 6.53C27.88 6.53 28.49 6.72 29.01 7.08C29.55 7.45 29.95 7.98 30.16 8.59C30.91 8.72 31.58 9.12 32.05 9.73C32.55 10.38 32.78 11.18 32.67 12C32.57 12.82 32.15 13.55 31.5 14.05L24.67 19.36C24.13 19.78 23.49 20 22.81 20Z" fill="#221F1F"/>
<path fill-rule="evenodd" clip-rule="evenodd" d="M30.4705 10.96C30.1005 10.49 29.4205 10.4 28.9505 10.77L26.3605 12.78L28.1405 10.22C28.4805 9.73001 28.3605 9.05001 27.8705 8.72001C27.3805 8.38001 26.7005 8.50001 26.3705 8.99001L24.5005 11.68L25.4305 8.71001C25.6105 8.14001 25.2905 7.53001 24.7205 7.36001C24.1505 7.18001 23.5405 7.50001 23.3705 8.07001L22.3905 11.2V8.09001C22.3905 7.50001 21.9005 7.01001 21.3105 7.01001C20.7205 7.01001 20.2305 7.50001 20.2305 8.09001V16.74C20.2305 17.33 20.7205 17.82 21.3105 17.82C21.4705 17.82 21.6305 17.78 21.7605 17.71C21.8305 17.71 21.8905 17.72 21.9605 17.71C22.0205 17.73 22.0805 17.76 22.1505 17.77C22.5305 18.06 23.0705 18.09 23.4605 17.78L30.2905 12.47C30.7605 12.11 30.8505 11.42 30.4805 10.95L30.4705 10.96Z" fill="#9CDB9C"/>
<path fill-rule="evenodd" clip-rule="evenodd" d="M15.5 30C11.92 30 9 27.08 9 23.5V13.5C9 9.92 11.92 7 15.5 7C19.08 7 22 9.92 22 13.5V23.5C22 27.08 19.08 30 15.5 30Z" fill="#221F1F"/>
<path d="M26 22C29.3137 22 32 19.3137 32 16C32 12.6863 29.3137 10 26 10C22.6863 10 20 12.6863 20 16C20 19.3137 22.6863 22 26 22Z" fill="#221F1F"/>
<path d="M26 20C28.2091 20 30 18.2091 30 16C30 13.7909 28.2091 12 26 12C23.7909 12 22 13.7909 22 16C22 18.2091 23.7909 20 26 20Z" fill="#D88C7D"/>
<path d="M18.5 12V6C18.5 4.89543 17.6046 4 16.5 4H14.5C13.3954 4 12.5 4.89543 12.5 6V12C12.5 13.1046 13.3954 14 14.5 14H16.5C17.6046 14 18.5 13.1046 18.5 12Z" fill="#221F1F"/>
<path d="M16.5 6H14.5V12H16.5V6Z" fill="#CAE5FF"/>
<path d="M20 13.5C20 11.0147 17.9853 9 15.5 9C13.0147 9 11 11.0147 11 13.5V23.5C11 25.9853 13.0147 28 15.5 28C17.9853 28 20 25.9853 20 23.5V13.5Z" fill="#CAE5FF"/>
<path fill-rule="evenodd" clip-rule="evenodd" d="M14.5 9.12012C12.51 9.58012 11 11.3701 11 13.5001V23.5001C11 25.1601 11.92 26.6001 13.27 27.3801C16.06 25.7401 18 22.0701 18 17.8001C18 14.1901 16.61 11.0101 14.5 9.12012Z" fill="#8EBFE2"/>
<path d="M35 36V16C35 14.8954 34.1046 14 33 14H9C7.89543 14 7 14.8954 7 16V36C7 37.1046 7.89543 38 9 38H33C34.1046 38 35 37.1046 35 36Z" fill="#221F1F"/>
<path d="M33 16H9V36H33V16Z" fill="#FFD781"/>
<path d="M18 16H9V36H18V16Z" fill="#D0B366"/>
<path fill-rule="evenodd" clip-rule="evenodd" d="M10 36L13.49 29.73L17 36H10Z" fill="#FFD781"/>
</svg>
