<svg width="42" height="42" viewBox="0 0 42 42" fill="none" xmlns="http://www.w3.org/2000/svg">
<path d="M20.9397 25.0894C20.4297 25.0894 19.9197 24.8894 19.5297 24.4994L17.4997 22.4694C17.1197 22.0894 16.9097 21.5894 16.9097 21.0594C16.9097 20.5294 17.1197 20.0194 17.4997 19.6494L33.9397 3.19937C34.3197 2.81937 34.8197 2.60938 35.3497 2.60938C35.8797 2.60938 36.3897 2.81937 36.7597 3.19937L38.7897 5.22937C39.5697 6.00937 39.5697 7.27937 38.7897 8.05937L22.3397 24.5094C21.9497 24.8994 21.4397 25.0994 20.9297 25.0994L20.9397 25.0894Z" fill="white"/>
<path d="M14.8902 40.0002C11.6402 40.0002 8.36015 38.5802 5.89015 36.1102C3.64015 33.8602 2.28015 30.9802 2.05015 27.9902C1.81015 24.8902 2.81015 22.0402 4.86015 19.9902C6.44015 18.4102 8.54015 17.4302 10.8401 17.1902C11.2401 16.5402 11.7201 15.9402 12.2601 15.3902C14.1301 13.5202 16.6201 12.4902 19.2801 12.4902C22.7201 12.4902 25.9201 14.2302 27.8501 17.1502C29.9901 20.3902 30.0801 24.6002 28.0801 27.8602C27.2501 29.2102 26.1301 30.3402 24.8101 31.1502C24.5701 33.4702 23.6101 35.5302 22.0101 37.1302C20.1701 38.9702 17.6401 39.9902 14.9001 39.9902L14.8902 40.0002Z" fill="white"/>
<path d="M31.87 13.64C31.35 13.64 30.84 13.43 30.46 13.05L28.94 11.53C28.44 11.03 28.24 10.3 28.42 9.62L28.98 7.46C29.1 7.01 29.33 6.61 29.65 6.28L32.93 3C33.42 2.51 34.06 2.25 34.75 2.25C35.44 2.25 36.08 2.52 36.57 3L39.01 5.44C40.01 6.44 40.01 8.08 39.01 9.08L35.73 12.36C35.41 12.69 34.99 12.92 34.54 13.04L32.36 13.59C32.2 13.63 32.04 13.65 31.87 13.65V13.64Z" fill="white"/>
<path d="M14.8901 38C12.1701 38 9.40012 36.79 7.30012 34.69C3.35012 30.74 2.89012 24.78 6.26012 21.4C7.65012 20.01 9.57012 19.2 11.6601 19.14C11.9901 19.13 12.1701 18.88 12.2501 18.73C12.6201 18.02 13.0901 17.37 13.6601 16.81C15.1501 15.32 17.1401 14.5 19.2701 14.5C22.0301 14.5 24.6101 15.91 26.1701 18.26C27.8901 20.86 27.9601 24.22 26.3601 26.82C25.6201 28.02 24.6001 28.99 23.4101 29.65C23.0601 29.84 22.8601 30.16 22.8401 30.54C22.7201 32.57 21.9401 34.36 20.5901 35.72C19.1301 37.18 17.1001 37.99 14.8901 37.99V38Z" fill="#221F1F"/>
<path d="M22.46 27.9005C23.32 27.4305 24.09 26.7205 24.67 25.7705C25.86 23.8405 25.79 21.2905 24.51 19.3605C22.27 15.9805 17.72 15.5805 15.08 18.2205C14.65 18.6505 14.3 19.1405 14.03 19.6505C13.57 20.5305 12.73 21.1005 11.73 21.1305C10.19 21.1805 8.76 21.7305 7.68 22.8105C5.08 25.4105 5.54 30.1005 8.72 33.2705C11.9 36.4405 16.58 36.9105 19.18 34.3105C20.22 33.2705 20.77 31.9005 20.85 30.4305C20.91 29.3405 21.51 28.4205 22.45 27.9005H22.46Z" fill="#FCD26E"/>
<path d="M12.8098 20.8496C12.4798 21.0096 12.1298 21.1296 11.7398 21.1396C10.1998 21.1896 8.76976 21.7396 7.68976 22.8196C5.08976 25.4196 5.54976 30.1096 8.72976 33.2796C10.9798 35.5296 13.9998 36.4096 16.4898 35.8096L12.8198 20.8496H12.8098Z" fill="#E0B344"/>
<path d="M37.3864 6.64268L35.357 4.61328L18.9097 21.0606L20.9391 23.09L37.3864 6.64268Z" fill="#221F1F"/>
<path d="M18.8201 26.1695C20.4714 26.1695 21.8101 24.8308 21.8101 23.1795C21.8101 21.5281 20.4714 20.1895 18.8201 20.1895C17.1687 20.1895 15.8301 21.5281 15.8301 23.1795C15.8301 24.8308 17.1687 26.1695 18.8201 26.1695Z" fill="#221F1F"/>
<path d="M15.61 31.8597C15.33 31.8597 15.06 31.7497 14.85 31.5397L10.46 27.1497C10.04 26.7297 10.04 26.0397 10.46 25.6197C10.88 25.1997 11.57 25.1997 11.99 25.6197L16.38 30.0097C16.8 30.4297 16.8 31.1197 16.38 31.5397C16.17 31.7497 15.89 31.8597 15.62 31.8597H15.61Z" fill="#221F1F"/>
<path d="M34.0501 11.0905L31.8701 11.6405L30.3501 10.1205L30.9101 7.96055C30.9401 7.86055 30.9901 7.77055 31.0601 7.70055L34.3401 4.42055C34.5701 4.19055 34.9301 4.19055 35.1501 4.42055L37.5901 6.86055C37.8201 7.09055 37.8201 7.45055 37.5901 7.67055L34.3101 10.9505C34.2401 11.0205 34.1401 11.0805 34.0401 11.1005L34.0501 11.0905Z" fill="#221F1F"/>
</svg>
