<svg width="42" height="42" viewBox="0 0 42 42" fill="none" xmlns="http://www.w3.org/2000/svg">
<path d="M18.21 15.0898C16.56 15.0898 15.21 13.7398 15.21 12.0898C15.21 10.4398 16.56 9.08984 18.21 9.08984H23.08C24.73 9.08984 26.08 10.4398 26.08 12.0898C26.08 13.7398 24.73 15.0898 23.08 15.0898H18.21Z" fill="white"/>
<path d="M19.5901 20.3504C18.2601 20.3504 17.1101 19.5004 16.7201 18.2304C16.4901 17.4604 16.5601 16.6504 16.9401 15.9404C17.3201 15.2304 17.9501 14.7104 18.7101 14.4804L23.4401 13.0304C23.7201 12.9404 24.0201 12.9004 24.3201 12.9004C25.6501 12.9004 26.8001 13.7504 27.1901 15.0204C27.4201 15.7904 27.3501 16.6004 26.9701 17.3104C26.5901 18.0204 25.9601 18.5404 25.2001 18.7704L20.4701 20.2204C20.1901 20.3104 19.8901 20.3504 19.5901 20.3504Z" fill="white"/>
<path d="M23.08 25.0105C22.18 25.0105 21.33 24.6105 20.76 23.9105C20.25 23.2905 20.02 22.5105 20.1 21.7105C20.18 20.9105 20.56 20.1905 21.18 19.6905L24.89 16.6605C25.43 16.2205 26.1 15.9805 26.79 15.9805C27.69 15.9805 28.54 16.3805 29.11 17.0805C29.62 17.7005 29.85 18.4805 29.77 19.2805C29.69 20.0805 29.31 20.8005 28.69 21.3005L24.98 24.3305C24.45 24.7705 23.77 25.0105 23.08 25.0105Z" fill="white"/>
<path d="M4 37C2.9 37 2 36.1 2 35V25C2 23.06 2.72 21.19 4 19.74V9C4 6.79 5.79 5 8 5H20C22.21 5 24 6.79 24 9V11.94C24 15.83 27.17 19 31.06 19C35.99 19 40 23.01 40 27.94V35C40 36.1 39.1 37 38 37H4Z" fill="white"/>
<path fill-rule="evenodd" clip-rule="evenodd" d="M31.06 21C26.06 21 22 16.93 22 11.94V9C22 7.9 21.1 7 20 7H8C6.9 7 6 7.9 6 9V20.56C4.74 21.69 4 23.3 4 25V28.61C4 28.72 4.02 28.83 4.03 28.94L13.12 28.4L19.12 30.38L37.99 30.07V27.94C37.99 24.11 34.88 21 31.05 21H31.06Z" fill="#221F1F"/>
<path fill-rule="evenodd" clip-rule="evenodd" d="M31.06 23C24.95 23 20 18.05 20 11.94V9H8V21.56C6.81 22.26 6 23.53 6 25V28.61L11 28L18 30L20.82 31H36V27.94C36 25.21 33.79 23 31.06 23Z" fill="#B7871C"/>
<path fill-rule="evenodd" clip-rule="evenodd" d="M31.06 23C24.95 23 20 18.05 20 11.94V9H15.03C15.01 9.96 15 10.96 15 12C15 19.74 19.5 26.61 26.49 31H36V27.94C36 25.21 33.79 23 31.06 23Z" fill="#E0B344"/>
<path d="M7 29H4V35H7V29Z" fill="#221F1F"/>
<path d="M11 29H8V35H11V29Z" fill="#221F1F"/>
<path d="M15 29H12V35H15V29Z" fill="#221F1F"/>
<path d="M38 29H35V35H38V29Z" fill="#221F1F"/>
<path d="M34 29H31V35H34V29Z" fill="#221F1F"/>
<path d="M30 29H27V35H30V29Z" fill="#221F1F"/>
<path d="M26 29H23V35H26V29Z" fill="#221F1F"/>
<path d="M22 29H19V35H22V29Z" fill="#221F1F"/>
<path d="M22.01 28.9998C20.77 28.9998 19.53 28.8298 18.34 28.4898L15.21 27.5998C13.83 27.2098 12.41 27.0098 10.99 27.0098H4V31.0098H10.99C12.23 31.0098 13.47 31.1798 14.66 31.5198L17.79 32.4098C19.17 32.7998 20.59 32.9998 22.01 32.9998H38V28.9998H22.01Z" fill="#221F1F"/>
<path d="M13 29H5V33H13V29Z" fill="#221F1F"/>
<path d="M23.08 13.0898H18.21C17.66 13.0898 17.21 12.6398 17.21 12.0898C17.21 11.5398 17.66 11.0898 18.21 11.0898H23.08C23.63 11.0898 24.08 11.5398 24.08 12.0898C24.08 12.6398 23.63 13.0898 23.08 13.0898Z" fill="#221F1F"/>
<path d="M19.59 18.3496C19.16 18.3496 18.77 18.0696 18.63 17.6396C18.47 17.1096 18.77 16.5496 19.29 16.3896L24.02 14.9396C24.55 14.7796 25.11 15.0796 25.27 15.5996C25.43 16.1296 25.13 16.6896 24.61 16.8496L19.88 18.2996C19.78 18.3296 19.68 18.3396 19.59 18.3396V18.3496Z" fill="#221F1F"/>
<path d="M23.0803 23.0102C22.7903 23.0102 22.5003 22.8902 22.3103 22.6402C21.9603 22.2102 22.0203 21.5802 22.4503 21.2302L26.1603 18.1902C26.5903 17.8402 27.2203 17.9002 27.5703 18.3302C27.9203 18.7602 27.8603 19.3902 27.4303 19.7402L23.7203 22.7802C23.5303 22.9302 23.3103 23.0102 23.0903 23.0102H23.0803Z" fill="#221F1F"/>
<path d="M23.08 13.0898H18.21C17.66 13.0898 17.21 12.6398 17.21 12.0898C17.21 11.5398 17.66 11.0898 18.21 11.0898H23.08C23.63 11.0898 24.08 11.5398 24.08 12.0898C24.08 12.6398 23.63 13.0898 23.08 13.0898Z" fill="#221F1F"/>
<path d="M19.59 18.3502C19.16 18.3502 18.77 18.0702 18.63 17.6402C18.47 17.1102 18.77 16.5502 19.29 16.3902L24.02 14.9402C24.54 14.7702 25.11 15.0702 25.27 15.6002C25.43 16.1302 25.13 16.6902 24.61 16.8502L19.88 18.3002C19.78 18.3302 19.68 18.3402 19.59 18.3402V18.3502Z" fill="#221F1F"/>
<path d="M23.0803 23.0102C22.7903 23.0102 22.5003 22.8902 22.3103 22.6402C21.9603 22.2102 22.0203 21.5802 22.4503 21.2302L26.1603 18.1902C26.5903 17.8402 27.2203 17.9002 27.5703 18.3302C27.9203 18.7602 27.8603 19.3902 27.4303 19.7402L23.7203 22.7802C23.5303 22.9302 23.3103 23.0102 23.0903 23.0102H23.0803Z" fill="#221F1F"/>
</svg>
