<svg width="42" height="42" viewBox="0 0 42 42" fill="none" xmlns="http://www.w3.org/2000/svg">
<path d="M38.5004 17.7V7.4C38.5004 5.7 37.2004 4.4 35.5004 4.4H30.0004C28.6004 4.4 27.4004 5.4 27.1004 6.7L23.1004 2.8C22.5004 2.3 21.8004 2 21.0004 2C20.2004 2 19.5004 2.3 18.9004 2.8L4.50041 16.7C4.40041 16.7 4.40041 16.8 4.40041 16.8L1.60041 19.4C0.400408 20.5 0.400408 22.4 1.50041 23.6C2.00041 24.1 2.70041 24.5 3.50041 24.5V37C3.50041 38.7 4.80041 40 6.50041 40H35.6004C37.3004 40 38.6004 38.7 38.6004 37V24.7C39.4004 24.7 40.1004 24.3 40.6004 23.8C41.7004 22.6 41.7004 20.7 40.5004 19.6L38.5004 17.7Z" fill="white"/>
<path d="M35.5 7.40002H30V25.2H35.5V7.40002Z" fill="#D88C7D"/>
<path d="M35.5 26.2H30C29.4 26.2 29 25.8 29 25.2V7.40002C29 6.80002 29.4 6.40002 30 6.40002H35.5C36.1 6.40002 36.5 6.80002 36.5 7.40002V25.2C36.5 25.8 36.1 26.2 35.5 26.2ZM31 24.2H34.5V8.40002H31V24.2Z" fill="#221F1F"/>
<path fill-rule="evenodd" clip-rule="evenodd" d="M6.5 37H35.5V19L21 5L6.5 19V37Z" fill="white"/>
<path d="M35.5 38H6.5C5.9 38 5.5 37.6 5.5 37V19C5.5 18.7 5.6 18.5 5.8 18.3L20.3 4.3C20.7 3.9 21.3 3.9 21.7 4.3L36.2 18.3C36.4 18.5 36.5 18.7 36.5 19V37C36.5 37.6 36.1 38 35.5 38ZM7.5 36H34.6V19.4L21 6.4L7.5 19.4V36Z" fill="#221F1F"/>
<path fill-rule="evenodd" clip-rule="evenodd" d="M18.9004 8.49999L34.5004 23.5V19.4L21.0004 6.39999L18.9004 8.49999Z" fill="#C4C4C4"/>
<path d="M38.4006 22.7C38.2006 22.7 37.9006 22.6 37.7006 22.4L21.0006 6.4L4.30059 22.4C3.90059 22.8 3.30059 22.8 2.90059 22.4C2.50059 22 2.50059 21.4 2.90059 21L20.3006 4.3C20.7006 3.9 21.3006 3.9 21.7006 4.3L39.1006 21C39.5006 21.4 39.5006 22 39.1006 22.4C38.9006 22.6 38.6006 22.7 38.4006 22.7Z" fill="#221F1F"/>
<path d="M18.3 21.7H12V37H18.3V21.7Z" fill="#D88C7D"/>
<path d="M18.3 38H12C11.4 38 11 37.6 11 37V21.7C11 21.1 11.4 20.7 12 20.7H18.3C18.9 20.7 19.3 21.1 19.3 21.7V37C19.3 37.6 18.9 38 18.3 38ZM13 36H17.3V22.7H13V36Z" fill="#221F1F"/>
<path d="M23.7332 29.9913H30.0332V21.6913H23.7332V29.9913Z" fill="#8EBFE2"/>
<path d="M30.0002 31H23.7002C23.1002 31 22.7002 30.6 22.7002 30V21.7C22.7002 21.1 23.1002 20.7 23.7002 20.7H30.0002C30.6002 20.7 31.0002 21.1 31.0002 21.7V30C31.0002 30.6 30.6002 31 30.0002 31ZM24.7002 29H29.0002V22.7H24.7002V29Z" fill="#221F1F"/>
</svg>
