<svg width="42" height="42" viewBox="0 0 42 42" fill="none" xmlns="http://www.w3.org/2000/svg">
<path d="M23.98 19.4992L30.35 30.8592L32.95 29.3592L26.55 17.9492L23.98 19.4992Z" fill="white"/>
<path d="M10.3998 12.3496L7.87984 13.7996C7.87984 13.7996 7.84984 13.8696 7.83984 13.9096L20.0698 35.7096L20.1598 35.7596C20.6798 36.0596 21.3198 36.0596 21.8398 35.7596L23.1198 35.0196L10.3998 12.3496Z" fill="#CAE5FF"/>
<path d="M21 40C21.99 40 22.98 39.74 23.84 39.24L35.37 32.58C37.12 31.57 38.21 29.68 38.21 27.66V14.34C38.21 12.32 37.12 10.43 35.37 9.42L23.84 2.76C22.97 2.26 21.99 2 21 2C20.01 2 19.02 2.26 18.16 2.76L6.63004 9.42C4.88004 10.43 3.79004 12.32 3.79004 14.34V27.66C3.79004 29.68 4.88004 31.57 6.63004 32.58L18.16 39.24C19.03 39.74 20.01 40 21 40Z" fill="white"/>
<path d="M21 38C20.35 38 19.72 37.83 19.16 37.51L7.63004 30.85C6.49004 30.19 5.79004 28.97 5.79004 27.66V14.34C5.79004 13.03 6.50004 11.81 7.63004 11.15L19.16 4.49C19.72 4.17 20.36 4 21 4C21.64 4 22.28 4.17 22.84 4.49L34.37 11.15C35.51 11.81 36.21 13.03 36.21 14.34V27.66C36.21 28.97 35.5 30.19 34.37 30.85L22.84 37.51C22.28 37.83 21.64 38 21 38Z" fill="#221F1F"/>
<path d="M20.16 6.23086L8.63004 12.8909C8.11004 13.1909 7.79004 13.7509 7.79004 14.3509V27.6709C7.79004 28.2709 8.11004 28.8309 8.63004 29.1309L20.16 35.7909C20.68 36.0909 21.32 36.0909 21.84 35.7909L33.37 29.1309C33.89 28.8309 34.21 28.2709 34.21 27.6709V14.3509C34.21 13.7509 33.89 13.1909 33.37 12.8909L21.84 6.23086C21.32 5.93086 20.68 5.93086 20.16 6.23086Z" fill="#CAE5FF"/>
<path d="M9.77979 27.4802L20.8698 33.8802V24.1302C20.8698 19.5202 18.2298 19.6102 18.2298 19.6102L9.83979 14.4902L9.77979 14.5302V27.4802Z" fill="#85CEFF"/>
<path d="M33.3698 12.8791L21.8398 6.21914C21.3198 5.91914 20.6798 5.91914 20.1598 6.21914L19.9598 6.33914L26.4798 17.9691C28.7998 16.3891 31.3998 14.7591 33.8398 13.2791C33.7098 13.1191 33.5698 12.9791 33.3898 12.8691L33.3698 12.8791ZM14.7598 9.33914L21.0098 20.4891C21.9598 20.4391 22.9498 20.1691 23.9698 19.6291L17.3598 7.83914L14.7598 9.33914Z" fill="white"/>
<path d="M34.1701 12.2402L21.0001 19.8402L7.83008 12.2402C7.28008 12.6702 6.93008 13.2802 6.83008 13.9702L20.5001 21.8602C20.6501 21.9502 20.8301 21.9902 21.0001 21.9902C21.1701 21.9902 21.3501 21.9502 21.5001 21.8602L35.1701 13.9702C35.0701 13.2802 34.7201 12.6702 34.1701 12.2402Z" fill="#221F1F"/>
<path d="M21 38C20.45 38 20 37.55 20 37V21C20 20.45 20.45 20 21 20C21.55 20 22 20.45 22 21V37C22 37.55 21.55 38 21 38Z" fill="#221F1F"/>
</svg>
