<svg width="42" height="42" viewBox="0 0 42 42" fill="none" xmlns="http://www.w3.org/2000/svg">
<path d="M26.5 29C19.06 29 13 22.94 13 15.5C13 8.06 19.06 2 26.5 2C33.94 2 40 8.06 40 15.5C40 22.94 33.94 29 26.5 29Z" fill="white"/>
<path d="M6 40C3.79 40 2 38.21 2 36V30C2 28.93 2.42 27.93 3.17 27.17L16.17 14.17C16.93 13.41 17.93 13 19 13H25C27.21 13 29 14.79 29 17V23C29 24.07 28.58 25.07 27.83 25.83L24.83 28.83C24.29 29.37 23.63 29.74 22.9 29.9C22.56 31.39 21.39 32.56 19.9 32.9C19.56 34.39 18.39 35.56 16.9 35.9C16.73 36.62 16.37 37.29 15.83 37.83L14.83 38.83C14.07 39.59 13.07 40 12 40H6Z" fill="white"/>
<path d="M26.5 27C20.16 27 15 21.84 15 15.5C15 9.16 20.16 4 26.5 4C32.84 4 38 9.16 38 15.5C38 21.84 32.84 27 26.5 27Z" fill="#221F1F"/>
<path d="M6 38C4.9 38 4 37.1 4 36V30C4 29.47 4.21 28.96 4.59 28.59L17.59 15.59C17.97 15.21 18.47 15 19 15H25C26.1 15 27 15.9 27 17V23C27 23.53 26.79 24.04 26.41 24.41L23.41 27.41C23.03 27.79 22.53 28 22 28H21V29C21 30.1 20.1 31 19 31H18V32C18 33.1 17.1 34 16 34H15V35C15 35.53 14.79 36.04 14.41 36.41L13.41 37.41C13.03 37.79 12.53 38 12 38H6Z" fill="#221F1F"/>
<path d="M26.5 25C31.7467 25 36 20.7467 36 15.5C36 10.2533 31.7467 6 26.5 6C21.2533 6 17 10.2533 17 15.5C17 20.7467 21.2533 25 26.5 25Z" fill="#FFD781"/>
<path d="M29 15.5C30.3807 15.5 31.5 14.3807 31.5 13C31.5 11.6193 30.3807 10.5 29 10.5C27.6193 10.5 26.5 11.6193 26.5 13C26.5 14.3807 27.6193 15.5 29 15.5Z" fill="#221F1F"/>
<path d="M19 17L6 30V36H12L13 35V32H16V29H19V26H22L25 23V17H19Z" fill="#FFD781"/>
<path d="M8 34V30.83L20.33 18.5L23.5 21.67L21.17 24H19C17.9 24 17 24.9 17 26V27H16C14.9 27 14 27.9 14 29V30H13C11.9 30 11 30.9 11 32V34H8Z" fill="#BF9E6F"/>
</svg>
