<svg width="42" height="42" viewBox="0 0 42 42" fill="none" xmlns="http://www.w3.org/2000/svg">
<path d="M23.36 19.62C23.23 19.72 23.11 19.83 23 19.96C22.5 19.39 21.78 19.02 20.96 19.01C20.74 19.01 20.53 19.05 20.31 19.08C19.73 19.21 19.22 19.53 18.84 19.97C18.75 19.87 18.64 19.78 18.54 19.69C17.03 20.55 16 22.16 16 24.02C16 24.17 16.03 24.31 16.04 24.45C16.27 24.51 16.51 24.56 16.77 24.56C17.6 24.56 18.34 24.19 18.85 23.6C19.36 24.18 20.09 24.56 20.93 24.56C21.77 24.56 22.5 24.19 23.01 23.6C23.52 24.18 24.26 24.56 25.09 24.56C25.4 24.56 25.7 24.49 25.98 24.4C25.98 24.27 26.02 24.15 26.02 24.03C26.02 22.13 24.94 20.5 23.38 19.65L23.36 19.62Z" fill="#221F1F"/>
<path d="M38 34.58V7.42C38 4.42662 35.5734 2 32.58 2H9.42C6.42662 2 4 4.42662 4 7.42V34.58C4 37.5734 6.42662 40 9.42 40H32.58C35.5734 40 38 37.5734 38 34.58Z" fill="white"/>
<path d="M36 34.58V7.42C36 5.53119 34.4688 4 32.58 4H9.42C7.53119 4 6 5.53119 6 7.42V34.58C6 36.4688 7.53119 38 9.42 38H32.58C34.4688 38 36 36.4688 36 34.58Z" fill="#221F1F"/>
<path d="M32.58 6H9.42C8.63576 6 8 6.63576 8 7.42V34.58C8 35.3642 8.63576 36 9.42 36H32.58C33.3642 36 34 35.3642 34 34.58V7.42C34 6.63576 33.3642 6 32.58 6Z" fill="white"/>
<path d="M8.00023 13.1799V34.5799C8.00023 35.3699 8.64023 35.9999 9.42023 35.9999H32.1702C25.8902 24.9499 17.5102 16.8499 7.99023 13.1799H8.00023Z" fill="#CAE5FF"/>
<path d="M21 34C26.5228 34 31 29.5228 31 24C31 18.4772 26.5228 14 21 14C15.4772 14 11 18.4772 11 24C11 29.5228 15.4772 34 21 34Z" fill="#221F1F"/>
<path d="M21 32C25.4183 32 29 28.4183 29 24C29 19.5817 25.4183 16 21 16C16.5817 16 13 19.5817 13 24C13 28.4183 16.5817 32 21 32Z" fill="white"/>
<path d="M21 31.9999C22.33 31.9999 23.58 31.6699 24.68 31.0899C21.46 26.7499 17.86 23.0599 13.97 20.1799C13.35 21.3099 13 22.6199 13 23.9999C13 28.4099 16.59 31.9999 21 31.9999Z" fill="#CAE5FF"/>
<path d="M21 30C24.3137 30 27 27.3137 27 24C27 20.6863 24.3137 18 21 18C17.6863 18 15 20.6863 15 24C15 27.3137 17.6863 30 21 30Z" fill="#221F1F"/>
<path d="M21 28C23.2091 28 25 26.2091 25 24C25 21.7909 23.2091 20 21 20C18.7909 20 17 21.7909 17 24C17 26.2091 18.7909 28 21 28Z" fill="#A2D6FF"/>
<path d="M31 10C31.5523 10 32 9.55228 32 9C32 8.44772 31.5523 8 31 8C30.4477 8 30 8.44772 30 9C30 9.55228 30.4477 10 31 10Z" fill="#221F1F"/>
<path d="M27 10C27.5523 10 28 9.55228 28 9C28 8.44772 27.5523 8 27 8C26.4477 8 26 8.44772 26 9C26 9.55228 26.4477 10 27 10Z" fill="#221F1F"/>
<path d="M35 12H7V14H35V12Z" fill="#221F1F"/>
<path d="M20 8H11C10.45 8 10 8.45 10 9C10 9.55 10.45 10 11 10H20C20.55 10 21 9.55 21 9C21 8.45 20.55 8 20 8Z" fill="#221F1F"/>
<path d="M22.5098 23.21C24.0498 23.21 24.0498 24 25.5998 24L25.8898 22.96C25.5198 21.23 24.2398 19.84 22.5898 19.28H19.4198C17.9898 19.76 16.8598 20.85 16.3398 22.26V23.21C17.8798 23.21 17.8798 24 19.4298 24C20.9798 24 20.9698 23.21 22.5198 23.21H22.5098Z" fill="#221F1F"/>
</svg>
