<svg width="42" height="42" viewBox="0 0 42 42" fill="none" xmlns="http://www.w3.org/2000/svg">
<path d="M6.22405 17.3C3.42405 18.6 2.22405 21.8 3.52405 24.6L7.42405 33C7.62405 33.4 7.82405 33.8 8.12405 34.2L7.42405 35.8C6.72405 37.3 7.42405 39.1 8.92405 39.8C9.32405 40 9.72405 40.1 10.124 40.1C11.324 40.1 12.324 39.4 12.824 38.3L13.724 36.2H19.424V36.8C19.324 38.4 20.524 39.9 22.324 40H22.424C24.024 40 25.324 38.8 25.424 37.2L25.524 36.2H29.324L30.224 38.3C30.724 39.4 31.824 40.1 32.924 40.1C33.324 40.1 33.824 40 34.124 39.8C35.624 39.1 36.324 37.3 35.624 35.8L35.124 34.7C36.224 33.7 36.924 32.2 36.924 30.7C36.924 27.7 34.424 25.2 31.424 25.2H26.224L26.524 20.4L35.624 21H35.724C37.324 21 38.624 19.8 38.724 18.2C39.024 14.2 37.724 10.3 35.024 7.2C32.424 4.2 28.724 2.3 24.724 2C24.324 2 24.024 2 23.624 2C15.724 2 9.12405 8.2 8.62405 16C8.62405 16.2 8.62405 16.5 8.62405 16.7C8.52405 16.7 8.42405 16.7 8.32405 16.7C7.82405 16.8 7.02405 16.9 6.22405 17.3ZM20.724 19.9L20.324 25.1H16.024L13.524 20C13.424 19.8 13.324 19.6 13.224 19.4L20.724 19.9Z" fill="white"/>
<path d="M22.5244 38C22.4244 38 22.4244 38 22.5244 38C21.9244 38 21.5244 37.5 21.5244 36.9L23.7244 4.99998C23.7244 4.39998 24.2244 4.09998 24.8244 4.09998C25.4244 4.09998 25.8244 4.59998 25.7244 5.19998L23.5244 37C23.4244 37.6 23.0244 38 22.5244 38Z" fill="#221F1F"/>
<path fill-rule="evenodd" clip-rule="evenodd" d="M24.7242 4.99996C31.4242 5.49996 36.4242 11.2 35.9242 17.9L11.8242 16.2C12.3242 9.59996 18.0242 4.59996 24.7242 4.99996Z" fill="#FFCCBD"/>
<path d="M35.9244 18.9999L11.7244 17.2999C11.4244 17.2999 11.2244 17.1999 11.0244 16.9999C10.8244 16.7999 10.7244 16.4999 10.8244 16.2999C11.3244 9.09995 17.6244 3.69995 24.8244 4.19995C28.3244 4.39995 31.5244 5.99995 33.8244 8.69995C36.1244 11.2999 37.2244 14.6999 37.0244 18.1999C36.9244 18.5999 36.4244 18.9999 35.9244 18.9999ZM12.9244 15.2999L34.9244 16.7999C34.9244 14.1999 33.9244 11.6999 32.2244 9.79995C30.3244 7.59995 27.6244 6.19995 24.6244 5.99995C18.9244 5.59995 13.8244 9.69995 12.9244 15.2999Z" fill="#221F1F"/>
<path d="M33.0241 38C32.6241 38 32.3241 37.8 32.1241 37.4L30.7241 34.3C30.5241 33.8 30.7241 33.2 31.2241 33C31.7241 32.8 32.3241 33 32.5241 33.5L33.9241 36.6C34.1241 37.1 33.9241 37.7 33.4241 37.9C33.3241 38 33.1241 38 33.0241 38Z" fill="#221F1F"/>
<path d="M10.1241 38C10.0241 38 9.8241 38 9.7241 37.9C9.2241 37.7 9.0241 37.1 9.2241 36.6L10.6241 33.5C10.8241 33 11.4241 32.8 11.9241 33C12.4241 33.2 12.6241 33.8 12.4241 34.3L11.0241 37.4C10.9241 37.8 10.5241 38 10.1241 38Z" fill="#221F1F"/>
<path fill-rule="evenodd" clip-rule="evenodd" d="M24.3238 6.00001C18.7238 5.80001 13.8238 9.80001 12.9238 15.3L23.8238 16.1C23.9238 12.9 24.1238 9.20001 24.3238 6.00001Z" fill="#D88C7D"/>
<path fill-rule="evenodd" clip-rule="evenodd" d="M24.7242 4.99995C27.5242 5.19995 29.4242 10.8 28.9242 17.4L18.8242 16.7C19.3242 10.1 21.9242 4.89995 24.7242 4.99995Z" fill="#F0AA97"/>
<path d="M28.9244 18.4999L18.7244 17.7999C18.4244 17.7999 18.2244 17.6999 18.0244 17.4999C17.8244 17.2999 17.7244 16.9999 17.8244 16.7999C18.3244 9.39994 21.3244 3.89994 24.8244 4.19994C28.2244 4.39994 30.5244 10.1999 29.9244 17.6999C29.9244 18.0999 29.4244 18.4999 28.9244 18.4999ZM19.9244 15.7999L28.0244 16.3999C28.2244 10.5999 26.5244 6.19994 24.7244 6.09994C22.8244 5.89994 20.5244 9.99994 19.9244 15.7999Z" fill="#221F1F"/>
<path fill-rule="evenodd" clip-rule="evenodd" d="M31.5237 33.1H12.4237C11.4237 33.1 10.5237 32.5 10.1237 31.6L6.22366 23.2C5.62366 21.9 6.22366 20.5 7.42366 19.9C8.72366 19.3 10.1237 19.9 10.7237 21.1L13.9237 28H31.4237C32.8237 28 33.9237 29.1 33.9237 30.5C33.9237 31.9 32.9237 33.1 31.5237 33.1Z" fill="#9891F5"/>
<path d="M31.5237 34.1H12.4237C11.0237 34.1 9.82367 33.3 9.22367 32.1L5.32367 23.7C4.52367 21.9 5.32367 19.9 7.02367 19.1C7.82367 18.7 8.82367 18.7 9.72367 19C10.6237 19.3 11.3237 20 11.7237 20.8L14.6237 27.1H31.5237C33.4237 27.1 35.0237 28.7 35.0237 30.6C35.0237 32.5 33.4237 34.1 31.5237 34.1ZM8.62367 20.8C8.42367 20.8 8.22367 20.8 8.02367 20.9C7.22367 21.2 6.92367 22.1 7.32367 22.9L11.2237 31.3C11.4237 31.8 12.0237 32.2 12.6237 32.2H31.7237C32.5237 32.2 33.2237 31.5 33.2237 30.7C33.2237 29.9 32.5237 29.2 31.7237 29.2H14.0237C13.6237 29.2 13.3237 29 13.1237 28.6L9.92367 21.7C9.72367 21.3 9.42367 21.1 9.12367 20.9C8.92367 20.8 8.72367 20.8 8.62367 20.8Z" fill="#221F1F"/>
</svg>
