<svg width="42" height="42" viewBox="0 0 42 42" fill="none" xmlns="http://www.w3.org/2000/svg">
<path d="M15.5 33.9999C11.36 33.9999 8 30.6399 8 26.4999C8 25.9399 8.07 25.3999 8.18 24.8799C6.99 26.0599 6.25 27.6899 6.25 29.4999C6.25 33.0899 9.16 35.9999 12.75 35.9999C14.76 35.9999 16.55 35.0899 17.74 33.6599C17.03 33.8799 16.28 33.9999 15.5 33.9999Z" fill="#EDD286"/>
<path d="M18.7596 34.0801C18.5896 34.0801 18.4096 34.0401 18.2496 33.9401L6.2196 26.7701C5.7496 26.4901 5.5896 25.8701 5.8696 25.4001C6.1496 24.9201 6.7696 24.7701 7.2396 25.0501L19.2696 32.2201C19.7396 32.5001 19.8996 33.1201 19.6196 33.5901C19.4296 33.9001 19.0996 34.0801 18.7596 34.0801Z" fill="#F9A936"/>
<path d="M30.5296 34.4C27.0496 34.4 23.8096 32.54 22.0796 29.53L14.6196 16.6C13.3196 14.35 12.9796 11.73 13.6496 9.20999C14.3296 6.68999 15.9296 4.58999 18.1796 3.28999C19.6596 2.43999 21.3296 1.98999 23.0296 1.98999C26.5096 1.98999 29.7496 3.84999 31.4796 6.85999L38.9396 19.79C40.2396 22.04 40.5796 24.66 39.9096 27.18C39.2396 29.7 37.6296 31.8 35.3796 33.1C33.9096 33.95 32.2296 34.4 30.5296 34.4Z" fill="white"/>
<path d="M12.75 40C6.96 40 2.25 35.29 2.25 29.5C2.25 23.71 6.96 19 12.75 19C18.54 19 23.25 23.71 23.25 29.5C23.25 35.29 18.54 40 12.75 40Z" fill="white"/>
<path d="M12.75 38C8.06 38 4.25 34.19 4.25 29.5C4.25 24.81 8.06 21 12.75 21C17.44 21 21.25 24.81 21.25 29.5C21.25 34.19 17.44 38 12.75 38Z" fill="#221F1F"/>
<path d="M30.5302 32.4C27.7602 32.4 25.1902 30.92 23.8102 28.53L16.3502 15.6C15.3202 13.81 15.0502 11.73 15.5802 9.73C16.1202 7.73 17.4002 6.06 19.1802 5.03C20.3502 4.36 21.6802 4 23.0302 4C25.8002 4 28.3702 5.48 29.7502 7.87L37.2102 20.8C38.2402 22.59 38.5102 24.67 37.9802 26.67C37.4502 28.67 36.1702 30.34 34.3802 31.37C33.2102 32.05 31.8802 32.4 30.5302 32.4Z" fill="#221F1F"/>
<path d="M28.0171 8.8651C26.4321 6.1197 22.9216 5.17906 20.1762 6.76411C17.4308 8.34917 16.4901 11.8597 18.0752 14.6051L25.5402 27.5348C27.1252 30.2802 30.6358 31.2209 33.3812 29.6358C36.1266 28.0508 37.0672 24.5402 35.4821 21.7948L28.0171 8.8651Z" fill="#9891F5"/>
<path d="M28.0195 8.86999C26.4395 6.13999 22.9095 5.18999 20.1795 6.76999C19.8695 6.94999 19.5895 7.14999 19.3295 7.37999C19.2595 8.46999 19.4895 9.6 20.0795 10.62L27.5395 23.55C29.1195 26.28 32.6495 27.23 35.3795 25.65C35.6895 25.47 35.9695 25.27 36.2295 25.04C36.2995 23.95 36.0695 22.82 35.4795 21.81L28.0195 8.87999V8.86999Z" fill="#B9B9FF"/>
<path d="M12.75 36C16.3399 36 19.25 33.0899 19.25 29.5C19.25 25.9101 16.3399 23 12.75 23C9.16015 23 6.25 25.9101 6.25 29.5C6.25 33.0899 9.16015 36 12.75 36Z" fill="white"/>
<path d="M12.75 36C16.3399 36 19.25 33.0899 19.25 29.5C19.25 25.9101 16.3399 23 12.75 23C9.16015 23 6.25 25.9101 6.25 29.5C6.25 33.0899 9.16015 36 12.75 36Z" fill="white"/>
<path d="M15.69 34.6799C11.25 34.6799 7.54 31.5799 6.59 27.4299C6.37 28.0799 6.25 28.7699 6.25 29.4899C6.25 33.0799 9.16 35.9899 12.75 35.9899C14.26 35.9899 15.64 35.4699 16.75 34.6099C16.4 34.6499 16.05 34.6699 15.69 34.6699V34.6799Z" fill="#C4C4C4"/>
<path d="M21.8096 21.0701L25.5396 27.5301C27.1196 30.2601 30.6496 31.2101 33.3796 29.6301C36.1096 28.0501 37.0596 24.5201 35.4796 21.7901L31.7496 15.3301L21.8096 21.0701Z" fill="#F0AA97"/>
<path d="M31.75 15.3301L25.04 19.2101L27.54 23.5401C29.12 26.2701 32.65 27.2201 35.38 25.6401C35.69 25.4601 35.97 25.2601 36.23 25.0301C36.3 23.9401 36.07 22.8101 35.48 21.8001L31.75 15.3401V15.3301Z" fill="#FFCCBD"/>
<path d="M21.8099 22.0699C21.4599 22.0699 21.1299 21.8899 20.9399 21.5699C20.6599 21.0899 20.8299 20.4799 21.3099 20.1999L31.2499 14.4599C31.7299 14.1799 32.3399 14.3499 32.6199 14.8299C32.8999 15.3099 32.7299 15.9199 32.2499 16.1999L22.3099 21.9399C22.1499 22.0299 21.9799 22.0699 21.8099 22.0699Z" fill="#221F1F"/>
<path d="M11.4904 35.8699L15.9004 23.8099C15.3204 23.4899 14.6804 23.2599 14.0204 23.1299L9.61035 35.1899C10.1904 35.5099 10.8304 35.7399 11.4904 35.8699Z" fill="#C4C4C4"/>
</svg>
