<svg width="42" height="42" viewBox="0 0 42 42" fill="none" xmlns="http://www.w3.org/2000/svg">
<path d="M33.73 34.5505L32.34 31.0805C34.03 29.3305 35 26.9605 35 24.5005C35 21.2405 33.34 18.2505 30.62 16.5105C30.3 15.7005 29.8 14.9805 29.15 14.4005L29.61 13.4205C30.23 12.0805 30.05 10.5705 29.26 9.44047L29.49 8.95047C29.94 7.98047 29.99 6.90047 29.62 5.89047C29.25 4.89047 28.52 4.08047 27.55 3.63047L24.83 2.36047C24.3 2.11047 23.73 1.98047 23.14 1.98047C21.59 1.98047 20.17 2.89047 19.51 4.29047L19.28 4.78047C17.87 4.90047 16.61 5.78047 16 7.07047L10.51 18.8505C9.57998 20.8505 10.45 23.2305 12.44 24.1705C12.22 24.6505 12.19 25.2005 12.37 25.7005C12.55 26.2005 12.92 26.6105 13.4 26.8305L13.73 26.9805H12.98C11.33 26.9805 9.97998 28.3305 9.97998 29.9805C9.97998 31.6305 11.33 32.9805 12.98 32.9805H15.98V33.9805H9.97998C8.32998 33.9805 6.97998 35.3305 6.97998 36.9805C6.97998 38.6305 8.32998 39.9805 9.97998 39.9805H31.98C33.63 39.9805 34.98 38.6305 34.98 36.9805C34.98 35.9705 34.48 35.0805 33.71 34.5305L33.73 34.5505Z" fill="white"/>
<path d="M22.3017 24.3661L27.7958 12.5841C28.2626 11.583 27.8295 10.393 26.8284 9.92622L20.4842 6.96789C19.4832 6.50108 18.2932 6.93419 17.8264 7.93527L12.3324 19.7173C11.8655 20.7184 12.2987 21.9083 13.2997 22.3752L19.6439 25.3335C20.645 25.8003 21.8349 25.3672 22.3017 24.3661Z" fill="#221F1F"/>
<path d="M24.5892 9.98856L21.8703 8.7207L14.2632 25.0342L16.9821 26.3021L24.5892 9.98856Z" fill="#221F1F"/>
<path d="M25.9808 11.7337L19.6366 8.77539L14.1426 20.5574L20.4867 23.5157L25.9808 11.7337Z" fill="#CAE5FF"/>
<path d="M25.9884 11.7483L23.2694 10.4805L17.7754 22.2625L20.4943 23.5303L25.9884 11.7483Z" fill="#8EBFE2"/>
<path d="M26.828 9.92985L27.6732 8.11723C28.14 7.11615 27.7069 5.92619 26.7058 5.45938L23.9869 4.19153C22.9858 3.72471 21.7959 4.15783 21.3291 5.15891L20.4838 6.97152C20.017 7.9726 20.4501 9.16256 21.4512 9.62937L24.1701 10.8972C25.1712 11.364 26.3612 10.9309 26.828 9.92985Z" fill="#221F1F"/>
<path d="M25.866 7.26981L23.1471 6.00195L22.3018 7.81457L25.0208 9.08242L25.866 7.26981Z" fill="#CAE5FF"/>
<path d="M26 17.0293V19.0293C28.8 19.2793 31 21.6393 31 24.4993C31 27.3593 28.8 29.7193 26 29.9693V31.9693C29.91 31.7093 33 28.4693 33 24.4993C33 20.5293 29.91 17.2793 26 17.0293Z" fill="#221F1F"/>
<path d="M20 38C18.9 38 18 37.1 18 36V31C18 29.9 18.9 29 20 29H28C28.82 29 29.55 29.5 29.86 30.26L31.86 35.26C32.11 35.88 32.03 36.57 31.66 37.12C31.29 37.67 30.67 38 30 38H20Z" fill="#221F1F"/>
<path d="M28 31H20V36H30L28 31Z" fill="#A2D6FF"/>
<path d="M30 36H10C9.44772 36 9 36.4477 9 37C9 37.5523 9.44772 38 10 38H30C30.5523 38 31 37.5523 31 37C31 36.4477 30.5523 36 30 36Z" fill="#221F1F"/>
<path d="M32 36H12C11.4477 36 11 36.4477 11 37C11 37.5523 11.4477 38 12 38H32C32.5523 38 33 37.5523 33 37C33 36.4477 32.5523 36 32 36Z" fill="#221F1F"/>
<path d="M20 29H13C12.4477 29 12 29.4477 12 30C12 30.5523 12.4477 31 13 31H20C20.5523 31 21 30.5523 21 30C21 29.4477 20.5523 29 20 29Z" fill="#221F1F"/>
<path d="M25.5 22C27.433 22 29 20.433 29 18.5C29 16.567 27.433 15 25.5 15C23.567 15 22 16.567 22 18.5C22 20.433 23.567 22 25.5 22Z" fill="#221F1F"/>
<path d="M25.5 20C26.3284 20 27 19.3284 27 18.5C27 17.6716 26.3284 17 25.5 17C24.6716 17 24 17.6716 24 18.5C24 19.3284 24.6716 20 25.5 20Z" fill="#A2D6FF"/>
<path d="M25.5 34C27.433 34 29 32.433 29 30.5C29 28.567 27.433 27 25.5 27C23.567 27 22 28.567 22 30.5C22 32.433 23.567 34 25.5 34Z" fill="#221F1F"/>
<path d="M25.5 32C26.3284 32 27 31.3284 27 30.5C27 29.6716 26.3284 29 25.5 29C24.6716 29 24 29.6716 24 30.5C24 31.3284 24.6716 32 25.5 32Z" fill="#A2D6FF"/>
<path d="M17 32H13V35H17V32Z" fill="white"/>
</svg>
