<svg width="42" height="42" viewBox="0 0 42 42" fill="none" xmlns="http://www.w3.org/2000/svg">
<path d="M37.88 10.47L22.88 2.47C22.3 2.16 21.65 2 21 2C20.35 2 19.69 2.16 19.12 2.47L4.12 10.47C2.81 11.17 2 12.52 2 14V28C2 29.48 2.81 30.83 4.12 31.53L19.12 39.53C19.7 39.84 20.35 40 21 40C21.65 40 22.31 39.84 22.88 39.53L37.88 31.53C39.19 30.83 40 29.48 40 28V14C40 12.52 39.19 11.17 37.88 10.47Z" fill="white"/>
<path d="M21 38C20.68 38 20.35 37.92 20.06 37.76L5.06 29.76C4.41 29.41 4 28.73 4 28V14C4 13.26 4.41 12.58 5.06 12.24L20.06 4.24C20.35 4.08 20.68 4 21 4C21.32 4 21.65 4.08 21.94 4.24L36.94 12.24C37.59 12.59 38 13.27 38 14V28C38 28.74 37.59 29.42 36.94 29.76L21.94 37.76C21.65 37.92 21.32 38 21 38Z" fill="#221F1F"/>
<path d="M36 14L21 6L6 14V28L21 36L36 28V14Z" fill="#FCD26E"/>
<path d="M9.75 12L6 14V28L21 36V12H9.75Z" fill="#E0B344"/>
<path d="M21 24C20.68 24 20.35 23.92 20.06 23.76L5.06 15.76C4.41 15.41 4 14.73 4 14C4 13.27 4.41 12.58 5.06 12.24L20.06 4.24C20.35 4.08 20.68 4 21 4C21.32 4 21.65 4.08 21.94 4.24L36.94 12.24C37.59 12.59 38 13.27 38 14C38 14.73 37.59 15.42 36.94 15.76L21.94 23.76C21.65 23.92 21.32 24 21 24Z" fill="#221F1F"/>
<path d="M36 14L21 22L6 14L21 6L36 14Z" fill="#FCD26E"/>
<path d="M12.757 8.18848L11.8159 9.95322L29.4281 19.3454L30.3692 17.5807L12.757 8.18848Z" fill="#221F1F"/>
<path d="M22 23H20V37H22V23Z" fill="#221F1F"/>
</svg>
