<svg width="42" height="42" viewBox="0 0 42 42" fill="none" xmlns="http://www.w3.org/2000/svg">
<path d="M38 36V22C38 19.7909 36.2091 18 34 18H16C13.7909 18 12 19.7909 12 22V36C12 38.2091 13.7909 40 16 40H34C36.2091 40 38 38.2091 38 36Z" fill="white"/>
<path d="M33 20V6C33 3.79086 31.2091 2 29 2H11C8.79086 2 7 3.79086 7 6V20C7 22.2091 8.79086 24 11 24H29C31.2091 24 33 22.2091 33 20Z" fill="white"/>
<path d="M28 36V22C28 19.7909 26.2091 18 24 18H6C3.79086 18 2 19.7909 2 22V36C2 38.2091 3.79086 40 6 40H24C26.2091 40 28 38.2091 28 36Z" fill="white"/>
<path d="M36 36V22C36 20.8954 35.1046 20 34 20H16C14.8954 20 14 20.8954 14 22V36C14 37.1046 14.8954 38 16 38H34C35.1046 38 36 37.1046 36 36Z" fill="#221F1F"/>
<path d="M30 22H16V36H30V22Z" fill="#E0B344"/>
<path d="M34 22H25V36H34V22Z" fill="#FCD26E"/>
<path d="M26 21H24V37H26V21Z" fill="#221F1F"/>
<path d="M31 20V6C31 4.89543 30.1046 4 29 4H11C9.89543 4 9 4.89543 9 6V20C9 21.1046 9.89543 22 11 22H29C30.1046 22 31 21.1046 31 20Z" fill="#221F1F"/>
<path d="M25 6H11V20H25V6Z" fill="#E0B344"/>
<path d="M29 6H20V20H29V6Z" fill="#FCD26E"/>
<path d="M21 5H19V21H21V5Z" fill="#221F1F"/>
<path d="M26 36V22C26 20.8954 25.1046 20 24 20H6C4.89543 20 4 20.8954 4 22V36C4 37.1046 4.89543 38 6 38H24C25.1046 38 26 37.1046 26 36Z" fill="#221F1F"/>
<path d="M20 22H6V36H20V22Z" fill="#E0B344"/>
<path d="M24 22H15V36H24V22Z" fill="#FCD26E"/>
<path d="M16 21H14V37H16V21Z" fill="#221F1F"/>
<path d="M17 8H13V10H17V8Z" fill="#221F1F"/>
<path d="M12 24H8V26H12V24Z" fill="#221F1F"/>
</svg>
