<svg width="42" height="42" viewBox="0 0 42 42" fill="none" xmlns="http://www.w3.org/2000/svg">
<path d="M37.88 10.47L22.88 2.47C22.3 2.16 21.65 2 21 2C20.35 2 19.69 2.16 19.12 2.47L4.12 10.47C2.81 11.17 2 12.52 2 14V28C2 29.48 2.81 30.83 4.12 31.53L19.12 39.53C19.7 39.84 20.35 40 21 40C21.65 40 22.31 39.84 22.88 39.53L37.88 31.53C39.19 30.83 40 29.48 40 28V14C40 12.52 39.19 11.17 37.88 10.47Z" fill="white"/>
<path d="M21 38C20.68 38 20.35 37.92 20.06 37.76L5.06 29.76C4.41 29.41 4 28.73 4 28V14C4 13.26 4.41 12.58 5.06 12.24L20.06 4.24C20.35 4.08 20.68 4 21 4C21.32 4 21.65 4.08 21.94 4.24L36.94 12.24C37.59 12.59 38 13.27 38 14V28C38 28.74 37.59 29.42 36.94 29.76L21.94 37.76C21.65 37.92 21.32 38 21 38Z" fill="#221F1F"/>
<path d="M36 14L21 6L6 14V28L21 36L36 28V14Z" fill="#FCD26E"/>
<path d="M9.75 12L6 14V28L21 36V12H9.75Z" fill="#E0B344"/>
<path d="M26.4702 28.7795C26.1102 28.7795 25.7602 28.6795 25.4402 28.4895C24.8402 28.1295 24.4702 27.4795 24.4702 26.7795V13.2695C24.4702 12.1695 25.3702 11.2695 26.4702 11.2695H30.3502C31.4502 11.2695 32.3502 12.1695 32.3502 13.2695V24.7095C32.3502 25.4495 31.9402 26.1295 31.2902 26.4695L27.4102 28.5395C27.1202 28.6995 26.7902 28.7795 26.4702 28.7795Z" fill="#221F1F"/>
<path d="M26.4702 19.0795V26.7795L30.3402 24.7095V17.0195L26.4702 19.0795Z" fill="#C4C4C4"/>
<path d="M22 23H20V37H22V23Z" fill="#221F1F"/>
<path d="M21 24C20.68 24 20.35 23.92 20.06 23.76L5.06 15.76C4.41 15.41 4 14.73 4 14C4 13.27 4.41 12.58 5.06 12.24L20.06 4.24C20.35 4.08 20.68 4 21 4C21.32 4 21.65 4.08 21.94 4.24L36.94 12.24C37.59 12.59 38 13.27 38 14C38 14.73 37.59 15.42 36.94 15.76L21.94 23.76C21.65 23.92 21.32 24 21 24Z" fill="#221F1F"/>
<path d="M36 14L21 22L6 14L21 6L36 14Z" fill="#FCD26E"/>
<path d="M32.3399 17.0691C32.3399 17.0691 32.3399 17.0291 32.3399 17.0091C32.3399 16.2691 33.7899 16.5791 33.1299 16.2291L16.4799 7.36914L9.55992 11.0891C9.48992 11.7491 8.50992 11.6591 9.13992 11.9991L25.3799 20.6291L32.3399 17.0691Z" fill="#221F1F"/>
<path d="M11.5801 11.0195L26.6001 19.0095L30.3501 17.0095L15.3301 9.01953L11.5801 11.0195Z" fill="white"/>
</svg>
