<svg width="42" height="42" viewBox="0 0 42 42" fill="none" xmlns="http://www.w3.org/2000/svg">
<path d="M21 21C25.4183 21 29 16.9706 29 12C29 7.02944 25.4183 3 21 3C16.5817 3 13 7.02944 13 12C13 16.9706 16.5817 21 21 21Z" fill="white"/>
<path d="M21 38C20.67 38 20.34 37.96 20.03 37.88L8.03 34.88C6.25 34.43 5 32.84 5 31V13C5 11.76 5.56 10.61 6.54 9.85C7.24 9.3 8.11 9 9 9C9.33 9 9.65 9.04 9.97 9.12L21 11.88L32.03 9.12C32.35 9.04 32.67 9 33 9C33.89 9 34.76 9.3 35.46 9.85C36.44 10.61 37 11.76 37 13V31C37 32.84 35.75 34.43 33.97 34.88L21.97 37.88C21.66 37.96 21.33 38 21 38Z" fill="white"/>
<path d="M9 29C12.3137 29 15 26.0899 15 22.5C15 18.9101 12.3137 16 9 16C5.68629 16 3 18.9101 3 22.5C3 26.0899 5.68629 29 9 29Z" fill="white"/>
<path d="M33 29C36.3137 29 39 26.0899 39 22.5C39 18.9101 36.3137 16 33 16C29.6863 16 27 18.9101 27 22.5C27 26.0899 29.6863 29 33 29Z" fill="white"/>
<path d="M21 19C24.3137 19 27 15.866 27 12C27 8.13401 24.3137 5 21 5C17.6863 5 15 8.13401 15 12C15 15.866 17.6863 19 21 19Z" fill="#221F1F"/>
<path d="M21 17C23.2091 17 25 14.7614 25 12C25 9.23858 23.2091 7 21 7C18.7909 7 17 9.23858 17 12C17 14.7614 18.7909 17 21 17Z" fill="#CAE5FF"/>
<path d="M18.1 8.57031C17.42 9.47031 17 10.6703 17 12.0003C17 14.7603 18.79 17.0003 21 17.0003C21.33 17.0003 21.65 16.9403 21.95 16.8403C21.68 13.3203 20.2 10.3003 18.1 8.57031Z" fill="#8EBFE2"/>
<path d="M21 36C20.84 36 20.67 35.98 20.52 35.94L8.52 32.94C7.63 32.72 7 31.92 7 31V13C7 12.38 7.28 11.8 7.77 11.42C8.13 11.14 8.56 11 9 11C9.16 11 9.32 11.02 9.48 11.06L21 13.94L32.52 11.06C32.68 11.02 32.84 11 33 11C33.44 11 33.88 11.15 34.23 11.42C34.72 11.8 35 12.38 35 13V31C35 31.92 34.38 32.72 33.48 32.94L21.48 35.94C21.32 35.98 21.16 36 21 36Z" fill="#221F1F"/>
<path d="M21 34L9 31V13L21 16V34Z" fill="#C4C4C4"/>
<path d="M9 27C11.2091 27 13 24.9853 13 22.5C13 20.0147 11.2091 18 9 18C6.79086 18 5 20.0147 5 22.5C5 24.9853 6.79086 27 9 27Z" fill="#221F1F"/>
<path d="M9 25C10.1046 25 11 23.8807 11 22.5C11 21.1193 10.1046 20 9 20C7.89543 20 7 21.1193 7 22.5C7 23.8807 7.89543 25 9 25Z" fill="#8EBFE2"/>
<path d="M21 34L33 31V13L21 16V34Z" fill="white"/>
<path d="M23 17.5596V19.5596L31 17.5596V15.5596L23 17.5596Z" fill="#221F1F"/>
<path d="M23 29.5596V31.5596L31 29.5596V27.5596L23 29.5596Z" fill="#221F1F"/>
<path d="M19 29.5596V31.5596L11 29.5596V27.5596L19 29.5596Z" fill="#221F1F"/>
<path d="M19 25.5596V27.5596L11 25.5596V23.5596L19 25.5596Z" fill="#221F1F"/>
<path d="M19 21.5596V23.5596L11 21.5596V19.5596L19 21.5596Z" fill="#221F1F"/>
<path d="M23 21.5596V27.5596L31 25.5596V19.5596L23 21.5596Z" fill="#221F1F"/>
<path d="M33 27C35.2091 27 37 24.9853 37 22.5C37 20.0147 35.2091 18 33 18C30.7909 18 29 20.0147 29 22.5C29 24.9853 30.7909 27 33 27Z" fill="#221F1F"/>
<path d="M33 25C34.1046 25 35 23.8807 35 22.5C35 21.1193 34.1046 20 33 20C31.8954 20 31 21.1193 31 22.5C31 23.8807 31.8954 25 33 25Z" fill="#CAE5FF"/>
<path d="M19 17.5596V19.5596L11 17.5596V15.5596L19 17.5596Z" fill="#221F1F"/>
</svg>
