<svg width="42" height="42" viewBox="0 0 42 42" fill="none" xmlns="http://www.w3.org/2000/svg">
<path d="M21 27C18.9 27 12.5 26 12.5 19.5V10.5C12.5 5.81 16.31 2 21 2C25.69 2 29.5 5.81 29.5 10.5V19.5C29.5 21.99 28.38 24.4 27.44 25.13C25.92 26.32 24.15 26.32 23.56 26.32C23.45 26.32 23.34 26.32 23.23 26.32C22.58 26.76 21.8 27 21 27Z" fill="white"/>
<path d="M32 27H10C6.68629 27 4 29.6863 4 33C4 36.3137 6.68629 39 10 39H32C35.3137 39 38 36.3137 38 33C38 29.6863 35.3137 27 32 27Z" fill="white"/>
<path d="M15.2 11H26.8C29.67 11 32 13.33 32 16.2V23.8C32 26.67 29.67 29 26.8 29H15.2C12.33 29 10 26.67 10 23.8V16.2C10 13.33 12.33 11 15.2 11Z" fill="white"/>
<path d="M14.89 32.9998L14.08 30.5298L11.36 32.0798L11.99 29.0098H9.39L10.03 32.0798L7.3 30.5298L6.5 32.9998L9.61 33.3498L7.3 35.4598L9.4 36.9898L10.69 34.1398L11.99 36.9898L14.09 35.4598L11.77 33.3498L14.89 32.9998Z" fill="#221F1F"/>
<path d="M25.1905 32.9998L24.3905 30.5298L21.6705 32.0798L22.3005 29.0098H19.7005L20.3305 32.0798L17.6105 30.5298L16.8105 32.9998L19.9205 33.3498L17.6005 35.4598L19.7105 36.9898L21.0005 34.1398L22.2905 36.9898L24.4005 35.4598L22.0805 33.3498L25.1905 32.9998Z" fill="#221F1F"/>
<path d="M35.4994 32.9998L34.6994 30.5298L31.9694 32.0798L32.6094 29.0098H30.0094L30.6394 32.0798L27.9194 30.5298L27.1094 32.9998L30.2294 33.3498L27.9094 35.4598L30.0094 36.9898L31.3094 34.1398L32.5994 36.9898L34.6994 35.4598L32.3894 33.3498L35.4994 32.9998Z" fill="#221F1F"/>
<path d="M21 25C18.73 25 14.5 24 14.5 19.5V10.5C14.5 6.92 17.42 4 21 4C24.58 4 27.5 6.92 27.5 10.5V19.5C27.5 20.86 27.06 22.89 26.21 23.56C25.34 24.25 24.28 24.33 23.57 24.33C23.25 24.33 22.9 24.31 22.54 24.29C22.17 24.73 21.62 25.01 21.01 25.01L21 25Z" fill="#221F1F"/>
<path d="M21 6C18.51 6 16.5 8.01 16.5 10.5V19.5C16.5 21.99 18.51 22 21 22V21.21C23.49 21.21 25.5 21.98 25.5 19.5V10.5C25.5 8.01 23.49 6 21 6Z" fill="white"/>
<path d="M19.44 19.97C19.05 19.94 18.71 19.9 18.53 19.82C18.52 19.77 18.5 19.66 18.5 19.5V10.5C18.5 9.12 19.62 8 21 8C22.38 8 23.5 9.12 23.5 10.5V19.33C23.22 19.33 22.91 19.31 22.59 19.28C22.09 19.25 21.56 19.21 21 19.21C20.37 19.21 19.8 19.5 19.44 19.96V19.97Z" fill="#221F1F"/>
<path d="M15.2 13H26.8C28.57 13 30 14.43 30 16.2V23.8C30 25.57 28.57 27 26.8 27H15.2C13.43 27 12 25.57 12 23.8V16.2C12 14.43 13.43 13 15.2 13Z" fill="#221F1F"/>
<path d="M26.8 15H15.2C14.5373 15 14 15.5373 14 16.2V23.8C14 24.4627 14.5373 25 15.2 25H26.8C27.4627 25 28 24.4627 28 23.8V16.2C28 15.5373 27.4627 15 26.8 15Z" fill="#BF9E6F"/>
<path d="M26.8 15H21V25H26.8C27.46 25 28 24.46 28 23.8V16.2C28 15.54 27.46 15 26.8 15Z" fill="#EDD286"/>
<path d="M22 18C22 17.4477 21.5523 17 21 17C20.4477 17 20 17.4477 20 18V22C20 22.5523 20.4477 23 21 23C21.5523 23 22 22.5523 22 22V18Z" fill="#221F1F"/>
<path d="M21 21C22.1046 21 23 20.1046 23 19C23 17.8954 22.1046 17 21 17C19.8954 17 19 17.8954 19 19C19 20.1046 19.8954 21 21 21Z" fill="#221F1F"/>
</svg>
