<svg width="42" height="42" viewBox="0 0 42 42" fill="none" xmlns="http://www.w3.org/2000/svg">
<path d="M40 34V8C40 5.79086 38.2091 4 36 4H6C3.79086 4 2 5.79086 2 8V34C2 36.2091 3.79086 38 6 38H36C38.2091 38 40 36.2091 40 34Z" fill="white"/>
<path d="M38 34V8C38 6.89543 37.1046 6 36 6H6C4.89543 6 4 6.89543 4 8V34C4 35.1046 4.89543 36 6 36H36C37.1046 36 38 35.1046 38 34Z" fill="#221F1F"/>
<path d="M36 8H6V34H36V8Z" fill="white"/>
<path d="M36 33.9492L6 20.4492V33.9992H36V33.9492Z" fill="#CAE5FF"/>
<path d="M22 7H20V35H22V7Z" fill="#221F1F"/>
<path d="M31 7H29V35H31V7Z" fill="#221F1F"/>
<path d="M13 7H11V35H13V7Z" fill="#221F1F"/>
<path d="M9 9H15V24.32C15 24.7 14.69 25 14.32 25H9.68C9.3 25 9 24.69 9 24.32V9Z" fill="#221F1F"/>
<path d="M18 9H24V24.32C24 24.7 23.69 25 23.32 25H18.68C18.3 25 18 24.69 18 24.32V9Z" fill="#221F1F"/>
<path d="M27 9H33V24.32C33 24.7 32.69 25 32.32 25H27.68C27.3 25 27 24.69 27 24.32V9Z" fill="#221F1F"/>
<path d="M37 7H5V12H37V7Z" fill="#221F1F"/>
</svg>
