<svg width="42" height="42" viewBox="0 0 42 42" fill="none" xmlns="http://www.w3.org/2000/svg">
<path d="M40 15V20.99C40 22.92 38.43 24.5 36.49 24.5H5.5C3.57 24.5 2 22.93 2 21V15.01C2 13.08 3.57 11.5 5.51 11.5H36.5C38.43 11.5 40 13.07 40 15Z" fill="white"/>
<path d="M10.4207 40C7.86069 40 5.73069 38.08 5.35069 35.43L3.05069 19.57C2.88069 18.42 3.22069 17.26 3.99069 16.38C4.75069 15.5 5.85069 15 7.01069 15H35.0107C36.1707 15 37.2807 15.5 38.0407 16.38C38.8007 17.26 39.1407 18.42 38.9707 19.57L36.6707 35.43C36.2907 38.08 34.1507 40 31.5907 40H10.4207Z" fill="white"/>
<path d="M10.4194 38C8.86937 38 7.55937 36.8 7.31937 35.15L5.01937 19.29C4.93937 18.71 5.10937 18.13 5.48937 17.69C5.86937 17.25 6.41937 17 6.99937 17H34.9994C35.5794 17 36.1294 17.25 36.5094 17.69C36.8894 18.13 37.0594 18.71 36.9794 19.29L34.6794 35.15C34.4394 36.8 33.1394 38 31.5794 38H10.4194Z" fill="#221F1F"/>
<path d="M30 19H7L9.3 34.86C9.4 35.52 9.87 36 10.42 36H31.59C32.14 36 32.61 35.52 32.71 34.86L35.01 19H30.01H30Z" fill="#F9A936"/>
<path d="M22.2098 36H31.5798C32.1298 36 32.5998 35.52 32.6998 34.86L34.9998 19H16.8398L22.2098 36Z" fill="#FCD26E"/>
<path d="M12.9903 20.8098C12.8603 20.8098 12.7303 20.8098 12.6103 20.7898C11.5803 20.6698 10.6703 20.1198 10.0903 19.2598C9.52026 18.4098 9.35026 17.3498 9.63026 16.3598L13.1803 3.75977C13.4703 2.72977 14.4203 2.00977 15.4903 2.00977C15.7103 2.00977 15.9303 2.03977 16.1503 2.09977L18.2503 2.68977C18.8703 2.85977 19.3803 3.26977 19.7003 3.82977C20.0103 4.38977 20.0903 5.03977 19.9203 5.65977L16.3903 18.1898C15.9503 19.7398 14.5603 20.8198 13.0003 20.8198L12.9903 20.8098Z" fill="white"/>
<path d="M29.0099 20.81C27.4499 20.81 26.0499 19.73 25.6199 18.18L22.0899 5.65C21.9199 5.03 21.9899 4.38 22.3099 3.82C22.6199 3.26 23.1399 2.85 23.7599 2.68L25.8599 2.09C26.0699 2.03 26.2899 2 26.5099 2C27.5799 2 28.5399 2.72 28.8299 3.76L32.3799 16.36C32.6599 17.35 32.4899 18.41 31.9199 19.26C31.3499 20.11 30.4299 20.67 29.3999 20.79C29.2699 20.8 29.1399 20.81 29.0199 20.81H29.0099Z" fill="white"/>
<path d="M38 21V15C38 14.1716 37.3284 13.5 36.5 13.5H5.5C4.67157 13.5 4 14.1716 4 15V21C4 21.8284 4.67157 22.5 5.5 22.5H36.5C37.3284 22.5 38 21.8284 38 21Z" fill="#221F1F"/>
<path d="M36 15.5H6V20.5H36V15.5Z" fill="#F9A936"/>
<path d="M17.9901 5.1093L14.4601 17.6393C14.2601 18.3593 13.5801 18.8893 12.8401 18.7993C11.8901 18.6893 11.3101 17.7793 11.5601 16.8993L15.1101 4.2993C15.1701 4.0793 15.3901 3.9593 15.6101 4.0193L17.7201 4.6093C17.9401 4.6693 18.0601 4.8893 18.0001 5.1093H17.9901Z" fill="#221F1F"/>
<path d="M35 25.5H7V27.5H35V25.5Z" fill="#221F1F"/>
<path d="M35 30.5H7V32.5H35V30.5Z" fill="#221F1F"/>
<path d="M22 22H20V27H22V22Z" fill="#221F1F"/>
<path d="M22 32H20V37H22V32Z" fill="#221F1F"/>
<path d="M13.7409 27H11.7409L11.2109 22H13.2109L13.7409 27Z" fill="#221F1F"/>
<path d="M14.7898 37H12.7898L12.2598 32H14.2598L14.7898 37Z" fill="#221F1F"/>
<path d="M18.1291 32H16.1291L15.8691 27H17.8691L18.1291 32Z" fill="#221F1F"/>
<path d="M28.2598 27H30.2598L30.7898 22H28.7898L28.2598 27Z" fill="#221F1F"/>
<path d="M27.2109 37H29.2109L29.7409 32H27.7409L27.2109 37Z" fill="#221F1F"/>
<path d="M23.8691 32H25.8691L26.1291 27H24.1291L23.8691 32Z" fill="#221F1F"/>
<path d="M23.3202 20.5H36.0002V15.5H21.7402L23.3202 20.5Z" fill="#FCD26E"/>
<path d="M24.0098 5.1093L27.5398 17.6393C27.7398 18.3593 28.4198 18.8893 29.1598 18.7993C30.1098 18.6893 30.6898 17.7793 30.4398 16.8993L26.8898 4.2993C26.8298 4.0793 26.6098 3.9593 26.3898 4.0193L24.2798 4.6093C24.0598 4.6693 23.9398 4.8893 23.9998 5.1093H24.0098Z" fill="#221F1F"/>
</svg>
