<svg width="42" height="42" viewBox="0 0 42 42" fill="none" xmlns="http://www.w3.org/2000/svg">
<path d="M20.02 40.0005C18.77 40.0005 17.54 39.5605 16.57 38.7605C15.81 38.1305 14.5 37.0005 12.55 35.1505C12.46 35.0605 12.36 34.9605 12.28 34.8605C11.33 33.8205 10.78 32.5905 10.64 31.3305C9.36999 31.1905 8.14999 30.6305 7.13999 29.7205C7.03999 29.6305 6.93999 29.5405 6.83999 29.4405C4.95999 27.4605 3.83999 26.1605 3.21999 25.4105C1.40999 23.2105 1.61999 19.9505 3.70999 17.9805L5.78999 16.0205C3.70999 13.1605 3.95999 9.12047 6.53999 6.54047C7.91999 5.16047 9.75999 4.39047 11.72 4.39047C13.29 4.39047 14.78 4.88047 16.02 5.79047L17.98 3.71047C19.01 2.61047 20.46 1.98047 21.96 1.98047C23.21 1.98047 24.44 2.42047 25.41 3.22047C26.17 3.85047 27.48 4.98047 29.43 6.83047C29.52 6.92047 29.62 7.02047 29.7 7.12047C30.65 8.16047 31.2 9.39047 31.34 10.6405C32.61 10.7805 33.83 11.3405 34.84 12.2505C34.94 12.3405 35.04 12.4305 35.14 12.5305C37.02 14.5105 38.14 15.8105 38.76 16.5605C40.57 18.7605 40.36 22.0205 38.27 23.9905L36.19 25.9505C37.1 27.1905 37.59 28.6805 37.59 30.2505C37.59 32.2105 36.83 34.0505 35.44 35.4305C34.06 36.8105 32.22 37.5705 30.26 37.5705C28.69 37.5705 27.2 37.0805 25.96 36.1705L24 38.2505C22.97 39.3505 21.52 39.9805 20.02 39.9805V40.0005Z" fill="white"/>
<path d="M37.2202 17.8402C36.6302 17.1202 35.5302 15.8502 33.7102 13.9302C33.6502 13.8702 33.5902 13.8202 33.5302 13.7602C32.7302 13.0302 31.7202 12.6102 30.7302 12.6102C30.0802 12.6102 29.4602 12.7802 28.8802 13.1102C29.7402 11.6102 29.4802 9.80023 28.2202 8.44023C28.1702 8.38023 28.1202 8.33023 28.0702 8.28023C26.1702 6.47023 24.8902 5.37023 24.1602 4.77023C23.5502 4.27023 22.7702 3.99023 21.9802 3.99023C21.0302 3.99023 20.1102 4.39023 19.4502 5.08023L16.0902 8.66023C15.9202 8.41023 15.7202 8.17023 15.5002 7.96023C14.4902 6.95023 13.1602 6.40023 11.7402 6.40023C10.3202 6.40023 8.98016 6.95023 7.98016 7.96023C5.91016 10.0402 5.91016 13.4102 7.98016 15.4902C8.20016 15.7102 8.43016 15.9002 8.68016 16.0802L5.10016 19.4502C3.78016 20.6902 3.64016 22.7602 4.79016 24.1502C5.38016 24.8702 6.48016 26.1402 8.30016 28.0602C8.36016 28.1202 8.42016 28.1702 8.48016 28.2302C9.28016 28.9602 10.2902 29.3802 11.2802 29.3802C11.9302 29.3802 12.5502 29.2102 13.1302 28.8802C12.2702 30.3802 12.5402 32.1902 13.8002 33.5402C13.8502 33.6002 13.9002 33.6502 13.9502 33.7002C15.8502 35.5102 17.1302 36.6102 17.8602 37.2102C18.4702 37.7102 19.2502 37.9902 20.0402 37.9902C20.9902 37.9902 21.9102 37.5902 22.5602 36.8902L25.9202 33.3102C26.0902 33.5602 26.2902 33.8002 26.5102 34.0102C27.5202 35.0202 28.8502 35.5702 30.2702 35.5702C31.6902 35.5702 33.0302 35.0202 34.0302 34.0102C35.0402 33.0102 35.5902 31.6702 35.5902 30.2502C35.5902 28.8302 35.0402 27.4902 34.0302 26.4902C33.8102 26.2702 33.5802 26.0802 33.3302 25.9002L36.9102 22.5302C38.2302 21.2902 38.3702 19.2202 37.2202 17.8302V17.8402Z" fill="#221F1F"/>
<path fill-rule="evenodd" clip-rule="evenodd" d="M29.8799 14.8494C28.7099 15.5194 29.3199 17.4594 28.3599 18.3594C27.4499 19.2694 25.6599 18.9494 24.3599 17.6494C23.0599 16.3494 22.7399 14.5594 23.6499 13.6494C24.5399 12.6894 26.4799 13.2994 27.1599 12.1294C27.7199 11.1494 27.1599 10.2094 26.6899 9.7494C24.8999 8.0494 23.6599 6.9694 22.8899 6.3394C22.2999 5.8494 21.4399 5.9194 20.9099 6.4794L16.9999 10.6394C16.5899 11.0494 15.4799 11.9694 14.9099 10.7494C14.9099 10.7294 14.8899 10.7294 14.8799 10.7194C14.7199 10.2394 14.4699 9.7794 14.0799 9.3994C12.7799 8.0994 10.6799 8.0994 9.37987 9.3994C8.07987 10.6994 8.07987 12.7994 9.37987 14.0994C9.75987 14.4794 10.2199 14.7394 10.6999 14.8994C10.7199 14.8994 10.7099 14.9194 10.7299 14.9294C11.9499 15.4894 11.0299 16.6094 10.6199 17.0194L6.45987 20.9294C5.89987 21.4594 5.82987 22.3194 6.31987 22.9094C6.95987 23.6794 8.03987 24.9194 9.72987 26.7094C10.1999 27.1694 11.1399 27.7294 12.1099 27.1694C13.2799 26.4994 12.6699 24.5594 13.6299 23.6594C14.5399 22.7494 16.3299 23.0694 17.6299 24.3694C18.9299 25.6694 19.2499 27.4594 18.3399 28.3694C17.4499 29.3294 15.5099 28.7194 14.8299 29.8894C14.2699 30.8694 14.8299 31.8094 15.2999 32.2694C17.0899 33.9694 18.3299 35.0494 19.0999 35.6794C19.6899 36.1694 20.5499 36.0994 21.0799 35.5394L24.9899 31.3794C25.3999 30.9694 26.5099 30.0494 27.0799 31.2694C27.0799 31.2894 27.0999 31.2894 27.1099 31.2994C27.2699 31.7794 27.5199 32.2394 27.9099 32.6194C29.2099 33.9194 31.3099 33.9194 32.6099 32.6194C33.9099 31.3194 33.9099 29.2194 32.6099 27.9194C32.2299 27.5394 31.7699 27.2794 31.2899 27.1194C31.2699 27.1194 31.2799 27.0994 31.2599 27.0894C30.0399 26.5294 30.9599 25.4094 31.3699 24.9994L35.5299 21.0894C36.0899 20.5594 36.1599 19.6994 35.6699 19.1094C35.0299 18.3394 33.9499 17.0994 32.2599 15.3094C31.7899 14.8494 30.8499 14.2894 29.8799 14.8494Z" fill="#CAE5FF"/>
<path fill-rule="evenodd" clip-rule="evenodd" d="M31.2899 27.1203C31.2899 27.1203 31.2799 27.1003 31.2599 27.0903C31.0599 27.0003 30.9399 26.8903 30.8399 26.7703C24.3799 23.0903 17.0799 20.2103 9.20987 18.3203L6.45987 20.9003C5.89987 21.4303 5.82987 22.2903 6.31987 22.8803C6.95987 23.6503 8.03987 24.8903 9.72987 26.6803C10.1999 27.1403 11.1399 27.7003 12.1099 27.1403C13.2799 26.4703 12.6699 24.5303 13.6299 23.6303C14.5399 22.7203 16.3299 23.0403 17.6299 24.3403C18.9299 25.6403 19.2499 27.4303 18.3399 28.3403C17.4499 29.3003 15.5099 28.6903 14.8299 29.8603C14.2699 30.8403 14.8299 31.7803 15.2999 32.2403C17.0899 33.9403 18.3299 35.0203 19.0999 35.6503C19.6899 36.1403 20.5499 36.0703 21.0799 35.5103L24.9899 31.3503C25.3999 30.9403 26.5099 30.0203 27.0799 31.2403C27.0799 31.2603 27.0999 31.2603 27.1099 31.2703C27.2699 31.7503 27.5199 32.2103 27.9099 32.5903C29.2099 33.8903 31.3099 33.8903 32.6099 32.5903C33.9099 31.2903 33.9099 29.1903 32.6099 27.8903C32.4699 27.7503 32.3099 27.6503 32.1599 27.5403C32.0399 27.4703 31.9199 27.3903 31.7999 27.3203C31.6299 27.2403 31.4699 27.1503 31.2999 27.0903L31.2899 27.1203Z" fill="#8EBFE2"/>
</svg>
