<svg width="42" height="42" viewBox="0 0 42 42" fill="none" xmlns="http://www.w3.org/2000/svg">
<path fill-rule="evenodd" clip-rule="evenodd" d="M39.9 30.65C39.55 29.34 38.36 28.43 37 28.43C36.74 28.43 36.48 28.46 36.23 28.53L35.49 25.75C37.86 23.26 39.12 18.04 36.76 9.24C36.32 7.59 35.77 5.97 35.12 4.45C34.49 2.97 33.05 2.01 31.44 2.01C31.09 2.01 30.73 2.06 30.4 2.15L22.3 4.32C21.83 4.45 21.39 4.66 21.01 4.93C20.63 4.66 20.2 4.45 19.72 4.32L11.62 2.14C11.28 2.05 10.93 2 10.58 2C8.97004 2 7.52004 2.96 6.90004 4.44C6.26004 5.96 5.70004 7.57 5.26004 9.23C2.90004 18.03 4.16004 23.25 6.53004 25.74L5.79004 28.52C5.54004 28.45 5.28004 28.42 5.02004 28.42C3.66004 28.42 2.47004 29.34 2.12004 30.64C1.69004 32.24 2.64004 33.89 4.24004 34.32L10.04 35.87C10.29 35.94 10.55 35.97 10.81 35.97C11.77 35.97 12.64 35.51 13.19 34.78C14.43 36.35 16.3 37.98 19.1 39.51C19.69 39.83 20.35 40 21.02 40C21.69 40 22.35 39.83 22.94 39.51C25.74 37.99 27.61 36.36 28.85 34.78C29.41 35.51 30.27 35.97 31.23 35.97C31.49 35.97 31.75 35.94 32 35.87L37.8 34.32C39.4 33.89 40.35 32.24 39.92 30.65H39.9ZM21 21.61C20.3 21.29 19.55 21.1 18.79 21.03C19.66 19.43 20.4 17.66 21 15.86C21.6 17.66 22.34 19.43 23.21 21.03C22.45 21.1 21.7 21.29 21 21.61Z" fill="white"/>
<path fill-rule="evenodd" clip-rule="evenodd" d="M21.0003 38C20.6703 38 20.3403 37.92 20.0403 37.76C12.1403 33.45 12.6803 28.56 13.0403 27.16C13.6603 24.71 15.7703 23 18.1603 23C19.1803 23 20.1503 23.32 21.0003 23.91C21.8403 23.32 22.8103 23 23.8403 23C26.2303 23 28.3403 24.71 28.9603 27.16C29.3203 28.56 29.8603 33.45 21.9603 37.76C21.6603 37.92 21.3303 38 21.0003 38Z" fill="#221F1F"/>
<path fill-rule="evenodd" clip-rule="evenodd" d="M31.34 25.56C27.37 25.56 23.92 19.31 22.26 13.11C21.84 11.54 21.53 9.95999 21.34 8.40999C21.22 7.41999 21.84 6.48999 22.81 6.22999L30.91 4.05999C31.08 4.00999 31.26 3.98999 31.43 3.98999C32.22 3.98999 32.95 4.45999 33.27 5.20999C33.88 6.64999 34.4 8.16999 34.82 9.73999C36.63 16.49 36.61 24.27 32.3 25.43C31.99 25.51 31.67 25.55 31.34 25.55V25.56Z" fill="#221F1F"/>
<path fill-rule="evenodd" clip-rule="evenodd" d="M10.6598 25.56C10.3398 25.56 10.0198 25.52 9.7098 25.44C5.3998 24.28 5.3798 16.5 7.1798 9.75C7.5998 8.18 8.1198 6.66 8.7298 5.22C9.0498 4.47 9.7898 4 10.5698 4C10.7398 4 10.9198 4.02 11.0898 4.07L19.1898 6.24C20.1498 6.5 20.7798 7.43 20.6598 8.42C20.4698 9.97 20.1598 11.55 19.7398 13.12C18.0798 19.32 14.6298 25.57 10.6598 25.57V25.56Z" fill="#221F1F"/>
<path fill-rule="evenodd" clip-rule="evenodd" d="M20.9996 36C9.00954 29.46 17.6796 21.33 20.9996 26.8C24.3196 21.32 32.9896 29.46 20.9996 36Z" fill="#D88C7D"/>
<path d="M32.2238 21.3169L30.292 21.8346L33.139 32.4597L35.0709 31.9421L32.2238 21.3169Z" fill="#221F1F"/>
<path d="M36.7362 30.4577L30.9406 32.0106C30.4072 32.1535 30.0906 32.7019 30.2335 33.2353C30.3765 33.7688 30.9248 34.0854 31.4583 33.9425L37.2538 32.3895C37.7873 32.2466 38.1039 31.6983 37.9609 31.1648C37.818 30.6313 37.2697 30.3147 36.7362 30.4577Z" fill="#221F1F"/>
<path d="M6.93555 31.9426L8.8674 32.4602L11.7144 21.835L9.78256 21.3174L6.93555 31.9426Z" fill="#221F1F"/>
<path d="M4.74338 32.3868L10.5389 33.9397C11.0724 34.0827 11.6208 33.7661 11.7637 33.2326C11.9066 32.6992 11.5901 32.1508 11.0566 32.0079L5.26102 30.455C4.72755 30.312 4.17922 30.6286 4.03628 31.1621C3.89333 31.6955 4.20992 32.2439 4.74338 32.3868Z" fill="#221F1F"/>
<path fill-rule="evenodd" clip-rule="evenodd" d="M23.3203 8.17C23.4903 9.57 23.7803 11.06 24.1903 12.6C25.9803 19.27 29.3703 24.15 31.7703 23.51C34.1703 22.87 34.6703 16.94 32.8803 10.27C32.4703 8.74 31.9703 7.3 31.4203 6L23.3203 8.17Z" fill="#F7DF69"/>
<path fill-rule="evenodd" clip-rule="evenodd" d="M18.6798 8.17C18.5098 9.57 18.2198 11.06 17.8098 12.6C16.0198 19.27 12.6298 24.15 10.2298 23.51C7.82981 22.87 7.3298 16.94 9.1198 10.27C9.5298 8.74 10.0298 7.3 10.5798 6L18.6798 8.17Z" fill="#F7DF69"/>
<path fill-rule="evenodd" clip-rule="evenodd" d="M9.11996 10.27C8.95996 10.86 8.82996 11.43 8.70996 12H17.95C18.28 10.68 18.53 9.39 18.68 8.17L10.58 6C10.03 7.3 9.52996 8.73 9.11996 10.27Z" fill="white"/>
<path fill-rule="evenodd" clip-rule="evenodd" d="M21.0004 26.7999C19.5904 24.4699 17.2004 24.6099 15.8604 26.0399C17.4404 29.6499 20.5804 32.4399 24.4604 33.6099C30.9904 27.7099 23.9304 21.9799 21.0104 26.7999H21.0004Z" fill="#F0AA97"/>
<path fill-rule="evenodd" clip-rule="evenodd" d="M25.5803 7.57007L23.3203 8.17007C23.4903 9.57007 23.7803 11.0601 24.1903 12.6001C25.9803 19.2701 29.3703 24.1501 31.7703 23.5101C32.9003 23.2101 33.6003 21.7301 33.8503 19.5701C28.9403 16.9801 26.6403 11.5601 25.5803 7.58007V7.57007Z" fill="#F4AB69"/>
<path d="M8.70028 12C7.43028 17.93 8.03028 22.92 10.2203 23.51C11.3803 23.82 12.7703 22.83 14.1003 20.98C8.46028 18.12 8.69028 12 8.69028 12H8.70028Z" fill="#F4AB69"/>
<path fill-rule="evenodd" clip-rule="evenodd" d="M32.8803 10.27C32.4703 8.74 31.9703 7.3 31.4203 6L23.3203 8.17C23.4703 9.39 23.7203 10.68 24.0503 12H33.2903C33.1703 11.43 33.0403 10.85 32.8803 10.27Z" fill="white"/>
<path fill-rule="evenodd" clip-rule="evenodd" d="M24.0496 12.0001H27.1596C26.4496 10.4701 25.9296 8.93007 25.5696 7.57007L23.3096 8.17007C23.3896 8.78007 23.4896 9.41007 23.6096 10.0501C23.7296 10.6901 23.8796 11.3401 24.0396 11.9901L24.0496 12.0001Z" fill="#CAE5FF"/>
<path d="M34 11H23V13H34V11Z" fill="#221F1F"/>
<path d="M19 11H8V13H19V11Z" fill="#221F1F"/>
</svg>
