<svg width="42" height="42" viewBox="0 0 42 42" fill="none" xmlns="http://www.w3.org/2000/svg">
<path d="M17.9601 40.0002C17.0801 40.0002 16.2101 39.8802 15.4301 39.6402C12.0601 38.7602 9.27005 35.9202 8.49005 32.5402C7.78005 30.0102 8.37005 27.5902 9.01005 25.9902C9.21005 25.3102 9.15005 24.4002 7.68005 22.5202C6.92005 21.5502 6.65005 20.3102 6.94005 19.1202C7.22005 17.9302 8.03005 16.9402 9.14005 16.4202L17.0401 12.7402C17.5601 12.5002 18.1501 12.3602 18.7301 12.3602C19.3101 12.3602 19.8601 12.4802 20.3801 12.7202C20.8001 12.9102 21.1801 13.1702 21.5001 13.4802C21.7501 12.8402 23.8101 7.61023 23.8101 7.61023C25.1701 3.47023 28.3301 1.99023 30.8501 1.99023C32.6401 1.99023 34.3401 2.71023 35.6201 4.01023C37.0901 5.50023 37.8901 7.64023 37.8701 10.0302C37.8501 12.2002 36.1301 13.9302 33.9701 13.9902C33.9701 13.9902 32.7201 14.0202 32.7001 14.0202C32.5501 14.0202 32.4101 14.0202 32.2601 14.0002C30.8101 19.2302 29.3101 24.9302 27.6801 31.3202L27.2701 32.9302C26.2201 37.0202 22.3101 40.0002 17.9701 40.0002H17.9601Z" fill="white"/>
<path d="M9.31002 24.3791C8.70002 24.3791 8.11002 24.2691 7.54002 24.0691C6.25002 23.5991 5.21002 22.6491 4.63002 21.3991C3.43002 18.8191 4.55002 15.7391 7.13002 14.5291L17.15 9.85914C17.84 9.53914 18.58 9.36914 19.34 9.36914C21.34 9.36914 23.18 10.5391 24.03 12.3491C25.23 14.9291 24.11 18.0191 21.53 19.2191L11.51 23.8891C10.82 24.2091 10.09 24.3791 9.32002 24.3791H9.31002Z" fill="white"/>
<path d="M28.5198 28.7993C28.2298 28.7993 27.9498 28.7593 27.6698 28.6793L23.8998 27.5493C22.3098 27.0693 21.4098 25.3993 21.8898 23.8093C22.0898 23.1493 22.4898 22.5993 23.0198 22.2293C22.7698 21.6193 22.7198 20.9193 22.9198 20.2393C23.1198 19.5793 23.5199 19.0293 24.0499 18.6593C23.7999 18.0493 23.7499 17.3493 23.9499 16.6693C24.3299 15.4093 25.5098 14.5293 26.8198 14.5293C27.1098 14.5293 27.3998 14.5693 27.6798 14.6493L31.4499 15.7793C33.0299 16.2593 33.9398 17.9293 33.4599 19.5193C33.2699 20.1693 32.8598 20.7193 32.3298 21.0993C32.5798 21.7193 32.6298 22.4193 32.4298 23.0993C32.2298 23.7593 31.8299 24.3093 31.2999 24.6793C31.5499 25.2893 31.5998 25.9893 31.3998 26.6693C31.0198 27.9493 29.8599 28.8093 28.5299 28.8093L28.5198 28.7993Z" fill="white"/>
<path d="M17.96 38C21.4 38 24.5 35.66 25.33 32.43L25.74 30.83C27.62 23.45 29.34 16.98 31 11.08C31.35 11.65 31.99 12.03 32.7 12.03C32.72 12.03 33.92 12 33.92 12C35 11.97 35.86 11.1 35.87 10.02C35.89 8.17 35.3 6.53 34.2 5.42C33.29 4.5 32.1 4 30.85 4C29.02 4 26.71 5.13 25.69 8.3L24.23 12.02C23.3 14.37 22.37 16.76 21.42 19.15C21.21 17.87 20.92 16.73 20.66 15.81C20.5 15.25 20.1 14.79 19.56 14.55C19.3 14.43 19.02 14.37 18.73 14.37C18.44 14.37 18.15 14.43 17.88 14.56C17.76 14.62 9.97997 18.24 9.97997 18.24C9.42997 18.5 9.01997 18.99 8.87997 19.59C8.73997 20.19 8.87997 20.81 9.24997 21.29C10.92 23.41 11.41 25.03 10.9 26.66C10.36 27.99 9.84997 29.99 10.44 32.09C11.05 34.74 13.29 37.03 15.98 37.71C16.56 37.89 17.26 37.99 17.97 37.99L17.96 38Z" fill="#221F1F"/>
<path d="M33.8601 9.99915C33.9101 5.28915 28.9701 4.48915 27.5701 8.96915C24.7501 16.1092 21.9301 23.3892 18.9901 30.4792C18.7101 31.1992 17.4701 30.8592 17.9901 30.1792C17.9901 30.2392 18.2301 29.7592 18.2301 29.7692C20.4801 25.7392 19.9101 20.4492 18.7301 16.3692L10.8301 20.0492C12.6301 22.3392 13.6601 24.6892 12.7801 27.3492C12.2301 28.6592 11.9801 30.1692 12.3701 31.5592C12.8401 33.5792 14.5201 35.2892 16.4701 35.7792C19.3801 36.6692 22.6701 34.7892 23.4001 31.9392L23.8101 30.3392C25.5601 23.4392 27.4101 16.4292 29.3501 9.57915L29.5801 8.79915L29.6301 8.62915C29.9401 7.79915 30.9301 7.22915 31.6401 7.66915C32.2501 7.97915 32.6201 9.09915 32.7001 10.0292L33.8701 9.99915H33.8601Z" fill="#FCD26E"/>
<path d="M30.5902 19.6506C30.4902 19.6506 30.4002 19.6406 30.3002 19.6106L26.5402 18.4806C26.0102 18.3206 25.7102 17.7606 25.8702 17.2306C26.0302 16.7006 26.5902 16.4006 27.1202 16.5606L30.8802 17.6906C31.4102 17.8506 31.7102 18.4106 31.5502 18.9406C31.4202 19.3706 31.0202 19.6506 30.5902 19.6506Z" fill="#221F1F"/>
<path d="M29.5501 23.2209C29.4501 23.2209 29.3601 23.2109 29.2601 23.1809L25.5001 22.0509C24.9701 21.8909 24.6701 21.3309 24.8301 20.8009C24.9901 20.2709 25.5401 19.9709 26.0801 20.1309L29.8401 21.2609C30.3701 21.4209 30.6701 21.9809 30.5101 22.5109C30.3801 22.9409 29.9801 23.2209 29.5501 23.2209Z" fill="#221F1F"/>
<path d="M28.5199 26.7991C28.4199 26.7991 28.3299 26.7891 28.2299 26.7591L24.4699 25.6291C23.9399 25.4691 23.6399 24.9091 23.7999 24.3791C23.9599 23.8491 24.5199 23.5491 25.0499 23.7091L28.8099 24.8391C29.3399 24.9991 29.6399 25.5591 29.4799 26.0891C29.3499 26.5191 28.9499 26.7991 28.5199 26.7991Z" fill="#221F1F"/>
<path d="M30.8799 17.6906L27.1199 16.5606C26.5899 16.4006 26.0299 16.7006 25.8699 17.2306C25.7099 17.7606 26.0099 18.3206 26.5399 18.4806L30.2999 19.6106C30.3999 19.6406 30.4899 19.6506 30.5899 19.6506C31.0199 19.6506 31.4199 19.3706 31.5499 18.9406C31.7099 18.4106 31.4099 17.8506 30.8799 17.6906ZM29.8399 21.2706L26.0799 20.1406C25.5499 19.9806 24.9899 20.2806 24.8299 20.8106C24.6699 21.3406 24.9699 21.9006 25.4999 22.0606L29.2599 23.1906C29.3599 23.2206 29.4499 23.2306 29.5499 23.2306C29.9799 23.2306 30.3799 22.9506 30.5099 22.5206C30.6699 21.9906 30.3699 21.4306 29.8399 21.2706ZM28.8099 24.8406L25.0499 23.7106C24.5199 23.5606 23.9599 23.8506 23.7999 24.3806C23.6399 24.9106 23.9399 25.4706 24.4699 25.6306L28.2299 26.7606C28.3299 26.7906 28.4199 26.8006 28.5199 26.8006C28.9499 26.8006 29.3499 26.5206 29.4799 26.0906C29.6399 25.5606 29.3399 25.0006 28.8099 24.8406Z" fill="#221F1F"/>
<path d="M16.4601 35.7799C19.0201 36.5599 21.8701 35.1999 23.0201 32.9199C15.6801 35.2199 15.2601 29.8599 16.2401 26.0199C17.2301 22.1399 14.5501 19.1699 14.5501 19.1699L11.6201 21.1599C12.9001 23.0999 13.5201 25.1199 12.7801 27.3499C12.2301 28.6599 11.9801 30.1699 12.3701 31.5599C12.8401 33.5799 14.5201 35.2899 16.4701 35.7799H16.4601Z" fill="#E0B344"/>
<path d="M9.3099 22.3791C9.7799 22.3791 10.2299 22.2791 10.6499 22.0791L20.6699 17.4091C22.2499 16.6691 22.9399 14.7791 22.1999 13.1991C21.6799 12.0891 20.5499 11.3691 19.3299 11.3691C18.8599 11.3691 18.4099 11.4691 17.9899 11.6691L7.9699 16.3391C6.3899 17.0791 5.6999 18.9691 6.4399 20.5491C6.7999 21.3091 7.4299 21.8991 8.2299 22.1891C8.5799 22.3191 8.9399 22.3791 9.3199 22.3791H9.3099Z" fill="#221F1F"/>
<path d="M8.91013 20.31C9.19013 20.41 9.51013 20.41 9.80013 20.27L19.8201 15.6C20.4101 15.33 20.6601 14.63 20.3901 14.05C20.1201 13.47 19.4201 13.21 18.8401 13.48L8.82013 18.15C8.23013 18.42 7.98013 19.12 8.25013 19.7C8.39013 19.99 8.63013 20.2 8.91013 20.3V20.31Z" fill="#FCD26E"/>
<path d="M13.6699 15.8909L8.80987 18.1509C8.21987 18.4209 7.96988 19.1209 8.23988 19.7009C8.37988 19.9909 8.61988 20.2009 8.89988 20.3009C9.17988 20.4009 9.49987 20.4009 9.78987 20.2609L14.8099 17.9209L13.6599 15.8809L13.6699 15.8909Z" fill="#E0B344"/>
<path d="M22.2002 13.1992L23.4302 16.0392L21.5902 20.7392L19.6802 17.5192L21.3802 15.5292L22.2002 13.1992Z" fill="#221F1F"/>
</svg>
