<svg width="42" height="42" viewBox="0 0 42 42" fill="none" xmlns="http://www.w3.org/2000/svg">
<path d="M40 33.99V8.01C40 4.69077 37.3092 2 33.99 2H8.01C4.69077 2 2 4.69077 2 8.01V33.99C2 37.3092 4.69077 40 8.01 40H33.99C37.3092 40 40 37.3092 40 33.99Z" fill="white"/>
<path d="M38 33.99V8.01C38 5.79534 36.2047 4 33.99 4H8.01C5.79534 4 4 5.79534 4 8.01V33.99C4 36.2047 5.79534 38 8.01 38H33.99C36.2047 38 38 36.2047 38 33.99Z" fill="#221F1F"/>
<path d="M33.99 6H8.01C6.89991 6 6 6.89991 6 8.01V33.99C6 35.1001 6.89991 36 8.01 36H33.99C35.1001 36 36 35.1001 36 33.99V8.01C36 6.89991 35.1001 6 33.99 6Z" fill="white"/>
<path d="M17.0705 20H24.9305C25.2005 20 25.4505 19.88 25.6305 19.68L30.3805 13.22C30.6305 12.93 30.6005 12.48 30.3005 12.24C27.7405 10.21 24.5205 8.98999 21.0005 8.98999C17.4805 8.98999 14.2605 10.21 11.7005 12.24C11.4005 12.48 11.3705 12.93 11.6205 13.22L16.3705 19.68C16.5505 19.88 16.8005 20 17.0705 20Z" fill="#C4C4C4"/>
<path d="M24.9296 21H17.0695C16.5095 21 15.9795 20.76 15.6195 20.34L10.8195 13.82C10.5695 13.54 10.4195 13.08 10.4595 12.62C10.4995 12.17 10.7296 11.75 11.0795 11.47C13.9395 9.20001 17.3695 8.01001 20.9995 8.01001C24.6295 8.01001 28.0596 9.21001 30.9195 11.47C31.2695 11.75 31.4996 12.17 31.5396 12.62C31.5796 13.08 31.4295 13.54 31.1295 13.89L26.4296 20.28C26.0096 20.76 25.4796 21.01 24.9296 21.01V21ZM17.1096 19H24.8895L29.4296 12.83C26.9796 10.98 24.0796 10 21.0096 10C17.9396 10 15.0295 10.98 12.5795 12.83L17.1196 19H17.1096ZM12.3795 12.57L12.4095 12.61C12.4095 12.61 12.3895 12.58 12.3795 12.57Z" fill="#221F1F"/>
<path d="M21 19.9999C20.91 19.9999 20.82 19.9899 20.72 19.9599C20.19 19.8099 19.88 19.2499 20.03 18.7199L22.03 11.7199C22.18 11.1899 22.74 10.8899 23.27 11.0299C23.8 11.1799 24.11 11.7399 23.96 12.2699L21.96 19.2699C21.83 19.7099 21.43 19.9999 21 19.9999Z" fill="#221F1F"/>
<path d="M23.22 21C23.7 20.47 24 19.77 24 19C24 17.34 22.66 16 21 16C19.34 16 18 17.34 18 19C18 19.77 18.3 20.47 18.78 21H23.22Z" fill="#221F1F"/>
<path d="M23 19H19V21H23V19Z" fill="#221F1F"/>
<path d="M6 10.8799V33.9999C6 35.1099 6.9 36.0099 8.01 36.0099H23.52L6 10.8799Z" fill="#C4C4C4"/>
<path d="M21 20C21.5523 20 22 19.5523 22 19C22 18.4477 21.5523 18 21 18C20.4477 18 20 18.4477 20 19C20 19.5523 20.4477 20 21 20Z" fill="#D88C7D"/>
</svg>
