<svg width="42" height="42" viewBox="0 0 42 42" fill="none" xmlns="http://www.w3.org/2000/svg">
<path d="M31.5 39.0001C27.92 39.0001 25 36.0801 25 32.5001C25 32.3201 25 32.1301 25.02 31.9501H23.97C23.99 32.1301 23.99 32.3101 23.99 32.5001C23.99 36.0801 21.07 39.0001 17.49 39.0001C13.91 39.0001 10.99 36.0801 10.99 32.5001C10.99 31.7901 11.1 31.1101 11.33 30.4501C10.42 29.5701 9.85 28.3601 9.77 27.0301C9.65 25.0901 10.68 22.9101 12.82 21.9501L7.39 9.58008H5C3.35 9.58008 2 8.23008 2 6.58008C2 4.93008 3.35 3.58008 5 3.58008H9.35C10.54 3.58008 11.62 4.28008 12.1 5.37008L12.81 6.99008H35.41C37.94 6.99008 40 9.05008 40 11.5801V20.4901C40 22.7401 38.32 24.6501 36.08 24.9301L27.58 25.9501H36C37.65 25.9501 39 27.3001 39 28.9501C39 29.8901 38.56 30.7301 37.89 31.2801C37.97 31.6801 38 32.0801 38 32.4901C38 36.0701 35.08 38.9901 31.5 38.9901V39.0001Z" fill="white"/>
<path d="M38.0002 11.59C38.0002 10.16 36.8402 9 35.4102 9H12.0002C11.5002 9 11.0302 9.2 10.6602 9.53L17.7802 25.11L35.8302 22.95C37.0702 22.8 38.0002 21.74 38.0002 20.5V11.59ZM34.0002 20.22L18.7702 22.01C18.6902 22.01 18.6202 22.03 18.5502 22.05C18.4302 21.89 18.2902 21.7 18.1402 21.48C16.7902 19.51 15.4702 15.73 14.6402 13H34.0102V20.22H34.0002Z" fill="#221F1F"/>
<path d="M17.5 37C19.9853 37 22 34.9853 22 32.5C22 30.0147 19.9853 28 17.5 28C15.0147 28 13 30.0147 13 32.5C13 34.9853 15.0147 37 17.5 37Z" fill="#221F1F"/>
<path d="M31.5 37C33.9853 37 36 34.9853 36 32.5C36 30.0147 33.9853 28 31.5 28C29.0147 28 27 30.0147 27 32.5C27 34.9853 29.0147 37 31.5 37Z" fill="#221F1F"/>
<path d="M12 11H35.41C35.73 11 36 11.26 36 11.59V21.51C36 21.79 35.79 22.03 35.51 22.06L19 24C19 24 18.96 26.22 16.48 22.61C14 19 12 11 12 11Z" fill="#D88C7D"/>
<path d="M17 24.9998C16.62 24.9998 16.25 24.7798 16.08 24.3998L8.7 7.58984H5C4.45 7.58984 4 7.13984 4 6.58984C4 6.03984 4.45 5.58984 5 5.58984H9.35C9.75 5.58984 10.11 5.81984 10.27 6.18984L17.92 23.5998C18.14 24.1098 17.92 24.6998 17.41 24.9198C17.28 24.9798 17.14 24.9998 17.01 24.9998H17Z" fill="#221F1F"/>
<path d="M35.9992 29.9501H15.1092C13.0392 29.9501 11.8692 28.4201 11.7792 26.9101C11.6892 25.4001 12.6592 23.7501 14.7092 23.5001L34.8892 21.0101C35.4392 20.9401 35.9392 21.3301 36.0092 21.8801C36.0792 22.4301 35.6892 22.9301 35.1392 22.9901L14.9592 25.4801C14.0392 25.5901 13.7492 26.2301 13.7892 26.7901C13.8192 27.3501 14.1892 27.9601 15.1292 27.9601H36.0192C36.5692 27.9601 37.0192 28.4101 37.0192 28.9601C37.0192 29.5101 36.5692 29.9601 36.0192 29.9601L35.9992 29.9501Z" fill="#221F1F"/>
<path d="M17.5 35C18.8807 35 20 33.8807 20 32.5C20 31.1193 18.8807 30 17.5 30C16.1193 30 15 31.1193 15 32.5C15 33.8807 16.1193 35 17.5 35Z" fill="#D88C7D"/>
<path d="M31.5 35C32.8807 35 34 33.8807 34 32.5C34 31.1193 32.8807 30 31.5 30C30.1193 30 29 31.1193 29 32.5C29 33.8807 30.1193 35 31.5 35Z" fill="#D88C7D"/>
<path d="M34.6992 21.03L35.9992 20.87V19L36.8792 19.71L36.9592 21.52L36.3792 22.28L34.7892 22.45L34.6992 21.03Z" fill="#221F1F"/>
<path d="M35.4101 11.0002H21.8301L24.7801 19.6502L36.0001 18.4102V11.5802C36.0001 11.2602 35.7401 10.9902 35.4101 10.9902V11.0002Z" fill="#F0AA97"/>
<path d="M36.0808 24.9398C36.0808 24.9398 35.1508 25.0698 35.1408 25.4798C35.1308 25.8898 36.0008 25.9498 36.0008 25.9498L36.0608 26.6198L25.1508 26.7698C25.1508 26.7698 24.6108 25.2898 25.3908 25.3098C26.1708 25.3298 35.9108 23.5898 35.9108 23.5898L36.0908 24.9298L36.0808 24.9398Z" fill="white"/>
</svg>
