<svg width="42" height="42" viewBox="0 0 42 42" fill="none" xmlns="http://www.w3.org/2000/svg">
<path d="M18 25L28 17L31 22L22 30L18 25Z" fill="white"/>
<path d="M16.84 6.5899C14.55 4.3699 11.54 3.1499 8.35 3.1499H2V13.1499H8.35C8.93 13.1499 9.47 13.3699 9.89 13.7699L14.36 18.0899C15.3 18.9999 16.53 19.4999 17.84 19.4999C19.15 19.4999 20.5 18.9399 21.43 17.9799C22.36 17.0199 22.86 15.7599 22.84 14.4199C22.82 13.0799 22.28 11.8399 21.32 10.9099L16.85 6.5899H16.84Z" fill="white"/>
<path d="M15.96 26.7701C15.77 26.7701 15.58 26.7601 15.39 26.7301C14.29 26.5701 13.3 25.9601 12.67 25.0401C9.57 20.5601 10.46 14.3501 14.7 10.9201C16.55 9.4201 18.89 8.6001 21.29 8.6001C24.18 8.6001 26.96 9.7901 28.93 11.8701C29.69 12.6801 30.09 13.7801 30.01 14.8801C29.94 15.9901 29.4 17.0201 28.54 17.7201L18.48 25.8701C17.77 26.4401 16.88 26.7601 15.96 26.7601V26.7701Z" fill="white"/>
<path d="M17.0499 30.7401C15.5299 30.7401 14.1099 30.0701 13.1599 28.8901C12.3199 27.8501 11.9299 26.5501 12.0699 25.2201C12.2099 23.8901 12.8599 22.7001 13.8899 21.8601L25.5499 12.4201C26.4399 11.7001 27.5499 11.3101 28.6899 11.3101C30.2099 11.3101 31.6299 11.9901 32.5799 13.1601C33.4199 14.2001 33.7999 15.5001 33.6599 16.8301C33.5199 18.1601 32.8699 19.3501 31.8399 20.1901L20.1799 29.6301C19.2899 30.3501 18.1799 30.7401 17.0399 30.7401H17.0499Z" fill="white"/>
<path d="M26.9102 29.3301C25.7702 29.3301 24.7102 28.6501 24.0902 27.5201C23.7602 26.9301 23.5202 25.8401 23.3602 24.2901C23.2902 23.6201 23.5702 22.9601 24.0902 22.5401C24.4502 22.2501 24.9002 22.0901 25.3502 22.0901C25.5502 22.0901 25.7602 22.1201 25.9602 22.1901C27.4402 22.6601 28.4602 23.1301 28.9702 23.5701C29.7802 24.2601 30.2302 25.2001 30.2202 26.1401C30.2102 27.0501 29.7602 27.9101 28.9702 28.5501C28.1802 29.1901 27.4102 29.3301 26.9102 29.3301Z" fill="white"/>
<path d="M31.1895 34.6199C30.0495 34.6199 28.9895 33.9399 28.3695 32.8099C28.0395 32.2199 27.7995 31.1299 27.6395 29.5799C27.5695 28.9099 27.8495 28.2499 28.3695 27.8299C28.7295 27.5399 29.1795 27.3799 29.6295 27.3799C29.8295 27.3799 30.0395 27.4099 30.2395 27.4699C31.7195 27.9399 32.7395 28.4099 33.2495 28.8499C34.0595 29.5499 34.5095 30.4799 34.4995 31.4199C34.4895 32.3299 34.0395 33.1899 33.2495 33.8299C32.4495 34.4699 31.6895 34.6099 31.1895 34.6099V34.6199Z" fill="white"/>
<path d="M22.1597 33.02C20.8197 33.02 19.6497 32.1 19.1897 30.68C18.9797 30.04 18.9297 28.92 19.0597 27.37C19.1197 26.7 19.5097 26.1 20.0997 25.78C20.3997 25.62 20.7297 25.54 21.0597 25.54C21.3897 25.54 21.7097 25.62 21.9997 25.78C23.3697 26.52 24.2797 27.16 24.7097 27.68C25.3797 28.51 25.6497 29.51 25.4697 30.44C25.2897 31.33 24.6997 32.1 23.7997 32.59C23.2597 32.88 22.7097 33.03 22.1697 33.03L22.1597 33.02Z" fill="white"/>
<path d="M25.4101 39C24.0701 39 22.9001 38.08 22.4401 36.66C22.2301 36.02 22.1901 34.9 22.3101 33.35C22.3701 32.68 22.7601 32.08 23.3501 31.76C23.6501 31.6 23.9801 31.52 24.3101 31.52C24.6401 31.52 24.9601 31.6 25.2501 31.76C26.6201 32.5 27.5301 33.14 27.9601 33.66C28.6301 34.49 28.9001 35.49 28.7201 36.42C28.5401 37.31 27.9501 38.08 27.0501 38.56C26.5101 38.85 25.9601 39 25.4201 39H25.4101Z" fill="white"/>
<path d="M31.5797 25.5101C30.6297 25.5101 29.6897 25.0301 29.0097 24.2001C28.5797 23.6701 28.1397 22.6501 27.7097 21.1501C27.5197 20.5001 27.6697 19.8001 28.1097 19.2901C28.4897 18.8401 29.0497 18.5901 29.6297 18.5901C29.7097 18.5901 29.7997 18.5901 29.8797 18.6101C31.4297 18.8101 32.5097 19.0801 33.0897 19.4201C34.0097 19.9601 34.6197 20.8001 34.7797 21.7201C34.9297 22.6201 34.6497 23.5401 33.9797 24.3201C33.3197 25.0901 32.4697 25.5101 31.5697 25.5101H31.5797Z" fill="white"/>
<path d="M36.7506 29.94C35.8006 29.94 34.8606 29.46 34.1806 28.62C33.7506 28.09 33.3206 27.07 32.8806 25.57C32.6906 24.92 32.8406 24.22 33.2806 23.71C33.6606 23.26 34.2206 23.01 34.8006 23.01C34.8806 23.01 34.9706 23.01 35.0506 23.03C36.5906 23.23 37.6706 23.5 38.2606 23.84C39.1806 24.37 39.7906 25.21 39.9506 26.14C40.1006 27.04 39.8206 27.96 39.1606 28.74C38.5006 29.51 37.6506 29.93 36.7506 29.93V29.94Z" fill="white"/>
<path d="M15.45 8.02991C13.54 6.17991 11.01 5.15991 8.35 5.15991H2V11.1599H8.35C9.45 11.1599 10.49 11.5799 11.28 12.3499L15.75 16.6699C16.31 17.2099 17.05 17.5099 17.84 17.5099C18.63 17.5099 19.44 17.1799 20 16.5999C20.56 16.0199 20.86 15.2699 20.84 14.4599C20.82 13.6499 20.5 12.9099 19.93 12.3499L15.46 8.02991H15.45Z" fill="#221F1F"/>
<path d="M17.2201 24.3201C16.7901 24.6701 16.2301 24.8201 15.6801 24.7501C15.1301 24.6701 14.6401 24.3701 14.3201 23.9101C11.8101 20.2801 12.5301 15.2601 15.9601 12.4801C19.3901 9.70012 24.4501 10.0401 27.4801 13.2501C27.8601 13.6601 28.0601 14.2001 28.0201 14.7601C27.9801 15.3201 27.7201 15.8301 27.2801 16.1801L17.2201 24.3301V24.3201Z" fill="#221F1F"/>
<path d="M18.9402 28.08C17.6502 29.12 15.7602 28.92 14.7202 27.64C13.6802 26.36 13.8802 24.46 15.1602 23.42L26.8202 13.98C28.1102 12.94 30.0002 13.14 31.0402 14.42C32.0802 15.7 31.8802 17.6 30.6002 18.64L18.9402 28.08Z" fill="#221F1F"/>
<path d="M26.0195 14.62C23.7095 12.17 19.8695 11.88 17.2095 14.03C14.5495 16.18 14.0395 20 15.9495 22.77L26.0095 14.62H26.0195Z" fill="#C4C4C4"/>
<path d="M17.6781 26.5281L29.3353 17.0883C29.7645 16.7407 29.8307 16.111 29.4831 15.6818C29.1356 15.2526 28.5059 15.1864 28.0767 15.534L16.4195 24.9738C15.9903 25.3214 15.9241 25.9511 16.2717 26.3803C16.6192 26.8095 17.2489 26.8757 17.6781 26.5281Z" fill="#C4C4C4"/>
<path d="M27.6804 25.0801C27.2104 24.6801 25.3604 24.0901 25.3604 24.0901C25.3604 24.0901 25.5504 26.0201 25.8504 26.5601C26.0904 26.9901 26.7504 27.7801 27.7104 26.9901C28.6704 26.2001 28.0504 25.4001 27.6704 25.0801H27.6804Z" fill="#8EBFE2"/>
<path d="M31.9596 30.3699C31.4896 29.9699 29.6396 29.3799 29.6396 29.3799C29.6396 29.3799 29.8296 31.3099 30.1296 31.8499C30.3696 32.2799 31.0296 33.0699 31.9896 32.2799C32.9496 31.4899 32.3296 30.6899 31.9496 30.3699H31.9596Z" fill="#8EBFE2"/>
<path d="M23.1503 28.94C22.7603 28.46 21.0503 27.54 21.0503 27.54C21.0503 27.54 20.8903 29.47 21.0803 30.06C21.2303 30.53 21.7403 31.42 22.8303 30.83C23.9303 30.23 23.4503 29.32 23.1403 28.94H23.1503Z" fill="#8EBFE2"/>
<path d="M26.4003 34.91C26.0103 34.43 24.3003 33.51 24.3003 33.51C24.3003 33.51 24.1403 35.44 24.3303 36.03C24.4803 36.5 24.9903 37.39 26.0803 36.8C27.1803 36.2 26.7003 35.29 26.3903 34.91H26.4003Z" fill="#8EBFE2"/>
<path d="M30.5599 22.9401C30.1699 22.4601 29.6299 20.6001 29.6299 20.6001C29.6299 20.6001 31.5599 20.8501 32.0899 21.1601C32.5099 21.4101 33.2799 22.0901 32.4699 23.0301C31.6599 23.9801 30.8699 23.3201 30.5599 22.9401Z" fill="#8EBFE2"/>
<path d="M35.7298 27.36C35.3398 26.88 34.7998 25.02 34.7998 25.02C34.7998 25.02 36.7298 25.27 37.2598 25.58C37.6798 25.83 38.4498 26.51 37.6398 27.45C36.8298 28.39 36.0398 27.74 35.7298 27.36Z" fill="#8EBFE2"/>
<path d="M14.06 9.4599C12.52 7.9699 10.49 7.1499 8.35 7.1499H2V9.1499H8.35C9.97 9.1499 11.5 9.7699 12.67 10.8999L17.14 15.2199C17.33 15.4099 17.58 15.4999 17.84 15.4999C18.1 15.4999 18.36 15.3999 18.56 15.1999C18.94 14.7999 18.93 14.1699 18.54 13.7899L14.07 9.4699L14.06 9.4599Z" fill="#C4C4C4"/>
<path d="M16.5202 14.6899C14.4902 16.8999 14.2302 20.2599 15.9602 22.7699L22.5402 17.4399C20.2502 16.9499 18.1902 15.9999 16.5202 14.6899Z" fill="#9E9E9E"/>
</svg>
