<svg width="42" height="42" viewBox="0 0 42 42" fill="none" xmlns="http://www.w3.org/2000/svg">
<path d="M12.3002 38.6902C9.5702 38.6902 7.0502 37.5502 4.8102 35.3102C2.8102 33.3102 1.8702 31.2002 2.0102 29.0502C2.2202 25.9002 4.6302 24.0702 6.0602 22.9802C6.3402 22.7702 6.7202 22.4802 6.8602 22.3402L22.3402 6.86023C22.4802 6.72023 22.7602 6.36023 22.9802 6.06023C24.1302 4.54023 26.0702 1.99023 29.4802 1.99023C31.5102 1.99023 33.4202 2.91023 35.3102 4.80023C38.7102 8.20023 38.9402 11.6402 38.5402 13.9302C38.0302 16.8302 36.3202 18.9002 35.3502 19.8702L19.8702 35.3502C18.8702 36.3502 16.1202 38.6802 12.2902 38.6802L12.3002 38.6902Z" fill="white"/>
<path d="M20.8898 39.9994C19.3498 39.9994 17.9298 39.4194 16.8898 38.3794L13.0398 34.5294C12.2698 33.7594 11.8498 32.6994 11.8698 31.6194C11.8898 30.5394 12.3598 29.4894 13.1598 28.7594L15.9298 26.2094C16.1998 25.9594 16.4998 25.7594 16.8198 25.5894L16.8698 25.5294C17.5898 24.7094 18.6398 24.2094 19.7398 24.1794C19.7598 24.1794 19.8498 24.1794 19.8698 24.1794C20.9398 24.1794 21.9398 24.5994 22.6998 25.3494L26.3098 28.9594C27.5798 30.2294 28.1498 32.0394 27.8598 33.9194C27.6398 35.3694 26.9098 36.7794 25.8098 37.8794C24.4598 39.2294 22.6698 39.9994 20.8998 39.9994H20.8898ZM32.9598 27.9294C31.4198 27.9294 29.9998 27.3494 28.9498 26.3094L25.1098 22.4694C24.3398 21.7094 23.9198 20.6394 23.9398 19.5594C23.9598 18.4794 24.4298 17.4294 25.2298 16.6994L27.9998 14.1494C28.2698 13.8994 28.5698 13.6894 28.8898 13.5294L28.9398 13.4694C29.6698 12.6394 30.7198 12.1494 31.8198 12.1094C31.8398 12.1094 31.9298 12.1094 31.9498 12.1094C33.0198 12.1094 34.0198 12.5294 34.7798 13.2794L38.3898 16.8894C39.6598 18.1594 40.2298 19.9694 39.9398 21.8494C39.7198 23.2994 38.9898 24.6994 37.8898 25.7994C36.5398 27.1494 34.7498 27.9294 32.9798 27.9294H32.9598Z" fill="white"/>
<path d="M12.3001 36.69C10.1201 36.69 8.08011 35.75 6.23011 33.9C4.63011 32.3 3.91011 30.76 4.01011 29.19C4.16011 26.94 5.96011 25.57 7.28011 24.58C7.68011 24.28 8.05011 24 8.28011 23.76L23.7601 8.28C23.9901 8.05 24.2801 7.67 24.5801 7.28C25.6301 5.9 27.0701 4 29.4901 4C30.9701 4 32.4101 4.73 33.9101 6.23C36.7001 9.02 36.9101 11.78 36.5901 13.6C36.1701 15.96 34.7601 17.66 33.9601 18.47L18.4801 33.95C17.6501 34.78 15.4001 36.7 12.3101 36.7L12.3001 36.69Z" fill="#221F1F"/>
<path d="M20.8899 37.9996C19.8899 37.9996 18.9699 37.6296 18.2999 36.9596L14.4499 33.1096C14.0699 32.7296 13.8499 32.1996 13.8699 31.6496C13.8799 31.1096 14.1099 30.5896 14.5099 30.2196L17.2799 27.6696C17.4899 27.4696 17.7499 27.3296 18.0199 27.2396L18.3699 26.8496C18.7299 26.4296 19.2599 26.1896 19.8099 26.1696C19.8299 26.1696 19.8499 26.1696 19.8699 26.1696C20.3999 26.1696 20.9099 26.3796 21.2799 26.7596L24.8899 30.3696C25.7099 31.1896 26.0699 32.3696 25.8799 33.6196C25.7199 34.6496 25.1899 35.6596 24.3899 36.4696C23.4099 37.4496 22.1399 38.0096 20.8899 38.0096V37.9996ZM32.9599 25.9296C31.9599 25.9296 31.0399 25.5596 30.3699 24.8896L26.5299 21.0496C26.1399 20.6696 25.9299 20.1396 25.9399 19.5896C25.9499 19.0396 26.1799 18.5296 26.5799 18.1596L29.3499 15.6096C29.5599 15.4096 29.8199 15.2696 30.0899 15.1796L30.4399 14.7796C30.8099 14.3596 31.3299 14.1196 31.8799 14.0996C31.8999 14.0996 31.9199 14.0996 31.9399 14.0996C32.4699 14.0996 32.9799 14.3096 33.3499 14.6896L36.9599 18.2996C37.7799 19.1196 38.1399 20.2996 37.9499 21.5496C37.7899 22.5796 37.2599 23.5896 36.4599 24.3896C35.4799 25.3696 34.2099 25.9296 32.9599 25.9296Z" fill="#221F1F"/>
<path d="M19.8701 28.1797L18.8101 29.3897L18.6401 29.1497L15.8701 31.6997L19.7101 35.5497L21.1401 33.0097L23.4801 31.7797L19.8701 28.1797Z" fill="#221F1F"/>
<path d="M31.9399 16.1094L30.8699 17.3194L30.7099 17.0894L27.9399 19.6394L31.7799 23.4794L33.2099 20.9394L35.5499 19.7094L31.9399 16.1094Z" fill="#221F1F"/>
<path d="M9.7002 25.1692L21.6902 13.1792L25.1802 9.68924C26.8702 7.99924 28.4902 3.62924 32.4902 7.63924C36.4902 11.6492 34.1302 15.4492 32.5302 17.0492L29.0402 20.5392L17.0502 32.5292C15.4602 34.1192 11.6402 36.4892 7.6402 32.4892C3.6402 28.4892 8.0002 26.8692 9.6902 25.1792L9.7002 25.1692Z" fill="#B9B9FF"/>
<path d="M25.2802 24.3007L29.0402 20.5407L32.5302 17.0507C34.1202 15.4607 36.4902 11.6407 32.4902 7.64069C28.4902 3.64069 26.8702 8.00069 25.1802 9.69069L21.6902 13.1807L21.1602 13.7107L25.2802 24.3007Z" fill="#9891F5"/>
<path d="M24.1198 15.9995C24.6887 15.9995 25.1498 15.5383 25.1498 14.9695C25.1498 14.4006 24.6887 13.9395 24.1198 13.9395C23.551 13.9395 23.0898 14.4006 23.0898 14.9695C23.0898 15.5383 23.551 15.9995 24.1198 15.9995Z" fill="#221F1F"/>
<path d="M27.0398 13.0795C27.6086 13.0795 28.0698 12.6184 28.0698 12.0495C28.0698 11.4807 27.6086 11.0195 27.0398 11.0195C26.4709 11.0195 26.0098 11.4807 26.0098 12.0495C26.0098 12.6184 26.4709 13.0795 27.0398 13.0795Z" fill="#221F1F"/>
<path d="M27.0398 18.9291C27.6086 18.9291 28.0698 18.468 28.0698 17.8991C28.0698 17.3303 27.6086 16.8691 27.0398 16.8691C26.4709 16.8691 26.0098 17.3303 26.0098 17.8991C26.0098 18.468 26.4709 18.9291 27.0398 18.9291Z" fill="#221F1F"/>
<path d="M29.9602 15.9995C30.529 15.9995 30.9902 15.5383 30.9902 14.9695C30.9902 14.4006 30.529 13.9395 29.9602 13.9395C29.3913 13.9395 28.9302 14.4006 28.9302 14.9695C28.9302 15.5383 29.3913 15.9995 29.9602 15.9995Z" fill="#221F1F"/>
<path d="M14.9699 25.1498C15.5388 25.1498 15.9999 24.6887 15.9999 24.1198C15.9999 23.551 15.5388 23.0898 14.9699 23.0898C14.4011 23.0898 13.9399 23.551 13.9399 24.1198C13.9399 24.6887 14.4011 25.1498 14.9699 25.1498Z" fill="#221F1F"/>
<path d="M12.05 28.0698C12.6189 28.0698 13.08 27.6086 13.08 27.0398C13.08 26.4709 12.6189 26.0098 12.05 26.0098C11.4812 26.0098 11.02 26.4709 11.02 27.0398C11.02 27.6086 11.4812 28.0698 12.05 28.0698Z" fill="#221F1F"/>
<path d="M17.9001 28.0698C18.469 28.0698 18.9301 27.6086 18.9301 27.0398C18.9301 26.4709 18.469 26.0098 17.9001 26.0098C17.3313 26.0098 16.8701 26.4709 16.8701 27.0398C16.8701 27.6086 17.3313 28.0698 17.9001 28.0698Z" fill="#221F1F"/>
<path d="M14.9699 30.9897C15.5388 30.9897 15.9999 30.5285 15.9999 29.9597C15.9999 29.3908 15.5388 28.9297 14.9699 28.9297C14.4011 28.9297 13.9399 29.3908 13.9399 29.9597C13.9399 30.5285 14.4011 30.9897 14.9699 30.9897Z" fill="#221F1F"/>
<path d="M35.0461 22.9744C36.0849 21.9356 36.3097 20.4761 35.5482 19.7146C34.7867 18.9531 33.3272 19.1779 32.2884 20.2167C31.2496 21.2554 31.0249 22.7149 31.7864 23.4764C32.5479 24.2379 34.0073 24.0132 35.0461 22.9744Z" fill="#F0AA97"/>
<path d="M32.9598 22.9298C32.8198 22.9298 32.6198 22.8998 32.4898 22.7698C32.2998 22.5798 32.3198 22.2698 32.3498 22.0998C32.4098 21.6998 32.6498 21.2698 32.9998 20.9198C33.4098 20.5098 33.9398 20.2598 34.3798 20.2598C34.5198 20.2598 34.7198 20.2898 34.8498 20.4198C35.0398 20.6098 35.0198 20.9198 34.9898 21.0898C34.9298 21.4898 34.6898 21.9198 34.3398 22.2698C33.9298 22.6798 33.3998 22.9298 32.9598 22.9298Z" fill="#221F1F"/>
<path d="M22.9763 35.0427C24.0151 34.0039 24.2399 32.5445 23.4784 31.783C22.7168 31.0214 21.2574 31.2462 20.2186 32.285C19.1798 33.3238 18.955 34.7833 19.7165 35.5448C20.4781 36.3063 21.9375 36.0815 22.9763 35.0427Z" fill="#F0AA97"/>
<path d="M20.8898 35.0001C20.7498 35.0001 20.5498 34.9701 20.4198 34.8401C20.0998 34.5201 20.2498 33.6601 20.9198 32.9901C21.3298 32.5801 21.8598 32.3301 22.2998 32.3301C22.4398 32.3301 22.6398 32.3601 22.7698 32.4901C22.9598 32.6801 22.9398 32.9901 22.9098 33.1601C22.8498 33.5601 22.6098 33.9901 22.2598 34.3401C21.8498 34.7501 21.3198 35.0001 20.8798 35.0001H20.8898Z" fill="#221F1F"/>
</svg>
