<svg width="42" height="42" viewBox="0 0 42 42" fill="none" xmlns="http://www.w3.org/2000/svg">
<path d="M21 40C10.52 40 2 31.48 2 21C2 10.52 10.52 2 21 2C31.48 2 40 10.52 40 21C40 31.48 31.48 40 21 40Z" fill="white"/>
<path d="M21 38C11.63 38 4 30.37 4 21C4 11.63 11.63 4 21 4C30.37 4 38 11.63 38 21C38 30.37 30.37 38 21 38Z" fill="#221F1F"/>
<path d="M21 36C29.2843 36 36 29.2843 36 21C36 12.7157 29.2843 6 21 6C12.7157 6 6 12.7157 6 21C6 29.2843 12.7157 36 21 36Z" fill="#C4C4C4"/>
<path d="M20.9999 6C17.8899 6 14.9999 6.95 12.6099 8.57C15.4899 18.56 21.6499 27.14 29.8599 33.09C33.5799 30.36 35.9999 25.97 35.9999 21C35.9999 12.72 29.2799 6 20.9999 6Z" fill="white"/>
<path d="M21.0001 14.8203L15.1201 19.0903L17.3701 26.0003H24.6301L26.8801 19.0903L21.0001 14.8203Z" fill="#221F1F"/>
<path d="M23.55 36.78C28.63 35.96 32.91 32.76 35.2 28.34L26.29 28.28L23.55 36.78ZM6.78 28.3C9.06 32.72 13.33 35.94 18.41 36.77L15.71 28.28L6.78 28.3ZM9.66 9.72C6.78 12.62 5 16.6 5 21C5 21.82 5.08 22.62 5.2 23.41L12.44 18.22L9.66 9.73V9.72ZM21 5C18.42 5 15.99 5.63 13.83 6.72L21 12L28.21 6.74C26.04 5.64 23.59 5 21 5ZM32.37 9.76L29.56 18.22L36.79 23.45C36.91 22.65 37 21.83 37 21C37 16.62 35.23 12.65 32.37 9.76Z" fill="#221F1F"/>
<path d="M25.81 29.78C25.98 29.93 26.14 30.08 26.31 30.23C26.78 30.65 27.26 31.05 27.74 31.45C27.94 31.61 28.13 31.78 28.33 31.94C28.83 32.34 29.35 32.71 29.87 33.08C31.58 31.82 33.02 30.2 34.07 28.34L26.29 28.29L25.81 29.79V29.78ZM32.01 10.84L29.56 18.22L35.89 22.8C35.96 22.21 36 21.61 36 21C36 17.07 34.48 13.51 32.01 10.84ZM27.3 7.4C25.38 6.51 23.25 6 21 6C18.75 6 16.64 6.5 14.73 7.38L21 12L27.3 7.4ZM21 14.82L16.55 18.05C16.66 18.25 16.78 18.46 16.89 18.66C17.07 18.98 17.26 19.29 17.44 19.6C17.62 19.9 17.81 20.2 18 20.5C18.25 20.89 18.51 21.28 18.77 21.66C18.91 21.87 19.05 22.08 19.19 22.28C19.6 22.87 20.03 23.44 20.47 24.01C20.58 24.16 20.7 24.3 20.82 24.44C21.18 24.89 21.54 25.33 21.91 25.76C21.98 25.84 22.05 25.91 22.11 25.99H24.62L26.87 19.08L20.99 14.81L21 14.82Z" fill="#626363"/>
</svg>
