<svg width="42" height="42" viewBox="0 0 42 42" fill="none" xmlns="http://www.w3.org/2000/svg">
<path d="M25.6804 20.8601C28.8946 20.8601 31.5004 18.1738 31.5004 14.8601C31.5004 11.5464 28.8946 8.86011 25.6804 8.86011C22.4661 8.86011 19.8604 11.5464 19.8604 14.8601C19.8604 18.1738 22.4661 20.8601 25.6804 20.8601Z" fill="white"/>
<path d="M20.46 33.71C23.6356 33.71 26.21 30.6432 26.21 26.86C26.21 23.0769 23.6356 20.01 20.46 20.01C17.2843 20.01 14.71 23.0769 14.71 26.86C14.71 30.6432 17.2843 33.71 20.46 33.71Z" fill="white"/>
<path d="M19 40C12.38 40 7 34.62 7 28V20.22C7 17.46 9.24 15.22 12 15.22C14.76 15.22 17 17.46 17 20.22V28C17 29.1 17.9 30 19 30C20.1 30 21 29.1 21 28V23.12C21 20.36 23.24 18.12 26 18.12C28.76 18.12 31 20.36 31 23.12V28C31 34.62 25.62 40 19 40Z" fill="white"/>
<path d="M12 28C16.4183 28 20 24.4183 20 20C20 15.5817 16.4183 12 12 12C7.58172 12 4 15.5817 4 20C4 24.4183 7.58172 28 12 28Z" fill="white"/>
<path d="M26 27.91C19.8 27.91 13 19.8 13 12.41C13 6.4 16.51 2.62 22.62 2.03C22.7 2.03 22.91 2.01 23.11 2.01C24.15 2.01 25.13 2.33 25.95 2.89C26.77 2.32 27.75 2 28.81 2C28.91 2 29.17 2.01 29.28 2.02C35.54 2.58 39 6.27 39 12.41C39 19.8 32.2 27.91 26 27.91ZM26.44 17.97L23 12.41C23 14.5 24.92 16.85 26 17.69C27.08 16.84 29 14.49 29 12.41C29 12.27 29 12.15 29 12.05C28.85 12.03 28.65 12 28.37 11.98C27.49 11.9 26.66 11.59 25.97 11.11C25.27 11.6 24.45 11.9 23.57 11.99C23.33 12.01 23.15 12.03 23.01 12.05C23.01 12.15 23.01 12.27 23.01 12.41L26.44 17.97Z" fill="white"/>
<path d="M19 38C13.49 38 9 33.51 9 28V20.22C9 18.57 10.35 17.22 12 17.22C13.65 17.22 15 18.57 15 20.22V28C15 30.21 16.79 32 19 32C21.21 32 23 30.21 23 28V23.12C23 21.47 24.35 20.12 26 20.12C27.65 20.12 29 21.47 29 23.12V28C29 33.51 24.51 38 19 38Z" fill="#221F1F"/>
<path d="M26 25.91C20.86 25.91 15 18.72 15 12.41C15 8.91999 16.36 4.63999 22.81 4.01999C22.88 4.01999 23 3.99999 23.11 3.99999C24.43 3.99999 25.56 4.85999 25.95 6.07999C26.34 4.84999 27.47 3.98999 28.81 3.98999C28.87 3.98999 29.03 3.98999 29.09 3.99999C34.34 4.46999 37 7.29999 37 12.4C37 18.71 31.14 25.9 26 25.9V25.91ZM25.96 7.91999C25.84 8.27999 25.66 8.61999 25.41 8.91999C24.9 9.53999 24.18 9.91999 23.38 9.99999C21.39 10.19 21 10.4 21 12.41C21 16.15 24.88 19.85 26 19.91C27.11 19.85 31 16.15 31 12.41C31 10.5 30.68 10.18 28.55 9.98999C27.32 9.87999 26.32 9.02999 25.96 7.91999Z" fill="#221F1F"/>
<path d="M26 23.91C29.72 23.91 35 17.96 35 12.41C35 7.21999 31.74 6.25999 28.91 6.00999C28.36 5.95999 27.87 6.36999 27.82 6.91999C27.77 7.46999 28.18 7.95999 28.73 8.00999C31.44 8.24999 33 9.04999 33 12.42C33 17.04 28.45 21.92 26 21.92C23.55 21.92 19 17.04 19 12.42C19 9.06999 20.54 8.26999 23.19 8.00999C23.74 7.95999 24.14 7.46999 24.09 6.91999C24.04 6.36999 23.55 5.94999 23 6.01999C20.42 6.26999 17 7.19999 17 12.42C17 17.97 22.28 23.92 26 23.92V23.91Z" fill="white"/>
<path d="M25.9997 25.91C23.4097 25.91 20.4597 24.05 18.1297 20.95C17.4697 20.07 17.6397 18.83 18.5097 18.16L20.0897 16.95C20.4397 16.68 20.8697 16.54 21.3097 16.54C21.3997 16.54 21.4897 16.54 21.5797 16.56C22.1097 16.63 22.5897 16.91 22.9097 17.34C24.2197 19.1 25.5897 19.9 25.9997 19.92C26.3997 19.9 27.7697 19.1 29.0797 17.34C29.3997 16.91 29.8797 16.63 30.4097 16.56C30.4997 16.55 30.5897 16.54 30.6797 16.54C31.1197 16.54 31.5497 16.68 31.8997 16.95L33.4797 18.16C34.3497 18.83 34.5197 20.07 33.8597 20.95C31.5197 24.06 28.5797 25.91 25.9897 25.91H25.9997Z" fill="#221F1F"/>
<path d="M26.0005 23.91C28.0005 23.91 30.4405 22.19 32.2705 19.74L30.6905 18.53C29.2005 20.52 27.3005 21.91 26.0005 21.91C24.7005 21.91 22.8005 20.52 21.3105 18.53L19.7305 19.74C21.5705 22.19 24.0105 23.91 26.0005 23.91Z" fill="#F0AA97"/>
<path d="M19 36C14.59 36 11 32.41 11 28V20.22C11 19.67 11.45 19.22 12 19.22C12.55 19.22 13 19.67 13 20.22V28C13 31.31 15.69 34 19 34C22.31 34 25 31.31 25 28V23.12C25 22.57 25.45 22.12 26 22.12C26.55 22.12 27 22.57 27 23.12V28C27 32.41 23.41 36 19 36Z" fill="#F0AA97"/>
<path d="M12 26C15.3137 26 18 23.3137 18 20C18 16.6863 15.3137 14 12 14C8.68629 14 6 16.6863 6 20C6 23.3137 8.68629 26 12 26Z" fill="#221F1F"/>
<path d="M12 24C14.2091 24 16 22.2091 16 20C16 17.7909 14.2091 16 12 16C9.79086 16 8 17.7909 8 20C8 22.2091 9.79086 24 12 24Z" fill="white"/>
<path d="M10 16.5601C8.81 17.2501 8 18.5301 8 20.0001C8 22.2101 9.79 24.0001 12 24.0001C12.68 24.0001 13.3 23.8201 13.86 23.5201L10 16.5601Z" fill="#C4C4C4"/>
<path d="M12 22C13.1046 22 14 21.1046 14 20C14 18.8954 13.1046 18 12 18C10.8954 18 10 18.8954 10 20C10 21.1046 10.8954 22 12 22Z" fill="#221F1F"/>
</svg>
