<svg width="42" height="42" viewBox="0 0 42 42" fill="none" xmlns="http://www.w3.org/2000/svg">
<path d="M6.69985 25.9296C6.11985 25.9296 5.52985 25.7996 5.00985 25.5496C4.04985 25.0996 3.30985 24.2996 2.93985 23.2896L2.23985 21.3696C1.86985 20.3696 1.91985 19.2796 2.36985 18.3096C2.81985 17.3396 3.61985 16.6096 4.62985 16.2396L13.2899 13.0896C13.7299 12.9296 14.1899 12.8496 14.6599 12.8496C15.2399 12.8496 15.8299 12.9796 16.3499 13.2296C17.3099 13.6796 18.0499 14.4796 18.4199 15.4896L19.1199 17.4096C19.4899 18.4096 19.4399 19.4996 18.9899 20.4696C18.5399 21.4396 17.7399 22.1696 16.7299 22.5396L8.06985 25.6896C7.62985 25.8496 7.16985 25.9296 6.69985 25.9296Z" fill="white"/>
<path d="M14.1301 25.4009C13.5501 25.4009 12.9601 25.2709 12.4401 25.0209C11.4901 24.5809 10.7301 23.7509 10.3701 22.7609L8.27013 16.9909C7.90013 15.9909 7.95013 14.9009 8.40013 13.9309C8.85013 12.9609 9.65013 12.2309 10.6601 11.8609L29.9101 4.87086C30.3501 4.71086 30.8101 4.63086 31.2801 4.63086C31.8601 4.63086 32.4501 4.76086 32.9701 5.01086C33.9201 5.45086 34.6801 6.28086 35.0401 7.27086L37.1401 13.0409C37.5101 14.0409 37.4601 15.1309 37.0101 16.1009C36.5601 17.0709 35.7601 17.8009 34.7501 18.1709L15.5101 25.1709C15.0701 25.3309 14.6101 25.4109 14.1401 25.4109L14.1301 25.4009Z" fill="white"/>
<path d="M33.1102 20.6702C32.5302 20.6702 31.9402 20.5402 31.4202 20.2902C30.4602 19.8402 29.7202 19.0402 29.3502 18.0302L25.8502 8.41023C25.4802 7.41023 25.5302 6.32023 25.9802 5.35023C26.4302 4.38023 27.2302 3.65023 28.2402 3.28023L31.1202 2.23023C31.5602 2.07023 32.0202 1.99023 32.4902 1.99023C33.0702 1.99023 33.6602 2.12023 34.1802 2.37023C35.1402 2.82023 35.8802 3.62023 36.2502 4.63023L39.7502 14.2502C40.1202 15.2502 40.0702 16.3402 39.6202 17.3102C39.1702 18.2802 38.3702 19.0102 37.3602 19.3802L34.4802 20.4302C34.0402 20.5902 33.5802 20.6702 33.1102 20.6702Z" fill="white"/>
<path d="M29.9999 40.0002C29.0199 40.0002 28.0899 39.5202 27.5299 38.7102L23.9999 33.6002V37.0002C23.9999 38.6502 22.6499 40.0002 20.9999 40.0002C19.3499 40.0002 17.9999 38.6502 17.9999 37.0002V33.6002L14.4699 38.7002C13.9099 39.5102 12.9899 39.9902 11.9999 39.9902C11.3899 39.9902 10.7999 39.8102 10.2899 39.4602C8.92992 38.5202 8.58992 36.6402 9.52992 35.2802L17.9999 23.0502V19.9902C17.9999 18.3402 19.3499 16.9902 20.9999 16.9902C22.6499 16.9902 23.9999 18.3402 23.9999 19.9902V23.0502L32.4699 35.2802C33.4099 36.6402 33.0699 38.5102 31.7099 39.4502C31.1999 39.8002 30.6099 39.9802 29.9999 39.9802V40.0002Z" fill="white"/>
<path d="M21 38C20.45 38 20 37.55 20 37V20C20 19.45 20.45 19 21 19C21.55 19 22 19.45 22 20V37C22 37.55 21.55 38 21 38Z" fill="#221F1F"/>
<path d="M12.0002 38.0002C11.8002 38.0002 11.6102 37.9402 11.4302 37.8202C10.9802 37.5102 10.8602 36.8802 11.1802 36.4302L20.1802 23.4302C20.4902 22.9802 21.1202 22.8602 21.5702 23.1802C22.0202 23.4902 22.1402 24.1202 21.8202 24.5702L12.8202 37.5702C12.6302 37.8502 12.3102 38.0002 12.0002 38.0002Z" fill="#221F1F"/>
<path d="M29.9998 38.0002C29.6798 38.0002 29.3698 37.8502 29.1798 37.5702L20.1798 24.5702C19.8698 24.1202 19.9798 23.4902 20.4298 23.1802C20.8798 22.8602 21.5098 22.9802 21.8198 23.4302L30.8198 36.4302C31.1298 36.8802 31.0198 37.5102 30.5698 37.8202C30.3998 37.9402 30.1998 38.0002 29.9998 38.0002Z" fill="#221F1F"/>
<path d="M6.70024 23.9294C6.41024 23.9294 6.12024 23.8694 5.85024 23.7394C5.37024 23.5194 5.00024 23.1094 4.82024 22.6094L4.12024 20.6894C3.74024 19.6494 4.28024 18.4994 5.32024 18.1294L13.9802 14.9794C14.2002 14.8994 14.4302 14.8594 14.6602 14.8594C14.9502 14.8594 15.2402 14.9194 15.5102 15.0494C15.9902 15.2694 16.3602 15.6794 16.5402 16.1794L17.2402 18.0994C17.6202 19.1394 17.0802 20.2894 16.0402 20.6594L7.38024 23.8094C7.16024 23.8894 6.93024 23.9294 6.70024 23.9294Z" fill="#221F1F"/>
<path d="M14.6497 16.8579L5.99512 20.0079L6.69626 21.9343L15.3508 18.7843L14.6497 16.8579Z" fill="#9CDB9C"/>
<path d="M14.13 23.4009C13.84 23.4009 13.55 23.3409 13.28 23.2109C12.8 22.9909 12.43 22.5809 12.25 22.0809L10.15 16.3109C9.77003 15.2709 10.31 14.1209 11.35 13.7509L30.59 6.75086C30.81 6.67086 31.04 6.63086 31.27 6.63086C31.56 6.63086 31.85 6.69086 32.12 6.82086C32.6 7.04086 32.97 7.45086 33.15 7.95086L35.25 13.7209C35.63 14.7609 35.09 15.9109 34.05 16.2809L14.81 23.2809C14.59 23.3609 14.36 23.4009 14.13 23.4009Z" fill="#221F1F"/>
<path d="M31.2849 8.62231L12.04 15.6269L14.14 21.3966L33.3849 14.392L31.2849 8.62231Z" fill="#C6F4C6"/>
<path d="M32.2395 11.2629L12.9946 18.2675L14.1301 21.3873L33.375 14.3827L32.2395 11.2629Z" fill="#9CDB9C"/>
<path d="M33.1101 18.67C32.8201 18.67 32.5301 18.61 32.2601 18.48C31.7801 18.26 31.4101 17.85 31.2301 17.35L27.7301 7.73C27.3501 6.69 27.8901 5.54 28.9301 5.17L31.8201 4.12C32.0401 4.04 32.2701 4 32.5001 4C32.7901 4 33.0801 4.06 33.3501 4.19C33.8301 4.41 34.2001 4.82 34.3801 5.32L37.8801 14.94C38.2601 15.98 37.7201 17.13 36.6801 17.5L33.7901 18.55C33.5701 18.63 33.3401 18.67 33.1101 18.67Z" fill="#221F1F"/>
<path d="M32.4947 6.00269L29.6099 7.05269L33.1121 16.6752L35.997 15.6252L32.4947 6.00269Z" fill="#C6F4C6"/>
<path d="M34.1588 10.573L31.2739 11.6229L33.1106 16.6691L35.9954 15.6191L34.1588 10.573Z" fill="#9CDB9C"/>
</svg>
