<svg width="42" height="42" viewBox="0 0 42 42" fill="none" xmlns="http://www.w3.org/2000/svg">
<path d="M21 25C19.35 25 18 23.65 18 22C18 20.35 19.35 19 21 19H29C30.65 19 32 20.35 32 22C32 23.65 30.65 25 29 25H21Z" fill="white"/>
<path d="M21 17C19.35 17 18 15.65 18 14C18 12.35 19.35 11 21 11H29C30.65 11 32 12.35 32 14C32 15.65 30.65 17 29 17H21Z" fill="white"/>
<path d="M21.9999 9C20.3499 9 21.9999 7.65 21.9999 6C21.9999 4.35 20.3499 3 21.9999 3H28.9999C30.6499 3 31.9999 4.35 31.9999 6C31.9999 7.65 30.6499 9 28.9999 9H21.9999Z" fill="white"/>
<path d="M19 40C16.24 40 14 37.76 14 35V7C14 4.24 16.24 2 19 2C21.76 2 24 4.24 24 7V35C24 37.76 21.76 40 19 40Z" fill="white"/>
<path d="M19 40C14.04 40 10 35.96 10 31C10 26.04 14.04 22 19 22C23.96 22 28 26.04 28 31C28 35.96 23.96 40 19 40Z" fill="white"/>
<path d="M22 7C22 5.34315 20.6569 4 19 4C17.3431 4 16 5.34315 16 7V35C16 36.6569 17.3431 38 19 38C20.6569 38 22 36.6569 22 35V7Z" fill="#221F1F"/>
<path d="M19 38C22.866 38 26 34.866 26 31C26 27.134 22.866 24 19 24C15.134 24 12 27.134 12 31C12 34.866 15.134 38 19 38Z" fill="#221F1F"/>
<path d="M19 36C18.46 36 18 35.54 18 35V7C18 6.46 18.46 6 19 6C19.54 6 20 6.46 20 7V35C20 35.54 19.54 36 19 36Z" fill="#F0AA97"/>
<path d="M19 36C21.7614 36 24 33.7614 24 31C24 28.2386 21.7614 26 19 26C16.2386 26 14 28.2386 14 31C14 33.7614 16.2386 36 19 36Z" fill="#F0AA97"/>
<path d="M29 5H28C27.4477 5 27 5.44772 27 6C27 6.55228 27.4477 7 28 7H29C29.5523 7 30 6.55228 30 6C30 5.44772 29.5523 5 29 5Z" fill="#9E9E9E"/>
<path d="M29 13H28C27.4477 13 27 13.4477 27 14C27 14.5523 27.4477 15 28 15H29C29.5523 15 30 14.5523 30 14C30 13.4477 29.5523 13 29 13Z" fill="#9E9E9E"/>
<path d="M29 21H28C27.4477 21 27 21.4477 27 22C27 22.5523 27.4477 23 28 23H29C29.5523 23 30 22.5523 30 22C30 21.4477 29.5523 21 29 21Z" fill="#9E9E9E"/>
<path d="M28 5H27C26.4477 5 26 5.44772 26 6C26 6.55228 26.4477 7 27 7H28C28.5523 7 29 6.55228 29 6C29 5.44772 28.5523 5 28 5Z" fill="#9E9E9E"/>
<path d="M28 13H27C26.4477 13 26 13.4477 26 14C26 14.5523 26.4477 15 27 15H28C28.5523 15 29 14.5523 29 14C29 13.4477 28.5523 13 28 13Z" fill="#9E9E9E"/>
<path d="M28 21H27C26.4477 21 26 21.4477 26 22C26 22.5523 26.4477 23 27 23H28C28.5523 23 29 22.5523 29 22C29 21.4477 28.5523 21 28 21Z" fill="#9E9E9E"/>
<path d="M27 5H26C25.4477 5 25 5.44772 25 6C25 6.55228 25.4477 7 26 7H27C27.5523 7 28 6.55228 28 6C28 5.44772 27.5523 5 27 5Z" fill="#9E9E9E"/>
<path d="M27 13H26C25.4477 13 25 13.4477 25 14C25 14.5523 25.4477 15 26 15H27C27.5523 15 28 14.5523 28 14C28 13.4477 27.5523 13 27 13Z" fill="#9E9E9E"/>
<path d="M27 21H26C25.4477 21 25 21.4477 25 22C25 22.5523 25.4477 23 26 23H27C27.5523 23 28 22.5523 28 22C28 21.4477 27.5523 21 27 21Z" fill="#9E9E9E"/>
<path d="M23 33.0009C19.46 33.0009 16.55 30.3709 16.07 26.9609C14.82 27.8709 14 29.3309 14 31.0009C14 33.7609 16.24 36.0009 19 36.0009C21.06 36.0009 22.83 34.7509 23.59 32.9709C23.39 32.9909 23.2 33.0009 23 33.0009Z" fill="#D88C7D"/>
<path d="M21 13H17V15H21V13Z" fill="#221F1F"/>
<path d="M19 6C18.46 6 18 6.46 18 7V13H20V7C20 6.46 19.54 6 19 6Z" fill="white"/>
</svg>
