<svg width="42" height="42" viewBox="0 0 42 42" fill="none" xmlns="http://www.w3.org/2000/svg">
<path d="M39.6099 11.5297C38.8299 9.65973 36.9599 8.39973 34.9599 8.39973C34.8999 8.39973 34.8399 8.39973 34.7799 8.40973C34.7399 8.36973 34.7099 8.30973 34.6699 8.26973L33.5199 7.11973C33.3399 6.31973 32.9999 5.54973 32.4599 4.87973C32.4199 4.82973 32.3799 4.76973 32.3499 4.72973C31.9099 4.19973 30.2399 2.46973 27.0899 2.46973C26.4499 2.46973 25.7799 2.54973 25.1099 2.69973C23.6899 3.01973 22.5599 4.08973 22.1499 5.48973C22.0299 5.90973 21.9799 6.33973 21.9999 6.76973L17.8099 10.9597C16.7699 11.9997 16.1999 13.3797 16.1999 14.8497C16.1999 16.3197 16.7699 17.6997 17.8099 18.7397C17.8599 18.7897 17.9099 18.8397 17.9599 18.8797C15.9999 20.4397 14.4399 22.4297 13.0499 24.2097C11.3899 26.3397 9.81989 28.3597 8.10989 29.0297C5.43989 29.8197 3.80989 32.2897 4.13989 35.0597C4.48989 37.9397 6.80989 40.0297 9.65989 40.0297C10.0499 40.0297 10.4499 39.9897 10.8599 39.9097C11.0399 39.8697 11.2099 39.8197 11.3699 39.7697C15.3099 38.3797 17.8499 35.4397 20.3499 32.2597C20.9199 31.4897 21.4299 30.7197 21.8799 30.0397C22.8299 28.5997 23.5799 27.4697 24.5999 26.7297C25.1099 26.3497 25.5099 26.1997 25.7599 26.1797C26.0699 26.2397 26.3899 26.2597 26.7099 26.2597C28.0499 26.2597 29.9199 25.7397 31.1699 24.2997C34.0299 21.3497 36.3599 19.0297 38.5199 16.9597C39.9799 15.4997 40.4099 13.4197 39.6299 11.5397L39.6099 11.5297Z" fill="white"/>
<path d="M25.1298 20.8096C24.3298 20.8096 23.5798 20.4996 23.0098 19.9296L21.7498 18.6696C21.3498 18.2696 21.1398 17.7196 21.1698 17.1496C21.1998 16.5796 21.4698 16.0596 21.9098 15.6996L22.0298 15.5996L23.1898 14.4496C23.2898 14.3496 23.3998 14.2596 23.5098 14.1896C23.5798 14.0696 23.6698 13.9696 23.7698 13.8696L25.1798 12.4596C25.2798 12.3596 25.3898 12.2696 25.4998 12.1996C25.5698 12.0796 25.6598 11.9796 25.7598 11.8796L27.1698 10.4696C27.2698 10.3696 27.3798 10.2796 27.4898 10.2096C27.5698 10.0896 27.6498 9.98965 27.7498 9.88965L28.8198 8.81965C28.8198 8.81965 28.8698 8.74965 28.8998 8.70965C29.2498 8.24965 29.7998 7.92965 30.3798 7.88965C30.4298 7.88965 30.4898 7.88965 30.5398 7.88965C31.0698 7.88965 31.5898 8.07965 31.9598 8.44965L33.2298 9.71965C34.3998 10.8896 34.3998 12.7896 33.2298 13.9596C32.8798 14.3196 32.4498 14.5696 31.9798 14.7096C31.8398 15.1696 31.5898 15.5996 31.2298 15.9596C30.8798 16.3196 30.4498 16.5696 29.9798 16.7096C29.8398 17.1696 29.5898 17.5996 29.2298 17.9596C28.8798 18.3196 28.4498 18.5696 27.9798 18.7096C27.8398 19.1696 27.5898 19.5996 27.2298 19.9596C26.6598 20.5296 25.9098 20.8396 25.1098 20.8396L25.1298 20.8096Z" fill="#221F1F"/>
<path d="M37.7596 12.3C37.2896 11.17 36.1596 10.4 34.9596 10.4C34.1696 10.4 33.4196 10.72 32.8096 11.33C30.8796 13.35 28.7696 15.47 26.0196 18.15C25.8496 18.15 25.6896 18.14 25.5196 18.14C20.2996 18.14 17.2796 22.02 14.6096 25.44C12.7496 27.83 10.9896 30.08 8.7196 30.93C6.9596 31.42 5.8796 33 6.0996 34.82C6.3196 36.68 7.8096 38.03 9.6396 38.03C9.8996 38.03 10.1696 38 10.4296 37.95C10.5196 37.93 10.5996 37.91 10.6896 37.88C14.1196 36.67 16.4396 33.98 18.7296 31.06C19.2596 30.35 19.7296 29.63 20.1896 28.94C21.2096 27.4 22.0896 26.06 23.3896 25.12C23.9696 24.69 24.8496 24.17 25.7496 24.17C25.8296 24.17 25.8996 24.17 25.9796 24.18C26.2096 24.23 26.4496 24.26 26.6996 24.26C27.5796 24.26 28.8696 23.91 29.6796 22.95C32.5796 19.96 34.9196 17.62 37.0996 15.55C37.9796 14.67 38.2396 13.43 37.7696 12.31L37.7596 12.3ZM21.6796 18.35C22.6096 18.35 23.4896 17.99 24.1496 17.32L30.6596 10.81C31.9596 9.50996 32.0096 7.42996 30.8196 6.05996C30.8096 6.03996 30.7996 6.01996 30.7896 5.99996C30.5796 5.73996 29.3996 4.45996 27.0696 4.45996C26.5696 4.45996 26.0596 4.51996 25.5296 4.63996C24.8196 4.79996 24.2496 5.33996 24.0496 6.03996C23.9196 6.49996 23.9596 6.98996 24.1496 7.41996L19.1996 12.37C17.8396 13.73 17.8396 15.95 19.1996 17.32C19.8596 17.98 20.7396 18.35 21.6696 18.35H21.6796Z" fill="#221F1F"/>
<path d="M35.6704 14.1297C33.1404 16.5497 30.6204 19.0997 28.1704 21.6197C27.8104 22.0897 26.8804 22.3697 26.3304 22.2097C24.8604 22.0097 23.4304 22.5897 22.1904 23.5097C19.9704 25.1197 18.8104 27.6097 17.1304 29.8497C15.2304 32.2797 13.0604 34.9197 10.0304 35.9897C7.96043 36.4197 7.25043 33.3397 9.32043 32.8397C16.1204 30.4097 18.1504 19.0797 26.7004 20.2197C26.8604 20.2497 26.7704 20.2297 26.7804 20.2397C26.7304 20.2397 26.6404 20.3397 26.7804 20.2097C29.3004 17.7697 31.8504 15.2497 34.2704 12.7097C35.2004 11.7697 36.6404 13.1697 35.6804 14.1197L35.6704 14.1297Z" fill="#9CDB9C"/>
<path d="M26.6002 13.8701L25.1902 15.2801L26.4202 16.5101C26.6202 16.7101 26.8702 16.8001 27.1302 16.8001C27.3902 16.8001 27.6402 16.7001 27.8402 16.5101C28.2302 16.1201 28.2302 15.4901 27.8402 15.1001L26.6102 13.8701H26.6002ZM24.6002 15.8701L23.4502 17.0201C23.3602 17.1101 23.2602 17.1801 23.1602 17.2501L24.4202 18.5101C24.6202 18.7101 24.8702 18.8001 25.1302 18.8001C25.3902 18.8001 25.6402 18.7001 25.8402 18.5101C26.2302 18.1201 26.2302 17.4901 25.8402 17.1001L24.6102 15.8701H24.6002ZM31.8402 11.1001L30.5702 9.83008C30.4702 9.96008 30.3802 10.0901 30.2602 10.2101L29.1902 11.2801L30.4202 12.5101C30.6202 12.7101 30.8702 12.8001 31.1302 12.8001C31.3902 12.8001 31.6402 12.7001 31.8402 12.5101C32.2302 12.1201 32.2302 11.4901 31.8402 11.1001ZM28.6002 11.8701L27.1902 13.2801L28.4202 14.5101C28.6202 14.7101 28.8702 14.8001 29.1302 14.8001C29.3902 14.8001 29.6402 14.7001 29.8402 14.5101C30.2302 14.1201 30.2302 13.4901 29.8402 13.1001L28.6102 11.8701H28.6002Z" fill="white"/>
<path d="M29.2502 7.28039C28.6602 6.69039 27.7102 6.69039 27.1302 7.28039L20.6202 13.7904C20.0302 14.3804 20.0302 15.3304 20.6202 15.9104C20.9102 16.2004 21.3002 16.3504 21.6802 16.3504C22.0602 16.3504 22.4502 16.2004 22.7402 15.9104L29.2502 9.40039C29.8402 8.81039 29.8402 7.86039 29.2502 7.28039Z" fill="#A2D6FF"/>
<path d="M29.2504 7.28039C29.2504 7.28039 28.2604 6.08039 25.9804 6.60039C25.9804 6.60039 27.0204 7.64039 24.9904 9.47039C22.9604 11.3004 27.7904 9.38039 27.7904 9.38039L29.2504 7.28039Z" fill="#A2D6FF"/>
</svg>
