<svg width="42" height="42" viewBox="0 0 42 42" fill="none" xmlns="http://www.w3.org/2000/svg">
<path d="M19 14C15.69 14 13 11.31 13 8C13 4.69 15.69 2 19 2H23C26.31 2 29 4.69 29 8C29 11.31 26.31 14 23 14H19Z" fill="white"/>
<path d="M14.49 40C10.96 40 8.06004 37.24 7.87004 33.72L7.00004 17.21C6.94004 16.12 7.34004 15.04 8.09004 14.25C8.84004 13.46 9.90004 13 10.99 13H30.99C32.08 13 33.14 13.45 33.89 14.25C34.64 15.04 35.04 16.12 34.98 17.21L34.11 33.72C33.93 37.24 31.02 40 27.49 40H14.48H14.49Z" fill="white"/>
<path d="M36.9998 11.16V14.58C36.9998 17.02 35.0198 19 32.5798 19H9.42977C6.98977 19 5.00977 17.02 5.00977 14.58V11.16C5.00977 8.31 7.31977 6 10.1698 6H31.8398C34.6898 6 36.9998 8.31 36.9998 11.16Z" fill="white"/>
<path d="M19 12C16.79 12 15 10.21 15 8C15 5.79 16.79 4 19 4H23C25.21 4 27 5.79 27 8C27 10.21 25.21 12 23 12H19Z" fill="#221F1F"/>
<path d="M14.49 37.9998C12.03 37.9998 10 36.0698 9.87002 33.6198L9.00002 17.1098C8.97002 16.5598 9.17002 16.0298 9.55002 15.6298C9.93002 15.2298 10.45 15.0098 11 15.0098H31C31.55 15.0098 32.07 15.2398 32.45 15.6298C32.83 16.0298 33.03 16.5598 33 17.1098L32.13 33.6198C32 36.0798 29.97 37.9998 27.51 37.9998H14.5H14.49Z" fill="#221F1F"/>
<path d="M25 8C25 6.9 24.1 6 23 6H19C17.9 6 17 6.9 17 8C17 9.1 17.9 10 19 10H23C24.1 10 25 9.1 25 8Z" fill="white"/>
<path d="M34.9998 11.16V14.58C34.9998 15.92 33.9098 17 32.5798 17H9.42977C8.08977 17 7.00977 15.91 7.00977 14.58V11.16C7.00977 9.42 8.41977 8 10.1698 8H31.8398C33.5798 8 34.9998 9.41 34.9998 11.16Z" fill="#221F1F"/>
<path d="M14.49 36H27.5C28.9 36 30.05 34.91 30.12 33.51L30.99 17H11L11.87 33.51C11.94 34.91 13.1 36 14.49 36Z" fill="#81C681"/>
<path d="M18 20V36H27.51C28.91 36 30.06 34.91 30.13 33.51L30.84 20H18Z" fill="#B7EDB7"/>
<path d="M22 16C22 15.4477 21.5523 15 21 15C20.4477 15 20 15.4477 20 16V33C20 33.5523 20.4477 34 21 34C21.5523 34 22 33.5523 22 33V16Z" fill="#221F1F"/>
<path d="M15.7045 15.9678C15.6852 15.4158 15.2221 14.984 14.6702 15.0033C14.1182 15.0226 13.6864 15.4856 13.7057 16.0376L14.299 33.0272C14.3183 33.5792 14.7813 34.011 15.3333 33.9917C15.8852 33.9724 16.317 33.5094 16.2978 32.9574L15.7045 15.9678Z" fill="#221F1F"/>
<path d="M25.7003 32.9573C25.681 33.5092 26.1128 33.9723 26.6648 33.9916C27.2167 34.0108 27.6798 33.579 27.6991 33.0271L28.2924 16.0374C28.3116 15.4855 27.8798 15.0224 27.3279 15.0031C26.7759 14.9839 26.3128 15.4157 26.2936 15.9676L25.7003 32.9573Z" fill="#221F1F"/>
<path d="M10.16 10H31.85C32.49 10 33.01 10.52 33.01 11.16V14.58C33.01 14.81 32.82 15 32.59 15H9.42C9.19 15 9 14.81 9 14.58V11.16C9 10.52 9.52 10 10.16 10Z" fill="#B7EDB7"/>
<path d="M9 11.16V14.58C9 14.81 9.19 15 9.42 15H15V10H10.16C9.52 10 9 10.52 9 11.16Z" fill="#81C681"/>
</svg>
