<svg width="42" height="42" viewBox="0 0 42 42" fill="none" xmlns="http://www.w3.org/2000/svg">
<path d="M40 29V6C40 3.79086 38.2091 2 36 2H6C3.79086 2 2 3.79086 2 6V29C2 31.2091 3.79086 33 6 33H36C38.2091 33 40 31.2091 40 29Z" fill="white"/>
<path d="M10.0002 40C7.75016 40 5.77016 38.49 5.18016 36.32C4.45016 33.66 6.03016 30.9 8.69016 30.18L19.6901 27.18C20.1201 27.06 20.5601 27 21.0101 27C21.4601 27 21.8901 27.06 22.3201 27.17L33.3301 30.17C35.9901 30.9 37.5601 33.65 36.8401 36.31C36.2501 38.48 34.2601 40 32.0201 40C31.5701 40 31.1201 39.94 30.6901 39.82L21.0201 37.18L11.3401 39.82C10.9202 39.94 10.4702 40 10.0202 40H10.0002Z" fill="white"/>
<path d="M38 29V6C38 4.89543 37.1046 4 36 4H6C4.89543 4 4 4.89543 4 6V29C4 30.1046 4.89543 31 6 31H36C37.1046 31 38 30.1046 38 29Z" fill="#221F1F"/>
<path d="M9.9996 38C8.6496 38 7.4596 37.09 7.1096 35.79C6.6696 34.19 7.6196 32.54 9.2096 32.11L20.2096 29.11C20.4696 29.04 20.7296 29 20.9996 29C21.2696 29 21.5296 29.04 21.7896 29.1L32.7896 32.1C34.3896 32.54 35.3296 34.19 34.8896 35.78C34.5296 37.08 33.3396 37.99 31.9996 37.99C31.7296 37.99 31.4596 37.95 31.1996 37.88L20.9996 35.1L10.7896 37.89C10.5296 37.96 10.2696 38 9.9996 38Z" fill="#221F1F"/>
<path d="M24 32V28C24 26.8954 23.1046 26 22 26H20C18.8954 26 18 26.8954 18 28V32C18 33.1046 18.8954 34 20 34H22C23.1046 34 24 33.1046 24 32Z" fill="#221F1F"/>
<path d="M32.0002 35.9999C31.9102 35.9999 31.8202 35.9899 31.7402 35.9599L21.0002 33.0299L10.2602 35.9599C9.7302 36.1099 9.1802 35.7899 9.0302 35.2599C8.8802 34.7299 9.2002 34.1799 9.7302 34.0299L20.7302 31.0299C20.9002 30.9799 21.0802 30.9799 21.2602 31.0299L32.2602 34.0299C32.7902 34.1799 33.1102 34.7299 32.9602 35.2599C32.8402 35.7099 32.4402 35.9999 32.0002 35.9999Z" fill="#979797"/>
<path d="M22 28H20V32H22V28Z" fill="#979797"/>
<path d="M34.95 6H7.05C6.4701 6 6 6.4701 6 7.05V27.95C6 28.5299 6.4701 29 7.05 29H34.95C35.5299 29 36 28.5299 36 27.95V7.05C36 6.4701 35.5299 6 34.95 6Z" fill="#979797"/>
<path d="M34 26.14V8.86C34 8.38503 33.615 8 33.14 8H8.86C8.38504 8 8 8.38503 8 8.86V26.14C8 26.615 8.38504 27 8.86 27H33.14C33.615 27 34 26.615 34 26.14Z" fill="#221F1F"/>
<path d="M32 25V10H10V25H32Z" fill="#9891F5"/>
<path d="M21 25V10H10V25H21Z" fill="#FCD26E"/>
<path d="M32 25V10H21V25H32Z" fill="#9CDB9C"/>
<path d="M32 25V10H26.5V25H32Z" fill="#9891F5"/>
<path d="M15.5 25V10H10V25H15.5Z" fill="#F0AA97"/>
</svg>
