<svg width="42" height="42" viewBox="0 0 42 42" fill="none" xmlns="http://www.w3.org/2000/svg">
<path d="M28.3602 27.07C27.5402 27.07 26.7502 26.82 26.0802 26.35C25.8602 26.23 24.1102 25.63 21.0002 25.63C17.8902 25.63 16.1502 26.23 15.8802 26.38C15.2502 26.82 14.4602 27.07 13.6402 27.07C12.5402 27.07 11.5002 26.62 10.7502 25.83C10.5802 25.76 10.1702 25.63 9.50017 25.63C8.83017 25.63 8.34017 25.78 8.19017 25.87C7.55017 26.27 6.82017 26.47 6.08017 26.47C5.34017 26.47 4.60017 26.26 3.96017 25.86C2.66017 25.05 1.94018 23.59 2.10017 22.07C3.08017 12.34 11.2002 5 21.0002 5C30.8002 5 38.9102 12.33 39.9002 22.06C40.0502 23.58 39.3502 25.04 38.0502 25.85C37.4102 26.25 36.6802 26.46 35.9202 26.46C35.1602 26.46 34.4602 26.26 33.8302 25.87C33.6802 25.78 33.1802 25.63 32.5102 25.63C31.8402 25.63 31.4202 25.77 31.2502 25.84C30.5002 26.63 29.4602 27.07 28.3602 27.07Z" fill="white"/>
<path d="M18 40.02C14.69 40.02 12 37.33 12 34.02V32.29C12 30.64 13.35 29.29 15 29.29C16.65 29.29 18 30.64 18 32.29V34.02V5C18 3.35 19.35 2 21 2C22.65 2 24 3.35 24 5V34.02C24 37.33 21.31 40.02 18 40.02Z" fill="white"/>
<path d="M18 38.02C15.79 38.02 14 36.23 14 34.02V32.29C14 31.74 14.45 31.29 15 31.29C15.55 31.29 16 31.74 16 32.29V34.02C16 35.12 16.9 36.02 18 36.02C19.1 36.02 20 35.12 20 34.02V5C20 4.45 20.45 4 21 4C21.55 4 22 4.45 22 5V34.02C22 36.23 20.21 38.02 18 38.02Z" fill="#221F1F"/>
<path d="M28.3601 25.07C27.9701 25.07 27.5701 24.95 27.2201 24.71C26.6201 24.29 24.3901 23.63 21.0001 23.63C17.6101 23.63 15.3801 24.29 14.7801 24.71C14.4301 24.95 14.0401 25.07 13.6401 25.07C13.0601 25.07 12.4801 24.82 12.0801 24.33C11.9301 24.14 11.0301 23.63 9.49011 23.63C8.56011 23.63 7.67011 23.83 7.12011 24.18C6.80011 24.38 6.43011 24.48 6.06011 24.48C5.69011 24.48 5.33011 24.38 5.00011 24.18C4.35011 23.78 3.99011 23.04 4.07011 22.28C4.95011 13.57 12.2201 7 20.9801 7C29.7401 7 37.0101 13.56 37.8901 22.26C37.9701 23.02 37.6101 23.75 36.9701 24.15C36.6401 24.36 36.2801 24.46 35.9101 24.46C35.5401 24.46 35.1901 24.36 34.8701 24.17C34.3201 23.83 33.4301 23.63 32.5001 23.63C30.9501 23.63 30.0501 24.14 29.9001 24.33C29.5101 24.81 28.9301 25.07 28.3501 25.07H28.3601Z" fill="#221F1F"/>
<path d="M9.50008 21.63C11.3601 21.63 12.9501 22.22 13.6401 23.07C14.8601 22.22 17.7001 21.63 21.0001 21.63C24.3001 21.63 27.1401 22.22 28.3601 23.07C29.0501 22.22 30.6501 21.63 32.5101 21.63C33.8801 21.63 35.0901 21.96 35.9201 22.46C35.1501 14.9 28.7601 9 21.0001 9C13.2401 9 6.84008 14.91 6.08008 22.48C6.91008 21.97 8.12008 21.63 9.50008 21.63Z" fill="#F0AA97"/>
<path d="M20.0001 9.04906C12.6901 9.52906 6.81008 15.2391 6.08008 22.4791C6.91008 21.9691 8.12008 21.6291 9.50008 21.6291C11.3601 21.6291 12.9501 22.2191 13.6401 23.0691C14.7301 22.3091 17.1301 21.7591 20.0001 21.6491V9.03906V9.04906Z" fill="#D88C7D"/>
<path d="M26.9701 24.4298C26.7601 24.4298 26.5501 24.3998 26.3401 24.3298C25.0101 23.8898 23.0701 23.6398 21.0001 23.6398C18.9301 23.6398 16.9901 23.8898 15.6601 24.3298C15.4501 24.3998 15.2401 24.4298 15.0301 24.4298C14.6001 24.4298 14.1801 24.2898 13.8301 24.0298C13.3101 23.6298 13.0101 23.0098 13.0401 22.3498C13.3501 14.9598 15.9701 7.00977 21.0001 7.00977C26.0301 7.00977 28.6601 14.9598 28.9601 22.3498C28.9901 23.0098 28.6901 23.6398 28.1701 24.0298C27.8201 24.2998 27.3901 24.4298 26.9701 24.4298Z" fill="#221F1F"/>
<path d="M20.9998 21.6302C23.3698 21.6302 25.4998 21.9402 26.9698 22.4202C26.6598 14.8802 24.0998 8.99023 20.9998 8.99023C17.8998 8.99023 15.3498 14.8702 15.0298 22.4202C16.4998 21.9302 18.6198 21.6302 20.9998 21.6302Z" fill="#F0AA97"/>
<path d="M16.6298 13.7207C15.7498 16.0507 15.1698 19.0707 15.0298 22.4207C16.4998 21.9307 18.6198 21.6307 20.9998 21.6307C23.3798 21.6307 25.4598 21.9307 26.9198 22.4107C24.8398 18.5507 21.1798 15.4507 16.6298 13.7207Z" fill="#D88C7D"/>
</svg>
