<svg width="42" height="42" viewBox="0 0 42 42" fill="none" xmlns="http://www.w3.org/2000/svg">
<path fill-rule="evenodd" clip-rule="evenodd" d="M22.15 6.60922L33.21 12.5092C34 12.9292 34.5 13.7592 34.5 14.6592V27.3292C34.5 28.2292 34 29.0592 33.21 29.4792L22.15 35.3792C21.43 35.7592 20.57 35.7592 19.85 35.3792L8.79 29.4792C8 29.0592 7.5 28.2292 7.5 27.3292V14.6592C7.5 13.7592 8 12.9292 8.79 12.5092L19.85 6.60922C20.57 6.22922 21.43 6.22922 22.15 6.60922Z" fill="#CAE5FF"/>
<path fill-rule="evenodd" clip-rule="evenodd" d="M21 39.6703C22.05 39.6703 23.1 39.4103 24.03 38.9103L35.09 33.0103C37.19 31.8903 38.5 29.7103 38.5 27.3303V14.6603C38.5 12.2803 37.19 10.1003 35.09 8.98031L24.03 3.08031C23.1 2.58031 22.05 2.32031 21 2.32031C19.95 2.32031 18.9 2.58031 17.97 3.08031L6.91 8.98031C4.81 10.1003 3.5 12.2803 3.5 14.6603V27.3303C3.5 29.7103 4.81 31.8903 6.91 33.0103L17.97 38.9103C18.9 39.4103 19.95 39.6703 21 39.6703Z" fill="white"/>
<path fill-rule="evenodd" clip-rule="evenodd" d="M21 37.6703C20.27 37.6703 19.55 37.4903 18.91 37.1503L7.85 31.2503C6.4 30.4803 5.5 28.9803 5.5 27.3303V14.6603C5.5 13.0203 6.4 11.5203 7.85 10.7403L18.91 4.84031C19.55 4.50031 20.27 4.32031 21 4.32031C21.73 4.32031 22.45 4.50031 23.09 4.84031L34.15 10.7403C35.6 11.5103 36.5 13.0103 36.5 14.6603V27.3303C36.5 28.9703 35.6 30.4703 34.15 31.2503L23.09 37.1503C22.45 37.4903 21.73 37.6703 21 37.6703Z" fill="#221F1F"/>
<path fill-rule="evenodd" clip-rule="evenodd" d="M20.9999 22.1201C20.3299 22.1201 19.6599 21.9501 19.0699 21.6401L6.91983 15.1601C6.42983 14.9001 6.07983 14.4501 5.92983 13.9201C5.77983 13.3901 5.86983 12.8201 6.14983 12.3501C6.55983 11.6801 7.14983 11.1201 7.83983 10.7501L18.8999 4.85008C19.5399 4.51008 20.2599 4.33008 20.9899 4.33008C21.7199 4.33008 22.4399 4.51008 23.0799 4.85008L34.1399 10.7501C34.8399 11.1201 35.4199 11.6801 35.8299 12.3501C36.1199 12.8201 36.1999 13.3901 36.0499 13.9201C35.9099 14.4501 35.5499 14.9001 35.0599 15.1601L22.9099 21.6401C22.3199 21.9601 21.6499 22.1201 20.9799 22.1201H20.9999Z" fill="#221F1F"/>
<path fill-rule="evenodd" clip-rule="evenodd" d="M34.1403 13.3892C33.9203 13.0292 33.6003 12.7192 33.2103 12.5092L24.9303 8.09922L22.1403 6.60922C21.4203 6.22922 20.5603 6.22922 19.8403 6.60922L17.0503 8.09922L8.77033 12.5092C8.38033 12.7192 8.06033 13.0292 7.84033 13.3892L19.9903 19.8692C20.6103 20.1992 21.3503 20.1992 21.9603 19.8692L34.1103 13.3892H34.1403Z" fill="white"/>
<path d="M21 14.2695C22.1046 14.2695 23 13.7099 23 13.0195C23 12.3292 22.1046 11.7695 21 11.7695C19.8954 11.7695 19 12.3292 19 13.0195C19 13.7099 19.8954 14.2695 21 14.2695Z" fill="#221F1F"/>
<path d="M22 21.0703H20V36.0803H22V21.0703Z" fill="#221F1F"/>
<path fill-rule="evenodd" clip-rule="evenodd" d="M7.5 15.4709V27.3409C7.5 28.2409 8 29.0709 8.79 29.4909L19.98 35.4609H20V23.6109C20 22.7209 19.51 21.8909 18.72 21.4709L7.5 15.4609V15.4709Z" fill="#A2D6FF"/>
<path fill-rule="evenodd" clip-rule="evenodd" d="M34.5 15.4709V27.3409C34.5 28.2409 34 29.0709 33.21 29.4909L22.02 35.4609H22V23.6109C22 22.7209 22.49 21.8909 23.28 21.4709L34.5 15.4609V15.4709Z" fill="#A2D6FF"/>
<path d="M27.0449 23.8915C27.1503 22.8918 26.746 22.0299 26.1418 21.9661C25.5377 21.9024 24.9625 22.6611 24.857 23.6607C24.7516 24.6604 25.1559 25.5224 25.7601 25.5861C26.3643 25.6498 26.9395 24.8911 27.0449 23.8915Z" fill="#221F1F"/>
<path d="M10.1883 22.5077C10.7937 22.4569 11.2163 21.6037 11.1322 20.6021C11.0481 19.6004 10.4891 18.8297 9.88371 18.8805C9.27833 18.9313 8.85575 19.7845 8.93986 20.7862C9.02397 21.7878 9.58291 22.5586 10.1883 22.5077Z" fill="#221F1F"/>
<path d="M13.8587 27.0839C14.4641 27.0331 14.8867 26.1799 14.8025 25.1783C14.7184 24.1766 14.1595 23.4058 13.5541 23.4567C12.9487 23.5075 12.5261 24.3607 12.6103 25.3623C12.6944 26.364 13.2533 27.1348 13.8587 27.0839Z" fill="#221F1F"/>
<path d="M17.5282 31.6524C18.1336 31.6015 18.5561 30.7483 18.472 29.7467C18.3879 28.7451 17.829 27.9743 17.2236 28.0251C16.6182 28.076 16.1956 28.9292 16.2797 29.9308C16.3638 30.9324 16.9228 31.7032 17.5282 31.6524Z" fill="#221F1F"/>
<path d="M32.3086 27.1649C32.414 26.1653 32.0097 25.3033 31.4055 25.2396C30.8013 25.1759 30.2261 25.9346 30.1207 26.9342C30.0153 27.9338 30.4196 28.7958 31.0238 28.8595C31.6279 28.9232 32.2032 28.1645 32.3086 27.1649Z" fill="#221F1F"/>
</svg>
