<svg width="42" height="42" viewBox="0 0 42 42" fill="none" xmlns="http://www.w3.org/2000/svg">
<path fill-rule="evenodd" clip-rule="evenodd" d="M12.3499 31C9.99988 31 7.88988 29.52 7.08988 27.31L2.33988 14.26C1.82988 12.86 1.88988 11.34 2.52988 9.98C3.15988 8.62 4.27988 7.6 5.68988 7.08L18.7299 2.34C19.3499 2.12 19.9899 2 20.6499 2C22.9999 2 25.1099 3.48 25.9099 5.69L30.6599 18.74C31.1699 20.14 31.1099 21.66 30.4699 23.02C29.8399 24.38 28.7199 25.4 27.3099 25.92L14.2599 30.67C13.6399 30.89 12.9999 31.01 12.3399 31.01L12.3499 31Z" fill="white"/>
<path fill-rule="evenodd" clip-rule="evenodd" d="M29.65 40.0002C29 40.0002 28.35 39.8902 27.74 39.6602L14.69 34.9102C13.28 34.4002 12.16 33.3702 11.53 32.0102C10.9 30.6502 10.83 29.1302 11.34 27.7302L16.09 14.6802C16.89 12.4702 19.01 10.9902 21.35 10.9902C22 10.9902 22.65 11.1002 23.26 11.3302L36.31 16.0802C37.72 16.5902 38.84 17.6202 39.47 18.9802C40.1 20.3402 40.17 21.8602 39.66 23.2602L34.91 36.3102C34.11 38.5202 31.99 40.0002 29.65 40.0002Z" fill="white"/>
<path fill-rule="evenodd" clip-rule="evenodd" d="M12.3498 29C10.8398 29 9.47977 28.05 8.96977 26.63L4.21977 13.58C3.88977 12.68 3.92977 11.7 4.33977 10.83C4.74977 9.96 5.46977 9.3 6.36977 8.97L19.4198 4.22C19.8198 4.08 20.2298 4 20.6498 4C22.1598 4 23.5198 4.95 24.0298 6.37L28.7798 19.42C29.1098 20.32 29.0698 21.3 28.6598 22.17C28.2498 23.04 27.5298 23.7 26.6298 24.03L13.5798 28.78C13.1798 28.92 12.7698 29 12.3498 29Z" fill="#221F1F"/>
<path d="M26.8982 20.1065L22.1475 7.05418C21.8453 6.22382 20.9272 5.79568 20.0968 6.0979L7.04442 10.8486C6.21405 11.1508 5.78592 12.0689 6.08814 12.8993L10.8388 25.9516C11.1411 26.782 12.0592 27.2101 12.8896 26.9079L25.9419 22.1573C26.7723 21.855 27.2004 20.9369 26.8982 20.1065Z" fill="#CAE5FF"/>
<path d="M18.1603 22.3802C18.8893 22.3802 19.4803 21.7892 19.4803 21.0602C19.4803 20.3312 18.8893 19.7402 18.1603 19.7402C17.4313 19.7402 16.8403 20.3312 16.8403 21.0602C16.8403 21.7892 17.4313 22.3802 18.1603 22.3802Z" fill="#221F1F"/>
<path d="M21.0602 16.1595C21.7892 16.1595 22.3802 15.5685 22.3802 14.8395C22.3802 14.1105 21.7892 13.5195 21.0602 13.5195C20.3312 13.5195 19.7402 14.1105 19.7402 14.8395C19.7402 15.5685 20.3312 16.1595 21.0602 16.1595Z" fill="#221F1F"/>
<path d="M11.9401 19.4798C12.6691 19.4798 13.2601 18.8889 13.2601 18.1598C13.2601 17.4308 12.6691 16.8398 11.9401 16.8398C11.2111 16.8398 10.6201 17.4308 10.6201 18.1598C10.6201 18.8889 11.2111 19.4798 11.9401 19.4798Z" fill="#221F1F"/>
<path d="M22.7101 20.7201C23.4391 20.7201 24.0301 20.1291 24.0301 19.4001C24.0301 18.6711 23.4391 18.0801 22.7101 18.0801C21.9811 18.0801 21.3901 18.6711 21.3901 19.4001C21.3901 20.1291 21.9811 20.7201 22.7101 20.7201Z" fill="#221F1F"/>
<path d="M13.5998 24.0306C14.3288 24.0306 14.9198 23.4396 14.9198 22.7106C14.9198 21.9816 14.3288 21.3906 13.5998 21.3906C12.8708 21.3906 12.2798 21.9816 12.2798 22.7106C12.2798 23.4396 12.8708 24.0306 13.5998 24.0306Z" fill="#221F1F"/>
<path d="M19.4001 11.6107C20.1291 11.6107 20.7201 11.0197 20.7201 10.2907C20.7201 9.56169 20.1291 8.9707 19.4001 8.9707C18.6711 8.9707 18.0801 9.56169 18.0801 10.2907C18.0801 11.0197 18.6711 11.6107 19.4001 11.6107Z" fill="#221F1F"/>
<path d="M10.2897 14.9193C11.0188 14.9193 11.6098 14.3283 11.6098 13.5993C11.6098 12.8703 11.0188 12.2793 10.2897 12.2793C9.56071 12.2793 8.96973 12.8703 8.96973 13.5993C8.96973 14.3283 9.56071 14.9193 10.2897 14.9193Z" fill="#221F1F"/>
<path fill-rule="evenodd" clip-rule="evenodd" d="M29.6498 38C29.2298 38 28.8198 37.93 28.4198 37.78L15.3698 33.03C14.4698 32.7 13.7398 32.04 13.3398 31.17C12.9298 30.3 12.8898 29.32 13.2198 28.42L17.9698 15.37C18.4898 13.95 19.8498 13 21.3498 13C21.7698 13 22.1798 13.07 22.5798 13.22L35.6298 17.97C36.5298 18.3 37.2598 18.96 37.6598 19.83C38.0698 20.7 38.1098 21.68 37.7798 22.58L33.0298 35.63C32.5098 37.05 31.1498 38 29.6498 38Z" fill="#221F1F"/>
<path d="M31.1461 34.9544L35.8967 21.902C36.1989 21.0717 35.7708 20.1535 34.9404 19.8513L21.8881 15.1006C21.0577 14.7984 20.1396 15.2266 19.8374 16.0569L15.0867 29.1093C14.7845 29.9396 15.2126 30.8578 16.043 31.16L29.0953 35.9107C29.9257 36.2129 30.8438 35.7847 31.1461 34.9544Z" fill="#CAE5FF"/>
<path fill-rule="evenodd" clip-rule="evenodd" d="M34.9497 19.8495L21.8997 15.0995C21.0697 14.7995 20.1497 15.2295 19.8497 16.0595L18.6797 19.2695L32.4197 31.4795L35.9097 21.8995C36.2097 21.0695 35.7797 20.1495 34.9497 19.8495Z" fill="white"/>
<path d="M19.2902 29.7201C20.0192 29.7201 20.6102 29.1291 20.6102 28.4001C20.6102 27.6711 20.0192 27.0801 19.2902 27.0801C18.5612 27.0801 17.9702 27.6711 17.9702 28.4001C17.9702 29.1291 18.5612 29.7201 19.2902 29.7201Z" fill="#221F1F"/>
<path d="M28.4001 33.0306C29.1291 33.0306 29.7201 32.4396 29.7201 31.7106C29.7201 30.9816 29.1291 30.3906 28.4001 30.3906C27.6711 30.3906 27.0801 30.9816 27.0801 31.7106C27.0801 32.4396 27.6711 33.0306 28.4001 33.0306Z" fill="#221F1F"/>
<path d="M22.5998 20.6107C23.3288 20.6107 23.9198 20.0197 23.9198 19.2907C23.9198 18.5617 23.3288 17.9707 22.5998 17.9707C21.8708 17.9707 21.2798 18.5617 21.2798 19.2907C21.2798 20.0197 21.8708 20.6107 22.5998 20.6107Z" fill="#221F1F"/>
<path d="M31.7101 23.9193C32.4391 23.9193 33.0301 23.3283 33.0301 22.5993C33.0301 21.8703 32.4391 21.2793 31.7101 21.2793C30.9811 21.2793 30.3901 21.8703 30.3901 22.5993C30.3901 23.3283 30.9811 23.9193 31.7101 23.9193Z" fill="#221F1F"/>
<path d="M25.4997 26.8197C26.2287 26.8197 26.8197 26.2287 26.8197 25.4997C26.8197 24.7707 26.2287 24.1797 25.4997 24.1797C24.7707 24.1797 24.1797 24.7707 24.1797 25.4997C24.1797 26.2287 24.7707 26.8197 25.4997 26.8197Z" fill="#221F1F"/>
</svg>
