<svg width="42" height="42" viewBox="0 0 42 42" fill="none" xmlns="http://www.w3.org/2000/svg">
<path d="M6 40C3.79 40 2 38.21 2 36V17C2 14.79 3.79 13 6 13H18C18 6.93 22.93 2 29 2C35.07 2 40 6.93 40 13V29C40 35.07 35.07 40 29 40H6Z" fill="white"/>
<path d="M4 17V36C4 37.1046 4.89543 38 6 38H29C30.1046 38 31 37.1046 31 36V17C31 15.8954 30.1046 15 29 15H6C4.89543 15 4 15.8954 4 17Z" fill="#221F1F"/>
<path d="M29 17H6V36H29V17Z" fill="#B9B9FF"/>
<path d="M29 17H15V36H29V17Z" fill="#9891F5"/>
<path d="M22 31C20.9 31 20 30.1 20 29V13C20 8.04 24.04 4 29 4C33.96 4 38 8.04 38 13V29C38 30.1 37.1 31 36 31H22Z" fill="#221F1F"/>
<path d="M29 6C25.13 6 22 9.13 22 13V29H36V13C36 9.13 32.87 6 29 6Z" fill="#B9B9FF"/>
<path d="M28 28.0001V6.08008C24.61 6.57008 22 9.47008 22 13.0001V28.0001H28Z" fill="#9891F5"/>
<path d="M29 38C24.04 38 20 33.96 20 29C20 24.04 24.04 20 29 20C33.96 20 38 24.04 38 29C38 33.96 33.96 38 29 38Z" fill="#221F1F"/>
<path d="M29 36C32.866 36 36 32.866 36 29C36 25.134 32.866 22 29 22C25.134 22 22 25.134 22 29C22 32.866 25.134 36 29 36Z" fill="#9891F5"/>
<path d="M29 34C31.7614 34 34 31.7614 34 29C34 26.2386 31.7614 24 29 24C26.2386 24 24 26.2386 24 29C24 31.7614 26.2386 34 29 34Z" fill="#221F1F"/>
<path d="M29 32C30.6569 32 32 30.6569 32 29C32 27.3431 30.6569 26 29 26C27.3431 26 26 27.3431 26 29C26 30.6569 27.3431 32 29 32Z" fill="#9891F5"/>
<path d="M29 30C29.5523 30 30 29.5523 30 29C30 28.4477 29.5523 28 29 28C28.4477 28 28 28.4477 28 29C28 29.5523 28.4477 30 29 30Z" fill="#221F1F"/>
</svg>
