<svg width="42" height="42" viewBox="0 0 42 42" fill="none" xmlns="http://www.w3.org/2000/svg">
<path d="M21 31.9992C13.28 31.9992 7 25.7192 7 17.9992V10.8992C7 9.83922 7.43 8.80922 8.18 8.06922C8.94 7.31922 9.94 6.89922 11 6.89922C14.33 6.90922 16.82 7.83922 18.61 8.79922C18.61 8.79922 18.62 8.78922 18.63 8.77922C21.41 5.74922 24.86 1.97922 30.98 1.94922C32.07 1.94922 33.07 2.35922 33.82 3.10922C34.57 3.84922 35 4.88922 35 5.94922V16.9992C35 17.7392 34.99 18.5392 34.92 19.3492C34.92 19.4292 34.92 19.5192 34.91 19.5992C34.89 19.7492 34.87 19.8792 34.85 20.0192L34.83 20.1492C34.8 20.3292 34.78 20.5192 34.74 20.7092C33.46 27.2592 27.68 32.0092 21.02 32.0092L21 31.9992Z" fill="white"/>
<path d="M31.0001 21.1595C30.9101 21.1595 30.8301 21.1595 30.7401 21.1395C25.0901 21.0495 21.9501 18.5995 19.1801 16.4295C18.7901 16.1295 18.4001 15.8195 18.0101 15.5295C17.5401 15.1795 17.2401 14.6295 17.2101 14.0395C17.1801 13.4495 17.4101 12.8695 17.8401 12.4695C18.6101 11.7395 19.3401 10.9595 20.1001 10.1195C22.7401 7.23945 25.7401 3.96945 30.9901 3.93945H31.0001C31.5301 3.93945 32.0401 4.14945 32.4101 4.51945C32.7901 4.89945 33.0001 5.40945 33.0001 5.93945V16.9895C33.0001 17.5895 32.7301 20.3195 32.2701 20.6995C31.9101 20.9895 31.4601 21.1495 31.0001 21.1495V21.1595Z" fill="#221F1F"/>
<path d="M19.21 13.9392C22.33 16.2692 25.1 19.1092 30.93 19.1492L31 19.1692V5.94922C25.32 5.97922 22.81 10.5592 19.21 13.9392Z" fill="#D88C7D"/>
<path d="M20.8801 39.9991C19.5101 39.9991 18.2401 39.5291 17.2001 38.6291C16.0201 37.6091 15.3701 36.1491 15.3701 34.5191C15.3701 33.0291 15.9501 31.6391 17.0101 30.6091C18.0401 29.5991 19.4201 29.0391 20.8801 29.0391C22.3401 29.0391 23.7301 29.6091 24.7601 30.6391C25.7901 31.6691 26.3601 33.0491 26.3601 34.5191C26.3601 36.1291 25.7201 37.5791 24.5701 38.5991C23.5401 39.5191 22.2601 39.9991 20.8901 39.9991H20.8801Z" fill="white"/>
<path d="M33.0002 17C33.0002 18.46 32.9702 19.81 32.5402 21.24C32.1102 22.67 31.7202 18.65 31.7202 18.65L32.2502 17.27L33.0102 17H33.0002Z" fill="#221F1F"/>
<path d="M23.5002 10.9192C25.9702 12.8492 27.6002 14.1192 30.9702 14.1392C30.9802 14.1392 30.9902 14.1392 31.0002 14.1392V5.94922C27.2602 5.96922 24.8902 7.96922 22.6802 10.2892C22.9602 10.4992 23.2302 10.7192 23.4902 10.9192H23.5002Z" fill="#F0AA97"/>
<path d="M21 30.0004C14.38 30.0004 9 24.6204 9 18.0004V10.9004C9 10.3704 9.21 9.86039 9.59 9.48039C9.97 9.11039 10.47 8.90039 11 8.90039C16.06 8.92039 19.02 11.2404 21.64 13.2904C24.27 15.3404 26.54 17.1204 30.93 17.1504C31.5 17.1504 32.04 17.4004 32.41 17.8204C32.79 18.2504 32.96 18.8104 32.9 19.3704C32.2 25.4304 27.08 29.9904 20.98 29.9904L21 30.0004Z" fill="#221F1F"/>
<path d="M21 28.0004C26.11 28.0004 30.35 24.1104 30.93 19.1504C21.02 19.0804 19.96 10.9404 11 10.9004V18.0004C11 23.5004 15.5 28.0004 21 28.0004Z" fill="#F0AA97"/>
<path d="M15.37 13.2306V11.6806C14.12 11.2006 12.71 10.9006 11 10.8906V17.9906C11 23.4906 15.5 27.9906 21 27.9906C22.42 27.9906 23.77 27.6806 25 27.1406C19.39 25.0006 15.36 19.5706 15.36 13.2306H15.37Z" fill="#D88C7D"/>
<path d="M20.8801 37.9991C20.0001 37.9991 19.1801 37.6991 18.5101 37.1191C17.7801 36.4791 17.3701 35.5591 17.3701 34.5191C17.3701 33.5591 17.7301 32.6991 18.4101 32.0391C19.0801 31.3891 19.9301 31.0391 20.8801 31.0391C21.8301 31.0391 22.6801 31.3891 23.3401 32.0491C24.0001 32.7091 24.3501 33.5591 24.3501 34.5091C24.3501 35.8291 23.7401 36.6391 23.2301 37.0991C22.5701 37.6891 21.7501 37.9991 20.8701 37.9991H20.8801Z" fill="#221F1F"/>
<path d="M20.7698 33.4502C19.9298 33.4502 19.1698 33.1602 18.5598 32.6202C18.0998 32.2002 17.5498 31.4502 17.5498 30.1902C17.5498 29.3902 17.6998 28.6602 17.9798 28.0202V27.9902C17.7898 28.0302 17.5798 28.0502 17.3598 28.0502C16.4698 28.0502 15.6698 27.7302 15.0398 27.1202C14.2198 26.3302 14.0498 25.4702 14.0498 24.8802C14.0498 23.8902 14.3698 22.9202 14.9898 21.9802C15.5898 21.0902 16.4298 20.3602 17.5098 19.8102C18.5598 19.2702 19.7798 18.9902 21.1298 18.9902C22.3698 18.9902 23.4998 19.2202 24.4898 19.6602C25.5498 20.1402 26.3998 20.8202 26.9998 21.6902C27.6398 22.6002 27.9598 23.6102 27.9598 24.7002C27.9598 25.5802 27.7598 26.3802 27.3498 27.0802C27.0198 27.6502 26.6198 28.1602 26.1598 28.5802C25.8298 28.8802 25.2498 29.3902 24.3998 30.0902C24.2598 30.2102 24.1298 30.3302 24.0398 30.4302C24.0098 30.5102 23.9598 30.6802 23.8998 30.9302C23.6098 32.4402 22.3998 33.4302 20.7798 33.4302L20.7698 33.4502Z" fill="#221F1F"/>
<path d="M25.3498 22.85C24.9498 22.28 24.3798 21.83 23.6498 21.5C22.9198 21.17 22.0698 21 21.1098 21C20.0798 21 19.1798 21.2 18.4098 21.6C17.6398 22 17.0498 22.5 16.6498 23.1C16.2498 23.7 16.0498 24.3 16.0498 24.89C16.0498 25.17 16.1798 25.44 16.4298 25.68C16.6798 25.93 16.9998 26.05 17.3698 26.05C17.9998 26.05 18.4198 25.7 18.6498 25C18.8898 24.33 19.1798 23.82 19.5198 23.48C19.8598 23.14 20.3998 22.96 21.1198 22.96C21.7398 22.96 22.2498 23.13 22.6398 23.47C23.0298 23.81 23.2298 24.23 23.2298 24.72C23.2298 24.97 23.1698 25.21 23.0398 25.43C22.9098 25.65 22.7498 25.84 22.5598 26.02C22.3698 26.2 22.0698 26.46 21.6398 26.81C21.1598 27.21 20.7698 27.55 20.4898 27.84C20.2098 28.13 19.9798 28.46 19.8098 28.84C19.6398 29.22 19.5498 29.67 19.5498 30.19C19.5498 30.61 19.6698 30.92 19.8998 31.13C20.1298 31.34 20.4198 31.45 20.7698 31.45C21.4298 31.45 21.8198 31.13 21.9498 30.48C22.0198 30.18 22.0798 29.96 22.1098 29.84C22.1498 29.72 22.1998 29.6 22.2598 29.48C22.3198 29.36 22.4298 29.23 22.5598 29.08C22.6998 28.93 22.8798 28.77 23.0998 28.57C23.9098 27.89 24.4798 27.4 24.7898 27.12C25.0998 26.84 25.3698 26.49 25.5998 26.09C25.8298 25.69 25.9398 25.23 25.9398 24.71C25.9398 24.04 25.7398 23.42 25.3398 22.85H25.3498Z" fill="white"/>
<path d="M20.8801 33.0393C20.4601 33.0393 20.1001 33.1793 19.8101 33.4693C19.5201 33.7493 19.3701 34.0993 19.3701 34.5193C19.3701 34.9893 19.5201 35.3493 19.8201 35.6093C20.1201 35.8693 20.4701 35.9993 20.8801 35.9993C21.2901 35.9993 21.6101 35.8693 21.9101 35.5993C22.2101 35.3293 22.3601 34.9693 22.3601 34.5093C22.3601 34.0893 22.2201 33.7393 21.9301 33.4593C21.6501 33.1793 21.3001 33.0293 20.8801 33.0293V33.0393Z" fill="white"/>
</svg>
