<svg width="42" height="42" viewBox="0 0 42 42" fill="none" xmlns="http://www.w3.org/2000/svg">
<path fill-rule="evenodd" clip-rule="evenodd" d="M18.5 35C9.4 35 2 27.6 2 18.5C2 9.4 9.4 2 18.5 2C27.6 2 35 9.4 35 18.5C35 27.6 27.6 35 18.5 35Z" fill="white"/>
<path d="M34.9998 39.9994C33.6598 39.9994 32.4098 39.4794 31.4598 38.5394L26.2998 33.3794C25.3598 32.4394 24.8398 31.1794 24.8398 29.8394C24.8398 28.4994 25.3598 27.2494 26.2998 26.2994C27.2098 25.3894 28.4998 24.8594 29.8298 24.8594C31.1598 24.8594 32.4498 25.3794 33.3698 26.2994L38.5298 31.4594C40.4798 33.4094 40.4798 36.5794 38.5298 38.5294C37.5898 39.4694 36.3298 39.9894 34.9898 39.9894L34.9998 39.9994Z" fill="white"/>
<path fill-rule="evenodd" clip-rule="evenodd" d="M18.5 33C10.5 33 4 26.5 4 18.5C4 10.5 10.5 4 18.5 4C26.5 4 33 10.5 33 18.5C33 26.5 26.5 33 18.5 33Z" fill="#221F1F"/>
<path d="M18.5 31C25.4036 31 31 25.4036 31 18.5C31 11.5964 25.4036 6 18.5 6C11.5964 6 6 11.5964 6 18.5C6 25.4036 11.5964 31 18.5 31Z" fill="#EDD286"/>
<path fill-rule="evenodd" clip-rule="evenodd" d="M18.5 29C12.71 29 8 24.29 8 18.5C8 12.71 12.71 8 18.5 8C24.29 8 29 12.71 29 18.5C29 24.29 24.29 29 18.5 29Z" fill="#221F1F"/>
<path fill-rule="evenodd" clip-rule="evenodd" d="M18.5 10C23.19 10 27 13.81 27 18.5C27 23.19 23.19 27 18.5 27C13.81 27 10 23.19 10 18.5C10 13.81 13.81 10 18.5 10Z" fill="white"/>
<path fill-rule="evenodd" clip-rule="evenodd" d="M35.0002 37.0009C34.4902 37.0009 33.9802 36.8009 33.5902 36.4109L28.4302 31.2509C27.6502 30.4709 27.6502 29.2009 28.4302 28.4209C29.2102 27.6409 30.4802 27.6409 31.2602 28.4209L36.4202 33.5809C37.2002 34.3609 37.2002 35.6309 36.4202 36.4109C36.0302 36.8009 35.5202 37.0009 35.0102 37.0009H35.0002Z" fill="#D88C7D"/>
<path d="M34.9998 38.0005C34.1998 38.0005 33.4498 37.6905 32.8798 37.1205L27.7198 31.9605C26.5498 30.7905 26.5498 28.8905 27.7198 27.7205C28.8498 26.5905 30.8298 26.5905 31.9598 27.7205L37.1198 32.8805C38.2898 34.0505 38.2898 35.9505 37.1198 37.1205C36.5498 37.6905 35.7998 38.0005 34.9998 38.0005ZM29.8398 28.8405C29.5698 28.8405 29.3198 28.9405 29.1298 29.1305C28.7398 29.5205 28.7398 30.1505 29.1298 30.5405L34.2898 35.7005C34.6698 36.0805 35.3298 36.0805 35.6998 35.7005C36.0898 35.3105 36.0898 34.6805 35.6998 34.2905L30.5398 29.1305C30.3498 28.9405 30.0998 28.8405 29.8298 28.8405H29.8398Z" fill="#221F1F"/>
<path fill-rule="evenodd" clip-rule="evenodd" d="M18.5 10C15.59 10 13.01 11.47 11.48 13.72C12.56 13.26 13.75 13 15 13C19.97 13 24 17.03 24 22C24 23.25 23.74 24.44 23.28 25.52C25.52 23.99 27 21.41 27 18.5C27 13.81 23.19 10 18.5 10Z" fill="#A2D6FF"/>
<path d="M14.3599 16.0591C13.8099 16.0591 13.3599 15.6091 13.3599 15.0591C13.3599 13.5691 14.5699 12.3691 16.0499 12.3691H16.7699C17.3199 12.3691 17.7699 12.8191 17.7699 13.3691C17.7699 13.9191 17.3199 14.3691 16.7699 14.3691H16.0499C15.6699 14.3691 15.3599 14.6791 15.3599 15.0591C15.3599 15.6091 14.9099 16.0591 14.3599 16.0591Z" fill="#221F1F"/>
<path d="M16.7801 24.6392H16.0601C14.5701 24.6392 13.3701 23.4292 13.3701 21.9492C13.3701 21.3992 13.8201 20.9492 14.3701 20.9492C14.9201 20.9492 15.3701 21.3992 15.3701 21.9492C15.3701 22.3292 15.6801 22.6392 16.0601 22.6392H16.7801C17.3301 22.6392 17.7801 23.0892 17.7801 23.6392C17.7801 24.1892 17.3301 24.6392 16.7801 24.6392Z" fill="#221F1F"/>
<path d="M22.64 16.0591C22.09 16.0591 21.64 15.6091 21.64 15.0591C21.64 14.6791 21.33 14.3691 20.95 14.3691H20.23C19.68 14.3691 19.23 13.9191 19.23 13.3691C19.23 12.8191 19.68 12.3691 20.23 12.3691H20.95C22.44 12.3691 23.64 13.5791 23.64 15.0591C23.64 15.6091 23.19 16.0591 22.64 16.0591Z" fill="#221F1F"/>
<path d="M20.9402 24.6392H20.2202C19.6702 24.6392 19.2202 24.1892 19.2202 23.6392C19.2202 23.0892 19.6702 22.6392 20.2202 22.6392H20.9402C21.3202 22.6392 21.6302 22.3292 21.6302 21.9492C21.6302 21.3992 22.0802 20.9492 22.6302 20.9492C23.1802 20.9492 23.6302 21.3992 23.6302 21.9492C23.6302 23.4392 22.4202 24.6392 20.9402 24.6392Z" fill="#221F1F"/>
<path d="M24 19.5H13C12.45 19.5 12 19.05 12 18.5C12 17.95 12.45 17.5 13 17.5H24C24.55 17.5 25 17.95 25 18.5C25 19.05 24.55 19.5 24 19.5Z" fill="#221F1F"/>
</svg>
