<svg width="42" height="42" viewBox="0 0 42 42" fill="none" xmlns="http://www.w3.org/2000/svg">
<path d="M20.9996 40.95C19.2671 40.95 17.8496 39.5325 17.8496 37.8V4.19999C17.8496 2.46749 19.2671 1.04999 20.9996 1.04999C22.7321 1.04999 24.1496 2.46749 24.1496 4.19999V37.8C24.1496 39.5325 22.7321 40.95 20.9996 40.95Z" fill="white"/>
<path d="M6.7828 6.29999H35.2063C38.3773 6.29999 40.9393 8.87249 40.9393 12.033V29.9565C40.9393 33.117 38.3668 35.6895 35.2063 35.6895H6.7828C3.6223 35.6895 1.0498 33.117 1.0498 29.9565V12.033C1.0498 8.87249 3.6223 6.29999 6.7828 6.29999Z" fill="white"/>
<path d="M6.7832 9.45001H35.2067C36.6347 9.45001 37.7897 10.605 37.7897 12.033V29.9565C37.7897 31.3845 36.6347 32.5395 35.2067 32.5395H6.7832C5.3552 32.5395 4.2002 31.3845 4.2002 29.9565V12.033C4.2002 10.605 5.3552 9.45001 6.7832 9.45001Z" fill="#D88C7D"/>
<path d="M35.217 9.45001H21V32.55H35.217C36.645 32.55 37.8 31.395 37.8 29.967V12.033C37.8 10.605 36.645 9.45001 35.217 9.45001Z" fill="#FFCCBD"/>
<path d="M35.2489 33.6H32.1094C31.5319 33.6 31.0594 33.1275 31.0594 32.55C31.0594 31.9725 31.5319 31.5 32.1094 31.5H35.2174C35.7949 31.5 36.2779 31.9725 36.2779 32.55C36.2779 33.1275 35.8264 33.6 35.2384 33.6H35.2489ZM27.9514 33.6H24.8434C24.2659 33.6 23.7934 33.1275 23.7934 32.55C23.7934 31.9725 24.2659 31.5 24.8434 31.5H27.9514C28.5289 31.5 29.0014 31.9725 29.0014 32.55C29.0014 33.1275 28.5289 33.6 27.9514 33.6ZM20.6854 33.6H17.5774C16.9999 33.6 16.5274 33.1275 16.5274 32.55C16.5274 31.9725 16.9999 31.5 17.5774 31.5H20.6854C21.2629 31.5 21.7354 31.9725 21.7354 32.55C21.7354 33.1275 21.2629 33.6 20.6854 33.6ZM13.4299 33.6H10.3219C9.74439 33.6 9.27189 33.1275 9.27189 32.55C9.27189 31.9725 9.74439 31.5 10.3219 31.5H13.4299C14.0074 31.5 14.4799 31.9725 14.4799 32.55C14.4799 33.1275 14.0074 33.6 13.4299 33.6ZM6.17439 33.5265C6.09039 33.5265 6.00639 33.5265 5.92239 33.495C4.47339 33.138 3.37089 31.9095 3.18189 30.4185C3.10839 29.841 3.51789 29.316 4.09539 29.2425C4.67289 29.1795 5.19789 29.5785 5.27139 30.156C5.35539 30.786 5.81739 31.3005 6.42639 31.4475C6.99339 31.584 7.33989 32.151 7.19289 32.718C7.07739 33.201 6.64689 33.516 6.17439 33.516V33.5265ZM37.8004 30.9015C37.2229 30.9015 36.7504 30.429 36.7504 29.8515V26.7435C36.7504 26.166 37.2229 25.6935 37.8004 25.6935C38.3779 25.6935 38.8504 26.166 38.8504 26.7435V29.8515C38.8504 30.429 38.3779 30.9015 37.8004 30.9015ZM4.20039 27.195C3.62289 27.195 3.15039 26.7225 3.15039 26.145V23.037C3.15039 22.4595 3.62289 21.987 4.20039 21.987C4.77789 21.987 5.25039 22.4595 5.25039 23.037V26.145C5.25039 26.7225 4.77789 27.195 4.20039 27.195ZM37.8004 23.6355C37.2229 23.6355 36.7504 23.163 36.7504 22.5855V19.4775C36.7504 18.9 37.2229 18.4275 37.8004 18.4275C38.3779 18.4275 38.8504 18.9 38.8504 19.4775V22.5855C38.8504 23.163 38.3779 23.6355 37.8004 23.6355ZM4.20039 19.929C3.62289 19.929 3.15039 19.4565 3.15039 18.879V15.771C3.15039 15.1935 3.62289 14.721 4.20039 14.721C4.77789 14.721 5.25039 15.1935 5.25039 15.771V18.879C5.25039 19.4565 4.77789 19.929 4.20039 19.929ZM37.8004 16.3695C37.2229 16.3695 36.7504 15.897 36.7504 15.3195V12.2115C36.7504 11.634 37.2229 11.1615 37.8004 11.1615C38.3779 11.1615 38.8504 11.634 38.8504 12.2115V15.3195C38.8504 15.897 38.3779 16.3695 37.8004 16.3695ZM4.23189 12.6735C4.17939 12.6735 4.11639 12.6735 4.06389 12.663C3.49689 12.5685 3.09789 12.033 3.19239 11.4555C3.43389 9.97502 4.57839 8.77802 6.03789 8.47352C6.60489 8.35802 7.16139 8.71502 7.27689 9.29252C7.39239 9.85952 7.03539 10.416 6.45789 10.5315C5.83839 10.6575 5.35539 11.1615 5.26089 11.7915C5.17689 12.306 4.73589 12.6735 4.22139 12.6735H4.23189ZM35.3014 10.5C35.3014 10.5 35.2804 10.5 35.2594 10.5H32.1829C31.6054 10.5 31.1329 10.0275 31.1329 9.45002C31.1329 8.87252 31.6054 8.40002 32.1829 8.40002H35.2069C35.2069 8.40002 35.3224 8.40002 35.3329 8.40002C35.9104 8.42102 36.3619 8.90402 36.3409 9.49202C36.3199 10.059 35.8579 10.5 35.2909 10.5H35.3014ZM28.0354 10.5H24.9274C24.3499 10.5 23.8774 10.0275 23.8774 9.45002C23.8774 8.87252 24.3499 8.40002 24.9274 8.40002H28.0354C28.6129 8.40002 29.0854 8.87252 29.0854 9.45002C29.0854 10.0275 28.6129 10.5 28.0354 10.5ZM20.7799 10.5H17.6719C17.0944 10.5 16.6219 10.0275 16.6219 9.45002C16.6219 8.87252 17.0944 8.40002 17.6719 8.40002H20.7799C21.3574 8.40002 21.8299 8.87252 21.8299 9.45002C21.8299 10.0275 21.3574 10.5 20.7799 10.5ZM13.5139 10.5H10.4059C9.82839 10.5 9.35589 10.0275 9.35589 9.45002C9.35589 8.87252 9.82839 8.40002 10.4059 8.40002H13.5139C14.0914 8.40002 14.5639 8.87252 14.5639 9.45002C14.5639 10.0275 14.0914 10.5 13.5139 10.5Z" fill="#221F1F"/>
<path d="M35.217 10.5C36.0675 10.5 36.75 11.193 36.75 12.033V29.9565C36.75 30.807 36.057 31.4895 35.217 31.4895H21V33.5895H35.217C37.2225 33.5895 38.85 31.962 38.85 29.9565V12.033C38.85 10.0275 37.2225 8.40002 35.217 8.40002H21V10.5H35.217Z" fill="#221F1F"/>
<path d="M21.0002 38.85C20.4227 38.85 19.9502 38.3775 19.9502 37.8V4.20002C19.9502 3.62252 20.4227 3.15002 21.0002 3.15002C21.5777 3.15002 22.0502 3.62252 22.0502 4.20002V37.8C22.0502 38.3775 21.5777 38.85 21.0002 38.85Z" fill="#221F1F"/>
<path d="M30.9746 22.05C30.7331 22.05 30.4916 21.966 30.2921 21.798L26.6171 18.648C26.1761 18.27 26.1236 17.6085 26.5016 17.1675C26.8796 16.7265 27.5411 16.674 27.9821 17.052L31.6571 20.202C32.0981 20.58 32.1506 21.2415 31.7726 21.6825C31.5626 21.924 31.2686 22.05 30.9746 22.05Z" fill="#221F1F"/>
<path d="M27.3004 25.2C27.0064 25.2 26.7124 25.074 26.5024 24.8325C26.1244 24.3915 26.1769 23.73 26.6179 23.352L28.1404 22.05H12.0754C11.4979 22.05 11.0254 21.5775 11.0254 21C11.0254 20.4225 11.4979 19.95 12.0754 19.95H30.9754C31.4164 19.95 31.8049 20.223 31.9624 20.6325C32.1199 21.042 31.9939 21.504 31.6579 21.798L27.9829 24.948C27.7834 25.116 27.5419 25.2 27.3004 25.2Z" fill="#221F1F"/>
</svg>
