<svg width="42" height="42" viewBox="0 0 42 42" fill="none" xmlns="http://www.w3.org/2000/svg">
<path d="M35.5002 24.9L35.4002 24.8C34.8002 24.3 34.1002 23.8 34.1002 19.7V17.6C34.1002 12.2 30.9002 7.3 26.1002 5.2C25.2002 3.3 23.2002 2 21.0002 2C18.8002 2 16.8002 3.3 15.9002 5.2C11.1002 7.2 7.9002 12 7.9002 17.3V19.8C7.9002 23.9 7.2002 24.4 6.7002 24.9L6.6002 25C4.4002 26.8 3.2002 29.3 3.2002 32.1V33C3.2002 34.7 4.5002 36 6.2002 36H14.6002C15.8002 38.4 18.3002 40.1 21.1002 40.1C23.9002 40.1 26.4002 38.5 27.6002 36H35.9002C37.6002 36 38.9002 34.7 38.9002 33V32C38.9002 29.3 37.6002 26.7 35.5002 24.9Z" fill="white"/>
<path d="M21.0002 37C23.375 37 25.3002 35.0749 25.3002 32.7C25.3002 30.3252 23.375 28.4 21.0002 28.4C18.6254 28.4 16.7002 30.3252 16.7002 32.7C16.7002 35.0749 18.6254 37 21.0002 37Z" fill="#D0B366"/>
<path d="M21.0002 38C18.1002 38 15.7002 35.6 15.7002 32.7C15.7002 29.8 18.1002 27.4 21.0002 27.4C23.9002 27.4 26.3002 29.8 26.3002 32.7C26.3002 35.6 23.9002 38 21.0002 38ZM21.0002 29.4C19.2002 29.4 17.7002 30.9 17.7002 32.7C17.7002 34.5 19.2002 36 21.0002 36C22.8002 36 24.3002 34.5 24.3002 32.7C24.3002 30.9 22.8002 29.4 21.0002 29.4Z" fill="#221F1F"/>
<path fill-rule="evenodd" clip-rule="evenodd" d="M33.5006 27.1C32.4006 26.2 31.1006 25 31.1006 19.7V17.6C31.1006 12.9 28.0006 8.7 23.7006 7.5C23.6006 6.1 22.4006 5 21.0006 5C19.6006 5 18.4006 6.1 18.3006 7.5C14.0006 8.7 10.9006 12.6 10.9006 17.3V19.8C10.9006 25.2 9.60059 26.3 8.50059 27.2C7.10059 28.3 6.10059 30 6.10059 32V32.9H35.9006V32C35.9006 30 34.9006 28.3 33.5006 27.1Z" fill="#EDD286"/>
<path d="M35.9006 33.9H6.10059C5.50059 33.9 5.10059 33.5 5.10059 32.9V32C5.10059 29.8 6.10059 27.8 7.80059 26.4C7.80059 26.4 7.80059 26.4 7.90059 26.3C8.80059 25.6 9.90059 24.7 9.90059 19.7V17.2C9.90059 12.4 13.0006 8.2 17.5006 6.7C17.9006 5.2 19.3006 4 21.0006 4C22.7006 4 24.1006 5.2 24.6006 6.8C29.1006 8.3 32.2006 12.7 32.2006 17.6V19.7C32.2006 24.7 33.3006 25.6 34.2006 26.3C34.2006 26.3 34.2006 26.3 34.3006 26.4C36.0006 27.8 37.0006 29.8 37.0006 32V32.9C36.9006 33.5 36.4006 33.9 35.9006 33.9ZM7.10059 31.9H34.9006C34.9006 30.3 34.1006 28.9 32.9006 27.9L32.8006 27.8C31.4006 26.6 30.2006 25.1 30.2006 19.7V17.6C30.2006 13.3 27.4006 9.6 23.5006 8.5C23.0006 8.4 22.7006 8 22.7006 7.6C22.6006 6.7 21.9006 6 21.0006 6C20.1006 6 19.4006 6.7 19.3006 7.6C19.3006 8 19.0006 8.4 18.6006 8.5C14.6006 9.6 11.9006 13.2 11.9006 17.3V19.8C11.9006 25.2 10.7006 26.7 9.30059 27.9L9.20059 28C7.90059 28.9 7.20059 30.4 7.10059 31.9Z" fill="#221F1F"/>
<path d="M18.8002 9.39999C18.9002 9.29999 19.6002 8.59999 19.5002 8.49999C19.5002 8.39999 19.2002 8.39999 18.9002 8.39999C17.4002 8.79999 16.1002 9.49999 14.9002 10.5C13.0002 12.2 11.9002 14.7 11.9002 17.3V19.8C11.9002 25.2 10.7002 26.7 9.3002 27.9L9.2002 28C7.9002 29 7.2002 30.4 7.2002 32H14.2002C14.2002 30.4 14.6002 29 15.2002 28C15.2002 28 15.2002 27.9 15.3002 27.9C16.0002 26.7 16.6002 25.2 16.6002 19.8V17.3C16.6002 14.7 17.1002 12.3 18.1002 10.5C18.2002 10.1 18.5002 9.69999 18.8002 9.39999Z" fill="#D0B366"/>
</svg>
