<svg width="42" height="42" viewBox="0 0 42 42" fill="none" xmlns="http://www.w3.org/2000/svg">
<path d="M24.64 17.53C24.54 17.48 24.46 17.38 24.46 17.27C24.46 17.12 24.58 17.01 24.72 17.01H29C30.1 17.01 31 16.11 31 15.01V12.01C31 6.50001 26.51 2.01001 21 2.01001C15.49 2.01001 11 6.50001 11 12.01V21.72C9.13 23.97 8 26.86 8 30.01V38.01C8 39.11 8.9 40.01 10 40.01H32C33.1 40.01 34 39.11 34 38.01V30.01C34 24.1 30.04 19.12 24.64 17.54V17.53Z" fill="white"/>
<path d="M21 19C27.07 19 32 23.93 32 30V38H10V30C10 23.93 14.93 19 21 19Z" fill="white"/>
<path d="M30.9993 36C30.4493 36 29.9993 35.55 29.9993 35V30C29.9993 28.95 29.8193 27.92 29.4593 26.94C29.2693 26.42 29.5393 25.85 30.0593 25.66C30.5793 25.47 31.1493 25.74 31.3393 26.26C31.7793 27.46 31.9993 28.72 31.9993 30V35C31.9993 35.55 31.5493 36 30.9993 36Z" fill="#221F1F"/>
<path d="M11 32.59C10.45 32.59 10 32.14 10 31.59V30C10 23.93 14.93 19 21 19C24.56 19 27.92 20.75 29.99 23.68C30.31 24.13 30.2 24.76 29.75 25.07C29.3 25.39 28.67 25.28 28.36 24.83C26.66 22.43 23.91 21 21 21C16.04 21 12 25.04 12 30V31.59C12 32.14 11.55 32.59 11 32.59Z" fill="#221F1F"/>
<path d="M11 35.9999C10.45 35.9999 10 35.5499 10 34.9999V34.4399C10 33.8899 10.45 33.4399 11 33.4399C11.55 33.4399 12 33.8899 12 34.4399V34.9999C12 35.5499 11.55 35.9999 11 35.9999Z" fill="#221F1F"/>
<path d="M27 38C26.45 38 26 37.55 26 37V35.79C26 35.24 26.45 34.79 27 34.79C27.55 34.79 28 35.24 28 35.79V37C28 37.55 27.55 38 27 38Z" fill="#221F1F"/>
<path d="M26.9993 33.94C26.4493 33.94 25.9993 33.49 25.9993 32.94V30C25.9993 27.24 23.7593 25 20.9993 25C19.9093 25 18.8693 25.35 17.9993 26C17.5593 26.33 16.9293 26.24 16.5993 25.8C16.2693 25.36 16.3593 24.73 16.7993 24.4C18.0193 23.48 19.4693 23 20.9993 23C24.8593 23 27.9993 26.14 27.9993 30V32.94C27.9993 33.49 27.5493 33.94 26.9993 33.94Z" fill="#221F1F"/>
<path d="M15 37.9999C14.45 37.9999 14 37.5499 14 36.9999V29.9999C14 28.9299 14.24 27.9099 14.7 26.9499C14.94 26.4499 15.54 26.2499 16.04 26.4899C16.54 26.7299 16.74 27.3299 16.5 27.8299C16.17 28.5099 16 29.2399 16 30.0099V37.0099C16 37.5599 15.55 38.0099 15 38.0099V37.9999Z" fill="#221F1F"/>
<path d="M23 37.9998C22.45 37.9998 22 37.5498 22 36.9998V33.5698C22 33.0198 22.45 32.5698 23 32.5698C23.55 32.5698 24 33.0198 24 33.5698V36.9998C24 37.5498 23.55 37.9998 23 37.9998Z" fill="#221F1F"/>
<path d="M19 38C18.45 38 18 37.55 18 37V30C18 28.35 19.35 27 21 27C22.65 27 24 28.35 24 30V30.6C24 31.15 23.55 31.6 23 31.6C22.45 31.6 22 31.15 22 30.6V30C22 29.45 21.55 29 21 29C20.45 29 20 29.45 20 30V37C20 37.55 19.55 38 19 38Z" fill="#221F1F"/>
<path d="M19 20.35V12C19 10.9 19.9 10 21 10C22.1 10 23 10.9 23 12V15H29V12C29 7.6 25.4 4 21 4C16.6 4 13 7.6 13 12V23.63C14.15 22.23 16.01 20.92 19 20.35Z" fill="#221F1F"/>
<path d="M17 21.95V12C17 9.79 18.79 8 21 8C23.21 8 25 9.79 25 12V13H27V12C27 8.69 24.31 6 21 6C17.69 6 15 8.69 15 12V23.31C15.6 22.77 16.27 22.31 17 21.95Z" fill="#C4C4C4"/>
</svg>
