<svg width="42" height="42" viewBox="0 0 42 42" fill="none" xmlns="http://www.w3.org/2000/svg">
<path d="M21 2C10.52 2 2 10.52 2 21V28.71C2 34.94 7.05 40 13.29 40H28.72C34.95 40 40.01 34.95 40.01 28.71V21C40 10.52 31.48 2 21 2Z" fill="white"/>
<path d="M37.0009 26C36.4509 26 36.0009 25.55 36.0009 25V21C36.0009 20.39 35.9609 19.78 35.8909 19.17C35.8209 18.62 36.2109 18.12 36.7609 18.06C37.3009 17.98 37.8109 18.38 37.8709 18.93C37.9509 19.61 38.0009 20.31 38.0009 21V25C38.0009 25.55 37.5509 26 37.0009 26Z" fill="#221F1F"/>
<path d="M36.31 17.3501C35.88 17.3501 35.49 17.0701 35.35 16.6401C34.09 12.5101 31.1 9.12013 27.15 7.33013C26.65 7.10013 26.42 6.51013 26.65 6.01013C26.88 5.51013 27.47 5.28013 27.97 5.51013C32.44 7.54013 35.83 11.3801 37.26 16.0601C37.42 16.5901 37.12 17.1501 36.6 17.3101C36.5 17.3401 36.4 17.3501 36.31 17.3501Z" fill="#221F1F"/>
<path d="M5.12916 19.95C5.12916 19.95 5.03916 19.95 4.99916 19.95C4.44916 19.88 4.06916 19.38 4.13916 18.83C5.22916 10.37 12.4792 4 20.9992 4C22.1492 4 23.2992 4.12 24.4192 4.35C24.9592 4.46 25.3092 4.99 25.1992 5.53C25.0892 6.07 24.5492 6.41 24.0192 6.31C23.0292 6.11 22.0192 6 21.0092 6C13.4892 6 7.09916 11.62 6.12916 19.08C6.06916 19.58 5.62916 19.95 5.13916 19.95H5.12916Z" fill="#221F1F"/>
<path d="M5 26.2599C4.45 26.2599 4 25.8099 4 25.2599V21.9199C4 21.3699 4.45 20.9199 5 20.9199C5.55 20.9199 6 21.3699 6 21.9199V25.2599C6 25.8099 5.55 26.2599 5 26.2599Z" fill="#221F1F"/>
<path d="M37.0005 31C36.9205 31 36.8505 31 36.7705 30.97C31.9105 29.82 31.9905 21.34 32.0005 20.98C32.0005 14.93 27.0705 10 21.0005 10C18.2105 10 15.5505 11.05 13.5005 12.96C13.1005 13.34 12.4605 13.32 12.0905 12.91C11.7105 12.51 11.7405 11.87 12.1405 11.5C14.5605 9.25001 17.7005 8.01001 21.0005 8.01001C28.1705 8.01001 34.0005 13.84 34.0005 21.01C33.9705 23.03 34.4905 28.39 37.2305 29.04C37.7705 29.17 38.1005 29.71 37.9705 30.24C37.8605 30.7 37.4505 31.01 37.0005 31.01V31Z" fill="#221F1F"/>
<path d="M9 23.9999C8.45 23.9999 8 23.5499 8 22.9999V20.9999C8 18.7399 8.59 16.5199 9.71 14.5699C9.98 14.0899 10.6 13.9199 11.07 14.1999C11.55 14.4699 11.72 15.0799 11.44 15.5599C10.5 17.2099 10 19.0899 10 20.9999V22.9999C10 23.5499 9.55 23.9999 9 23.9999Z" fill="#221F1F"/>
<path d="M32.9508 33.5201C32.7208 33.5201 32.4908 33.4401 32.3008 33.2801C28.0508 29.6201 28.0108 21.3501 28.0108 21.0001C28.0108 19.1101 27.2608 17.3401 25.9108 16.0101C25.5208 15.6201 25.5108 14.9901 25.9008 14.5901C26.2908 14.1901 26.9208 14.1901 27.3108 14.5801C29.0508 16.2901 30.0108 18.5701 30.0108 21.0001C30.0108 21.0801 30.0608 28.7001 33.6108 31.7701C34.0308 32.1301 34.0708 32.7601 33.7108 33.1801C33.5108 33.4101 33.2308 33.5301 32.9508 33.5301V33.5201Z" fill="#221F1F"/>
<path d="M13 22C12.45 22 12 21.55 12 21C12 16.04 16.04 12 21 12C22.16 12 23.28 12.22 24.35 12.65C24.86 12.86 25.11 13.44 24.9 13.95C24.69 14.46 24.11 14.71 23.6 14.5C22.77 14.17 21.89 14 21 14C17.14 14 14 17.14 14 21C14 21.55 13.55 22 13 22Z" fill="#221F1F"/>
<path d="M25 22C24.45 22 24 21.55 24 21C24 19.35 22.65 18 21 18C19.35 18 18 19.35 18 21C18 21.55 17.55 22 17 22C16.45 22 16 21.55 16 21C16 18.24 18.24 16 21 16C23.76 16 26 18.24 26 21C26 21.55 25.55 22 25 22Z" fill="#221F1F"/>
<path d="M12.9103 36.85C12.4503 36.85 12.0403 36.53 11.9303 36.07C11.8103 35.53 12.1503 35 12.6903 34.88C19.9003 33.27 20.0003 21.13 20.0003 21C20.0003 20.45 20.4503 20 21.0003 20C21.5503 20 22.0003 20.45 22.0003 21C22.0003 21.55 21.9003 34.87 13.1203 36.83C13.0503 36.85 12.9703 36.85 12.9003 36.85H12.9103Z" fill="#221F1F"/>
<path d="M7.96921 34.1299C7.50921 34.1299 7.09921 33.8199 6.99921 33.3499C6.87921 32.8099 7.20921 32.2799 7.74921 32.1499C8.89921 31.8799 9.95921 31.4599 10.8792 30.8899C11.3492 30.5999 11.9692 30.7499 12.2592 31.2199C12.5492 31.6899 12.3992 32.3099 11.9292 32.5999C10.8192 33.2799 9.55921 33.7899 8.19921 34.0999C8.11921 34.1199 8.04921 34.1299 7.97921 34.1299H7.96921Z" fill="#221F1F"/>
<path d="M13.93 30.57C13.7 30.57 13.48 30.49 13.29 30.34C12.87 29.98 12.81 29.35 13.17 28.93C15.96 25.6 16.01 21.05 16.01 21C16.01 20.45 16.46 20 17.01 20C17.56 20 18.01 20.45 18.01 21C18.01 21.21 17.97 26.31 14.7 30.21C14.5 30.45 14.22 30.57 13.93 30.57Z" fill="#221F1F"/>
<path d="M5.29059 30.82C4.81059 30.82 4.38059 30.47 4.30059 29.98C4.21059 29.44 4.58059 28.92 5.13059 28.83C11.8806 27.73 12.0006 21.27 12.0006 20.99C12.0006 20.44 12.4506 19.99 13.0006 19.99C13.5506 19.99 14.0006 20.44 14.0006 20.99C14.0006 21.07 13.9006 29.42 5.45059 30.8C5.40059 30.8 5.34059 30.81 5.29059 30.81V30.82Z" fill="#221F1F"/>
<path d="M19.3798 38.0299C19.0698 38.0299 18.7698 37.8899 18.5798 37.6299C18.2498 37.1899 18.3398 36.5599 18.7798 36.2299C19.1898 35.9299 19.5798 35.5799 19.9398 35.1899C20.3198 34.7899 20.9498 34.7699 21.3498 35.1499C21.7498 35.5299 21.7698 36.1599 21.3898 36.5599C20.9498 37.0299 20.4698 37.4499 19.9698 37.8299C19.7898 37.9599 19.5798 38.0299 19.3698 38.0299H19.3798Z" fill="#221F1F"/>
<path d="M22.2602 34.7401C22.0902 34.7401 21.9102 34.7001 21.7502 34.6001C21.2702 34.3201 21.1202 33.7001 21.4002 33.2301C22.2102 31.8701 22.8402 30.2201 23.2902 28.3301C23.4202 27.7901 23.9602 27.4701 24.4902 27.5901C25.0302 27.7201 25.3602 28.2601 25.2302 28.7901C24.7402 30.8801 24.0302 32.7201 23.1202 34.2501C22.9302 34.5701 22.6002 34.7401 22.2602 34.7401Z" fill="#221F1F"/>
<path d="M24.7503 26.8701C24.7503 26.8701 24.6603 26.8701 24.6203 26.8701C24.0703 26.8001 23.6903 26.3001 23.7603 25.7501C24.1103 23.1201 24.0003 21.0801 24.0003 21.0601C23.9703 20.5101 24.3903 20.0401 24.9403 20.0101C25.4903 19.9801 25.9603 20.4001 25.9903 20.9501C25.9903 21.0401 26.1103 23.1801 25.7303 26.0101C25.6603 26.5101 25.2303 26.8801 24.7403 26.8801L24.7503 26.8701Z" fill="#221F1F"/>
<path d="M29.5305 36.48C29.2605 36.48 29.0005 36.37 28.8005 36.16C26.6305 33.84 26.3405 31.44 26.3205 31.34C26.2605 30.79 26.6505 30.3 27.2005 30.23C27.7405 30.17 28.2405 30.56 28.3105 31.1C28.3105 31.15 28.5805 32.98 30.2605 34.79C30.6405 35.19 30.6105 35.83 30.2105 36.2C30.0205 36.38 29.7705 36.47 29.5305 36.47V36.48Z" fill="#221F1F"/>
</svg>
