<svg width="42" height="42" viewBox="0 0 42 42" fill="none" xmlns="http://www.w3.org/2000/svg">
<path d="M37.8633 4.39948L37.6743 4.21048C35.6583 2.20498 32.9703 1.10248 30.1143 1.10248C27.2583 1.10248 24.5703 2.20498 22.5543 4.21048L4.1373 22.47C2.1003 24.486 0.987305 27.174 0.987305 30.03C0.987305 32.886 2.1108 35.574 4.1373 37.59L4.3263 37.779C6.3423 39.7845 9.0303 40.887 11.8863 40.887C14.7423 40.887 17.4303 39.7845 19.4463 37.779L37.8633 19.5195C39.9003 17.5035 41.0133 14.8155 41.0133 11.9595C41.0133 9.10348 39.8898 6.41548 37.8633 4.39948Z" fill="white"/>
<path fill-rule="evenodd" clip-rule="evenodd" d="M22.1865 27.531C20.2545 27.531 18.312 26.796 16.842 25.3365L16.653 25.1475C15.225 23.73 14.4375 21.84 14.4375 19.824C14.4375 17.808 15.225 15.918 16.653 14.5005L24.7695 6.4575C27.72 3.528 32.508 3.528 35.4585 6.4575L35.6475 6.64649C37.0755 8.06399 37.863 9.95399 37.863 11.97C37.863 13.986 37.0755 15.876 35.6475 17.2935L27.531 25.3365C26.061 26.796 24.1185 27.531 22.1865 27.531ZM30.114 8.4525C29.253 8.4525 28.3815 8.77799 27.7305 9.42899L19.614 17.472C18.984 18.102 18.6375 18.9315 18.6375 19.8135C18.6375 20.6955 18.984 21.5355 19.614 22.155L19.803 22.344C21.1155 23.6565 23.2575 23.646 24.5805 22.344L32.697 14.301C33.327 13.671 33.6735 12.8415 33.6735 11.9595C33.6735 11.0775 33.327 10.2375 32.697 9.618L32.508 9.42899C31.8465 8.77799 30.9855 8.4525 30.1245 8.4525H30.114Z" fill="#C4C4C4"/>
<path d="M22.1867 28.581C19.8872 28.581 17.7242 27.699 16.1072 26.082L15.9182 25.893C14.2802 24.276 13.3877 22.1235 13.3877 19.824C13.3877 17.5245 14.2907 15.372 15.9182 13.755L24.0347 5.71201C27.3842 2.38351 32.8442 2.38351 36.2042 5.71201L36.3932 5.90101C38.0312 7.51801 38.9237 9.67051 38.9237 11.97C38.9237 14.2695 38.0207 16.422 36.3932 18.039L28.2767 26.082C26.6492 27.6885 24.4967 28.581 22.1867 28.581ZM30.1142 5.30251C28.4447 5.30251 26.7752 5.93251 25.5047 7.19251L17.3882 15.2355C16.1597 16.4535 15.4772 18.081 15.4772 19.8135C15.4772 21.546 16.1597 23.1735 17.3882 24.3915L17.5772 24.5805C18.8057 25.7985 20.4437 26.4705 22.1867 26.4705C23.9297 26.4705 25.5677 25.7985 26.7962 24.5805L34.9127 16.5375C36.1412 15.3195 36.8237 13.692 36.8237 11.9595C36.8237 10.227 36.1412 8.59951 34.9127 7.38151L34.7237 7.19251C33.4532 5.93251 31.7837 5.30251 30.1142 5.30251ZM22.1867 24.381C21.0527 24.381 19.9187 23.9505 19.0577 23.1L18.8687 22.911C18.0392 22.0815 17.5772 20.9895 17.5772 19.824C17.5772 18.6585 18.0392 17.556 18.8687 16.737L26.9852 8.69401C27.8147 7.86451 28.9277 7.41301 30.1142 7.41301C31.3007 7.41301 32.4032 7.86451 33.2432 8.69401L33.4322 8.88301C34.2617 9.70201 34.7237 10.8045 34.7237 11.97C34.7237 13.1355 34.2617 14.238 33.4322 15.057L25.3157 23.1C24.4547 23.961 23.3207 24.381 22.1867 24.381ZM30.1142 9.50251C29.4947 9.50251 28.9067 9.74401 28.4657 10.1745L20.3492 18.2175C19.9187 18.648 19.6772 19.215 19.6772 19.8135C19.6772 20.412 19.9187 20.9895 20.3492 21.4095L20.5382 21.5985C21.4517 22.5015 22.9322 22.5015 23.8352 21.5985L31.9517 13.5555C32.3822 13.125 32.6237 12.558 32.6237 11.9595C32.6237 11.361 32.3822 10.7835 31.9517 10.3635L31.7627 10.1745C31.3217 9.73351 30.7337 9.50251 30.1142 9.50251Z" fill="#221F1F"/>
<path fill-rule="evenodd" clip-rule="evenodd" d="M11.8857 37.7475C9.95372 37.7475 8.01122 37.0125 6.54122 35.553L6.35222 35.364C4.92422 33.9465 4.13672 32.0565 4.13672 30.0405C4.13672 28.0245 4.92422 26.1345 6.35222 24.717L14.4687 16.674C17.4192 13.755 22.2072 13.755 25.1577 16.674L25.3467 16.863C26.7747 18.2805 27.5622 20.1705 27.5622 22.1865C27.5622 24.2025 26.7747 26.0925 25.3467 27.51L17.2302 35.553C15.7602 37.0125 13.8177 37.7475 11.8857 37.7475ZM19.8132 18.669C18.9522 18.669 18.0807 18.9945 17.4297 19.6455L9.31322 27.6885C8.68322 28.3185 8.33672 29.148 8.33672 30.03C8.33672 30.912 8.68322 31.752 9.31322 32.3715L9.50222 32.5605C10.8147 33.8625 12.9567 33.8625 14.2797 32.5605L22.3962 24.5175C23.0262 23.8875 23.3727 23.058 23.3727 22.176C23.3727 21.294 23.0262 20.454 22.3962 19.8345L22.2072 19.6455C21.5457 18.9945 20.6847 18.669 19.8237 18.669H19.8132Z" fill="#C4C4C4"/>
<path d="M11.8857 38.7975C9.58617 38.7975 7.42317 37.9155 5.79567 36.2985L5.60667 36.1095C3.96867 34.4925 3.07617 32.34 3.07617 30.0405C3.07617 27.741 3.97917 25.5885 5.60667 23.9715L13.7232 15.9285C17.0832 12.6 22.5327 12.6 25.8927 15.9285L26.0817 16.1175C27.7197 17.7345 28.6122 19.887 28.6122 22.1865C28.6122 24.486 27.7092 26.6385 26.0817 28.2555L17.9652 36.2985C16.3482 37.905 14.1852 38.7975 11.8857 38.7975ZM19.8132 15.519C18.1437 15.519 16.4742 16.149 15.2037 17.409L7.08717 25.452C5.85867 26.67 5.17617 28.2975 5.17617 30.03C5.17617 31.7625 5.85867 33.39 7.08717 34.608L7.27617 34.797C8.50467 36.015 10.1427 36.687 11.8857 36.687C13.6287 36.687 15.2667 36.015 16.4952 34.797L24.6117 26.754C25.8402 25.536 26.5227 23.9085 26.5227 22.176C26.5227 20.4435 25.8402 18.816 24.6117 17.598L24.4227 17.409C23.1522 16.149 21.4827 15.519 19.8132 15.519ZM11.8857 34.5975C10.7517 34.5975 9.61767 34.167 8.75667 33.3165L8.56767 33.1275C7.73817 32.3085 7.27617 31.206 7.27617 30.0405C7.27617 28.875 7.73817 27.7725 8.56767 26.9535L16.6842 18.9105C17.5242 18.081 18.6267 17.6295 19.8132 17.6295C20.9997 17.6295 22.1022 18.081 22.9422 18.9105L23.1312 19.0995C23.9607 19.929 24.4227 21.021 24.4227 22.1865C24.4227 23.352 23.9607 24.4545 23.1312 25.2735L15.0147 33.3165C14.1537 34.167 13.0197 34.5975 11.8857 34.5975ZM19.8132 19.719C19.1937 19.719 18.6057 19.9605 18.1647 20.391L10.0482 28.434C9.61767 28.8645 9.37617 29.4315 9.37617 30.03C9.37617 30.6285 9.61767 31.206 10.0482 31.626L10.2372 31.815C11.1507 32.718 12.6207 32.718 13.5342 31.815L21.6507 23.772C22.0812 23.3415 22.3227 22.7745 22.3227 22.176C22.3227 21.5775 22.0812 21 21.6507 20.58L21.4617 20.391C21.0207 19.95 20.4327 19.719 19.8132 19.719Z" fill="#221F1F"/>
<path fill-rule="evenodd" clip-rule="evenodd" d="M28.3181 18.6375L24.5696 22.3545C23.3096 23.604 21.3146 23.646 19.9811 22.512L17.6396 26.019C18.9836 27.0165 20.5796 27.531 22.1757 27.531C24.1076 27.531 26.0501 26.796 27.5201 25.3365L30.4286 22.4595L28.3076 18.648L28.3181 18.6375Z" fill="#C4C4C4"/>
<path d="M22.1867 24.381C23.3207 24.381 24.4547 23.9505 25.3157 23.1L30.6707 17.7975L29.4002 16.0965L23.8457 21.609C22.9322 22.512 21.4622 22.512 20.5487 21.609L20.4752 21.5355L18.9947 23.016L19.0787 23.1C19.9397 23.961 21.0737 24.381 22.2077 24.381H22.1867ZM31.9412 19.488L26.7962 24.591C25.5677 25.809 23.9297 26.481 22.1867 26.481C20.4437 26.481 18.8057 25.809 17.5772 24.591L17.4932 24.507L16.0127 25.9875L16.1072 26.082C17.7347 27.6885 19.8872 28.581 22.1867 28.581C24.4862 28.581 26.6492 27.699 28.2767 26.082L33.2117 21.189L31.9412 19.488Z" fill="#221F1F"/>
</svg>
