<svg width="42" height="42" viewBox="0 0 42 42" fill="none" xmlns="http://www.w3.org/2000/svg">
<path d="M5.24961 39.9C3.51711 39.9 2.09961 38.4825 2.09961 36.75V7.35001C2.09961 5.61751 3.51711 4.20001 5.24961 4.20001H31.5311L31.7621 4.02151C32.7281 3.28651 33.8726 2.90851 35.0801 2.90851C36.7916 2.90851 38.4296 3.71701 39.4586 5.08201C41.2856 7.48651 40.8131 10.941 38.4086 12.768C38.1986 12.9255 37.9991 13.083 37.7996 13.23V36.75C37.7996 38.4825 36.3821 39.9 34.6496 39.9H5.24961Z" fill="white"/>
<path d="M34.65 7.35001H5.25V36.75H34.65V7.35001Z" fill="#B7EDB7"/>
<path fill-rule="evenodd" clip-rule="evenodd" d="M5.25 7.35001V36.75H34.65L5.25 7.35001Z" fill="#9CDB9C"/>
<path d="M34.6502 37.8H5.2502C4.6727 37.8 4.2002 37.3275 4.2002 36.75V7.34999C4.2002 6.77249 4.6727 6.29999 5.2502 6.29999H34.6502C35.2277 6.29999 35.7002 6.77249 35.7002 7.34999V36.75C35.7002 37.3275 35.2277 37.8 34.6502 37.8ZM6.3002 35.7H33.6002V8.39999H6.3002V35.7Z" fill="#221F1F"/>
<path fill-rule="evenodd" clip-rule="evenodd" d="M20.5277 30.0405C19.5407 30.0405 18.6377 29.421 18.3122 28.4655C18.2912 28.4235 16.3907 23.0685 11.9177 20.454C10.8047 19.803 10.4267 18.375 11.0777 17.2515C11.7287 16.1385 13.1567 15.7605 14.2802 16.4115C16.8947 17.934 18.8162 20.076 20.1602 22.0185C22.2392 17.955 25.0637 13.041 33.6632 6.52051C34.6922 5.74351 36.1622 5.94301 36.9392 6.97201C37.7162 8.00101 37.5167 9.47101 36.4877 10.248C22.8902 20.5695 22.8482 27.951 22.8377 28.035C22.6697 29.0955 21.7982 29.925 20.7272 30.0195C20.6537 30.0195 20.5907 30.0195 20.5172 30.0195L20.5277 30.0405Z" fill="white"/>
<path d="M20.5275 31.0905C19.0785 31.0905 17.787 30.177 17.325 28.812C17.3145 28.77 15.498 23.7615 11.3925 21.3675C10.6155 20.916 10.0485 20.181 9.82804 19.299C9.59704 18.4275 9.72304 17.514 10.1745 16.7265C11.1195 15.1095 13.1985 14.5635 14.805 15.5085C16.7265 16.632 18.4695 18.165 20.0025 20.0655C22.2075 16.0125 25.3785 11.4975 33.033 5.69097C34.524 4.55697 36.6555 4.85097 37.779 6.34197C38.913 7.83297 38.619 9.95398 37.128 11.088C24.6225 20.58 23.9295 27.342 23.898 28.077C23.898 28.1085 23.898 28.1715 23.8875 28.203C23.646 29.757 22.386 30.9435 20.832 31.08C20.7375 31.08 20.6325 31.0905 20.5275 31.0905ZM13.104 17.1465C12.663 17.1465 12.2325 17.3775 11.991 17.787C11.8125 18.081 11.7705 18.4275 11.8545 18.7635C11.9385 19.0995 12.159 19.3725 12.453 19.551C17.262 22.3545 19.2885 28.0665 19.3095 28.1295C19.488 28.6545 19.971 29.001 20.5275 29.001H20.643C21.231 28.9485 21.714 28.4865 21.8085 27.8985C21.8715 26.6175 22.869 19.2885 35.8575 9.42897C36.4245 8.99847 36.5295 8.18997 36.099 7.62297C35.889 7.34997 35.5845 7.17147 35.2485 7.12947C34.9125 7.08747 34.566 7.17147 34.293 7.38147C26.0505 13.6395 23.247 18.291 21.084 22.5225C20.916 22.848 20.5905 23.0685 20.2125 23.0895C19.8345 23.1105 19.488 22.9425 19.278 22.638C17.6925 20.349 15.834 18.564 13.734 17.3355C13.5345 17.22 13.3035 17.157 13.083 17.157L13.104 17.1465Z" fill="#221F1F"/>
</svg>
