<svg width="42" height="42" viewBox="0 0 42 42" fill="none" xmlns="http://www.w3.org/2000/svg">
<path d="M18.5002 39C17.0002 39 15.8002 38 15.5002 36.5L15.0002 33.7C14.3002 33.4 13.6002 33 12.9002 32.5L10.2002 33.5C9.90019 33.6 9.50019 33.7 9.20019 33.7C8.10019 33.7 7.10019 33.1 6.60019 32.2L4.10019 27.9C3.40019 26.6 3.70019 25 4.80019 24L7.00019 22.2C7.00019 21.8 7.00019 21.4 7.00019 21C7.00019 20.6 7.00019 20.2 7.10019 19.8L4.80019 18C3.70019 17.1 3.40019 15.5 4.10019 14.2L6.60019 9.9C7.10019 9 8.10019 8.4 9.20019 8.4C9.60019 8.4 9.90019 8.5 10.2002 8.6L12.9002 9.6C13.6002 9.1 14.3002 8.7 15.0002 8.4L15.5002 5.6C15.8002 4 17.0002 3 18.5002 3H23.5002C25.0002 3 26.2002 4 26.5002 5.5L27.0002 8.3C27.7002 8.6 28.4002 9 29.0002 9.5L31.7002 8.5C32.0002 8.4 32.4002 8.3 32.7002 8.3C33.8002 8.3 34.8002 8.9 35.3002 9.8L37.8002 14.1C38.5002 15.4 38.2002 17 37.1002 17.9L35.0002 19.8C35.0002 20.2 35.1002 20.6 35.1002 21C35.1002 21.4 35.1002 21.8 35.0002 22.2L37.2002 24C38.3002 24.9 38.6002 26.5 37.9002 27.8L35.4002 32.1C34.9002 33 33.9002 33.6 32.8002 33.6C32.4002 33.6 32.1002 33.5 31.8002 33.4L29.1002 32.4C28.4002 32.9 27.7002 33.3 27.0002 33.6L26.5002 36.4C26.2002 38 25.0002 39 23.5002 39H18.5002Z" fill="white"/>
<path fill-rule="evenodd" clip-rule="evenodd" d="M32.0002 21C32.0002 20.2 31.9002 19.4 31.7002 18.6L35.2002 15.7L32.7002 11.4L28.4002 13C27.2002 11.9 25.8002 11.1 24.2002 10.6L23.5002 6H18.5002L17.7002 10.5C16.1002 11 14.7002 11.8 13.5002 12.9L9.2002 11.3L6.7002 15.6L10.2002 18.5C10.1002 19.4 10.0002 20.2 10.0002 21C10.0002 21.8 10.1002 22.6 10.3002 23.4L6.8002 26.3L9.3002 30.6L13.6002 29C14.8002 30.1 16.2002 30.9 17.8002 31.4L18.6002 35.9H23.6002L24.4002 31.4C26.0002 30.9 27.4002 30.1 28.6002 29L32.9002 30.6L35.4002 26.3L31.9002 23.4C31.9002 22.6 32.0002 21.8 32.0002 21ZM21.0002 25.1C18.8002 25.1 16.9002 23.3 16.9002 21C16.9002 18.7 18.7002 16.9 21.0002 16.9C23.2002 16.9 25.1002 18.7 25.1002 21C25.1002 23.3 23.2002 25.1 21.0002 25.1Z" fill="#A2D6FF"/>
<path d="M23.5 37H18.5C18 37 17.6 36.7 17.5 36.2L16.7999 32.3C15.4999 31.8 14.3 31.1 13.3 30.3L9.59995 31.7C9.09995 31.9 8.59995 31.7 8.39995 31.3L5.89995 27C5.69995 26.6 5.79995 26 6.09995 25.7L9.09995 23.2C8.99995 22.3 8.99995 21.7 8.99995 21C8.99995 20.3 9.09995 19.7 9.19995 19L6.19995 16.5C5.79995 16.2 5.69995 15.7 5.99995 15.2L8.49995 10.9C8.69995 10.5 9.29995 10.3 9.69995 10.5L13.4 11.9C14.5 11 15.5999 10.3 16.9 9.9L17.6 6C17.6 5.3 18 5 18.5 5H23.5C24 5 24.4 5.3 24.5 5.8L25.2 9.7C26.5 10.2 27.7 10.9 28.7 11.7L32.4 10.3C32.9 10.1 33.3999 10.3 33.5999 10.7L36.0999 15C36.2999 15.4 36.2 16 35.9 16.3L32.9 18.8C33 19.5 33.0999 20.2 33.0999 20.8C33.0999 21.4 33 22.1 32.9 22.8L35.9 25.3C36.3 25.6 36.3999 26.1 36.0999 26.6L33.5999 30.9C33.3999 31.3 32.8 31.5 32.4 31.3L28.7 29.9C27.6 30.8 26.5 31.5 25.2 31.9L24.5 35.8C24.4 36.7 24 37 23.5 37ZM19.2999 35H22.6L23.2 31.4C23.3 31 23.5 30.7 23.9 30.6C25.2999 30.2 26.6 29.4 27.7 28.4C28 28.1 28.4 28.1 28.7 28.2L32.2 29.5L33.9 26.6L31.1 24.2C30.8 24 30.6999 23.6 30.7999 23.2C31 22.5 31 21.7 31 21C31 20.3 30.9 19.5 30.7999 18.8C30.6999 18.4 30.8 18.1 31.1 17.8L33.9 15.4L32.2 12.5L28.7 13.8C28.3 13.9 28 13.8 27.7 13.6C26.6 12.6 25.2999 11.8 23.9 11.4C23.5 11.3 23.3 11 23.2 10.6L22.7 7H19.4L18.7999 10.6C18.6999 11 18.5 11.3 18.1 11.4C16.7 11.8 15.4 12.6 14.3 13.6C14 13.9 13.6 13.9 13.3 13.8L9.79995 12.5L7.99995 15.4L10.8 17.8C11.1 18 11.2 18.4 11.1 18.8C11 19.5 11 20.3 11 21C11 21.7 11.1 22.5 11.2 23.2C11.3 23.6 11.2 23.9 10.9 24.2L7.99995 26.6L9.69995 29.5L13.2 28.2C13.6 28.1 13.9 28.2 14.2 28.4C15.3 29.4 16.6 30.2 18 30.6C18.4 30.7 18.6 31 18.7 31.4L19.2999 35ZM21 26.1C18.2 26.1 15.9 23.8 15.9 21C15.9 18.2 18.2 15.9 21 15.9C23.7999 15.9 26.1 18.2 26.1 21C26.1 23.8 23.7999 26.1 21 26.1ZM21 17.9C19.3 17.9 17.9 19.3 17.9 21C17.9 22.7 19.3 24.1 21 24.1C22.7 24.1 24.1 22.7 24.1 21C24.1 19.3 22.7 17.9 21 17.9Z" fill="#221F1F"/>
<path fill-rule="evenodd" clip-rule="evenodd" d="M19.9 25.9C17.7 25.4 16 23.5 15.9 21.2C14.4 18.9 13.3 16.4 12.6 13.6L9.7 12.5L8 15.4L10.8 17.8C11.1 18 11.2 18.4 11.1 18.8C11 19.5 11 20.3 11 21C11 21.7 11.1 22.5 11.2 23.2C11.3 23.6 11.2 23.9 10.9 24.2L8 26.6L9.7 29.5L13.2 28.2C13.6 28.1 13.9 28.2 14.2 28.4C15.3 29.4 16.6 30.2 18 30.6C18.4 30.7 18.6 31 18.7 31.4L19.3 35H22.6L23.2 31.4C23.3 31 23.5 30.7 23.9 30.6C24.4 30.4 24.9 30.2 25.4 30C23.5 28.9 21.6 27.5 19.9 25.9Z" fill="#8EBFE2"/>
</svg>
