<svg width="42" height="42" viewBox="0 0 42 42" fill="none" xmlns="http://www.w3.org/2000/svg">
<path d="M21.0004 4.20001C9.71289 4.20001 0.525391 13.3875 0.525391 24.675C0.525391 28.329 1.51239 31.92 3.39189 35.091C3.82239 35.8155 4.52589 36.3405 5.33439 36.54C5.58639 36.603 5.83839 36.6345 6.10089 36.6345C6.68889 36.6345 7.25589 36.477 7.74939 36.162L17.1679 30.408C18.2809 31.0905 19.5934 31.5 21.0004 31.5C22.4074 31.5 23.7094 31.101 24.8329 30.408L34.1884 36.12L34.2514 36.162C34.7449 36.4665 35.3224 36.6345 35.8999 36.6345C36.1519 36.6345 36.4039 36.603 36.6559 36.54C37.4644 36.3405 38.1784 35.805 38.6089 35.091C40.4779 31.9305 41.4754 28.329 41.4754 24.675C41.4754 13.3875 32.2879 4.20001 21.0004 4.20001Z" fill="white"/>
<path d="M27.8563 28.5285C28.5178 27.3525 28.8748 26.019 28.8748 24.675C28.8748 20.328 25.3468 16.8 20.9998 16.8C16.6528 16.8 13.1248 20.328 13.1248 24.675C13.1248 26.019 13.4713 27.3525 14.1433 28.5285L6.1003 33.474C4.5148 30.7965 3.6748 27.7515 3.6748 24.675C3.6748 15.12 11.4448 7.35001 20.9998 7.35001C30.5548 7.35001 38.3248 15.12 38.3248 24.675C38.3248 27.762 37.4848 30.807 35.8993 33.4845L27.8563 28.539V28.5285Z" fill="url(#paint0_linear_4242_326)"/>
<path d="M35.8995 34.5345C35.7105 34.5345 35.511 34.482 35.3535 34.377L27.3105 29.4315C26.8275 29.1375 26.67 28.5075 26.943 28.0245C27.5205 27.006 27.825 25.851 27.825 24.6855C27.825 20.9265 24.759 17.8605 21 17.8605C17.241 17.8605 14.175 20.9265 14.175 24.6855C14.175 25.851 14.4795 27.006 15.057 28.0245C15.33 28.518 15.1725 29.1375 14.6895 29.4315L6.6465 34.377C6.405 34.524 6.1215 34.566 5.8485 34.503C5.5755 34.44 5.3445 34.2615 5.1975 34.02C3.5175 31.185 2.625 27.951 2.625 24.675C2.625 14.5425 10.8675 6.29999 21 6.29999C31.1325 6.29999 39.375 14.5425 39.375 24.675C39.375 27.951 38.4825 31.1745 36.8025 34.02C36.6555 34.2615 36.4245 34.44 36.1515 34.503C36.0675 34.524 35.9835 34.5345 35.8995 34.5345ZM29.2215 28.14L35.511 32.0145C36.666 29.736 37.275 27.2265 37.275 24.6855C37.275 15.708 29.9775 8.41049 21 8.41049C12.0225 8.41049 4.725 15.708 4.725 24.6855C4.725 27.2265 5.334 29.7465 6.489 32.0145L12.7785 28.14C12.3165 27.048 12.075 25.8615 12.075 24.675C12.075 19.7505 16.0755 15.75 21 15.75C25.9245 15.75 29.925 19.7505 29.925 24.675C29.925 25.8615 29.6835 27.0375 29.2215 28.14Z" fill="#221F1F"/>
<path d="M21.0002 25.2C20.7167 25.2 20.4437 25.0845 20.2337 24.864C19.8347 24.444 19.8557 23.772 20.2862 23.3835L30.0512 14.2485C30.4712 13.8495 31.1432 13.8705 31.5317 14.301C31.9307 14.721 31.9097 15.393 31.4792 15.7815L21.7142 24.9165C21.5147 25.1055 21.2522 25.2 21.0002 25.2Z" fill="#221F1F"/>
<path d="M20.9996 27.3C22.7394 27.3 24.1496 25.8897 24.1496 24.15C24.1496 22.4103 22.7394 21 20.9996 21C19.2599 21 17.8496 22.4103 17.8496 24.15C17.8496 25.8897 19.2599 27.3 20.9996 27.3Z" fill="#9CDB9C"/>
<path d="M20.9998 28.35C18.6793 28.35 16.7998 26.4705 16.7998 24.15C16.7998 21.8295 18.6793 19.95 20.9998 19.95C23.3203 19.95 25.1998 21.8295 25.1998 24.15C25.1998 26.4705 23.3203 28.35 20.9998 28.35ZM20.9998 22.05C19.8448 22.05 18.8998 22.995 18.8998 24.15C18.8998 25.305 19.8448 26.25 20.9998 26.25C22.1548 26.25 23.0998 25.305 23.0998 24.15C23.0998 22.995 22.1548 22.05 20.9998 22.05Z" fill="#221F1F"/>
<defs>
<linearGradient id="paint0_linear_4242_326" x1="3.6748" y1="20.412" x2="38.3248" y2="20.412" gradientUnits="userSpaceOnUse">
<stop offset="0.28" stop-color="#F0AA97"/>
<stop offset="0.73" stop-color="#9CDB9C"/>
</linearGradient>
</defs>
</svg>
