<svg width="42" height="42" viewBox="0 0 42 42" fill="none" xmlns="http://www.w3.org/2000/svg">
<path d="M21.0004 4.20001C9.71289 4.20001 0.525391 13.3875 0.525391 24.675C0.525391 28.2555 1.48089 31.794 3.27639 34.9125C3.84339 35.8785 4.88289 36.4875 6.00639 36.4875C6.56289 36.4875 7.09839 36.3405 7.58139 36.0675L17.3464 30.534C18.4279 31.1535 19.6669 31.5105 20.9899 31.5105C22.3129 31.5105 23.5624 31.1535 24.6334 30.534L34.3984 36.0675C34.8814 36.3405 35.4169 36.4875 35.9734 36.4875C37.0969 36.4875 38.1364 35.889 38.7034 34.9125C40.5094 31.794 41.4649 28.2555 41.4649 24.675C41.4649 13.3875 32.2774 4.20001 20.9899 4.20001H21.0004Z" fill="white"/>
<path fill-rule="evenodd" clip-rule="evenodd" d="M11.9173 29.9145C11.0248 28.371 10.4998 26.586 10.4998 24.675C10.4998 18.8895 15.2143 14.175 20.9998 14.175C26.7853 14.175 31.4998 18.8895 31.4998 24.675C31.4998 26.586 30.9748 28.371 30.0823 29.9145L35.9938 33.327C37.4638 30.7755 38.3248 27.825 38.3248 24.675C38.3248 15.1095 30.5653 7.35001 20.9998 7.35001C11.4343 7.35001 3.6748 15.1095 3.6748 24.675C3.6748 27.8355 4.5358 30.786 6.0058 33.327L11.9173 29.9145Z" fill="#A2D6FF"/>
<path d="M35.9943 34.377C35.8158 34.377 35.6373 34.335 35.4693 34.2405L29.5578 30.828C29.3163 30.6915 29.1378 30.4605 29.0643 30.1875C28.9908 29.9145 29.0328 29.631 29.1693 29.3895C29.9988 27.951 30.4398 26.3235 30.4398 24.675C30.4398 19.467 26.1978 15.225 20.9898 15.225C15.7818 15.225 11.5398 19.467 11.5398 24.675C11.5398 26.3235 11.9808 27.951 12.8103 29.3895C12.9468 29.631 12.9888 29.9145 12.9153 30.1875C12.8418 30.4605 12.6633 30.6915 12.4218 30.828L6.51025 34.2405C6.00625 34.5345 5.36575 34.356 5.07175 33.852C3.45475 31.059 2.59375 27.8775 2.59375 24.6645C2.62525 14.5425 10.8678 6.29999 21.0003 6.29999C31.1328 6.29999 39.3753 14.5425 39.3753 24.675C39.3753 27.888 38.5248 31.059 36.8973 33.8625C36.6978 34.1985 36.3513 34.3875 35.9838 34.3875L35.9943 34.377ZM31.4793 29.5155L35.5848 31.8885C36.6978 29.652 37.2753 27.174 37.2753 24.6855C37.2753 15.708 29.9778 8.41049 21.0003 8.41049C12.0228 8.41049 4.72525 15.708 4.72525 24.6855C4.72525 27.174 5.31325 29.652 6.41575 31.8885L10.5213 29.5155C9.81775 28.0035 9.45025 26.3445 9.45025 24.675C9.45025 18.3015 14.6268 13.125 21.0003 13.125C27.3738 13.125 32.5503 18.3015 32.5503 24.675C32.5503 26.3445 32.1828 27.993 31.4793 29.5155Z" fill="#221F1F"/>
<path fill-rule="evenodd" clip-rule="evenodd" d="M11.4448 10.227L14.8678 16.1595C15.4348 15.75 16.0438 15.393 16.6843 15.1095L13.2613 9.18751C12.6313 9.50251 12.0223 9.83851 11.4343 10.227H11.4448ZM38.2723 23.625H31.4473C31.4788 23.9715 31.4998 24.318 31.4998 24.675C31.4998 25.032 31.4683 25.3785 31.4263 25.725H38.2828C38.3038 25.3785 38.3143 25.032 38.3143 24.675C38.3143 24.318 38.2828 23.9715 38.2618 23.625H38.2723ZM10.5523 23.625H3.7273C3.7063 23.9715 3.6748 24.318 3.6748 24.675C3.6748 25.032 3.6853 25.3785 3.7063 25.725H10.5628C10.5313 25.3785 10.4893 25.032 10.4893 24.675C10.4893 24.318 10.5103 23.9715 10.5418 23.625H10.5523ZM5.5123 16.947L11.4343 20.37C11.7283 19.7295 12.0748 19.1205 12.4843 18.5535L6.5518 15.1305C6.1633 15.708 5.8273 16.3275 5.5123 16.9575V16.947ZM19.9498 7.40251V14.2275C20.2963 14.196 20.6428 14.175 20.9998 14.175C21.3568 14.175 21.7033 14.196 22.0498 14.2275V7.40251C21.7033 7.38151 21.3568 7.35001 20.9998 7.35001C20.6428 7.35001 20.2963 7.38151 19.9498 7.40251ZM28.7278 9.18751L25.3048 15.1095C25.9453 15.4035 26.5543 15.75 27.1213 16.1595L30.5443 10.227C29.9668 9.83851 29.3473 9.50251 28.7173 9.18751H28.7278ZM35.4478 15.12L29.5153 18.543C29.9248 19.11 30.2818 19.719 30.5653 20.3595L36.4873 16.9365C36.1723 16.3065 35.8363 15.6975 35.4478 15.1095V15.12Z" fill="#221F1F"/>
<path d="M21.0002 25.2C20.7167 25.2 20.4437 25.0845 20.2337 24.864C19.8347 24.444 19.8557 23.772 20.2862 23.3835L30.0512 14.2485C30.4712 13.8495 31.1432 13.8705 31.5317 14.301C31.9307 14.721 31.9097 15.393 31.4792 15.7815L21.7142 24.9165C21.5147 25.1055 21.2522 25.2 21.0002 25.2Z" fill="#221F1F"/>
<path d="M20.9996 27.3C22.7394 27.3 24.1496 25.8897 24.1496 24.15C24.1496 22.4103 22.7394 21 20.9996 21C19.2599 21 17.8496 22.4103 17.8496 24.15C17.8496 25.8897 19.2599 27.3 20.9996 27.3Z" fill="#F0AA97"/>
<path d="M20.9998 28.35C18.6793 28.35 16.7998 26.4705 16.7998 24.15C16.7998 21.8295 18.6793 19.95 20.9998 19.95C23.3203 19.95 25.1998 21.8295 25.1998 24.15C25.1998 26.4705 23.3203 28.35 20.9998 28.35ZM20.9998 22.05C19.8448 22.05 18.8998 22.995 18.8998 24.15C18.8998 25.305 19.8448 26.25 20.9998 26.25C22.1548 26.25 23.0998 25.305 23.0998 24.15C23.0998 22.995 22.1548 22.05 20.9998 22.05Z" fill="#221F1F"/>
</svg>
