<svg width="42" height="42" viewBox="0 0 42 42" fill="none" xmlns="http://www.w3.org/2000/svg">
<path d="M20.9998 40.95C9.99581 40.95 1.0498 32.004 1.0498 21C1.0498 9.99599 9.99581 1.04999 20.9998 1.04999C32.0038 1.04999 40.9498 9.99599 40.9498 21C40.9498 32.004 32.0038 40.95 20.9998 40.95Z" fill="white"/>
<path d="M21.0002 37.8C30.2786 37.8 37.8002 30.2784 37.8002 21C37.8002 11.7216 30.2786 4.20001 21.0002 4.20001C11.7218 4.20001 4.2002 11.7216 4.2002 21C4.2002 30.2784 11.7218 37.8 21.0002 37.8Z" fill="#8FD2FF"/>
<path fill-rule="evenodd" clip-rule="evenodd" d="M21.0002 4.20001C17.0312 4.20001 13.3877 5.58601 10.5107 7.88551C10.6577 18.3435 19.1732 26.775 29.6627 26.775C32.3612 26.775 34.9232 26.208 37.2437 25.2105C37.5902 23.8665 37.8002 22.4595 37.8002 21C37.8002 11.718 30.2822 4.20001 21.0002 4.20001Z" fill="#CAE5FF"/>
<path d="M21.0004 38.85C11.1619 38.85 3.15039 30.8385 3.15039 21C3.15039 11.1615 11.1619 3.14999 21.0004 3.14999C30.8389 3.14999 38.8504 11.1615 38.8504 21C38.8504 30.8385 30.8389 38.85 21.0004 38.85ZM21.0004 5.24999C12.3169 5.24999 5.25039 12.3165 5.25039 21C5.25039 29.6835 12.3169 36.75 21.0004 36.75C29.6839 36.75 36.7504 29.6835 36.7504 21C36.7504 12.3165 29.6839 5.24999 21.0004 5.24999Z" fill="#221F1F"/>
<path d="M21.0005 38.85C15.173 38.85 10.6055 31.0065 10.6055 21C10.6055 10.9935 15.173 3.14999 21.0005 3.14999C26.828 3.14999 31.3955 10.9935 31.3955 21C31.3955 31.0065 26.828 38.85 21.0005 38.85ZM21.0005 5.24999C16.5065 5.24999 12.7055 12.4635 12.7055 21C12.7055 29.5365 16.5065 36.75 21.0005 36.75C25.4945 36.75 29.2955 29.5365 29.2955 21C29.2955 12.4635 25.4945 5.24999 21.0005 5.24999Z" fill="#221F1F"/>
<path d="M21.0002 38.85C20.4227 38.85 19.9502 38.3775 19.9502 37.8V4.19999C19.9502 3.62249 20.4227 3.14999 21.0002 3.14999C21.5777 3.14999 22.0502 3.62249 22.0502 4.19999V37.8C22.0502 38.3775 21.5777 38.85 21.0002 38.85Z" fill="#221F1F"/>
<path d="M37.8004 22.05H4.20039C3.62289 22.05 3.15039 21.5775 3.15039 21C3.15039 20.4225 3.62289 19.95 4.20039 19.95H37.8004C38.3779 19.95 38.8504 20.4225 38.8504 21C38.8504 21.5775 38.3779 22.05 37.8004 22.05Z" fill="#221F1F"/>
<path d="M33.3792 9.681C32.9067 9.1665 32.4027 8.673 31.8777 8.211C29.0427 10.92 25.2207 12.6 20.9997 12.6C16.7787 12.6 12.9462 10.92 10.1216 8.211C9.58612 8.6625 9.09262 9.156 8.62012 9.681C11.8332 12.789 16.1907 14.7 20.9997 14.7C25.8087 14.7 30.1662 12.7785 33.3792 9.681Z" fill="#221F1F"/>
<path d="M33.3792 32.319C32.9067 32.8335 32.4027 33.327 31.8777 33.789C29.0427 31.08 25.2207 29.4 20.9997 29.4C16.7787 29.4 12.9462 31.08 10.1216 33.789C9.58612 33.3375 9.09262 32.844 8.62012 32.319C11.8332 29.211 16.1907 27.3 20.9997 27.3C25.8087 27.3 30.1662 29.2215 33.3792 32.319Z" fill="#221F1F"/>
</svg>
