<svg width="42" height="42" viewBox="0 0 42 42" fill="none" xmlns="http://www.w3.org/2000/svg">
<path fill-rule="evenodd" clip-rule="evenodd" d="M38.3002 15.4C38.3002 12.9 36.6002 10.8 34.3002 10.2V6.8C34.3002 5.2 33.0002 4 31.5002 4H30.0002C28.5002 4 27.2002 5.2 27.2002 6.8V10.3C26.1002 10.6 25.1002 11.2 24.4002 12.1V6.8C24.4002 5.3 23.2002 4 21.6002 4H20.1002C18.6002 4 17.3002 5.2 17.3002 6.8V16C16.6002 15.2 15.6002 14.5 14.5002 14.2V6.8C14.7002 5.2 13.5002 4 12.0002 4H10.5002C9.0002 4 7.7002 5.2 7.7002 6.8V14.3C5.4002 14.9 3.7002 17 3.7002 19.5C3.7002 22 5.4002 24.1 7.7002 24.7V35.3C7.7002 36.8 8.9002 38.1 10.5002 38.1H12.0002C13.5002 38.1 14.8002 36.9 14.8002 35.3V29.5C15.5002 30.3 16.5002 31 17.6002 31.3V35.3C17.6002 36.8 18.8002 38.1 20.4002 38.1H21.9002C23.4002 38.1 24.7002 36.9 24.7002 35.3V31.3C25.8002 31 26.8002 30.4 27.5002 29.5V35.3C27.5002 36.8 28.7002 38.1 30.3002 38.1H31.8002C33.3002 38.1 34.6002 36.9 34.6002 35.3V20.6C36.6002 20 38.3002 17.9 38.3002 15.4Z" fill="white"/>
<path fill-rule="evenodd" clip-rule="evenodd" d="M21.7004 36H20.2004C19.8004 36 19.4004 35.7 19.4004 35.2V6.8C19.4004 6.4 19.7004 6 20.2004 6H21.7004C22.1004 6 22.5004 6.3 22.5004 6.8V35.3C22.5004 35.7 22.2004 36 21.7004 36Z" fill="#221F1F"/>
<path fill-rule="evenodd" clip-rule="evenodd" d="M31.5002 36H30.0002C29.6002 36 29.2002 35.7 29.2002 35.2V6.8C29.3002 6.3 29.6002 6 30.0002 6H31.5002C31.9002 6 32.3002 6.3 32.3002 6.8V35.3C32.3002 35.7 31.9002 36 31.5002 36Z" fill="#221F1F"/>
<path fill-rule="evenodd" clip-rule="evenodd" d="M10.5002 36H12.0002C12.4002 36 12.8002 35.7 12.8002 35.2V6.8C12.7002 6.3 12.4002 6 12.0002 6H10.5002C10.1002 6 9.7002 6.3 9.7002 6.8V35.3C9.7002 35.7 10.1002 36 10.5002 36Z" fill="#221F1F"/>
<path fill-rule="evenodd" clip-rule="evenodd" d="M9.1002 21.8H13.4002C14.7002 21.8 15.8002 20.7 15.8002 19.4C15.8002 18.1 14.7002 17 13.4002 17H9.1002C7.8002 17 6.7002 18.1 6.7002 19.4C6.7002 20.8 7.8002 21.8 9.1002 21.8Z" fill="white"/>
<path d="M13.4002 22.8H9.1002C7.2002 22.8 5.7002 21.3 5.7002 19.4C5.7002 17.5 7.2002 16 9.1002 16H13.4002C15.3002 16 16.8002 17.5 16.8002 19.4C16.8002 21.3 15.3002 22.8 13.4002 22.8ZM9.1002 18.1C8.3002 18.1 7.7002 18.7 7.7002 19.5C7.7002 20.3 8.3002 20.9 9.1002 20.9H13.4002C14.2002 20.9 14.8002 20.3 14.8002 19.5C14.8002 18.7 14.2002 18.1 13.4002 18.1H9.1002Z" fill="#221F1F"/>
<path fill-rule="evenodd" clip-rule="evenodd" d="M28.6002 17.8H32.9002C34.2002 17.8 35.3002 16.7 35.3002 15.4C35.3002 14.1 34.2002 13 32.9002 13H28.6002C27.3002 13 26.2002 14.1 26.2002 15.4C26.2002 16.8 27.3002 17.8 28.6002 17.8Z" fill="white"/>
<path d="M32.9002 18.8H28.6002C26.7002 18.8 25.2002 17.3 25.2002 15.4C25.2002 13.5 26.7002 12 28.6002 12H32.9002C34.8002 12 36.3002 13.5 36.3002 15.4C36.3002 17.3 34.8002 18.8 32.9002 18.8ZM28.6002 14.1C27.8002 14.1 27.2002 14.7 27.2002 15.5C27.2002 16.3 27.8002 16.9 28.6002 16.9H32.9002C33.7002 16.9 34.3002 16.3 34.3002 15.5C34.3002 14.7 33.7002 14.1 32.9002 14.1H28.6002Z" fill="#221F1F"/>
<path fill-rule="evenodd" clip-rule="evenodd" d="M18.9 28.4H23.2C24.5 28.4 25.6 27.3 25.6 26C25.6 24.7 24.5 23.6 23.2 23.6H18.9C17.6 23.6 16.5 24.7 16.5 26C16.5 27.3 17.5 28.4 18.9 28.4Z" fill="white"/>
<path d="M23.1004 29.4H18.8004C16.9004 29.4 15.4004 27.9 15.4004 26C15.4004 24.1 16.9004 22.6 18.8004 22.6H23.1004C25.0004 22.6 26.5004 24.1 26.5004 26C26.5004 27.9 25.0004 29.4 23.1004 29.4ZM18.9004 24.6C18.1004 24.6 17.5004 25.2 17.5004 26C17.5004 26.8 18.1004 27.4 18.9004 27.4H23.2004C24.0004 27.4 24.6004 26.8 24.6004 26C24.6004 25.2 24.0004 24.6 23.2004 24.6H18.9004Z" fill="#221F1F"/>
<path d="M17.5002 26C17.5002 26.8 18.1002 27.4 18.9002 27.4H22.4002L18.4002 24.7C17.8002 25 17.5002 25.4 17.5002 26ZM7.7002 19.4C7.7002 20.2 8.3002 20.8 9.1002 20.8H12.6002L8.6002 18.1C8.0002 18.4 7.7002 18.9 7.7002 19.4ZM28.0002 14.2C27.5002 14.4 27.2002 14.9 27.2002 15.5C27.2002 16.3 27.8002 16.9 28.6002 16.9H32.1002L28.0002 14.2Z" fill="#E0DEDE"/>
</svg>
