<svg width="42" height="42" viewBox="0 0 42 42" fill="none" xmlns="http://www.w3.org/2000/svg">
<path d="M6.7 37H35.3C37.9 37 40 34.9 40 32.3V9.7C40 7.1 37.9 5 35.3 5H6.7C4.1 5 2 7.1 2 9.7V32.3C2 34.9 4.1 37 6.7 37Z" fill="white"/>
<path fill-rule="evenodd" clip-rule="evenodd" d="M35.3 34H6.7C5.8 34 5 33.2 5 32.3V9.7C5 8.8 5.8 8 6.7 8H35.3C36.2 8 37 8.8 37 9.7V32.3C37 33.2 36.2 34 35.3 34Z" fill="#A2D6FF"/>
<path d="M35.3 35H6.7C5.2 35 4 33.8 4 32.3V9.7C4 8.2 5.2 7 6.7 7H35.3C36.8 7 38 8.2 38 9.7V32.3C38 33.8 36.8 35 35.3 35ZM6.7 9C6.3 9 6 9.3 6 9.7V32.3C6 32.7 6.3 33 6.7 33H35.3C35.7 33 36 32.7 36 32.3V9.7C36 9.3 35.7 9 35.3 9H6.7Z" fill="#221F1F"/>
<path fill-rule="evenodd" clip-rule="evenodd" d="M35.3 9H6.7C6.3 9 6 9.3 6 9.7V14H36V9.7C36 9.3 35.7 9 35.3 9Z" fill="#D88C7D"/>
<path d="M11.7 29.2C11.4 29.2 11.1 29.1 10.9 28.8C10.6 28.4 10.6001 27.7 11.1001 27.4L15.3001 24L11.1001 20.6C10.7001 20.3 10.6 19.6 10.9 19.2C11.2 18.8 11.9001 18.7 12.3001 19L17.4 23.1C17.6 23.3 17.8 23.6 17.8 23.9C17.8 24.2 17.7 24.5 17.4 24.7L12.3001 29C12.1001 29.1 11.9 29.2 11.7 29.2Z" fill="#221F1F"/>
<path d="M28.6998 29.4H20.2998C19.6998 29.4 19.2998 29 19.2998 28.4C19.2998 27.8 19.6998 27.4 20.2998 27.4H28.6998C29.2998 27.4 29.6998 27.8 29.6998 28.4C29.6998 29 29.2998 29.4 28.6998 29.4Z" fill="#221F1F"/>
<path d="M37 15.2H5C4.4 15.2 4 14.8 4 14.2C4 13.6 4.4 13.2 5 13.2H37C37.6 13.2 38 13.6 38 14.2C38 14.8 37.6 15.2 37 15.2Z" fill="#221F1F"/>
</svg>
