<svg width="42" height="42" viewBox="0 0 42 42" fill="none" xmlns="http://www.w3.org/2000/svg">
<path d="M5 32.1H23.3C21.9 32.4 20.9 33.6 20.9 35C20.9 36.7 22.2 38 23.9 38H25.7C26.8 38 27.8 37.7 28.7 37.2C29.6 37.7 30.7 38 31.7 38H33.5C35.2 38 36.5 36.7 36.5 35C36.5 33.6 35.5 32.4 34.1 32.1H37C38.7 32.1 40 30.8 40 29.1V12.9C40 11.2 38.7 9.9 37 9.9H36.5C36.4 9.9 36.3 9.9 36.1 9.9H34.2C35.5 9.6 36.4 8.4 36.4 7C36.4 5.3 35.1 4 33.4 4H31.6C30.5 4 29.5 4.3 28.6 4.8C27.7 4.3 26.6 4 25.6 4H23.8C22.1 4 20.8 5.3 20.8 7C20.8 8.4 21.7 9.6 23 9.9H20.8C20.7 9.9 20.6 9.9 20.4 9.9H5C3.3 9.9 2 11.2 2 12.9V29.1C2 30.8 3.3 32.1 5 32.1Z" fill="white"/>
<path d="M36.1004 11.8H20.9004V30H36.1004V11.8Z" fill="#A2D6FF"/>
<path fill-rule="evenodd" clip-rule="evenodd" d="M24.7 29.1H5V12.9H24.7" fill="#A2D6FF"/>
<path d="M24.7 30.1H5C4.4 30.1 4 29.7 4 29.1V12.9C4 12.3 4.4 11.9 5 11.9H24.7C25.3 11.9 25.7 12.3 25.7 12.9C25.7 13.5 25.3 13.9 24.7 13.9H6V28.1H24.7C25.3 28.1 25.7 28.5 25.7 29.1C25.7 29.7 25.3 30.1 24.7 30.1Z" fill="#221F1F"/>
<path fill-rule="evenodd" clip-rule="evenodd" d="M32.5996 29.1H36.9996V12.9H32.5996" fill="#A2D6FF"/>
<path d="M36.9996 30.1H32.5996C31.9996 30.1 31.5996 29.7 31.5996 29.1C31.5996 28.5 31.9996 28.1 32.5996 28.1H35.9996V13.9H32.5996C31.9996 13.9 31.5996 13.5 31.5996 12.9C31.5996 12.3 31.9996 11.9 32.5996 11.9H36.9996C37.5996 11.9 37.9996 12.3 37.9996 12.9V29.1C37.9996 29.7 37.5996 30.1 36.9996 30.1Z" fill="#221F1F"/>
<path d="M33.5002 36.1H31.7002C29.5002 36.1 27.7002 34.3 27.7002 32.1V10C27.7002 7.8 29.5002 6 31.7002 6H33.5002C34.1002 6 34.5002 6.4 34.5002 7C34.5002 7.6 34.1002 8 33.5002 8H31.7002C30.6002 8 29.7002 8.9 29.7002 10V32C29.7002 33.1 30.6002 34 31.7002 34H33.5002C34.1002 34 34.5002 34.4 34.5002 35C34.5002 35.6 34.0002 36.1 33.5002 36.1Z" fill="#221F1F"/>
<path d="M25.7004 36.1H23.9004C23.3004 36.1 22.9004 35.7 22.9004 35.1C22.9004 34.5 23.3004 34.1 23.9004 34.1H25.7004C26.8004 34.1 27.7004 33.2 27.7004 32.1V10C27.7004 8.9 26.8004 8 25.7004 8H23.9004C23.3004 8 22.9004 7.6 22.9004 7C22.9004 6.4 23.3004 6 23.9004 6H25.7004C27.9004 6 29.7004 7.8 29.7004 10V32C29.7004 34.3 27.9004 36.1 25.7004 36.1Z" fill="#221F1F"/>
<path d="M32.6002 25.7H24.7002C24.1002 25.7 23.7002 25.3 23.7002 24.7C23.7002 24.1 24.1002 23.7 24.7002 23.7H32.6002C33.2002 23.7 33.6002 24.1 33.6002 24.7C33.6002 25.3 33.2002 25.7 32.6002 25.7Z" fill="#221F1F"/>
</svg>
