<svg width="42" height="42" viewBox="0 0 42 42" fill="none" xmlns="http://www.w3.org/2000/svg">
<path d="M9.5 39C7.8 39 6.1 38.3 4.9 37.1C3.7 35.9 3 34.2 3 32.5C3 30.8 3.7 29.1 4.9 27.9L14.3 18.5C14.1 17.5 13.9 16.5 13.9 15.5C14 8.6 19.6 3 26.5 3C28 3 29.4 3.3 30.8 3.8C31.8 4.2 32.5 5 32.7 6C32.9 7 32.6 8 31.9 8.8L27.6 13L27.7 14.4L29.1 14.5L33.4 10.2C34 9.6 34.7 9.3 35.5 9.3C35.7 9.3 35.9 9.3 36.2 9.4C37.2 9.6 38 10.3 38.4 11.3C38.9 12.7 39.1 14.1 39.1 15.5C39 22.4 33.4 28 26.5 28C25.5 28 24.5 27.9 23.5 27.6L14.1 37C12.9 38.3 11.2 39 9.5 39Z" fill="white"/>
<path fill-rule="evenodd" clip-rule="evenodd" d="M35.4002 12.3L30.1002 17.6L24.9002 17.1L24.4002 11.9L29.7002 6.6C28.7002 6.2 27.6002 6 26.4002 6C21.1002 6 16.9002 10.3 16.9002 15.5C16.9002 16.8 17.2002 18.1 17.7002 19.3L7.0002 30C5.6002 31.4 5.6002 33.6 7.0002 34.9C7.7002 35.6 8.6002 35.9 9.5002 35.9C10.4002 35.9 11.3002 35.6 12.0002 34.9L22.7002 24.2C23.9002 24.7 25.1002 25 26.5002 25C31.8002 25 36.0002 20.7 36.0002 15.5C36.0002 14.4 35.8002 13.3 35.4002 12.3Z" fill="#E4E4E4"/>
<path d="M9.5 37C8.3 37 7.2 36.5 6.3 35.7C5.4 34.9 5 33.7 5 32.5C5 31.3 5.5 30.2 6.3 29.3L16.6 19C16.2 17.9 16 16.7 16 15.5C16 9.7 20.7 5 26.5 5C27.7 5 28.9 5.2 30.1 5.6C30.4 5.7 30.7 6 30.7 6.3C30.8 6.6 30.7 7 30.4 7.2L25.5 12.1L25.9 16L29.8 16.4L34.7 11.5C34.9 11.3 35.3 11.2 35.6 11.2C35.9 11.3 36.2 11.5 36.3 11.8C36.7 13 36.9 14.1 36.9 15.3C37 21.3 32.3 26 26.5 26C25.3 26 24.1 25.8 23 25.4L12.7 35.7C11.8 36.5 10.7 37 9.5 37ZM26.5 7C21.8 7 18 10.8 18 15.5C18 16.7 18.2 17.8 18.7 18.9C18.9 19.3 18.8 19.7 18.5 20L7.7 30.7C7.3 31.2 7 31.8 7 32.5C7 33.2 7.3 33.8 7.7 34.3C8.6 35.2 10.3 35.2 11.2 34.3L22 23.5C22.3 23.2 22.7 23.1 23.1 23.3C24.2 23.8 25.3 24 26.5 24C31.2 24 35 20.2 35 15.5C35 15.1 35 14.7 34.9 14.3L30.9 18.3C30.7 18.5 30.4 18.6 30.1 18.6L24.9 18.1C24.4 18.1 24 17.7 24 17.2L23.5 12C23.5 11.7 23.6 11.4 23.8 11.2L27.8 7.2C27.4 7 26.9 7 26.5 7Z" fill="#221F1F"/>
<path fill-rule="evenodd" clip-rule="evenodd" d="M18 15.5C18 20.2 21.8 24 26.5 24C31.2 24 35 20.2 35 15.5C35 15.1 35 14.7 34.9 14.3L30.9 18.3C30.7 18.5 30.4 18.6 30.1 18.6L24.9 18.1C24.4 18.1 24 17.7 24 17.2L23.5 12C23.5 11.7 23.6 11.4 23.8 11.2L27.8 7.2C27.4 7 26.9 7 26.5 7C21.8 7 18 10.8 18 15.5Z" fill="#E4E4E4"/>
<path fill-rule="evenodd" clip-rule="evenodd" d="M19.8004 10.2C18.6004 11.7 17.9004 13.5 17.9004 15.5C17.9004 20 21.5004 23.8 26.0004 24L19.8004 10.2Z" fill="#C4C4C4"/>
<path d="M32.9998 10.5C32.7998 10.7 32.4998 10.8 32.1998 10.8C31.5998 10.8 31.1998 10.3 31.1998 9.79999C31.1998 9.49999 31.2998 9.19999 31.4998 9.09999L31.2998 8.89999H30.0998L26.2998 12.7L26.8998 15.8L29.5998 16.1L33.6998 11.1L32.9998 10.5Z" fill="white"/>
</svg>
