<svg width="42" height="42" viewBox="0 0 42 42" fill="none" xmlns="http://www.w3.org/2000/svg">
<path d="M21 40C31.4934 40 40 31.4934 40 21C40 10.5066 31.4934 2 21 2C10.5066 2 2 10.5066 2 21C2 31.4934 10.5066 40 21 40Z" fill="white"/>
<path d="M21 37C29.8366 37 37 29.8366 37 21C37 12.1634 29.8366 5 21 5C12.1634 5 5 12.1634 5 21C5 29.8366 12.1634 37 21 37Z" fill="#F0AA97"/>
<path d="M21 38C11.6 38 4 30.4 4 21C4 11.6 11.6 4 21 4C30.4 4 38 11.6 38 21C38 30.4 30.4 38 21 38ZM21 6C12.7 6 6 12.7 6 21C6 29.3 12.7 36 21 36C29.3 36 36 29.3 36 21C36 12.7 29.3 6 21 6Z" fill="#221F1F"/>
<path fill-rule="evenodd" clip-rule="evenodd" d="M7.9 13.7C6.7 15.9 6 18.4 6 21C6 29.3 12.7 36 21 36C23.6 36 26.1 35.3 28.3 34.1C17.4 33.2 8.8 24.5 7.9 13.7Z" fill="#D88C7D"/>
<path d="M15.2998 22.2C14.6998 22.2 14.2998 21.8 14.2998 21.2V18.7C14.2998 18.1 14.6998 17.7 15.2998 17.7C15.8998 17.7 16.2998 18.1 16.2998 18.7V21.2C16.2998 21.8 15.8998 22.2 15.2998 22.2Z" fill="#221F1F"/>
<path d="M26.7002 22.2C26.1002 22.2 25.7002 21.8 25.7002 21.2V18.7C25.7002 18.1 26.1002 17.7 26.7002 17.7C27.3002 17.7 27.7002 18.1 27.7002 18.7V21.2C27.7002 21.8 27.3002 22.2 26.7002 22.2Z" fill="#221F1F"/>
<path d="M18.9001 19.9C18.8001 19.9 18.7001 19.9 18.6001 19.9L11.2001 17.6C10.7001 17.4 10.4001 16.9 10.5001 16.3C10.7001 15.8 11.2001 15.5 11.8001 15.6L19.2001 17.9C19.7001 18.1 20.0001 18.6 19.9001 19.2C19.7001 19.6 19.3001 19.9 18.9001 19.9Z" fill="#221F1F"/>
<path d="M23.0998 19.9C22.6998 19.9 22.2998 19.6 22.0998 19.2C21.8998 18.7 22.1998 18.1 22.7998 17.9L30.1998 15.6C30.6998 15.4 31.2998 15.7 31.4998 16.3C31.6998 16.8 31.3998 17.4 30.7998 17.6L23.3998 19.9C23.2998 19.9 23.1998 19.9 23.0998 19.9Z" fill="#221F1F"/>
<path d="M7.39998 29.9C6.99998 29.9 6.69998 29.7 6.49998 29.3C6.29998 28.8 6.49998 28.2 6.99998 28C11.4 25.9 16.1 24.9 21 24.9C25.9 24.9 30.5 25.9 34.8 27.9C35.3 28.1 35.5 28.7 35.3 29.2C35.1 29.7 34.5 29.9 34 29.7C30 27.8 25.6 26.9 21 26.9C16.4 26.9 12 27.9 7.79998 29.8C7.69998 29.9 7.49998 29.9 7.39998 29.9Z" fill="#221F1F"/>
</svg>
