<svg width="42" height="42" viewBox="0 0 42 42" fill="none" xmlns="http://www.w3.org/2000/svg">
<g clip-path="url(#clip0_4242_888)">
<path d="M21 40C31.4934 40 40 31.4934 40 21C40 10.5066 31.4934 2 21 2C10.5066 2 2 10.5066 2 21C2 31.4934 10.5066 40 21 40Z" fill="white"/>
<path d="M21 37C29.8366 37 37 29.8366 37 21C37 12.1634 29.8366 5 21 5C12.1634 5 5 12.1634 5 21C5 29.8366 12.1634 37 21 37Z" fill="#F7DF69"/>
<path d="M21 38C11.6 38 4 30.4 4 21C4 11.6 11.6 4 21 4C30.4 4 38 11.6 38 21C38 30.4 30.4 38 21 38ZM21 6C12.7 6 6 12.7 6 21C6 29.3 12.7 36 21 36C29.3 36 36 29.3 36 21C36 12.7 29.3 6 21 6Z" fill="#221F1F"/>
<path fill-rule="evenodd" clip-rule="evenodd" d="M35.4065 16.8434C34.6994 14.4392 33.4266 12.1765 31.5881 10.338C25.7191 4.46904 16.2439 4.46904 10.3749 10.338C8.53644 12.1765 7.26365 14.4392 6.55654 16.8434C14.9004 9.77234 27.1333 9.84305 35.4065 16.8434Z" fill="#69BAF4"/>
<path d="M15.2998 20.1C14.6998 20.1 14.2998 19.7 14.2998 19.1V16.6C14.2998 16 14.6998 15.6 15.2998 15.6C15.8998 15.6 16.2998 16 16.2998 16.6V19.1C16.2998 19.7 15.8998 20.1 15.2998 20.1Z" fill="#221F1F"/>
<path d="M26.7002 20.1C26.1002 20.1 25.7002 19.7 25.7002 19.1V16.6C25.7002 16 26.1002 15.6 26.7002 15.6C27.3002 15.6 27.7002 16 27.7002 16.6V19.1C27.7002 19.7 27.3002 20.1 26.7002 20.1Z" fill="#221F1F"/>
<path d="M12.5998 14.6C12.3998 14.6 12.0998 14.5 11.8998 14.3C11.4998 13.9 11.4998 13.3 11.7998 12.9L14.1998 10.3C14.5998 9.9 15.1998 9.9 15.5998 10.2C15.9998 10.6 15.9998 11.2 15.6998 11.6L13.2998 14.2C13.0998 14.5 12.8998 14.6 12.5998 14.6Z" fill="#221F1F"/>
<path d="M29.4001 14.6C29.1001 14.6 28.9001 14.5 28.7001 14.3L26.3 11.7C25.9 11.3 26.0001 10.7 26.4001 10.3C26.8001 9.9 27.4 9.9 27.8 10.4L30.2001 13C30.6001 13.4 30.5001 14 30.1001 14.4C29.9001 14.5 29.6001 14.6 29.4001 14.6Z" fill="#221F1F"/>
<path fill-rule="evenodd" clip-rule="evenodd" d="M30.1998 28.7C30.1998 32.9 26.0998 31 20.9998 31C15.8998 31 11.7998 32.9 11.7998 28.7C11.7998 24.5 15.8998 21.1 20.9998 21.1C26.0998 21.1 30.1998 24.5 30.1998 28.7Z" fill="#221F1F"/>
<path fill-rule="evenodd" clip-rule="evenodd" d="M17.0999 29.3C18.2999 29.2 19.5999 29 20.9999 29C22.3999 29 23.6999 29.1 24.8999 29.3C24.9999 29.3 25.0999 29.3 25.0999 29.3C24.3999 27.4 22.7999 26.1 20.9999 26.1C19.1999 26.1 17.4999 27.4 16.8999 29.3C16.8999 29.3 16.9999 29.3 17.0999 29.3Z" fill="#D88C7D"/>
</g>
<defs>
<clipPath id="clip0_4242_888">
<rect width="42" height="42" fill="white"/>
</clipPath>
</defs>
</svg>
