<svg width="42" height="42" viewBox="0 0 42 42" fill="none" xmlns="http://www.w3.org/2000/svg">
<path d="M35.9002 9.6C35.2002 7.5 33.2002 6.1 31.0002 6.1C29.2002 6.1 27.6002 7 26.7002 8.4L26.5002 8.7L23.5002 4.5C22.4002 3 20.7002 2.1 18.9002 2.1C17.7002 2.1 16.5002 2.5 15.6002 3.2C15.0002 3.6 14.6002 4 14.3002 4.5C13.5002 4.1 12.7002 3.9 11.8002 3.9C10.4002 3.9 9.00024 4.4 8.00024 5.4C6.70024 6.6 6.00024 8.4 6.20024 10.1C5.50024 10.4 4.80024 10.9 4.20024 11.5C2.40024 13.5 2.30024 16.4 3.70024 18.5C3.50024 18.7 3.30024 18.9 3.10024 19.1C2.10024 20.4 1.80024 22 2.10024 23.6C2.40024 25 3.20024 26.3 4.30024 27.1L15.2002 36.1C17.7002 38.5 20.9002 39.8 24.3002 39.8C27.8002 39.8 31.1002 38.4 33.6002 36L35.7002 33.9C39.6002 30 40.9002 24.1 39.1002 18.9L35.9002 9.6Z" fill="white"/>
<path d="M24.2998 37.8C21.3998 37.8 18.5998 36.7 16.4998 34.6L5.4998 25.6C4.7998 25.1 4.1998 24.2 3.9998 23.3C3.7998 22.3 3.9998 21.2 4.5998 20.4C5.1998 19.6 5.9998 19.1 6.8998 19L5.8998 18.1C4.3998 16.7 4.2998 14.4 5.5998 12.9C6.2998 12.1 7.2998 11.7 8.3998 11.7C8.4998 11.7 8.5998 11.7 8.6998 11.7C7.6998 10.2 7.8998 8.19997 9.2998 6.89997C9.9998 6.29997 10.8998 5.89997 11.7998 5.89997C12.7998 5.89997 13.7998 6.29997 14.4998 7.09997L15.0998 7.79997C15.0998 6.69997 15.5998 5.59997 16.5998 4.89997C17.1998 4.39997 17.9998 4.19997 18.7998 4.19997C19.9998 4.19997 21.0998 4.79997 21.7998 5.69997L26.6998 12.4C26.8998 11.9 27.0998 11.4 27.3998 10.9L28.2998 9.49997C28.8998 8.59997 29.8998 8.09997 30.9998 8.09997C32.3998 8.09997 33.5998 8.99997 33.9998 10.2L37.2998 19.4C38.8998 23.9 37.6998 29 34.3998 32.3L32.2998 34.4C30.0998 36.7 27.2998 37.8 24.2998 37.8Z" fill="#221F1F"/>
<path fill-rule="evenodd" clip-rule="evenodd" d="M35.4002 20.1L32.1002 10.9C31.8002 10 30.5002 9.8 29.9002 10.6L29.0002 12C28.4002 12.9 28.2002 14 28.5002 15L29.7002 19.9L20.2002 6.9C19.7002 6.1 18.6002 6 17.8002 6.5C17.0002 7 16.9002 8.1 17.4002 8.9L23.9002 17.8L22.6002 19.1L13.0002 8.5C12.4002 7.8 11.3002 7.8 10.6002 8.4C10.0002 9 9.90016 10 10.5002 10.7L20.2002 21.4L19.0002 22.6L9.50016 14C8.80016 13.4 7.70016 13.4 7.10016 14.1C6.50016 14.8 6.50016 15.9 7.20016 16.5L16.7002 25L15.5002 26.2L8.90015 21.3C8.00015 20.7 6.90016 20.7 6.30016 21.5C5.70016 22.2 6.00016 23.4 6.80016 24L17.8002 33.1C21.4002 36.7 27.2002 36.7 30.7002 33.1L32.8002 31C35.8002 28.2 36.7002 23.9 35.4002 20.1Z" fill="#F7DF69"/>
<path fill-rule="evenodd" clip-rule="evenodd" d="M27.3 16.7C21.6 22.7 25.6 28.9 25.7 28.9C25.9 29.2 26.2 29.3 26.5 29.3C26.7 29.3 26.9 29.2 27.1 29.1C27.6 28.8 27.7 28.2 27.4 27.7C27.3 27.5 24.4 22.9 28.6 18.2L27.3 16.7Z" fill="#F4AB69"/>
<path fill-rule="evenodd" clip-rule="evenodd" d="M15.5002 26.3L8.90015 21.4C8.00015 20.8 6.90016 20.8 6.30016 21.6C5.70016 22.4 6.00016 23.4 6.80016 24.1L17.8002 33.2C21.4002 36.8 27.2002 36.8 30.7002 33.2L32.8002 31.1C32.9002 31 33.0002 30.8 33.1002 30.7C23.3002 35.5 15.5002 26.3 15.5002 26.3Z" fill="#F4AB69"/>
</svg>
