<svg width="42" height="42" viewBox="0 0 42 42" fill="none" xmlns="http://www.w3.org/2000/svg">
<path d="M30.7003 3.40001C30.0003 3.30001 29.3003 3.20001 28.6003 3.20001C25.8003 3.20001 23.2003 4.30001 21.0003 6.30001C18.8003 4.30001 16.2003 3.20001 13.4003 3.20001C12.7003 3.20001 12.0003 3.30001 11.3003 3.40001C6.40031 4.40001 2.50031 8.60001 1.70031 13.9C1.00031 17.9 1.50031 28.5 19.6003 38.3L20.1003 38.6C20.4003 38.8 20.7003 38.8 21.1003 38.8C21.5003 38.8 21.8003 38.7 22.1003 38.6L22.6003 38.3C40.6003 28.5 41.1003 17.9 40.5003 13.8C39.5003 8.60001 35.7003 4.40001 30.7003 3.40001Z" fill="white"/>
<path fill-rule="evenodd" clip-rule="evenodd" d="M21.0003 35.7C-11.1997 18.1 12.1003 -3.70001 21.0003 11C29.9003 -3.70001 53.2003 18.1 21.0003 35.7Z" fill="#F0AA97"/>
<path d="M20.9998 36.8L20.4998 36.5C3.59983 27.3 3.09983 17.8 3.59983 14.2C4.29983 9.69999 7.49983 6.19999 11.5998 5.39999C15.0998 4.69999 18.4998 6.09999 20.8998 9.29999C23.2998 6.09999 26.6998 4.69999 30.2998 5.39999C34.3998 6.19999 37.5998 9.79999 38.2998 14.2C38.8998 17.9 38.2998 27.4 21.3998 36.6L20.9998 36.8ZM13.3998 7.19999C12.9998 7.19999 12.4998 7.19999 11.9998 7.29999C8.69983 7.99999 6.19983 10.8 5.59983 14.5C5.09983 17.7 5.69983 26 20.9998 34.6C36.2998 26 36.8998 17.7 36.3998 14.5C35.7998 10.8 33.2998 7.99999 29.9998 7.29999C26.8998 6.69999 23.8998 8.19999 21.8998 11.5L20.9998 12.9L20.0998 11.5C18.3998 8.69999 15.9998 7.19999 13.3998 7.19999Z" fill="#221F1F"/>
<path fill-rule="evenodd" clip-rule="evenodd" d="M5.70063 13.9C5.70063 14.1 5.60063 14.2 5.60063 14.4C5.10063 17.7 5.70063 26 21.0006 34.6C23.9006 33 26.2006 31.4 28.2006 29.9C18.8006 27.5 10.9006 21.7 5.70063 13.9Z" fill="#D88C7D"/>
</svg>
