<svg width="42" height="42" viewBox="0 0 42 42" fill="none" xmlns="http://www.w3.org/2000/svg">
<path d="M21 40C31.4934 40 40 31.4934 40 21C40 10.5066 31.4934 2 21 2C10.5066 2 2 10.5066 2 21C2 31.4934 10.5066 40 21 40Z" fill="white"/>
<path d="M21 37C29.8366 37 37 29.8366 37 21C37 12.1634 29.8366 5 21 5C12.1634 5 5 12.1634 5 21C5 29.8366 12.1634 37 21 37Z" fill="#F7DF69"/>
<path d="M21 38C11.6 38 4 30.4 4 21C4 11.6 11.6 4 21 4C30.4 4 38 11.6 38 21C38 30.4 30.4 38 21 38ZM21 6C12.7 6 6 12.7 6 21C6 29.3 12.7 36 21 36C29.3 36 36 29.3 36 21C36 12.7 29.3 6 21 6Z" fill="#221F1F"/>
<path fill-rule="evenodd" clip-rule="evenodd" d="M7.9 13.7C6.7 15.9 6 18.4 6 21C6 29.3 12.7 36 21 36C23.6 36 26.1 35.3 28.3 34.1C17.4 33.2 8.8 24.5 7.9 13.7Z" fill="#F4AB69"/>
<path fill-rule="evenodd" clip-rule="evenodd" d="M21.0001 21.4C17.2001 21.4 13.5001 21.2 10.1001 20.7C10.9001 26 15.5001 30 21.0001 30C26.5001 30 31.1001 26 31.9001 20.7C28.5001 21.2 24.8001 21.4 21.0001 21.4Z" fill="#221F1F"/>
<path d="M21.0001 31C15.1001 31 10.0001 26.6 9.1001 20.8C9.1001 20.5 9.2001 20.2 9.4001 19.9C9.6001 19.7 9.9001 19.6 10.3001 19.6C13.4001 20.1 17.0001 20.3 21.1001 20.3C25.1001 20.3 28.7001 20.1 31.9001 19.6C32.2001 19.6 32.5001 19.7 32.8001 19.9C33.0001 20.1 33.1001 20.4 33.1001 20.8C32.0001 26.6 26.9001 31 21.0001 31ZM11.4001 21.9C12.6001 26 16.5001 29 21.0001 29C25.5001 29 29.4001 26 30.6001 21.9C27.7001 22.2 24.5001 22.4 21.0001 22.4C17.5001 22.4 14.3001 22.2 11.4001 21.9Z" fill="#221F1F"/>
<path d="M17.9998 17C17.3998 17 16.9998 16.6 16.9998 16C16.9998 14.9 15.9998 13.9 14.8998 13.9C13.7998 13.9 12.7998 14.9 12.7998 16C12.7998 16.6 12.3998 17 11.7998 17C11.1998 17 10.7998 16.6 10.7998 16C10.7998 13.7 12.5998 11.9 14.8998 11.9C17.1998 11.9 18.9998 13.7 18.9998 16C18.9998 16.6 18.5998 17 17.9998 17Z" fill="#221F1F"/>
<path d="M30.2 17C29.6 17 29.2 16.6 29.2 16C29.2 14.9 28.2 13.9 27.1 13.9C26 13.9 25 14.9 25 16C25 16.6 24.6 17 24 17C23.4 17 23 16.6 23 16C23 13.7 24.8 11.9 27.1 11.9C29.4 11.9 31.2 13.7 31.2 16C31.2 16.6 30.8 17 30.2 17Z" fill="#221F1F"/>
<path fill-rule="evenodd" clip-rule="evenodd" d="M20.9999 25.1C23.8999 25.1 26.6999 24.9 29.2999 24.6C29.7999 23.8 30.2999 22.9 30.5999 21.9C24.2999 22.6 17.6999 22.6 11.3999 21.9C11.6999 22.9 12.0999 23.8 12.6999 24.6C15.2999 24.9 18.0999 25.1 20.9999 25.1Z" fill="white"/>
<path d="M20.9999 29.5C22.4358 29.5 23.5999 28.918 23.5999 28.2C23.5999 27.482 22.4358 26.9 20.9999 26.9C19.564 26.9 18.3999 27.482 18.3999 28.2C18.3999 28.918 19.564 29.5 20.9999 29.5Z" fill="#D88C7D"/>
</svg>
