<svg width="42" height="42" viewBox="0 0 42 42" fill="none" xmlns="http://www.w3.org/2000/svg">
<path d="M36.6 10.2C33.1 5.1 27.2 2 21 2C14.8 2 8.9 5.1 5.4 10.2C4 11.4 3.1 13.1 3 14.9C2.3 16.9 2 18.9 2 21C2 31.5 10.5 40 21 40C31.5 40 40 31.5 40 21C40 19 39.7 16.9 39 14.9C38.9 13.1 38 11.4 36.6 10.2Z" fill="white"/>
<path d="M21 37C29.8366 37 37 29.8366 37 21C37 12.1634 29.8366 5 21 5C12.1634 5 5 12.1634 5 21C5 29.8366 12.1634 37 21 37Z" fill="#F7DF69"/>
<path d="M21 38C11.6 38 4 30.4 4 21C4 11.6 11.6 4 21 4C30.4 4 38 11.6 38 21C38 30.4 30.4 38 21 38ZM21 6C12.7 6 6 12.7 6 21C6 29.3 12.7 36 21 36C29.3 36 36 29.3 36 21C36 12.7 29.3 6 21 6Z" fill="#221F1F"/>
<path fill-rule="evenodd" clip-rule="evenodd" d="M7.9 13.7C6.7 15.9 6 18.4 6 21C6 29.3 12.7 36 21 36C23.6 36 26.1 35.3 28.3 34.1C17.4 33.2 8.8 24.5 7.9 13.7Z" fill="#F4AB69"/>
<path fill-rule="evenodd" clip-rule="evenodd" d="M21.0004 26.2C19.5004 26.2 18.0004 26 16.6004 25.7C15.5004 25.5 14.8004 26.7 15.5004 27.5C16.8004 29.1 18.8004 30.1 21.0004 30.1C23.2004 30.1 25.2004 29.1 26.5004 27.5C27.2004 26.7 26.4004 25.4 25.4004 25.7C24.0004 26.1 22.5004 26.2 21.0004 26.2Z" fill="#221F1F"/>
<path d="M20.9999 30.9C18.5999 30.9 16.3999 29.8 14.8999 28C14.3999 27.4 14.2999 26.5 14.6999 25.8C15.0999 25.1 15.8999 24.7 16.7999 24.9C18.2999 25.2 19.6999 25.4 21.0999 25.4C22.8999 25.4 24.0999 25.3 25.2999 24.9C26.0999 24.7 26.8999 25 27.3999 25.7C27.8999 26.4 27.7999 27.4 27.2999 28C25.5999 29.9 23.3999 30.9 20.9999 30.9ZM16.3999 26.5C16.1999 26.5 16.0999 26.6 16.0999 26.7C15.9999 26.8 16.0999 26.9 16.0999 27C17.2999 28.5 19.0999 29.3 20.9999 29.3C22.8999 29.3 24.6999 28.5 25.8999 27C25.9999 26.8 25.9999 26.7 25.8999 26.6C25.7999 26.5 25.7999 26.4 25.5999 26.5C24.2999 26.8 22.8999 27 20.9999 27C19.5999 27 17.9999 26.8 16.3999 26.5Z" fill="#221F1F"/>
<path fill-rule="evenodd" clip-rule="evenodd" d="M12.9997 22.6C0.299684 17.3 8.09968 8.19998 11.9997 13.4C14.7997 7.39998 24.2997 14.7 12.9997 22.6Z" fill="#F0AA97"/>
<path d="M13 23.6C12.9 23.6 12.7 23.6 12.6 23.5C5.6 20.6 5 16.7 5 15.2C5.1 13.3 6.3 11.6 8.1 11.1C9.4 10.7 10.7 11 11.8 11.9C12.7 10.8 14 10.2 15.3 10.3C17.1 10.5 18.7 11.8 19.2 13.7C19.6 15.2 19.8 19.1 13.5 23.5C13.4 23.5 13.2 23.6 13 23.6ZM9.3 12.8C9.1 12.8 8.9 12.8 8.7 12.9C7.8 13.2 7.1 14.1 7 15.2C6.9 17.4 9.1 19.7 12.8 21.4C16.1 18.9 17.8 16.2 17.2 14.1C16.9 13 16.1 12.3 15.1 12.2C14.2 12.1 13.3 12.7 12.8 13.8C12.7 14.1 12.3 14.3 12 14.4C11.6 14.4 11.3 14.3 11.1 14C10.6 13.2 10 12.8 9.3 12.8Z" fill="#221F1F"/>
<path fill-rule="evenodd" clip-rule="evenodd" d="M29.0005 22.5999C41.7005 17.2999 33.9005 8.19995 30.0005 13.3999C27.2005 7.39995 17.7005 14.6999 29.0005 22.5999Z" fill="#F0AA97"/>
<path d="M29.0002 23.6C28.8002 23.6 28.6002 23.5 28.4002 23.4C22.1002 19 22.4002 15.1 22.7002 13.6C23.2002 11.7 24.8002 10.4 26.6002 10.2C28.0002 10.1 29.2002 10.7 30.1002 11.8C31.2002 10.9 32.5002 10.6 33.8002 11C35.5002 11.5 36.8002 13.2 36.9002 15.1C37.0002 16.6 36.4002 20.5 29.3002 23.5C29.3002 23.6 29.1002 23.6 29.0002 23.6ZM27.0002 12.2C26.9002 12.2 26.9002 12.2 26.8002 12.2C25.8002 12.3 25.0002 13.1 24.7002 14.1C24.1002 16.3 25.8002 19 29.1002 21.4C32.9002 19.7 35.0002 17.4 34.9002 15.2C34.8002 14.1 34.2002 13.2 33.2002 12.9C32.3002 12.6 31.4002 13 30.7002 14C30.5002 14.3 30.2002 14.4 29.8002 14.4C29.5002 14.4 29.1002 14.1 29.0002 13.8C28.6002 12.8 27.8002 12.2 27.0002 12.2Z" fill="#221F1F"/>
<path fill-rule="evenodd" clip-rule="evenodd" d="M7.10034 14.5C7.10034 14.7 7.00034 15 7.00034 15.2C6.90034 17.4 9.10034 19.7 12.9003 21.4C13.8003 20.8 14.5003 20.1 15.1003 19.5C12.1003 18.4 9.40034 16.7 7.10034 14.5Z" fill="#D88C7D"/>
<path fill-rule="evenodd" clip-rule="evenodd" d="M24.5996 15.5C24.7996 17.4 26.3996 19.5 29.0996 21.4C30.3996 20.8 31.4996 20.2 32.3996 19.5C29.4996 18.7 26.8996 17.3 24.5996 15.5Z" fill="#D88C7D"/>
</svg>
