<svg width="42" height="42" viewBox="0 0 42 42" fill="none" xmlns="http://www.w3.org/2000/svg">
<path d="M21 40C10.52 40 2 31.48 2 21C2 10.52 10.52 2 21 2C31.48 2 40 10.52 40 21C40 31.48 31.48 40 21 40Z" fill="white"/>
<path d="M21 37C29.8366 37 37 29.8366 37 21C37 12.1634 29.8366 5 21 5C12.1634 5 5 12.1634 5 21C5 29.8366 12.1634 37 21 37Z" fill="#F7DF69"/>
<path d="M21 38C11.63 38 4 30.37 4 21C4 11.63 11.63 4 21 4C30.37 4 38 11.63 38 21C38 30.37 30.37 38 21 38ZM21 6C12.73 6 6 12.73 6 21C6 29.27 12.73 36 21 36C29.27 36 36 29.27 36 21C36 12.73 29.27 6 21 6Z" fill="#221F1F"/>
<path fill-rule="evenodd" clip-rule="evenodd" d="M7.88 13.74C6.68 15.89 6 18.37 6 21C6 29.27 12.73 36 21 36C23.63 36 26.1 35.31 28.26 34.12C17.45 33.15 8.85 24.55 7.89 13.74H7.88Z" fill="#F4AB69"/>
<path d="M15.29 21.18C14.74 21.18 14.29 20.73 14.29 20.18V17.69C14.29 17.14 14.74 16.69 15.29 16.69C15.84 16.69 16.29 17.14 16.29 17.69V20.18C16.29 20.73 15.84 21.18 15.29 21.18Z" fill="#221F1F"/>
<path d="M26.71 21.18C26.16 21.18 25.71 20.73 25.71 20.18V17.69C25.71 17.14 26.16 16.69 26.71 16.69C27.26 16.69 27.71 17.14 27.71 17.69V20.18C27.71 20.73 27.26 21.18 26.71 21.18Z" fill="#221F1F"/>
<path d="M20.9997 30C18.8797 30 16.7997 29.61 14.8397 28.85C14.3297 28.65 14.0697 28.07 14.2697 27.56C14.4697 27.04 15.0497 26.79 15.5597 26.99C19.0197 28.33 22.9697 28.34 26.4297 26.99C26.9397 26.79 27.5197 27.04 27.7197 27.56C27.9197 28.07 27.6697 28.65 27.1497 28.85C25.1897 29.61 23.1197 30 20.9897 30H20.9997Z" fill="#221F1F"/>
</svg>
