<svg width="42" height="42" viewBox="0 0 42 42" fill="none" xmlns="http://www.w3.org/2000/svg">
<path d="M21 40C10.52 40 2 31.48 2 21C2 10.52 10.52 2 21 2C31.48 2 40 10.52 40 21C40 31.48 31.48 40 21 40Z" fill="white"/>
<path d="M21 37C29.8366 37 37 29.8366 37 21C37 12.1634 29.8366 5 21 5C12.1634 5 5 12.1634 5 21C5 29.8366 12.1634 37 21 37Z" fill="#F7DF69" stroke="#221F1F" stroke-width="2" stroke-miterlimit="10"/>
<path fill-rule="evenodd" clip-rule="evenodd" d="M7.88 13.74C6.68 15.89 6 18.37 6 21C6 29.27 12.73 36 21 36C23.63 36 26.1 35.31 28.26 34.12C17.45 33.15 8.85 24.55 7.89 13.74H7.88Z" fill="#F4AB69"/>
<path d="M15.29 17.69V20.18" stroke="#221F1F" stroke-width="2" stroke-linecap="round" stroke-linejoin="round"/>
<path d="M26.71 17.69V20.18" stroke="#221F1F" stroke-width="2" stroke-linecap="round" stroke-linejoin="round"/>
<path d="M17.6899 27.82H24.3099" stroke="#221F1F" stroke-width="2" stroke-linecap="round" stroke-linejoin="round"/>
</svg>
