<svg width="42" height="42" viewBox="0 0 42 42" fill="none" xmlns="http://www.w3.org/2000/svg">
<path d="M21 40C10.52 40 2 31.48 2 21C2 10.52 10.52 2 21 2C31.48 2 40 10.52 40 21C40 31.48 31.48 40 21 40Z" fill="white"/>
<path d="M21 37C29.8366 37 37 29.8366 37 21C37 12.1634 29.8366 5 21 5C12.1634 5 5 12.1634 5 21C5 29.8366 12.1634 37 21 37Z" fill="#F7DF69"/>
<path d="M21 38C11.63 38 4 30.37 4 21C4 11.63 11.63 4 21 4C30.37 4 38 11.63 38 21C38 30.37 30.37 38 21 38ZM21 6C12.73 6 6 12.73 6 21C6 29.27 12.73 36 21 36C29.27 36 36 29.27 36 21C36 12.73 29.27 6 21 6Z" fill="#221F1F"/>
<path fill-rule="evenodd" clip-rule="evenodd" d="M7.88 13.74C6.68 15.89 6 18.37 6 21C6 29.27 12.73 36 21 36C23.63 36 26.1 35.31 28.26 34.12C17.45 33.15 8.85 24.55 7.89 13.74H7.88Z" fill="#F4AB69"/>
<path d="M15.29 22.18C14.74 22.18 14.29 21.73 14.29 21.18V18.69C14.29 18.14 14.74 17.69 15.29 17.69C15.84 17.69 16.29 18.14 16.29 18.69V21.18C16.29 21.73 15.84 22.18 15.29 22.18Z" fill="#221F1F"/>
<path d="M26.71 22.18C26.16 22.18 25.71 21.73 25.71 21.18V18.69C25.71 18.14 26.16 17.69 26.71 17.69C27.26 17.69 27.71 18.14 27.71 18.69V21.18C27.71 21.73 27.26 22.18 26.71 22.18Z" fill="#221F1F"/>
<path d="M28.3102 28.82H13.7002C13.1502 28.82 12.7002 28.37 12.7002 27.82C12.7002 27.27 13.1502 26.82 13.7002 26.82H28.3102C28.8602 26.82 29.3102 27.27 29.3102 27.82C29.3102 28.37 28.8602 28.82 28.3102 28.82Z" fill="#221F1F"/>
<path d="M17.3802 19.56H12.4902C11.9402 19.56 11.4902 19.11 11.4902 18.56C11.4902 18.01 11.9402 17.56 12.4902 17.56H17.3802C17.9302 17.56 18.3802 18.01 18.3802 18.56C18.3802 19.11 17.9302 19.56 17.3802 19.56Z" fill="#221F1F"/>
<path d="M29.5101 19.56H24.6201C24.0701 19.56 23.6201 19.11 23.6201 18.56C23.6201 18.01 24.0701 17.56 24.6201 17.56H29.5101C30.0601 17.56 30.5101 18.01 30.5101 18.56C30.5101 19.11 30.0601 19.56 29.5101 19.56Z" fill="#221F1F"/>
</svg>
