<svg width="42" height="42" viewBox="0 0 42 42" fill="none" xmlns="http://www.w3.org/2000/svg">
<path d="M22.7004 40C14.5004 40 8.90045 37.4 6.20045 35.8C4.40045 34.7 3.20045 32.8 3.10045 30.6C2.70045 17 10.7004 6.1 11.1004 5.6C11.7004 5 14.1004 2 19.4004 2C20.4004 2 21.4004 2.1 22.4004 2.3C27.4004 3.2 28.5004 6.5 28.7004 7.8C29.2004 10.9 27.3004 14 25.2004 15.1C24.3004 15.6 23.1004 15.9 21.5004 15.9C21.2004 15.9 20.8004 15.9 20.5004 15.9C20.5004 16.7 20.5004 17.5 20.5004 18.4C21.9004 17.9 23.5004 17.6 25.3004 17.6C29.1004 17.6 32.5004 19.2 35.3004 22.4C37.3004 24.7 38.5004 27.6 38.8004 31.1C39.1004 34.5 36.8004 37.6 33.5004 38.5C29.8004 39.5 26.2004 40 22.7004 40Z" fill="white"/>
<path fill-rule="evenodd" clip-rule="evenodd" d="M33.1004 24.4C26.1004 16.4 17.4004 23.7 17.4004 22.8C17.6004 18.9 17.3004 12.5 17.3004 12.5C17.3004 12.5 22.1004 13.5 23.7004 12.6C25.6004 11.5 27.8004 6.5 21.8004 5.3C15.8004 4.1 13.6004 7.4 13.6004 7.4C13.6004 7.4 5.80042 17.7 6.20042 30.5C6.20042 31.6 6.80042 32.6 7.80042 33.2C11.1004 35.2 19.8004 39.1 32.7004 35.6C34.6004 35.1 36.0004 33.3 35.8004 31.3C35.6004 29.3 35.1004 26.6 33.1004 24.4Z" fill="#F7DF69"/>
<path d="M22.7006 38C15.0006 38 9.6006 35.4 7.3006 34C6.0006 33.3 5.3006 31.9 5.2006 30.5C4.8006 17.5 12.5006 7.2 12.8006 6.7C12.9006 6.6 15.5006 3 22.0006 4.3C25.6006 5 26.5006 7 26.7006 8.1C27.0006 10.2 25.7006 12.5 24.2006 13.4C22.8006 14.2 20.0006 13.9 18.4006 13.6C18.5006 15.3 18.6006 18.6 18.5006 21.3C21.4006 19.9 28.1006 17.2 33.9006 23.7C35.6006 25.7 36.6006 28.2 36.9006 31.3C37.1006 33.8 35.5006 36 33.0006 36.6C29.2006 37.6 25.8006 38 22.7006 38ZM19.4006 6C15.9006 6 14.5006 7.8 14.5006 7.9C14.4006 8 6.8006 18.1 7.2006 30.4C7.2006 31.2 7.6006 31.9 8.3006 32.3C11.4006 34.1 19.9006 38 32.4006 34.6C33.9006 34.2 34.9006 32.8 34.8006 31.3C34.6006 28.7 33.8006 26.5 32.3006 24.9C27.3006 19.2 21.4006 22 18.9006 23.2C17.9006 23.7 17.4006 23.9 16.8006 23.5C16.5006 23.3 16.3006 22.9 16.3006 22.5C16.5006 18.7 16.2006 12.4 16.2006 12.3C16.2006 12 16.3006 11.7 16.6006 11.5C16.8006 11.3 17.2006 11.2 17.5006 11.3C19.3006 11.7 22.3006 12 23.2006 11.5C23.9006 11.1 24.9006 9.6 24.7006 8.3C24.5006 6.9 22.9006 6.3 21.6006 6.1C20.8006 6.1 20.1006 6 19.4006 6Z" fill="#221F1F"/>
<path fill-rule="evenodd" clip-rule="evenodd" d="M30.4004 28.8C29.7004 28.9 29.0004 29 28.3004 29C24.1004 29 20.4005 26.6 18.7005 23.3C17.9005 23.7 17.4004 23.9 16.8004 23.5C16.7004 23.4 16.3004 27.1 16.9004 27.9C18.2004 29.8 20.9004 31.2 24.0004 31.2C26.7004 31.2 29.0005 30.3 30.4004 28.8Z" fill="#F4AB69"/>
<path d="M24.5009 31.9C21.9009 31.9 20.1009 31 20.0009 30.9C19.5009 30.6 19.3009 30 19.6009 29.5C19.9009 29 20.5009 28.8 20.9009 29.1C21.1009 29.2 24.8009 31.1 29.4009 28.5C29.9009 28.2 30.5009 28.4 30.8009 28.9C31.1009 29.4 30.9009 30 30.4009 30.3C28.2009 31.5 26.2009 31.9 24.5009 31.9Z" fill="#221F1F"/>
<path d="M18.2005 13.6C18.1005 13.6 18.0005 13.6 17.9005 13.6C17.7005 13.5 16.1005 13 15.4005 11.7C15.1005 11.1 15.1005 10.4 15.3005 9.6C15.5005 9.1 16.1005 8.8 16.6005 9C17.1005 9.2 17.4005 9.8 17.2005 10.3C17.1005 10.5 17.2005 10.7 17.2005 10.8C17.4005 11.2 18.2005 11.6 18.5005 11.7C19.0005 11.9 19.3005 12.4 19.2005 12.9C19.1005 13.3 18.7005 13.6 18.2005 13.6Z" fill="#221F1F"/>
<path d="M16.2007 29.2C16.0007 29.2 15.7007 29.1 15.6007 29C15.2007 28.6 15.1007 28 15.5007 27.6C15.9007 27.1 16.3007 24.5 16.3007 22.6C16.3007 22 16.8007 21.7 17.3007 21.6C17.9007 21.6 18.3007 22.1 18.3007 22.6C18.3007 23.8 18.1007 27.6 17.0007 28.9C16.8007 29.1 16.5007 29.2 16.2007 29.2Z" fill="#221F1F"/>
<path fill-rule="evenodd" clip-rule="evenodd" d="M9.90075 18.2C9.90075 17.5 9.90075 16.8 10.0007 16.1C8.40075 20 7.00075 25 7.20075 30.4C7.20075 31.2 7.60075 31.9 8.30075 32.3C10.0007 33.3 13.6007 35 18.6007 35.7C13.3007 31.8 9.90075 25.4 9.90075 18.2Z" fill="#F4AB69"/>
</svg>
