<svg width="42" height="42" viewBox="0 0 42 42" fill="none" xmlns="http://www.w3.org/2000/svg">
<path d="M9.6 36.1C10.8 38.2 12.9 39.5 15.3 39.5C15.7 39.5 16 39.5 16.4 39.4C17.9 39.8 19.5 40 21 40C31.5 40 40 31.5 40 21C40 10.5 31.5 2 21 2C10.5 2 2 10.5 2 21C2 26.9 4.8 32.5 9.6 36.1Z" fill="white"/>
<path d="M21 37C29.8366 37 37 29.8366 37 21C37 12.1634 29.8366 5 21 5C12.1634 5 5 12.1634 5 21C5 29.8366 12.1634 37 21 37Z" fill="#F7DF69"/>
<path d="M21 38C11.6 38 4 30.4 4 21C4 11.6 11.6 4 21 4C30.4 4 38 11.6 38 21C38 30.4 30.4 38 21 38ZM21 6C12.7 6 6 12.7 6 21C6 29.3 12.7 36 21 36C29.3 36 36 29.3 36 21C36 12.7 29.3 6 21 6Z" fill="#221F1F"/>
<path fill-rule="evenodd" clip-rule="evenodd" d="M7.9 13.7C6.7 15.9 6 18.4 6 21C6 29.3 12.7 36 21 36C23.6 36 26.1 35.3 28.3 34.1C17.4 33.2 8.8 24.5 7.9 13.7Z" fill="#F4AB69"/>
<path d="M15.2998 22.2C14.6998 22.2 14.2998 21.8 14.2998 21.2V18.7C14.2998 18.1 14.6998 17.7 15.2998 17.7C15.8998 17.7 16.2998 18.1 16.2998 18.7V21.2C16.2998 21.8 15.8998 22.2 15.2998 22.2Z" fill="#221F1F"/>
<path d="M26.7002 22.2C26.1002 22.2 25.7002 21.8 25.7002 21.2V18.7C25.7002 18.1 26.1002 17.7 26.7002 17.7C27.3002 17.7 27.7002 18.1 27.7002 18.7V21.2C27.7002 21.8 27.3002 22.2 26.7002 22.2Z" fill="#221F1F"/>
<path d="M12.7998 15.4C12.4998 15.4 12.1998 15.3 11.9998 15C11.5998 14.6 11.6998 13.9 12.0998 13.6L14.8998 11.3C15.2998 10.9 15.9998 11 16.2998 11.4C16.6998 11.8 16.5998 12.5 16.1998 12.8L13.3998 15.1C13.1998 15.3 12.9998 15.4 12.7998 15.4Z" fill="#221F1F"/>
<path d="M29.2 15.4C29 15.4 28.8 15.3 28.6 15.2L25.8 12.9C25.4 12.5 25.3 11.9 25.7 11.5C26 11.1 26.7 11 27.1 11.4L29.9 13.7C30.3 14.1 30.4 14.7 30 15.1C29.8 15.3 29.5 15.4 29.2 15.4Z" fill="#221F1F"/>
<path d="M31.1 30.4C30.9 30.4 30.7 30.3 30.5 30.2C28 28.5 24.5 27.5 21 27.5C20.4 27.5 20 27.1 20 26.5C20 25.9 20.4 25.5 21 25.5C25 25.5 28.8 26.6 31.7 28.6C32.2 28.9 32.3 29.5 32 30C31.7 30.2 31.4 30.4 31.1 30.4Z" fill="#221F1F"/>
<path fill-rule="evenodd" clip-rule="evenodd" d="M11.6006 31.9999C11.6006 32.3999 11.6006 32.8999 11.7006 33.2999C12.3006 37.5999 18.2006 37.5999 18.9006 33.2999C19.0006 32.8999 19.0006 32.4999 19.0006 31.9999C19.0006 28.9999 17.5006 26.3999 15.3006 24.8999C13.1006 26.4999 11.6006 29.0999 11.6006 31.9999Z" fill="#A2D6FF"/>
<path d="M15.3002 37.5C15.2002 37.5 15.2002 37.5 15.3002 37.5C13.3002 37.5 11.2002 36.2 10.8002 33.5C10.7002 33 10.7002 32.5 10.7002 32C10.7002 28.9 12.2002 26 14.8002 24.1L15.4002 23.7L16.0002 24.1C18.6002 25.9 20.1002 28.8 20.1002 32C20.1002 32.5 20.1002 33 20.0002 33.5C19.4002 36.3 17.2002 37.5 15.3002 37.5ZM15.3002 26.2C13.6002 27.7 12.6002 29.8 12.6002 32C12.6002 32.3 12.6002 32.8 12.7002 33.1V33.2C12.9002 34.9 14.2002 35.6 15.2002 35.6C16.3002 35.6 17.6002 35 17.9002 33.2C18.0002 32.8 18.0002 32.5 18.0002 32C18.0002 29.7 17.0002 27.6 15.3002 26.2Z" fill="#221F1F"/>
<path fill-rule="evenodd" clip-rule="evenodd" d="M13.3002 29C12.9002 29.9 12.7002 31 12.7002 32.1C12.7002 32.5 12.7002 32.9 12.8002 33.2C13.1002 34.9 14.4002 35.5 15.4002 35.5C16.4002 35.5 17.7002 34.9 18.0002 33.2C18.1002 32.8 18.1002 32.4 18.1002 32.1C16.1002 31.2 14.6002 30.2 13.3002 29Z" fill="#8EBFE2"/>
</svg>
