<svg width="42" height="42" viewBox="0 0 42 42" fill="none" xmlns="http://www.w3.org/2000/svg">
<path d="M21 40C31.4934 40 40 31.4934 40 21C40 10.5066 31.4934 2 21 2C10.5066 2 2 10.5066 2 21C2 31.4934 10.5066 40 21 40Z" fill="white"/>
<path d="M21 37C29.8366 37 37 29.8366 37 21C37 12.1634 29.8366 5 21 5C12.1634 5 5 12.1634 5 21C5 29.8366 12.1634 37 21 37Z" fill="#F7DF69"/>
<path d="M21 38C11.6 38 4 30.4 4 21C4 11.6 11.6 4 21 4C30.4 4 38 11.6 38 21C38 30.4 30.4 38 21 38ZM21 6C12.7 6 6 12.7 6 21C6 29.3 12.7 36 21 36C29.3 36 36 29.3 36 21C36 12.7 29.3 6 21 6Z" fill="#221F1F"/>
<path fill-rule="evenodd" clip-rule="evenodd" d="M7.9 13.7C6.7 15.9 6 18.4 6 21C6 29.3 12.7 36 21 36C23.6 36 26.1 35.3 28.3 34.1C17.4 33.2 8.8 24.5 7.9 13.7Z" fill="#F4AB69"/>
<path d="M15.2998 21.2C14.6998 21.2 14.2998 20.8 14.2998 20.2V17.7C14.2998 17.1 14.6998 16.7 15.2998 16.7C15.8998 16.7 16.2998 17.1 16.2998 17.7V20.2C16.2998 20.8 15.8998 21.2 15.2998 21.2Z" fill="#221F1F"/>
<path d="M26.7002 21.2C26.1002 21.2 25.7002 20.8 25.7002 20.2V17.7C25.7002 17.1 26.1002 16.7 26.7002 16.7C27.3002 16.7 27.7002 17.1 27.7002 17.7V20.2C27.7002 20.8 27.3002 21.2 26.7002 21.2Z" fill="#221F1F"/>
<path d="M12.4998 13.9C12.0998 13.9 11.6998 13.7 11.5998 13.3C11.3998 12.8 11.6998 12.2 12.1998 12L15.5998 10.7C16.0998 10.5 16.6998 10.8 16.8998 11.3C17.0998 11.8 16.7998 12.4 16.2998 12.6L12.8998 13.9C12.6998 13.9 12.5998 13.9 12.4998 13.9Z" fill="#221F1F"/>
<path d="M29.4998 13.9C29.3998 13.9 29.2998 13.9 29.0998 13.8L25.6998 12.5C25.1998 12.3 24.8998 11.7 25.0998 11.2C25.2998 10.7 25.8998 10.4 26.3998 10.6L29.7998 11.9C30.2998 12.1 30.5998 12.7 30.3998 13.2C30.2998 13.7 29.8998 13.9 29.4998 13.9Z" fill="#221F1F"/>
<path d="M21.2 31.7H20.8C19.3 31.7 18 30.4 18 28.9V26.2C18 24.7 19.3 23.4 20.8 23.4H21.2C22.7 23.4 24 24.7 24 26.2V28.9C24 30.4 22.7 31.7 21.2 31.7Z" fill="#221F1F"/>
</svg>
