<svg width="220" height="220" viewBox="0 0 220 220" fill="none" xmlns="http://www.w3.org/2000/svg">
<path d="M159.001 105.6C165.297 105.6 170.401 100.496 170.401 94.2C170.401 87.904 165.297 82.8 159.001 82.8C152.705 82.8 147.601 87.904 147.601 94.2C147.601 100.496 152.705 105.6 159.001 105.6Z" fill="white"/>
<path d="M110.101 90.5C109.801 90.5 109.501 90.5 109.301 90.5H108.901C82.3008 89.8 60.8008 67.7 60.8008 41.2C60.8008 39.2 60.9008 37.2 61.2008 35.1C61.6008 32.2 64.0008 30 66.9008 30H67.2008C67.5008 30 67.7008 30 68.0008 30C75.7008 30 83.3008 31.8 90.1008 35.3C93.1008 26.1 98.8008 17.9 106.501 11.9C107.501 11.1 108.801 10.6 110.101 10.6C111.401 10.6 112.701 11 113.701 11.9C121.401 18 127.101 26.1 130.101 35.3C136.901 31.8 144.501 30 152.201 30C152.501 30 152.801 30 153.001 30H153.301C156.101 30.1 158.601 32.3 158.901 35.1C159.201 37.2 159.301 39.2 159.301 41.2C159.301 67.8 137.701 89.9 111.101 90.5H110.701C110.701 90.5 110.401 90.5 110.101 90.5Z" fill="white"/>
<path d="M111.001 208.6C110.901 208.6 110.701 208.6 110.601 208.6C110.101 208.6 109.701 208.5 109.301 208.3C106.301 207.3 104.601 204 105.601 200.9C108.401 192.6 113.101 178.6 110.601 174.2C109.901 173 107.401 171.2 102.201 169.9C73.3005 162.5 55.9005 138.5 46.5005 125.6L45.1005 123.6C40.0005 116.6 41.5005 106.7 48.5005 101.6C49.0005 101.2 49.6005 100.9 50.1005 100.6C51.2005 97.8 53.0005 95.4 55.5005 93.7C58.2005 91.7 61.4005 90.7 64.8005 90.7C68.6005 90.7 72.2005 92 75.0005 94.4C76.7005 93.8 78.5005 93.4 80.4005 93.4C85.2005 93.4 89.7005 95.5 92.7005 99.2C93.4005 100.1 94.1005 101 94.9005 101.8C97.9005 97.7 102.601 95.3 107.701 95.3C110.801 95.3 113.701 96.2 116.201 97.8C119.801 100.1 123.101 102.6 126.101 105.1C131.401 109.1 136.401 113.1 141.201 116.9C162.301 134.3 164.901 144.4 166.501 150.4C166.701 151.3 166.901 152 167.101 152.5C170.601 161.1 172.801 178.2 173.801 203.3C173.901 206.5 171.401 209.2 168.201 209.4C168.101 209.4 168.001 209.4 168.001 209.4C167.801 209.5 111.001 208.6 111.001 208.6Z" fill="white"/>
<path d="M153.701 145.9L154.301 141.6L143.601 134.2C143.601 134.3 143.501 134.4 143.501 134.5C142.801 136.3 140.801 137.4 138.601 137.3C138.101 137.2 137.701 137.1 137.201 137C118.201 133.1 99.4009 116.8 88.1009 102.8C84.7009 98.5 78.4009 97.9 74.2009 101.3C69.9009 104.7 69.3009 111 72.7009 115.2C73.2009 115.8 73.7009 116.4 74.2009 117.1C83.7009 129 101.401 151.1 128.601 156.6C133.501 157.6 137.101 159.1 139.401 161.2L147.601 162.9L153.701 145.9Z" fill="#E2EFFB"/>
<path d="M73.2725 99.6763C78.2466 95.8561 85.5469 96.6044 89.5401 101.638L90.6114 102.945C101.896 116.499 119.774 131.535 137.573 135.188H137.572C137.841 135.242 138.081 135.295 138.302 135.344C138.477 135.383 138.641 135.417 138.812 135.453C140.298 135.478 141.362 134.748 141.736 133.917C141.753 133.861 141.77 133.813 141.784 133.775C141.8 133.732 141.818 133.694 141.832 133.662C141.974 133.195 142.297 132.794 142.742 132.561C143.351 132.242 144.088 132.287 144.653 132.678L155.354 140.079C155.928 140.476 156.229 141.164 156.133 141.856L155.533 146.156C155.516 146.282 155.485 146.405 155.442 146.525L149.342 163.525C149.03 164.392 148.128 164.898 147.226 164.711L139.025 163.011C138.7 162.944 138.399 162.79 138.153 162.566C136.216 160.797 133.002 159.386 128.234 158.413V158.414C100.291 152.763 82.2106 130.099 72.7549 118.254C72.7344 118.229 72.7145 118.202 72.6954 118.175C72.2411 117.539 71.7835 116.989 71.2794 116.384C71.2738 116.378 71.2682 116.371 71.2628 116.364C67.2348 111.388 67.9249 103.919 73.0372 99.8618L73.2725 99.6763ZM86.6495 103.948C83.9036 100.475 78.7839 99.9706 75.3653 102.738C75.3598 102.742 75.3542 102.747 75.3487 102.751C71.876 105.497 71.3715 110.617 74.1387 114.036H74.1378C74.6157 114.609 75.1364 115.234 75.6612 115.963C85.0593 127.736 101.985 148.769 127.734 154.524L128.968 154.787L128.971 154.788C133.756 155.764 137.596 157.251 140.25 159.486L146.401 160.761L151.894 145.458L152.311 142.472L144.201 136.864C142.824 138.452 140.652 139.245 138.517 139.148C138.423 139.144 138.33 139.132 138.238 139.114C137.966 139.059 137.723 139.005 137.5 138.956C137.273 138.905 137.066 138.86 136.838 138.814L136.829 138.812C117.202 134.783 98.0594 118.084 86.6612 103.962C86.6573 103.958 86.6533 103.953 86.6495 103.948Z" fill="#221F1F"/>
<path d="M136.301 146.6L137.101 142.4L126.801 134.5C126.801 134.6 126.701 134.7 126.701 134.8C125.901 136.6 123.901 137.6 121.701 137.4C121.201 137.3 120.801 137.1 120.301 137C101.501 132.2 83.5008 115 72.9008 100.5C69.7008 96.1 63.5008 95.1 59.1008 98.3C54.7008 101.5 53.7008 107.7 56.9008 112.1C57.4008 112.7 57.8008 113.4 58.3008 114.1C67.2008 126.4 83.8008 149.3 110.701 156.2C115.501 157.4 119.101 159.1 121.201 161.3L129.301 163.4L136.301 146.6Z" fill="#E2EFFB"/>
<path d="M58.0126 96.8035C63.2433 92.9995 70.5959 94.1911 74.3935 99.408C84.9017 113.782 102.58 130.566 120.759 135.208H120.758C121.097 135.282 121.391 135.38 121.586 135.445C121.767 135.506 121.881 135.539 121.977 135.563C123.448 135.661 124.519 135.007 124.958 134.152C124.967 134.124 124.976 134.098 124.984 134.075C124.999 134.035 125.015 133.999 125.028 133.969C125.174 133.484 125.515 133.071 125.982 132.841C126.614 132.529 127.368 132.603 127.927 133.032L138.226 140.932C138.781 141.358 139.049 142.059 138.918 142.746L138.118 146.946C138.094 147.071 138.058 147.194 138.009 147.311L131.009 164.111C130.654 164.961 129.728 165.422 128.837 165.191L120.736 163.091C120.403 163.004 120.1 162.826 119.862 162.577C118.123 160.755 114.931 159.165 110.252 157.995L110.241 157.992C82.6109 150.905 65.6604 127.427 56.8017 115.184L56.7948 115.176C56.5217 114.793 56.2644 114.393 56.0614 114.089C55.8434 113.762 55.6632 113.505 55.4794 113.284C55.4534 113.253 55.428 113.221 55.4042 113.188C51.5991 107.956 52.7921 100.6 58.0126 96.8035ZM71.4042 101.588C68.8008 98.0086 63.7561 97.201 60.1884 99.7957C56.6159 102.394 55.8052 107.424 58.3817 110.991C58.6716 111.347 58.9227 111.711 59.1395 112.036C59.3842 112.403 59.5757 112.701 59.7997 113.015L61.5624 115.443C70.8095 128.1 86.6215 148.109 111.149 154.405C115.819 155.573 119.666 157.263 122.149 159.635L128.21 161.206L134.518 146.064L135.069 143.174L127.291 137.208C125.854 138.739 123.682 139.437 121.533 139.242C121.468 139.236 121.402 139.227 121.338 139.214C120.958 139.138 120.628 139.026 120.416 138.955C120.178 138.876 120.058 138.838 119.937 138.814C119.906 138.808 119.874 138.801 119.843 138.793C100.422 133.834 82.0988 116.217 71.4071 101.592L71.4042 101.588Z" fill="#221F1F"/>
<path d="M68.0002 35.8C67.7002 35.8 67.3002 35.8 67.0002 35.8C66.8002 37.6 66.7002 39.4 66.7002 41.2C66.7002 65.2 86.2002 84.7 110.2 84.7C110.5 84.7 110.9 84.7 111.2 84.7C111.4 82.9 111.5 81.1 111.5 79.3C111.5 55.3 92.0002 35.8 68.0002 35.8Z" fill="#F2AC99"/>
<path d="M64.8506 41.2004C64.8506 39.3318 64.9537 37.4633 65.1611 35.5959L65.1885 35.4231C65.3646 34.5731 66.1162 33.9505 67 33.9504H68C93.0217 33.9504 113.351 54.2783 113.351 79.3C113.351 81.1687 113.247 83.0371 113.039 84.9045C112.935 85.8413 112.143 86.55 111.2 86.55H110.2C85.1786 86.55 64.8508 66.222 64.8506 41.2004ZM68.5498 41.2004C68.55 63.9495 86.8519 82.474 109.515 82.841C109.604 81.6604 109.65 80.4801 109.65 79.3C109.65 56.5506 91.3486 38.0243 68.6855 37.6574C68.596 38.8386 68.5498 40.0198 68.5498 41.2004Z" fill="#221F1F"/>
<path d="M167.7 200.9C167 184.5 165.3 164.2 161.5 154.8C159.5 149.8 160.9 140.8 137.3 121.5C131.8 117 126.5 112.9 122.3 109.7C119.6 107.4 116.5 105.1 112.9 102.8C108.4 99.9 102.3 101.1 99.3002 105.5C96.3002 110 97.4002 116 101.8 119.1C104.3 120.9 106.9 122.8 109.5 124.7C119.9 133.4 120.9 140.1 119.6 142.8C118.8 144.6 116.8 145.6 114.6 145.4C114.1 145.3 113.7 145.1 113.2 145C94.4002 140.2 76.4002 123 65.8002 108.5C62.6002 104.1 56.4002 103.1 52.0002 106.3C47.6002 109.5 46.6002 115.7 49.8002 120.1C50.3002 120.7 50.7002 121.4 51.2002 122.1C60.1002 134.4 76.7002 157.3 103.6 164.2C109.9 165.8 114 168.2 115.7 171.4C119.1 177.7 115.4 189.8 111.7 201H110.9V204.5L167.9 205.3L168 201H167.7V200.9Z" fill="#CEE5FA"/>
<path d="M180.601 127.9C182.534 127.9 184.101 126.333 184.101 124.4C184.101 122.467 182.534 120.9 180.601 120.9C178.668 120.9 177.101 122.467 177.101 124.4C177.101 126.333 178.668 127.9 180.601 127.9Z" fill="#A0A0A0"/>
<path d="M159 99.8C162.093 99.8 164.6 97.2928 164.6 94.2C164.6 91.1072 162.093 88.6 159 88.6C155.908 88.6 153.4 91.1072 153.4 94.2C153.4 97.2928 155.908 99.8 159 99.8Z" fill="#F2AC99"/>
<path d="M162.75 94.1996C162.75 92.1287 161.071 90.4496 159 90.4496C156.929 90.4498 155.25 92.1289 155.25 94.1996C155.25 96.2706 156.929 97.9494 159 97.9496C161.071 97.9496 162.75 96.2707 162.75 94.1996ZM166.45 94.1996C166.45 98.3141 163.115 101.65 159 101.65C154.886 101.65 151.551 98.314 151.551 94.1996C151.551 90.0854 154.886 86.7506 159 86.7504C163.114 86.7504 166.45 90.0853 166.45 94.1996Z" fill="#221F1F"/>
<path d="M41.9004 76C45.2141 76 47.9004 73.3137 47.9004 70C47.9004 66.6863 45.2141 64 41.9004 64C38.5867 64 35.9004 66.6863 35.9004 70C35.9004 73.3137 38.5867 76 41.9004 76Z" fill="#A0A0A0"/>
<path d="M109.6 79.3C109.6 78.2 109.5 77.1 109.5 76.1C79.3004 66.6 68.8004 37.8 68.8004 37.8H68.6004C68.5004 39 68.4004 40.1 68.4004 41.2C68.4004 63.9 86.7004 82.5 109.4 82.8C109.6 81.6 109.6 80.5 109.6 79.3Z" fill="#DA8E7D"/>
<path d="M152.301 35.8C152.601 35.8 153.001 35.8 153.301 35.8C153.501 37.6 153.601 39.4 153.601 41.2C153.601 65.2 134.101 84.7 110.101 84.7C109.801 84.7 109.401 84.7 109.101 84.7C108.901 82.9 108.801 81.1 108.801 79.3C108.801 55.3 128.301 35.8 152.301 35.8Z" fill="#F2AC99"/>
<path d="M151.751 41.2004C151.751 40.0198 151.705 38.8386 151.615 37.6574C128.952 38.0244 110.65 56.5507 110.65 79.3C110.65 80.4801 110.697 81.6604 110.786 82.841C133.449 82.4741 151.751 63.9496 151.751 41.2004ZM155.451 41.2004C155.451 66.222 135.122 86.55 110.101 86.55H109.101C108.158 86.5499 107.366 85.8413 107.262 84.9045C107.054 83.0371 106.951 81.1687 106.951 79.3C106.951 54.2783 127.279 33.9504 152.301 33.9504H153.301C154.243 33.9504 155.036 34.659 155.14 35.5959C155.347 37.4633 155.451 39.3318 155.451 41.2004Z" fill="#221F1F"/>
<path d="M93.5 50.5C93.5 64.4 100 76.7 110.1 84.7C120.2 76.7 126.7 64.4 126.7 50.5C126.7 36.6 120.2 24.3 110.1 16.3C100 24.3 93.5 36.7 93.5 50.5Z" fill="#F2AC99"/>
<path d="M124.85 50.5002C124.85 37.7284 119.12 26.3668 110.1 18.6945C101.081 26.3726 95.3496 37.8224 95.3496 50.5002C95.3497 63.2716 101.08 74.6327 110.1 82.3049C119.12 74.6327 124.85 63.2718 124.85 50.5002ZM128.55 50.5002C128.55 64.994 121.769 77.818 111.249 86.1506C110.576 86.6836 109.624 86.6836 108.951 86.1506C98.4312 77.818 91.6505 64.994 91.6504 50.5002C91.6504 36.1086 98.4294 23.1839 108.951 14.8498L109.081 14.7561C109.743 14.319 110.618 14.3501 111.249 14.8498C121.769 23.1825 128.55 36.0064 128.55 50.5002Z" fill="#221F1F"/>
<path d="M95.5004 47.2C95.4004 48.3 95.4004 49.4 95.4004 50.6C95.4004 62.9 100.8 74.4 110.2 82.4C112.3 80.7 114.1 78.7 115.8 76.7C106.6 69.2 99.5004 59 95.5004 47.2Z" fill="#DA8E7D"/>
<path d="M97.7712 104.458C101.344 99.2183 108.566 97.8114 113.895 101.241C117.538 103.568 120.69 105.904 123.447 108.248C127.651 111.451 132.959 115.558 138.471 120.068L139.57 120.974C150.741 130.262 156.22 137.238 159.129 142.634C160.634 145.427 161.43 147.758 161.975 149.702C162.555 151.766 162.763 152.974 163.216 154.107L163.411 154.604C165.408 159.829 166.769 167.794 167.726 176.37C168.721 185.281 169.297 195.054 169.648 203.523C169.69 204.544 168.897 205.406 167.877 205.449C166.92 205.488 166.102 204.793 165.969 203.865L165.952 203.676L165.809 200.46C165.452 192.84 164.907 184.47 164.049 176.78C163.061 167.933 161.681 160.184 159.785 155.493L159.782 155.487C159.236 154.121 158.87 152.33 158.413 150.702C157.921 148.948 157.216 146.885 155.872 144.39C153.259 139.542 148.148 132.918 137.206 123.82L136.129 122.932C130.652 118.451 125.37 114.365 121.178 111.171C121.152 111.151 121.126 111.13 121.1 111.108C118.469 108.867 115.438 106.617 111.904 104.359L111.898 104.355C108.228 101.99 103.255 102.984 100.829 106.543C98.3933 110.214 99.2987 115.074 102.865 117.587C102.87 117.591 102.875 117.595 102.881 117.599C104.134 118.501 105.412 119.428 106.702 120.367L110.592 123.207L110.687 123.281C116.032 127.752 119.091 131.816 120.626 135.245C122.129 138.603 122.234 141.536 121.29 143.55L121.291 143.551C120.103 146.224 117.246 147.498 114.432 147.243C114.367 147.237 114.302 147.227 114.237 147.214C113.857 147.138 113.528 147.025 113.315 146.955C113.078 146.875 112.957 146.838 112.837 146.814C112.805 146.808 112.773 146.801 112.742 146.793C93.3212 141.834 74.9981 124.217 64.3064 109.591L64.3035 109.588C61.7002 106.009 56.6556 105.202 53.0876 107.796C49.5174 110.393 48.7058 115.419 51.2771 118.985C51.5691 119.343 51.8208 119.71 52.0388 120.037C52.2834 120.404 52.475 120.701 52.699 121.015L54.4617 123.443C63.7096 136.101 79.5236 156.112 104.055 162.407L104.652 162.562C110.762 164.197 115.308 166.726 117.33 170.524L117.523 170.902C119.445 174.849 119.082 180.219 117.988 185.629C116.837 191.321 114.747 197.609 112.858 203.376L112.79 203.552C112.409 204.409 111.434 204.856 110.524 204.558C109.553 204.24 109.024 203.195 109.342 202.224L110.778 197.82C112.201 193.399 113.538 188.971 114.362 184.896C115.483 179.356 115.532 174.997 114.07 172.276L114.066 172.268C112.751 169.793 109.33 167.564 103.144 165.993L103.14 165.992C75.5102 158.904 58.5596 135.427 49.7009 123.184L49.6941 123.175C49.421 122.793 49.1636 122.393 48.9607 122.088C48.7428 121.762 48.5624 121.505 48.3787 121.285C48.3526 121.253 48.3274 121.221 48.3035 121.188C44.4985 115.956 45.6916 108.601 50.9119 104.804C56.1425 101 63.4951 102.191 67.2927 107.408C77.801 121.782 95.4788 138.566 113.658 143.208H113.657C113.997 143.282 114.29 143.38 114.485 143.445C114.666 143.505 114.78 143.539 114.877 143.563C116.407 143.665 117.506 142.954 117.909 142.048C117.917 142.031 117.925 142.015 117.933 141.998C118.263 141.314 118.508 139.568 117.249 136.755C116.012 133.993 113.385 130.371 108.361 126.16C105.781 124.274 103.208 122.393 100.734 120.612C95.5065 116.928 94.2099 109.8 97.7605 104.474L97.7712 104.458Z" fill="#221F1F"/>
</svg>
