<svg width="165" height="165" viewBox="0 0 165 165" fill="none" xmlns="http://www.w3.org/2000/svg">
<path d="M133.312 89.4376L114.112 108.525L120.938 111.525C117.525 117 112.8 120.713 108.038 123.225C99.4875 127.725 89.175 121.538 88.9875 111.863L87.9375 59.8126H110.888C113.138 59.8126 115.013 57.9751 115.013 55.6876C115.013 53.4001 113.175 51.5626 110.888 51.5626H87.7875L87.5625 41.4001C93.3375 39.3376 97.4625 33.8251 97.4625 27.3376C97.4625 19.0876 90.7875 12.4126 82.5375 12.4126C74.2875 12.4126 67.6125 19.0876 67.6125 27.3376C67.6125 33.8251 71.7375 39.3376 77.5125 41.4001L77.2875 51.5626H54.1875C51.9375 51.5626 50.0625 53.4001 50.0625 55.6876C50.0625 57.9751 51.9 59.8126 54.1875 59.8126H77.1375L76.0875 111.863C75.9 121.538 65.5875 127.725 57.0375 123.225C52.275 120.713 47.55 117 44.1375 111.525L50.9625 108.525L31.7625 89.4376L30.375 117.6L37.2 114.6C40.425 123.15 48.675 135.675 69.9375 142.425C79.0875 146.1 82.5375 152.513 82.5375 152.513C82.5375 152.513 85.9875 146.1 95.1375 142.425C116.4 135.675 124.65 123.15 127.875 114.6L134.7 117.6L133.312 89.4376Z" fill="white"/>
<path d="M82.4999 153.9C81.9749 153.9 81.5249 153.637 81.2624 153.188C80.1374 151.125 76.1999 146.512 69.4124 143.775C49.0124 137.287 40.1999 125.625 36.3749 116.475L30.9374 118.875C30.4874 119.062 29.9999 119.025 29.5874 118.763C29.1749 118.5 28.9499 118.05 28.9874 117.562L30.2999 89.4C30.3374 88.8375 30.6749 88.3875 31.1999 88.1625C31.7249 87.975 32.2874 88.0875 32.6999 88.4625L51.8999 107.55C52.2374 107.887 52.3874 108.338 52.2749 108.788C52.1624 109.238 51.8999 109.612 51.4874 109.8L46.1624 112.163C48.9749 116.175 52.8374 119.512 57.6374 122.025C61.1999 123.9 65.3999 123.788 68.8874 121.725C72.4124 119.625 74.5874 115.95 74.6624 111.862L75.6749 61.2375H54.1499C51.1124 61.2375 48.6374 58.7625 48.6374 55.725C48.6374 52.6875 51.1124 50.2125 54.1499 50.2125H75.8999L76.0499 42.375C70.0874 39.825 66.1874 33.9375 66.1874 27.375C66.1874 18.375 73.4999 11.0625 82.4999 11.0625C91.4999 11.0625 98.8124 18.375 98.8124 27.375C98.8124 33.9 94.8749 39.7875 88.9499 42.375L89.0999 50.2125H110.85C113.887 50.2125 116.362 52.6875 116.362 55.725C116.362 58.7625 113.887 61.2375 110.85 61.2375H89.3249L90.3374 111.862C90.4124 115.95 92.5874 119.625 96.1124 121.725C99.5999 123.788 103.8 123.9 107.362 122.025C112.162 119.512 116.025 116.175 118.837 112.163L113.512 109.8C113.1 109.612 112.8 109.238 112.725 108.788C112.65 108.338 112.8 107.887 113.1 107.55L132.3 88.4625C132.675 88.0875 133.275 87.9375 133.8 88.1625C134.325 88.35 134.662 88.8375 134.7 89.4L136.012 117.562C136.05 118.05 135.825 118.5 135.412 118.763C135 119.025 134.512 119.062 134.062 118.875L128.587 116.438C124.762 125.588 115.95 137.212 95.5499 143.737C88.7624 146.475 84.8249 151.087 83.6999 153.15C83.4749 153.637 83.0249 153.9 82.4999 153.9ZM37.1624 113.212C37.3499 113.212 37.5374 113.25 37.6874 113.325C38.0249 113.475 38.3249 113.775 38.4374 114.112C41.6999 122.85 49.9124 134.625 70.2749 141.112C70.3124 141.112 70.3499 141.15 70.3874 141.15C76.9499 143.775 80.6999 147.75 82.4624 150.038C84.2249 147.75 87.9749 143.775 94.5374 141.15C94.5749 141.15 94.6124 141.112 94.6499 141.112C115.05 134.625 123.225 122.85 126.525 114.112C126.675 113.737 126.937 113.475 127.275 113.325C127.612 113.175 128.025 113.175 128.362 113.325L133.125 115.425L132.075 92.625L116.512 108.075L121.462 110.25C121.837 110.4 122.1 110.737 122.212 111.112C122.325 111.487 122.287 111.9 122.062 112.237C118.912 117.3 114.412 121.387 108.637 124.425C104.212 126.75 98.9999 126.6 94.6874 124.05C90.3374 121.462 87.6374 116.925 87.5624 111.862L86.5124 59.8125C86.5124 59.4375 86.6624 59.0625 86.9249 58.8C87.1874 58.5375 87.5249 58.3875 87.8999 58.3875H110.85C112.35 58.3875 113.587 57.15 113.587 55.65C113.587 54.15 112.35 52.9125 110.85 52.9125H87.7499C86.9999 52.9125 86.3624 52.3125 86.3624 51.5625L86.1374 41.4C86.1374 40.8 86.5124 40.275 87.0749 40.05C92.4374 38.1375 96.0374 33 96.0374 27.3C96.0374 19.8375 89.9624 13.7625 82.4999 13.7625C75.0374 13.7625 68.9624 19.8375 68.9624 27.3C68.9624 33 72.5624 38.1375 77.9249 40.05C78.4874 40.2375 78.8624 40.8 78.8624 41.4L78.6374 51.5625C78.6374 52.3125 77.9999 52.9125 77.2499 52.9125H54.1499C52.6499 52.9125 51.4124 54.15 51.4124 55.65C51.4124 57.15 52.6499 58.3875 54.1499 58.3875H77.0999C77.4749 58.3875 77.8124 58.5375 78.0749 58.8C78.3374 59.0625 78.4874 59.4375 78.4874 59.8125L77.4374 111.862C77.3249 116.925 74.6624 121.462 70.3124 124.05C65.9999 126.6 60.7874 126.75 56.3624 124.425C50.5874 121.387 46.0499 117.3 42.9374 112.237C42.7124 111.9 42.6749 111.487 42.7874 111.112C42.8999 110.737 43.1999 110.4 43.5374 110.25L48.4874 108.075L32.9249 92.625L31.8749 115.425L36.6374 113.325C36.7874 113.25 36.9749 113.212 37.1624 113.212Z" fill="#221F1F"/>
<path d="M82.3869 33.15C85.5556 33.15 88.1244 30.5813 88.1244 27.4125C88.1244 24.2438 85.5556 21.675 82.3869 21.675C79.2182 21.675 76.6494 24.2438 76.6494 27.4125C76.6494 30.5813 79.2182 33.15 82.3869 33.15Z" fill="white"/>
<path d="M82.3867 34.5C78.4492 34.5 75.2617 31.3125 75.2617 27.375C75.2617 23.4375 78.4492 20.25 82.3867 20.25C86.3242 20.25 89.5117 23.4375 89.5117 27.375C89.5117 31.3125 86.3242 34.5 82.3867 34.5ZM82.3867 23.0625C79.9867 23.0625 78.0367 25.0125 78.0367 27.4125C78.0367 29.8125 79.9867 31.7625 82.3867 31.7625C84.7867 31.7625 86.7367 29.8125 86.7367 27.4125C86.7367 25.0125 84.7867 23.0625 82.3867 23.0625Z" fill="#221F1F"/>
</svg>
