<svg width="165" height="165" viewBox="0 0 165 165" fill="none" xmlns="http://www.w3.org/2000/svg">
<path d="M82.5 157.275C80.775 157.275 79.2 156.375 78.3375 154.875C78.3375 154.837 78.3 154.837 78.3 154.8C77.625 153.525 74.2875 149.4 68.25 146.962C48.825 140.738 39.3375 129.9 34.6875 120.9C34.6875 120.9 32.25 121.987 32.2125 121.987C31.6125 122.25 30.975 122.362 30.3375 122.362C29.4375 122.362 28.5375 122.1 27.75 121.612C26.325 120.712 25.5 119.062 25.575 117.375C25.575 117.375 26.8875 89.2125 26.8875 89.175C27 87.375 28.125 85.8 29.8125 85.05C29.8875 85.0125 29.925 85.0125 30 84.975C30.525 84.7875 31.0875 84.675 31.65 84.675C32.85 84.675 34.0125 85.125 34.9125 85.95C34.95 85.9875 34.9875 86.025 35.025 86.0625L54.225 105.15C55.425 106.35 55.875 108 55.5 109.612C55.125 111.075 54.15 112.275 52.8375 112.875L51.5625 113.438C53.7 115.613 56.2125 117.487 59.175 119.025C60.375 119.662 61.65 119.962 62.9625 119.962C64.425 119.962 65.85 119.55 67.1625 118.8C69.675 117.3 71.2125 114.675 71.2875 111.788L72.225 64.6125H54.15C49.2375 64.6125 45.2625 60.6375 45.2625 55.725C45.2625 50.8125 49.2375 46.8375 54.15 46.8375H72.6L72.6375 44.4375C66.6 40.95 62.8125 34.5 62.8125 27.375C62.8125 16.5375 71.6625 7.6875 82.5 7.6875C93.3375 7.6875 102.188 16.5375 102.188 27.375C102.188 34.425 98.4 40.9125 92.3625 44.4375L92.4 46.8375H110.85C115.763 46.8375 119.738 50.8125 119.738 55.725C119.738 60.6375 115.763 64.6125 110.85 64.6125H92.775L93.7125 111.788C93.75 114.675 95.325 117.3 97.8375 118.8C99.1125 119.55 100.575 119.962 102 119.962C103.313 119.962 104.625 119.625 105.788 119.025C108.75 117.487 111.263 115.613 113.4 113.438L112.125 112.875C110.663 112.2 109.65 110.888 109.388 109.35C109.163 107.888 109.575 106.425 110.55 105.3C110.588 105.262 110.663 105.188 110.7 105.15L129.9 86.0625C130.763 85.2 132 84.675 133.275 84.675C133.875 84.675 134.475 84.7875 135.038 85.0125C136.763 85.6875 137.963 87.3 138.075 89.175C138.075 89.2125 139.388 117.375 139.388 117.375C139.5 119.062 138.675 120.712 137.213 121.612C136.425 122.1 135.525 122.362 134.625 122.362C133.988 122.362 133.35 122.25 132.75 121.987C132.713 121.987 130.238 120.862 130.238 120.862C125.625 129.825 116.138 140.663 96.7125 146.888C90.75 149.325 87.45 153.375 86.7 154.688C85.9125 156.3 84.3 157.275 82.5 157.275Z" fill="white"/>
<path d="M133.312 89.4375L114.112 108.525L120.938 111.525C117.525 117 112.8 120.712 108.038 123.225C99.4875 127.725 89.175 121.537 88.9875 111.862L87.9375 59.8125H110.888C113.138 59.8125 115.013 57.975 115.013 55.6875C115.013 53.4 113.175 51.5625 110.888 51.5625H87.7875L87.5625 41.4C93.3375 39.3375 97.4625 33.825 97.4625 27.3375C97.4625 19.0875 90.7875 12.4125 82.5375 12.4125C74.2875 12.4125 67.6125 19.0875 67.6125 27.3375C67.6125 33.825 71.7375 39.3375 77.5125 41.4L77.2875 51.5625H54.1875C51.9375 51.5625 50.0625 53.4 50.0625 55.6875C50.0625 57.975 51.9 59.8125 54.1875 59.8125H77.1375L76.0875 111.862C75.9 121.537 65.5875 127.725 57.0375 123.225C52.275 120.712 47.55 117 44.1375 111.525L50.9625 108.525L31.7625 89.4375L30.375 117.6L37.2 114.6C40.425 123.15 48.675 135.675 69.9375 142.425C79.0875 146.1 82.5375 152.512 82.5375 152.512C82.5375 152.512 85.9875 146.1 95.1375 142.425C116.4 135.675 124.65 123.15 127.875 114.6L134.7 117.6L133.312 89.4375ZM82.3875 33.1125C79.2375 33.1125 76.65 30.5625 76.65 27.375C76.65 24.1875 79.2 21.6375 82.3875 21.6375C85.5375 21.6375 88.125 24.1875 88.125 27.375C88.125 30.5625 85.575 33.1125 82.3875 33.1125Z" fill="#7A72EB"/>
<path d="M82.4999 153.9C81.9749 153.9 81.5249 153.637 81.2624 153.188C80.1374 151.125 76.1999 146.512 69.4124 143.775C49.0124 137.287 40.1999 125.625 36.3749 116.475L30.9374 118.875C30.4874 119.062 29.9999 119.025 29.5874 118.763C29.1749 118.5 28.9499 118.05 28.9874 117.562L30.2999 89.4C30.3374 88.8375 30.6749 88.3875 31.1999 88.1625C31.7249 87.975 32.2874 88.0875 32.6999 88.4625L51.8999 107.55C52.2374 107.887 52.3874 108.338 52.2749 108.788C52.1624 109.238 51.8999 109.612 51.4874 109.8L46.1624 112.163C48.9749 116.175 52.8374 119.512 57.6374 122.025C61.1999 123.9 65.3999 123.788 68.8874 121.725C72.4124 119.625 74.5874 115.95 74.6624 111.862L75.6749 61.2375H54.1499C51.1124 61.2375 48.6374 58.7625 48.6374 55.725C48.6374 52.6875 51.1124 50.2125 54.1499 50.2125H75.8999L76.0499 42.375C70.0874 39.825 66.1874 33.9375 66.1874 27.375C66.1874 18.375 73.4999 11.0625 82.4999 11.0625C91.4999 11.0625 98.8124 18.375 98.8124 27.375C98.8124 33.9 94.8749 39.7875 88.9499 42.375L89.0999 50.2125H110.85C113.887 50.2125 116.362 52.6875 116.362 55.725C116.362 58.7625 113.887 61.2375 110.85 61.2375H89.3249L90.3374 111.862C90.4124 115.95 92.5874 119.625 96.1124 121.725C99.5999 123.788 103.8 123.9 107.362 122.025C112.162 119.512 116.025 116.175 118.837 112.163L113.512 109.8C113.1 109.612 112.8 109.238 112.725 108.788C112.65 108.338 112.8 107.887 113.1 107.55L132.3 88.4625C132.675 88.0875 133.275 87.9375 133.8 88.1625C134.325 88.35 134.662 88.8375 134.7 89.4L136.012 117.562C136.05 118.05 135.825 118.5 135.412 118.763C135 119.025 134.512 119.062 134.062 118.875L128.587 116.438C124.762 125.588 115.95 137.212 95.5499 143.737C88.7624 146.475 84.8249 151.087 83.6999 153.15C83.4749 153.637 83.0249 153.9 82.4999 153.9ZM37.1624 113.212C37.3499 113.212 37.5374 113.25 37.6874 113.325C38.0249 113.475 38.3249 113.775 38.4374 114.112C41.6999 122.85 49.9124 134.625 70.2749 141.112C70.3124 141.112 70.3499 141.15 70.3874 141.15C76.9499 143.775 80.6999 147.75 82.4624 150.038C84.2249 147.75 87.9749 143.775 94.5374 141.15C94.5749 141.15 94.6124 141.112 94.6499 141.112C115.05 134.625 123.225 122.85 126.525 114.112C126.675 113.737 126.937 113.475 127.275 113.325C127.612 113.175 128.025 113.175 128.362 113.325L133.125 115.425L132.075 92.625L116.512 108.075L121.462 110.25C121.837 110.4 122.1 110.737 122.212 111.112C122.325 111.487 122.287 111.9 122.062 112.237C118.912 117.3 114.412 121.387 108.637 124.425C104.212 126.75 98.9999 126.6 94.6874 124.05C90.3374 121.462 87.6374 116.925 87.5624 111.862L86.5124 59.8125C86.5124 59.4375 86.6624 59.0625 86.9249 58.8C87.1874 58.5375 87.5249 58.3875 87.8999 58.3875H110.85C112.35 58.3875 113.587 57.15 113.587 55.65C113.587 54.15 112.35 52.9125 110.85 52.9125H87.7499C86.9999 52.9125 86.3624 52.3125 86.3624 51.5625L86.1374 41.4C86.1374 40.8 86.5124 40.275 87.0749 40.05C92.4374 38.1375 96.0374 33 96.0374 27.3C96.0374 19.8375 89.9624 13.7625 82.4999 13.7625C75.0374 13.7625 68.9624 19.8375 68.9624 27.3C68.9624 33 72.5624 38.1375 77.9249 40.05C78.4874 40.2375 78.8624 40.8 78.8624 41.4L78.6374 51.5625C78.6374 52.3125 77.9999 52.9125 77.2499 52.9125H54.1499C52.6499 52.9125 51.4124 54.15 51.4124 55.65C51.4124 57.15 52.6499 58.3875 54.1499 58.3875H77.0999C77.4749 58.3875 77.8124 58.5375 78.0749 58.8C78.3374 59.0625 78.4874 59.4375 78.4874 59.8125L77.4374 111.862C77.3249 116.925 74.6624 121.462 70.3124 124.05C65.9999 126.6 60.7874 126.75 56.3624 124.425C50.5874 121.387 46.0499 117.3 42.9374 112.237C42.7124 111.9 42.6749 111.487 42.7874 111.112C42.8999 110.737 43.1999 110.4 43.5374 110.25L48.4874 108.075L32.9249 92.625L31.8749 115.425L36.6374 113.325C36.7874 113.25 36.9749 113.212 37.1624 113.212ZM82.3874 34.5C78.4499 34.5 75.2624 31.3125 75.2624 27.375C75.2624 23.4375 78.4499 20.25 82.3874 20.25C86.3249 20.25 89.5124 23.4375 89.5124 27.375C89.5124 31.3125 86.3249 34.5 82.3874 34.5ZM82.3874 23.0625C79.9874 23.0625 78.0374 25.0125 78.0374 27.4125C78.0374 29.8125 79.9874 31.7625 82.3874 31.7625C84.7874 31.7625 86.7374 29.8125 86.7374 27.4125C86.7374 25.0125 84.7874 23.0625 82.3874 23.0625Z" fill="#221F1F"/>
<path d="M116.512 108.113L121.462 110.288C121.837 110.438 122.1 110.775 122.212 111.15C122.325 111.525 122.287 111.938 122.062 112.275C118.912 117.338 114.412 121.425 108.637 124.463C104.212 126.788 98.9996 126.638 94.6871 124.088C90.3371 121.5 87.6371 116.963 87.5621 111.9L86.5121 59.8501C86.5121 59.4751 86.6621 59.1 86.9246 58.8375C87.1871 58.575 87.5246 58.425 87.8996 58.425H110.85C112.35 58.425 113.587 57.1875 113.587 55.6875C113.587 54.1875 112.35 52.95 110.85 52.95H87.7496C86.9996 52.95 86.3621 52.3501 86.3621 51.6001L86.1371 41.4375C86.1371 40.8375 86.5121 40.3126 87.0746 40.0876C92.4371 38.1751 96.0371 33.0375 96.0371 27.3375C96.0371 19.875 89.9621 13.8 82.4996 13.8C75.0371 13.8 68.9621 19.875 68.9621 27.3375C68.9621 33.0375 72.5621 38.1751 77.9246 40.0876C78.4871 40.2751 78.8621 40.8375 78.8621 41.4375L78.6371 51.6001C78.6371 52.3501 77.9996 52.95 77.2496 52.95H54.1496C52.6496 52.95 51.4121 54.1875 51.4121 55.6875C51.4121 57.1875 52.6496 58.425 54.1496 58.425H77.0996C77.4746 58.425 77.8121 58.575 78.0746 58.8375C78.3371 59.1 78.4871 59.4751 78.4871 59.8501L77.4371 111.9C77.3621 115.913 75.6746 119.588 72.7871 122.213C81.7871 129.638 92.4746 134.888 104.137 137.288C117.712 130.613 123.825 121.313 126.525 114.075C126.675 113.7 126.937 113.438 127.275 113.288C127.612 113.138 128.025 113.138 128.362 113.288L133.125 115.388L132.075 92.5875L116.512 108.113ZM75.2996 27.4125C75.2996 23.475 78.4871 20.2875 82.4246 20.2875C86.3621 20.2875 89.5496 23.475 89.5496 27.4125C89.5496 31.35 86.3621 34.5375 82.4246 34.5375C78.4871 34.5 75.2996 31.3125 75.2996 27.4125Z" fill="#9891F5"/>
</svg>
