<svg width="165" height="165" viewBox="0 0 165 165" fill="none" xmlns="http://www.w3.org/2000/svg">
<path d="M81.1133 114.188L78.5258 86.4753L48.3008 116.7L50.8883 144.413L81.1133 114.188Z" fill="white"/>
<path d="M50.8885 145.8C50.7385 145.8 50.5885 145.763 50.401 145.725C49.9135 145.538 49.5385 145.088 49.501 144.563L46.951 116.813C46.9135 116.4 47.0635 115.988 47.3635 115.688L77.5885 85.4627C77.9635 85.0877 78.526 84.9377 79.051 85.1252C79.5385 85.3127 79.9135 85.7627 79.951 86.2877L82.501 114.038C82.5385 114.45 82.3885 114.863 82.0885 115.163L51.8635 145.388C51.601 145.688 51.226 145.8 50.8885 145.8ZM49.7635 117.188L51.976 141.338L79.651 113.663L77.4385 89.5127L49.7635 117.188Z" fill="#221F1F"/>
<path d="M50.8129 83.8877L78.5254 86.4752L48.3004 116.7L20.5879 114.113L50.8129 83.8877Z" fill="white"/>
<path d="M48.3004 118.088C48.2629 118.088 48.2254 118.088 48.1879 118.088L20.4379 115.538C19.9129 115.5 19.4254 115.125 19.2754 114.638C19.0879 114.15 19.2004 113.55 19.6129 113.175L49.8379 82.9501C50.1379 82.6501 50.5504 82.5001 50.9629 82.5376L78.7129 85.0876C79.2379 85.1251 79.7254 85.5001 79.8754 85.9876C80.0629 86.4751 79.9504 87.0751 79.5379 87.4501L49.3129 117.675C49.0504 117.938 48.6754 118.088 48.3004 118.088ZM23.6629 113.025L47.8129 115.238L75.4879 87.5626L51.3379 85.3501L23.6629 113.025Z" fill="#221F1F"/>
<path d="M68.9251 97.4627C68.8876 97.4627 68.8501 97.4627 68.8126 97.4627L41.0626 94.9127C40.3126 94.8377 39.7501 94.1627 39.8251 93.4127C39.9001 92.6627 40.5751 92.1002 41.3251 92.1752L69.0751 94.7252C69.8251 94.8002 70.3876 95.4752 70.3126 96.2252C70.2376 96.9377 69.6376 97.4627 68.9251 97.4627Z" fill="#221F1F"/>
<path d="M71.4755 125.213C70.763 125.213 70.163 124.688 70.088 123.938L67.538 96.1876C67.463 95.4376 68.0255 94.7626 68.7755 94.6876C69.5255 94.6126 70.2005 95.1751 70.2755 95.9251L72.8255 123.675C72.9005 124.425 72.338 125.1 71.588 125.175C71.5505 125.213 71.513 125.213 71.4755 125.213Z" fill="#221F1F"/>
<path d="M58.5003 107.887C58.4628 107.887 58.4253 107.887 58.3878 107.887L30.6378 105.337C29.8878 105.262 29.3253 104.587 29.4003 103.837C29.4753 103.087 30.1503 102.525 30.9003 102.6L58.6503 105.15C59.4003 105.225 59.9628 105.9 59.8878 106.65C59.8128 107.362 59.2128 107.887 58.5003 107.887Z" fill="#221F1F"/>
<path d="M61.0507 135.638C60.3382 135.638 59.7382 135.113 59.6632 134.363L57.1132 106.613C57.0382 105.863 57.6007 105.188 58.3507 105.113C59.1007 105.038 59.7757 105.6 59.8507 106.35L62.4007 134.1C62.4757 134.85 61.9132 135.525 61.1632 135.6C61.1257 135.638 61.0882 135.638 61.0507 135.638Z" fill="#221F1F"/>
<path d="M119.7 51.975L40.8754 130.8C39.0379 132.638 36.0379 132.638 34.2004 130.8C32.3629 128.963 32.3629 125.963 34.2004 124.125L113.025 45.3C102.225 44.325 96.9754 35.1375 96.9754 35.1375L144.413 20.55L129.825 67.9875C129.863 68.025 120.675 62.7751 119.7 51.975Z" fill="white"/>
<path d="M37.5383 133.575C35.8883 133.575 34.3508 132.938 33.2258 131.775C32.0633 130.613 31.4258 129.075 31.4258 127.463C31.4258 125.85 32.0633 124.275 33.2258 123.15L110.138 46.2376C100.613 44.1001 96.0008 36.1876 95.8133 35.8126C95.5883 35.4376 95.5883 34.9876 95.7383 34.6126C95.8883 34.2376 96.2258 33.9376 96.6383 33.7876L144.001 19.2376C144.488 19.0876 145.013 19.2376 145.388 19.5751C145.763 19.9501 145.876 20.4751 145.726 20.9626L131.138 68.4001C131.026 68.8126 130.726 69.1126 130.313 69.3001C129.938 69.4501 129.488 69.4126 129.113 69.2251C128.738 69.0001 120.826 64.3876 118.688 54.9001L41.8508 131.775C40.6883 132.938 39.1508 133.575 37.5383 133.575ZM99.1883 35.9251C101.101 38.4001 105.751 43.2751 113.138 43.9501C113.663 43.9876 114.151 44.3626 114.301 44.8501C114.451 45.3376 114.376 45.9376 113.963 46.3126L35.1758 125.1C34.5383 125.738 34.2008 126.563 34.2008 127.463C34.2008 128.363 34.5383 129.188 35.1758 129.825C35.8133 130.463 36.6383 130.8 37.5383 130.8C38.4383 130.8 39.2633 130.463 39.9008 129.825L118.726 51.0001C119.101 50.6251 119.663 50.4751 120.188 50.6626C120.676 50.8501 121.051 51.3001 121.088 51.8251C121.763 59.1751 126.601 63.8626 129.113 65.7751L142.351 22.6501L99.1883 35.9251Z" fill="#221F1F"/>
</svg>
