<svg width="165" height="165" viewBox="0 0 165 165" fill="none" xmlns="http://www.w3.org/2000/svg">
<path d="M50.8877 149.175C50.4002 149.175 50.0252 149.1 49.8003 149.062H49.7253C49.5378 149.025 49.3503 148.987 49.1628 148.912C47.4378 148.237 46.2752 146.662 46.1252 144.9L45.0752 133.387L44.2502 134.212C42.4503 136.012 40.0877 136.987 37.5378 136.987C34.9502 136.987 32.5877 135.975 30.8252 134.175C29.0252 132.375 28.0503 130.012 28.0503 127.5C28.0503 124.95 29.0628 122.512 30.8628 120.787L31.6503 120L20.1378 118.95C18.2628 118.8 16.6503 117.525 16.0878 115.8C15.4503 114.075 15.9377 112.087 17.2502 110.812L47.4377 80.625C48.3377 79.725 49.5378 79.2 50.8128 79.2C50.9627 79.2 51.1128 79.2 51.2253 79.2375L70.6128 81L103.95 47.6624C97.1628 44.3249 93.6003 38.775 92.8877 37.5749C92.1377 36.3375 92.0252 34.7625 92.5877 33.375C93.0752 32.1 94.1253 31.1249 95.4753 30.6374C95.5127 30.5999 95.5878 30.6 95.6253 30.6L142.988 16.05C143.438 15.9 143.888 15.825 144.375 15.825C145.575 15.825 146.738 16.275 147.638 17.1C147.675 17.1375 147.713 17.175 147.75 17.2125C148.988 18.45 149.438 20.2875 148.913 21.975L134.325 69.375C133.95 70.725 133.013 71.775 131.663 72.375C131.625 72.4125 131.55 72.4125 131.513 72.45C130.95 72.6749 130.35 72.7875 129.75 72.7875C129 72.7875 128.213 72.6 127.538 72.2625C127.463 72.225 127.388 72.1875 127.313 72.1499C126.038 71.3624 120.525 67.7999 117.225 61.0874L84.0003 94.3125L85.8002 113.737C85.9128 115.162 85.4253 116.55 84.4128 117.562L54.2253 147.75C53.4378 148.65 52.2002 149.175 50.8877 149.175Z" fill="white"/>
<path d="M81.1123 114.187L78.5248 86.475L48.2998 116.7L50.8873 144.412L81.1123 114.187Z" fill="#F0AA97"/>
<path d="M50.8875 145.8C50.7375 145.8 50.5875 145.762 50.4 145.725C49.9125 145.537 49.5375 145.087 49.5 144.562L46.95 116.812C46.9125 116.4 47.0625 115.987 47.3625 115.687L77.5875 85.4624C77.9625 85.0874 78.525 84.9374 79.05 85.1249C79.5375 85.3124 79.9125 85.7624 79.95 86.2874L82.5 114.037C82.5375 114.45 82.3875 114.862 82.0875 115.162L51.8625 145.387C51.6 145.687 51.225 145.8 50.8875 145.8ZM49.7625 117.187L51.975 141.337L79.65 113.662L77.4375 89.5124L49.7625 117.187Z" fill="#221F1F"/>
<path d="M50.8129 83.8876L78.5254 86.4751L48.3004 116.7L20.5879 114.113L50.8129 83.8876Z" fill="#D88C7D"/>
<path d="M48.3004 118.088C48.2629 118.088 48.2254 118.088 48.1879 118.088L20.4379 115.538C19.9129 115.5 19.4254 115.125 19.2754 114.638C19.0879 114.15 19.2004 113.55 19.6129 113.175L49.8379 82.95C50.1379 82.65 50.5504 82.5 50.9629 82.5375L78.7129 85.0875C79.2379 85.125 79.7254 85.5 79.8754 85.9875C80.0629 86.475 79.9504 87.075 79.5379 87.45L49.3129 117.675C49.0504 117.938 48.6754 118.088 48.3004 118.088ZM23.6629 113.025L47.8129 115.238L75.4879 87.5625L51.3379 85.35L23.6629 113.025Z" fill="#221F1F"/>
<path d="M68.9251 97.4624C68.8876 97.4624 68.8501 97.4624 68.8126 97.4624L41.0626 94.9124C40.3126 94.8374 39.7501 94.1624 39.8251 93.4124C39.9001 92.6624 40.5751 92.0999 41.3251 92.1749L69.0751 94.7249C69.8251 94.7999 70.3876 95.4749 70.3126 96.2249C70.2376 96.9374 69.6376 97.4624 68.9251 97.4624Z" fill="#221F1F"/>
<path d="M71.4755 125.212C70.763 125.212 70.163 124.687 70.088 123.937L67.538 96.1875C67.463 95.4375 68.0255 94.7625 68.7755 94.6875C69.5255 94.6125 70.2005 95.175 70.2755 95.925L72.8255 123.675C72.9005 124.425 72.338 125.1 71.588 125.175C71.5505 125.212 71.513 125.212 71.4755 125.212Z" fill="#221F1F"/>
<path d="M58.5003 107.887C58.4628 107.887 58.4253 107.887 58.3878 107.887L30.6378 105.337C29.8878 105.262 29.3253 104.587 29.4003 103.837C29.4753 103.087 30.1503 102.525 30.9003 102.6L58.6503 105.15C59.4003 105.225 59.9628 105.9 59.8878 106.65C59.8128 107.362 59.2128 107.887 58.5003 107.887Z" fill="#221F1F"/>
<path d="M61.0507 135.637C60.3382 135.637 59.7382 135.112 59.6632 134.362L57.1132 106.612C57.0382 105.862 57.6007 105.187 58.3507 105.112C59.1007 105.037 59.7757 105.6 59.8507 106.35L62.4007 134.1C62.4757 134.85 61.9132 135.525 61.1632 135.6C61.1257 135.637 61.0882 135.637 61.0507 135.637Z" fill="#221F1F"/>
<path d="M119.7 51.9749L40.8754 130.8C39.0379 132.637 36.0379 132.637 34.2004 130.8C32.3629 128.962 32.3629 125.962 34.2004 124.125L113.025 45.2999C102.225 44.3249 96.9754 35.1374 96.9754 35.1374L144.413 20.5499L129.825 67.9874C129.863 68.0249 120.675 62.7749 119.7 51.9749Z" fill="#CAE5FF"/>
<path d="M37.5383 133.575C35.8883 133.575 34.3508 132.937 33.2258 131.775C32.0633 130.612 31.4258 129.075 31.4258 127.462C31.4258 125.85 32.0633 124.275 33.2258 123.15L110.138 46.2375C100.613 44.1 96.0008 36.1875 95.8133 35.8125C95.5883 35.4375 95.5883 34.9875 95.7383 34.6125C95.8883 34.2375 96.2258 33.9375 96.6383 33.7875L144.001 19.2375C144.488 19.0875 145.013 19.2375 145.388 19.575C145.763 19.95 145.876 20.475 145.726 20.9625L131.138 68.4C131.026 68.8125 130.726 69.1125 130.313 69.3C129.938 69.45 129.488 69.4125 129.113 69.225C128.738 69 120.826 64.3875 118.688 54.9L41.8508 131.775C40.6883 132.937 39.1508 133.575 37.5383 133.575ZM99.1883 35.925C101.101 38.4 105.751 43.275 113.138 43.95C113.663 43.9875 114.151 44.3625 114.301 44.85C114.451 45.3375 114.376 45.9375 113.963 46.3125L35.1758 125.1C34.5383 125.737 34.2008 126.562 34.2008 127.462C34.2008 128.362 34.5383 129.187 35.1758 129.825C35.8133 130.462 36.6383 130.8 37.5383 130.8C38.4383 130.8 39.2633 130.462 39.9008 129.825L118.726 51C119.101 50.625 119.663 50.475 120.188 50.6625C120.676 50.85 121.051 51.3 121.088 51.825C121.763 59.175 126.601 63.8625 129.113 65.775L142.351 22.65L99.1883 35.925Z" fill="#221F1F"/>
<path d="M121.088 51.8625C121.763 59.2125 126.601 63.9 129.113 65.8125L142.351 22.6875L142.238 22.725C137.626 29.775 123.488 46.2 118.988 50.8125C119.326 50.5875 119.776 50.55 120.151 50.7C120.676 50.85 121.013 51.3375 121.088 51.8625Z" fill="#8EBFE2"/>
</svg>
