<svg width="220" height="220" viewBox="0 0 220 220" fill="none" xmlns="http://www.w3.org/2000/svg">
<path d="M183.9 74H36.0997C32.8997 74 30.1997 76.6 30.1997 79.9V121.6C30.1997 124.8 32.7997 127.4 36.0997 127.4H52.2997L42.7997 183.8C42.6997 184.2 42.6997 184.5 42.6997 184.9H73.0997L82.6997 127.4H137L146.6 184.9H177C177 184.5 177 184.2 176.9 183.8L167.4 127.4H183.6C186.8 127.4 189.4 124.8 189.4 121.6V79.8C189.7 76.6 187.1 74 183.9 74Z" fill="white"/>
<path d="M185.8 190.5H34.1999C31.4999 190.5 29.3999 188.3 29.3999 185.7V183.8C29.3999 181.1 31.5999 179 34.1999 179H185.7C188.4 179 190.5 181.2 190.5 183.8V185.7C190.6 188.3 188.4 190.5 185.8 190.5Z" fill="#A0A0A0"/>
<path d="M115.6 64.2C114 64.2 112.6 63.6 111.5 62.5L110.2 61.2L108.9 62.5C107.8 63.6 106.3 64.2 104.8 64.2C103.2 64.2 101.8 63.6 100.7 62.5L94.6 56.4C92.3 54.1 92.3 50.4 94.6 48.1L95.9 46.8L94.6 45.5C92.3 43.2 92.3 39.5 94.6 37.2L100.7 31.1C101.8 30 103.3 29.4 104.8 29.4C106.4 29.4 107.8 30 108.9 31.1L110.2 32.4L111.5 31.1C112.6 30 114.1 29.4 115.6 29.4C117.2 29.4 118.6 30 119.7 31.1L125.8 37.2C128.1 39.5 128.1 43.2 125.8 45.5L124.5 46.8L125.8 48.1C128.1 50.4 128.1 54.1 125.8 56.4L119.7 62.5C118.6 63.6 117.1 64.2 115.6 64.2ZM109.9 46.6C109.9 46.8 109.9 46.9 109.9 47.1C110 47.1 110.1 47.1 110.1 47.1H110.3C110.3 46.9 110.3 46.8 110.3 46.6C110.2 46.6 110.1 46.6 110.1 46.6C110.1 46.6 110 46.6 109.9 46.6Z" fill="white"/>
<path d="M79.3002 113.2H60.7002L48.7002 184.8H67.3002L79.3002 113.2Z" fill="#EFD488"/>
<path d="M67.3 186.7H48.7C48.2 186.7 47.6 186.5 47.3 186C47 185.5 46.8 185 46.9 184.5L58.9 112.9C59 112 59.8 111.4 60.7 111.4H79.3C79.8 111.4 80.4 111.6 80.7 112.1C81 112.6 81.2 113.1 81.1 113.6L69.1 185.2C69 186 68.2 186.7 67.3 186.7ZM50.9 183H65.8L77.2 115.1H62.2L50.9 183Z" fill="#221F1F"/>
<path d="M140.7 113.2H159.3L171.3 184.8H152.7L140.7 113.2Z" fill="#EFD488"/>
<path d="M171.3 186.7H152.7C151.8 186.7 151 186 150.9 185.2L138.9 113.6C138.8 113.1 139 112.5 139.3 112.1C139.6 111.7 140.2 111.4 140.7 111.4H159.3C160.2 111.4 161 112.1 161.1 112.9L173.1 184.5C173.2 185 173 185.6 172.7 186C172.4 186.4 171.9 186.7 171.3 186.7ZM154.3 183H169.2L157.8 115.1H142.9L154.3 183Z" fill="#221F1F"/>
<path d="M98.7002 41.5L104.8 35.4L110.2 40.8L115.6 35.4L121.6 41.5L116.2 46.9L121.6 52.3L115.6 58.3L110.2 52.9L104.8 58.3L98.7002 52.3L104.1 46.9L98.7002 41.5Z" fill="#F2AC99"/>
<path d="M104.8 60.2C104.3 60.2 103.8 60 103.5 59.7L97.4 53.6C96.7 52.9 96.7 51.7 97.4 51L101.5 46.9L97.4 42.8C96.7 42.1 96.7 40.9 97.4 40.2L103.5 34.1C103.8 33.8 104.3 33.6 104.8 33.6C105.3 33.6 105.8 33.8 106.1 34.1L110.2 38.2L114.3 34.1C115 33.4 116.2 33.4 116.9 34.1L123 40.2C123.7 40.9 123.7 42.1 123 42.8L118.9 46.9L123 51C123.7 51.7 123.7 52.9 123 53.6L116.9 59.7C116.2 60.4 115 60.4 114.3 59.7L110.2 55.6L106.1 59.7C105.7 60 105.3 60.2 104.8 60.2ZM110.2 51.1C110.7 51.1 111.2 51.3 111.5 51.6L115.6 55.7L119.1 52.2L115 48.1C114.3 47.4 114.3 46.2 115 45.5L119.1 41.4L115.6 37.9L111.5 42C111.2 42.3 110.7 42.5 110.2 42.5C109.7 42.5 109.2 42.3 108.9 42L104.8 37.9L101.3 41.4L105.4 45.5C106.1 46.2 106.1 47.4 105.4 48.1L101.3 52.2L104.8 55.7L108.9 51.6C109.2 51.3 109.7 51.1 110.2 51.1Z" fill="#221F1F"/>
<path d="M148.999 68.7C152.092 68.7 154.599 66.1928 154.599 63.1C154.599 60.0072 152.092 57.5 148.999 57.5C145.907 57.5 143.399 60.0072 143.399 63.1C143.399 66.1928 145.907 68.7 148.999 68.7Z" fill="#F2AC99"/>
<path d="M149 70.5C144.9 70.5 141.6 67.2 141.6 63.1C141.6 59 144.9 55.7 149 55.7C153.1 55.7 156.4 59 156.4 63.1C156.4 67.2 153.1 70.5 149 70.5ZM149 59.4C146.9 59.4 145.3 61.1 145.3 63.1C145.3 65.1 147 66.8 149 66.8C151 66.8 152.7 65.1 152.7 63.1C152.7 61.1 151 59.4 149 59.4Z" fill="#221F1F"/>
<path d="M69.2998 56.4C71.2328 56.4 72.7998 54.833 72.7998 52.9C72.7998 50.967 71.2328 49.4 69.2998 49.4C67.3668 49.4 65.7998 50.967 65.7998 52.9C65.7998 54.833 67.3668 56.4 69.2998 56.4Z" fill="#A0A0A0"/>
<path d="M100.999 154.9C104.092 154.9 106.599 152.393 106.599 149.3C106.599 146.207 104.092 143.7 100.999 143.7C97.9066 143.7 95.3994 146.207 95.3994 149.3C95.3994 152.393 97.9066 154.9 100.999 154.9Z" fill="#F2AC99"/>
<path d="M101 156.7C96.8996 156.7 93.5996 153.4 93.5996 149.3C93.5996 145.2 96.8996 141.9 101 141.9C105.1 141.9 108.4 145.2 108.4 149.3C108.4 153.4 105.1 156.7 101 156.7ZM101 145.5C98.9996 145.5 97.2996 147.2 97.2996 149.2C97.2996 151.2 98.9996 152.9 101 152.9C103.1 152.9 104.7 151.2 104.7 149.2C104.7 147.2 103 145.5 101 145.5Z" fill="#221F1F"/>
<path d="M158.6 120H143.7L145.9 133H160.8L158.6 120ZM59.2002 133.1H74.1002L76.3002 120.1H61.4002L59.2002 133.1Z" fill="#D2B566"/>
<path d="M41.4996 79.8H175.8H183.9V121.6H175.8H41.4996H36.0996V79.8H41.4996Z" fill="#EFD488"/>
<path d="M183.9 123.4H36.0997C35.0997 123.4 34.1997 122.6 34.1997 121.6V79.8C34.1997 78.8 34.9997 77.9 36.0997 77.9H183.8C184.8 77.9 185.6 78.7 185.6 79.8V121.5C185.7 122.6 184.9 123.4 183.9 123.4ZM37.9997 119.7H182V81.7H37.9997V119.7Z" fill="#221F1F"/>
<path d="M58.2997 121.6H44.1997L57.5997 79.8H71.7997L58.2997 121.6Z" fill="#221F1F"/>
<path d="M58.2998 123.4H44.1998C43.5998 123.4 43.0998 123.1 42.6998 122.6C42.3998 122.1 42.2998 121.5 42.3998 120.9L55.7998 79.2C55.9998 78.4 56.7998 77.9 57.5998 77.9H71.7998C72.3998 77.9 72.8998 78.2 73.2998 78.7C73.5998 79.2 73.6998 79.8 73.5998 80.4L60.1998 122.1C59.8998 122.9 59.0998 123.4 58.2998 123.4ZM46.6998 119.7H56.9998L69.1998 81.7H58.8998L46.6998 119.7Z" fill="#221F1F"/>
<path d="M162.4 121.6H148.2L161.7 79.8H175.8L162.4 121.6Z" fill="#221F1F"/>
<path d="M162.4 123.4H148.2C147.6 123.4 147.1 123.1 146.7 122.6C146.4 122.1 146.3 121.5 146.4 120.9L159.8 79.2C160 78.4 160.8 77.9 161.6 77.9H175.8C176.4 77.9 176.9 78.2 177.3 78.7C177.6 79.2 177.7 79.8 177.6 80.4L164.2 122.1C163.9 122.9 163.2 123.4 162.4 123.4ZM150.8 119.7H161.1L173.3 81.7H163L150.8 119.7Z" fill="#221F1F"/>
<path d="M127.7 121.6H113.5L127 79.8H141.1L127.7 121.6Z" fill="#221F1F"/>
<path d="M127.7 123.4H113.5C112.9 123.4 112.4 123.1 112 122.6C111.7 122.1 111.6 121.5 111.7 120.9L125.1 79.2C125.3 78.4 126.1 77.9 126.9 77.9H141.1C141.7 77.9 142.2 78.2 142.6 78.7C142.9 79.2 143 79.8 142.9 80.4L129.5 122.1C129.2 122.9 128.5 123.4 127.7 123.4ZM116.1 119.7H126.4L138.6 81.7H128.3L116.1 119.7Z" fill="#221F1F"/>
<path d="M93.0004 121.6H78.9004L92.3004 79.8H106.5L93.0004 121.6Z" fill="#221F1F"/>
<path d="M93 123.4H78.9C78.3 123.4 77.8 123.1 77.4 122.6C77.1 122.1 77 121.5 77.1 120.9L90.5 79.2C90.7 78.4 91.5 77.9 92.3 77.9H106.5C107.1 77.9 107.6 78.2 108 78.7C108.3 79.2 108.4 79.8 108.3 80.4L94.9 122.1C94.5 122.9 93.8 123.4 93 123.4ZM81.4 119.7H91.7L103.9 81.7H93.6L81.4 119.7Z" fill="#221F1F"/>
</svg>
