<svg width="165" height="165" viewBox="0 0 165 165" fill="none" xmlns="http://www.w3.org/2000/svg">
<path d="M109.987 140.55C102.787 140.55 95.925 137.55 90.225 131.813C87.2625 128.85 84.6 125.213 82.4625 121.2C80.325 125.25 77.6625 128.888 74.7375 131.813C69 137.513 62.175 140.513 54.975 140.513C47.5875 140.513 40.5 137.325 34.5 131.363C28.95 125.813 25.725 118.95 25.3875 112.013C25.05 104.4 28.05 97.2 34.0875 91.2C34.4625 90.825 34.875 90.4126 35.2875 90.0376C24.675 89.025 15.9 81 13.875 70.3501C12.4125 62.5126 11.4375 53.325 10.9875 43.0875C10.725 37.1625 13.3875 31.5 18.1125 27.975C21.15 25.6875 24.7125 24.4875 28.3875 24.4875C30.3 24.4875 32.2125 24.825 34.05 25.4625C51.4125 31.425 63.75 41.1 72.3375 50.775C70.275 45.525 67.425 40.0875 63.45 35.3625L63.4125 35.325C61.7625 33.3 62.0625 30.2625 64.0875 28.6125C64.95 27.9 66 27.525 67.0875 27.525C68.5125 27.525 69.825 28.1625 70.7625 29.25C76.35 35.925 80.0625 43.5751 82.5 50.6625C84.9375 43.5751 88.65 35.9625 94.2375 29.25C95.1375 28.1625 96.4875 27.525 97.9125 27.525C99 27.525 100.087 27.9 100.912 28.6125C102.937 30.2625 103.237 33.2625 101.587 35.325L101.55 35.3625C97.6125 40.05 94.7625 45.4875 92.7 50.7C101.325 40.9875 113.625 31.35 130.987 25.425C132.825 24.7875 134.737 24.4875 136.65 24.4875C140.362 24.4875 143.925 25.6875 146.925 27.9375C151.65 31.4625 154.312 37.125 154.05 43.05C153.6 53.2875 152.625 62.4375 151.162 70.275C149.137 80.9625 140.362 88.95 129.675 89.9625C130.087 90.3375 130.5 90.75 130.912 91.125C136.687 96.9 139.725 103.838 139.65 111.188C139.575 118.5 136.425 125.438 130.5 131.363C124.462 137.4 117.412 140.55 109.987 140.55Z" fill="white"/>
<path d="M32.4758 29.9251C62.8508 40.3876 76.8758 62.7001 82.5008 74.9251C88.1258 62.7376 102.151 40.3876 132.526 29.9251C141.001 27.0001 149.701 33.7501 149.288 42.8626C148.951 50.8876 148.126 60.5626 146.438 69.4501C144.751 78.2626 137.363 84.7876 128.551 85.3501L114.938 86.1751C119.701 88.2751 124.126 91.2001 127.501 94.5751C138.188 105.263 136.426 118.688 127.088 128.063C117.713 137.438 104.326 139.163 93.6008 128.475C88.3508 123.225 84.2258 115.463 82.5008 107.775C80.7383 115.463 76.6133 123.225 71.4008 128.475C60.7133 139.163 47.2883 137.4 37.9133 128.063C28.5383 118.688 26.8133 105.3 37.5008 94.5751C40.8758 91.2001 45.3008 88.2751 50.0633 86.1751L36.4508 85.3501C27.6383 84.8251 20.2133 78.3001 18.5633 69.4501C16.8758 60.6001 16.0883 50.8876 15.7133 42.8626C15.3008 33.7501 24.0008 27.0001 32.4758 29.9251Z" fill="#FAC15E"/>
<path d="M55.013 137.175C48.713 137.175 42.3755 134.438 36.938 129C31.988 124.05 29.1005 117.938 28.8005 111.863C28.5005 105.263 31.163 98.925 36.5255 93.6C38.888 91.2375 41.738 89.1 44.9255 87.2625L36.3755 86.7375C26.888 86.1375 18.9755 79.1625 17.1755 69.7125C15.7505 62.1375 14.7755 53.1375 14.3255 42.9375C14.1005 38.1375 16.2755 33.525 20.1005 30.675C23.8505 27.8625 28.538 27.1125 32.9255 28.65C61.688 38.55 76.0505 58.9125 82.5005 71.7375C88.988 58.875 103.313 38.5125 132.075 28.65C136.463 27.15 141.15 27.8625 144.9 30.675C148.725 33.525 150.9 38.1375 150.675 42.9375C150.225 53.1375 149.25 62.1375 147.825 69.7125C146.025 79.1625 138.15 86.1375 128.625 86.7375L120.075 87.2625C123.263 89.1 126.113 91.2375 128.475 93.6C138.938 104.063 138.788 118.313 128.063 129.038C117.338 139.763 103.088 139.913 92.6255 129.45C88.313 125.138 84.6755 119.138 82.5005 112.8C80.288 119.138 76.688 125.138 72.3755 129.45C67.2005 134.588 61.1255 137.175 55.013 137.175ZM82.5005 106.35C83.138 106.35 83.7005 106.8 83.8505 107.438C85.5755 114.975 89.588 122.438 94.613 127.463C99.413 132.263 105 134.625 110.813 134.363C116.213 134.1 121.65 131.513 126.113 127.05C130.575 122.588 133.2 117.15 133.425 111.75C133.688 105.938 131.325 100.35 126.525 95.55C123.3 92.325 119.1 89.55 114.375 87.45C113.775 87.1875 113.475 86.55 113.588 85.95C113.7 85.3125 114.225 84.8625 114.863 84.825L128.475 84C136.688 83.5125 143.55 77.4375 145.088 69.225C146.513 61.8 147.45 52.9125 147.9 42.8625C148.088 38.9625 146.325 35.25 143.25 32.9625C140.25 30.7125 136.5 30.1125 132.975 31.35C103.163 41.5875 89.3255 63.4875 83.738 75.6C83.513 76.0875 83.0255 76.425 82.463 76.425C81.9005 76.425 81.413 76.125 81.188 75.6C75.6005 63.4875 61.8005 41.5875 31.9505 31.35C28.5005 30.0375 24.7505 30.6375 21.7505 32.85C18.6755 35.175 16.913 38.85 17.1005 42.75C17.5505 52.8 18.488 61.6875 19.913 69.1125C21.488 77.2875 28.313 83.3625 36.5255 83.8875L50.138 84.7125C50.7755 84.75 51.3005 85.2375 51.413 85.8375C51.5255 86.475 51.188 87.075 50.6255 87.3375C45.863 89.4375 41.663 92.25 38.4755 95.4375C33.6755 100.238 31.313 105.825 31.5755 111.638C31.838 117.038 34.4255 122.475 38.888 126.938C43.3505 131.4 48.788 134.025 54.188 134.25C60.0005 134.513 65.588 132.15 70.388 127.35C75.413 122.325 79.4255 114.863 81.1505 107.325C81.3005 106.8 81.863 106.35 82.5005 106.35Z" fill="#221F1F"/>
<path d="M82.5003 76.3126C81.7503 76.3126 81.1503 75.7126 81.1128 74.9626C81.1128 74.7001 80.1378 50.0626 66.0378 33.2251C65.5503 32.6251 65.6253 31.7626 66.2253 31.2751C66.8253 30.7876 67.6878 30.8626 68.1753 31.4626C82.8753 49.0501 83.8503 73.8376 83.8878 74.8876C83.9253 75.6376 83.3253 76.3126 82.5378 76.3126C82.5378 76.2751 82.5003 76.3126 82.5003 76.3126Z" fill="#221F1F"/>
<path d="M82.5008 76.3126H82.4633C81.7133 76.2751 81.1133 75.6376 81.1133 74.8876C81.1508 73.8376 82.1258 49.0501 96.8258 31.4626C97.3133 30.8626 98.1758 30.7876 98.7758 31.2751C99.3758 31.7626 99.4508 32.6251 98.9633 33.2251C84.9008 50.0626 83.9258 74.7001 83.8883 74.9626C83.8508 75.7126 83.2508 76.3126 82.5008 76.3126Z" fill="#221F1F"/>
<path d="M84.113 74.775C84.0005 75 83.888 75.2625 83.7755 75.4875C83.5505 75.975 83.063 76.3125 82.5005 76.3125C81.938 76.3125 81.4505 76.0125 81.2255 75.4875C75.638 63.375 61.838 41.475 31.988 31.2375C28.5005 30.0375 24.7505 30.6375 21.7505 32.85C18.6755 35.175 16.913 38.85 17.1005 42.75C17.5505 52.8 18.488 61.6875 19.913 69.1125C21.488 77.2875 28.313 83.3625 36.5255 83.8875L50.138 84.7125C50.7755 84.75 51.3005 85.2375 51.413 85.8375C51.5255 86.4375 51.188 87.075 50.6255 87.3375C45.863 89.4375 41.663 92.25 38.4755 95.4375C33.6755 100.238 31.313 105.825 31.5755 111.638C31.838 117.038 34.4255 122.475 38.888 126.938C43.3505 131.4 48.788 134.025 54.188 134.25C60.0005 134.513 65.588 132.15 70.388 127.35C75.413 122.325 79.4255 114.863 81.1505 107.325C81.3005 106.688 81.863 106.237 82.5005 106.237C83.138 106.237 83.7005 106.688 83.8505 107.325C83.9255 107.663 84.0005 107.962 84.0755 108.3V74.775H84.113Z" fill="#F9A02B"/>
<path d="M138.964 56.8163C141.731 50.2511 140.06 43.2791 135.231 41.244C130.403 39.2088 124.245 42.8812 121.478 49.4464C118.711 56.0116 120.382 62.9835 125.211 65.0187C130.039 67.0538 136.196 63.3815 138.964 56.8163Z" fill="#FFDF9F"/>
<path d="M117.294 119.319C121.221 115.851 120.581 108.71 115.865 103.37C111.149 98.0304 104.142 96.5136 100.214 99.9823C96.2872 103.451 96.9269 110.592 101.643 115.932C106.36 121.271 113.367 122.788 117.294 119.319Z" fill="#FFDF9F"/>
<path d="M115.175 66.0604C116.784 62.2435 115.814 58.1906 113.008 57.0081C110.203 55.8257 106.624 57.9613 105.016 61.7783C103.407 65.5953 104.377 69.6482 107.182 70.8306C109.988 72.0131 113.566 69.8774 115.175 66.0604Z" fill="#FFDF9F"/>
<path d="M39.8113 64.9889C44.6398 62.9538 46.3108 55.9818 43.5437 49.4166C40.7765 42.8514 34.6191 39.1791 29.7906 41.2142C24.9621 43.2494 23.2911 50.2213 26.0582 56.7865C28.8254 63.3517 34.9828 67.0241 39.8113 64.9889Z" fill="#FAC15E"/>
<path d="M63.3534 115.93C68.0698 110.59 68.7095 103.449 64.7823 99.9805C60.855 96.5117 53.848 98.0285 49.1316 103.368C44.4152 108.708 43.7754 115.849 47.7027 119.318C51.6299 122.786 58.637 121.27 63.3534 115.93Z" fill="#FAC15E"/>
<path d="M57.814 70.8128C60.6194 69.6303 61.5895 65.5775 59.9807 61.7605C58.3719 57.9435 54.7935 55.8078 51.988 56.9903C49.1825 58.1728 48.2124 62.2256 49.8212 66.0426C51.43 69.8596 55.0085 71.9953 57.814 70.8128Z" fill="#FAC15E"/>
</svg>
