<svg width="165" height="165" viewBox="0 0 165 165" fill="none" xmlns="http://www.w3.org/2000/svg">
<path d="M32.4758 29.9248C62.8508 40.3873 76.8758 62.6998 82.5008 74.9248C88.1258 62.7373 102.151 40.3873 132.526 29.9248C141.001 26.9998 149.701 33.7498 149.288 42.8623C148.951 50.8873 148.126 60.5623 146.438 69.4498C144.751 78.2623 137.363 84.7873 128.551 85.3498L114.938 86.1748C119.701 88.2748 124.126 91.1998 127.501 94.5748C138.188 105.262 136.426 118.687 127.088 128.062C117.713 137.437 104.326 139.162 93.6008 128.475C88.3508 123.225 84.2258 115.462 82.5008 107.775C80.7383 115.462 76.6133 123.225 71.4008 128.475C60.7133 139.162 47.2883 137.4 37.9133 128.062C28.5383 118.687 26.8133 105.3 37.5008 94.5748C40.8758 91.1998 45.3008 88.2748 50.0633 86.1748L36.4508 85.3498C27.6383 84.8248 20.2133 78.2998 18.5633 69.4498C16.8758 60.5998 16.0883 50.8873 15.7133 42.8623C15.3008 33.7498 24.0008 26.9998 32.4758 29.9248Z" fill="white"/>
<path d="M55.013 137.175C48.713 137.175 42.3755 134.437 36.938 129C31.988 124.05 29.1005 117.937 28.8005 111.862C28.5005 105.262 31.163 98.9249 36.5255 93.5624C38.888 91.1999 41.738 89.0624 44.9255 87.2249L36.3755 86.6999C26.888 86.0999 18.9755 79.1249 17.1755 69.6749C15.7505 62.0999 14.7755 53.0999 14.3255 42.8999C14.1005 38.0999 16.2755 33.4874 20.1005 30.6374C23.8505 27.8249 28.538 27.0749 32.9255 28.6124C61.688 38.5124 76.0505 58.8749 82.5005 71.6999C88.988 58.8374 103.313 38.4749 132.075 28.6124C136.463 27.1124 141.15 27.8249 144.9 30.6374C148.725 33.4874 150.9 38.0999 150.675 42.8999C150.225 53.0999 149.25 62.0999 147.825 69.6749C146.025 79.1249 138.15 86.0999 128.625 86.6999L120.075 87.2249C123.263 89.0624 126.113 91.1999 128.475 93.5624C138.938 104.025 138.788 118.275 128.063 129C117.338 139.725 103.088 139.875 92.6255 129.412C88.313 125.1 84.6755 119.1 82.5005 112.762C80.288 119.1 76.688 125.1 72.3755 129.412C67.2005 134.587 61.1255 137.175 55.013 137.175ZM82.5005 106.35C83.138 106.35 83.7005 106.8 83.8505 107.437C85.5755 114.975 89.588 122.437 94.613 127.462C99.413 132.262 105 134.625 110.813 134.362C116.213 134.1 121.65 131.512 126.113 127.05C130.575 122.587 133.2 117.15 133.425 111.75C133.688 105.937 131.325 100.35 126.525 95.5499C123.3 92.3249 119.1 89.5499 114.375 87.4499C113.775 87.1874 113.475 86.5499 113.588 85.9499C113.7 85.3124 114.225 84.8624 114.863 84.8249L128.475 83.9999C136.688 83.5124 143.55 77.4374 145.088 69.2249C146.513 61.7999 147.45 52.9124 147.9 42.8624C148.088 38.9624 146.325 35.2499 143.25 32.9624C140.25 30.7124 136.5 30.1124 132.975 31.3499C103.163 41.5874 89.3255 63.4874 83.738 75.5999C83.513 76.0874 83.0255 76.4249 82.463 76.4249C81.9005 76.4249 81.413 76.1249 81.188 75.5999C75.6005 63.4874 61.8005 41.5874 31.9505 31.3499C28.5005 30.0374 24.7505 30.6374 21.7505 32.8499C18.6755 35.1749 16.913 38.8499 17.1005 42.7499C17.5505 52.7999 18.488 61.6874 19.913 69.1124C21.488 77.2874 28.313 83.3624 36.5255 83.8874L50.138 84.7124C50.7755 84.7499 51.3005 85.2374 51.413 85.8374C51.5255 86.4749 51.188 87.0749 50.6255 87.3374C45.863 89.4374 41.663 92.2499 38.4755 95.4374C33.6755 100.237 31.313 105.825 31.5755 111.637C31.838 117.037 34.4255 122.475 38.888 126.937C43.3505 131.4 48.788 134.025 54.188 134.25C60.0005 134.512 65.588 132.15 70.388 127.35C75.413 122.325 79.4255 114.862 81.1505 107.325C81.3005 106.8 81.863 106.35 82.5005 106.35Z" fill="#221F1F"/>
<path d="M82.5 74.925C82.5 74.925 81.675 49.7626 67.125 32.3625L82.5 74.925Z" fill="white"/>
<path d="M82.5003 76.275C81.7503 76.275 81.1503 75.675 81.1128 74.925C81.1128 74.6625 80.1378 50.025 66.0378 33.1875C65.5503 32.5875 65.6253 31.725 66.2253 31.2375C66.8253 30.75 67.6878 30.825 68.1753 31.425C82.8753 49.0125 83.8503 73.8 83.8878 74.85C83.9253 75.6 83.3253 76.275 82.5378 76.275H82.5003Z" fill="#221F1F"/>
<path d="M82.501 74.925C82.501 74.925 83.326 49.7626 97.876 32.3625L82.501 74.925Z" fill="white"/>
<path d="M82.5008 76.275H82.4633C81.7133 76.2375 81.1133 75.6 81.1133 74.85C81.1508 73.8 82.1258 49.0125 96.8258 31.425C97.3133 30.825 98.1758 30.75 98.7758 31.2375C99.3758 31.725 99.4508 32.5875 98.9633 33.1875C84.9008 50.025 83.9258 74.6625 83.8883 74.925C83.8508 75.7125 83.2508 76.275 82.5008 76.275Z" fill="#221F1F"/>
</svg>
