<svg width="220" height="220" viewBox="0 0 220 220" fill="none" xmlns="http://www.w3.org/2000/svg">
<path d="M114.3 175.3L94.7002 142.7L115.9 128.3L133.3 133.8L135 156.3L114.3 175.3Z" fill="white"/>
<path d="M125 43.4C125.3 43.6 125.8 44 126.2 44.3C126.6 44.7 126.9 45.1 127.1 45.5C127.5 48.3 129.9 50.5 132.8 50.5C135.7 50.5 138.1 48.3 138.5 45.5C138.7 45.2 139.1 44.7 139.5 44.3C139.9 43.9 140.3 43.6 140.7 43.3C143.5 42.9 145.7 40.5 145.7 37.6C145.7 34.7 143.5 32.3 140.7 31.9C140.4 31.7 139.9 31.3 139.5 31C139.1 30.6 138.8 30.2 138.5 29.8C138.1 27 135.7 24.8 132.8 24.8C129.9 24.8 127.5 27 127.1 29.8C126.9 30.1 126.5 30.6 126.2 31C125.8 31.4 125.4 31.7 125 32C122.2 32.4 120 34.8 120 37.7C120 40.6 122.2 43 125 43.4Z" fill="white"/>
<path d="M187.5 112.8C189.6 112 191.7 110.9 193.5 109.5C201.3 103.5 204 92.7 199.9 83.8C197.4 78.3 192.6 74.1 186.8 72.3C184.8 71.7 182.6 71.3 180.5 71.3C176.6 71.3 172.9 72.3 169.6 74.3C168.4 75 167.2 75.9 166.1 76.9L157.8 63C155.7 59.5 151.9 57.3 147.8 57.3C145.7 57.3 143.6 57.9 141.8 58.9L129.1 66.5C128.7 65.5 128.2 64.5 127.6 63.5C123.8 57.1 116.8 53.1 109.3 53.1C108.2 53.1 107 53.2 105.9 53.4L103.9 50C101.8 46.4 97.9998 44.2 93.7998 44.2C91.7998 44.2 89.7998 44.7 87.9998 45.8L73.9998 53.9C73.2998 51.7 72.1998 49.7 70.7998 47.8C66.7998 42.5 60.3998 39.3 53.4998 39.3C50.5998 39.3 47.6998 39.9 45.0998 41C39.4998 43.5 35.2998 48.2 33.3998 53.9C31.4998 59.7 32.1998 66 35.1998 71.2C35.8998 72.5 36.7998 73.6 37.6998 74.7L23.6998 82.8C18.0998 86 16.1998 93.1 19.3998 98.7L28.9998 115.3C30.3998 117.7 32.7998 119.2 35.5998 119.4C35.7998 119.4 35.9998 119.4 36.1998 119.4C38.7998 119.4 41.1998 118.2 42.7998 116.2C43.8998 114.8 45.2998 113.8 46.8998 113.2C47.9998 112.8 49.0998 112.6 50.1998 112.6C53.2998 112.6 56.2998 114.1 57.9998 116.5C59.6998 118.8 60.1998 121.5 59.6998 124.2C59.0998 126.9 57.4998 129.2 55.0998 130.6C53.9998 131.2 52.8998 131.6 51.6998 131.8C48.8998 132.2 46.5998 133.9 45.2998 136.4C44.0998 138.9 44.1998 141.8 45.5998 144.2L55.1998 160.8C57.2998 164.4 61.0998 166.6 65.2998 166.6C67.2998 166.6 69.2998 166.1 71.0998 165L118.4 137.7C117.7 140 116.2 142 114.1 143.3C112.9 144 111.7 144.4 110.4 144.6C107.4 145 104.7 146.8 103.4 149.6C102.1 152.3 102.2 155.5 103.8 158.1L114.1 175.3C115.7 178 118.2 179.9 121.3 180.6C122.2 180.8 123.2 181 124.2 181C126.3 181 128.4 180.4 130.2 179.3L142.7 171.9C142.8 172.2 143 172.4 143.2 172.7C146.3 177.9 151.4 181.5 157.3 182.7C158.7 183 160.1 183.1 161.6 183.1C166.2 183.1 170.5 181.6 174.3 178.9C182.2 173 185.1 162.2 181.1 153.2C180.6 152.1 180 151.1 179.4 150.1L191.9 142.7C197.4 139.4 199.2 132.2 195.9 126.7L187.5 112.8Z" fill="white"/>
<path d="M96.0002 174.2C95.9002 174.2 95.8002 174.1 95.6002 174C95.0002 173.6 94.3002 173.1 93.6002 172.4C92.9002 171.7 92.4002 171 92.0002 170.4C91.9002 170.2 91.8002 170.1 91.8002 170C91.6002 167 89.1002 164.7 86.0002 164.7C83.0002 164.7 80.5002 167 80.2002 170C80.2002 170.1 80.1002 170.2 80.0002 170.4C79.6002 171 79.1002 171.7 78.4002 172.4C77.7002 173.1 77.0002 173.6 76.4002 174C76.2002 174.1 76.1002 174.2 76.0002 174.2C73.0002 174.4 70.7002 176.9 70.7002 180C70.7002 183 73.1002 185.5 76.0002 185.8C76.1002 185.8 76.2002 185.9 76.4002 186C77.0002 186.4 77.7002 186.9 78.4002 187.6C79.1002 188.2 79.6002 189 80.0002 189.6C80.1002 189.8 80.2002 189.9 80.2002 190C80.4002 193 82.9002 195.3 86.0002 195.3C89.0002 195.3 91.5002 193 91.8002 190C91.8002 189.9 91.9002 189.8 92.0002 189.6C92.4002 189 92.9002 188.3 93.6002 187.6C94.3002 186.9 95.0002 186.4 95.6002 186C95.8002 185.9 95.9002 185.8 96.0002 185.8C99.0002 185.6 101.3 183.1 101.3 180C101.3 176.9 99.0002 174.4 96.0002 174.2Z" fill="white"/>
<path d="M125.8 37.6C128.3 37.6 132.9 33 132.9 30.5C132.9 33 137.5 37.6 140 37.6C137.5 37.6 132.9 42.2 132.9 44.7C132.9 42.2 128.3 37.6 125.8 37.6Z" fill="#F3CB58" stroke="#221F1F" stroke-miterlimit="10"/>
<path fill-rule="evenodd" clip-rule="evenodd" d="M124.5 37.6C124.5 36.9 125.1 36.3 125.8 36.3C126.1 36.3 126.6 36.2 127.3 35.7C128 35.3 128.7 34.7 129.4 34.1C130.1 33.4 130.6 32.7 131 32C131.4 31.3 131.6 30.8 131.6 30.5C131.6 29.8 132.2 29.2 132.9 29.2C133.6 29.2 134.2 29.8 134.2 30.5C134.2 30.8 134.3 31.3 134.8 32C135.2 32.7 135.8 33.4 136.4 34.1C137.1 34.8 137.8 35.3 138.5 35.7C139.2 36.1 139.7 36.3 140 36.3C140.7 36.3 141.3 36.9 141.3 37.6C141.3 38.3 140.7 38.9 140 38.9C139.7 38.9 139.2 39 138.5 39.5C137.8 39.9 137.1 40.5 136.4 41.1C135.7 41.8 135.2 42.5 134.8 43.2C134.4 43.9 134.2 44.4 134.2 44.7C134.2 45.4 133.6 46 132.9 46C132.2 46 131.6 45.4 131.6 44.7C131.6 44.4 131.5 43.9 131 43.2C130.6 42.5 130 41.8 129.4 41.1C128.7 40.4 128 39.9 127.3 39.5C126.6 39.1 126.1 38.9 125.8 38.9C125.1 38.9 124.5 38.4 124.5 37.6ZM129.2 37.6C129.9 38.1 130.6 38.7 131.2 39.3C131.8 39.9 132.4 40.6 132.9 41.3C133.4 40.6 134 39.9 134.6 39.3C135.2 38.7 135.9 38.1 136.6 37.6C135.9 37.1 135.2 36.5 134.6 35.9C134 35.3 133.4 34.6 132.9 33.9C132.4 34.6 131.8 35.3 131.2 35.9C130.6 36.6 129.9 37.2 129.2 37.6Z" fill="#221F1F" stroke="#221F1F" stroke-miterlimit="10"/>
<path d="M76.5996 179.9C79.8996 179.9 86.0996 173.8 86.0996 170.4C86.0996 173.7 92.1996 179.9 95.5996 179.9C92.2996 179.9 86.0996 186 86.0996 189.4C86.0996 186 79.9996 179.9 76.5996 179.9Z" fill="#F3CB58" stroke="#221F1F" stroke-miterlimit="10"/>
<path fill-rule="evenodd" clip-rule="evenodd" d="M75.2998 179.9C75.2998 179.2 75.8998 178.6 76.5998 178.6C77.0998 178.6 77.8998 178.4 78.7998 177.8C79.6998 177.2 80.6998 176.4 81.5998 175.5C82.4998 174.6 83.2998 173.6 83.8998 172.7C84.4998 171.7 84.6998 171 84.6998 170.5C84.6998 169.8 85.2998 169.2 85.9998 169.2C86.6998 169.2 87.2998 169.8 87.2998 170.5C87.2998 171 87.4998 171.8 88.0998 172.7C88.6998 173.6 89.4998 174.6 90.3998 175.5C91.2998 176.4 92.2998 177.2 93.1998 177.8C94.1998 178.4 94.8998 178.6 95.3998 178.6C96.0998 178.6 96.6998 179.2 96.6998 179.9C96.6998 180.6 96.0998 181.2 95.3998 181.2C94.8998 181.2 94.0998 181.4 93.1998 182C92.2998 182.6 91.2998 183.4 90.3998 184.3C89.4998 185.2 88.6998 186.2 88.0998 187.1C87.4998 188.1 87.2998 188.8 87.2998 189.3C87.2998 190 86.6998 190.6 85.9998 190.6C85.2998 190.6 84.6998 190 84.6998 189.3C84.6998 188.8 84.4998 188 83.8998 187.1C83.2998 186.2 82.4998 185.2 81.5998 184.3C80.6998 183.4 79.6998 182.6 78.7998 182C77.7998 181.4 77.0998 181.2 76.5998 181.2C75.8998 181.2 75.2998 180.7 75.2998 179.9ZM80.2998 179.9C81.3998 180.6 82.4998 181.5 83.4998 182.5C84.4998 183.5 85.3998 184.6 86.0998 185.7C86.7998 184.6 87.6998 183.5 88.6998 182.5C89.6998 181.5 90.7998 180.6 91.8998 179.9C90.7998 179.2 89.6998 178.3 88.6998 177.3C87.6998 176.3 86.7998 175.2 86.0998 174.1C85.3998 175.2 84.4998 176.3 83.4998 177.3C82.4998 178.4 81.3998 179.3 80.2998 179.9Z" fill="#221F1F" stroke="#221F1F" stroke-miterlimit="10"/>
<path d="M125.8 37.6C128.3 37.6 132.9 33 132.9 30.5C132.9 33 137.5 37.6 140 37.6C137.5 37.6 132.9 42.2 132.9 44.7C132.9 42.2 128.3 37.6 125.8 37.6Z" fill="#F3CB58"/>
<path fill-rule="evenodd" clip-rule="evenodd" d="M124.5 37.6C124.5 36.9 125.1 36.3 125.8 36.3C126.1 36.3 126.6 36.2 127.3 35.7C128 35.3 128.7 34.7 129.4 34.1C130.1 33.4 130.6 32.7 131 32C131.4 31.3 131.6 30.8 131.6 30.5C131.6 29.8 132.2 29.2 132.9 29.2C133.6 29.2 134.2 29.8 134.2 30.5C134.2 30.8 134.3 31.3 134.8 32C135.2 32.7 135.8 33.4 136.4 34.1C137.1 34.8 137.8 35.3 138.5 35.7C139.2 36.1 139.7 36.3 140 36.3C140.7 36.3 141.3 36.9 141.3 37.6C141.3 38.3 140.7 38.9 140 38.9C139.7 38.9 139.2 39 138.5 39.5C137.8 39.9 137.1 40.5 136.4 41.1C135.7 41.8 135.2 42.5 134.8 43.2C134.4 43.9 134.2 44.4 134.2 44.7C134.2 45.4 133.6 46 132.9 46C132.2 46 131.6 45.4 131.6 44.7C131.6 44.4 131.5 43.9 131 43.2C130.6 42.5 130 41.8 129.4 41.1C128.7 40.4 128 39.9 127.3 39.5C126.6 39.1 126.1 38.9 125.8 38.9C125.1 38.9 124.5 38.4 124.5 37.6ZM129.2 37.6C129.9 38.1 130.6 38.7 131.2 39.3C131.8 39.9 132.4 40.6 132.9 41.3C133.4 40.6 134 39.9 134.6 39.3C135.2 38.7 135.9 38.1 136.6 37.6C135.9 37.1 135.2 36.5 134.6 35.9C134 35.3 133.4 34.6 132.9 33.9C132.4 34.6 131.8 35.3 131.2 35.9C130.6 36.6 129.9 37.2 129.2 37.6Z" fill="#221F1F"/>
<path d="M76.5996 179.9C79.8996 179.9 86.0996 173.8 86.0996 170.4C86.0996 173.7 92.1996 179.9 95.5996 179.9C92.2996 179.9 86.0996 186 86.0996 189.4C86.0996 186 79.9996 179.9 76.5996 179.9Z" fill="#F3CB58"/>
<path fill-rule="evenodd" clip-rule="evenodd" d="M75.2998 179.9C75.2998 179.2 75.8998 178.6 76.5998 178.6C77.0998 178.6 77.8998 178.4 78.7998 177.8C79.6998 177.2 80.6998 176.4 81.5998 175.5C82.4998 174.6 83.2998 173.6 83.8998 172.7C84.4998 171.7 84.6998 171 84.6998 170.5C84.6998 169.8 85.2998 169.2 85.9998 169.2C86.6998 169.2 87.2998 169.8 87.2998 170.5C87.2998 171 87.4998 171.8 88.0998 172.7C88.6998 173.6 89.4998 174.6 90.3998 175.5C91.2998 176.4 92.2998 177.2 93.1998 177.8C94.1998 178.4 94.8998 178.6 95.3998 178.6C96.0998 178.6 96.6998 179.2 96.6998 179.9C96.6998 180.6 96.0998 181.2 95.3998 181.2C94.8998 181.2 94.0998 181.4 93.1998 182C92.2998 182.6 91.2998 183.4 90.3998 184.3C89.4998 185.2 88.6998 186.2 88.0998 187.1C87.4998 188.1 87.2998 188.8 87.2998 189.3C87.2998 190 86.6998 190.6 85.9998 190.6C85.2998 190.6 84.6998 190 84.6998 189.3C84.6998 188.8 84.4998 188 83.8998 187.1C83.2998 186.2 82.4998 185.2 81.5998 184.3C80.6998 183.4 79.6998 182.6 78.7998 182C77.7998 181.4 77.0998 181.2 76.5998 181.2C75.8998 181.2 75.2998 180.7 75.2998 179.9ZM80.2998 179.9C81.3998 180.6 82.4998 181.5 83.4998 182.5C84.4998 183.5 85.3998 184.6 86.0998 185.7C86.7998 184.6 87.6998 183.5 88.6998 182.5C89.6998 181.5 90.7998 180.6 91.8998 179.9C90.7998 179.2 89.6998 178.3 88.6998 177.3C87.6998 176.3 86.7998 175.2 86.0998 174.1C85.3998 175.2 84.4998 176.3 83.4998 177.3C82.4998 178.4 81.3998 179.3 80.2998 179.9Z" fill="#221F1F"/>
<path d="M125.2 98.6L125.1 98.5C124.2 97 122.1 96.9 121 98.3C119.4 100.4 117.1 102.1 114.4 103.2C108 105.7 100.5 103.5 96.3996 97.9C90.8996 90.3 93.1996 79.9 101.1 75.3C102.9 74.3 104.8 73.6 106.7 73.4C108.4 73.2 109.4 71.3 108.5 69.7L98.8996 53C97.2996 50.2 93.7996 49.3 90.9996 50.9L68.9996 63.6C69.7996 59.5 68.9996 55.1 66.1996 51.3C61.9996 45.7 53.9996 43.6 47.5996 46.4C38.9996 50.2 35.7996 60.4 40.3996 68.3C42.2996 71.7 45.3996 74 48.7996 75.2L26.8996 88C24.0996 89.6 23.1996 93.1 24.7996 95.9L34.3996 112.5C35.2996 114 37.3996 114.1 38.4996 112.7C40.0996 110.6 42.3996 108.9 45.0996 107.8C51.4996 105.3 58.9996 107.5 63.0996 113.1C68.5996 120.7 66.2996 131.1 58.3996 135.7C56.5996 136.7 54.6996 137.3 52.7996 137.6C50.9996 137.8 50.0996 139.8 50.9996 141.3L60.5996 157.9C62.1996 160.7 65.6996 161.6 68.4996 160L132.6 123C135.4 121.4 136.3 117.9 134.7 115.1L125.2 98.6Z" fill="#B9EFB9" stroke="#221F1F" stroke-width="3.7" stroke-miterlimit="10" stroke-linecap="round" stroke-linejoin="round"/>
<path d="M106 77.5H81.7998V104.6H106V77.5Z" fill="#B9EFB9"/>
<path d="M133.2 116L123.7 99.5L123.6 99.4C123.5 99.2 123.3 99.1 123.1 99.1C123 99.1 122.7 99.1 122.5 99.4C120.6 101.8 118 103.7 115.1 104.9C110.9 106.5 106.2 106.3 102.2 104.6H106V77.5H95.7C97 76 98.5 74.7 100.3 73.6C102.2 72.5 104.3 71.8 106.6 71.5C106.9 71.5 107 71.3 107.1 71.2C107.2 71.1 107.2 70.9 107.1 70.6L104.6 66.3C102.2 66.6 99.8 67.3 97.6 68.6C93.6 71 90.8 74.8 89.7 79.2C88.6 83.7 89.3 88.4 91.6 92.3C92.9 94.5 94.7 96.4 96.8 97.8L79.5 108.1C77.7 109.1 76.5 110.8 76 112.8C75.5 114.8 75.8 116.8 76.9 118.6L87 135.9C87.9 137.4 89.4 138.3 91.1 138.3C92.8 138.4 94.4 137.6 95.3 136.2C96.7 134.3 98.5 132.7 100.7 131.7C104.7 129.8 109.3 130.1 113 132.1L131.6 121.3C133.6 120.3 134.2 117.9 133.2 116Z" fill="#9EDD9E"/>
<path d="M170.799 174.2C176.499 170 178.599 162.1 175.699 155.5C174.399 152.6 172.399 150.4 169.999 148.8L188.799 137.6C191.499 136 192.399 132.4 190.799 129.7L177.799 107.9C181.899 108.6 186.299 107.8 189.999 104.9C195.599 100.6 197.599 92.7 194.599 86.3C190.699 77.8 180.399 74.7 172.599 79.4C169.299 81.4 166.999 84.5 165.799 87.9L152.799 66.1C151.199 63.4 147.599 62.5 144.899 64.1L124.799 76.1C125.099 72.9 124.499 69.6 122.699 66.6C118.299 59.3 108.799 56.9 101.499 61.2C94.1995 65.5 91.7995 75.1 96.0995 82.4C97.8995 85.4 100.499 87.5 103.399 88.7L83.2995 100.7C80.5995 102.3 79.6995 105.9 81.2995 108.6L91.5995 126C92.7995 127.9 95.4995 128.1 96.7995 126.2C98.2995 124.1 100.399 122.3 102.899 121.1C109.399 118.1 117.399 120 121.699 125.8C127.399 133.3 125.199 143.8 117.299 148.5C115.399 149.6 113.299 150.3 111.299 150.6C108.999 150.9 107.799 153.4 108.999 155.3L119.299 172.5C120.899 175.2 124.499 176.1 127.199 174.5L145.999 163.3C146.199 165.6 146.899 167.8 148.099 169.9C152.899 177.5 163.299 179.7 170.799 174.2Z" fill="white" stroke="#221F1F" stroke-width="3.7" stroke-miterlimit="10" stroke-linecap="round" stroke-linejoin="round"/>
<path d="M169.6 44C169.6 46.4 167.7 48.3 165.3 48.3C162.9 48.3 161 46.4 161 44C161 41.6 162.9 39.7 165.3 39.7C167.7 39.8 169.6 41.7 169.6 44Z" fill="#A0A0A0"/>
</svg>
