<svg width="220" height="220" viewBox="0 0 220 220" fill="none" xmlns="http://www.w3.org/2000/svg">
<path d="M80.4999 179.9C80.0499 179.9 79.5999 179.9 79.1499 179.85C71.3499 179.5 63.6499 175.85 57.4499 169.65C51.2499 163.45 47.6499 155.75 47.2499 147.95C46.8499 139.6 50.0499 131.7 56.5499 125.05C45.6999 123 36.9999 114.45 34.8499 103.25C33.2499 94.85 32.1999 84.95 31.6999 73.7C31.3999 66.9 34.4499 60.45 39.8499 56.4C43.3499 53.8 47.4499 52.4 51.6999 52.4C53.8999 52.4 56.0499 52.75 58.1999 53.5C72.4499 58.4 84.9499 66.05 95.3499 76.25C100.95 81.75 105.9 87.9 110.05 94.6C114.2 87.9 119.1 81.75 124.75 76.25C135.15 66.05 147.65 58.4 161.9 53.5C164 52.75 166.2 52.4 168.4 52.4C172.65 52.4 176.75 53.8 180.25 56.4C185.65 60.45 188.7 66.9 188.4 73.7C187.9 84.9 186.85 94.85 185.25 103.25C183.1 114.45 174.4 123 163.55 125.1C170 131.75 173.2 139.65 172.85 148C172.5 155.8 168.85 163.5 162.65 169.7C156.45 175.9 148.75 179.5 140.95 179.9C140.5 179.9 140.05 179.95 139.6 179.95C131.6 179.95 123.95 176.6 117.6 170.2C114.8 167.4 112.3 164.05 110.1 160.35C107.95 164.05 105.4 167.4 102.6 170.2C96.1499 176.5 88.4999 179.9 80.4999 179.9Z" fill="white"/>
<path d="M163.9 59.5001C131.15 70.7501 116.05 94.8001 110 107.95C103.95 94.8001 88.8498 70.7501 56.0998 59.5001C46.9498 56.3501 37.5998 63.6001 38.0498 73.4001C38.4498 82.0501 39.2998 92.5001 41.0998 102.05C42.8998 111.55 50.8998 118.6 60.3998 119.15L75.0998 120.05C69.9498 122.35 65.1998 125.45 61.5498 129.1C50.0498 140.6 51.8998 155.05 61.9998 165.15C72.0998 175.25 86.5498 177.1 98.0498 165.6C103.7 159.95 108.15 151.55 110 143.3C111.9 151.55 116.3 159.95 121.95 165.6C133.45 177.1 147.9 175.25 158 165.15C168.1 155.05 169.95 140.6 158.45 129.1C154.8 125.45 150.05 122.3 144.9 120.05L159.6 119.15C169.1 118.55 177.05 111.55 178.9 102.05C180.7 92.5001 181.55 82.0501 181.95 73.4001C182.4 63.6501 173.05 56.3501 163.9 59.5001Z" fill="#B9B9FF"/>
<path d="M80.3999 175.4C73.5499 175.4 66.5999 172.45 60.6999 166.5C48.9999 154.8 48.7999 139.25 60.2499 127.85C62.5499 125.55 65.2999 123.4 68.3499 121.55L60.2999 121.05C49.8999 120.4 41.2999 112.75 39.2999 102.45C37.7499 94.3 36.6999 84.5501 36.1999 73.5501C35.9499 68.2501 38.3499 63.2001 42.5499 60.0501C46.6999 56.9501 51.8499 56.1501 56.6999 57.8001C87.3499 68.3501 102.85 89.8501 110 103.8C117.15 89.9001 132.65 68.3501 163.3 57.8001C168.15 56.1501 173.3 56.9501 177.45 60.0501C181.65 63.2001 184.05 68.2501 183.8 73.5501C183.3 84.5501 182.25 94.25 180.7 102.45C178.75 112.75 170.1 120.4 159.7 121.05L151.65 121.55C154.7 123.4 157.45 125.55 159.75 127.85C171.2 139.3 171 154.8 159.3 166.5C153.35 172.45 146.45 175.4 139.6 175.4C132.9 175.4 126.3 172.6 120.65 166.95C116.2 162.5 112.4 156.35 110 149.8C107.6 156.35 103.8 162.5 99.3499 166.95C93.6999 172.55 87.0499 175.4 80.3999 175.4ZM110 141.5C110.85 141.5 111.6 142.1 111.8 142.95C113.65 151 117.9 159 123.3 164.35C128.4 169.45 134.35 171.95 140.45 171.7C146.2 171.45 151.95 168.65 156.7 163.9C161.45 159.15 164.2 153.35 164.5 147.65C164.8 141.5 162.25 135.55 157.15 130.5C153.75 127.1 149.25 124.1 144.15 121.85C143.35 121.5 142.95 120.65 143.1 119.85C143.25 119.05 143.95 118.4 144.8 118.35L159.5 117.45C168.2 116.9 175.45 110.5 177.1 101.85C178.6 93.8501 179.65 84.3001 180.1 73.5001C180.3 69.4001 178.45 65.5501 175.2 63.1001C172.05 60.7501 168.15 60.1501 164.45 61.4001C132.45 72.4001 117.6 95.8501 111.65 108.9C111.35 109.55 110.7 110 109.95 110C109.2 110 108.55 109.6 108.25 108.9C102.25 95.9001 87.4499 72.4001 55.4499 61.4001C51.7499 60.1501 47.8499 60.7501 44.6999 63.1001C41.4499 65.5001 39.6499 69.4001 39.7999 73.5001C40.2999 84.3001 41.2999 93.8501 42.7999 101.85C44.4499 110.5 51.6999 116.95 60.3999 117.45L75.0999 118.35C75.9499 118.4 76.6499 119.05 76.7999 119.85C76.9499 120.65 76.4999 121.5 75.7499 121.85C70.6499 124.1 66.1999 127.1 62.7499 130.5C57.6499 135.6 55.1499 141.5 55.3999 147.65C55.6499 153.4 58.4499 159.15 63.1999 163.9C67.9499 168.65 73.7499 171.4 79.4499 171.7C85.5999 172 91.5499 169.45 96.5999 164.35C101.95 159 106.25 151 108.1 142.95C108.4 142.1 109.15 141.5 110 141.5Z" fill="#221F1F"/>
<path d="M109.75 81.25C108.75 81.25 107.9 82.1 107.9 83.1V86.15C107.9 87.15 108.75 88 109.75 88C110.75 88 111.6 87.15 111.6 86.15V83.1C111.6 82.1 110.8 81.25 109.75 81.25Z" fill="#9E9E9E"/>
<path d="M109.75 68.2C108.75 68.2 107.9 69.05 107.9 70.05V75.8C107.9 76.8 108.75 77.65 109.75 77.65C110.75 77.65 111.6 76.8 111.6 75.8V70.05C111.6 69.05 110.8 68.2 109.75 68.2Z" fill="#9E9E9E"/>
<path d="M109.75 54.65C108.75 54.65 107.9 55.5 107.9 56.5V62.25C107.9 63.25 108.75 64.1 109.75 64.1C110.75 64.1 111.6 63.25 111.6 62.25V56.5C111.6 55.5 110.8 54.65 109.75 54.65Z" fill="#9E9E9E"/>
<path d="M109.75 41.15C108.75 41.15 107.9 42 107.9 43V48.75C107.9 49.75 108.75 50.6 109.75 50.6C110.75 50.6 111.6 49.75 111.6 48.75V43C111.6 41.95 110.8 41.15 109.75 41.15Z" fill="#9E9E9E"/>
<path d="M109.75 30.85C108.75 30.85 107.9 31.7 107.9 32.7V35.75C107.9 36.75 108.75 37.6 109.75 37.6C110.75 37.6 111.6 36.75 111.6 35.75V32.7C111.6 31.65 110.8 30.85 109.75 30.85Z" fill="#9E9E9E"/>
<path d="M109.75 200.9C108.75 200.9 107.9 201.75 107.9 202.75V205.8C107.9 206.8 108.75 207.65 109.75 207.65C110.75 207.65 111.6 206.8 111.6 205.8V202.75C111.6 201.75 110.8 200.9 109.75 200.9Z" fill="#9E9E9E"/>
<path d="M109.75 189.4C108.75 189.4 107.9 190.25 107.9 191.25V196.25C107.9 197.25 108.75 198.1 109.75 198.1C110.75 198.1 111.6 197.25 111.6 196.25V191.25C111.6 190.2 110.8 189.4 109.75 189.4Z" fill="#9E9E9E"/>
<path d="M109.75 177.35C108.75 177.35 107.9 178.2 107.9 179.2V184.2C107.9 185.2 108.75 186.05 109.75 186.05C110.75 186.05 111.6 185.2 111.6 184.2V179.2C111.6 178.2 110.8 177.35 109.75 177.35Z" fill="#9E9E9E"/>
<path d="M109.75 167.8C108.75 167.8 107.9 168.65 107.9 169.65V172.7C107.9 173.7 108.75 174.55 109.75 174.55C110.75 174.55 111.6 173.7 111.6 172.7V169.65C111.6 168.65 110.8 167.8 109.75 167.8Z" fill="#9E9E9E"/>
<path d="M108.3 108.75C102.3 95.75 87.5 72.25 55.5 61.25C51.8 60 47.9 60.6 44.75 62.95C41.5 65.35 39.7 69.25 39.85 73.35C40.35 84.15 41.35 93.7 42.85 101.7C44.5 110.35 51.75 116.8 60.45 117.3L75.15 118.2C76 118.25 76.7 118.9 76.85 119.7C77 120.5 76.55 121.35 75.8 121.7C70.7 123.95 66.25 126.95 62.8 130.35C57.7 135.45 55.2 141.35 55.45 147.5C55.7 153.25 58.5 159 63.25 163.75C68 168.5 73.8 171.25 79.5 171.55C85.65 171.85 91.6 169.3 96.65 164.2C102 158.85 106.3 150.85 108.15 142.8C108.35 141.95 109.1 141.35 109.95 141.35V109.7C109.3 109.8 108.6 109.4 108.3 108.75Z" fill="#9891F5"/>
<path d="M76.0005 53.35C72.2005 53.35 68.7005 51.2 66.4505 47.6C66.1005 47.65 65.7505 47.65 65.4005 47.65C60.9505 47.65 57.2005 45.5 55.4005 41.95C53.4005 38 54.2005 33.4 57.3505 29.65C57.1505 29.2 57.0005 28.8 56.9005 28.35C55.6505 24.25 56.5505 20.1 59.3005 17.35C61.2005 15.45 63.8505 14.4 66.6505 14.4C68.3005 14.4 69.9505 14.75 71.5505 15.4C73.8505 13.45 76.5505 12.4 79.2505 12.4C80.8505 12.4 82.4005 12.75 83.8005 13.5C87.2505 15.25 89.4005 18.9 89.5005 23.2C89.5005 23.65 89.5005 24.1 89.4505 24.6C93.6005 27.15 95.8005 31.3 95.1005 35.7C94.4005 40.1 91.0505 43.35 86.3005 44.5C86.2005 44.95 86.0505 45.4 85.9005 45.8C84.5005 49.85 81.3505 52.65 77.5005 53.25C77.0505 53.3 76.5005 53.35 76.0005 53.35Z" fill="white"/>
<path d="M76.0005 48.85C72.9505 48.85 70.3005 46.35 69.0505 42.5C67.8005 42.9 66.6005 43.1 65.4005 43.1C62.6505 43.1 60.4505 41.9 59.4005 39.85C57.8505 36.85 59.4005 33.1 62.9505 30.5C62.1505 29.4 61.5005 28.2 61.1505 27C60.4005 24.45 60.8505 22.1 62.4505 20.5C63.5005 19.45 65.0005 18.85 66.6505 18.85C68.5505 18.85 70.6005 19.6 72.4505 21C74.3005 18.4 76.8005 16.85 79.3005 16.85C80.2005 16.85 81.0505 17.05 81.8505 17.45C83.8505 18.45 85.0505 20.6 85.1005 23.25C85.1505 24.5 84.9005 25.8 84.5005 27.1C88.7005 28.45 91.3005 31.55 90.7505 34.9C90.2505 38.2 86.9005 40.4 82.4005 40.4C82.4005 40.4 82.4005 40.4 82.3505 40.4C82.3505 41.8 82.1505 43.1 81.7505 44.25C80.8505 46.75 79.1005 48.4 76.9005 48.75C76.5505 48.8 76.2505 48.85 76.0005 48.85Z" fill="#221F1F"/>
<path d="M80.2499 27.4999C81.7499 24.5999 81.6499 21.5499 80.0999 20.7499C78.5499 19.9499 76.0499 21.6499 74.5499 24.5999C74.1999 25.2499 73.9499 25.9499 73.7999 26.5499C73.6999 26.9999 73.0999 27.0999 72.8499 26.6999C72.4999 26.1499 72.0499 25.5999 71.4999 25.0499C69.1999 22.7499 66.2999 21.8499 65.0499 23.0999C63.7999 24.3499 64.6499 27.2499 66.9999 29.5499C67.4999 30.0499 68.0999 30.4999 68.6499 30.8999C69.0499 31.1499 68.9499 31.7499 68.4999 31.8499C67.8499 32.0499 67.1999 32.2999 66.5499 32.5999C63.6499 34.0999 61.8999 36.5499 62.6999 38.1499C63.4999 39.6999 66.4999 39.7999 69.4499 38.2999C70.0999 37.9499 70.6999 37.5999 71.2499 37.1499C71.5999 36.8499 72.1499 37.1499 72.0999 37.5999C72.0499 38.2499 72.0999 38.9999 72.1999 39.6999C72.6999 42.9499 74.5499 45.3499 76.2999 45.0499C78.0499 44.7499 79.0499 41.9499 78.5499 38.6999C78.4499 37.9499 78.2499 37.2999 77.9999 36.6499C77.8499 36.1999 78.2499 35.7999 78.6999 35.9499C79.2999 36.1999 79.9999 36.3499 80.7499 36.4999C83.9999 36.9999 86.8499 35.9999 87.0999 34.2499C87.3999 32.4999 84.9499 30.6999 81.7499 30.1499C80.9999 30.0499 80.2999 29.9999 79.6499 30.0499C79.1999 30.0499 78.9499 29.5499 79.1999 29.1999C79.5499 28.7499 79.9499 28.1499 80.2499 27.4999Z" fill="#EDD286"/>
<path d="M135.05 54.9C136.983 54.9 138.55 53.333 138.55 51.4C138.55 49.467 136.983 47.9 135.05 47.9C133.117 47.9 131.55 49.467 131.55 51.4C131.55 53.333 133.117 54.9 135.05 54.9Z" fill="#9E9E9E"/>
<path d="M172.1 184.55C170.9 182.2 170.95 179.8 172.2 179.15C173.45 178.5 175.45 179.9 176.65 182.25C176.9 182.8 177.15 183.3 177.25 183.85C177.35 184.2 177.8 184.3 178 183.95C178.3 183.5 178.65 183.05 179.05 182.65C180.9 180.8 183.25 180.1 184.25 181.1C185.25 182.1 184.55 184.4 182.7 186.3C182.3 186.7 181.85 187.1 181.4 187.35C181.1 187.55 181.15 188 181.5 188.1C182 188.25 182.55 188.45 183.1 188.7C185.45 189.9 186.8 191.9 186.2 193.15C185.55 194.4 183.15 194.45 180.8 193.25C180.25 193 179.8 192.65 179.35 192.35C179.05 192.1 178.65 192.35 178.65 192.7C178.65 193.25 178.65 193.8 178.55 194.4C178.15 197 176.65 198.9 175.25 198.7C173.85 198.5 173.05 196.2 173.45 193.6C173.55 193 173.7 192.45 173.9 191.95C174.05 191.6 173.7 191.3 173.35 191.4C172.85 191.6 172.3 191.75 171.7 191.85C169.1 192.25 166.8 191.45 166.6 190.05C166.4 188.65 168.3 187.2 170.9 186.75C171.5 186.65 172.05 186.65 172.6 186.65C172.95 186.65 173.2 186.25 172.95 185.95C172.65 185.6 172.35 185.1 172.1 184.55Z" fill="#9E9E9E"/>
<path d="M38.3999 135.7C41.0233 135.7 43.1499 133.573 43.1499 130.95C43.1499 128.327 41.0233 126.2 38.3999 126.2C35.7765 126.2 33.6499 128.327 33.6499 130.95C33.6499 133.573 35.7765 135.7 38.3999 135.7Z" fill="#9E9E9E"/>
</svg>
