<svg width="165" height="165" viewBox="0 0 165 165" fill="none" xmlns="http://www.w3.org/2000/svg">
<path d="M82.5001 144.938C71.6251 144.938 61.3126 143.288 53.4751 140.288C44.1751 136.763 39.0751 131.437 39.0751 125.362V98.3625L18.0751 58.3875C13.2751 49.2 14.2126 38.4 20.5876 30.1875C25.6126 23.7375 33.1126 20.0625 41.1376 20.0625C43.1626 20.0625 45.2251 20.2875 47.2501 20.775L82.5001 29.0625L117.75 20.775C119.775 20.2875 121.838 20.0625 123.863 20.0625C131.925 20.0625 139.425 23.775 144.413 30.225C150.788 38.4 151.725 49.2 146.888 58.3875L125.888 98.3625V125.4C125.888 133.575 116.888 138.263 111.488 140.325C103.8 143.288 93.4876 144.938 82.5001 144.938Z" fill="white"/>
<path d="M43.8379 97.2375V125.4C43.8379 133.575 61.1629 140.213 82.5004 140.213C103.838 140.213 121.163 133.575 121.163 125.4V97.2375H43.8379Z" fill="white"/>
<path d="M82.5002 141.562C72.0002 141.562 62.1377 139.988 54.6752 137.138C46.8002 134.138 42.4502 129.937 42.4502 125.362V97.2C42.4502 96.45 43.0877 95.8125 43.8377 95.8125H121.163C121.913 95.8125 122.55 96.45 122.55 97.2V125.362C122.55 129.937 118.2 134.1 110.325 137.138C102.863 140.025 93.0002 141.562 82.5002 141.562ZM45.2252 98.625V125.4C45.2252 131.887 60.1877 138.825 82.5002 138.825C104.813 138.825 119.775 131.887 119.775 125.4V98.625H45.2252Z" fill="#221F1F"/>
<path d="M45.2246 125.4C45.2246 131.175 57.1871 137.325 75.6371 138.6V124.612C75.6371 115.537 74.4746 106.8 72.3746 98.625H45.2246V125.4Z" fill="#CAE5FF"/>
<path d="M46.1247 25.3876L82.4997 33.9376L118.875 25.3876C136.725 21.1876 151.237 39.9001 142.725 56.1376L121.162 97.2001C121.162 105.375 103.837 112.013 82.4997 112.013C61.1622 112.013 43.8372 105.375 43.8372 97.2001L22.3122 56.1751C13.7997 39.9376 28.3122 21.1876 46.1247 25.3876Z" fill="white"/>
<path d="M82.5001 113.438C72.0001 113.438 62.1376 111.863 54.6751 109.013C46.9876 106.088 42.6751 102.038 42.4876 97.6125L21.0751 56.8125C16.8751 48.7875 17.7001 39.4125 23.2501 32.25C28.8001 25.125 37.6876 21.975 46.4626 24.0375L82.5001 32.5125L118.538 24.0375C127.35 21.975 136.238 25.125 141.75 32.25C147.3 39.375 148.125 48.7875 143.925 56.775L122.513 97.575C122.288 102 117.975 106.05 110.325 108.975C102.863 111.863 93.0001 113.438 82.5001 113.438ZM41.1376 26.2125C35.0626 26.2125 29.3251 28.9875 25.4251 33.975C20.5501 40.2375 19.8376 48.4875 23.5126 55.5375L45.0751 96.6C45.1876 96.7875 45.2251 97.0125 45.2251 97.2375C45.2251 103.725 60.1876 110.663 82.5001 110.663C104.813 110.663 119.775 103.725 119.775 97.2375C119.775 97.0125 119.813 96.7875 119.925 96.6L141.488 55.5C145.163 48.4875 144.45 40.2375 139.575 33.9375C134.7 27.675 126.9 24.9 119.175 26.7375L82.8001 35.2875C82.5751 35.325 82.3876 35.325 82.1626 35.2875L45.7876 26.7375C44.2501 26.3625 42.6751 26.2125 41.1376 26.2125Z" fill="#221F1F"/>
<path d="M21.6375 42.0751C20.6625 46.5376 21.3 51.2626 23.5125 55.5376L45.075 96.6001C45.1875 96.7876 45.225 97.0126 45.225 97.2376C45.225 102.938 56.775 108.975 74.6625 110.363C70.0125 76.1251 48.7875 48.9376 21.6375 42.0751Z" fill="#CAE5FF"/>
<path d="M82.5 33.9375L104.1 39C104.1 39 121.275 41.85 125.587 35.175" fill="white"/>
<path d="M112.162 41.025C108.112 41.025 104.662 40.5 103.875 40.35C103.837 40.35 103.8 40.35 103.8 40.35L82.1998 35.2875C81.4498 35.1 80.9998 34.35 81.1498 33.6375C81.2998 32.925 82.0873 32.4375 82.7998 32.5875L104.362 37.65C108.937 38.4 121.312 39.2625 124.387 34.425C124.8 33.7875 125.662 33.6 126.3 34.0125C126.937 34.425 127.125 35.2875 126.712 35.925C124.087 40.0875 117.6 41.025 112.162 41.025Z" fill="#221F1F"/>
<path d="M82.4998 113.438C81.7498 113.438 81.1123 112.8 81.1123 112.05V81C81.1123 80.25 81.7498 79.6125 82.4998 79.6125C83.2498 79.6125 83.8873 80.25 83.8873 81V112.013C83.8873 112.8 83.2498 113.438 82.4998 113.438Z" fill="#221F1F"/>
<path d="M64.9871 111.263C64.3871 111.263 63.8621 110.888 63.6746 110.288L55.5746 84.9751C55.3496 84.2626 55.7246 83.4751 56.4746 83.2126C57.1871 82.9876 57.9746 83.3626 58.2371 84.1126L66.3371 109.425C66.5621 110.138 66.1871 110.925 65.4371 111.188C65.2496 111.263 65.0996 111.263 64.9871 111.263Z" fill="#221F1F"/>
<path d="M100.013 111.263C99.8627 111.263 99.7127 111.225 99.6002 111.188C98.8877 110.963 98.4752 110.175 98.7002 109.425L106.8 84.1126C107.025 83.4001 107.813 82.9876 108.563 83.2126C109.275 83.4376 109.688 84.2251 109.463 84.9751L101.363 110.288C101.175 110.888 100.613 111.263 100.013 111.263Z" fill="#221F1F"/>
</svg>
