<svg width="165" height="165" viewBox="0 0 165 165" fill="none" xmlns="http://www.w3.org/2000/svg">
<path d="M43.8369 97.2375V125.4C43.8369 133.575 61.1619 140.213 82.4994 140.213C103.837 140.213 121.162 133.575 121.162 125.4V97.2375H43.8369Z" fill="white"/>
<path d="M82.4992 141.562C71.9992 141.562 62.1367 139.988 54.6742 137.138C46.7992 134.138 42.4492 129.937 42.4492 125.362V97.2C42.4492 96.45 43.0867 95.8125 43.8367 95.8125H121.162C121.912 95.8125 122.549 96.45 122.549 97.2V125.362C122.549 129.937 118.199 134.1 110.324 137.138C102.862 140.025 92.9992 141.562 82.4992 141.562ZM45.2242 98.625V125.4C45.2242 131.887 60.1867 138.825 82.4992 138.825C104.812 138.825 119.774 131.887 119.774 125.4V98.625H45.2242Z" fill="#221F1F"/>
<path d="M46.1237 25.3874L82.4987 33.9374L118.874 25.3874C136.724 21.1874 151.236 39.8999 142.724 56.1374L121.161 97.2C121.161 105.375 103.836 112.012 82.4987 112.012C61.1612 112.012 43.8362 105.375 43.8362 97.2L22.3112 56.1749C13.7987 39.9374 28.3112 21.1874 46.1237 25.3874Z" fill="white"/>
<path d="M82.4991 113.438C71.9991 113.438 62.1366 111.863 54.6741 109.013C46.9866 106.088 42.6741 102.038 42.4866 97.6126L21.0741 56.8126C16.8741 48.7876 17.6991 39.4126 23.2491 32.2501C28.7991 25.0876 37.6866 21.9751 46.4616 24.0376L82.4991 32.5126L118.537 24.0376C127.349 21.9751 136.237 25.1251 141.749 32.2501C147.299 39.3751 148.124 48.7876 143.924 56.7751L122.512 97.5751C122.287 102 117.974 106.05 110.324 108.975C102.862 111.863 92.9991 113.438 82.4991 113.438ZM41.1366 26.2126C35.0616 26.2126 29.3241 28.9876 25.4241 33.9751C20.5491 40.2376 19.8366 48.4876 23.5116 55.5376L45.0741 96.6001C45.1866 96.7876 45.2241 97.0126 45.2241 97.2376C45.2241 103.725 60.1866 110.663 82.4991 110.663C104.812 110.663 119.774 103.725 119.774 97.2376C119.774 97.0126 119.812 96.7876 119.924 96.6001L141.487 55.5001C145.162 48.4876 144.449 40.2376 139.574 33.9376C134.699 27.6751 126.899 24.9001 119.174 26.7376L82.7991 35.2876C82.5741 35.3251 82.3866 35.3251 82.1616 35.2876L45.7866 26.7376C44.2491 26.3626 42.6741 26.2126 41.1366 26.2126Z" fill="#221F1F"/>
<path d="M82.499 33.9375L104.099 39C104.099 39 121.274 41.85 125.587 35.175" fill="white"/>
<path d="M112.161 41.0251C108.111 41.0251 104.661 40.5001 103.874 40.3501C103.836 40.3501 103.799 40.3501 103.799 40.3501L82.1989 35.2876C81.4489 35.1001 80.9989 34.3501 81.1489 33.6376C81.3364 32.8876 82.0864 32.4376 82.7989 32.5876L104.361 37.6501C108.936 38.4001 121.311 39.2626 124.386 34.4251C124.799 33.7876 125.661 33.6001 126.299 34.0126C126.936 34.4251 127.124 35.2876 126.711 35.9251C124.086 40.0876 117.599 41.0251 112.161 41.0251Z" fill="#221F1F"/>
<path d="M82.4988 113.438C81.7488 113.438 81.1113 112.8 81.1113 112.05V81C81.1113 80.25 81.7488 79.6125 82.4988 79.6125C83.2488 79.6125 83.8863 80.25 83.8863 81V112.013C83.8863 112.8 83.2488 113.438 82.4988 113.438Z" fill="#221F1F"/>
<path d="M64.9871 111.263C64.3871 111.263 63.8621 110.888 63.6746 110.288L55.5746 84.9751C55.3496 84.2626 55.7246 83.4751 56.4746 83.2126C57.1871 82.9876 57.9746 83.3626 58.2371 84.1126L66.3371 109.425C66.5621 110.138 66.1871 110.925 65.4371 111.188C65.2496 111.263 65.0996 111.263 64.9871 111.263Z" fill="#221F1F"/>
<path d="M100.012 111.262C99.8618 111.262 99.7118 111.225 99.5993 111.187C98.8868 110.962 98.4743 110.175 98.6993 109.425L106.799 84.1124C107.024 83.3999 107.812 82.9874 108.562 83.2124C109.274 83.4374 109.687 84.2249 109.462 84.9749L101.362 110.287C101.174 110.887 100.612 111.262 100.012 111.262Z" fill="#221F1F"/>
</svg>
