<svg width="178" height="178" viewBox="0 0 178 178" fill="none" xmlns="http://www.w3.org/2000/svg">
<path d="M109.801 73.5C106.601 73.5 103.401 73.1 100.201 72.2C92.4006 70.1 85.7006 65.7 81.3006 59.8C76.6006 53.4 75.0006 45.9 77.0006 38.7C80.0006 27.5 90.9006 20 104.201 20C107.401 20 110.601 20.4 113.801 21.3C121.601 23.4 128.301 27.8 132.701 33.7C137.401 40.1 139.001 47.6 137.001 54.8C134.001 66 123.001 73.5 109.801 73.5ZM104.101 35C97.6006 35 92.6006 38 91.4006 42.6C90.5006 46 91.9006 49 93.3006 50.9C95.6006 54.1 99.4006 56.5 104.001 57.7C105.901 58.2 107.901 58.5 109.801 58.5C116.301 58.5 121.301 55.5 122.501 50.9C123.401 47.5 122.001 44.5 120.601 42.6C118.301 39.4 114.501 37 109.901 35.8C107.901 35.3 106.001 35 104.101 35Z" fill="white"/>
<path d="M153.7 49.7002L97.1002 17.0002C92.1002 14.1002 85.8002 14.1002 80.8002 17.0002L24.3002 49.7002C19.3002 52.6002 16.2002 58.0002 16.2002 63.8002V129C16.2002 134.8 19.3002 140.2 24.3002 143.1L80.8002 175.7C83.3002 177.1 86.1002 177.9 88.9002 177.9C91.8002 177.9 94.6002 177.1 97.0002 175.7L153.5 143.1C158.5 140.2 161.6 134.8 161.6 129V63.7002C161.8 57.9002 158.7 52.5002 153.7 49.7002ZM146.8 63.7002V129C146.8 129.4 146.6 129.9 146.2 130.1L89.7002 162.7C89.3002 162.9 88.8002 162.9 88.4002 162.7L31.9002 130.1C31.5002 129.9 31.3002 129.4 31.3002 129V63.7002C31.3002 63.3002 31.5002 62.8002 31.9002 62.6002L88.4002 30.0002C88.6002 29.9002 88.9002 29.8002 89.0002 29.8002C89.2002 29.8002 89.4002 29.8002 89.6002 30.0002L146.1 62.6002C146.5 62.9002 146.8 63.3002 146.8 63.7002Z" fill="white"/>
<path d="M84.6002 23.5003L28.1002 56.1003C25.4002 57.7003 23.7002 60.6003 23.7002 63.7003V129C23.7002 132.1 25.4002 135 28.1002 136.6L84.6002 169.2C87.3002 170.8 90.7002 170.8 93.4002 169.2L149.9 136.6C152.6 135 154.3 132.1 154.3 129V63.7003C154.3 60.6003 152.6 57.7003 149.9 56.1003L93.4002 23.5003C90.7002 21.9003 87.3002 21.9003 84.6002 23.5003Z" fill="#C2E4D9"/>
<path d="M89.0002 165.4C88.3002 165.4 87.7002 165.2 87.1002 164.9L30.6002 132.3C29.4002 131.6 28.7002 130.4 28.7002 129V63.7003C28.7002 62.4003 29.4002 61.1003 30.6002 60.4003L87.1002 27.8003C87.7002 27.5003 88.3002 27.3003 89.0002 27.3003C89.7002 27.3003 90.3002 27.5003 90.9002 27.8003L147.4 60.4003C148.6 61.1003 149.3 62.3003 149.3 63.7003V129C149.3 130.3 148.6 131.6 147.4 132.3L90.9002 164.9C90.3002 165.2 89.7002 165.4 89.0002 165.4Z" fill="url(#paint0_linear_4242_3787)"/>
<path d="M149.9 56.1003L93.4002 23.5003C90.7002 21.9003 87.3002 21.9003 84.6002 23.5003L28.1002 56.1003C25.4002 57.7003 23.7002 60.6003 23.7002 63.7003V69.2003C23.7002 66.1003 25.4002 63.2003 28.1002 61.6003L84.6002 29.0003C87.3002 27.4003 90.7002 27.4003 93.4002 29.0003L149.9 61.6003C152.6 63.2003 154.3 66.1003 154.3 69.2003V63.7003C154.3 60.6003 152.6 57.7003 149.9 56.1003Z" fill="white"/>
<path d="M89.0003 171.9C87.2003 171.9 85.5003 171.4 83.9003 170.5L27.4003 137.9C24.2003 136.1 22.3003 132.7 22.3003 129V63.7001C22.3003 60.0001 24.3003 56.6001 27.4003 54.8001L83.9003 22.2001C87.1003 20.4001 91.0003 20.4001 94.2003 22.2001L150.7 54.8001C153.9 56.6001 155.8 60.0001 155.8 63.7001V129C155.8 132.7 153.8 136.1 150.7 137.9L94.2003 170.5C92.5003 171.4 90.8003 171.9 89.0003 171.9ZM89.0003 23.8001C87.7003 23.8001 86.5003 24.1001 85.4003 24.8001L28.8003 57.4001C26.6003 58.7001 25.2003 61.1001 25.2003 63.7001V129C25.2003 131.6 26.6003 134 28.8003 135.3L85.3003 167.9C87.5003 169.2 90.3003 169.2 92.6003 167.9L149.1 135.3C151.3 134 152.7 131.6 152.7 129V63.7001C152.7 61.1001 151.3 58.7001 149.1 57.4001L92.6003 24.8001C91.5003 24.2001 90.3003 23.8001 89.0003 23.8001Z" fill="#221F1F"/>
<path d="M111.8 28.6001C99 25.2001 86.9 30.5001 84.2 40.7001C81.5 50.9001 89.3 61.6001 102.1 65.0001C114.9 68.4001 127 63.1001 129.7 52.9001C132.4 42.7001 124.6 32.0001 111.8 28.6001ZM123.8 51.3001C122 58.1001 112.9 61.6001 103.6 59.1001C94.3 56.6001 88.2 49.1001 90 42.3001C91.8 35.5001 100.9 32.0001 110.2 34.5001C119.6 37.0001 125.6 44.5001 123.8 51.3001Z" fill="url(#paint1_linear_4242_3787)"/>
<path d="M109.8 67.5002C107.2 67.5002 104.5 67.1002 101.7 66.4002C95.2002 64.7002 89.7002 61.0002 86.1002 56.2002C82.5002 51.3002 81.3002 45.6002 82.7002 40.2002C85.7002 29.2002 98.6002 23.4002 112.2 27.0002C118.7 28.7002 124.2 32.4002 127.8 37.2002C131.4 42.1002 132.6 47.8002 131.2 53.2002C128.8 62.1002 120.1 67.5002 109.8 67.5002ZM104.1 29.0002C95.1002 29.0002 87.6002 33.6002 85.6002 41.0002C84.4002 45.5002 85.4002 50.3002 88.5002 54.4002C91.6002 58.7002 96.6002 61.9002 102.4 63.4002C114.4 66.6002 125.7 61.8002 128.2 52.4002C129.4 47.9002 128.4 43.1002 125.3 39.0002C122.2 34.7002 117.2 31.5002 111.4 30.0002C108.9 29.4002 106.5 29.0002 104.1 29.0002Z" fill="#221F1F"/>
<path d="M109.6 61.4C107.5 61.4 105.4 61.1 103.2 60.5C93.0998 57.8 86.4998 49.4 88.5998 41.8C90.5998 34.2 100.5 30.2 110.6 32.9C120.7 35.6 127.3 44 125.2 51.6C123.7 57.7 117.2 61.4 109.6 61.4ZM104.2 35.2C97.9998 35.2 92.7998 38.1 91.4998 42.7C89.8998 48.7 95.4998 55.4 104 57.7C112.5 60 120.7 57 122.3 51C123.9 45 118.3 38.3 109.8 36C107.9 35.4 106 35.2 104.2 35.2Z" fill="#221F1F"/>
<path d="M111.201 59.6003L96.9007 55.8003C95.2007 55.4003 94.3007 53.7003 94.7007 52.0003L95.9007 47.5003C96.3007 45.8003 98.0007 44.9003 99.7007 45.3003L114.001 49.1003C115.701 49.5003 116.601 51.2003 116.201 52.9003L115.001 57.4003C114.501 59.0003 112.801 60.0003 111.201 59.6003Z" fill="url(#paint2_linear_4242_3787)"/>
<path d="M101.3 45.7002L98.9998 54.5002C98.7998 55.1002 98.7998 55.7002 98.7998 56.2002L103.4 57.4002C103.4 57.0002 103.5 56.6002 103.6 56.2002L106.1 46.9002L101.3 45.7002Z" fill="white"/>
<path d="M112 61.2004C111.6 61.2004 111.2 61.1004 110.8 61.0004L96.4997 57.2004C93.9997 56.5004 92.5997 54.0004 93.1997 51.6004L94.3997 47.1004C94.6997 45.9004 95.4997 44.9004 96.4997 44.3004C97.5997 43.7004 98.7997 43.5004 99.9997 43.8004L114.3 47.6004C115.5 47.9004 116.5 48.7004 117.1 49.7004C117.7 50.7004 117.9 52.0004 117.6 53.2004L116.4 57.7004C115.9 59.8004 114 61.2004 112 61.2004ZM111.6 58.1004C112.5 58.3004 113.3 57.8004 113.6 57.0004L114.8 52.5004C114.9 52.1004 114.9 51.7004 114.6 51.3004C114.4 50.9004 114 50.7004 113.6 50.6004L99.2997 46.8004C98.8997 46.7004 98.4997 46.7004 98.0997 47.0004C97.6997 47.2004 97.4997 47.6004 97.3997 48.0004L96.1997 52.5004C96.0997 52.9004 96.0997 53.3004 96.3997 53.7004C96.5997 54.1004 96.9997 54.3004 97.3997 54.4004L111.6 58.1004Z" fill="#221F1F"/>
<path d="M104 57.9C73.2001 49.6 41.5001 67.9 33.2001 98.8C29.3001 113.3 31.3001 128.1 37.8001 140.5L85.4001 168C87.6001 169.3 90.4001 169.3 92.7001 168L140.3 140.5C142.2 136.8 143.8 132.9 144.9 128.8C153.1 97.9 134.8 66.2 104 57.9Z" fill="url(#paint3_linear_4242_3787)"/>
<path d="M136.6 142.6L44.2001 77.2002C42.5001 79.3002 41.0001 81.4002 39.6001 83.7002L129 147L136.6 142.6Z" fill="white"/>
<path d="M104.3 56.5003C89.0004 52.4003 73.0004 54.5003 59.3004 62.4003C45.6004 70.3003 35.8004 83.1003 31.7004 98.4003C27.9004 112.6 29.4004 127.4 36.1004 140.5L41.2004 143.4C40.9004 142.9 40.6004 142.4 40.3004 141.9C32.8004 128.9 30.8004 113.7 34.7004 99.2003C38.5004 84.6003 47.8004 72.5003 60.9004 65.0003C69.6004 60.0003 79.2004 57.4003 89.0004 57.4003C93.9004 57.4003 98.8004 58.0003 103.7 59.3003C118.2 63.2003 130.4 72.5003 137.9 85.5003C145.4 98.5003 147.4 113.7 143.5 128.2C142 133.7 139.8 138.7 137 143.3L142.1 140.4C143.9 136.8 145.4 133 146.4 129C150.5 113.7 148.4 97.7003 140.5 84.0003C132.6 70.3003 119.6 60.6003 104.3 56.5003Z" fill="#221F1F"/>
<path d="M89 161.7C115.51 161.7 137 140.21 137 113.7C137 87.1905 115.51 65.7002 89 65.7002C62.4903 65.7002 41 87.1905 41 113.7C41 140.21 62.4903 161.7 89 161.7Z" fill="url(#paint4_linear_4242_3787)"/>
<path d="M89 163.2C84.8 163.2 80.5 162.7 76.2 161.5C49.9 154.4 34.2 127.3 41.2 100.9C44.6 88.1 52.8 77.5 64.2 70.9C75.6 64.3 89 62.5 101.7 66C128 73.1 143.7 100.2 136.7 126.6C130.9 148.6 110.8 163.2 89 163.2ZM88.9 67.3C80.9 67.3 72.9 69.4 65.8 73.5C55 79.7 47.3 89.7 44.1 101.7C37.5 126.4 52.2 152 76.9 158.6C101.6 165.2 127.2 150.5 133.8 125.8C140.4 101.1 125.7 75.5 101 68.9C97 67.8 93 67.3 88.9 67.3Z" fill="#221F1F"/>
<path d="M87.6004 151.2C86.8004 151.2 86.1004 150.5 86.1004 149.6C86.1004 148.8 86.8004 148.1 87.7004 148.2C88.5004 148.2 89.2004 148.9 89.1004 149.8C89.1004 150.6 88.5004 151.2 87.6004 151.2ZM94.2004 149.4C94.0004 148.6 94.6004 147.8 95.4004 147.6C96.2004 147.4 97.0004 148 97.2004 148.8C97.4004 149.6 96.8004 150.4 96.0004 150.6C95.9004 150.6 95.8004 150.6 95.7004 150.6C95.0004 150.6 94.4004 150.1 94.2004 149.4ZM79.3004 150C78.5004 149.8 78.0004 149 78.2004 148.2C78.4004 147.4 79.2004 146.9 80.0004 147.1C80.8004 147.3 81.3004 148.1 81.1004 148.9C80.9004 149.6 80.3004 150 79.7004 150C79.6004 150 79.4004 150 79.3004 150ZM102 147.3C101.7 146.5 102 145.7 102.8 145.3C103.6 145 104.4 145.3 104.8 146.1C105.1 146.9 104.8 147.7 104 148.1C103.8 148.2 103.6 148.2 103.4 148.2C102.8 148.2 102.3 147.9 102 147.3ZM71.5004 146.9C70.8004 146.5 70.5004 145.6 70.9004 144.9C71.3004 144.2 72.2004 143.9 72.9004 144.3C73.6004 144.7 73.9004 145.6 73.5004 146.3C73.2004 146.8 72.7004 147.1 72.2004 147.1C72.0004 147.1 71.7004 147 71.5004 146.9ZM109.2 143.6C108.7 142.9 108.9 142 109.5 141.5C110.2 141 111.1 141.2 111.6 141.8C112.1 142.5 111.9 143.4 111.3 143.9C111 144.1 110.7 144.2 110.4 144.2C109.9 144.2 109.5 144 109.2 143.6ZM64.5004 142.2C63.9004 141.7 63.8004 140.7 64.3004 140.1C64.8004 139.5 65.8004 139.4 66.4004 139.9C67.0004 140.4 67.1004 141.4 66.6004 142C66.3004 142.3 65.9004 142.5 65.5004 142.5C65.2004 142.6 64.8004 142.4 64.5004 142.2ZM115.3 138.4C114.7 137.9 114.6 136.9 115.1 136.3C115.6 135.7 116.6 135.6 117.2 136.2C117.8 136.7 117.9 137.7 117.4 138.3C117.1 138.7 116.7 138.8 116.3 138.8C116 138.7 115.6 138.6 115.3 138.4ZM58.8004 136C58.3004 135.3 58.4004 134.4 59.1004 133.9C59.8004 133.4 60.7004 133.6 61.2004 134.2C61.7004 134.9 61.6004 135.8 60.9004 136.3C60.6004 136.5 60.3004 136.6 60.0004 136.6C59.6004 136.7 59.1004 136.4 58.8004 136ZM120.1 131.9C119.4 131.5 119.1 130.6 119.5 129.9C119.9 129.2 120.8 128.9 121.5 129.3C122.2 129.7 122.5 130.6 122.1 131.3C121.8 131.8 121.3 132.1 120.8 132.1C120.6 132.1 120.4 132 120.1 131.9ZM54.6004 128.8C54.3004 128 54.6004 127.2 55.4004 126.8C56.2004 126.5 57.0004 126.8 57.4004 127.6C57.7004 128.4 57.4004 129.2 56.6004 129.6C56.4004 129.7 56.2004 129.7 56.0004 129.7C55.4004 129.7 54.9004 129.3 54.6004 128.8ZM123.4 124.5C122.6 124.3 122.1 123.5 122.3 122.7V122.6C122.5 121.8 123.3 121.3 124.1 121.5C124.9 121.7 125.4 122.5 125.2 123.3C125.2 123.3 125.2 123.3 125.2 123.4C125 124.1 124.4 124.5 123.7 124.5C123.7 124.6 123.5 124.5 123.4 124.5ZM52.1004 120.8C51.9004 120 52.5004 119.2 53.3004 119C54.1004 118.8 54.9004 119.4 55.1004 120.2C55.2004 121 54.7004 121.8 53.9004 122C53.8004 122 53.7004 122 53.6004 122C52.9004 122 52.3004 121.5 52.1004 120.8ZM124.9 116.5C124.1 116.5 123.4 115.8 123.4 115C123.4 114.2 124.1 113.5 125 113.5C125.8 113.5 126.5 114.2 126.4 115.1C126.5 115.8 125.8 116.5 124.9 116.5C125 116.5 125 116.5 124.9 116.5ZM52.9004 113.9C52.1004 113.9 51.4004 113.2 51.4004 112.4C51.4004 111.6 52.1004 110.9 53.0004 111C53.8004 111 54.5004 111.7 54.4004 112.5C54.5004 113.3 53.8004 113.9 52.9004 113.9C53.0004 113.9 53.0004 113.9 52.9004 113.9ZM122.9 107.2C122.7 106.4 123.3 105.6 124.1 105.4C124.9 105.3 125.7 105.8 125.9 106.6C126 107.4 125.5 108.2 124.7 108.4C124.6 108.4 124.5 108.4 124.4 108.4C123.7 108.4 123 107.9 122.9 107.2ZM53.8004 105.9C53.0004 105.7 52.5004 104.9 52.7004 104.1C52.9004 103.3 53.7004 102.8 54.5004 103C55.3004 103.2 55.8004 104 55.6004 104.8C55.4004 105.5 54.8004 105.9 54.1004 105.9C54.1004 106 53.9004 106 53.8004 105.9ZM120.6 99.8002C120.3 99.0002 120.6 98.1002 121.4 97.8002C122.2 97.5002 123.1 97.8002 123.4 98.6002C123.7 99.4002 123.4 100.2 122.6 100.6C122.4 100.7 122.2 100.7 122 100.7C121.4 100.7 120.8 100.4 120.6 99.8002ZM56.4004 98.3002C55.7004 97.9002 55.4004 97.0002 55.8004 96.3002C56.2004 95.6002 57.1004 95.3002 57.8004 95.7002C58.5004 96.1002 58.8004 97.0002 58.4004 97.7002C58.1004 98.2002 57.6004 98.5002 57.1004 98.5002C56.9004 98.5002 56.6004 98.4002 56.4004 98.3002ZM116.7 93.2002C116.2 92.5002 116.3 91.6002 117 91.1002C117.7 90.6002 118.6 90.7002 119.1 91.4002C119.6 92.1002 119.5 93.0002 118.8 93.5002C118.5 93.7002 118.2 93.8002 117.9 93.8002C117.5 93.8002 117 93.6002 116.7 93.2002ZM60.7004 91.4002C60.1004 90.9002 60.0004 89.9002 60.5004 89.3002C61.0004 88.7002 62.0004 88.6002 62.6004 89.1002C63.2004 89.6002 63.3004 90.6002 62.8004 91.2002C62.5004 91.5002 62.1004 91.7002 61.7004 91.7002C61.3004 91.8002 61.0004 91.7002 60.7004 91.4002ZM111.4 87.5002C110.8 87.0002 110.7 86.0002 111.2 85.4002C111.7 84.8002 112.7 84.7002 113.3 85.2002C113.9 85.7002 114 86.7002 113.5 87.3002C113.2 87.6002 112.8 87.8002 112.4 87.8002C112.1 87.9002 111.7 87.7002 111.4 87.5002ZM66.3004 85.7002C65.8004 85.0002 65.9004 84.1002 66.6004 83.6002C67.3004 83.1002 68.2004 83.2002 68.7004 83.9002C69.2004 84.6002 69.0004 85.5002 68.4004 86.0002C68.1004 86.2002 67.8004 86.3002 67.5004 86.3002C67.1004 86.3002 66.6004 86.1002 66.3004 85.7002ZM105 83.2002C104.3 82.8002 104 81.9002 104.4 81.2002C104.8 80.5002 105.7 80.2002 106.4 80.6002C107.1 81.0002 107.4 81.9002 107 82.6002C106.7 83.1002 106.2 83.4002 105.7 83.4002C105.5 83.3002 105.3 83.3002 105 83.2002ZM73.1004 81.4002C72.8004 80.6002 73.1004 79.7002 73.9004 79.4002C74.7004 79.1002 75.5004 79.4002 75.9004 80.2002C76.2004 81.0002 75.9004 81.8002 75.1004 82.2002C74.9004 82.3002 74.7004 82.3002 74.5004 82.3002C73.9004 82.2002 73.4004 81.9002 73.1004 81.4002ZM97.8004 80.4002C97.0004 80.2002 96.5004 79.4002 96.7004 78.6002C96.9004 77.8002 97.7004 77.3002 98.5004 77.5002C99.3004 77.7002 99.8004 78.5002 99.6004 79.3002C99.4004 80.0002 98.8004 80.4002 98.2004 80.4002C98.1004 80.4002 98.0004 80.4002 97.8004 80.4002ZM80.7004 78.6002C80.5004 77.8002 81.1004 77.0002 81.9004 76.8002C82.7004 76.6002 83.5004 77.2002 83.7004 78.0002C83.9004 78.8002 83.3004 79.6002 82.5004 79.8002C82.4004 79.8002 82.3004 79.8002 82.2004 79.8002C81.5004 79.8002 80.9004 79.3002 80.7004 78.6002ZM90.2004 79.2002C89.4004 79.2002 88.7004 78.5002 88.7004 77.7002C88.7004 76.9002 89.4004 76.2002 90.2004 76.2002C91.0004 76.2002 91.7004 76.9002 91.7004 77.8002C91.7004 78.6002 91.1004 79.2002 90.2004 79.2002Z" fill="#55BAFF"/>
<path d="M98.5004 109.1L107.1 150.9L79.5004 118.4L70.9004 76.6001L98.5004 109.1Z" fill="url(#paint5_linear_4242_3787)"/>
<path d="M107.1 152.4C106.7 152.4 106.2 152.2 106 151.9L78.4004 119.4C78.2004 119.2 78.1004 119 78.1004 118.7L69.5004 76.9001C69.4004 76.2001 69.7004 75.5001 70.3004 75.3001C70.9004 75.0001 71.7004 75.2001 72.1004 75.7001L99.7004 108.2C99.9004 108.4 100 108.6 100 108.9L108.6 150.7C108.7 151.4 108.4 152.1 107.8 152.3C107.5 152.4 107.3 152.4 107.1 152.4ZM80.9004 117.7L104.5 145.5L97.2004 109.8L73.6004 82.0001L80.9004 117.7Z" fill="#221F1F"/>
<path d="M89.0004 117.8C91.2648 117.8 93.1004 115.964 93.1004 113.7C93.1004 111.436 91.2648 109.6 89.0004 109.6C86.736 109.6 84.9004 111.436 84.9004 113.7C84.9004 115.964 86.736 117.8 89.0004 117.8Z" fill="#F9A936"/>
<path d="M89.0006 119.3C88.5006 119.3 88.0006 119.2 87.5006 119.1C84.5006 118.3 82.7006 115.2 83.5006 112.2C83.9006 110.8 84.8006 109.5 86.1006 108.8C87.4006 108.1 88.9006 107.9 90.3006 108.2C91.7006 108.6 93.0006 109.5 93.7006 110.8C94.4006 112.1 94.6006 113.6 94.3006 115C93.9006 116.4 93.0006 117.7 91.7006 118.4C90.9006 119.1 90.0006 119.3 89.0006 119.3ZM89.0006 111.1C88.6006 111.1 88.1006 111.2 87.7006 111.4C87.1006 111.7 86.7006 112.3 86.5006 113C86.3006 113.7 86.4006 114.4 86.8006 115C87.2006 115.6 87.7006 116 88.4006 116.2C89.1006 116.4 89.8006 116.3 90.4006 115.9C91.0006 115.6 91.4006 115 91.6006 114.3C91.8006 113.6 91.7006 112.9 91.3006 112.3C90.9006 111.7 90.4006 111.3 89.7006 111.1C89.4006 111.2 89.2006 111.1 89.0006 111.1Z" fill="#221F1F"/>
<path d="M119.313 95.6811C122.071 92.3718 120.283 86.3356 115.319 82.1988C110.355 78.062 104.095 77.3912 101.337 80.7004C98.5794 84.0097 100.368 90.0459 105.332 94.1827C110.296 98.3195 116.555 98.9904 119.313 95.6811Z" fill="white"/>
<defs>
<linearGradient id="paint0_linear_4242_3787" x1="89.0002" y1="-15.5883" x2="89.0002" y2="122.476" gradientUnits="userSpaceOnUse">
<stop offset="0.5205" stop-color="#C2E4D9"/>
<stop offset="0.783" stop-color="#43C252"/>
</linearGradient>
<linearGradient id="paint1_linear_4242_3787" x1="98.7109" y1="62.2777" x2="114.307" y2="32.913" gradientUnits="userSpaceOnUse">
<stop offset="0.5046" stop-color="#F9A936"/>
<stop offset="0.8947" stop-color="#F7E837"/>
</linearGradient>
<linearGradient id="paint2_linear_4242_3787" x1="113.907" y1="54.8384" x2="100.066" y2="50.861" gradientUnits="userSpaceOnUse">
<stop offset="0.5046" stop-color="#F9A936"/>
<stop offset="0.8947" stop-color="#F7E837"/>
</linearGradient>
<linearGradient id="paint3_linear_4242_3787" x1="67.8497" y1="153.539" x2="111.588" y2="71.1854" gradientUnits="userSpaceOnUse">
<stop offset="0.5046" stop-color="#F9A936"/>
<stop offset="0.8947" stop-color="#F7E837"/>
</linearGradient>
<linearGradient id="paint4_linear_4242_3787" x1="75.3622" y1="152.668" x2="101.666" y2="77.5749" gradientUnits="userSpaceOnUse">
<stop offset="0.314543" stop-color="#CAE5FF"/>
<stop offset="0.8947" stop-color="white"/>
</linearGradient>
<linearGradient id="paint5_linear_4242_3787" x1="75.9795" y1="90.0222" x2="106.208" y2="145.069" gradientUnits="userSpaceOnUse">
<stop offset="0.1301" stop-color="#FF6EB0"/>
<stop offset="0.8947" stop-color="#ED0F4E"/>
</linearGradient>
</defs>
</svg>
