<svg width="178" height="178" viewBox="0 0 178 178" fill="none" xmlns="http://www.w3.org/2000/svg">
<path d="M152.1 63.7001C152 63.7001 151.8 63.7001 151.7 63.7001C149.7 63.5001 148.1 62.0001 147.7 60.1001L145.9 51.2001L137.4 47.9001C135.6 47.2001 134.4 45.3001 134.6 43.3001C134.8 41.3001 136.3 39.7001 138.2 39.3001L147.1 37.5001L150.4 29.0001C151.1 27.3001 152.7 26.1001 154.6 26.1001C154.7 26.1001 154.9 26.1001 155 26.1001C157 26.3001 158.6 27.8001 159 29.7001L160.8 38.6001L169.3 41.9001C171.2 42.6001 172.3 44.5001 172.1 46.5001C171.9 48.5001 170.4 50.1001 168.5 50.5001L159.6 52.3001L156.3 60.8001C155.6 62.6001 154 63.7001 152.1 63.7001ZM153.4 45.1001C153.5 45.1001 153.5 45.0001 153.6 45.0001C153.6 44.9001 153.5 44.9001 153.5 44.8001C153.4 44.8001 153.4 44.9001 153.3 44.9001C153.3 45.0001 153.3 45.0001 153.4 45.1001Z" fill="white"/>
<path d="M144.501 115.6C141.601 115.6 138.901 113.9 137.701 111.3L114.401 61.4002C113.601 59.6002 113.501 57.5002 114.201 55.6002C114.901 53.8002 116.201 52.3002 118.001 51.4002C118.001 51.4002 118.101 51.3002 118.201 51.3002C124.701 48.3002 132.001 46.7002 139.301 46.7002C142.501 46.7002 145.701 47.0002 148.701 47.6002C160.001 49.9002 168.401 55.9002 172.501 64.7002C176.601 73.5002 175.701 83.9002 170.101 94.1002C165.101 103 157.001 110.6 147.901 114.9C147.901 114.9 147.701 115 147.601 115C146.501 115.4 145.501 115.6 144.501 115.6ZM147.701 97.4002C157.201 90.2002 162.301 78.7002 158.801 71.0002C156.801 66.7002 152.101 63.6002 145.701 62.3002C143.601 61.9002 141.501 61.7002 139.301 61.7002C136.701 61.7002 134.101 62.0002 131.601 62.5002L147.701 97.4002Z" fill="white"/>
<path d="M153.7 49.7002L97.1002 17.0002C92.1002 14.1002 85.8002 14.1002 80.8002 17.0002L24.3002 49.7002C19.3002 52.6002 16.2002 58.0002 16.2002 63.8002V129C16.2002 134.8 19.3002 140.2 24.3002 143.1L80.8002 175.7C83.3002 177.1 86.1002 177.9 88.9002 177.9C91.8002 177.9 94.6002 177.1 97.0002 175.7L153.5 143.1C158.5 140.2 161.6 134.8 161.6 129V63.7002C161.8 57.9002 158.7 52.5002 153.7 49.7002ZM146.8 63.7002V129C146.8 129.4 146.6 129.9 146.2 130.1L89.7002 162.7C89.3002 162.9 88.8002 162.9 88.4002 162.7L31.9002 130.1C31.5002 129.9 31.3002 129.4 31.3002 129V63.7002C31.3002 63.3002 31.5002 62.8002 31.9002 62.6002L88.4002 30.0002C88.6002 29.9002 88.9002 29.8002 89.0002 29.8002C89.2002 29.8002 89.4002 29.8002 89.6002 30.0002L146.1 62.6002C146.5 62.9002 146.8 63.3002 146.8 63.7002Z" fill="white"/>
<path d="M84.6002 23.5003L28.1002 56.1003C25.4002 57.7003 23.7002 60.6003 23.7002 63.7003V129C23.7002 132.1 25.4002 135 28.1002 136.6L84.6002 169.2C87.3002 170.8 90.7002 170.8 93.4002 169.2L149.9 136.6C152.6 135 154.3 132.1 154.3 129V63.7003C154.3 60.6003 152.6 57.7003 149.9 56.1003L93.4002 23.5003C90.7002 21.9003 87.3002 21.9003 84.6002 23.5003Z" fill="#B9B9FF"/>
<path d="M89.0002 165.4C88.3002 165.4 87.7002 165.2 87.1002 164.9L30.6002 132.3C29.4002 131.6 28.7002 130.4 28.7002 129V63.7003C28.7002 62.4003 29.4002 61.1003 30.6002 60.4003L87.1002 27.8003C87.7002 27.5003 88.3002 27.3003 89.0002 27.3003C89.7002 27.3003 90.3002 27.5003 90.9002 27.8003L147.4 60.4003C148.6 61.1003 149.3 62.3003 149.3 63.7003V129C149.3 130.3 148.6 131.6 147.4 132.3L90.9002 164.9C90.3002 165.2 89.7002 165.4 89.0002 165.4Z" fill="url(#paint0_linear_4242_3785)"/>
<path d="M149.9 56.1003L93.4002 23.5003C90.7002 21.9003 87.3002 21.9003 84.6002 23.5003L28.1002 56.1003C25.4002 57.7003 23.7002 60.6003 23.7002 63.7003V69.2003C23.7002 66.1003 25.4002 63.2003 28.1002 61.6003L84.6002 29.0003C87.3002 27.4003 90.7002 27.4003 93.4002 29.0003L149.9 61.6003C152.6 63.2003 154.3 66.1003 154.3 69.2003V63.7003C154.3 60.6003 152.6 57.7003 149.9 56.1003Z" fill="white"/>
<path d="M88.9998 171.9C87.1998 171.9 85.4998 171.4 83.8998 170.5L27.3998 137.9C24.1998 136.1 22.2998 132.7 22.2998 129V63.7001C22.2998 60.0001 24.2998 56.6001 27.3998 54.8001L83.8998 22.2001C87.0998 20.4001 90.9998 20.4001 94.1998 22.2001L150.7 54.8001C153.9 56.6001 155.8 60.0001 155.8 63.7001V129C155.8 132.7 153.8 136.1 150.7 137.9L94.1998 170.5C92.4998 171.4 90.7998 171.9 88.9998 171.9ZM88.9998 23.8001C87.6998 23.8001 86.4998 24.1001 85.3998 24.8001L28.7998 57.4001C26.5998 58.7001 25.1998 61.1001 25.1998 63.7001V129C25.1998 131.6 26.5998 134 28.7998 135.3L85.2998 167.9C87.4998 169.2 90.2998 169.2 92.5998 167.9L149.1 135.3C151.3 134 152.7 131.6 152.7 129V63.7001C152.7 61.1001 151.3 58.7001 149.1 57.4001L92.5998 24.8001C91.4998 24.2001 90.2998 23.8001 88.9998 23.8001Z" fill="#221F1F"/>
<path d="M41.3998 70.1003L55.9998 67.2003L42.1998 61.8003L39.1998 47.3003L33.7998 61.1003L19.2998 64.0003L33.0998 69.4003L35.9998 83.9003L41.3998 70.1003Z" fill="white"/>
<path d="M36.0001 85.4001H35.9001C35.2001 85.3001 34.7001 84.9001 34.6001 84.2001L31.8001 70.5001L18.8001 65.4001C18.2001 65.2001 17.8001 64.5001 17.9001 63.9001C18.0001 63.2001 18.4001 62.7001 19.1001 62.6001L32.8001 59.8001L37.9001 46.8001C38.1001 46.2001 38.8001 45.8001 39.4001 45.9001C40.1001 46.0001 40.6001 46.4001 40.7001 47.1001L43.5001 60.8001L56.5001 65.9001C57.1001 66.1001 57.5001 66.8001 57.4001 67.4001C57.3001 68.1001 56.9001 68.6001 56.2001 68.7001L42.5001 71.5001L37.4001 84.5001C37.2001 85.1001 36.6001 85.4001 36.0001 85.4001ZM24.6001 64.5001L33.6001 68.0001C34.1001 68.2001 34.4001 68.6001 34.5001 69.1001L36.4001 78.6001L39.9001 69.6001C40.1001 69.1001 40.5001 68.8001 41.0001 68.7001L50.5001 66.8001L41.5001 63.3001C41.0001 63.1001 40.7001 62.7001 40.6001 62.2001L38.7001 52.7001L35.2001 61.7001C35.0001 62.2001 34.6001 62.5001 34.1001 62.6001L24.6001 64.5001Z" fill="#221F1F"/>
<path d="M147.6 55.1001L80.8004 43.3001C72.9004 42.0001 64.1004 43.2001 56.5004 46.7001C56.5004 46.7001 56.4004 46.7001 56.4004 46.8001L79.7004 96.7001C79.7004 96.7001 79.8004 96.7001 79.8004 96.6001C89.8004 92.0001 97.8004 83.1001 101.1 73.7001C119 71.2001 145.2 67.4001 145.2 67.4001L147.6 55.1001Z" fill="#FFE0A1"/>
<path d="M79.6006 98.2C79.0006 98.2 78.5006 97.9 78.2006 97.4L55.0006 47.5C54.7006 46.8 55.0006 45.9 55.7006 45.5L55.8006 45.4C63.4006 41.9 72.5006 40.6 80.8006 41.8C80.9006 41.8 81.0006 41.8 81.1006 41.8L148.001 53.6C148.401 53.7 148.801 53.9 149.001 54.2C149.201 54.5 149.301 54.9 149.201 55.3L146.701 67.7C146.601 68.3 146.101 68.8 145.401 68.9C145.101 68.9 119.901 72.6 102.201 75.1C98.5006 84.7 90.2006 93.4 80.3006 98H80.2006C80.0006 98.2 79.8006 98.2 79.6006 98.2ZM58.3006 47.6L80.3006 94.7C89.2006 90.2 96.5006 82.1 99.6006 73.3C99.8006 72.8 100.301 72.4 100.801 72.3C116.501 70.1 138.801 66.9 143.801 66.2L145.801 56.3L80.8006 44.9C80.7006 44.9 80.7006 44.9 80.6006 44.9C73.2006 43.7 65.2006 44.7 58.3006 47.6Z" fill="#221F1F"/>
<path d="M56.2998 46.8003L121.2 58.2003L144.6 108L79.5998 96.7003L56.2998 46.8003Z" fill="#CE9413"/>
<path d="M144.601 109.5C144.501 109.5 144.401 109.5 144.301 109.5L79.3005 98.2002C78.8005 98.1002 78.4005 97.8002 78.2005 97.4002L55.0005 47.5002C54.8005 47.0002 54.8005 46.4002 55.2005 46.0002C55.6005 45.6002 56.1005 45.3002 56.6005 45.4002L121.501 56.8002C122.001 56.9002 122.401 57.2002 122.601 57.6002L146.001 107.4C146.201 107.9 146.201 108.5 145.801 108.9C145.501 109.3 145.001 109.5 144.601 109.5ZM80.6005 95.4002L142.001 106.1L120.201 59.6002L58.9005 48.8002L80.6005 95.4002Z" fill="#221F1F"/>
<path d="M91.0006 102.8L70.1006 57.4004L115.701 65.4004L136.701 110.7L91.0006 102.8Z" fill="url(#paint1_linear_4242_3785)"/>
<path d="M88.3006 97.0004C100.601 89.4004 108.801 75.6004 106.701 63.8004L70.1006 57.4004L88.3006 97.0004Z" fill="#CE9413"/>
<path d="M144.401 108.1C144.401 108.1 144.501 108.1 144.501 108C160.701 100.4 172.001 81.6 165.501 67.8C159.001 54 137.501 50.5 121.201 58.1C121.201 58.1 121.101 58.1 121.101 58.2L144.401 108.1Z" fill="#E0B344"/>
<path d="M144.5 109.6C143.9 109.6 143.4 109.3 143.1 108.8L119.8 58.9004C119.6 58.5004 119.6 58.1004 119.8 57.8004C119.9 57.4004 120.2 57.1004 120.6 57.0004L120.7 56.9004C128.9 53.1004 138.7 51.9004 147.5 53.6004C156.8 55.5004 163.8 60.3004 167 67.3004C174 82.4004 161.3 102 145.2 109.5H145.1C144.9 109.5 144.7 109.6 144.5 109.6ZM123.2 58.9004L145.2 106C160.8 98.0004 169.9 80.4004 164.3 68.4004C161.5 62.3004 155.3 58.1004 146.9 56.4004C139.1 54.9004 130.6 55.8004 123.2 58.9004Z" fill="#221F1F"/>
<path d="M137.601 34.2003H137.501C136.701 34.1003 136.101 33.4003 136.101 32.6003L136.601 26.7003C136.701 25.9003 137.401 25.3003 138.201 25.3003C139.001 25.4003 139.601 26.1003 139.601 26.9003L139.101 32.8003C139.001 33.6003 138.401 34.2003 137.601 34.2003Z" fill="white"/>
<path d="M140.8 31.5H140.7L134.8 31C134 30.9 133.4 30.2 133.4 29.4C133.5 28.6 134.2 28 135 28L140.9 28.5C141.7 28.6 142.3 29.3 142.3 30.1C142.3 30.9 141.6 31.5 140.8 31.5Z" fill="white"/>
<path d="M55.4004 86.6004H55.3004C54.5004 86.5004 53.9004 85.8004 53.9004 85.0004L54.5004 77.8004C54.6004 77.0004 55.3004 76.4004 56.1004 76.4004C56.9004 76.5004 57.5004 77.2004 57.5004 78.0004L56.9004 85.2004C56.8004 86.0004 56.1004 86.6004 55.4004 86.6004Z" fill="white"/>
<path d="M59.3006 83.3002H59.2006L52.0006 82.7002C51.2006 82.6002 50.6006 81.9002 50.6006 81.1002C50.6006 80.3002 51.4006 79.7002 52.2006 79.7002L59.4006 80.3002C60.2006 80.4002 60.8006 81.1002 60.8006 81.9002C60.7006 82.8002 60.0006 83.3002 59.3006 83.3002Z" fill="white"/>
<path d="M98.7002 88.1L127.8 92.9L125.5 87.5L102 83.5C100.9 85.2 99.7002 86.8 98.7002 88.1Z" fill="white"/>
<path d="M88.2997 98.5002C88.1997 98.5002 87.9997 98.5002 87.8997 98.4002C87.4997 98.3002 87.0997 98.0002 86.9997 97.6002L68.6997 58.0002C68.4997 57.5002 68.4997 56.9002 68.8997 56.5002C69.1997 56.1002 69.7997 55.8002 70.2997 55.9002L106.9 62.3002C107.5 62.4002 108 62.9002 108.1 63.5002C110.3 75.5002 102.3 90.1002 88.9997 98.3002C88.7997 98.4002 88.5997 98.5002 88.2997 98.5002ZM72.5997 59.4002L88.8997 94.8002C99.8997 87.4002 106.6 75.3002 105.3 65.1002L72.5997 59.4002Z" fill="#221F1F"/>
<path d="M136.7 112.2C136.6 112.2 136.5 112.2 136.4 112.2L90.6997 104.3C90.1997 104.2 89.7997 103.9 89.5997 103.4L68.6997 58.0002C68.4997 57.5002 68.4997 56.9002 68.8997 56.5002C69.1997 56.1002 69.7997 55.8002 70.2997 55.9002L115.9 63.9002C116.4 64.0002 116.8 64.3002 117 64.7002L138 110.1C138.2 110.6 138.2 111.2 137.8 111.6C137.6 112 137.1 112.2 136.7 112.2ZM91.9997 101.5L134.1 108.8L114.7 66.7002L72.6997 59.4002L91.9997 101.5Z" fill="#221F1F"/>
<path d="M68.7006 158.3L91.3006 162.3L108.201 101.5L34.6006 88.5L30.6006 136.3L68.7006 158.3Z" fill="url(#paint2_linear_4242_3785)"/>
<path d="M30.7998 136.4L38.3998 140.8L101.1 123.2L103.7 114.2L30.8998 134.6L30.7998 136.4Z" fill="white"/>
<path d="M108.501 100L34.8006 87.0004C34.4006 86.9004 34.0006 87.0004 33.6006 87.3004C33.2006 87.6004 33.1006 87.9004 33.0006 88.4004L29.1006 136.5L32.0006 138.2L35.9006 90.4004L106.301 102.8L90.2006 160.7L62.4006 155.8L70.0006 160.2L91.0006 163.9C91.1006 163.9 91.2006 163.9 91.3006 163.9C92.0006 163.9 92.6006 163.5 92.7006 162.8L109.601 102C109.701 101.6 109.601 101.2 109.401 100.8C109.301 100.4 108.901 100.1 108.501 100Z" fill="#221F1F"/>
<path d="M85.2002 161.2L99.8002 163.8L134.6 143.7L144.5 107.9L90.3002 98.4004L85.2002 161.2Z" fill="#E0B344"/>
<path d="M85.7002 154.5L135.4 140.6L137.9 131.6L86.4002 146L85.7002 154.5Z" fill="#FFDA7D"/>
<path d="M144.8 106.4L90.6004 96.8002C90.2004 96.7002 89.8004 96.8002 89.4004 97.1002C89.1004 97.4002 88.9004 97.7002 88.8004 98.2002L83.7004 161.1C83.6004 161.9 84.2004 162.6 84.9004 162.7L99.1004 165.2L103.1 162.9L86.8004 160L91.7004 100.1L142.7 109.1L132.4 146L136.1 143.9L146 108.4C146.1 108 146 107.6 145.8 107.2C145.6 106.8 145.2 106.5 144.8 106.4Z" fill="#221F1F"/>
<path d="M95.2002 112.5C94.8002 112.5 94.4002 112.3 94.1002 112.1C94.0002 112 93.9002 111.8 93.8002 111.6C93.7002 111.4 93.7002 111.2 93.7002 111C93.7002 110.6 93.9002 110.2 94.1002 109.9C94.6002 109.3 95.7002 109.3 96.2002 109.9C96.5002 110.2 96.6002 110.6 96.6002 111C96.6002 111.4 96.4002 111.8 96.2002 112.1C96.1002 112.2 95.9002 112.3 95.7002 112.4C95.5002 112.5 95.4002 112.5 95.2002 112.5Z" fill="#CE9413"/>
<path d="M130.3 118.8C129.5 118.7 128.9 117.9 129.1 117.1C129.2 116.3 130 115.7 130.8 115.9C131.6 116.1 132.2 116.8 132 117.6C131.9 118.3 131.2 118.8 130.5 118.8C130.5 118.8 130.4 118.8 130.3 118.8ZM124.4 117.7C123.6 117.6 123 116.8 123.2 116C123.3 115.2 124.1 114.6 124.9 114.8C125.7 114.9 126.3 115.7 126.1 116.5C126 117.2 125.3 117.7 124.6 117.7C124.6 117.8 124.5 117.8 124.4 117.7ZM118.5 116.7C117.7 116.6 117.1 115.8 117.3 115C117.5 114.2 118.2 113.6 119 113.8C119.8 114 120.4 114.7 120.2 115.5C120.1 116.2 119.4 116.7 118.7 116.7C118.7 116.7 118.6 116.7 118.5 116.7ZM112.6 115.6C111.8 115.4 111.2 114.7 111.4 113.9C111.5 113.1 112.3 112.5 113.1 112.7C113.9 112.9 114.5 113.6 114.3 114.4C114.2 115.1 113.5 115.6 112.8 115.6C112.8 115.7 112.7 115.7 112.6 115.6ZM106.7 114.6C105.9 114.5 105.3 113.7 105.5 112.9C105.7 112.1 106.4 111.5 107.2 111.7C108 111.8 108.6 112.6 108.4 113.4C108.3 114.1 107.6 114.6 106.9 114.6C106.9 114.6 106.8 114.6 106.7 114.6ZM100.8 113.5C100 113.4 99.4003 112.6 99.6003 111.8C99.8003 111 100.5 110.4 101.3 110.6C102.1 110.7 102.7 111.5 102.5 112.3C102.4 113 101.7 113.5 101 113.5C101 113.6 100.9 113.6 100.8 113.5Z" fill="#CE9413"/>
<path d="M136.5 119.9C136.1 119.9 135.7 119.7 135.4 119.5C135.3 119.4 135.1 119.2 135.1 119C135 118.8 135 118.6 135 118.4C135 118 135.2 117.6 135.4 117.3C135.5 117.2 135.5 117.2 135.6 117.1C135.7 117.1 135.8 117 135.9 117C136 117 136.1 116.9 136.2 116.9C136.7 116.8 137.2 117 137.5 117.3C137.8 117.6 137.9 118 137.9 118.4C137.9 118.6 137.9 118.8 137.8 119C137.7 119.2 137.6 119.3 137.5 119.5C137.4 119.6 137.2 119.7 137 119.8C136.9 119.8 136.7 119.9 136.5 119.9Z" fill="#CE9413"/>
<path d="M40.6006 102.8C40.4006 102.8 40.2006 102.8 40.0006 102.7C39.8006 102.6 39.7006 102.5 39.5006 102.4C39.2006 102.1 39.1006 101.7 39.1006 101.3C39.1006 101.2 39.1006 101.1 39.1006 101C39.1006 100.9 39.1006 100.8 39.2006 100.7C39.2006 100.6 39.3006 100.5 39.3006 100.5C39.4006 100.4 39.4006 100.3 39.5006 100.3C39.6006 100.2 39.6006 100.2 39.7006 100.1C39.8006 100 39.9006 100 40.0006 100C40.1006 100 40.2006 99.9004 40.3006 99.9004C40.5006 99.9004 40.7006 99.9004 40.9006 99.9004C41.0006 99.9004 41.1006 99.9004 41.2006 100C41.3006 100 41.4006 100.1 41.5006 100.1C41.6006 100.2 41.7006 100.2 41.7006 100.3C41.8006 100.4 41.8006 100.4 41.9006 100.5C42.0006 100.6 42.0006 100.7 42.0006 100.7C42.0006 100.8 42.1006 100.9 42.1006 101C42.1006 101.1 42.1006 101.2 42.1006 101.3C42.1006 101.7 41.9006 102.1 41.7006 102.4C41.6006 102.5 41.4006 102.6 41.2006 102.7C40.9006 102.8 40.8006 102.8 40.6006 102.8Z" fill="#CE9413"/>
<path d="M77.0999 109.3C76.2999 109.2 75.6999 108.4 75.8999 107.6C75.9999 106.8 76.7999 106.2 77.5999 106.4C78.3999 106.5 78.9999 107.3 78.7999 108.1C78.6999 108.8 77.9999 109.3 77.2999 109.3C77.1999 109.4 77.0999 109.3 77.0999 109.3ZM70.8999 108.2C70.0999 108.1 69.4999 107.3 69.6999 106.5C69.7999 105.7 70.5999 105.1 71.3999 105.3C72.1999 105.4 72.7999 106.2 72.5999 107C72.4999 107.7 71.7999 108.2 71.0999 108.2C71.0999 108.3 70.9999 108.3 70.8999 108.2ZM64.7999 107.2C63.9999 107.1 63.3999 106.3 63.5999 105.5C63.6999 104.7 64.4999 104.1 65.2999 104.3C66.0999 104.5 66.6999 105.2 66.4999 106C66.3999 106.7 65.6999 107.2 64.9999 107.2C64.9999 107.2 64.8999 107.2 64.7999 107.2ZM58.6999 106.1C57.8999 106 57.2999 105.2 57.4999 104.4C57.6999 103.6 58.3999 103 59.1999 103.2C59.9999 103.4 60.5999 104.1 60.3999 104.9C60.2999 105.6 59.5999 106.1 58.8999 106.1C58.7999 106.1 58.7999 106.1 58.6999 106.1ZM52.4999 105C51.6999 104.9 51.0999 104.1 51.2999 103.3C51.4999 102.5 52.1999 101.9 52.9999 102.1C53.7999 102.2 54.3999 103 54.1999 103.8C54.0999 104.5 53.3999 105 52.6999 105C52.6999 105 52.5999 105 52.4999 105ZM46.3999 103.9C45.5999 103.8 44.9999 103 45.1999 102.2C45.2999 101.4 46.0999 100.8 46.8999 101C47.6999 101.1 48.2999 101.9 48.0999 102.7C47.9999 103.4 47.2999 103.9 46.5999 103.9C46.5999 103.9 46.4999 103.9 46.3999 103.9Z" fill="#CE9413"/>
<path d="M83.4004 110.4C83.2004 110.4 83.0004 110.4 82.8004 110.3C82.6004 110.2 82.5004 110.1 82.3004 110C82.2004 109.9 82.1004 109.7 82.0004 109.5C81.9004 109.3 81.9004 109.1 81.9004 108.9C81.9004 108.8 81.9004 108.7 81.9004 108.6C81.9004 108.5 81.9004 108.4 82.0004 108.3C82.0004 108.2 82.1004 108.1 82.1004 108C82.1004 107.9 82.2004 107.8 82.3004 107.8C82.4004 107.7 82.4004 107.7 82.5004 107.6C82.6004 107.6 82.7004 107.5 82.8004 107.5C82.9004 107.5 83.0004 107.4 83.1004 107.4C83.3004 107.4 83.5004 107.4 83.7004 107.4C83.8004 107.4 83.9004 107.4 84.0004 107.5C84.1004 107.5 84.2004 107.6 84.3004 107.6C84.4004 107.7 84.5004 107.7 84.5004 107.8C84.6004 107.9 84.6004 107.9 84.7004 108C84.8004 108.1 84.8004 108.2 84.8004 108.3C84.8004 108.4 84.9004 108.5 84.9004 108.6C84.9004 108.7 84.9004 108.8 84.9004 108.9C84.9004 109.1 84.9004 109.3 84.8004 109.5C84.7004 109.7 84.6004 109.8 84.5004 110C84.3004 110.1 84.2004 110.2 84.0004 110.3C83.8004 110.4 83.6004 110.4 83.4004 110.4Z" fill="#CE9413"/>
<path d="M156.301 48.5001L167.701 46.2001L156.901 42.0001L154.601 30.6001L150.401 41.4001L139.101 43.7001L149.801 47.9001L152.101 59.2001L156.301 48.5001Z" fill="white"/>
<path d="M152.1 60.7H152C151.3 60.6 150.8 60.2 150.7 59.5L148.5 49L138.5 45.1C137.9 44.9 137.5 44.2 137.6 43.6C137.7 42.9 138.1 42.4 138.8 42.3L149.3 40.2L153.2 30.2C153.4 29.6 154.1 29.2 154.7 29.3C155.4 29.4 155.9 29.8 156 30.5L158.1 41L168.1 44.9C168.7 45.1 169.1 45.8 169 46.4C168.9 47.1 168.5 47.6 167.8 47.7L157.3 49.8L153.4 59.8C153.3 60.4 152.7 60.7 152.1 60.7ZM144.4 44.1L150.4 46.5C150.9 46.7 151.2 47.1 151.3 47.6L152.6 53.9L155 47.9C155.2 47.4 155.6 47.1 156.1 47L162.4 45.7L156.4 43.4C155.9 43.2 155.6 42.8 155.5 42.3L154.2 36L151.8 42C151.6 42.5 151.2 42.8 150.7 42.9L144.4 44.1Z" fill="#221F1F"/>
<defs>
<linearGradient id="paint0_linear_4242_3785" x1="89.0002" y1="27.3403" x2="89.0002" y2="165.403" gradientUnits="userSpaceOnUse">
<stop offset="0.3974" stop-color="#7C7CE7"/>
<stop offset="0.7659" stop-color="#211898"/>
</linearGradient>
<linearGradient id="paint1_linear_4242_3785" x1="102.285" y1="96.1145" x2="103.982" y2="77.2353" gradientUnits="userSpaceOnUse">
<stop offset="0.1832" stop-color="#FCD26E"/>
<stop offset="0.8074" stop-color="#CE9413"/>
</linearGradient>
<linearGradient id="paint2_linear_4242_3785" x1="41.9718" y1="75.6129" x2="88.6154" y2="149.157" gradientUnits="userSpaceOnUse">
<stop offset="0.1832" stop-color="white"/>
<stop offset="0.8074" stop-color="#FCD26E"/>
</linearGradient>
</defs>
</svg>
