<svg width="220" height="220" viewBox="0 0 220 220" fill="none" xmlns="http://www.w3.org/2000/svg">
<path fill-rule="evenodd" clip-rule="evenodd" d="M33.7499 88.9C29.0999 88.9 24.8999 85.75 23.5999 81.3C22.7999 78.6 23.0999 75.7 24.4499 73.25C25.7999 70.75 28.0499 68.95 30.7499 68.15C31.6999 67.85 32.6999 67.7 33.7499 67.7C38.3999 67.7 42.5999 70.85 43.8999 75.3C45.5499 80.9 42.2999 86.8 36.6999 88.45C35.7499 88.75 34.7499 88.9 33.7499 88.9Z" fill="white"/>
<path fill-rule="evenodd" clip-rule="evenodd" d="M29.3004 76.1C25.3004 76.1 21.7504 73.7 20.2504 70L15.7004 58.75C14.6504 56.2 14.7504 53.3 15.9504 50.8C17.1504 48.3 19.3504 46.45 22.0004 45.65L24.7504 44.85C25.6504 44.6 26.5504 44.45 27.5004 44.45C32.2004 44.45 36.2504 47.8 37.1004 52.45L39.3004 64.4C40.2004 69.35 37.2504 74.15 32.4504 75.55L32.0504 75.65C31.1504 75.95 30.2004 76.1 29.3004 76.1Z" fill="white"/>
<path d="M144.151 177.65C141.851 177.65 139.601 177 137.651 175.8L112.851 161.05C110.301 161 107.751 160.8 105.301 160.45L104.851 160.4C104.151 160.3 103.501 160.05 102.951 159.7L102.601 159.45C100.301 157.9 97.3506 156.35 94.5006 154.8C88.1006 151.35 81.0006 147.55 77.7506 142.15C75.5006 142.75 73.0006 143.1 70.3006 143.1C68.1006 143.1 64.8506 142.4 61.7506 139.1C55.4506 132.3 52.6506 116.6 53.1006 108C52.9506 106.5 52.8506 104.9 52.8506 103.05C52.8506 71 80.5506 44.95 114.651 44.95C148.751 44.95 176.401 71 176.401 103.05C176.401 120.25 168.501 136.25 154.651 147.3L156.651 163.5C157.251 168.35 155.051 173.05 150.951 175.65C148.901 177 146.551 177.65 144.151 177.65ZM108.351 148.1C110.401 148.3 112.501 148.45 114.601 148.45H115.101C115.901 148.45 116.701 148.65 117.401 149.1L144.001 164.9L141.451 144.15C141.251 142.5 141.951 140.85 143.351 139.9L144.251 139.25C156.601 130.6 163.701 117.4 163.701 103.05C163.701 78.05 141.701 57.65 114.601 57.65C87.5006 57.65 65.5006 78 65.5006 103.05C65.5006 104.6 65.5506 105.9 65.7006 107.05V107.25C65.7506 107.55 65.7506 107.8 65.7006 108.1V108.3C65.0506 117.1 68.7506 128 70.9006 130.4C73.9006 130.3 75.5006 129.6 76.2506 129.05C76.2506 128.9 76.3006 128.75 76.3506 128.6C77.5006 122.4 81.6006 121.75 83.2506 121.75C87.3506 121.75 89.8006 125.25 89.8006 128.65C89.8006 130.25 89.3506 132 88.5506 133.65C88.5006 134.25 88.5006 134.9 88.5006 135.65C89.3006 137.75 96.7506 141.75 100.351 143.65C103.151 145.05 105.851 146.55 108.351 148.1Z" fill="white"/>
<path fill-rule="evenodd" clip-rule="evenodd" d="M59.9002 183.85C57.0002 183.85 54.2002 182.6 52.2502 180.4C50.3502 178.25 49.4002 175.4 49.7502 172.55C49.7502 172.5 49.7502 172.5 50.9502 163.25C42.1502 155.85 37.2002 145.4 37.2002 134.1C37.2002 121.05 44.0002 108.95 55.3502 101.7C62.2502 97.25 70.3502 94.85 78.7502 94.85C95.0002 94.85 109.85 103.85 116.6 117.8C116.75 118.1 116.9 118.4 117 118.7C119.2 123.6 120.35 128.8 120.35 134.1C120.35 142.9 117.15 151.5 111.35 158.4L111.3 158.45C103.85 167.45 92.7002 172.8 80.5502 173.3L65.1502 182.45C63.5502 183.35 61.7502 183.85 59.9002 183.85Z" fill="white"/>
<path d="M195.1 62.65C195.3 62.05 195.35 61.5 195.25 61C195.15 60.45 194.85 60 194.35 59.6C193.9 59.2 193.35 58.85 192.6 58.6C191.65 58.25 190.65 58.15 189.6 58.35C188.55 58.5 187.6 58.9 186.7 59.6L184.45 55.85C185.5 55.25 186.5 54.8 187.55 54.5C188.6 54.2 189.65 54.05 190.75 54.1C191.85 54.1 193.05 54.35 194.25 54.75C195.25 55.1 196.2 55.6 197 56.25C197.85 56.9 198.55 57.6 199.1 58.5C199.65 59.35 200 60.25 200.1 61.25C200.25 62.25 200.15 63.3 199.8 64.35C199.35 65.6 198.65 66.6 197.65 67.3C196.7 68 195.6 68.5 194.35 68.7C193.15 68.9 191.95 68.9 190.75 68.7L189.7 71.25L185.9 69.9L187.2 64.15L188.2 64.5C189.45 64.95 190.55 65.1 191.5 65C192.45 64.85 193.25 64.6 193.85 64.15C194.5 63.65 194.9 63.15 195.1 62.65ZM183.4 73.95C183.65 73.25 184.15 72.75 184.85 72.45C185.6 72.15 186.4 72.1 187.25 72.4C188.1 72.7 188.7 73.2 189.05 73.9C189.45 74.6 189.5 75.3 189.25 76C189 76.7 188.5 77.2 187.75 77.55C187.05 77.85 186.25 77.85 185.4 77.55C184.55 77.25 183.95 76.75 183.55 76.05C183.2 75.4 183.15 74.65 183.4 73.95Z" fill="#9E9E9E"/>
<path d="M183 183.2C183 185.2 181.35 186.85 179.35 186.85C177.35 186.85 175.7 185.2 175.7 183.2C175.7 181.2 177.35 179.55 179.35 179.55C181.4 179.55 183 181.2 183 183.2Z" fill="#9E9E9E"/>
<path fill-rule="evenodd" clip-rule="evenodd" d="M172.05 103.05C172.05 73.25 146.25 49.35 114.6 49.35C82.9504 49.35 57.1504 73.3 57.1504 103.05C57.1504 104.3 57.2004 105.55 57.3004 106.85C57.4004 108.1 57.6004 109.7 57.9004 111.35C58.7004 110.7 59.5504 110.1 60.4504 109.55C65.7004 106.1 72.0504 104.15 78.9504 104.15C92.2504 104.15 103.55 111.5 108.65 122C108.75 122.2 108.85 122.45 108.95 122.65C110.6 126.25 111.5 130.25 111.5 134.4C111.5 141.35 108.95 147.8 104.55 152.95L104.5 153C103.75 153.9 103 154.7 102.15 155.5C106.55 156.3 110.05 156.6 112.1 156.7C112.75 156.7 113.35 156.75 114 156.75L139.85 172.1C145.75 175.65 153.1 170.85 152.25 164L149.95 145.35C163.35 135.55 172.05 120.3 172.05 103.05ZM146.75 142.8C146.15 143.2 145.85 143.95 145.9 144.65L148.35 164.5C148.8 168.1 144.95 170.55 141.95 168.7L115.65 153.05C115.35 152.85 115 152.75 114.65 152.75C113.05 152.75 111.45 152.7 109.9 152.55C113.5 147.3 115.6 141 115.6 134.3C115.6 129.55 114.55 125 112.7 120.9C112.6 120.65 112.45 120.4 112.35 120.15C106.6 108.25 93.8004 100.05 79.0504 100.05C72.6004 100.05 66.5004 101.6 61.2004 104.4C61.2004 103.95 61.2004 103.45 61.2004 102.95C61.2004 75.6 85.0004 53.2 114.65 53.2C144.3 53.2 168.1 75.6 168.1 102.95C168.05 119.3 159.7 133.7 146.75 142.8Z" fill="#221F1F"/>
<path d="M147.9 144.4L150.35 164.25C151 169.45 145.4 173.1 140.95 170.4L114.65 154.75C111.75 154.75 108.95 154.55 106.15 154.2C99.5004 144.5 93.5004 141.45 93.5004 134C93.5004 116.15 66.0004 116 59.4004 107.8C59.2004 106.25 59.1504 104.65 59.1504 103.05C59.1504 74.5 83.9504 51.3 114.6 51.3C145.25 51.3 170.05 74.5 170.05 103.05C170.05 120 161.3 135 147.9 144.4Z" fill="#E56F4E"/>
<path d="M122.55 51.85C119.95 51.5 117.3 51.3 114.6 51.3C83.9504 51.3 59.1504 74.45 59.1504 103.05C59.1504 104.7 59.2004 106.25 59.4004 107.8C63.9504 104.8 69.3004 102.9 75.1004 102.3C75.5004 76.6 95.9504 55.4 122.55 51.85Z" fill="#C25E42"/>
<path d="M33.7508 83.4C31.5008 83.4 29.4509 81.9 28.8509 79.7C28.0508 77 29.6008 74.15 32.3508 73.35C32.8008 73.2 33.3008 73.15 33.8008 73.15C36.0508 73.15 38.1009 74.65 38.7009 76.85C39.1009 78.15 38.9508 79.55 38.3008 80.75C37.6509 81.95 36.5508 82.8 35.2508 83.2C34.7008 83.35 34.2508 83.4 33.7508 83.4ZM29.3008 70.6C27.5508 70.6 26.0008 69.55 25.3008 67.9L20.7508 56.65C20.3008 55.55 20.3509 54.25 20.8509 53.15C21.4009 52.05 22.3508 51.25 23.5008 50.9L26.2509 50.1C26.6509 50 27.0509 49.95 27.4509 49.95C29.5009 49.95 31.3008 51.45 31.6508 53.45L33.8508 65.4C34.2508 67.6 32.9508 69.7 30.8509 70.3L30.4509 70.4C30.1009 70.55 29.7008 70.6 29.3008 70.6Z" fill="white"/>
<path d="M87.9 23.95C87.9 26.15 86.15 27.9 83.95 27.9C81.75 27.9 80 26.15 80 23.95C80 21.75 81.75 20 83.95 20C86.15 20 87.9 21.75 87.9 23.95Z" fill="#9E9E9E"/>
<path fill-rule="evenodd" clip-rule="evenodd" d="M39.6004 76.55C40.5504 79.8 38.7004 83.15 35.4504 84.1C32.2004 85.05 28.8504 83.2 27.9004 79.95C26.9504 76.7 28.8004 73.35 32.0504 72.4C35.2504 71.5 38.6504 73.35 39.6004 76.55ZM34.4004 80.5C35.6004 80.15 36.3004 78.9 35.9504 77.65C35.6004 76.45 34.3504 75.75 33.1004 76.1C31.9004 76.45 31.2004 77.7 31.5504 78.95C31.9004 80.15 33.2004 80.85 34.4004 80.5Z" fill="#221F1F"/>
<path fill-rule="evenodd" clip-rule="evenodd" d="M28.9 54C28.75 53.15 27.9 52.6 27.05 52.85L24.3 53.65C23.45 53.9 23.05 54.8 23.35 55.6L27.9 66.85C28.2 67.55 28.95 67.9 29.65 67.7L30.05 67.6C30.75 67.4 31.2 66.65 31.1 65.95L28.9 54ZM24.4 68.3L19.85 57.05C18.65 54.15 20.25 50.9 23.25 50L26 49.2C29 48.3 32.1 50.25 32.65 53.3L34.8499 65.25C35.3499 67.9 33.75 70.5 31.15 71.25L30.75 71.35C28.2 72.1 25.45 70.8 24.4 68.3Z" fill="#221F1F"/>
<path d="M144.151 173.15C142.701 173.15 141.251 172.75 139.951 171.95L114.101 156.6C111.301 156.6 108.551 156.4 105.901 156L105.451 155.95L105.101 155.7C102.651 154.05 99.5508 152.4 96.6008 150.8C88.8008 146.65 80.7508 142.3 80.4008 136.1C77.8008 137.7 74.4008 138.55 70.2508 138.55C68.3508 138.55 66.6008 137.7 65.0008 135.95C59.7008 130.25 57.0508 115.55 57.5508 107.8C57.4008 106.35 57.3008 104.8 57.3008 103C57.3008 73.45 83.0008 49.4 114.601 49.4C146.201 49.4 171.901 73.45 171.901 103C171.901 119.7 163.901 135 149.851 145.25L152.151 164C152.551 167.15 151.101 170.15 148.501 171.85C147.151 172.75 145.651 173.15 144.151 173.15ZM106.801 152.45C109.351 152.8 111.951 152.95 114.601 152.95H115.101L141.851 168.85C143.351 169.75 145.051 169.7 146.501 168.8C147.951 167.85 148.701 166.25 148.501 164.5L145.901 143.55L146.801 142.9C160.401 133.4 168.151 118.85 168.151 103.05C168.151 75.55 144.101 53.15 114.551 53.15C85.0008 53.15 60.9508 75.55 60.9508 103.05C60.9508 104.8 61.0508 106.25 61.2008 107.6V107.8V108C60.5508 117.3 64.2008 129.85 67.6508 133.55C68.5008 134.5 69.3508 134.95 70.2008 134.95C75.8508 134.95 78.7008 133.2 80.1008 131.75C80.3008 131.55 80.4508 131.4 80.5508 131.2C80.6008 130.55 80.7008 130 80.8008 129.5C81.0008 128.55 81.4008 126.3 83.3008 126.3C84.3008 126.3 85.3508 127.05 85.3508 128.7C85.3508 129.65 85.0008 131.05 84.1508 132.45C84.1008 133.35 84.0508 134.45 84.0508 135.8C84.0508 140 91.6008 144.05 98.3008 147.65C101.251 149.15 104.251 150.75 106.801 152.45Z" fill="#221F1F"/>
<path fill-rule="evenodd" clip-rule="evenodd" d="M59.9002 179.35C58.3002 179.35 56.7002 178.65 55.6502 177.45C54.6002 176.25 54.1002 174.65 54.2502 173.05C54.2502 173 55.7502 161.3 55.7502 161.3C46.8002 154.75 41.7002 144.9 41.7002 134.15C41.7002 122.65 47.7002 111.95 57.8002 105.5C63.9502 101.5 71.2002 99.4 78.7502 99.4C93.3002 99.4 106.55 107.4 112.55 119.8C112.65 120.05 112.8 120.3 112.9 120.55C114.85 124.85 115.85 129.4 115.85 134.1C115.85 141.85 113 149.45 107.9 155.5C107.9 155.5 107.9 155.55 107.85 155.55C101 163.85 90.5502 168.7 79.2502 168.8L62.8502 178.55C61.9502 179.05 60.9502 179.35 59.9002 179.35Z" fill="#221F1F"/>
<path fill-rule="evenodd" clip-rule="evenodd" d="M57.9004 173.45C57.7004 175.1 59.5504 176.2 60.8504 175.4H60.9004L77.7004 165.4C78.0004 165.2 78.3504 165.1 78.7504 165.1C89.4504 165.1 99.0004 160.4 104.95 153.2L105 153.15C109.45 147.9 112.1 141.25 112.1 134.15C112.1 129.9 111.2 125.8 109.5 122.1C109.4 121.85 109.3 121.65 109.2 121.4C104 110.65 92.4004 103.1 78.7504 103.1C71.6504 103.1 65.1504 105.1 59.8004 108.65C51.0504 114.25 45.4004 123.6 45.4004 134.15C45.4004 144.25 50.5504 153.25 58.7004 158.85C59.3004 159.3 59.6504 160.05 59.5504 160.8L57.9004 173.45Z" fill="white"/>
<path d="M69.6506 136.7C69.6506 138.45 68.2506 139.85 66.5006 139.85C64.7506 139.85 63.3506 138.45 63.3506 136.7C63.3506 134.95 64.7506 133.55 66.5006 133.55C68.2506 133.6 69.6506 135 69.6506 136.7Z" fill="#221F1F"/>
<path d="M81.9006 136.7C81.9006 138.45 80.5006 139.85 78.7506 139.85C77.0006 139.85 75.6006 138.45 75.6006 136.7C75.6006 134.95 77.0006 133.55 78.7506 133.55C80.5006 133.6 81.9006 135 81.9006 136.7Z" fill="#221F1F"/>
<path d="M94.1008 136.7C94.1008 138.45 92.7008 139.85 90.9508 139.85C89.2008 139.85 87.8008 138.45 87.8008 136.7C87.8008 134.95 89.2008 133.55 90.9508 133.55C92.7008 133.6 94.1008 135 94.1008 136.7Z" fill="#221F1F"/>
</svg>
