<svg width="165" height="165" viewBox="0 0 165 165" fill="none" xmlns="http://www.w3.org/2000/svg">
<path d="M87.5256 146.962C120.311 146.962 146.888 120.351 146.888 87.5249C146.888 54.6985 120.311 28.0874 87.5256 28.0874C54.7406 28.0874 28.1631 54.6985 28.1631 87.5249C28.1631 120.351 54.7406 146.962 87.5256 146.962Z" fill="white"/>
<path d="M87.5254 148.387C54.0379 148.387 26.7754 121.087 26.7754 87.5623C26.7754 54.0373 54.0379 26.7373 87.5254 26.7373C121.013 26.7373 148.275 54.0373 148.275 87.5623C148.275 121.087 121.013 148.387 87.5254 148.387ZM87.5254 29.4748C55.5754 29.4748 29.5504 55.5373 29.5504 87.5248C29.5504 119.512 55.5379 145.575 87.5254 145.575C119.513 145.575 145.5 119.55 145.5 87.5248C145.5 55.4998 119.513 29.4748 87.5254 29.4748Z" fill="#221F1F"/>
<path d="M87.5252 135.675C114.076 135.675 135.6 114.117 135.6 87.5248C135.6 60.9322 114.076 39.3748 87.5252 39.3748C60.9741 39.3748 39.4502 60.9322 39.4502 87.5248C39.4502 114.117 60.9741 135.675 87.5252 135.675Z" fill="white"/>
<path d="M87.525 137.062C60.2625 137.062 38.0625 114.862 38.0625 87.5248C38.0625 60.1873 60.2625 37.9873 87.525 37.9873C114.787 37.9873 136.987 60.1873 136.987 87.5248C136.987 114.862 114.787 137.062 87.525 137.062ZM87.525 40.7998C61.8 40.7998 40.8375 61.7623 40.8375 87.5623C40.8375 113.362 61.7625 134.325 87.525 134.325C113.287 134.325 134.212 113.362 134.212 87.5623C134.212 61.7623 113.25 40.7998 87.525 40.7998Z" fill="#221F1F"/>
<path d="M97.9881 89.7749L80.0631 122.812L77.1006 85.3124L95.0256 52.2749L97.9881 89.7749Z" fill="white"/>
<path d="M80.0629 124.2C79.9504 124.2 79.8754 124.2 79.7629 124.162C79.1629 124.05 78.7129 123.525 78.6754 122.925L75.7129 85.4248C75.6754 85.1623 75.7504 84.8998 75.8629 84.6373L93.7879 51.5998C94.0879 51.0748 94.6879 50.7748 95.2879 50.8873C95.8879 50.9998 96.3379 51.5248 96.3754 52.1248L99.3379 89.6248C99.3754 89.8873 99.3004 90.1498 99.1879 90.4123L81.2629 123.45C81.0379 123.937 80.5504 124.2 80.0629 124.2ZM78.4879 85.6123L81.0379 118.05L96.5629 89.4748L94.0129 57.0373L78.4879 85.6123Z" fill="#221F1F"/>
<path d="M64.8756 75.8249C64.5381 75.8249 64.1631 75.6749 63.9006 75.4124L54.3006 65.8124C53.8881 65.3999 53.7756 64.7999 54.0006 64.3124C54.2256 63.7874 54.7131 63.4499 55.2756 63.4499H71.0631L63.8631 56.2124C63.3381 55.6874 63.3381 54.7874 63.8631 54.2624C64.3881 53.7374 65.2881 53.7374 65.8131 54.2624L75.4132 63.8624C75.8256 64.2749 75.9381 64.8749 75.7131 65.3624C75.4881 65.8874 75.0006 66.2249 74.4381 66.2249H58.6506L65.8506 73.4624C66.3756 73.9874 66.3756 74.8874 65.8506 75.4124C65.5882 75.6749 65.2131 75.8249 64.8756 75.8249Z" fill="#221F1F"/>
<path d="M97.9877 91.1624C97.8752 91.1624 97.8002 91.1624 97.6877 91.1249L76.8002 86.6624C76.0502 86.5124 75.5627 85.7624 75.7502 85.0124C75.9002 84.2624 76.6502 83.7749 77.4002 83.9624L98.2877 88.4249C99.0377 88.5749 99.5252 89.3249 99.3377 90.0749C99.1877 90.7124 98.6252 91.1624 97.9877 91.1624Z" fill="#221F1F"/>
<path d="M34.1633 17.9998C25.3133 17.9998 18.1133 25.1998 18.1133 34.0873C18.1133 42.9748 25.3133 50.1748 34.1633 50.1748C43.0133 50.1748 50.2133 42.9748 50.2133 34.0873C50.2133 25.1998 43.0133 17.9998 34.1633 17.9998ZM34.1633 42.2248C29.7383 42.2248 26.1383 38.5873 26.1383 34.0873C26.1383 29.5873 29.7383 25.9498 34.1633 25.9498C38.5883 25.9498 42.1883 29.5873 42.1883 34.0873C42.1883 38.5873 38.5883 42.2248 34.1633 42.2248Z" fill="white"/>
<path d="M34.1631 51.5623C24.5631 51.5623 16.7256 43.7248 16.7256 34.0873C16.7256 24.4498 24.5631 16.6123 34.1631 16.6123C43.7631 16.6123 51.6006 24.4498 51.6006 34.0873C51.6006 43.7248 43.7631 51.5623 34.1631 51.5623ZM34.1631 19.3873C26.0631 19.3873 19.5006 25.9873 19.5006 34.0873C19.5006 42.1873 26.0631 48.7873 34.1631 48.7873C42.2631 48.7873 48.8256 42.1873 48.8256 34.0873C48.8256 25.9873 42.2631 19.3873 34.1631 19.3873ZM34.1631 43.6123C28.9506 43.6123 24.7506 39.3373 24.7506 34.0873C24.7506 28.8373 28.9881 24.5623 34.1631 24.5623C39.3381 24.5623 43.5756 28.8373 43.5756 34.0873C43.5756 39.3373 39.3756 43.6123 34.1631 43.6123ZM34.1631 27.3373C30.4881 27.3373 27.5256 30.3748 27.5256 34.0873C27.5256 37.7998 30.5256 40.8373 34.1631 40.8373C37.8381 40.8373 40.8006 37.7998 40.8006 34.0873C40.8006 30.3748 37.8381 27.3373 34.1631 27.3373Z" fill="#221F1F"/>
</svg>
