<svg width="165" height="165" viewBox="0 0 165 165" fill="none" xmlns="http://www.w3.org/2000/svg">
<path d="M87.5246 151.763C52.1621 151.763 23.3996 122.963 23.3996 87.5625C23.3996 75.9 26.4746 64.725 32.3621 54.8625C21.7121 53.9625 13.3496 44.9625 13.3496 34.0875C13.3496 22.575 22.6871 13.2375 34.1621 13.2375C45.0371 13.2375 53.9996 21.6375 54.8996 32.325C64.7621 26.4375 75.8996 23.3625 87.5246 23.3625C122.887 23.3625 151.65 52.1625 151.65 87.5625C151.65 122.963 122.887 151.763 87.5246 151.763ZM34.1621 30.7125C32.3621 30.7125 30.8996 32.2125 30.8996 34.0875C30.8996 35.925 32.3996 37.4626 34.1621 37.4626C35.9621 37.4626 37.4246 35.9625 37.4246 34.0875C37.4246 32.2125 35.9621 30.7125 34.1621 30.7125Z" fill="white"/>
<path d="M87.5246 146.963C120.31 146.963 146.887 120.351 146.887 87.525C146.887 54.6986 120.31 28.0875 87.5246 28.0875C54.7396 28.0875 28.1621 54.6986 28.1621 87.525C28.1621 120.351 54.7396 146.963 87.5246 146.963Z" fill="#FCD26E"/>
<path d="M87.5244 148.388C54.0369 148.388 26.7744 121.088 26.7744 87.5625C26.7744 54.0375 54.0369 26.7375 87.5244 26.7375C121.012 26.7375 148.274 54.0375 148.274 87.5625C148.274 121.088 121.012 148.388 87.5244 148.388ZM87.5244 29.475C55.5744 29.475 29.5494 55.5375 29.5494 87.525C29.5494 119.513 55.5369 145.575 87.5244 145.575C119.512 145.575 145.499 119.55 145.499 87.525C145.499 55.5 119.512 29.475 87.5244 29.475Z" fill="#221F1F"/>
<path d="M87.5252 135.675C114.076 135.675 135.6 114.118 135.6 87.525C135.6 60.9325 114.076 39.375 87.5252 39.375C60.9741 39.375 39.4502 60.9325 39.4502 87.525C39.4502 114.118 60.9741 135.675 87.5252 135.675Z" fill="white"/>
<path d="M87.525 137.063C60.2625 137.063 38.0625 114.863 38.0625 87.525C38.0625 60.1875 60.2625 37.9875 87.525 37.9875C114.787 37.9875 136.987 60.1875 136.987 87.525C136.987 114.863 114.787 137.063 87.525 137.063ZM87.525 40.8C61.8 40.8 40.8375 61.7625 40.8375 87.5625C40.8375 113.363 61.7625 134.325 87.525 134.325C113.287 134.325 134.212 113.363 134.212 87.5625C134.212 61.7625 113.25 40.8 87.525 40.8Z" fill="#221F1F"/>
<path d="M81.7873 51.825C108.337 51.825 129.862 73.3876 129.862 99.9751C129.862 103.05 129.562 106.05 129.037 108.938C132.337 102.525 134.212 95.25 134.212 87.5625C134.212 61.8 113.287 40.8 87.5248 40.8C68.0623 40.8 51.3748 52.8001 44.3623 69.7875C53.1748 58.8375 66.6748 51.825 81.7873 51.825Z" fill="#CAE5FF"/>
<path d="M97.9871 89.775L80.0621 122.813L77.0996 85.3125L95.0246 52.275L97.9871 89.775Z" fill="#979797"/>
<path d="M80.0619 124.2C79.9494 124.2 79.8744 124.2 79.7619 124.163C79.1619 124.05 78.7119 123.525 78.6744 122.925L75.7119 85.425C75.6744 85.1625 75.7494 84.9 75.8619 84.6375L93.7869 51.6C94.0869 51.075 94.6869 50.775 95.2869 50.8875C95.8869 51 96.3369 51.525 96.3744 52.125L99.3369 89.625C99.3744 89.8875 99.2994 90.15 99.1869 90.4125L81.2619 123.45C81.0369 123.938 80.5494 124.2 80.0619 124.2ZM78.4869 85.6125L81.0369 118.05L96.5619 89.475L94.0119 57.0375L78.4869 85.6125Z" fill="#221F1F"/>
<path d="M64.8747 75.825C64.5372 75.825 64.1622 75.675 63.8997 75.4125L54.2997 65.8125C53.8872 65.4 53.7747 64.8 53.9997 64.3125C54.2247 63.7875 54.7122 63.45 55.2747 63.45H71.0622L63.8622 56.2125C63.3372 55.6875 63.3372 54.7875 63.8622 54.2625C64.3872 53.7375 65.2872 53.7375 65.8122 54.2625L75.4122 63.8625C75.8247 64.275 75.9372 64.875 75.7122 65.3625C75.4872 65.8875 74.9997 66.225 74.4372 66.225H58.6497L65.8497 73.4625C66.3747 73.9875 66.3747 74.8875 65.8497 75.4125C65.5872 75.675 65.2122 75.825 64.8747 75.825Z" fill="#221F1F"/>
<path d="M97.9871 89.7751L77.0996 85.3126L80.0621 122.813L97.9871 89.7751Z" fill="#D88C7D"/>
<path d="M80.0618 124.2C79.9493 124.2 79.8743 124.2 79.7618 124.163C79.1618 124.05 78.7118 123.525 78.6743 122.925L75.7118 85.4251C75.6743 84.9751 75.8618 84.5626 76.1618 84.2626C76.4993 83.9626 76.9493 83.8501 77.3618 83.9626L98.2493 88.4251C98.6618 88.5001 99.0368 88.8001 99.2243 89.2126C99.4118 89.6251 99.3743 90.0751 99.1868 90.4501L81.2618 123.488C81.0368 123.938 80.5493 124.2 80.0618 124.2ZM78.5993 87.0751L81.0368 118.05L95.8493 90.7501L78.5993 87.0751Z" fill="#221F1F"/>
<path d="M34.1623 18C25.3123 18 18.1123 25.2 18.1123 34.0875C18.1123 42.975 25.3123 50.175 34.1623 50.175C43.0123 50.175 50.2123 42.975 50.2123 34.0875C50.2123 25.2 43.0123 18 34.1623 18ZM34.1623 42.225C29.7373 42.225 26.1373 38.5875 26.1373 34.0875C26.1373 29.5875 29.7373 25.95 34.1623 25.95C38.5873 25.95 42.1873 29.5875 42.1873 34.0875C42.1873 38.5875 38.5873 42.225 34.1623 42.225Z" fill="#FCD26E"/>
<path d="M34.1621 51.5625C24.5621 51.5625 16.7246 43.725 16.7246 34.0875C16.7246 24.45 24.5621 16.6125 34.1621 16.6125C43.7621 16.6125 51.5996 24.45 51.5996 34.0875C51.5996 43.725 43.7621 51.5625 34.1621 51.5625ZM34.1621 19.3875C26.0621 19.3875 19.4996 25.9875 19.4996 34.0875C19.4996 42.1875 26.0621 48.7875 34.1621 48.7875C42.2621 48.7875 48.8246 42.1875 48.8246 34.0875C48.8246 25.9875 42.2621 19.3875 34.1621 19.3875ZM34.1621 43.6125C28.9496 43.6125 24.7496 39.3375 24.7496 34.0875C24.7496 28.8375 28.9871 24.5625 34.1621 24.5625C39.3371 24.5625 43.5746 28.8375 43.5746 34.0875C43.5746 39.3375 39.3746 43.6125 34.1621 43.6125ZM34.1621 27.3375C30.4871 27.3375 27.5246 30.375 27.5246 34.0875C27.5246 37.8 30.5246 40.8375 34.1621 40.8375C37.8371 40.8375 40.7996 37.8 40.7996 34.0875C40.7996 30.375 37.8371 27.3375 34.1621 27.3375Z" fill="#221F1F"/>
</svg>
