<svg width="220" height="220" viewBox="0 0 220 220" fill="none" xmlns="http://www.w3.org/2000/svg">
<path fill-rule="evenodd" clip-rule="evenodd" d="M108.4 68.85C103.6 68.85 99.3498 65.65 97.9998 61.05C97.1998 58.25 97.4998 55.35 98.8998 52.8C100.3 50.25 102.6 48.4 105.35 47.6C106.35 47.3 107.35 47.15 108.4 47.15C113.2 47.15 117.45 50.35 118.8 54.95C120.5 60.7 117.2 66.75 111.45 68.4C110.45 68.7 109.4 68.85 108.4 68.85Z" fill="white"/>
<path fill-rule="evenodd" clip-rule="evenodd" d="M103.75 55.5C99.65 55.5 96.05 53.05 94.5 49.25L89.75 37.55C88.7 35 88.75 32 90 29.5C91.25 26.95 93.5 25.05 96.2 24.25L99.05 23.4C99.95 23.15 100.9 23 101.85 23C106.65 23 110.8 26.45 111.65 31.15L113.95 43.55C114.9 48.6 111.85 53.5 106.95 54.95L106.55 55.05C105.65 55.4 104.7 55.5 103.75 55.5Z" fill="white"/>
<path d="M130.85 196.4C132.23 196.4 133.35 195.281 133.35 193.9C133.35 192.519 132.23 191.4 130.85 191.4C129.469 191.4 128.35 192.519 128.35 193.9C128.35 195.281 129.469 196.4 130.85 196.4Z" fill="#9E9E9E"/>
<path d="M68.0496 172.15C65.6496 172.15 63.2496 171.35 61.3496 169.85L37.0496 150.85C34.7496 149.05 33.2996 146.45 32.9496 143.55C32.5996 140.65 33.3996 137.8 35.1996 135.5L40.4996 128.75C35.0496 115.25 36.5496 100.75 44.6996 90.35C44.7496 90.3 44.7496 90.25 44.7996 90.25C44.8496 90.2 44.8496 90.15 44.8996 90.1C48.5996 85.35 54.2496 82.6 60.2996 82.6C61.2496 82.6 62.1996 82.65 63.1496 82.8L65.3996 79.95C70.5996 73.25 78.1496 69 86.5496 68C87.8496 67.85 89.1496 67.75 90.4496 67.75C97.5496 67.75 104.3 70.1 109.95 74.5L110 74.55L110.25 74.35C115.9 69.95 122.65 67.65 129.8 67.65C139.65 67.65 148.8 72.1 154.85 79.85L157.1 82.7C158.05 82.55 159 82.5 159.95 82.5C166 82.5 171.65 85.25 175.35 90C175.4 90.05 175.4 90.1 175.45 90.15C175.5 90.2 175.5 90.25 175.55 90.25C183.7 100.65 185.2 115.15 179.75 128.65L185.05 135.4C186.85 137.7 187.65 140.55 187.3 143.45C186.95 146.35 185.5 148.95 183.2 150.75L158.9 169.75C156.95 171.25 154.65 172.05 152.2 172.05C151.75 172.05 151.3 172 150.85 171.95C147.95 171.6 145.35 170.15 143.55 167.85L137.5 160.1C136.1 160.25 134.7 160.3 133.3 160.3C124.65 160.3 116.6 157.75 110.2 153C103.75 157.85 95.6496 160.45 86.8996 160.45C85.4996 160.45 84.0996 160.4 82.6996 160.25L76.6496 168C74.5496 170.65 71.4496 172.15 68.0496 172.15ZM67.7496 158.75L74.9496 149.55C76.1496 148 77.9996 147.1 79.9496 147.1C80.2996 147.1 80.6996 147.15 81.0496 147.2C82.9996 147.55 84.9496 147.7 86.8496 147.7C92.2496 147.7 97.2496 146.3 101.3 143.65L90.5996 130C79.7996 116.2 82.2496 96.2 96.0496 85.4L99.4496 82.75C96.6996 81.25 93.5996 80.45 90.3996 80.45C89.5996 80.45 88.7996 80.5 88.0496 80.6C82.9996 81.2 78.4996 83.75 75.3496 87.8L70.4996 94C69.2996 95.55 67.4496 96.45 65.4996 96.45C64.5996 96.45 63.7496 96.25 62.9496 95.9C62.0996 95.5 61.1496 95.35 60.1996 95.35C58.0996 95.35 56.1996 96.25 54.8996 97.85C54.8496 97.9 54.7496 98.1 54.6996 98.1C54.5996 98.2 54.5496 98.25 54.4996 98.35C48.6996 105.85 48.2996 116.75 53.4496 126.8C54.5496 129 54.2996 131.65 52.7996 133.6L46.2496 142L67.7496 158.75ZM140.2 147C142.15 147 144 147.9 145.2 149.45L152.4 158.65L173.9 141.85L167.35 133.45C165.85 131.5 165.6 128.85 166.7 126.65C171.85 116.6 171.4 105.75 165.65 98.2C165.6 98.15 165.55 98.1 165.5 98C165.45 97.95 165.45 97.95 165.4 97.9C165.35 97.8 165.3 97.75 165.25 97.7C163.95 96.1 162 95.2 159.95 95.2C159 95.2 158.1 95.4 157.2 95.75C156.4 96.1 155.55 96.3 154.65 96.3C152.7 96.3 150.85 95.4 149.65 93.85L144.8 87.65C141.15 83 135.7 80.35 129.75 80.35C126.45 80.35 123.3 81.2 120.5 82.75L124.1 85.55C137.9 96.35 140.35 116.35 129.55 130.15L119 143.65C123 146.2 127.95 147.6 133.3 147.6C135.2 147.6 137.15 147.4 139.15 147.1C139.45 147 139.8 147 140.2 147ZM103.9 95.4C99.8996 98.55 97.3496 103.05 96.7496 108.1C96.1496 113.15 97.4996 118.15 100.65 122.15L110.15 134.35L119.55 122.3C122.7 118.3 124.05 113.3 123.45 108.25C122.85 103.2 120.3 98.7 116.3 95.55L110.05 90.65L103.9 95.4Z" fill="white"/>
<path d="M108.15 142.1L162.85 100.45L149.8 83.75C141.15 72.7 125.2 70.75 114.15 79.35L99.9996 90.4C88.9496 99.05 86.9996 115 95.5996 126.05L108.15 142.1Z" fill="#F0AA97"/>
<path d="M170.5 94.15C181.75 108.55 177 131.05 159.85 144.45C142.75 157.85 119.75 157 108.5 142.6C97.2496 128.2 109.5 134.4 126.65 121C143.8 107.6 159.25 79.75 170.5 94.15Z" fill="#F0AA97"/>
<path d="M161.037 104.541C166.15 100.545 168.132 94.5369 165.463 91.1205C162.793 87.7042 156.484 88.1737 151.37 92.1692C146.257 96.1647 144.275 102.173 146.945 105.589C149.614 109.006 155.923 108.536 161.037 104.541Z" fill="#F0AA97"/>
<path d="M147.45 96.15C147.45 96.15 155.35 99.95 160.05 108.55C160.05 108.55 153.05 112.35 150.7 110.9C148.35 109.45 146.55 103.15 146.55 103.15L147.45 96.15Z" fill="#D88C7D"/>
<path d="M154.9 164.7L179.2 145.7C181.2 144.15 181.55 141.25 180 139.3L170.85 127.6L139.35 152.2L148.5 163.9C150 165.9 152.9 166.25 154.9 164.7Z" fill="#F0AA97"/>
<path d="M113.9 120.1C124.1 132.2 141.2 135.9 155.5 129.1C162.35 125.85 169.6 122.4 175.9 119.4C175.2 122.85 174 126.3 172.3 129.6C170.6 132.95 166.1 133.8 163.4 136.75C161.65 138.65 158.2 141.05 156.1 142.7C155.4 143.25 158.45 145.55 157.75 146.05C140.9 157.75 119.3 156.4 108.55 142.6C108.4 142.45 108.3 142.3 108.2 142.15L95.65 126.1C88.85 117.35 88.6 105.6 94.25 96.75L113.9 120.1Z" fill="#D88C7D"/>
<path d="M156.4 138.85L168.1 154.4L154.9 164.7C152.9 166.25 150.05 165.9 148.5 163.9L139.35 152.2L156.4 138.85Z" fill="#D88C7D"/>
<path d="M154.3 112.35C152.85 112.35 151.4 112 150.05 111.3C147.65 110.05 145.95 107.8 145.4 105.2C144.2 99.7 146.3 93.85 150.75 90.4C157.15 85.4 166.5 86.5 171.5 92.95C172.05 93.65 171.9 94.6 171.25 95.15C170.55 95.7 169.6 95.55 169.05 94.9C165.1 89.85 157.75 88.95 152.7 92.9C149.2 95.65 147.55 100.2 148.5 104.55C148.85 106.25 150 107.7 151.55 108.55C153.1 109.35 154.9 109.45 156.5 108.8C157.85 108.25 159.3 107.35 160.8 106.2C161.5 105.65 162.45 105.8 163 106.45C163.55 107.15 163.4 108.1 162.75 108.65C161.05 110 159.35 111 157.7 111.65C156.6 112.1 155.45 112.35 154.3 112.35Z" fill="#221F1F"/>
<path d="M152.05 167.25C150.2 167.25 148.4 166.45 147.2 164.9L139.5 155.05C126.45 157.05 114.45 152.8 107.2 143.55C107.1 143.45 107.05 143.35 106.95 143.25L106.9 143.2C106.85 143.15 106.85 143.15 106.8 143.1L94.2495 127.05C85.0995 115.3 87.1995 98.35 98.8995 89.15L113.05 78.1C124.8 68.95 141.75 71.05 150.95 82.75L155.05 88C160.95 86 167.549 87.9 171.45 92.9C171.5 92.95 171.5 93 171.55 93.05C171.6 93.1 171.599 93.1 171.649 93.15C179.249 102.9 180.15 116.65 174.05 129.3L181.1 138.35C182.1 139.65 182.55 141.25 182.35 142.9C182.15 144.55 181.35 146 180.05 147L155.75 166C154.75 166.8 153.4 167.25 152.05 167.25ZM140.2 151.75C140.7 151.75 141.15 151.95 141.45 152.35L149.7 162.95C150.2 163.6 150.9 164 151.7 164.1C152.5 164.2 153.299 164 153.899 163.5L178.2 144.5C178.85 144 179.25 143.3 179.35 142.5C179.45 141.7 179.25 140.9 178.75 140.3L171.1 130.5C170.7 130 170.649 129.35 170.95 128.8C176.95 117.05 176.35 104.15 169.3 95.15C169.25 95.1 169.2 95.05 169.2 95C169.149 94.95 169.1 94.9 169.1 94.85C165.85 90.7 160.15 89.25 155.3 91.35C154.65 91.65 153.899 91.45 153.45 90.9L148.6 84.7C140.5 74.35 125.5 72.5 115.15 80.6L101 91.65C90.6495 99.75 88.7995 114.75 96.8995 125.1L109.35 141.05C109.4 141.1 109.4 141.1 109.45 141.15L109.8 141.6C116.45 150.15 127.75 153.95 140 151.75C140 151.75 140.1 151.75 140.2 151.75Z" fill="#221F1F"/>
<path d="M115.549 131.4C114.899 131.4 114.299 131.35 113.649 131.3C109.599 130.8 105.949 128.75 103.399 125.5L96.3491 116.5C95.7991 115.8 95.9491 114.85 96.5991 114.3C97.2991 113.75 98.2491 113.9 98.7991 114.55L105.849 123.55C107.849 126.1 110.749 127.75 113.999 128.15C117.249 128.55 120.449 127.65 122.999 125.65L147.199 106.7C147.899 106.15 148.849 106.3 149.399 106.95C149.949 107.6 149.799 108.6 149.149 109.15L124.999 128.15C122.249 130.25 118.949 131.4 115.549 131.4Z" fill="#221F1F"/>
<path d="M147.499 150.45C147.049 150.45 146.549 150.25 146.249 149.85C145.699 149.15 145.849 148.2 146.499 147.65L171.299 128.3C172 127.75 172.949 127.9 173.499 128.55C174.049 129.2 173.899 130.2 173.249 130.75L148.499 150.1C148.199 150.35 147.849 150.45 147.499 150.45Z" fill="#221F1F"/>
<path d="M161.1 160.3C160.65 160.3 160.15 160.1 159.85 159.7L149.999 147.05C149.449 146.35 149.599 145.4 150.249 144.85C150.949 144.3 151.899 144.45 152.449 145.1L162.299 157.75C162.849 158.45 162.699 159.4 162.049 159.95C161.749 160.2 161.4 160.3 161.1 160.3Z" fill="#221F1F"/>
<path d="M134.8 49.5L133.35 45.25C133.15 44.6 133.75 44 134.4 44.2L138.65 45.65L142.9 44.2C143.55 44 144.15 44.6 143.95 45.25L142.5 49.5L143.95 53.75C144.15 54.4 143.55 55 142.9 54.8L138.65 53.35L134.4 54.8C133.75 55 133.15 54.4 133.35 53.75L134.8 49.5Z" fill="#9E9E9E"/>
<path d="M102.949 183.4L101.599 179.45C101.399 178.85 101.949 178.25 102.549 178.5L106.499 179.85L110.449 178.5C111.049 178.3 111.649 178.85 111.399 179.45L110.049 183.4L111.399 187.35C111.599 187.95 111.049 188.55 110.449 188.3L106.499 186.95L102.549 188.3C101.949 188.5 101.349 187.95 101.599 187.35L102.949 183.4Z" fill="#9E9E9E"/>
<path d="M80.1496 61.55C81.1437 61.55 81.9496 60.7441 81.9496 59.75C81.9496 58.7559 81.1437 57.95 80.1496 57.95C79.1555 57.95 78.3496 58.7559 78.3496 59.75C78.3496 60.7441 79.1555 61.55 80.1496 61.55Z" fill="#9E9E9E"/>
<path fill-rule="evenodd" clip-rule="evenodd" d="M114.499 56.2C115.499 59.55 113.549 63.1 110.199 64.1C106.849 65.1 103.299 63.15 102.299 59.8C101.299 56.45 103.249 52.9 106.599 51.9C109.949 50.95 113.499 52.85 114.499 56.2ZM109.049 60.3C110.299 59.95 111.049 58.6 110.649 57.35C110.299 56.1 108.949 55.35 107.699 55.75C106.449 56.1 105.699 57.45 106.099 58.7C106.449 59.95 107.799 60.65 109.049 60.3Z" fill="#221F1F"/>
<path fill-rule="evenodd" clip-rule="evenodd" d="M103.35 32.7C103.2 31.8 102.3 31.25 101.45 31.5L98.6 32.35C97.75 32.6 97.3 33.55 97.6 34.4L102.35 46.1C102.65 46.8 103.45 47.2 104.2 47L104.6 46.9C105.35 46.7 105.8 45.95 105.65 45.15L103.35 32.7ZM98.65 47.6L93.9 35.9C92.7 32.9 94.3 29.5 97.45 28.55L100.3 27.7C103.4 26.8 106.65 28.75 107.25 31.95L109.55 44.35C110.05 47.1 108.4 49.85 105.7 50.6L105.3 50.7C102.6 51.6 99.75 50.2 98.65 47.6Z" fill="#221F1F"/>
<path d="M154.3 112.6C152.8 112.6 151.3 112.25 149.95 111.5C147.5 110.2 145.75 107.9 145.15 105.2C143.95 99.6 146.05 93.65 150.6 90.1C157.15 85 166.65 86.15 171.75 92.7C172.4 93.5 172.25 94.65 171.45 95.3C170.65 95.95 169.5 95.8 168.85 95C165 90.05 157.85 89.2 152.9 93.05C149.5 95.7 147.85 100.2 148.8 104.45C149.15 106.1 150.2 107.45 151.7 108.25C153.2 109.05 154.9 109.1 156.4 108.5C157.75 107.95 159.15 107.1 160.65 105.95C161.45 105.3 162.6 105.45 163.25 106.25C163.9 107.05 163.75 108.2 162.95 108.85C161.25 110.2 159.5 111.2 157.85 111.9C156.7 112.4 155.5 112.6 154.3 112.6Z" fill="#221F1F"/>
<path d="M152.099 167.55C151.849 167.55 151.549 167.55 151.299 167.5C149.599 167.3 148.099 166.45 146.999 165.1L139.399 155.35C126.299 157.3 114.299 153 106.999 143.75C106.899 143.65 106.849 143.55 106.749 143.45L106.699 143.4C106.649 143.35 106.649 143.35 106.599 143.3L94.0493 127.25C84.7993 115.4 86.8993 98.25 98.7493 89L112.899 77.95C124.749 68.7 141.899 70.8 151.149 82.65L155.149 87.75C161.099 85.8 167.749 87.8 171.649 92.8C171.699 92.85 171.699 92.9 171.749 92.95C171.799 93 171.799 93.05 171.849 93.05C179.499 102.85 180.449 116.65 174.399 129.35L181.349 138.25C182.399 139.6 182.849 141.3 182.649 143C182.449 144.7 181.599 146.2 180.249 147.3L155.949 166.3C154.899 167.05 153.499 167.55 152.099 167.55ZM140.199 151.5C140.749 151.5 141.299 151.75 141.649 152.2L149.899 162.8C150.349 163.35 150.999 163.75 151.699 163.85C152.399 163.95 153.149 163.75 153.699 163.3L177.999 144.3C178.549 143.85 178.949 143.2 179.049 142.5C179.149 141.8 178.949 141.05 178.499 140.5L170.849 130.7C170.399 130.15 170.349 129.35 170.649 128.7C176.599 117.05 175.999 104.25 169.049 95.35C168.999 95.3 168.949 95.25 168.949 95.2C168.899 95.1 168.849 95.05 168.799 95C165.599 90.95 160.099 89.55 155.349 91.6C154.599 91.95 153.649 91.7 153.149 91.05L148.299 84.85C140.299 74.6 125.449 72.8 115.199 80.8L101.049 91.85C90.7993 99.85 88.9993 114.7 96.9993 124.95L109.449 140.9C109.499 140.95 109.499 141 109.549 141L109.899 141.45C116.499 149.9 127.699 153.65 139.799 151.5C139.999 151.5 140.099 151.5 140.199 151.5Z" fill="#221F1F"/>
<path d="M115.55 131.7C114.9 131.7 114.25 131.65 113.6 131.6C109.45 131.1 105.75 129 103.2 125.7L96.1499 116.7C95.4999 115.9 95.6499 114.75 96.4499 114.1C97.2499 113.45 98.3999 113.6 99.0499 114.4L106.1 123.4C108.05 125.9 110.9 127.5 114.05 127.9C117.2 128.3 120.35 127.4 122.85 125.45L147.05 106.5C147.85 105.85 149 106 149.65 106.8C150.3 107.6 150.15 108.75 149.35 109.4L125.15 128.35C122.4 130.55 119.05 131.7 115.55 131.7Z" fill="#221F1F"/>
<path d="M147.499 150.7C146.949 150.7 146.399 150.45 146.049 150C145.399 149.2 145.549 148.05 146.349 147.4L171.149 128.05C171.949 127.4 173.099 127.55 173.749 128.35C174.399 129.15 174.249 130.3 173.449 130.95L148.649 150.3C148.299 150.6 147.899 150.7 147.499 150.7Z" fill="#221F1F"/>
<path d="M161.099 160.55C160.549 160.55 159.999 160.3 159.649 159.85L149.799 147.2C149.149 146.4 149.299 145.25 150.099 144.6C150.899 143.95 152.049 144.1 152.699 144.9L162.549 157.55C163.199 158.35 163.049 159.5 162.249 160.15C161.899 160.45 161.499 160.55 161.099 160.55Z" fill="#221F1F"/>
<path d="M47.7994 129.65C41.6994 117.75 41.9494 104.1 49.5994 94.3C51.6994 91.65 53.8994 90.4 56.2994 90.3C58.7494 88.75 62.1994 88.75 65.3494 90.3L70.3494 83.9C78.9994 72.85 94.9494 70.9 105.999 79.5L120.149 90.55C131.199 99.2 133.149 115.15 124.549 126.2L111.999 142.25C111.899 142.4 111.749 142.55 111.649 142.7C104.399 152 92.2494 155.6 79.9494 153.45L71.6994 164.05C70.1494 166.05 67.2494 166.4 65.2994 164.85L40.9994 145.85C38.9994 144.3 38.6494 141.4 40.1994 139.45L47.7994 129.65Z" fill="#CEE3FA"/>
<path d="M47.7994 129.65C41.6994 117.75 41.9494 104.1 49.5994 94.3C51.6994 91.65 53.8994 90.4 56.2994 90.3C58.7494 88.75 62.1994 88.75 65.3494 90.3L70.3494 83.9C71.7994 82.05 73.4994 80.45 75.2994 79.1C74.2494 81.15 73.2994 83.25 72.4994 85.45C63.4994 110.25 73.5494 137.6 95.3494 153.1C90.4994 154.3 85.2494 154.45 79.9494 153.5L71.6994 164.1C70.1494 166.1 67.2494 166.45 65.2994 164.9L40.9994 145.9C38.9994 144.35 38.6494 141.45 40.1994 139.5L47.7994 129.65Z" fill="#97BDDE"/>
<path d="M60.3992 110.55C59.9992 110.55 59.5992 110.4 59.2992 110.1C54.2992 105.35 60.4492 93.85 64.2492 89.05C64.7992 88.35 65.7492 88.25 66.4492 88.8C67.1492 89.35 67.2492 90.3 66.6992 91C62.6992 96.1 58.6992 105.2 61.4492 107.85C62.0992 108.45 62.0992 109.45 61.4992 110.05C61.2492 110.4 60.8492 110.55 60.3992 110.55Z" fill="#221F1F"/>
<path d="M69.6 146.45L79.5 154L71.65 164.05C70.1 166.05 67.2 166.4 65.25 164.85L59 159.95L69.6 146.45Z" fill="#CEE3FA"/>
<path d="M68.0498 167.4C66.7498 167.4 65.3998 167 64.2998 166.1L39.9998 147.1C38.6998 146.1 37.8998 144.65 37.6998 143C37.4998 141.35 37.9498 139.75 38.9498 138.45L45.9998 129.45C39.8998 116.8 40.7998 103.05 48.3998 93.3C48.4498 93.25 48.4498 93.2 48.4998 93.2C48.4998 93.15 48.5498 93.1 48.5998 93.05C52.4998 88.05 59.0998 86.15 64.9998 88.15L69.0998 82.9C78.2498 71.2 95.2498 69.1 107 78.25L121.15 89.3C132.9 98.45 134.95 115.45 125.8 127.2L113.25 143.25C113.25 143.3 113.2 143.3 113.15 143.35L113.1 143.4C113.05 143.5 112.95 143.6 112.9 143.7C105.7 152.95 93.6498 157.2 80.5998 155.2L72.8998 165.05C71.6998 166.6 69.8498 167.4 68.0498 167.4ZM51.0998 95C51.0498 95.05 51.0498 95.1 50.9998 95.15C50.9498 95.25 50.8998 95.25 50.8498 95.3C43.8498 104.25 43.1998 117.2 49.1998 128.95C49.4998 129.5 49.3998 130.15 49.0498 130.65L41.3998 140.45C40.8998 141.1 40.6998 141.85 40.7998 142.65C40.8998 143.45 41.2998 144.15 41.9498 144.65L66.2498 163.65C67.5498 164.65 69.4498 164.45 70.4498 163.15L78.6998 152.55C79.0498 152.1 79.6498 151.85 80.1998 151.95C92.4498 154.1 103.75 150.3 110.4 141.8C110.45 141.7 110.55 141.65 110.6 141.55L110.75 141.35C110.8 141.3 110.8 141.25 110.85 141.25L123.3 125.3C131.4 114.95 129.55 99.9 119.2 91.85L105.05 80.8C94.6999 72.7 79.6498 74.55 71.5998 84.9L66.7498 91.1C66.2998 91.65 65.5498 91.85 64.8998 91.55C59.9998 89.4 54.3498 90.8 51.0998 95Z" fill="#221F1F"/>
<path d="M78.4496 154.5C78.0996 154.5 77.7496 154.4 77.4996 154.15L52.6996 134.8C51.9996 134.25 51.8996 133.3 52.4496 132.6C52.9996 131.9 53.9496 131.8 54.6496 132.35L79.4496 151.7C80.1496 152.25 80.2496 153.2 79.6996 153.9C79.3996 154.3 78.8996 154.5 78.4496 154.5Z" fill="#221F1F"/>
<path d="M60.3993 110.85C59.9493 110.85 59.4993 110.7 59.0993 110.35C57.4993 108.8 56.0493 105.65 58.2993 99.35C59.7493 95.2 62.1993 91.25 63.9993 88.95C64.6493 88.15 65.7993 88 66.5993 88.65C67.3993 89.3 67.5493 90.45 66.8993 91.25C62.5493 96.8 59.2493 105.4 61.6493 107.7C62.3993 108.4 62.3993 109.6 61.6993 110.3C61.3993 110.65 60.8993 110.85 60.3993 110.85Z" fill="#221F1F"/>
<path d="M68.0499 167.65C66.6499 167.65 65.2999 167.2 64.0998 166.3L39.7999 147.3C38.4499 146.25 37.5999 144.7 37.3999 143C37.1999 141.3 37.6499 139.6 38.6999 138.25L45.6499 129.35C39.5999 116.65 40.5499 102.85 48.1999 93.05C48.2499 93 48.2499 92.95 48.2999 92.95C48.3499 92.9 48.3499 92.85 48.3999 92.8C52.2999 87.8 58.9499 85.8 64.8999 87.75L68.8999 82.65C78.1499 70.8 95.2999 68.7 107.15 77.95L121.3 89C133.15 98.25 135.25 115.4 126 127.25L113.45 143.3C113.4 143.35 113.4 143.35 113.35 143.4L113.3 143.45C113.25 143.55 113.15 143.65 113.05 143.75C105.8 153.05 93.7499 157.35 80.6499 155.35L73.0499 165.1C71.8499 166.8 69.9499 167.65 68.0499 167.65ZM51.0499 95.45C44.0999 104.35 43.4999 117.15 49.4499 128.8C49.7999 129.45 49.6999 130.2 49.2499 130.8L41.5999 140.6C41.1499 141.15 40.9499 141.9 41.0499 142.6C41.1499 143.3 41.4999 143.95 42.0999 144.4L66.3999 163.4C67.5999 164.3 69.2998 164.1 70.1998 162.95L78.4498 152.35C78.8498 151.8 79.5499 151.55 80.2499 151.65C92.3998 153.8 103.55 150.05 110.15 141.6C110.2 141.5 110.3 141.45 110.35 141.35L110.5 141.15C110.55 141.1 110.55 141.05 110.6 141L123.05 125.05C131.05 114.8 129.25 99.95 119 91.95L104.85 80.9C94.5999 72.9 79.7499 74.7 71.7499 84.95L66.8999 91.15C66.3999 91.8 65.4998 92.05 64.6998 91.7C59.9498 89.65 54.4499 91.05 51.2499 95.1C51.1999 95.15 51.1999 95.2 51.1499 95.25C51.1499 95.35 51.0999 95.4 51.0499 95.45Z" fill="#221F1F"/>
<path d="M78.4497 154.8C78.0497 154.8 77.6497 154.65 77.2997 154.4L52.4997 135.05C51.6997 134.4 51.5497 133.25 52.1997 132.45C52.8497 131.65 53.9997 131.5 54.7997 132.15L79.5997 151.5C80.3997 152.15 80.5497 153.3 79.8997 154.1C79.5497 154.55 78.9997 154.8 78.4497 154.8Z" fill="#221F1F"/>
</svg>
