<svg width="178" height="178" viewBox="0 0 178 178" fill="none" xmlns="http://www.w3.org/2000/svg">
<path d="M153.7 49.7002L97.1002 17.0002C92.1002 14.1002 85.8002 14.1002 80.8002 17.0002L24.3002 49.7002C19.3002 52.6002 16.2002 58.0002 16.2002 63.8002V129C16.2002 134.8 19.3002 140.2 24.3002 143.1L80.8002 175.7C83.3002 177.1 86.1002 177.9 88.9002 177.9C91.8002 177.9 94.6002 177.1 97.0002 175.7L153.5 143.1C158.5 140.2 161.6 134.8 161.6 129V63.7002C161.8 57.9002 158.7 52.5002 153.7 49.7002ZM146.8 63.7002V129C146.8 129.4 146.6 129.9 146.2 130.1L89.7002 162.7C89.3002 162.9 88.8002 162.9 88.4002 162.7L31.9002 130.1C31.5002 129.9 31.3002 129.4 31.3002 129V63.7002C31.3002 63.3002 31.5002 62.8002 31.9002 62.6002L88.4002 30.0002C88.6002 29.9002 88.9002 29.8002 89.0002 29.8002C89.2002 29.8002 89.4002 29.8002 89.6002 30.0002L146.1 62.6002C146.5 62.9002 146.8 63.3002 146.8 63.7002Z" fill="white"/>
<path d="M141.3 35.4002L77.5004 24.4002L57.2004 20.9002C56.6004 20.8002 56.0004 20.7002 55.5004 20.7002C53.5004 20.7002 51.5004 21.3002 49.8004 22.5002C47.6004 24.0002 46.2004 26.3002 45.7004 28.9002L44.7004 34.6002L41.7004 51.7002L37.4004 76.8002H52.6004L59.5004 37.2002C59.6004 36.8002 59.9004 36.6002 60.2004 36.6002H60.3004L67.5004 37.9002L60.7004 76.9002H76.0004L82.3004 40.5002L138.7 50.3002C139.1 50.4002 139.4 50.7002 139.3 51.1002L134.8 76.9002H150L154 53.7002C154.7 49.6002 153.8 45.4002 151.4 42.0002C149 38.4002 145.4 36.1002 141.3 35.4002Z" fill="white"/>
<path d="M84.6002 23.5003L28.1002 56.1003C25.4002 57.7003 23.7002 60.6003 23.7002 63.7003V129C23.7002 132.1 25.4002 135 28.1002 136.6L84.6002 169.2C87.3002 170.8 90.7002 170.8 93.4002 169.2L149.9 136.6C152.6 135 154.3 132.1 154.3 129V63.7003C154.3 60.6003 152.6 57.7003 149.9 56.1003L93.4002 23.5003C90.7002 21.9003 87.3002 21.9003 84.6002 23.5003Z" fill="#D2D2FF"/>
<path d="M89.0002 165.4C88.3002 165.4 87.7002 165.2 87.1002 164.9L30.6002 132.3C29.4002 131.6 28.7002 130.4 28.7002 129V63.7003C28.7002 62.4003 29.4002 61.1003 30.6002 60.4003L87.1002 27.8003C87.7002 27.5003 88.3002 27.3003 89.0002 27.3003C89.7002 27.3003 90.3002 27.5003 90.9002 27.8003L147.4 60.4003C148.6 61.1003 149.3 62.3003 149.3 63.7003V129C149.3 130.3 148.6 131.6 147.4 132.3L90.9002 164.9C90.3002 165.2 89.7002 165.4 89.0002 165.4Z" fill="url(#paint0_linear_4242_3784)"/>
<path d="M149.9 56.1003L93.4002 23.5003C90.7002 21.9003 87.3002 21.9003 84.6002 23.5003L28.1002 56.1003C25.4002 57.7003 23.7002 60.6003 23.7002 63.7003V69.2003C23.7002 66.1003 25.4002 63.2003 28.1002 61.6003L84.6002 29.0003C87.3002 27.4003 90.7002 27.4003 93.4002 29.0003L149.9 61.6003C152.6 63.2003 154.3 66.1003 154.3 69.2003V63.7003C154.3 60.6003 152.6 57.7003 149.9 56.1003Z" fill="white"/>
<path d="M88.9998 171.9C87.1998 171.9 85.4998 171.4 83.8998 170.5L27.3998 137.9C24.1998 136.1 22.2998 132.7 22.2998 129V63.7001C22.2998 60.0001 24.2998 56.6001 27.3998 54.8001L83.8998 22.2001C87.0998 20.4001 90.9998 20.4001 94.1998 22.2001L150.7 54.8001C153.9 56.6001 155.8 60.0001 155.8 63.7001V129C155.8 132.7 153.8 136.1 150.7 137.9L94.1998 170.5C92.4998 171.4 90.7998 171.9 88.9998 171.9ZM88.9998 23.8001C87.6998 23.8001 86.4998 24.1001 85.3998 24.8001L28.7998 57.4001C26.5998 58.7001 25.1998 61.1001 25.1998 63.7001V129C25.1998 131.6 26.5998 134 28.7998 135.3L85.2998 167.9C87.4998 169.2 90.2998 169.2 92.5998 167.9L149.1 135.3C151.3 134 152.7 131.6 152.7 129V63.7001C152.7 61.1001 151.3 58.7001 149.1 57.4001L92.5998 24.8001C91.4998 24.2001 90.2998 23.8001 88.9998 23.8001Z" fill="#221F1F"/>
<path d="M140 42.7999L61.6004 29.1999C57.1004 28.3999 52.9004 31.3999 52.1004 35.8999L34.4004 138.2C34.4004 138.3 34.4004 138.4 34.4004 138.5L54.3004 150L107.7 159.3L130.4 146.2L146.7 52.3999C147.5 47.7999 144.5 43.5999 140 42.7999Z" fill="url(#paint1_linear_4242_3784)"/>
<path d="M140.3 41.3001L61.7998 27.7001C56.4998 26.8001 51.4998 30.3001 50.5998 35.6001L32.8998 137.9C32.8998 138.1 32.7998 138.3 32.7998 138.6L35.7998 140.3C35.6998 139.7 35.6998 139.1 35.8998 138.4L53.5998 36.2001C54.1998 32.9001 56.9998 30.6001 60.1998 30.6001C60.5998 30.6001 60.9998 30.6001 61.3998 30.7001L139.8 44.3001C141.6 44.6001 143.1 45.6001 144.1 47.1001C145.1 48.6001 145.5 50.3001 145.2 52.1001L128.5 148.2L131.9 146.2L148.1 52.5001C148.5 49.9001 148 47.4001 146.5 45.2001C145.1 43.2001 142.8 41.8001 140.3 41.3001Z" fill="#221F1F"/>
<path d="M111.1 158.3L48 147.4L55.5 151.7L107 160.6L111.1 158.3Z" fill="#221F1F"/>
<path d="M53.0998 30.2002L34.2998 138.5L54.2998 150L55.6998 150.2L76.1998 31.7002L55.8998 28.2002C54.5998 28.0002 53.2998 28.9002 53.0998 30.2002Z" fill="url(#paint2_linear_4242_3784)"/>
<path d="M99.0004 148C98.9004 148 98.8004 148 98.7004 148.1C98.6004 148.2 98.5004 148.2 98.5004 148.2C98.4004 148.2 98.3004 148.3 98.3004 148.4C98.0004 148.7 97.9004 149.1 97.9004 149.5C97.9004 149.7 97.9004 149.9 98.0004 150.1C98.1004 150.3 98.2004 150.4 98.3004 150.6C98.6004 150.9 98.9004 151 99.4004 151C99.6004 151 99.8004 151 100 150.9C100.2 150.8 100.3 150.7 100.5 150.6C100.6 150.5 100.7 150.3 100.8 150.1C100.9 149.9 100.9 149.7 100.9 149.5C100.9 149.1 100.7 148.7 100.5 148.4C100 148.1 99.5004 147.9 99.0004 148ZM87.2004 145.9C86.4004 145.7 85.6004 146.3 85.5004 147.1C85.4004 147.9 85.9004 148.7 86.7004 148.8C86.8004 148.8 86.9004 148.8 87.0004 148.8C87.7004 148.8 88.4004 148.3 88.5004 147.6C88.6004 146.8 88.0004 146 87.2004 145.9ZM93.4004 147C92.6004 146.9 91.8004 147.4 91.7004 148.2C91.6004 149 92.1004 149.8 92.9004 149.9C93.0004 149.9 93.1004 149.9 93.1004 149.9C93.8004 149.9 94.4004 149.4 94.6004 148.7C94.8004 147.9 94.2004 147.1 93.4004 147ZM68.7004 142.7C67.9004 142.6 67.1004 143.1 67.0004 143.9C66.9004 144.7 67.4004 145.5 68.2004 145.6C68.3004 145.6 68.4004 145.6 68.5004 145.6C69.2004 145.6 69.8004 145.1 70.0004 144.4C70.1004 143.6 69.5004 142.8 68.7004 142.7ZM81.0004 144.8C80.2004 144.7 79.4004 145.2 79.3004 146C79.2004 146.8 79.7004 147.6 80.5004 147.7C80.6004 147.7 80.7004 147.7 80.7004 147.7C81.4004 147.7 82.1004 147.2 82.2004 146.5C82.4004 145.7 81.9004 144.9 81.0004 144.8ZM74.9004 143.7C74.1004 143.6 73.3004 144.1 73.2004 144.9C73.1004 145.7 73.6004 146.5 74.4004 146.6C74.5004 146.6 74.6004 146.6 74.6004 146.6C75.3004 146.6 75.9004 146.1 76.1004 145.4C76.2004 144.7 75.7004 143.9 74.9004 143.7ZM63.1004 141.8C63.0004 141.8 62.9004 141.7 62.8004 141.7C62.7004 141.7 62.6004 141.6 62.5004 141.6C62.3004 141.6 62.1004 141.6 61.9004 141.6C61.8004 141.6 61.7004 141.6 61.6004 141.7C61.5004 141.7 61.4004 141.8 61.3004 141.8C61.2004 141.9 61.1004 141.9 61.1004 142C61.0004 142.1 61.0004 142.2 60.9004 142.2C60.8004 142.3 60.8004 142.4 60.8004 142.5C60.8004 142.6 60.7004 142.7 60.7004 142.8C60.7004 142.9 60.7004 143 60.7004 143.1C60.7004 143.3 60.7004 143.5 60.8004 143.7C60.9004 143.9 61.0004 144 61.1004 144.2C61.2004 144.3 61.4004 144.4 61.6004 144.5C61.8004 144.6 62.0004 144.6 62.2004 144.6C62.4004 144.6 62.6004 144.6 62.8004 144.5C63.0004 144.4 63.1004 144.3 63.3004 144.2C63.4004 144.1 63.5004 143.9 63.6004 143.7C63.7004 143.5 63.7004 143.3 63.7004 143.1C63.7004 142.7 63.5004 142.3 63.3004 142C63.2004 141.9 63.2004 141.9 63.1004 141.8ZM136.5 71.4C136.5 71.3 136.5 71.2 136.4 71.1C136.3 71 136.3 70.9 136.3 70.8C136.2 70.7 136.2 70.6 136.1 70.6C136 70.5 136 70.5 135.9 70.4C135.8 70.3 135.7 70.3 135.6 70.3C135.5 70.3 135.4 70.2 135.3 70.2C135.1 70.2 134.9 70.2 134.7 70.2C134.6 70.2 134.5 70.2 134.4 70.3C134.3 70.4 134.2 70.4 134.1 70.4C134 70.4 133.9 70.5 133.9 70.6C133.8 70.7 133.8 70.7 133.7 70.8C133.7 70.9 133.6 71 133.6 71.1C133.6 71.2 133.5 71.3 133.5 71.4C133.5 71.5 133.5 71.6 133.5 71.7C133.5 72.1 133.6 72.5 133.9 72.8C134.1 72.9 134.2 73 134.4 73.1C134.6 73.2 134.8 73.2 135 73.2C135.4 73.2 135.8 73 136.1 72.8C136.2 72.7 136.3 72.5 136.4 72.3C136.5 72.1 136.5 71.9 136.5 71.7C136.6 71.6 136.6 71.5 136.5 71.4ZM134.3 76.2C133.5 76.1 132.7 76.6 132.6 77.4C132.5 78.2 133 79 133.8 79.1C133.9 79.1 134 79.1 134.1 79.1C134.8 79.1 135.4 78.6 135.6 77.9C135.6 77.2 135.1 76.4 134.3 76.2ZM133.2 82.3C132.4 82.2 131.6 82.7 131.5 83.5C131.4 84.3 131.9 85.1 132.7 85.2C132.8 85.2 132.9 85.2 132.9 85.2C133.6 85.2 134.3 84.7 134.4 84C134.6 83.2 134 82.4 133.2 82.3ZM130.1 100.4C129.3 100.3 128.5 100.8 128.4 101.6C128.3 102.4 128.8 103.2 129.6 103.3C129.7 103.3 129.8 103.3 129.9 103.3C130.6 103.3 131.2 102.8 131.4 102.1C131.4 101.3 130.9 100.5 130.1 100.4ZM131.1 94.4C130.3 94.3 129.5 94.8 129.4 95.6C129.3 96.4 129.8 97.2 130.6 97.3C130.7 97.3 130.8 97.3 130.9 97.3C131.6 97.3 132.3 96.8 132.4 96.1C132.5 95.3 131.9 94.5 131.1 94.4ZM126.9 118.5C126.1 118.4 125.3 118.9 125.2 119.7C125.1 120.5 125.6 121.3 126.4 121.4C126.5 121.4 126.6 121.4 126.7 121.4C127.4 121.4 128 120.9 128.2 120.2C128.3 119.4 127.8 118.7 126.9 118.5ZM129 106.4C128.2 106.3 127.4 106.8 127.3 107.6C127.1 108.4 127.7 109.2 128.5 109.3C128.6 109.3 128.7 109.3 128.7 109.3C129.4 109.3 130.1 108.8 130.2 108.1C130.4 107.4 129.9 106.6 129 106.4ZM125.9 124.6C125.1 124.5 124.3 125 124.2 125.8C124.1 126.6 124.6 127.4 125.4 127.5C125.5 127.5 125.6 127.5 125.7 127.5C126.4 127.5 127 127 127.2 126.3C127.3 125.5 126.7 124.7 125.9 124.6ZM128 112.5C127.2 112.4 126.4 112.9 126.3 113.7C126.2 114.5 126.7 115.3 127.5 115.4C127.6 115.4 127.7 115.4 127.8 115.4C128.5 115.4 129.1 114.9 129.3 114.2C129.4 113.4 128.8 112.6 128 112.5ZM132.2 88.3C131.4 88.2 130.6 88.7 130.5 89.5C130.4 90.3 130.9 91.1 131.7 91.2C131.8 91.2 131.9 91.2 132 91.2C132.7 91.2 133.4 90.7 133.5 90C133.5 89.2 133 88.5 132.2 88.3ZM124.3 130.6C124.2 130.6 124.1 130.7 124 130.7C123.9 130.7 123.8 130.8 123.8 130.8C123.7 130.8 123.6 130.9 123.6 131C123.3 131.3 123.2 131.7 123.2 132.1C123.2 132.5 123.3 132.9 123.6 133.2C123.7 133.3 123.9 133.4 124.1 133.5C124.3 133.6 124.5 133.6 124.7 133.6C124.9 133.6 125.1 133.6 125.3 133.5C125.5 133.4 125.7 133.3 125.8 133.2C126.1 132.9 126.2 132.5 126.2 132.1C126.2 131.7 126 131.3 125.8 131C125.3 130.7 124.8 130.5 124.3 130.6ZM82.3004 40.3C82.3004 40.2 82.2004 40.1 82.2004 40.1C82.1004 40 82.1004 39.9 82.0004 39.9C81.9004 39.8 81.9004 39.8 81.8004 39.7C81.7004 39.6 81.6004 39.6 81.5004 39.6C81.4004 39.6 81.3004 39.5 81.2004 39.5C81.0004 39.5 80.8004 39.5 80.6004 39.5C80.5004 39.5 80.4004 39.6 80.3004 39.6C80.2004 39.6 80.1004 39.7 80.0004 39.7C79.9004 39.8 79.8004 39.8 79.8004 39.9C79.7004 40 79.7004 40 79.6004 40.1C79.6004 40.2 79.5004 40.3 79.5004 40.3C79.5004 40.4 79.4004 40.5 79.4004 40.6C79.4004 40.7 79.4004 40.8 79.4004 40.9C79.4004 41.1 79.4004 41.3 79.5004 41.5C79.6004 41.7 79.7004 41.9 79.8004 42C79.9004 42.1 80.1004 42.2 80.3004 42.3C80.5004 42.4 80.7004 42.4 80.9004 42.4C81.1004 42.4 81.3004 42.4 81.5004 42.3C81.7004 42.2 81.8004 42.1 82.0004 42C82.3004 41.7 82.4004 41.3 82.4004 40.9C82.4004 40.8 82.4004 40.7 82.4004 40.6C82.4004 40.4 82.4004 40.4 82.3004 40.3ZM92.8004 44.4C92.9004 44.4 93.0004 44.4 93.1004 44.4C93.8004 44.4 94.5004 43.9 94.6004 43.2C94.7004 42.4 94.2004 41.6 93.4004 41.5C92.6004 41.4 91.8004 41.9 91.7004 42.7C91.4004 43.5 92.0004 44.3 92.8004 44.4ZM111.4 44.6C110.6 44.5 109.8 45 109.7 45.8C109.6 46.6 110.1 47.4 110.9 47.5C111 47.5 111.1 47.5 111.2 47.5C111.9 47.5 112.5 47 112.7 46.3C112.8 45.5 112.3 44.7 111.4 44.6ZM87.2004 40.4C86.4004 40.3 85.6004 40.8 85.5004 41.6C85.4004 42.4 85.9004 43.2 86.7004 43.3C86.8004 43.3 86.9004 43.3 87.0004 43.3C87.7004 43.3 88.4004 42.8 88.5004 42.1C88.6004 41.3 88.1004 40.5 87.2004 40.4ZM105.4 43.5C104.6 43.4 103.8 43.9 103.7 44.7C103.6 45.5 104.1 46.3 104.9 46.4C105 46.4 105.1 46.4 105.2 46.4C105.9 46.4 106.6 45.9 106.7 45.2C106.8 44.5 106.2 43.7 105.4 43.5ZM98.8004 45.5C98.9004 45.5 99.0004 45.5 99.1004 45.5C99.8004 45.5 100.5 45 100.6 44.3C100.7 43.5 100.2 42.7 99.4004 42.6C98.6004 42.4 97.8004 43 97.7004 43.8C97.5004 44.5 98.0004 45.3 98.8004 45.5ZM118.6 46.5C118.6 46.4 118.5 46.3 118.5 46.3C118.4 46.2 118.4 46.1 118.3 46.1C118.2 46 118.2 46 118.1 45.9C118 45.8 117.9 45.8 117.8 45.8C117.7 45.8 117.6 45.7 117.5 45.7C117 45.6 116.5 45.8 116.1 46.1C116 46.2 116 46.2 115.9 46.3C115.9 46.4 115.8 46.5 115.8 46.5C115.8 46.6 115.7 46.7 115.7 46.8C115.7 46.9 115.7 47 115.7 47.1C115.7 47.5 115.8 47.9 116.1 48.2C116.2 48.3 116.4 48.4 116.6 48.5C116.8 48.6 117 48.6 117.2 48.6C117.3 48.6 117.4 48.6 117.5 48.6C117.6 48.6 117.7 48.6 117.8 48.5C118 48.4 118.1 48.3 118.3 48.2C118.6 47.9 118.7 47.5 118.7 47.1C118.7 47 118.7 46.9 118.7 46.8C118.7 46.7 118.7 46.6 118.6 46.5ZM67.2004 36.5C67.3004 36.6 67.5004 36.7 67.7004 36.8C67.9004 36.9 68.1004 36.9 68.3004 36.9C68.5004 36.9 68.7004 36.9 68.9004 36.8C69.1004 36.7 69.2004 36.6 69.4004 36.5C69.5004 36.4 69.6004 36.2 69.7004 36C69.8004 35.8 69.8004 35.6 69.8004 35.4C69.8004 35.3 69.8004 35.2 69.8004 35.1C69.8004 35 69.7004 34.9 69.7004 34.8C69.7004 34.7 69.6004 34.6 69.6004 34.5C69.5004 34.4 69.5004 34.3 69.4004 34.3C69.3004 34.2 69.2004 34.2 69.2004 34.1C69.1004 34 69.0004 34 68.9004 34C68.8004 34 68.6004 34 68.5004 34C68.3004 34 68.1004 34 67.9004 34C67.8004 34 67.7004 34 67.6004 34.1C67.5004 34.2 67.4004 34.2 67.3004 34.2C67.2004 34.2 67.1004 34.3 67.1004 34.4C67.0004 34.5 67.0004 34.5 66.9004 34.6C66.9004 34.7 66.8004 34.8 66.8004 34.9C66.8004 35 66.7004 35.1 66.7004 35.2C66.7004 35.3 66.7004 35.4 66.7004 35.5C66.7004 35.7 66.7004 35.9 66.8004 36.1C66.9004 36.2 67.1004 36.4 67.2004 36.5ZM51.8004 130.5C51.0004 130.4 50.2004 130.9 50.1004 131.7C50.0004 132.5 50.5004 133.3 51.3004 133.4C51.4004 133.4 51.5004 133.4 51.5004 133.4C52.2004 133.4 52.8004 132.9 53.0004 132.2C53.2004 131.4 52.6004 130.6 51.8004 130.5ZM50.7004 136.5C49.9004 136.4 49.1004 136.9 49.0004 137.7C48.9004 138.5 49.4004 139.3 50.2004 139.4C50.3004 139.4 50.4004 139.4 50.5004 139.4C51.2004 139.4 51.9004 138.9 52.0004 138.2C52.1004 137.4 51.6004 136.6 50.7004 136.5ZM59.6004 85.2C59.7004 85.2 59.8004 85.2 59.9004 85.2C60.6004 85.2 61.2004 84.7 61.4004 84C61.5004 83.2 61.0004 82.4 60.2004 82.3C59.4004 82.2 58.6004 82.7 58.5004 83.5C58.3004 84.3 58.8004 85.1 59.6004 85.2ZM60.7004 79.2C60.8004 79.2 60.9004 79.2 61.0004 79.2C61.7004 79.2 62.3004 78.7 62.5004 78C62.6004 77.2 62.1004 76.4 61.3004 76.3C60.5004 76.2 59.7004 76.7 59.6004 77.5C59.3004 78.2 59.9004 79 60.7004 79.2ZM61.7004 73.1C61.8004 73.1 61.9004 73.1 62.0004 73.1C62.7004 73.1 63.3004 72.6 63.5004 71.9C63.6004 71.1 63.1004 70.3 62.3004 70.2C61.5004 70 60.7004 70.6 60.6004 71.4C60.4004 72.2 60.9004 73 61.7004 73.1ZM52.8004 124.4C52.0004 124.3 51.2004 124.8 51.1004 125.6C51.0004 126.4 51.5004 127.2 52.3004 127.3C52.4004 127.3 52.5004 127.3 52.6004 127.3C53.3004 127.3 54.0004 126.8 54.1004 126.1C54.2004 125.4 53.7004 124.6 52.8004 124.4ZM67.0004 43C67.1004 43 67.2004 43 67.3004 43C68.0004 43 68.6004 42.5 68.8004 41.8C68.9004 41 68.4004 40.2 67.6004 40.1C66.8004 40 66.0004 40.5 65.9004 41.3C65.6004 42.1 66.1004 42.8 67.0004 43ZM65.9004 49C66.0004 49 66.1004 49 66.1004 49C66.8004 49 67.5004 48.5 67.6004 47.8C67.7004 47 67.2004 46.2 66.4004 46.1C65.6004 46 64.8004 46.5 64.7004 47.3C64.5004 48.1 65.1004 48.9 65.9004 49ZM58.1004 94.3C57.3004 94.2 56.5004 94.7 56.4004 95.5C56.3004 96.3 56.8004 97.1 57.6004 97.2C57.7004 97.2 57.8004 97.2 57.9004 97.2C58.6004 97.2 59.2004 96.7 59.4004 96C59.4004 95.2 58.9004 94.4 58.1004 94.3ZM64.3004 58.1C63.5004 58 62.7004 58.5 62.6004 59.3C62.5004 60.1 63.0004 60.9 63.8004 61C63.9004 61 64.0004 61 64.1004 61C64.8004 61 65.4004 60.5 65.6004 59.8C65.7004 59 65.1004 58.3 64.3004 58.1ZM53.9004 118.4C53.1004 118.3 52.3004 118.8 52.2004 119.6C52.1004 120.4 52.6004 121.2 53.4004 121.3C53.5004 121.3 53.6004 121.3 53.6004 121.3C54.3004 121.3 55.0004 120.8 55.1004 120.1C55.2004 119.3 54.7004 118.6 53.9004 118.4ZM59.1004 88.3C58.3004 88.2 57.5004 88.7 57.4004 89.5C57.3004 90.3 57.8004 91.1 58.6004 91.2C58.7004 91.2 58.8004 91.2 58.9004 91.2C59.6004 91.2 60.2004 90.7 60.4004 90C60.5004 89.2 59.9004 88.4 59.1004 88.3ZM65.4004 52.1C64.6004 52 63.8004 52.5 63.7004 53.3C63.6004 54.1 64.1004 54.9 64.9004 55C65.0004 55 65.1004 55 65.2004 55C65.9004 55 66.6004 54.5 66.7004 53.8C66.7004 53 66.2004 52.2 65.4004 52.1ZM63.3004 64.1C62.5004 64 61.7004 64.5 61.6004 65.3C61.5004 66.1 62.0004 66.9 62.8004 67C62.9004 67 63.0004 67 63.1004 67C63.8004 67 64.4004 66.5 64.6004 65.8C64.6004 65.1 64.1004 64.3 63.3004 64.1ZM57.0004 100.3C56.2004 100.2 55.4004 100.7 55.3004 101.5C55.2004 102.3 55.7004 103.1 56.5004 103.2C56.6004 103.2 56.7004 103.2 56.8004 103.2C57.5004 103.2 58.1004 102.7 58.3004 102C58.4004 101.2 57.8004 100.5 57.0004 100.3ZM56.0004 106.4C55.2004 106.3 54.4004 106.8 54.3004 107.6C54.2004 108.4 54.7004 109.2 55.5004 109.3C55.6004 109.3 55.7004 109.3 55.8004 109.3C56.5004 109.3 57.2004 108.8 57.3004 108.1C57.3004 107.3 56.8004 106.5 56.0004 106.4ZM54.9004 112.4C54.1004 112.3 53.3004 112.8 53.2004 113.6C53.1004 114.4 53.6004 115.2 54.4004 115.3C54.5004 115.3 54.6004 115.3 54.7004 115.3C55.4004 115.3 56.1004 114.8 56.2004 114.1C56.3004 113.3 55.7004 112.5 54.9004 112.4ZM50.8004 143.4C50.8004 143.3 50.7004 143.2 50.7004 143.1C50.6004 143 50.6004 142.9 50.5004 142.9C50.4004 142.8 50.4004 142.8 50.3004 142.7C50.2004 142.7 50.1004 142.6 50.0004 142.6C49.9004 142.6 49.8004 142.5 49.7004 142.5C49.5004 142.5 49.3004 142.5 49.1004 142.5C49.0004 142.5 48.9004 142.5 48.8004 142.6C48.7004 142.6 48.6004 142.7 48.5004 142.7C48.4004 142.8 48.3004 142.8 48.3004 142.9C48.2004 143 48.2004 143 48.1004 143.1C48.1004 143.2 48.0004 143.3 48.0004 143.4C48.0004 143.5 47.9004 143.6 47.9004 143.7C47.9004 143.8 47.9004 143.9 47.9004 144C47.9004 144.2 47.9004 144.4 48.0004 144.6C48.1004 144.8 48.2004 144.9 48.3004 145.1C48.4004 145.2 48.6004 145.3 48.8004 145.4C49.0004 145.5 49.2004 145.5 49.4004 145.5C49.6004 145.5 49.8004 145.5 50.0004 145.4C50.2004 145.3 50.3004 145.2 50.5004 145.1C50.6004 145 50.7004 144.8 50.8004 144.6C50.9004 144.4 50.9004 144.2 50.9004 144C50.9004 143.9 50.9004 143.8 50.9004 143.7C50.9004 143.6 50.9004 143.5 50.8004 143.4Z" fill="#AA7D18"/>
<path d="M146.7 52.3002C147.5 47.8002 144.5 43.6002 140 42.8002L125 40.2002L123.1 50.7002C121.9 57.6002 126.5 64.3002 133.5 65.5002L144.1 67.4002L146.7 52.3002Z" fill="#F7E837"/>
<path d="M134.5 58.3998C134.2 58.3998 133.9 58.3998 133.7 58.2998C131.2 57.8998 129.4 55.3998 129.9 52.8998C130.4 50.3998 132.8 48.5998 135.3 49.0998C136.5 49.2998 137.6 49.9998 138.3 50.9998C139 51.9998 139.3 53.2998 139.1 54.4998C138.9 55.6998 138.2 56.7998 137.2 57.4998C136.4 58.0998 135.5 58.3998 134.5 58.3998ZM134.5 52.0998C133.7 52.0998 133 52.6998 132.8 53.4998C132.6 54.3998 133.3 55.2998 134.2 55.4998C134.6 55.5998 135.1 55.4998 135.5 55.1998C135.9 54.8998 136.1 54.5998 136.2 54.0998C136.3 53.6998 136.2 53.1998 135.9 52.7998C135.6 52.3998 135.3 52.1998 134.8 52.0998C134.7 52.0998 134.6 52.0998 134.5 52.0998Z" fill="#221F1F"/>
<path d="M53.0998 30.2002L34.2998 138.5L39.7998 141.7L59.6998 28.9002L55.8998 28.2002C54.5998 28.0002 53.2998 28.9002 53.0998 30.2002Z" fill="white"/>
<path d="M76.4998 30.3001L56.1998 26.8001C54.0998 26.4001 51.9998 27.9001 51.6998 30.0001L32.7998 138.6L35.5998 140.2L54.5998 30.5001C54.6998 30.1001 55.0998 29.7001 55.4998 29.7001C55.5998 29.7001 55.5998 29.7001 55.6998 29.7001L74.4998 33.0001L54.4998 148.5L47.9998 147.4L55.4998 151.7C55.5998 151.7 55.5998 151.7 55.6998 151.7C55.9998 151.7 56.2998 151.6 56.5998 151.4C56.8998 151.2 57.0998 150.8 57.1998 150.4L77.6998 32.0001C77.7998 31.6001 77.6998 31.2001 77.3998 30.9001C77.1998 30.5001 76.8998 30.3001 76.4998 30.3001Z" fill="#221F1F"/>
<path d="M130.4 41.1002L125 40.2002L123.1 50.7002C122.3 55.0002 123.8 59.1002 126.7 62.0002L130.4 41.1002Z" fill="white"/>
<path d="M144.1 68.8999C144 68.8999 143.9 68.8999 143.8 68.8999L133.2 66.9999C129.4 66.2999 126.2 64.2999 124 61.0999C121.8 57.9999 121 54.1999 121.6 50.3999L123.5 39.8999C123.6 39.0999 124.4 38.4999 125.2 38.6999L140.2 41.2999C145.5 42.1999 149 47.2999 148.1 52.4999L145.5 67.5999C145.4 67.9999 145.2 68.2999 144.9 68.5999C144.7 68.7999 144.4 68.8999 144.1 68.8999ZM126.2 41.8999L124.6 50.8999C124.1 53.8999 124.7 56.8999 126.5 59.2999C128.2 61.7999 130.8 63.3999 133.8 63.8999L142.9 65.4999L145.3 51.8999C145.6 50.0999 145.2 48.2999 144.2 46.8999C143.2 45.4999 141.6 44.4999 139.9 44.0999L126.2 41.8999Z" fill="#221F1F"/>
<path d="M112.299 99.3999L94.0992 116.2L82.6992 94.1999L100.899 77.3999L112.299 99.3999Z" fill="#ED0F4E"/>
<path d="M94.0996 117.7C93.9996 117.7 93.8996 117.7 93.7996 117.7C93.2996 117.6 92.8996 117.3 92.6996 116.9L81.2996 94.9C80.9996 94.3 81.0996 93.6 81.5996 93.1L99.7996 76.3C100.1 76 100.6 75.8 101.1 75.9C101.6 76 102 76.3 102.2 76.7L113.6 98.7C113.9 99.3 113.8 100 113.3 100.5L95.0996 117.3C94.7996 117.5 94.3996 117.7 94.0996 117.7ZM84.5996 94.5L94.4996 113.7L110.4 99L100.5 79.8L84.5996 94.5Z" fill="#221F1F"/>
<path d="M94.1 117.7C93.9 117.7 93.6 117.6 93.4 117.5C92.8 117.2 92.5 116.6 92.6 115.9L96 96.5C96.1 95.7 96.9 95.1 97.7 95.3L112.5 97.9C113.1 98 113.5 98.4 113.7 99C113.9 99.5 113.7 100.1 113.3 100.5L95.1 117.3C94.8 117.5 94.4 117.7 94.1 117.7ZM98.7 98.5L96.3 112L109 100.3L98.7 98.5Z" fill="#221F1F"/>
<path d="M100.899 77.4004L82.6992 94.2004L82.8992 94.6004L97.3992 97.2004L100.899 77.4004Z" fill="white"/>
<path d="M97.3996 98.7002C97.2996 98.7002 97.1996 98.7002 97.0996 98.7002L82.5996 96.1002C82.0996 96.0002 81.6996 95.7002 81.4996 95.3002L81.2996 94.9002C80.9996 94.3002 81.0996 93.6002 81.5996 93.1002L99.7996 76.3002C100.3 75.9002 101 75.8002 101.5 76.1002C102.1 76.4002 102.4 77.0002 102.3 77.7002L98.7996 97.4002C98.7996 98.2002 98.0996 98.7002 97.3996 98.7002ZM85.5996 93.6002L96.1996 95.5002L98.5996 81.6002L85.5996 93.6002Z" fill="#221F1F"/>
<path d="M106.1 148L104.2 158.6L107.6 159.2L130.2 146.2L131.4 139.5L120.9 137.6C114 136.4 107.4 141.1 106.1 148Z" fill="#F7E837"/>
<path d="M131.7 138L121.2 136.1C117.4 135.4 113.7 136.3 110.5 138.5C107.4 140.7 105.3 144 104.6 147.7L102.7 158.3C102.6 158.7 102.7 159.1 102.9 159.4C103.1 159.7 103.5 159.9 103.9 160L106.9 160.5L111 158.2L105.9 157.3L107.5 148.2C108 145.2 109.7 142.7 112.1 140.9C114.6 139.2 117.6 138.5 120.5 139L129.5 140.6L128.2 148.2L131.6 146.2L132.7 139.6C133.1 139 132.5 138.2 131.7 138Z" fill="#221F1F"/>
<path d="M117.9 153.8C117.6 153.8 117.4 153.8 117.1 153.7C115.9 153.5 114.8 152.8 114.1 151.8C113.4 150.8 113.1 149.5 113.3 148.3C113.5 147.1 114.2 146 115.2 145.3C116.2 144.6 117.5 144.3 118.7 144.5C121.2 144.9 123 147.4 122.5 149.9C122.1 152.2 120.1 153.8 117.9 153.8ZM117.9 147.4C117.6 147.4 117.2 147.5 116.9 147.7C116.5 148 116.3 148.3 116.2 148.8C116.1 149.2 116.2 149.7 116.5 150.1C116.8 150.5 117.1 150.7 117.6 150.8C118.5 151 119.4 150.3 119.6 149.4C119.8 148.5 119.1 147.6 118.2 147.4C118.1 147.4 118 147.4 117.9 147.4Z" fill="#221F1F"/>
<defs>
<linearGradient id="paint0_linear_4242_3784" x1="89.0002" y1="-15.5883" x2="89.0002" y2="122.476" gradientUnits="userSpaceOnUse">
<stop offset="0.5205" stop-color="#D2D2FF"/>
<stop offset="0.783" stop-color="#9891F5"/>
</linearGradient>
<linearGradient id="paint1_linear_4242_3784" x1="73.1369" y1="132.009" x2="105.804" y2="57.5771" gradientUnits="userSpaceOnUse">
<stop offset="0.3544" stop-color="#EFB83C"/>
<stop offset="0.6862" stop-color="#FFDA7D"/>
</linearGradient>
<linearGradient id="paint2_linear_4242_3784" x1="40.8495" y1="120.951" x2="69.6432" y2="55.3456" gradientUnits="userSpaceOnUse">
<stop offset="0.3544" stop-color="#EFB83C"/>
<stop offset="0.6862" stop-color="#FFDA7D"/>
</linearGradient>
</defs>
</svg>
