<svg width="165" height="165" viewBox="0 0 165 165" fill="none" xmlns="http://www.w3.org/2000/svg">
<path d="M122.212 155.55C121.95 155.55 121.575 155.55 121.125 155.475C115.725 154.95 108.525 151.387 99.7125 144.862C93.9375 140.625 88.95 136.162 86.7375 134.137C86.175 134.137 85.65 134.137 85.0875 134.137C65.2125 134.137 49.6875 127.837 39.0375 115.387C29.8125 104.625 26.6625 91.95 25.1625 85.875C24.975 85.1625 24.525 83.2875 24.3375 82.875C24.3375 82.8375 24.3 82.8375 24.3 82.8C23.4375 80.85 18.9375 79.6125 16.125 79.5375C13.95 79.5 12.1125 78 11.5875 75.8625C11.0625 73.8 12.0375 71.625 13.9125 70.6125C13.95 70.575 13.9875 70.575 14.025 70.5375C15.1875 69.9 19.125 67.5375 21.2625 64.5C21.2625 64.5 21.2625 64.4625 21.3 64.4625C21.5625 64.0875 21.8625 63.675 22.125 63.2625C24.9 59.175 28.65 53.55 38.85 53.55C40.05 53.55 41.2875 53.625 42.6 53.775C49.9125 54.6375 53.175 59.625 56.0625 64.0125C57.4875 66.15 58.8375 68.2125 60.675 69.9C67.0125 58.875 72.075 40.2375 67.575 19.575V19.5375C67.2 17.6625 67.9875 15.75 69.5625 14.625C70.35 14.0625 71.2875 13.8 72.2625 13.8C73.1625 13.8 74.0625 14.0625 74.85 14.55C75.9 15.225 82.95 20.3625 89.325 27.75C93.6375 32.7375 96.7875 37.725 98.7375 42.6375C101.775 33.6375 103.162 23.925 102.675 14.4375C102.562 12.525 103.612 10.7625 105.375 9.8625C105.45 9.825 105.487 9.7875 105.562 9.7875C106.162 9.525 106.837 9.375 107.475 9.375C108.75 9.375 109.912 9.8625 110.812 10.7625L110.85 10.8C112.425 12.3375 117.937 18.0375 122.812 25.9875C128.4 35.0625 131.025 43.9125 130.5 51.7875C134.212 51.9 137.287 53.5875 139.2 56.5875C141.337 59.8875 141.712 64.65 140.287 70.05C139.35 73.6125 137.662 77.2875 135.412 80.7C138.225 82.575 139.087 85.1625 139.35 86.8125C139.987 90.9 138 95.9625 133.875 100.687C131.625 103.275 126.15 108.525 117.075 111.3C123.787 113.887 130.875 114.562 136.312 114.562C142.2 114.562 146.7 113.812 147.9 113.587C147.937 113.587 147.937 113.587 147.975 113.587C148.275 113.512 148.612 113.475 148.912 113.475C150.337 113.475 151.687 114.112 152.625 115.237C153.787 116.662 154.05 118.575 153.262 120.262C153.262 120.262 153.262 120.262 153.262 120.3C152.55 121.837 148.762 129.787 143.775 137.512C135.862 149.625 128.812 155.55 122.212 155.55Z" fill="white"/>
<path d="M103.05 108.338C124.05 108.975 135.562 93.9375 134.55 87.5625C134.062 84.4875 130.837 83.4375 127.312 83.175C135.262 74.85 138.187 63.8625 135.15 59.1375C132.787 55.5 128.287 56.2125 124.35 57.8625C131.775 37.725 107.4 14.175 107.4 14.175C109.312 50.3251 86.0624 80.9625 68.6249 78.45C51.1874 75.9375 53.3624 59.8501 42.0749 58.5376C30.7874 57.2251 28.3874 62.6625 25.1999 67.2375C22.0124 71.775 16.2749 74.7375 16.2749 74.7375C16.2749 74.7375 26.0999 75 28.6874 80.8501C31.2749 86.7001 34.7624 131.363 88.6124 129.375C88.6124 129.375 109.95 149.663 121.725 150.75C133.5 151.838 148.837 118.2 148.837 118.2C148.837 118.2 120.525 124.275 103.05 108.338Z" fill="white"/>
<path d="M122.213 152.175C121.988 152.175 121.763 152.175 121.538 152.138C110.213 151.088 91.2 133.725 88.05 130.763C67.7625 131.4 52.125 125.475 41.625 113.25C33 103.163 30 91.3876 28.425 85.0501C28.0125 83.3626 27.675 82.0501 27.375 81.4126C25.5375 77.2501 18.675 76.2001 16.2 76.1251C15.5625 76.1251 15.0375 75.6751 14.8875 75.0376C14.7375 74.4376 15.0375 73.8001 15.6 73.5001C15.6375 73.4626 21.075 70.6126 24.0375 66.4126C24.3375 66.0001 24.6375 65.5501 24.9375 65.1001C27.8625 60.7501 31.1625 55.8376 42.225 57.1126C47.925 57.7876 50.5125 61.6876 53.25 65.8501C56.475 70.7251 59.775 75.7501 68.8125 77.0251C73.9875 77.7751 79.9875 75.3001 85.725 70.0126C96.75 59.9251 107.288 38.7751 106.013 14.1751C105.975 13.6126 106.313 13.0876 106.838 12.8251C107.363 12.6001 107.963 12.6751 108.375 13.0876C108.638 13.3501 114.675 19.2001 119.85 27.6751C126.15 37.9126 128.4 47.4751 126.45 55.6126C132.038 54.0751 134.888 56.1376 136.313 58.3501C139.65 63.5251 136.8 73.9501 130.088 82.0876C134.325 83.0251 135.638 85.3126 135.938 87.2626C136.425 90.3376 134.663 94.5001 131.25 98.4001C128.4 101.663 120.6 108.825 106.913 109.613C123.75 121.913 148.275 116.85 148.538 116.813C149.063 116.7 149.588 116.888 149.925 117.3C150.263 117.713 150.338 118.275 150.113 118.763C150.075 118.838 146.175 127.35 140.85 135.6C133.763 146.625 127.5 152.175 122.213 152.175ZM88.5375 127.988C88.875 127.988 89.25 128.138 89.475 128.363C89.7 128.55 110.588 148.35 121.763 149.363C125.963 149.738 131.888 144.338 138.413 134.175C141.938 128.7 144.825 123.113 146.325 120.038C143.4 120.45 138.338 120.938 132.338 120.638C119.925 120 109.425 116.1 102.038 109.35C101.625 108.975 101.475 108.338 101.7 107.813C101.925 107.288 102.45 106.913 103.013 106.95C117.9 107.4 126.188 99.9001 129.038 96.6376C132.45 92.7751 133.35 89.4376 133.088 87.7876C132.788 85.9126 130.8 84.8251 127.125 84.6001C126.6 84.5626 126.113 84.2251 125.925 83.7001C125.738 83.2126 125.85 82.6126 126.225 82.2376C129.825 78.4876 132.563 73.9126 133.95 69.4126C135.188 65.4001 135.15 61.8751 133.913 59.9251C132.375 57.5251 129.3 57.3001 124.8 59.1751C124.275 59.4001 123.713 59.2876 123.3 58.9126C122.888 58.5376 122.775 57.9376 122.963 57.4126C126.6 47.5501 121.95 36.6751 117.413 29.2501C114.375 24.3376 111 20.2501 108.788 17.7751C108.863 28.1251 106.95 38.5126 103.2 48.1126C99.4125 57.8251 93.825 66.3376 87.4875 72.1126C81.1125 77.9251 74.2875 80.6626 68.2875 79.8001C58.05 78.3376 54.0375 72.2626 50.8125 67.3876C48.225 63.4876 46.2 60.3751 41.775 59.8876C32.4 58.8001 29.85 62.6251 27.1125 66.6376C26.8125 67.0876 26.5125 67.5376 26.2125 67.9876C24.4875 70.4626 22.0875 72.4501 20.175 73.8376C23.55 74.5501 28.05 76.2376 29.85 80.2501C30.225 81.0751 30.5625 82.4626 31.05 84.3376C34.1625 96.7126 42.4875 129.638 88.4625 127.95C88.5375 127.988 88.5375 127.988 88.5375 127.988Z" fill="#221F1F"/>
<path d="M68.5498 78.4876C77.8123 79.8376 88.7248 71.8126 96.6373 58.5376C96.4123 58.6876 96.1873 58.8001 95.9248 58.9501C100.05 37.8751 72.1873 18.5251 72.1873 18.5251C77.1373 41.3251 71.3998 63.5627 61.9873 76.5377C63.8248 77.4377 65.9623 78.1126 68.5498 78.4876Z" fill="#CAE5FF"/>
<path d="M70.6496 79.9876C69.8996 79.9876 69.1496 79.9501 68.3996 79.8376C65.8121 79.4626 63.5246 78.7876 61.4246 77.8126C61.0496 77.6251 60.7871 77.2876 60.6746 76.9126C60.5621 76.5001 60.6371 76.0876 60.8996 75.7501C68.8121 64.8376 76.1996 43.3501 70.8746 18.8251C70.7621 18.2626 70.9872 17.7001 71.4747 17.3626C71.9622 17.0251 72.5621 17.0626 73.0496 17.3626C73.3496 17.5501 80.2496 22.3876 86.7371 29.8876C94.9121 39.3751 98.6621 48.8626 97.6496 57.4501C97.6871 57.4501 97.6871 57.4876 97.7247 57.4876C98.1747 57.9376 98.2496 58.6126 97.9122 59.1751C90.0746 72.2626 79.8371 79.9876 70.6496 79.9876ZM68.7746 77.1001C76.9496 78.2626 86.9996 71.2876 94.6121 59.2501C94.5746 59.0626 94.5746 58.8751 94.6121 58.6876C97.7246 42.7126 81.1122 27.3751 74.2872 21.8626C77.5121 41.1376 73.6871 61.8376 64.1246 75.9376C65.5496 76.4626 67.0871 76.8376 68.7746 77.1001Z" fill="#221F1F"/>
<path d="M37.6498 70.9127C38.6025 70.9127 39.3748 70.1403 39.3748 69.1876C39.3748 68.235 38.6025 67.4626 37.6498 67.4626C36.6971 67.4626 35.9248 68.235 35.9248 69.1876C35.9248 70.1403 36.6971 70.9127 37.6498 70.9127Z" fill="#221F1F"/>
<path d="M132.375 120.638C125.287 120.263 118.837 118.837 113.25 116.438C100.237 118.538 86.1749 118.05 72.0749 114.525C58.0499 111 45.4874 104.85 35.0249 96.9375C40.8749 111.3 54.2249 129.262 88.4999 127.987H88.5374C88.8749 127.987 89.2499 128.137 89.4749 128.362C89.6999 128.55 110.587 148.35 121.762 149.362C125.962 149.775 131.887 144.337 138.412 134.175C141.937 128.7 144.825 123.113 146.325 120.038C143.437 120.45 138.375 120.975 132.375 120.638Z" fill="#CAE5FF"/>
</svg>
