<svg width="165" height="165" viewBox="0 0 165 165" fill="none" xmlns="http://www.w3.org/2000/svg">
<path d="M103.05 108.337C124.05 108.975 135.563 93.9373 134.55 87.5623C134.063 84.4873 130.838 83.4373 127.313 83.1748C135.263 74.8498 138.188 63.8623 135.15 59.1373C132.788 55.4998 128.288 56.2123 124.35 57.8623C131.775 37.7248 107.4 14.1748 107.4 14.1748C109.313 50.3248 86.0629 80.9623 68.6254 78.4498C51.1879 75.9373 53.3629 59.8498 42.0754 58.5373C30.7879 57.2248 28.3879 62.6623 25.2004 67.2373C22.0129 71.7748 16.2754 74.7373 16.2754 74.7373C16.2754 74.7373 26.1004 74.9998 28.6879 80.8498C31.2754 86.6998 34.7629 131.362 88.6129 129.375C88.6129 129.375 109.95 149.662 121.725 150.75C133.5 151.837 148.838 118.2 148.838 118.2C148.838 118.2 120.525 124.275 103.05 108.337Z" fill="white"/>
<path d="M122.213 152.175C121.988 152.175 121.763 152.175 121.538 152.137C110.213 151.087 91.2 133.725 88.05 130.762C67.7625 131.4 52.125 125.475 41.625 113.25C33 103.162 30 91.3873 28.425 85.0498C28.0125 83.3623 27.675 82.0498 27.375 81.4123C25.5375 77.2498 18.675 76.1998 16.2 76.1248C15.5625 76.1248 15.0375 75.6748 14.8875 75.0373C14.7375 74.4373 15.0375 73.7998 15.6 73.4998C15.6375 73.4623 21.075 70.6123 24.0375 66.4123C24.3375 65.9998 24.6375 65.5498 24.9375 65.0998C27.8625 60.7498 31.1625 55.8373 42.225 57.1123C47.925 57.7873 50.5125 61.6873 53.25 65.8498C56.475 70.7248 59.775 75.7498 68.8125 77.0248C73.9875 77.7748 79.9875 75.2998 85.725 70.0123C96.75 59.9248 107.288 38.7748 106.013 14.1748C105.975 13.6123 106.313 13.0873 106.838 12.8248C107.363 12.5623 107.963 12.6748 108.375 13.0873C108.638 13.3498 114.675 19.1998 119.85 27.6748C126.15 37.9123 128.4 47.4748 126.45 55.6123C132.038 54.0748 134.888 56.1373 136.313 58.3498C139.65 63.5248 136.8 73.9498 130.088 82.0873C134.325 83.0248 135.638 85.3123 135.938 87.2623C136.425 90.3373 134.663 94.4998 131.25 98.3998C128.4 101.662 120.6 108.825 106.913 109.612C123.75 121.912 148.275 116.85 148.538 116.812C149.063 116.7 149.588 116.887 149.925 117.3C150.263 117.712 150.338 118.275 150.113 118.762C150.075 118.837 146.175 127.35 140.85 135.6C133.763 146.625 127.5 152.175 122.213 152.175ZM88.5375 127.987C88.875 127.987 89.25 128.137 89.475 128.362C89.7 128.55 110.588 148.35 121.763 149.362C125.963 149.737 131.888 144.337 138.413 134.175C141.938 128.7 144.825 123.112 146.325 120.037C143.4 120.45 138.338 120.937 132.338 120.637C119.925 120 109.425 116.1 102.038 109.35C101.625 108.975 101.475 108.337 101.7 107.812C101.925 107.287 102.45 106.95 103.013 106.95C117.9 107.4 126.188 99.8998 129.038 96.6373C132.45 92.7748 133.35 89.4373 133.088 87.7873C132.788 85.9123 130.8 84.8248 127.125 84.5998C126.6 84.5623 126.113 84.2248 125.925 83.6998C125.738 83.2123 125.85 82.6123 126.225 82.2373C129.825 78.4873 132.563 73.9123 133.95 69.4123C135.188 65.3998 135.15 61.8748 133.913 59.9248C132.375 57.5248 129.3 57.2998 124.8 59.1748C124.275 59.3998 123.713 59.2873 123.3 58.9123C122.888 58.5373 122.775 57.9373 122.963 57.4123C126.6 47.5498 121.95 36.6748 117.413 29.2498C114.375 24.3373 111 20.2498 108.788 17.7748C108.863 28.1248 106.95 38.5123 103.2 48.1123C99.4125 57.8248 93.825 66.3373 87.4875 72.1123C81.1125 77.9248 74.2875 80.6623 68.2875 79.7998C58.05 78.3373 54.0375 72.2623 50.8125 67.3873C48.225 63.4873 46.2 60.3748 41.775 59.8873C32.4 58.7998 29.85 62.6248 27.1125 66.6373C26.8125 67.0873 26.5125 67.5373 26.2125 67.9873C24.4875 70.4623 22.0875 72.4498 20.175 73.8373C23.55 74.5498 28.05 76.2373 29.85 80.2498C30.225 81.0748 30.5625 82.4623 31.05 84.3373C34.1625 96.7123 42.4875 129.637 88.4625 127.95C88.5375 127.987 88.5375 127.987 88.5375 127.987Z" fill="#221F1F"/>
<path d="M68.5498 78.4874C77.8123 79.8374 88.7248 71.8124 96.6373 58.5374C96.4123 58.6874 96.1873 58.7999 95.9248 58.9499C100.05 37.8749 72.1873 18.5249 72.1873 18.5249C77.1373 41.3249 71.3998 63.5624 61.9873 76.5374C63.8248 77.4374 65.9623 78.1124 68.5498 78.4874Z" fill="white"/>
<path d="M70.6496 79.9872C69.8996 79.9872 69.1496 79.9497 68.3996 79.8372C65.8121 79.4622 63.5246 78.7872 61.4246 77.8122C61.0496 77.6247 60.7871 77.2872 60.6746 76.9122C60.5621 76.4997 60.6371 76.0872 60.8996 75.7497C68.8121 64.8372 76.1996 43.3497 70.8746 18.8247C70.7621 18.2622 70.9872 17.6997 71.4747 17.3622C71.9622 17.0622 72.5621 17.0622 73.0496 17.3622C73.3496 17.5497 80.2496 22.3872 86.7371 29.8872C94.9121 39.3747 98.6621 48.8622 97.6496 57.4497C97.6871 57.4497 97.6871 57.4872 97.7247 57.4872C98.1747 57.9372 98.2496 58.6122 97.9122 59.1747C90.0746 72.2622 79.8371 79.9872 70.6496 79.9872ZM68.7746 77.0997C76.9496 78.2622 86.9996 71.2872 94.6121 59.2497C94.5746 59.0622 94.5746 58.8747 94.6121 58.6872C97.7246 42.7122 81.1122 27.3747 74.2872 21.8622C77.5121 41.1372 73.6871 61.8372 64.1246 75.9372C65.5496 76.4622 67.0871 76.8372 68.7746 77.0997Z" fill="#221F1F"/>
<path d="M37.6503 70.9124C38.603 70.9124 39.3753 70.1401 39.3753 69.1874C39.3753 68.2347 38.603 67.4624 37.6503 67.4624C36.6976 67.4624 35.9253 68.2347 35.9253 69.1874C35.9253 70.1401 36.6976 70.9124 37.6503 70.9124Z" fill="#221F1F"/>
</svg>
