<svg width="220" height="220" viewBox="0 0 220 220" fill="none" xmlns="http://www.w3.org/2000/svg">
<path d="M80.3502 183.75C79.0002 183.75 77.7502 183.4 76.6002 182.75C74.8502 181.75 73.8502 180.4 73.2502 178.9C73.0502 178.9 72.8002 178.95 72.6002 178.95C71.8502 178.95 71.0502 178.85 70.3502 178.6C64.5502 176.75 64.2502 170 64.5002 165.8C59.3002 159.25 53.5002 148.5 52.1502 137.15C46.3502 131.8 39.7502 122.15 37.9002 110.3C34.3502 107 32.9502 102.3 34.5502 98.3C35.2502 96.45 37.7002 92.2 44.8002 92.2C45.6502 92.2 46.5502 92.25 47.4502 92.4C58.3002 83.35 82.4502 68.05 113.05 60.95C113.8 59.85 114.8 58.8 115.85 57.95C118.2 56 120.75 55 123.3 55C123.85 55 124.35 55.05 124.85 55.15C129.5 55.95 133 60.75 133.35 66.5C135.4 68.95 138.15 72.55 140.75 76.6C141.4 76.6 142.05 76.55 142.7 76.55C143.7 75.65 144.85 74.85 146.05 74.2C148 73.15 150 72.65 151.9 72.65C153.15 72.65 154.35 72.85 155.4 73.3C159.8 75.05 162.25 80.5 161.4 86.2C163 89.2 165.15 93.8 167 98.75C169.45 105.4 170.65 111 170.7 115.55C172.15 117.95 174.25 121.8 176.1 126.15C178.15 131 179.15 135 179.25 138.35C184.75 145.5 184 150.25 182.25 153.05C181.05 154.95 178.6 157.25 173.6 157.25C172.15 157.25 170.55 157.05 168.65 156.65C151.3 164.85 117 177.8 90.9002 177.95C86.9502 181.85 83.5502 183.75 80.3502 183.75Z" fill="white"/>
<path d="M185.9 75.8C184.95 75.8 183.95 75.55 183.1 75.15L174.15 70.8C171.9 69.7 170.5 67.35 170.55 64.85C170.6 62.35 172.1 60.1 174.4 59.1L177.5 57.75C177.2 57.3 176.95 56.8 176.75 56.25C176.2 54.6 176.3 52.85 177.05 51.3C178.1 49.1 180.4 47.7 182.85 47.7C183.8 47.7 184.8 47.95 185.65 48.35L194.6 52.7C196.85 53.8 198.3 56.15 198.2 58.65C198.15 61.15 196.65 63.4 194.35 64.4L191.25 65.8C191.55 66.25 191.8 66.75 192 67.3C192.55 68.95 192.45 70.7 191.7 72.25C190.6 74.4 188.35 75.8 185.9 75.8Z" fill="white"/>
<path d="M72.6 174.45C72.3 174.45 72 174.4 71.7 174.3C69.35 173.55 68.6 170.55 69.1 164.3C64.8 159.3 57.35 147.65 56.45 134.9C51.75 131 43.6 121.2 42.1 107.9C39.15 105.9 37.7 102.55 38.7 99.95C39.4 98.2 41.6 95.6 48.75 97.2C58.3 88.7 83.4 72 115.95 64.9C116.5 63.6 117.65 62.3 118.75 61.4C120.55 59.9 122.45 59.25 124.1 59.55C126.7 60 129.2 63.6 128.9 68.15C133 72.75 142.95 86.05 144.4 95.4C146.65 97.8 156.7 108.75 157.5 116.25C163.9 121.2 163.95 124.5 163.4 126.05C162.25 129.3 157.45 129.55 153.6 129.4C139.2 140.5 106.45 161.9 80.6 166.85C77.55 171.85 74.9 174.45 72.6 174.45ZM44.8 100.35C43.05 100.35 42.3 100.85 42.15 101.25C41.85 102.05 42.7 104.05 44.75 105.15L45.65 105.6L45.75 106.6C46.9 119.8 55.2 129.3 59.4 132.45L60.1 132.95L60.15 133.8C60.75 146.35 68.45 157.95 72.4 162.35L72.95 162.95L72.85 163.75C72.45 168 72.7 169.75 72.95 170.45C73.9 169.8 75.75 167.7 77.85 164.1L78.3 163.35L79.15 163.2C104.7 158.65 137.95 136.8 151.9 125.9L152.45 125.45L153.15 125.5C159.1 125.85 159.95 124.65 159.95 124.65C160.15 124.05 158.6 121.5 154.65 118.6L153.9 118.05V117.1C153.9 112.15 146.2 102.4 141.35 97.4L140.9 96.95L140.85 96.3C139.9 87.9 129.75 74.2 125.7 69.9L125.1 69.25L125.25 68.35C125.7 65.1 124.1 63.15 123.55 63C122.1 62.75 119.6 65.45 119.4 66.35V67.8L117.95 68.1C84.8 75.1 59.45 92.3 50.7 100.4L49.95 101.1L49 100.85C47.1 100.55 45.8 100.35 44.8 100.35Z" fill="#221F1F"/>
<path fill-rule="evenodd" clip-rule="evenodd" d="M193.15 86.5L191.45 89.9C191.45 89.9 186.7 92.75 187 92.75C187.3 92.75 191.55 95.4 191.55 95.4L193.35 98.9L196 94.85L199.9 92.4L195.15 89.85L193.15 86.5Z" fill="#EDD286"/>
<path d="M145.85 82.75C111.2 82.75 82.4501 94.7 72.4001 100.7C61.7001 95.4 61.2001 103.35 65.5501 107.05C63.8501 121 70.5001 132.55 74.0001 136.6C71.9001 149.7 77.3501 163.2 80.3501 168.3C75.7001 183.1 83.7001 176.55 88.2501 171.45C114.9 172.3 152.55 157.35 168.05 149.8C182 153.6 177.05 145.05 172.8 140.3C174.05 134.4 167.7 122.35 164.35 117.05C165.2 108.2 158.05 92.4 154.7 86.95C156.1 83.1 154.7 79.65 153.1 79.05C150.5 78 146.25 81.2 145.85 82.75Z" fill="#9A92FF"/>
<path d="M67.7 99.05C67.8 100.8 68.65 99.7 70.35 101.1C67.9 118.25 76.25 130.95 80.15 135.25C78.1 149.45 86.9 165.25 91.55 170.25C91.25 171.25 87.1 172.1 86.9 172.95C82.3 177.65 76.15 181.7 80.35 168.3C77.35 163.2 71.9 149.7 74 136.6C70.5 132.55 63.85 120.95 65.55 107.05C62 104 61.7 98.1 67.7 99.05Z" fill="#7C72F3"/>
<path d="M123.7 121.3C115.1 118.05 106.2 116.25 100.65 115.5C99.7497 115.4 98.9497 116 98.8497 116.9C98.7497 117.8 99.3497 118.6 100.25 118.7C105.6 119.4 114.25 121.2 122.6 124.3C131 127.45 138.85 131.85 143 137.55C143.5 138.25 144.5 138.45 145.25 137.9C145.95 137.4 146.15 136.4 145.6 135.65C140.85 129.15 132.25 124.5 123.7 121.3Z" fill="#221F1F"/>
<path d="M192.55 60.25C193.25 59.95 193.7 59.25 193.7 58.5C193.7 57.75 193.3 57.05 192.6 56.7L183.65 52.35C182.7 51.9 181.5 52.3 181.05 53.25C180.55 54.2 180.95 55.4 181.95 55.85L187.1 58.35L176.15 63.2C175.45 63.5 175 64.2 175 64.95C175 65.7 175.4 66.4 176.1 66.75L185.05 71.1C186 71.55 187.2 71.15 187.65 70.2C188.1 69.25 187.75 68.05 186.75 67.6L181.6 65.1L192.55 60.25Z" fill="#221F1F"/>
<path d="M153.9 50.95C152.35 50.95 150.9 50.2 149.95 48.9C148.85 47.4 148.75 45.35 149.7 43.7L156.7 31.3L152 32.2C150.75 32.45 149.45 32.15 148.4 31.45C147.35 30.7 146.6 29.6 146.4 28.35C145.9 25.75 147.65 23.2 150.25 22.7L165.15 19.9C167 19.55 168.9 20.3 169.95 21.85C171.05 23.35 171.15 25.4 170.2 27.05L163.2 39.45L167.9 38.55C169.15 38.3 170.45 38.6 171.5 39.3C172.55 40.05 173.3 41.15 173.5 42.4C174 45 172.25 47.55 169.65 48.05L154.75 50.85C154.5 50.95 154.2 50.95 153.9 50.95ZM163.85 26.25L152.95 45.6C152.75 46 152.75 46.45 153 46.85C153.25 47.2 153.7 47.4 154.1 47.3L169 44.5C169.6 44.4 170 43.8 169.9 43.15C169.85 42.85 169.65 42.6 169.4 42.4C169.15 42.25 168.85 42.15 168.55 42.25L156.05 44.6L167 25.25C167.2 24.85 167.2 24.4 166.95 24C166.7 23.65 166.25 23.45 165.85 23.55L150.95 26.35C150.35 26.45 149.95 27.05 150.05 27.7C150.1 28 150.3 28.25 150.5 28.45C150.75 28.6 151.05 28.7 151.35 28.65L163.85 26.25Z" fill="#221F1F"/>
<path d="M153.9 55.45C150.9 55.45 148.05 54 146.3 51.5C144.2 48.55 144 44.65 145.8 41.5L148.65 36.45C147.65 36.2 146.75 35.75 145.9 35.15C143.85 33.75 142.45 31.6 142 29.15C141.05 24.1 144.4 19.2 149.45 18.25L164.35 15.45C164.9 15.35 165.5 15.3 166.05 15.3C169.05 15.3 171.9 16.75 173.65 19.25C175.75 22.2 175.95 26.1 174.15 29.25L171.3 34.3C172.3 34.55 173.2 35 174.05 35.6C176.1 37 177.5 39.15 177.95 41.6C178.9 46.65 175.55 51.55 170.5 52.5L155.6 55.3C155.05 55.4 154.5 55.45 153.9 55.45Z" fill="white"/>
<path d="M153.9 50.95C152.35 50.95 150.9 50.2 149.95 48.9C148.85 47.4 148.75 45.35 149.7 43.7L156.7 31.3L152 32.2C150.75 32.45 149.45 32.15 148.4 31.45C147.35 30.7 146.6 29.6 146.4 28.35C145.9 25.75 147.65 23.2 150.25 22.7L165.15 19.9C167 19.55 168.9 20.3 169.95 21.85C171.05 23.35 171.15 25.4 170.2 27.05L163.2 39.45L167.9 38.55C169.15 38.3 170.45 38.6 171.5 39.3C172.55 40.05 173.3 41.15 173.5 42.4C174 45 172.25 47.55 169.65 48.05L154.75 50.85C154.5 50.95 154.2 50.95 153.9 50.95ZM163.85 26.25L152.95 45.55C152.75 45.95 152.75 46.4 153 46.8C153.25 47.15 153.7 47.35 154.1 47.25L169 44.45C169.6 44.35 170 43.75 169.9 43.1C169.85 42.8 169.7 42.55 169.4 42.35C169.15 42.2 168.85 42.1 168.55 42.2L156.05 44.55L167 25.25C167.2 24.85 167.2 24.4 166.95 24C166.7 23.65 166.25 23.45 165.85 23.55L150.95 26.35C150.35 26.45 149.95 27.05 150.05 27.7C150.1 28 150.25 28.25 150.5 28.45C150.75 28.6 151.05 28.7 151.35 28.6L163.85 26.25Z" fill="#221F1F"/>
<path d="M196.85 36.95C197.5 36.9 198.1 36.5 198.35 35.9C198.6 35.3 198.5 34.6 198 34.1L192.1 27.75C191.45 27.05 190.4 27.05 189.7 27.65C189 28.25 188.95 29.35 189.6 30.05L193 33.7L182.6 34.25C181.95 34.3 181.35 34.7 181.1 35.3C180.85 35.9 181 36.6 181.45 37.1L187.35 43.45C188 44.15 189.05 44.15 189.75 43.55C190.45 42.9 190.5 41.85 189.85 41.15L186.45 37.5L196.85 36.95Z" fill="#9E9E9E"/>
<path d="M35.9502 41.55C39.3002 41.55 45.4002 35.45 45.4002 32.1C45.4002 35.45 51.5002 41.55 54.8502 41.55C51.5002 41.55 45.4002 47.65 45.4002 51C45.4002 47.65 39.3002 41.55 35.9502 41.55Z" fill="#F1C958"/>
<path fill-rule="evenodd" clip-rule="evenodd" d="M34.7002 41.55C34.7002 40.85 35.3002 40.25 36.0002 40.25C36.5002 40.25 37.2502 40 38.2002 39.45C39.1502 38.9 40.1502 38.1 41.0502 37.2C41.9502 36.3 42.7502 35.3 43.3002 34.35C43.9002 33.4 44.1002 32.6 44.1002 32.15C44.1002 31.45 44.7002 30.85 45.4002 30.85C46.1002 30.85 46.7002 31.45 46.7002 32.15C46.7002 32.65 46.9502 33.4 47.5002 34.35C48.0502 35.3 48.8502 36.3 49.7502 37.2C50.6502 38.1 51.6502 38.9 52.6002 39.45C53.5502 40.05 54.3502 40.25 54.8002 40.25C55.5002 40.25 56.1002 40.85 56.1002 41.55C56.1002 42.25 55.5002 42.85 54.8002 42.85C54.3002 42.85 53.5502 43.1 52.6002 43.65C51.6502 44.2 50.6502 45 49.7502 45.9C48.8502 46.8 48.0502 47.8 47.5002 48.75C46.9002 49.7 46.7002 50.5 46.7002 50.95C46.7002 51.65 46.1002 52.25 45.4002 52.25C44.7002 52.25 44.1002 51.65 44.1002 50.95C44.1002 50.45 43.8502 49.7 43.3002 48.7C42.7502 47.75 41.9502 46.75 41.0502 45.85C40.1502 44.95 39.1502 44.15 38.2002 43.6C37.2502 43 36.4502 42.8 36.0002 42.8C35.2502 42.85 34.7002 42.25 34.7002 41.55ZM39.7002 41.55C40.8002 42.25 41.9002 43.1 42.8502 44.1C43.8502 45.1 44.7502 46.2 45.4002 47.3C46.1002 46.2 47.0002 45.1 47.9502 44.1C48.9502 43.1 50.0502 42.2 51.1502 41.55C50.0502 40.85 48.9502 39.95 47.9502 39C46.9502 38 46.0502 36.9 45.4002 35.8C44.7002 36.9 43.8002 38 42.8502 39C41.8502 40 40.8002 40.9 39.7002 41.55Z" fill="#221F1F"/>
<path fill-rule="evenodd" clip-rule="evenodd" d="M185.1 92.7C185.1 92 185.7 91.4 186.4 91.4C186.7 91.4 187.2 91.25 187.9 90.85C188.55 90.45 189.3 89.85 189.95 89.2C190.6 88.55 191.2 87.8 191.6 87.15C192 86.45 192.15 85.95 192.15 85.65C192.15 84.95 192.75 84.35 193.45 84.35C194.15 84.35 194.75 84.95 194.75 85.65C194.75 85.95 194.9 86.45 195.3 87.15C195.7 87.8 196.3 88.55 196.95 89.2C197.6 89.85 198.35 90.45 199 90.85C199.7 91.25 200.2 91.4 200.5 91.4C201.2 91.4 201.8 92 201.8 92.7C201.8 93.4 201.2 94 200.5 94C200.25 94 199.7 94.15 199 94.55C198.35 94.95 197.6 95.55 196.95 96.2C196.3 96.85 195.7 97.6 195.3 98.25C194.9 98.95 194.75 99.45 194.75 99.75C194.75 100.45 194.15 101.05 193.45 101.05C192.75 101.05 192.15 100.45 192.15 99.75C192.15 99.45 192 98.95 191.6 98.25C191.2 97.6 190.6 96.85 189.95 96.2C189.3 95.55 188.55 94.95 187.9 94.55C187.2 94.15 186.7 94 186.4 94C185.7 94 185.1 93.45 185.1 92.7ZM189.8 92.7C190.5 93.2 191.2 93.75 191.8 94.35C192.4 94.95 193 95.65 193.5 96.35C194 95.65 194.55 94.95 195.2 94.35C195.8 93.75 196.5 93.15 197.2 92.65C196.5 92.15 195.8 91.6 195.2 90.95C194.6 90.35 194 89.65 193.5 88.95C193 89.65 192.45 90.35 191.8 90.95C191.15 91.65 190.5 92.25 189.8 92.7Z" fill="#221F1F"/>
<path d="M80.3498 179.25C79.7998 179.25 79.2998 179.1 78.7998 178.85C76.6498 177.65 76.4998 174.55 78.2998 168.55C75.0998 162.75 70.2498 149.85 71.9998 137.2C68.1998 132.4 62.2498 121.15 63.5498 107.8C61.0998 105.25 60.3498 101.65 61.8998 99.3C62.9498 97.75 65.5998 95.65 72.2998 98.65C83.3998 92.3 111.45 81.2 144.7 80.95C145.5 79.8 146.9 78.75 148.15 78.1C150.2 77 152.2 76.75 153.75 77.4C156.2 78.4 157.9 82.4 156.65 86.8C159.75 92.15 166.7 107.2 166.15 116.65C167.25 118.45 169.8 122.75 171.9 127.8C174 132.85 174.95 136.9 174.65 139.8C179.9 145.95 179.25 149.2 178.4 150.6C176.6 153.5 171.85 152.8 168.15 151.85C152.05 159.6 116.55 173.4 90.3498 173.4C89.8998 173.4 89.3998 173.4 88.9498 173.4C85.4498 177.25 82.5498 179.25 80.3498 179.25ZM66.4998 100.8C65.6498 100.8 65.1998 101.05 65.0498 101.3C64.5498 102.05 64.9998 104.15 66.7498 105.65L67.4998 106.3L67.3998 107.3C65.7998 120.45 71.9498 131.45 75.3998 135.45L75.9498 136.1L75.7998 136.95C73.7998 149.4 78.8998 162.3 81.8998 167.4L82.2998 168.1L82.0498 168.9C80.7498 172.95 80.6998 174.75 80.7498 175.5C81.7998 175.05 84.0498 173.4 86.8498 170.3L87.4498 169.65L88.2998 169.7C114.25 170.5 151.25 156 167.2 148.25L167.85 147.95L168.5 148.15C174.25 149.7 175.3 148.7 175.3 148.7C175.65 148.15 174.6 145.3 171.35 141.65L170.75 140.95L170.95 140.05C172 135.2 166.45 124.05 162.75 118.2L162.4 117.65L162.45 117C163.25 108.55 156.15 93.1 153.1 88.05L152.65 87.3L152.95 86.45C154.05 83.4 152.9 81.15 152.4 80.9C151.05 80.35 148 82.5 147.6 83.35L147.3 84.75H145.8C111.95 84.75 83.5498 96.3 73.2998 102.45L72.4498 102.95L71.5498 102.5C69.1998 101.2 67.5498 100.8 66.4998 100.8Z" fill="#221F1F"/>
</svg>
