<svg width="165" height="165" viewBox="0 0 165 165" fill="none" xmlns="http://www.w3.org/2000/svg">
<path d="M18.5103 38.2504L16.707 48.48L117.341 66.2197L119.145 55.9901L18.5103 38.2504Z" fill="white"/>
<path d="M117.337 67.8001C117.262 67.8001 117.15 67.8001 117.075 67.7626L16.4248 50.0251C15.5998 49.8751 15.0373 49.0876 15.1873 48.2251L16.9873 37.9876C17.0623 37.5751 17.2873 37.2376 17.6248 36.9751C17.9623 36.7501 18.3748 36.6376 18.7873 36.7126L119.437 54.4501C120.262 54.6001 120.825 55.3876 120.675 56.2501L118.875 66.4876C118.8 66.9001 118.575 67.2376 118.237 67.5001C117.975 67.6876 117.637 67.8001 117.337 67.8001ZM18.4873 47.2501L116.1 64.4626L117.375 57.2626L19.7623 40.0501L18.4873 47.2501Z" fill="#221F1F"/>
<path d="M98.2498 80.1001C102.45 80.8501 106.462 78.0001 107.212 73.8376L112.237 45.4501C112.987 41.2501 110.137 37.2376 105.975 36.4876C101.775 35.7376 97.7623 38.5876 97.0123 42.7501L91.9873 71.1376C91.2373 75.3376 94.0498 79.3501 98.2498 80.1001Z" fill="white"/>
<path d="M99.6 81.7501C99.075 81.7501 98.5125 81.7126 97.9875 81.6001C92.9625 80.7001 89.5875 75.9001 90.45 70.8751L95.475 42.4876C95.8875 40.0501 97.275 37.9501 99.3 36.5251C101.325 35.1001 103.8 34.5376 106.237 34.9876C111.262 35.8876 114.637 40.6876 113.775 45.7126L108.75 74.1001C108.337 76.5376 106.95 78.6376 104.925 80.0626C103.312 81.1876 101.475 81.7501 99.6 81.7501ZM104.587 37.8751C103.312 37.8751 102.112 38.2501 101.025 39.0001C99.675 39.9376 98.775 41.3626 98.475 42.9751L93.45 71.3626C92.85 74.7376 95.1 77.9251 98.475 78.5251C100.087 78.8251 101.737 78.4501 103.087 77.4751C104.437 76.5376 105.337 75.1126 105.637 73.5001L110.662 45.1126C111.262 41.7376 109.012 38.5501 105.637 37.9501C105.3 37.9126 104.962 37.8751 104.587 37.8751Z" fill="#221F1F"/>
<path d="M89.4003 90.4128C92.7003 90.9753 95.8503 88.7628 96.4128 85.5003L106.05 30.7503C106.613 27.4503 104.4 24.3003 101.138 23.7378C97.8378 23.1753 94.6878 25.3878 94.1253 28.6503L84.4878 83.4003C83.9253 86.6628 86.1378 89.8503 89.4003 90.4128Z" fill="white"/>
<path d="M90.4873 92.0625C90.0373 92.0625 89.6248 92.025 89.1748 91.95C85.0498 91.2375 82.2748 87.2625 83.0248 83.1375L92.6623 28.3875C92.9998 26.4001 94.1248 24.6376 95.7748 23.4751C97.4248 22.3126 99.4498 21.8626 101.437 22.2001C105.562 22.9126 108.337 26.8876 107.587 31.0126L97.9498 85.7625C97.3123 89.4375 94.0873 92.0625 90.4873 92.0625ZM100.125 25.2001C99.2248 25.2001 98.3248 25.5001 97.5373 26.0251C96.5623 26.7376 95.8873 27.7501 95.6623 28.95L86.0248 83.7C85.5748 86.1375 87.2248 88.5 89.6998 88.95C92.1373 89.4 94.4998 87.75 94.9498 85.275L104.587 30.5251C105.037 28.0876 103.387 25.7251 100.912 25.2751C100.65 25.2001 100.387 25.2001 100.125 25.2001Z" fill="#221F1F"/>
<path d="M29.9246 68.0246C25.7246 67.2746 22.9121 63.2621 23.6621 59.0621L28.6871 30.6746C29.4371 26.4746 33.4496 23.6621 37.6496 24.4121C41.8496 25.1621 44.6621 29.1746 43.9121 33.3746L38.8871 61.7621C38.1371 65.9621 34.0871 68.7746 29.9246 68.0246Z" fill="white"/>
<path d="M31.2749 69.7123C30.7499 69.7123 30.1874 69.6748 29.6624 69.5623C27.2249 69.1498 25.1249 67.7623 23.6999 65.7373C22.2749 63.7123 21.7124 61.2373 22.1624 58.7998L27.1874 30.4123C28.0874 25.3873 32.8874 22.0123 37.9124 22.8748C40.3499 23.2873 42.4499 24.6748 43.8749 26.6998C45.2999 28.7248 45.8624 31.1998 45.4124 33.6373L40.3874 62.0248C39.5999 66.5248 35.6624 69.7123 31.2749 69.7123ZM30.1874 66.5248C33.5624 67.1248 36.7499 64.8748 37.3499 61.4998L42.3749 33.1123C42.6749 31.4998 42.2999 29.8498 41.3249 28.4998C40.3874 27.1498 38.9624 26.2498 37.3499 25.9498C33.9749 25.3498 30.7874 27.5998 30.1874 30.9748L25.1624 59.3623C24.8624 60.9748 25.2374 62.6248 26.2124 63.9748C27.1499 65.3248 28.5749 66.2248 30.1874 66.5248Z" fill="#221F1F"/>
<path d="M34.6875 80.7752C31.3875 80.2127 29.175 77.0252 29.775 73.7627L39.4125 19.0127C39.975 15.7127 43.1625 13.5002 46.425 14.1002C49.725 14.6627 51.9375 17.8502 51.3375 21.1127L41.7 75.8627C41.1 79.1252 37.95 81.3377 34.6875 80.7752Z" fill="white"/>
<path d="M35.7372 82.3875C35.2872 82.3875 34.8372 82.35 34.4247 82.275C32.4372 81.9375 30.6747 80.8125 29.5122 79.1625C28.3497 77.5125 27.8997 75.4875 28.2372 73.5L37.8747 18.75C38.5872 14.625 42.5622 11.85 46.6872 12.6C48.6747 12.9375 50.4372 14.0625 51.5997 15.7125C52.7622 17.3625 53.2122 19.3875 52.8747 21.375L43.2372 76.125C42.8997 78.1125 41.7747 79.875 40.1247 81.0375C38.7747 81.9375 37.2747 82.3875 35.7372 82.3875ZM34.9497 79.2375C36.1122 79.4625 37.3122 79.1625 38.3247 78.4875C39.2997 77.775 39.9747 76.7625 40.1997 75.5625L49.8372 20.8125C50.0622 19.6125 49.7622 18.45 49.0872 17.4375C48.3747 16.4625 47.3622 15.7875 46.1622 15.5625C43.7247 15.1125 41.3622 16.7625 40.9122 19.2375L31.2747 73.9875C31.0497 75.1875 31.3497 76.35 32.0247 77.3625C32.7372 78.375 33.7497 79.05 34.9497 79.2375Z" fill="#221F1F"/>
<path d="M146.482 98.7563L45.8477 116.496L47.6509 126.726L148.285 108.986L146.482 98.7563Z" fill="white"/>
<path d="M47.6625 128.288C47.3625 128.288 47.025 128.175 46.7625 128.025C46.425 127.8 46.2 127.425 46.125 127.013L44.325 116.775C44.175 115.95 44.7375 115.125 45.5625 114.975L146.213 97.2376C147.038 97.0876 147.863 97.6501 148.013 98.4751L149.813 108.713C149.888 109.125 149.775 109.538 149.55 109.875C149.325 110.213 148.95 110.438 148.538 110.513L47.925 128.25C47.85 128.288 47.7375 128.288 47.6625 128.288ZM47.625 117.75L48.9 124.95L146.513 107.738L145.238 100.538L47.625 117.75Z" fill="#221F1F"/>
<path d="M66.75 140.587C62.55 141.337 58.5375 138.487 57.7875 134.325L52.7625 105.937C52.0125 101.737 54.8625 97.7249 59.025 96.9749C63.225 96.2249 67.2375 99.0749 67.9875 103.237L73.0125 131.625C73.7625 135.825 70.95 139.837 66.75 140.587Z" fill="white"/>
<path d="M65.4004 142.237C63.5254 142.237 61.6879 141.675 60.0754 140.55C58.0504 139.125 56.7004 136.987 56.2504 134.587L51.2254 106.2C50.3254 101.175 53.7004 96.3374 58.7629 95.4749C61.2004 95.0624 63.6379 95.5874 65.7004 97.0124C67.7254 98.4374 69.0753 100.575 69.5254 102.975L74.5504 131.362C75.4504 136.387 72.0754 141.225 67.0129 142.087C66.4879 142.2 65.9629 142.237 65.4004 142.237ZM60.4129 98.3999C60.0379 98.3999 59.7004 98.4374 59.3254 98.5124C55.9504 99.1124 53.7004 102.337 54.3004 105.675L59.3254 134.062C59.6254 135.675 60.5254 137.1 61.8754 138.037C63.2254 138.975 64.8754 139.35 66.4879 139.087C69.8629 138.487 72.1129 135.262 71.5129 131.925L66.4879 103.5C66.1879 101.887 65.2879 100.462 63.9379 99.5249C62.8879 98.7749 61.6504 98.3999 60.4129 98.3999Z" fill="#221F1F"/>
<path d="M75.5987 150.9C72.2987 151.463 69.1487 149.25 68.5862 145.988L58.9487 91.2376C58.3862 87.9376 60.5987 84.7876 63.8612 84.2251C67.1612 83.6626 70.3112 85.8751 70.8737 89.1376L80.5112 143.888C81.0737 147.188 78.8612 150.338 75.5987 150.9Z" fill="white"/>
<path d="M74.5116 152.55C72.9741 152.55 71.4741 152.062 70.1616 151.162C68.5116 150 67.3866 148.237 67.0491 146.25L57.4116 91.5C56.6991 87.3749 59.4366 83.4375 63.5616 82.6875C67.6866 81.975 71.6241 84.7124 72.3741 88.8374L82.0116 143.587C82.7241 147.712 79.9866 151.65 75.8616 152.4C75.4116 152.512 74.9616 152.55 74.5116 152.55ZM64.8741 85.6875C64.6116 85.6875 64.3491 85.7249 64.0866 85.7624C61.6491 86.2124 59.9991 88.5374 60.4116 91.0124L70.0491 145.762C70.2741 146.962 70.9116 147.975 71.9241 148.687C72.8991 149.4 74.0991 149.662 75.2991 149.437C77.7366 148.987 79.3866 146.662 78.9741 144.187L69.3366 89.4374C68.9241 87.2249 67.0116 85.6875 64.8741 85.6875Z" fill="#221F1F"/>
<path d="M135.075 128.55C139.275 127.8 142.088 123.787 141.338 119.587L136.313 91.2C135.563 87 131.55 84.1875 127.35 84.9375C123.15 85.6875 120.338 89.7 121.088 93.9L126.113 122.287C126.863 126.45 130.913 129.262 135.075 128.55Z" fill="white"/>
<path d="M133.725 130.2C129.3 130.2 125.4 127.013 124.613 122.55L119.588 94.1251C119.175 91.6876 119.7 89.2501 121.125 87.1876C122.55 85.1626 124.688 83.8126 127.088 83.3626C132.113 82.4626 136.95 85.8376 137.813 90.9001L142.838 119.288C143.25 121.725 142.725 124.163 141.3 126.225C139.875 128.25 137.738 129.6 135.338 130.05C134.813 130.163 134.288 130.2 133.725 130.2ZM128.738 86.3251C128.4 86.3251 128.025 86.3626 127.65 86.4376C126.038 86.7376 124.613 87.6376 123.675 88.9876C122.738 90.3376 122.363 91.9876 122.625 93.6001L127.65 121.988C128.25 125.363 131.475 127.613 134.813 127.013C136.425 126.713 137.85 125.813 138.788 124.463C139.725 123.113 140.1 121.463 139.838 119.85L134.813 91.4626C134.288 88.4626 131.7 86.3251 128.738 86.3251Z" fill="#221F1F"/>
<path d="M130.312 141.262C133.612 140.7 135.824 137.512 135.224 134.25L125.587 79.5C125.024 76.2 121.837 73.9875 118.574 74.5875C115.274 75.15 113.062 78.3375 113.662 81.6L123.299 136.35C123.899 139.612 127.049 141.825 130.312 141.262Z" fill="white"/>
<path d="M129.262 142.913C127.724 142.913 126.224 142.425 124.912 141.525C123.262 140.363 122.137 138.6 121.799 136.613L112.162 81.8627C111.824 79.8752 112.274 77.8502 113.437 76.2002C114.599 74.5502 116.362 73.4252 118.349 73.0877C120.337 72.7502 122.362 73.2003 124.012 74.3628C125.662 75.5253 126.787 77.2877 127.124 79.2752L136.762 134.025C137.099 136.013 136.649 138.038 135.487 139.688C134.324 141.338 132.562 142.463 130.574 142.8C130.162 142.875 129.712 142.913 129.262 142.913ZM119.624 76.0503C119.362 76.0503 119.099 76.0877 118.837 76.1252C117.637 76.3502 116.624 76.9877 115.912 78.0002C115.199 79.0127 114.937 80.1752 115.162 81.3752L124.799 136.125C125.024 137.325 125.662 138.338 126.674 139.05C127.649 139.763 128.849 140.025 130.049 139.8C131.249 139.575 132.262 138.938 132.974 137.925C133.687 136.913 133.949 135.75 133.724 134.55L124.087 79.8002C123.862 78.6002 123.224 77.5877 122.212 76.8752C121.424 76.3127 120.524 76.0503 119.624 76.0503Z" fill="#221F1F"/>
</svg>
