<svg width="165" height="165" viewBox="0 0 165 165" fill="none" xmlns="http://www.w3.org/2000/svg">
<path d="M153.15 108.113L151.35 97.8376C150.937 95.5126 148.875 93.7876 146.512 93.7876C146.212 93.7876 145.912 93.8251 145.65 93.8626L141.9 94.5376L141.15 90.3001C140.212 84.8626 135.975 80.7751 130.687 79.9501L130.462 78.6751C129.975 75.7876 128.362 73.2751 125.962 71.5501C124.425 70.4626 122.7 69.8251 120.862 69.6001C121.575 68.8876 122.025 67.9876 122.212 67.0126L124.012 56.7751C124.462 54.1126 122.7 51.5626 120.037 51.0751L116.362 50.4376L117.112 46.2376C118.05 40.8376 115.312 35.5126 110.662 32.9626L110.925 31.5751C111.45 28.6876 110.812 25.7626 109.125 23.3626C107.437 20.9626 104.925 19.3501 102.037 18.8626C101.437 18.7501 100.8 18.7126 100.162 18.7126C97.875 18.7126 95.7 19.3876 93.8625 20.7001C91.4625 22.3876 89.85 24.9376 89.3625 27.7876L86.2875 45.1501L53.1375 39.3001L56.2125 21.9001C56.7 19.0126 56.0625 16.1251 54.375 13.7251C52.6875 11.3251 50.175 9.7126 47.2875 9.2251C46.65 9.1126 46.0125 9.0376 45.3375 9.0376C40.0125 9.0376 35.475 12.8626 34.5375 18.1126L34.3125 19.4626C29.0625 20.3251 24.825 24.3751 23.85 29.7751L23.1 34.0126L19.3875 33.3751C19.0875 33.3376 18.825 33.3001 18.525 33.3001C17.55 33.3001 16.575 33.6001 15.75 34.1626C15.675 34.2001 15.6 34.2376 15.5625 34.3126C14.55 35.1001 13.9125 36.1501 13.6875 37.3876L11.8875 47.6251C11.4375 50.2876 13.2 52.8376 15.8625 53.3251L19.6125 54.0001L18.8625 58.1626C18.2625 61.5001 18.975 64.8751 20.9625 67.6501C22.0875 69.2626 23.55 70.5376 25.2 71.4751L24.9375 72.9001C24.45 75.7876 25.0875 78.6751 26.775 81.0751C28.4625 83.4751 30.975 85.0876 33.8625 85.5751C34.4625 85.6876 35.1 85.7251 35.775 85.7251C37.9875 85.7251 40.1625 85.0501 42.0375 83.8126C42.075 83.8126 42.075 83.7751 42.1125 83.7751C44.5125 82.0876 46.125 79.5376 46.6125 76.6876L49.6875 59.2876L82.8375 65.1376L79.7625 82.5376C79.2375 85.4251 79.875 88.3501 81.5625 90.7501C83.25 93.1501 85.7625 94.7626 88.6875 95.2501C89.325 95.3626 89.925 95.4001 90.5625 95.4001C95.8875 95.4001 100.425 91.5751 101.362 86.3251L101.587 84.9751C103.5 84.6751 105.3 83.9626 106.95 82.8001C107.625 82.3126 108.225 81.8251 108.787 81.2251C108.825 81.6001 108.862 82.0126 108.937 82.4251L112.012 99.8251L78.8625 105.675L75.7875 88.2001C74.85 82.9501 70.275 79.1626 64.95 79.1626C64.3125 79.1626 63.675 79.2001 63.0375 79.3126C57.1125 80.4001 53.1375 86.1001 54.15 92.0251L54.4125 93.4126C49.725 95.9251 46.9875 101.25 47.9625 106.725L48.7125 110.925L45.0375 111.563C42.375 112.05 40.6125 114.6 41.0625 117.263L42.8625 127.538C43.0875 128.85 43.875 130.013 44.9625 130.763C45.0375 130.8 45.1125 130.838 45.15 130.875C45.9375 131.325 46.875 131.588 47.7375 131.588C47.8875 131.588 48.3 131.588 48.7875 131.475L52.275 130.875L53.025 135.15C53.625 138.45 55.5 141.338 58.2375 143.25C59.85 144.375 61.6875 145.125 63.5625 145.388L63.7875 146.738C64.275 149.625 65.8875 152.138 68.2875 153.825C68.2875 153.825 68.325 153.825 68.325 153.863C70.2 155.175 72.375 155.85 74.5875 155.85C75.3375 155.85 76.0125 155.775 76.65 155.625C82.5 154.5 86.4375 148.838 85.425 142.913L82.35 125.513L115.5 119.663L118.575 137.063C119.062 139.95 120.675 142.463 123.075 144.15C123.075 144.15 123.112 144.15 123.112 144.188C124.987 145.5 127.162 146.175 129.375 146.175C130.012 146.175 130.65 146.138 131.287 146.025C134.175 145.538 136.687 143.925 138.375 141.525C140.062 139.125 140.7 136.238 140.212 133.35L139.95 131.888C141.637 130.95 143.062 129.638 144.187 128.063C146.1 125.288 146.85 121.95 146.287 118.613L145.537 114.413L149.25 113.738C150.562 113.513 151.762 112.725 152.475 111.638C153.075 110.663 153.375 109.35 153.15 108.113Z" fill="white"/>
<path d="M146.483 98.7571L45.8486 116.497L47.6519 126.726L148.286 108.987L146.483 98.7571Z" fill="white"/>
<path d="M47.6625 128.288C47.3625 128.288 47.025 128.175 46.7625 128.025C46.425 127.8 46.2 127.425 46.125 127.013L44.325 116.775C44.175 115.95 44.7375 115.125 45.5625 114.975L146.213 97.2376C147.038 97.0876 147.863 97.6501 148.013 98.4751L149.813 108.713C149.888 109.125 149.775 109.538 149.55 109.875C149.325 110.213 148.95 110.438 148.538 110.513L47.925 128.25C47.85 128.288 47.7375 128.288 47.6625 128.288ZM47.625 117.75L48.9 124.95L146.513 107.738L145.238 100.538L47.625 117.75Z" fill="#221F1F"/>
<path d="M123.888 104.319L107.454 107.218L108.724 114.419L125.158 111.521L123.888 104.319Z" fill="#A2D6FF"/>
<path d="M60.5625 122.887L48.9 124.95L47.625 117.75L60.5625 115.462V122.887Z" fill="#A2D6FF"/>
<path d="M66.75 140.587C62.55 141.337 58.5375 138.487 57.7875 134.325L52.7625 105.937C52.0125 101.737 54.8625 97.7249 59.025 96.9749C63.225 96.2249 67.2375 99.0749 67.9875 103.237L73.0125 131.625C73.7625 135.825 70.95 139.837 66.75 140.587Z" fill="#9891F5"/>
<path d="M65.4004 142.237C63.5254 142.237 61.6879 141.675 60.0754 140.55C58.0504 139.125 56.7004 136.987 56.2504 134.587L51.2254 106.2C50.3254 101.175 53.7004 96.3374 58.7629 95.4749C61.2004 95.0624 63.6379 95.5874 65.7004 97.0124C67.7254 98.4374 69.0753 100.575 69.5254 102.975L74.5504 131.362C75.4504 136.387 72.0754 141.225 67.0129 142.087C66.4879 142.2 65.9629 142.237 65.4004 142.237ZM60.4129 98.3999C60.0379 98.3999 59.7004 98.4374 59.3254 98.5124C55.9504 99.1124 53.7004 102.337 54.3004 105.675L59.3254 134.062C59.6254 135.675 60.5254 137.1 61.8754 138.037C63.2254 138.975 64.8754 139.35 66.4879 139.087C69.8629 138.487 72.1129 135.262 71.5129 131.925L66.4879 103.5C66.1879 101.887 65.2879 100.462 63.9379 99.5249C62.8879 98.7749 61.6504 98.3999 60.4129 98.3999Z" fill="#221F1F"/>
<path d="M75.5997 150.9C72.2997 151.462 69.1497 149.25 68.5872 145.987L58.9497 91.2374C58.3872 87.9374 60.5997 84.7874 63.8622 84.2249C67.1622 83.6624 70.3122 85.8748 70.8747 89.1373L80.5122 143.887C81.0747 147.187 78.8622 150.337 75.5997 150.9Z" fill="#9891F5"/>
<path d="M74.5125 152.55C72.975 152.55 71.475 152.062 70.1625 151.162C68.5125 150 67.3875 148.237 67.05 146.25L57.4125 91.5C56.7 87.3749 59.4375 83.4375 63.5625 82.6875C67.6875 81.975 71.625 84.7124 72.375 88.8374L82.0125 143.587C82.725 147.712 79.9875 151.65 75.8625 152.4C75.4125 152.512 74.9625 152.55 74.5125 152.55ZM64.875 85.6875C64.6125 85.6875 64.35 85.7249 64.0875 85.7624C61.65 86.2124 60 88.5374 60.4125 91.0124L70.05 145.762C70.275 146.962 70.9125 147.975 71.925 148.687C72.9 149.4 74.1 149.662 75.3 149.437C77.7375 148.987 79.3875 146.662 78.975 144.187L69.3375 89.4374C68.925 87.2249 67.0125 85.6875 64.875 85.6875Z" fill="#221F1F"/>
<path d="M135.075 128.55C139.275 127.8 142.088 123.787 141.338 119.587L136.313 91.2C135.563 87 131.55 84.1875 127.35 84.9375C123.15 85.6875 120.338 89.7 121.088 93.9L126.113 122.287C126.863 126.45 130.913 129.262 135.075 128.55Z" fill="#9891F5"/>
<path d="M133.725 130.2C129.3 130.2 125.4 127.013 124.613 122.55L119.588 94.1251C119.175 91.6876 119.7 89.2501 121.125 87.1876C122.55 85.1626 124.688 83.8126 127.088 83.3626C132.113 82.4626 136.95 85.8376 137.813 90.9001L142.838 119.288C143.25 121.725 142.725 124.163 141.3 126.225C139.875 128.25 137.738 129.6 135.338 130.05C134.813 130.163 134.288 130.2 133.725 130.2ZM128.738 86.3251C128.4 86.3251 128.025 86.3626 127.65 86.4376C126.038 86.7376 124.613 87.6376 123.675 88.9876C122.738 90.3376 122.363 91.9876 122.625 93.6001L127.65 121.988C128.25 125.363 131.475 127.613 134.813 127.013C136.425 126.713 137.85 125.813 138.788 124.463C139.725 123.113 140.1 121.463 139.838 119.85L134.813 91.4626C134.288 88.4626 131.7 86.3251 128.738 86.3251Z" fill="#221F1F"/>
<path d="M130.313 141.262C133.613 140.7 135.825 137.512 135.225 134.25L125.588 79.5C125.025 76.2 121.838 73.9875 118.575 74.5875C115.275 75.15 113.063 78.3375 113.663 81.6L123.3 136.35C123.9 139.612 127.05 141.825 130.313 141.262Z" fill="#9891F5"/>
<path d="M129.263 142.913C127.725 142.913 126.225 142.425 124.913 141.525C123.263 140.363 122.138 138.6 121.8 136.612L112.163 81.8625C111.825 79.875 112.275 77.85 113.438 76.2C114.6 74.55 116.363 73.425 118.35 73.0875C120.338 72.75 122.363 73.2 124.013 74.3625C125.663 75.525 126.788 77.2875 127.125 79.275L136.763 134.025C137.1 136.013 136.65 138.038 135.488 139.688C134.325 141.338 132.563 142.462 130.575 142.8C130.163 142.875 129.713 142.913 129.263 142.913ZM119.625 76.05C119.363 76.05 119.1 76.0875 118.838 76.125C117.638 76.35 116.625 76.9875 115.913 78C115.2 79.0125 114.938 80.175 115.163 81.375L124.8 136.125C125.025 137.325 125.663 138.338 126.675 139.05C127.65 139.762 128.85 140.025 130.05 139.8C131.25 139.575 132.263 138.938 132.975 137.925C133.688 136.912 133.95 135.75 133.725 134.55L124.088 79.8C123.863 78.6 123.225 77.5875 122.213 76.875C121.425 76.3125 120.525 76.05 119.625 76.05Z" fill="#221F1F"/>
<path d="M18.4947 38.243L16.6914 48.4727L117.326 66.2124L119.129 55.9828L18.4947 38.243Z" fill="white"/>
<path d="M117.337 67.8001C117.262 67.8001 117.15 67.8001 117.075 67.7626L16.4248 50.0251C15.5998 49.8751 15.0373 49.0876 15.1873 48.2251L16.9873 37.9876C17.0623 37.5751 17.2873 37.2376 17.6248 36.9751C17.9623 36.7501 18.3748 36.6376 18.7873 36.7126L119.437 54.4501C120.262 54.6001 120.825 55.3876 120.675 56.2501L118.875 66.4876C118.8 66.9001 118.575 67.2376 118.237 67.5001C117.975 67.6876 117.637 67.8001 117.337 67.8001ZM18.4873 47.2501L116.1 64.4626L117.375 57.2626L19.7623 40.0501L18.4873 47.2501Z" fill="#221F1F"/>
<path d="M41.0964 43.8275L39.8262 51.0288L56.26 53.9274L57.5302 46.7261L41.0964 43.8275Z" fill="#A2D6FF"/>
<path d="M104.438 62.4001L116.1 64.4626L117.375 57.2626L104.438 54.9751V62.4001Z" fill="#A2D6FF"/>
<path d="M98.2498 80.0998C102.45 80.8498 106.462 77.9998 107.212 73.8373L112.237 45.4498C112.987 41.2498 110.137 37.2373 105.975 36.4873C101.775 35.7373 97.7623 38.5873 97.0123 42.7498L91.9873 71.1373C91.2373 75.3373 94.0498 79.3498 98.2498 80.0998Z" fill="#9891F5"/>
<path d="M99.6 81.7499C99.075 81.7499 98.5125 81.7124 97.9875 81.5999C92.9625 80.6999 89.5875 75.8999 90.45 70.8749L95.475 42.4874C95.8875 40.0499 97.275 37.9499 99.3 36.5249C101.325 35.0999 103.8 34.5374 106.237 34.9874C111.262 35.8874 114.637 40.6874 113.775 45.7124L108.75 74.0999C108.337 76.5374 106.95 78.6374 104.925 80.0624C103.312 81.1874 101.475 81.7499 99.6 81.7499ZM104.587 37.8749C103.312 37.8749 102.112 38.2499 101.025 38.9999C99.675 39.9374 98.775 41.3624 98.475 42.9749L93.45 71.3624C92.85 74.7374 95.1 77.9249 98.475 78.5249C100.087 78.8249 101.737 78.4499 103.087 77.4749C104.437 76.5374 105.337 75.1124 105.637 73.4999L110.662 45.1124C111.262 41.7374 109.012 38.5499 105.637 37.9499C105.3 37.9124 104.962 37.8749 104.587 37.8749Z" fill="#221F1F"/>
<path d="M89.3993 90.4126C92.6993 90.9751 95.8493 88.7626 96.4118 85.5001L106.049 30.75C106.612 27.45 104.399 24.3 101.137 23.7375C97.8368 23.175 94.6868 25.3875 94.1243 28.65L84.4868 83.4001C83.9243 86.6626 86.1368 89.8501 89.3993 90.4126Z" fill="#9891F5"/>
<path d="M90.4873 92.0625C90.0373 92.0625 89.6248 92.025 89.1748 91.95C85.0498 91.2375 82.2748 87.2625 83.0248 83.1375L92.6623 28.3875C92.9998 26.4001 94.1248 24.6376 95.7748 23.4751C97.4248 22.3126 99.4498 21.8626 101.437 22.2001C105.562 22.9126 108.337 26.8876 107.587 31.0126L97.9498 85.7625C97.3123 89.4375 94.0873 92.0625 90.4873 92.0625ZM100.125 25.2001C99.2248 25.2001 98.3248 25.5001 97.5373 26.0251C96.5623 26.7376 95.8873 27.7501 95.6623 28.95L86.0248 83.7C85.5748 86.1375 87.2248 88.5 89.6998 88.95C92.1373 89.4 94.4998 87.75 94.9498 85.275L104.587 30.5251C105.037 28.0876 103.387 25.7251 100.912 25.2751C100.65 25.2001 100.387 25.2001 100.125 25.2001Z" fill="#221F1F"/>
<path d="M29.9246 68.0251C25.7246 67.2751 22.9121 63.2626 23.6621 59.0626L28.6871 30.6751C29.4371 26.4751 33.4496 23.6626 37.6496 24.4126C41.8496 25.1626 44.6621 29.1751 43.9121 33.3751L38.8871 61.7626C38.1371 65.9626 34.0871 68.7751 29.9246 68.0251Z" fill="#9891F5"/>
<path d="M31.2749 69.7125C30.7499 69.7125 30.1874 69.675 29.6624 69.5625C27.2249 69.15 25.1249 67.7625 23.6999 65.7375C22.2749 63.7125 21.7124 61.2375 22.1624 58.8L27.1874 30.4125C28.0874 25.3875 32.8874 22.0125 37.9124 22.875C40.3499 23.2875 42.4499 24.675 43.8749 26.7C45.2999 28.725 45.8624 31.2 45.4124 33.6375L40.3874 62.025C39.5999 66.525 35.6624 69.7125 31.2749 69.7125ZM30.1874 66.525C33.5624 67.125 36.7499 64.875 37.3499 61.5L42.3749 33.1125C42.6749 31.5 42.2999 29.85 41.3249 28.5C40.3874 27.15 38.9624 26.25 37.3499 25.95C33.9749 25.35 30.7874 27.6 30.1874 30.975L25.1624 59.3625C24.8624 60.975 25.2374 62.625 26.2124 63.975C27.1499 65.325 28.5749 66.225 30.1874 66.525Z" fill="#221F1F"/>
<path d="M34.6875 80.7749C31.3875 80.2124 29.175 77.0249 29.775 73.7624L39.4125 19.0124C39.975 15.7124 43.1625 13.4999 46.425 14.0999C49.725 14.6624 51.9375 17.8499 51.3375 21.1124L41.7 75.8624C41.1 79.1249 37.95 81.3374 34.6875 80.7749Z" fill="#9891F5"/>
<path d="M35.7372 82.3875C35.2872 82.3875 34.8372 82.35 34.4247 82.275C32.4372 81.9375 30.6747 80.8125 29.5122 79.1625C28.3497 77.5125 27.8997 75.4875 28.2372 73.5L37.8747 18.75C38.5872 14.625 42.5622 11.85 46.6872 12.6C48.6747 12.9375 50.4372 14.0625 51.5997 15.7125C52.7622 17.3625 53.2122 19.3875 52.8747 21.375L43.2372 76.125C42.8997 78.1125 41.7747 79.875 40.1247 81.0375C38.7747 81.9375 37.2747 82.3875 35.7372 82.3875ZM34.9497 79.2375C36.1122 79.4625 37.3122 79.1625 38.3247 78.4875C39.2997 77.775 39.9747 76.7625 40.1997 75.5625L49.8372 20.8125C50.0622 19.6125 49.7622 18.45 49.0872 17.4375C48.4122 16.425 47.3622 15.7875 46.1622 15.5625C43.7247 15.1125 41.3622 16.7625 40.9122 19.2375L31.2747 73.9875C31.0497 75.1875 31.3497 76.35 32.0247 77.3625C32.7372 78.375 33.7497 79.05 34.9497 79.2375Z" fill="#221F1F"/>
</svg>
