<svg width="165" height="165" viewBox="0 0 165 165" fill="none" xmlns="http://www.w3.org/2000/svg">
<path d="M153.675 79.3128C153.262 79.3128 152.85 79.1253 152.55 78.7503C135.15 55.3128 109.612 41.8878 82.4624 41.8878C55.3499 41.8878 29.8124 55.3128 12.3749 78.7503C11.9249 79.3503 11.0624 79.5003 10.4249 79.0503C9.82493 78.6003 9.67493 77.7378 10.1249 77.1003C28.1249 52.9878 54.4874 39.1128 82.4999 39.1128C110.512 39.1128 136.875 52.9503 154.8 77.1003C155.25 77.7003 155.137 78.6003 154.5 79.0503C154.275 79.2378 153.975 79.3128 153.675 79.3128Z" fill="#221F1F"/>
<path d="M106.275 58.5378C106.125 58.5378 105.937 58.5003 105.787 58.4628C105.075 58.2003 104.7 57.3753 105 56.6628L111.637 39.1503C111.9 38.4378 112.725 38.0628 113.437 38.3628C114.15 38.6253 114.525 39.4503 114.225 40.1628L107.587 57.6753C107.362 58.1628 106.837 58.5378 106.275 58.5378Z" fill="#221F1F"/>
<path d="M127.462 67.4253C127.2 67.4253 126.937 67.3503 126.712 67.2003C126.075 66.7878 125.887 65.9253 126.337 65.2878L135.975 50.7003C136.387 50.0628 137.25 49.8753 137.887 50.3253C138.525 50.7378 138.712 51.6003 138.262 52.2378L128.625 66.8253C128.362 67.2003 127.912 67.4253 127.462 67.4253Z" fill="#221F1F"/>
<path d="M58.7252 58.5375C58.1627 58.5375 57.6377 58.2 57.4127 57.6375L50.7752 40.125C50.5127 39.4125 50.8502 38.625 51.5627 38.325C52.2752 38.0625 53.0627 38.4 53.3627 39.1125L60.0002 56.625C60.2627 57.3375 59.9252 58.125 59.2127 58.425C59.0627 58.5 58.8752 58.5375 58.7252 58.5375Z" fill="#221F1F"/>
<path d="M37.5375 67.4253C37.0875 67.4253 36.6375 67.2003 36.375 66.7878L26.7376 52.2003C26.3251 51.5628 26.4751 50.7003 27.1126 50.2878C27.7501 49.8753 28.6126 50.0253 29.0251 50.6628L38.6625 65.2503C39.075 65.8878 38.925 66.7503 38.2875 67.1628C38.0625 67.3503 37.8 67.4253 37.5375 67.4253Z" fill="#221F1F"/>
<path d="M82.4998 55.4252C81.7498 55.4252 81.1123 54.7877 81.1123 54.0377V33.9002C81.1123 33.1502 81.7498 32.5127 82.4998 32.5127C83.2498 32.5127 83.8873 33.1502 83.8873 33.9002V54.0377C83.8873 54.7877 83.2498 55.4252 82.4998 55.4252Z" fill="#221F1F"/>
<path d="M82.5002 51.8252C111.113 51.8252 136.688 67.2377 153.675 91.4627C136.688 115.688 111.113 131.1 82.5002 131.1C53.8877 131.1 28.3127 115.688 11.3252 91.4627C28.3127 67.2377 53.8877 51.8252 82.5002 51.8252Z" fill="white"/>
<path d="M82.4998 132.487C54.4873 132.487 28.1248 117.825 10.1623 92.25C9.8248 91.7625 9.8248 91.125 10.1623 90.6375C28.1248 65.1 54.4873 50.4375 82.4998 50.4375C110.512 50.4375 136.875 65.1 154.837 90.675C155.175 91.1625 155.175 91.8 154.837 92.2875C136.875 117.825 110.512 132.487 82.4998 132.487ZM13.0123 91.4625C30.4123 115.762 55.6873 129.712 82.4998 129.712C109.312 129.712 134.587 115.8 151.987 91.4625C134.587 67.1625 109.312 53.2125 82.4998 53.2125C55.6873 53.2125 30.4123 67.1625 13.0123 91.4625Z" fill="#221F1F"/>
<path d="M42.15 62.8128C38.5875 69.3378 36.5625 76.8378 36.5625 84.7878C36.5625 110.138 57.1125 130.725 82.5 130.725C107.887 130.725 128.438 110.175 128.438 84.7878C128.438 76.8378 126.413 69.3378 122.85 62.8128C110.663 55.8003 96.975 51.8628 82.5 51.8628C68.025 51.8628 54.375 55.7628 42.15 62.8128Z" fill="white"/>
<path d="M82.4998 132.113C56.3998 132.113 35.1748 110.888 35.1748 84.7876C35.1748 76.8751 37.1623 69.0376 40.9498 62.1376C41.0623 61.9126 41.2498 61.7251 41.4748 61.6126C54.2998 54.2251 68.1373 50.4751 82.4998 50.4751C96.8623 50.4751 110.7 54.2251 123.525 61.6126C123.75 61.7251 123.937 61.9126 124.05 62.1376C127.837 69.0376 129.825 76.8751 129.825 84.7876C129.825 110.888 108.6 132.113 82.4998 132.113ZM43.1998 63.8251C39.7873 70.2376 37.9498 77.4751 37.9498 84.7876C37.9498 109.35 57.9373 129.338 82.4998 129.338C107.062 129.338 127.05 109.35 127.05 84.7876C127.05 77.4751 125.25 70.2376 121.8 63.8251C109.462 56.8126 96.2623 53.2501 82.4998 53.2501C68.7373 53.2126 55.4998 56.7751 43.1998 63.8251Z" fill="#221F1F"/>
<path d="M82.5002 105.525C93.9532 105.525 103.238 96.2408 103.238 84.7878C103.238 73.3348 93.9532 64.0503 82.5002 64.0503C71.0472 64.0503 61.7627 73.3348 61.7627 84.7878C61.7627 96.2408 71.0472 105.525 82.5002 105.525Z" fill="white"/>
<path d="M82.5 106.913C70.3125 106.913 60.375 96.9751 60.375 84.7876C60.375 72.6001 70.3125 62.6626 82.5 62.6626C94.6875 62.6626 104.625 72.6001 104.625 84.7876C104.625 96.9751 94.6875 106.913 82.5 106.913ZM82.5 65.4376C71.8125 65.4376 63.15 74.1001 63.15 84.7876C63.15 95.4751 71.8125 104.138 82.5 104.138C93.1875 104.138 101.85 95.4751 101.85 84.7876C101.85 74.1001 93.1875 65.4376 82.5 65.4376Z" fill="#221F1F"/>
</svg>
