<svg width="165" height="165" viewBox="0 0 165 165" fill="none" xmlns="http://www.w3.org/2000/svg">
<path d="M157.613 88.7251C156.15 86.6251 154.613 84.6001 153.038 82.6126C153.263 82.6501 153.488 82.6501 153.713 82.6501C154.8 82.6501 155.775 82.3126 156.6 81.7126C157.575 80.9626 158.25 79.8751 158.438 78.6376C158.625 77.3626 158.325 76.0501 157.575 75.0376C152.325 67.9501 146.325 61.6876 139.65 56.2876L141.113 54.0751C141.825 53.0251 142.088 51.7501 141.863 50.5126C141.638 49.2751 140.888 48.1876 139.838 47.4751C139.05 46.9501 138.113 46.6501 137.175 46.6501C135.563 46.6501 134.063 47.4751 133.238 48.7876L132 50.7001C127.2 47.5501 122.175 44.8501 116.963 42.6751L117.45 41.3626C117.9 40.2001 117.9 38.8876 117.413 37.7251C116.925 36.5626 115.95 35.6251 114.788 35.1751C114.225 34.9501 113.625 34.8376 113.025 34.8376C111.038 34.8376 109.238 36.0751 108.6 37.9126L108.038 39.4501C101.325 37.4251 94.3876 36.2251 87.4126 35.8501V33.8626C87.4126 31.2376 85.2751 29.1001 82.6501 29.1001C80.0251 29.1001 77.8876 31.2376 77.8876 33.8626V35.8501C70.9126 36.2251 63.9751 37.4251 57.2626 39.4501L56.6626 37.8751C56.6626 37.8376 56.6251 37.8001 56.6251 37.7626C55.8751 35.9626 54.1501 34.8376 52.2001 34.8376C51.6376 34.8376 51.0751 34.9501 50.5501 35.1376C50.5126 35.1376 50.4376 35.1751 50.4001 35.1751C48.0376 36.1876 46.8751 38.8501 47.7751 41.2876L48.3001 42.6751C43.0876 44.8501 38.0626 47.5501 33.2626 50.7001L32.0251 48.7876C31.1626 47.4376 29.6626 46.6501 28.0501 46.6501C27.1126 46.6501 26.2126 46.9126 25.4251 47.4376C23.2501 48.8626 22.6126 51.7876 24.0751 54.0376L25.5751 56.3251C18.9001 61.6876 12.8626 67.9876 7.57506 75.0751C7.57506 75.1126 7.53756 75.1126 7.53756 75.1501C6.03756 77.2876 6.48756 80.1751 8.58756 81.7501C8.62506 81.7876 8.62506 81.7876 8.66256 81.8251C9.48756 82.3876 10.4251 82.6876 11.4376 82.6876C11.7001 82.6876 11.9251 82.6501 12.1876 82.6126C10.6126 84.5626 9.07506 86.5876 7.61256 88.6876C6.48756 90.3376 6.48756 92.5126 7.61256 94.1626C25.9876 120.675 53.3626 135.863 82.5001 135.863C111.6 135.863 138.975 120.675 157.613 94.2001C158.738 92.5876 158.738 90.3751 157.613 88.7251Z" fill="white"/>
<path d="M153.675 79.3125C153.262 79.3125 152.85 79.125 152.55 78.75C135.15 55.3125 109.612 41.8875 82.4624 41.8875C55.3499 41.8875 29.8124 55.3125 12.3749 78.75C11.9249 79.35 11.0624 79.5 10.4249 79.05C9.82493 78.6 9.67493 77.7375 10.1249 77.1C28.1249 52.9875 54.4874 39.1125 82.4999 39.1125C110.512 39.1125 136.875 52.95 154.8 77.1C155.25 77.7 155.137 78.6 154.5 79.05C154.275 79.2375 153.975 79.3125 153.675 79.3125Z" fill="#221F1F"/>
<path d="M106.275 58.5374C106.125 58.5374 105.937 58.4998 105.787 58.4623C105.075 58.1998 104.7 57.3749 105 56.6624L111.637 39.1499C111.9 38.4374 112.725 38.0624 113.437 38.3624C114.15 38.6249 114.525 39.4499 114.225 40.1624L107.587 57.6749C107.362 58.1624 106.837 58.5374 106.275 58.5374Z" fill="#221F1F"/>
<path d="M127.462 67.4248C127.2 67.4248 126.937 67.3498 126.712 67.1998C126.075 66.7873 125.887 65.9248 126.337 65.2873L135.975 50.6998C136.387 50.0623 137.25 49.8748 137.887 50.3248C138.525 50.7373 138.712 51.5998 138.262 52.2373L128.625 66.8248C128.362 67.1998 127.912 67.4248 127.462 67.4248Z" fill="#221F1F"/>
<path d="M58.7252 58.5375C58.1627 58.5375 57.6377 58.2 57.4127 57.6375L50.7752 40.125C50.5127 39.4125 50.8502 38.625 51.5627 38.325C52.2752 38.0625 53.0627 38.4 53.3627 39.1125L60.0002 56.625C60.2627 57.3375 59.9252 58.125 59.2127 58.425C59.0627 58.5 58.8752 58.5375 58.7252 58.5375Z" fill="#221F1F"/>
<path d="M37.5375 67.4249C37.0875 67.4249 36.6375 67.1999 36.375 66.7874L26.7376 52.1999C26.3251 51.5624 26.4751 50.6999 27.1126 50.2874C27.7501 49.8749 28.6126 50.0249 29.0251 50.6624L38.6625 65.2499C39.075 65.8874 38.925 66.7499 38.2875 67.1624C38.0625 67.3499 37.8 67.4249 37.5375 67.4249Z" fill="#221F1F"/>
<path d="M82.4998 55.425C81.7498 55.425 81.1123 54.7875 81.1123 54.0375V33.9C81.1123 33.15 81.7498 32.5125 82.4998 32.5125C83.2498 32.5125 83.8873 33.15 83.8873 33.9V54.0375C83.8873 54.7875 83.2498 55.425 82.4998 55.425Z" fill="#221F1F"/>
<path d="M82.5002 51.825C111.113 51.825 136.688 67.2375 153.675 91.4624C136.688 115.687 111.113 131.1 82.5002 131.1C53.8877 131.1 28.3127 115.687 11.3252 91.4624C28.3127 67.2375 53.8877 51.825 82.5002 51.825Z" fill="white"/>
<path d="M82.4998 132.487C54.4873 132.487 28.1248 117.825 10.1623 92.25C9.8248 91.7625 9.8248 91.125 10.1623 90.6375C28.1248 65.1 54.4873 50.4375 82.4998 50.4375C110.512 50.4375 136.875 65.1 154.837 90.675C155.175 91.1625 155.175 91.8 154.837 92.2875C136.875 117.825 110.512 132.487 82.4998 132.487ZM13.0123 91.4625C30.4123 115.762 55.6873 129.712 82.4998 129.712C109.312 129.712 134.587 115.8 151.987 91.4625C134.587 67.1625 109.312 53.2125 82.4998 53.2125C55.6873 53.2125 30.4123 67.1625 13.0123 91.4625Z" fill="#221F1F"/>
<path d="M42.15 62.8123C38.5875 69.3373 36.5625 76.8373 36.5625 84.7873C36.5625 110.137 57.1125 130.725 82.5 130.725C107.887 130.725 128.438 110.175 128.438 84.7873C128.438 76.8373 126.413 69.3373 122.85 62.8123C110.663 55.7998 96.975 51.8623 82.5 51.8623C68.025 51.8623 54.375 55.7623 42.15 62.8123Z" fill="#B7EDB7"/>
<path d="M82.4998 132.112C56.3998 132.112 35.1748 110.887 35.1748 84.7874C35.1748 76.8749 37.1623 69.0374 40.9498 62.1374C41.0623 61.9124 41.2498 61.7249 41.4748 61.6124C54.2998 54.2249 68.1373 50.4749 82.4998 50.4749C96.8623 50.4749 110.7 54.2249 123.525 61.6124C123.75 61.7249 123.937 61.9124 124.05 62.1374C127.837 69.0374 129.825 76.8749 129.825 84.7874C129.825 110.887 108.6 132.112 82.4998 132.112ZM43.1998 63.8249C39.7873 70.2374 37.9498 77.4749 37.9498 84.7874C37.9498 109.35 57.9373 129.337 82.4998 129.337C107.062 129.337 127.05 109.35 127.05 84.7874C127.05 77.4749 125.25 70.2374 121.8 63.8249C109.462 56.8124 96.2623 53.2499 82.4998 53.2499C68.7373 53.2124 55.4998 56.7749 43.1998 63.8249Z" fill="#221F1F"/>
<path d="M82.5002 105.525C93.9532 105.525 103.238 96.2403 103.238 84.7873C103.238 73.3343 93.9532 64.0498 82.5002 64.0498C71.0472 64.0498 61.7627 73.3343 61.7627 84.7873C61.7627 96.2403 71.0472 105.525 82.5002 105.525Z" fill="#979797"/>
<path d="M82.5 106.912C70.3125 106.912 60.375 96.9749 60.375 84.7874C60.375 72.5999 70.3125 62.6624 82.5 62.6624C94.6875 62.6624 104.625 72.5999 104.625 84.7874C104.625 96.9749 94.6875 106.912 82.5 106.912ZM82.5 65.4374C71.8125 65.4374 63.15 74.0999 63.15 84.7874C63.15 95.4749 71.8125 104.137 82.5 104.137C93.1875 104.137 101.85 95.4749 101.85 84.7874C101.85 74.0999 93.1875 65.4374 82.5 65.4374Z" fill="#221F1F"/>
<path d="M94.5002 121.875C66.8252 121.875 43.7627 101.963 38.8877 75.675C38.2877 78.6375 37.9502 81.7125 37.9502 84.75C37.9502 109.313 57.9377 129.3 82.5002 129.3C92.9252 129.3 102.525 125.7 110.138 119.663C105.15 121.125 99.9377 121.875 94.5002 121.875Z" fill="#9CDB9C"/>
<path d="M65.2879 75.9749C63.9379 78.6374 63.1504 81.5999 63.1504 84.7874C63.1504 95.4749 71.8129 104.137 82.5004 104.137C87.7879 104.137 92.5879 102 96.0754 98.5498C83.3629 94.7998 72.5254 86.6999 65.2879 75.9749Z" fill="#979797"/>
</svg>
