<svg width="220" height="220" viewBox="0 0 220 220" fill="none" xmlns="http://www.w3.org/2000/svg">
<path d="M110 200.4C106.8 200.4 103.5 200.35 100.25 200.25C99.4502 200.25 98.6502 200.2 97.8002 200.15L96.8502 200.1C96.2502 200.05 95.6002 200.05 95.0002 200L94.1002 199.95C93.2502 199.9 92.4502 199.85 91.6002 199.8H91.4502C90.5002 199.75 89.6002 199.7 88.6502 199.6L88.2002 199.55C87.3502 199.5 86.5502 199.45 85.8002 199.35H85.5502C71.5002 198.25 58.2002 196.1 46.6502 193.2C46.7502 194.45 46.5002 195.65 45.8502 196.75C45.0502 198.1 43.7502 199.05 42.2502 199.4C41.8002 199.5 41.3002 199.55 40.8502 199.55C38.1502 199.55 35.8502 197.75 35.2002 195.1C32.9002 185.85 31.9002 178.25 32.2502 171.9C24.1002 166.6 19.2002 159.5 19.2002 143.55C19.2002 123.05 28.7002 104.5 45.9002 91.35C54.6502 84.65 65.0502 79.55 76.8002 76.2C74.9002 70.75 73.9502 64.95 73.9502 59.25C73.9502 36.55 89.5502 19.45 110.2 19.45C130.85 19.45 146.45 36.55 146.45 59.25C146.45 64.95 145.45 70.75 143.6 76.2C155.35 79.55 165.7 84.65 174.5 91.35C191.7 104.5 201.2 123.05 201.2 143.55C201.2 159.5 196.25 166.6 188.15 171.9C188.45 178.25 187.5 185.85 185.2 195.1C184.55 197.7 182.2 199.55 179.5 199.55C179 199.55 178.55 199.5 178.1 199.4C176.6 199 175.3 198.1 174.5 196.75C173.85 195.65 173.55 194.45 173.7 193.2C163.2 195.85 151.25 197.85 138.65 199.05H138.6C135.25 199.35 131.85 199.6 128.4 199.8H128.1C125.95 199.9 123.7 200.05 121.5 200.1L120.45 200.15C120.4 200.15 120.3 200.15 120.25 200.15C116.6 200.35 113.25 200.4 110 200.4Z" fill="white"/>
<path d="M146.85 147.75C152.15 136.55 173.75 126 187.65 120.25C181.8 96.35 149.25 78.1 110 78.1C71.8504 78.1 40.0504 95.35 32.9004 118.25C44.8004 123.4 63.6004 133 73.3504 145.85C82.0504 157.3 84.2004 171.95 85.1004 188.3C89.8504 188.7 95.4004 196.15 100.35 196.3C103.5 196.4 106.7 196.45 109.95 196.45C113.2 196.45 116.4 196.4 119.6 196.3C125.9 196.1 130.4 191.55 136.3 191C137.75 175.3 142.05 157.85 146.85 147.75Z" fill="#9CDB9C"/>
<path d="M110 78.05C92.95 78.05 77.15 81.5 64.25 87.4C75.75 122.55 103.5 152.55 140.75 171.95C142.25 162.35 144.25 153.35 146.85 147.8C152.15 136.6 173.75 126.05 187.65 120.3C181.8 96.35 149.25 78.05 110 78.05Z" fill="#B7EDB7"/>
<path d="M99.1 158.65L92.75 149.95L81.95 145.3L65.4 145.95C65.4 145.95 41.85 155.3 38.45 168C38.3 168.55 38.2 169.1 38.1 169.7C37.45 175.95 38 181.95 38.95 187C43.2 188.35 47 179.1 51.85 180.2C55.7 181.05 59.75 181.85 63.95 182.5C69.55 183.4 76.25 194.65 82.4 195.2C88.2 195.75 94.2 196.1 100.4 196.3L102.95 183.3L102.55 169.3L99.1 158.65Z" fill="#F0AA97"/>
<path d="M51.15 153.5C45.5 157.3 39.95 162.3 38.45 168C38.3 168.55 38.2 169.1 38.1 169.7C37.45 175.95 38 181.95 38.95 187C51.4 190.95 66.8 193.85 83.95 195.35C74.45 176.95 63.35 162.6 51.15 153.5Z" fill="#D88C7D"/>
<path d="M168.9 148.5L150 143.4L133.45 147.45C133.45 147.45 123.5 153.8 121.15 156.15C118.8 158.5 116.9 173.55 117.1 180.35C117.25 184.5 118.8 191.5 119.95 196.3C143.2 195.55 164.15 192.25 180.25 187.25L181 178.45C181.15 173.9 181.15 170.1 181.15 170.1C181.15 170.1 181.35 169.9 181.75 169.55L182.2 164.1L179.45 156.45L168.9 148.5Z" fill="#F0AA97"/>
<path d="M26.25 155.7C26.25 155.7 23.7 137.55 25.3 134.05C26.9 130.55 34.2 112.75 34.2 112.75C34.2 112.75 46.6 118.5 48.5 119.75C50.4 121 61.25 149 61.25 149L55.85 162.05L26.25 155.7Z" fill="white"/>
<path d="M194.05 155.7C194.05 155.7 196.6 137.55 195 134.05C193.4 130.55 186.1 112.75 186.1 112.75C186.1 112.75 173.7 118.5 171.8 119.75C169.9 121 159.05 149 159.05 149L164.45 162.05L194.05 155.7Z" fill="white"/>
<path d="M119.2 196.9C118.35 196.9 117.6 196.35 117.4 195.45C117.15 194.3 110.85 166.75 122.45 152.8C127.1 147.2 133.9 144.6 142.7 145.05C162.1 146 173.35 149.9 179.15 157.7C184.8 165.35 185.4 176.6 181 194.3C180.75 195.3 179.75 195.9 178.75 195.65C177.75 195.4 177.15 194.4 177.4 193.4C181.45 177.15 181.05 166.5 176.2 159.95C171.15 153.1 160.75 149.65 142.55 148.75C135 148.4 129.2 150.55 125.35 155.15C114.9 167.7 121 194.35 121.05 194.6C121.3 195.6 120.65 196.6 119.65 196.8C119.5 196.85 119.35 196.9 119.2 196.9Z" fill="#221F1F"/>
<path d="M100.8 196.9C100.65 196.9 100.5 196.9 100.4 196.85C99.3998 196.6 98.7998 195.6 98.9998 194.65C99.0498 194.4 105.15 167.75 94.6998 155.2C90.8498 150.55 85.0498 148.4 77.4998 148.8C59.2998 149.7 48.9498 153.15 43.8498 160C38.9498 166.6 38.5998 177.2 42.6498 193.45C42.8998 194.45 42.2998 195.45 41.2998 195.7C40.2998 195.95 39.2998 195.35 39.0498 194.35C34.6498 176.7 35.1998 165.4 40.8998 157.75C46.6998 149.95 57.9498 146.05 77.3498 145.1C86.1498 144.65 92.9498 147.3 97.5998 152.85C109.25 166.8 102.95 194.35 102.65 195.5C102.4 196.3 101.6 196.9 100.8 196.9Z" fill="#221F1F"/>
<path d="M171.45 122.4C170.9 122.4 170.4 122.15 170 121.7C169.35 120.9 169.5 119.75 170.3 119.1C175.2 115.15 184.2 111.9 184.6 111.75C185.55 111.4 186.6 111.9 186.95 112.85C187.3 113.8 186.8 114.85 185.85 115.2C185.75 115.25 177.05 118.4 172.65 121.95C172.25 122.25 171.85 122.4 171.45 122.4Z" fill="#221F1F"/>
<path d="M48.5501 122.4C48.1501 122.4 47.7501 122.25 47.4001 122C43.0001 118.45 34.3001 115.3 34.2001 115.25C33.2501 114.9 32.7501 113.85 33.1001 112.9C33.4501 111.95 34.5001 111.45 35.4501 111.8C35.8501 111.95 44.8501 115.2 49.7501 119.15C50.5501 119.8 50.6501 120.95 50.0501 121.75C49.6501 122.15 49.1001 122.4 48.5501 122.4Z" fill="#221F1F"/>
<path d="M72.1444 154.405C84.3927 153.118 93.1124 140.565 91.6205 126.367C90.1286 112.169 78.99 101.702 66.7418 102.989C54.4936 104.276 45.7739 116.83 47.2658 131.028C48.7577 145.226 59.8962 155.692 72.1444 154.405Z" fill="white"/>
<path d="M70.1004 156.4C57.7504 156.4 46.9004 145.6 45.4004 131.25C44.6504 123.95 46.4004 116.8 50.3004 111.15C54.3004 105.4 60.0504 101.85 66.5504 101.2C79.8004 99.8 91.9004 111.05 93.5004 126.25C94.2504 133.55 92.5004 140.7 88.6004 146.35C84.6004 152.1 78.8504 155.65 72.3504 156.3C71.6004 156.35 70.8504 156.4 70.1004 156.4ZM68.7504 104.75C68.1504 104.75 67.5504 104.8 66.9004 104.85C61.5004 105.4 56.7004 108.4 53.3004 113.25C49.8504 118.2 48.3504 124.45 49.0504 130.85C50.3504 143.3 59.6004 152.7 70.1004 152.7C70.7004 152.7 71.3004 152.65 71.9504 152.6C77.3504 152.05 82.1504 149.05 85.5504 144.2C89.0004 139.25 90.5004 133 89.8004 126.6C88.5004 114.15 79.2504 104.75 68.7504 104.75Z" fill="#221F1F"/>
<path d="M172.723 131.063C174.215 116.865 165.495 104.312 153.247 103.025C140.999 101.738 129.86 112.204 128.368 126.402C126.876 140.6 135.596 153.153 147.844 154.44C160.093 155.727 171.231 145.261 172.723 131.063Z" fill="white"/>
<path d="M149.9 156.4C149.15 156.4 148.4 156.35 147.7 156.3C141.25 155.6 135.45 152.1 131.45 146.35C127.5 140.7 125.75 133.55 126.55 126.25C127.3 118.95 130.5 112.3 135.55 107.6C140.65 102.8 147.05 100.55 153.5 101.2C159.95 101.9 165.75 105.4 169.75 111.15C173.7 116.8 175.45 123.95 174.65 131.25C173.1 145.6 162.25 156.4 149.9 156.4ZM151.25 104.75C146.5 104.75 141.9 106.65 138.1 110.25C133.7 114.35 130.95 120.15 130.25 126.6C129.55 133.05 131.1 139.3 134.5 144.2C137.85 149.05 142.7 152.05 148.1 152.6C159.35 153.8 169.6 144.05 170.95 130.85C171.65 124.4 170.1 118.15 166.7 113.25C163.35 108.4 158.5 105.4 153.1 104.85C152.45 104.75 151.85 104.75 151.25 104.75Z" fill="#221F1F"/>
<path d="M78.4502 144.9C65.6502 144.9 54.6002 135.8 49.4502 122.6C48.9502 125.25 48.8002 128.05 49.1002 130.85C50.4002 143.3 59.6502 152.7 70.1502 152.7C70.7502 152.7 71.3502 152.65 72.0002 152.6C77.4002 152.05 82.2002 149.05 85.6002 144.2C85.7002 144.1 85.7502 143.95 85.8502 143.85C83.4002 144.5 80.9502 144.9 78.4502 144.9Z" fill="#E4E4E4"/>
<path d="M157.65 146.15C146 146.15 135.75 138.6 130.15 127.25C129.65 133.45 131.15 139.45 134.5 144.2C137.85 149.05 142.7 152.05 148.1 152.6C154.6 153.3 160.8 150.3 165.1 145.1C162.7 145.8 160.2 146.15 157.65 146.15Z" fill="#E4E4E4"/>
<path d="M40.5498 30.85C42.7589 30.85 44.5498 29.0591 44.5498 26.85C44.5498 24.6408 42.7589 22.85 40.5498 22.85C38.3407 22.85 36.5498 24.6408 36.5498 26.85C36.5498 29.0591 38.3407 30.85 40.5498 30.85Z" fill="#9E9E9E"/>
<path d="M175.6 68.75C174.05 68.75 172.55 68.15 171.45 67.05L161.6 57.2C159.3 54.9 159.3 51.2 161.6 48.95L171.55 39C172.65 37.95 174.15 37.3 175.7 37.3C177.25 37.3 178.75 37.9 179.85 39L189.7 48.85C190.8 49.95 191.4 51.4 191.4 53C191.4 54.55 190.8 56.05 189.7 57.15L179.75 67C178.65 68.15 177.2 68.75 175.6 68.75Z" fill="white"/>
<path d="M186.85 51.65L177 41.8C176.3 41.1 175.1 41.1 174.4 41.8L164.45 51.75C163.75 52.45 163.75 53.65 164.45 54.35L174.3 64.2C174.65 64.55 175.1 64.75 175.6 64.75C176.1 64.75 176.55 64.55 176.9 64.2L186.85 54.25C187.6 53.5 187.6 52.35 186.85 51.65Z" fill="white"/>
<path d="M175.697 43.072L165.763 53.0068L175.627 62.8708L185.561 52.9361L175.697 43.072Z" fill="#F0AA97"/>
<path d="M175.6 64.75C175.15 64.75 174.65 64.55 174.3 64.2L164.45 54.35C164.1 54 163.9 53.55 163.9 53.05C163.9 52.55 164.1 52.1 164.45 51.75L174.4 41.8C175.1 41.1 176.3 41.1 177 41.8L186.85 51.65C187.55 52.35 187.55 53.55 186.85 54.25L176.9 64.2C176.55 64.55 176.1 64.75 175.6 64.75ZM168.35 53.05L175.6 60.3L182.95 52.95L175.7 45.7L168.35 53.05Z" fill="#221F1F"/>
<path d="M47.2454 47.4949L38.6895 56.0508L47.2454 64.6068L55.8013 56.0508L47.2454 47.4949Z" fill="#9E9E9E"/>
<path d="M47.2504 66.2C46.8504 66.2 46.4504 66.05 46.1504 65.75L37.6004 57.2C37.0004 56.6 37.0004 55.6 37.6004 54.95L46.1504 46.4C46.7504 45.8 47.7504 45.8 48.4004 46.4L56.9504 54.95C57.5504 55.55 57.5504 56.55 56.9504 57.2L48.4004 65.75C48.0504 66.05 47.6504 66.2 47.2504 66.2ZM40.9504 56.05L47.2504 62.35L53.5504 56.05L47.2504 49.75L40.9504 56.05Z" fill="#9E9E9E"/>
<path d="M184.9 133.2C184.9 133.2 153.95 144.4 148.35 156.35C142.75 168.3 144.75 169.65 144.75 169.65L155.9 178.3L173.2 173.45L186.35 167.3L194 154.8L184.9 133.2Z" fill="white"/>
<path d="M158.3 179.25C154.7 179.25 151.4 178.4 148.65 176.75C144.8 174.4 142.7 170.65 142.7 166.25C142.7 160.25 145.4 154.65 150.1 150.9C150.15 150.85 150.2 150.8 150.25 150.75C150.35 150.65 160.15 142.55 174.15 133.45C175 132.9 176.15 133.15 176.7 134C177.25 134.85 177 136 176.15 136.55C162.95 145.1 153.55 152.75 152.65 153.5C152.6 153.55 152.55 153.6 152.45 153.65C148.6 156.7 146.4 161.25 146.4 166.15C146.4 169.2 147.9 171.8 150.6 173.5C155.55 176.55 163.4 175.95 171.1 172.05C171.2 172 171.3 171.95 171.4 171.95L172.15 171.6C187.1 164.45 193.3 161.5 193.3 143.65C193.3 106.5 158.3 79.5 110.05 79.5C109.05 79.5 108.2 78.65 108.2 77.65C108.2 76.65 109.05 75.8 110.05 75.8C134.05 75.8 156 82.5 171.85 94.65C188.05 107.05 196.95 124.45 196.95 143.7C196.95 163.9 189.2 167.6 173.7 175L172.75 175.45C172.7 175.5 172.6 175.5 172.5 175.55C167.6 178 162.7 179.25 158.3 179.25Z" fill="#221F1F"/>
<path d="M35.1 133.2C35.1 133.2 66.05 144.4 71.65 156.35C77.25 168.3 75.35 170.1 75.35 170.1L63.85 178.6L48 174.8L31.65 165.7L27 155.5L35.1 133.2Z" fill="white"/>
<path d="M61.6998 179.25C57.2498 179.25 52.3498 178 47.4998 175.55C47.3998 175.55 47.3498 175.5 47.2498 175.45L46.2998 175C30.7998 167.6 23.0498 163.9 23.0498 143.7C23.0498 124.5 31.9498 107.05 48.1498 94.65C63.9998 82.5 85.9498 75.8 109.95 75.8C110.95 75.8 111.8 76.65 111.8 77.65C111.8 78.65 110.95 79.5 109.95 79.5C61.7498 79.5 26.6998 106.5 26.6998 143.65C26.6998 161.5 32.8998 164.45 47.8498 171.6L48.5998 171.95C48.6998 172 48.7998 172 48.8998 172.05C56.5998 175.95 64.4498 176.5 69.3998 173.5C72.0998 171.85 73.5998 169.25 73.5998 166.15C73.5998 161.25 71.3998 156.7 67.5498 153.65C67.4998 153.6 67.4498 153.55 67.3498 153.5C66.4498 152.75 57.0998 145.1 43.8498 136.55C42.9998 136 42.7498 134.85 43.2998 134C43.8498 133.15 44.9998 132.9 45.8498 133.45C59.8998 142.5 69.6498 150.65 69.7498 150.75C69.7998 150.8 69.8498 150.85 69.8998 150.9C74.5998 154.65 77.2998 160.25 77.2998 166.25C77.2998 170.65 75.1998 174.4 71.3498 176.75C68.6498 178.4 65.3498 179.25 61.6998 179.25Z" fill="#221F1F"/>
<path d="M140.4 59.4C140.4 79.55 126.8 98.5 110 98.5C93.1996 98.5 79.5996 79.6 79.5996 59.4C79.5996 39.2 93.1996 25.45 110 25.45C126.8 25.45 140.4 39.2 140.4 59.4Z" fill="white"/>
<path d="M110 100.35C101.4 100.35 93.25 95.85 87.05 87.65C81.15 79.9 77.75 69.6 77.75 59.45C77.75 39.05 91.6 23.65 110 23.65C128.4 23.65 142.25 39.05 142.25 59.45C142.25 69.6 138.85 79.9 132.95 87.65C126.75 95.8 118.6 100.35 110 100.35ZM110 27.3C102.25 27.3 95.1 30.45 89.85 36.1C84.45 42 81.45 50.25 81.45 59.4C81.45 79.25 94.8 96.65 110 96.65C125.2 96.65 138.55 79.25 138.55 59.4C138.55 50.25 135.55 42 130.15 36.1C124.9 30.4 117.75 27.3 110 27.3Z" fill="#221F1F"/>
<path d="M81.7502 54.55C81.5502 56.15 81.4502 57.75 81.4502 59.4C81.4502 79.25 94.8002 96.65 110 96.65C116.25 96.65 122.15 93.7 127 88.9C105.35 88.4 87.2502 74 81.7502 54.55Z" fill="#E4E4E4"/>
</svg>
