<svg width="165" height="165" viewBox="0 0 165 165" fill="none" xmlns="http://www.w3.org/2000/svg">
<path d="M36.7871 155.138C36.6746 155.138 36.5621 155.138 36.4496 155.138C33.8246 154.875 31.9121 152.588 32.1371 150C32.8121 141.488 36.2621 131.138 42.2996 119.25C37.8371 114.638 35.0621 108.788 34.1996 102.188C32.9996 92.7375 35.5871 81.7875 41.8871 69.6375C42.4871 68.475 43.4996 67.6125 44.8121 67.2375C44.9246 67.2001 44.9996 67.1626 45.1121 67.1626C45.4121 67.0876 45.7496 67.0875 46.0496 67.0875C46.8746 67.0875 47.6621 67.275 48.3371 67.65L47.1371 64.6125C46.5371 63.1875 46.6871 61.5375 47.5496 60.1875C47.5496 60.15 47.5871 60.1125 47.6246 60.1125C48.9371 58.1625 50.2121 56.475 51.2621 55.0875C57.1871 47.4375 64.3121 40.3125 72.4871 33.8625C73.2746 33.225 74.3621 32.85 75.4121 32.85C76.4996 32.85 77.5496 33.2251 78.4121 33.9001L78.2621 32.7C78.0371 30.975 78.7871 29.2875 80.2121 28.2376C80.2496 28.2001 80.2871 28.2 80.2871 28.1625C95.4746 17.8875 114.712 9.86255 124.087 9.86255C126.3 9.86255 127.95 10.275 129.225 11.175C130.35 11.9625 133.762 14.3625 132.487 29.5125C131.7 39.2625 129.3 50.4 125.737 60.825C125.175 62.5125 123.75 63.7125 121.987 64.0125L120.112 64.3501C122.175 65.5876 123 68.1376 122.062 70.3501C118.575 78.6001 114.262 86.5126 109.312 93.7876C104.737 100.463 100.05 106.35 95.3996 111.263C95.3621 111.3 95.3621 111.3 95.3246 111.338C94.4246 112.238 93.1871 112.763 91.8746 112.763C91.6121 112.763 91.3496 112.725 91.1246 112.688C91.1246 112.8 91.1621 112.875 91.1621 112.988C91.1621 113.1 91.1621 113.175 91.1621 113.288C91.1621 114.75 90.5621 116.063 89.4746 116.963C79.1621 126.113 69.3371 128.025 62.9246 128.025C58.2746 128.025 53.8121 126.975 49.9496 125.063C44.8871 135.225 42.0746 143.813 41.5121 150.713C41.3621 153.225 39.2996 155.175 36.7871 155.175V155.138Z" fill="white"/>
<path d="M75.0371 104.587L92.0621 107.962C96.4496 103.312 100.987 97.6873 105.525 91.0498C110.625 83.5873 114.675 75.8998 117.862 68.4373L105.337 62.1373L121.387 59.3248C129.337 36.1498 129.112 16.7998 126.637 15.0748C123.487 12.8623 103.5 18.3373 83.0621 32.1373L85.0121 48.4873L75.4871 37.6498C68.2496 43.3498 61.1996 50.0998 55.0871 57.9748C53.8496 59.5873 52.6871 61.1998 51.5996 62.7748L58.8371 81.0748L46.1246 71.8123C33.5996 95.8123 38.2871 111.337 49.6496 119.287C58.7621 125.662 73.5371 124.8 86.5496 113.325L75.0371 104.587Z" fill="#F0AA97"/>
<path d="M63.037 124.65C57.5245 124.65 52.5745 123.037 48.862 120.412C42.487 115.95 38.587 109.5 37.5745 101.737C36.4495 92.9624 38.9245 82.6874 44.9245 71.1749C45.112 70.7999 45.4495 70.5749 45.8245 70.4624C46.1995 70.3874 46.6495 70.4624 46.9495 70.6874L55.7995 77.1374L50.3245 63.2999C50.137 62.8874 50.212 62.3999 50.4745 61.9874C51.6745 60.2249 52.837 58.6499 53.9995 57.1124C59.6995 49.7249 66.637 42.7874 74.6245 36.5249C75.187 36.0749 76.0495 36.1499 76.537 36.7124L83.0995 44.1749L81.6745 32.2874C81.5995 31.7624 81.862 31.2749 82.2745 30.9749C101.287 18.1124 123 10.8749 127.387 13.9499C130.012 15.7874 129.562 25.2749 129.225 29.2499C128.475 38.6999 126.15 49.5374 122.625 59.7749C122.475 60.2624 122.062 60.5999 121.537 60.6749L109.612 62.7749L118.424 67.1999C119.062 67.5374 119.362 68.3249 119.062 68.9999C115.612 77.1374 111.412 84.8249 106.612 91.8749C102.112 98.4374 97.537 104.175 93.037 108.937C92.6995 109.275 92.212 109.425 91.762 109.35L80.6245 107.137L87.337 112.237C87.6745 112.5 87.862 112.875 87.8995 113.287C87.8995 113.7 87.7495 114.112 87.412 114.375C79.162 121.725 70.537 124.65 63.037 124.65ZM46.612 73.9124C33.2245 100.687 43.1995 113.1 50.3995 118.162C58.0495 123.525 71.362 124.012 84.2995 113.4L74.1745 105.712C73.6495 105.337 73.4995 104.625 73.762 104.025C74.0245 103.425 74.662 103.087 75.2995 103.237L91.5745 106.462C95.812 101.925 100.125 96.4874 104.362 90.2999C108.825 83.7749 112.762 76.6499 116.025 69.1124L104.7 63.3749C104.175 63.1124 103.875 62.5124 103.95 61.9499C104.025 61.3499 104.475 60.8999 105.075 60.7874L120.299 58.0874C123.524 48.5249 125.7 38.4749 126.45 29.6624C127.2 21.1124 126.3 16.8749 125.775 16.1999C125.175 15.8999 121.425 15.4874 111.75 18.9374C102.937 22.0499 93.2995 26.9999 84.5245 32.8499L86.362 48.3374C86.437 48.9374 86.0995 49.5374 85.537 49.7624C84.9745 50.0249 84.337 49.8749 83.9245 49.4249L75.2995 39.5624C67.912 45.4499 61.4995 51.9374 56.1745 58.8374C55.162 60.1499 54.187 61.4999 53.137 62.9624L60.112 80.5499C60.337 81.1124 60.1495 81.7874 59.662 82.1624C59.1745 82.5374 58.4995 82.5374 58.012 82.1999L46.612 73.9124Z" fill="#221F1F"/>
<path d="M125.775 16.2C125.175 15.9 121.425 15.4875 111.75 18.9375C102.937 22.05 93.2996 27 84.5246 32.85L86.3621 48.3374C86.4371 48.9374 86.0996 49.5374 85.5371 49.7625C84.9746 50.0249 84.3371 49.875 83.9246 49.4249L75.2996 39.5625C67.9121 45.45 61.4996 51.9374 56.1746 58.8374C55.1621 60.1499 54.1871 61.4999 53.1371 62.9624L60.1121 80.5499C60.3371 81.1124 60.1496 81.7875 59.6621 82.1625C59.1746 82.5375 58.4996 82.5375 58.0121 82.2L46.6121 73.9125C34.3871 98.4 41.6621 110.887 48.5246 116.7C53.9246 108 88.9871 52.575 126.6 20.5875C126.45 18 126.075 16.575 125.775 16.2Z" fill="#D88C7D"/>
<path d="M36.8997 151.762C36.8622 151.762 36.8247 151.762 36.7872 151.762C36.0372 151.687 35.4372 151.05 35.5122 150.262C36.8997 133.05 50.0622 108.112 74.5872 76.1999C92.8122 52.4999 110.85 33.5624 111.037 33.3749C111.562 32.8124 112.462 32.8124 112.987 33.3374C113.55 33.8624 113.55 34.7624 113.025 35.2874C112.837 35.4749 94.9122 54.2999 76.7622 77.8874C60.1122 99.5249 39.9372 129.712 38.2497 150.45C38.2122 151.2 37.6122 151.762 36.8997 151.762Z" fill="#221F1F"/>
</svg>
