<svg width="165" height="165" viewBox="0 0 165 165" fill="none" xmlns="http://www.w3.org/2000/svg">
<path d="M75.0361 104.588L92.0611 107.963C96.4486 103.313 100.986 97.6878 105.524 91.0503C110.624 83.5878 114.674 75.9003 117.861 68.4378L105.336 62.1378L121.386 59.3253C129.336 36.1503 129.111 16.8003 126.636 15.0753C123.486 12.8628 103.499 18.3378 83.0611 32.1378L85.0111 48.4878L75.4861 37.6503C68.2486 43.3503 61.1986 50.1003 55.0861 57.9753C53.8486 59.5878 52.6861 61.2003 51.5986 62.7753L58.8361 81.0753L46.1236 71.8128C33.5986 95.8128 38.2861 111.338 49.6486 119.288C58.7611 125.663 73.5361 124.8 86.5486 113.325L75.0361 104.588Z" fill="white"/>
<path d="M63.037 124.65C57.5245 124.65 52.5745 123.038 48.862 120.413C42.487 115.95 38.587 109.5 37.5745 101.738C36.4495 92.9627 38.9245 82.6877 44.9245 71.1752C45.112 70.8002 45.4495 70.5752 45.8245 70.4627C46.1995 70.3877 46.6495 70.4627 46.9495 70.6877L55.7995 77.1377L50.3245 63.3002C50.137 62.8877 50.212 62.4002 50.4745 61.9877C51.6745 60.2252 52.837 58.6502 53.9995 57.1127C59.6995 49.7252 66.637 42.7877 74.6245 36.5252C75.187 36.0752 76.0495 36.1502 76.537 36.7127L83.0995 44.1752L81.6745 32.2877C81.5995 31.7627 81.862 31.2752 82.2745 30.9752C101.287 18.1127 123 10.8752 127.387 13.9502C130.012 15.7877 129.562 25.2752 129.225 29.2502C128.475 38.7002 126.15 49.5377 122.625 59.7752C122.475 60.2627 122.062 60.6002 121.537 60.6752L109.612 62.7752L118.424 67.2002C119.062 67.5377 119.362 68.3252 119.062 69.0002C115.612 77.1377 111.412 84.8252 106.612 91.8752C102.112 98.4377 97.537 104.175 93.037 108.938C92.6995 109.275 92.212 109.425 91.762 109.35L80.6245 107.138L87.337 112.238C87.6745 112.5 87.862 112.875 87.8995 113.288C87.8995 113.7 87.7495 114.113 87.412 114.375C79.162 121.725 70.537 124.65 63.037 124.65ZM46.612 73.9127C33.2245 100.688 43.1995 113.1 50.3995 118.163C58.0495 123.525 71.362 124.013 84.2995 113.4L74.1745 105.713C73.6495 105.338 73.4995 104.625 73.762 104.025C74.0245 103.425 74.662 103.125 75.2995 103.238L91.5745 106.463C95.812 101.925 100.125 96.4877 104.362 90.3002C108.825 83.7752 112.762 76.6502 116.025 69.1127L104.7 63.3752C104.175 63.1127 103.875 62.5127 103.95 61.9502C104.025 61.3502 104.475 60.9002 105.075 60.7877L120.299 58.0877C123.524 48.5252 125.7 38.4752 126.45 29.6627C127.2 21.1127 126.3 16.8752 125.775 16.2002C125.175 15.9002 121.425 15.4877 111.75 18.9377C102.937 22.0502 93.2995 27.0002 84.5245 32.8502L86.362 48.3377C86.437 48.9377 86.0995 49.5377 85.537 49.7627C84.9745 50.0252 84.337 49.8752 83.9245 49.4252L75.2995 39.5627C67.912 45.4502 61.4995 51.9377 56.1745 58.8377C55.162 60.1502 54.187 61.5002 53.137 62.9627L60.112 80.5502C60.337 81.1127 60.1495 81.7877 59.662 82.1627C59.1745 82.5377 58.4995 82.5377 58.012 82.2002L46.612 73.9127Z" fill="#221F1F"/>
<path d="M36.8997 151.762C36.8622 151.762 36.8247 151.762 36.7872 151.762C36.0372 151.687 35.4372 151.05 35.5122 150.262C36.8997 133.05 50.0622 108.112 74.5872 76.1999C92.8122 52.4999 110.85 33.5624 111.037 33.3749C111.562 32.8124 112.462 32.8124 112.987 33.3374C113.55 33.8624 113.55 34.7624 113.025 35.2874C112.837 35.4749 94.9122 54.2999 76.7622 77.8874C60.1122 99.5249 39.9372 129.712 38.2497 150.45C38.2122 151.2 37.6122 151.762 36.8997 151.762Z" fill="#221F1F"/>
</svg>
