<svg width="220" height="220" viewBox="0 0 220 220" fill="none" xmlns="http://www.w3.org/2000/svg">
<path d="M171 183.2C168.2 183.2 165.7 181.3 165.1 178.5C164.9 177.5 164.9 176.5 165.2 175.6H19.5C16.2 175.6 13.5 172.9 13.5 169.6C13.5 166.3 16.2 163.6 19.5 163.6H20.2L63.1 103C63.2 102.9 63.2 102.9 63.3 102.8C63.4 102.7 63.4 102.6 63.5 102.6C63.7 102.4 63.8 102.2 64 102.1C64.1 102 64.2 101.9 64.3 101.8C64.5 101.6 64.7 101.5 64.9 101.4C65 101.3 65.2 101.3 65.2 101.2C65.3 101.1 65.6 101 65.8 100.9C65.9 100.9 66.1 100.8 66.2 100.8C66.4 100.7 66.7 100.7 66.9 100.6C67.1 100.6 67.2 100.6 67.3 100.5C67.5 100.5 67.8 100.5 68 100.5C68.2 100.5 68.3 100.5 68.5 100.5C68.7 100.5 68.9 100.5 69.1 100.6C69.2 100.6 69.4 100.7 69.5 100.7C69.6 100.7 69.7 100.8 69.9 100.8C70.1 100.8 70.2 100.9 70.4 101C70.5 101 70.6 101.1 70.7 101.1C70.8 101.2 71 101.2 71.1 101.3L78.5 105.4L110.1 66.8V30.2C110.1 27 112.7 24.4 115.9 24.4C118.4 24.4 120.5 25.9 121.3 28.1H133.6C136 28.1 138.4 29.3 139.8 31.2C140.2 31.7 140.5 32.3 140.7 32.9H144.7C147.1 32.9 149.4 34.1 150.9 36C152.3 37.9 152.8 40.5 152.1 42.8L147.6 57.4C146.6 60.7 143.6 62.8 140.2 62.8H127.5C125.3 62.8 123.1 61.8 121.7 60.1V67L200.3 163.5H200.6C203.9 163.5 206.6 166.2 206.6 169.5C206.6 172.8 203.9 175.5 200.6 175.5H182.7C182.5 176.5 182.1 177.4 181.4 178.2C180 179.8 178.5 181 176.7 181.7L176.4 181.8C175.4 182.2 174.2 182.5 172.4 182.9C171.9 183.1 171.4 183.2 171 183.2Z" fill="white"/>
<path d="M47.4004 97.2C39.1004 97.2 32.4004 90.5 32.4004 82.2C32.4004 73.9 39.1004 67.2 47.4004 67.2C49.9004 67.2 52.4004 67.8 54.6004 69L55.5004 69.5L56.0004 68.7C59.4004 62.9 65.7004 59.3 72.4004 59.3C81.2004 59.3 89.0004 65.5 90.9004 74.1L91.2004 75.4L92.3004 74.8C94.0004 74 95.8004 73.5 97.7004 73.5C104.2 73.5 109.6 78.8 109.6 85.4C109.6 92 104.3 97.3 97.7004 97.3H47.4004V97.2Z" fill="white"/>
<path d="M56.4008 95.3C47.8008 93.7 40.4008 88 40.4008 80C40.4008 74.6 43.6008 70.3 48.3008 67.8C40.8008 67.8 34.3008 74.4 34.3008 81.9C34.3008 89.9 41.4008 96.4 50.1008 96.4H63.9008L56.4008 95.3Z" fill="#CCE7FF"/>
<path fill-rule="evenodd" clip-rule="evenodd" d="M45.7004 98.2C37.7004 97.3 31.4004 90.5 31.4004 82.3C31.4004 73.5 38.6004 66.3 47.4004 66.3C50.2004 66.3 52.8004 67 55.1004 68.3C58.6004 62.4 65.0004 58.4 72.3004 58.4C80.6004 58.4 87.7004 63.5 90.8004 70.7C91.2004 71.8 91.6004 72.9 91.8004 74C92.8004 73.5 93.9004 73.1 95.1004 72.9C95.9004 72.7 96.8004 72.6 97.6004 72.6C104.7 72.6 110.5 78.4 110.5 85.5C110.5 92 105.6 97.4 99.4004 98.2C98.8004 98.3 98.3004 98.3 97.7004 98.3H47.4004C46.8004 98.2 46.3004 98.2 45.7004 98.2ZM58.1004 69.9C57.2004 71.5 55.1004 72.1 53.5004 71.2C51.7004 70.2 49.7004 69.7 47.5004 69.7C40.6004 69.7 34.9004 75.3 34.9004 82.3C34.9004 89.2 40.5004 94.9 47.5004 94.9H97.7004C102.9 94.9 107.1 90.7 107.1 85.5C107.1 80.3 102.9 76.1 97.7004 76.1C96.2004 76.1 94.7004 76.5 93.4004 77.1C92.5004 77.6 91.3004 77.6 90.4004 77.1C89.4004 76.6 88.7004 75.8 88.5004 74.7C86.9004 67.3 80.2004 61.8 72.4004 61.8C66.3004 61.7 60.9004 65 58.1004 69.9Z" fill="#221F1F"/>
<path fill-rule="evenodd" clip-rule="evenodd" d="M88 103.7L111.8 72L117.1 94.1L102.4 112.4L88 103.7Z" fill="white"/>
<path fill-rule="evenodd" clip-rule="evenodd" d="M164.8 98.1C169.1 97.3 172.3 93.6 172.3 89.2C172.3 84.2 168.2 80.1 163.1 80.1C161.5 80.1 160 80.5 158.7 81.2C156.7 77.8 153 75.6 148.8 75.6C144.6 75.6 140.9 77.9 138.9 81.3C138.3 82.3 137.9 83.4 137.6 84.5C136.6 84 135.5 83.7 134.3 83.7C130.2 83.7 126.9 87 126.9 91C126.9 94.4 129.3 97.3 132.6 98.1C133.1 98.2 133.7 98.3 134.3 98.3H163C163.6 98.2 164.2 98.2 164.8 98.1ZM155.7 82.9C156.6 84.5 158.7 85 160.3 84.2C161.1 83.8 162.1 83.5 163.1 83.5C166.3 83.5 168.8 86.1 168.8 89.1C168.8 92.2 166.3 94.7 163.1 94.7H134.3C132.1 94.7 130.4 92.9 130.4 90.8C130.4 88.7 132.1 86.9 134.3 86.9C135 86.9 135.6 87.1 136.1 87.3C137 87.8 138.2 87.8 139.1 87.3C140.1 86.8 140.8 86 141 84.9C141.8 81.4 145 78.7 148.8 78.7C151.7 79 154.3 80.6 155.7 82.9Z" fill="#A0A0A0"/>
<path d="M109.6 195.6C85.4002 195.6 62.6002 193.2 45.4002 188.7C26.0002 183.7 16.2002 176.9 16.2002 168.6C16.2002 166.4 18.0002 164.6 20.2002 164.6H199C201.2 164.6 203 166.4 203 168.6C203 177 193.2 183.8 173.8 188.7C156.6 193.2 133.8 195.6 109.6 195.6Z" fill="white"/>
<path fill-rule="evenodd" clip-rule="evenodd" d="M58 169.7H197.1L116.9 70.4L102.3 102.5L116.3 120L114.7 158.5L100 146.1L94.3 124.2L68.5 107L59.6 141L67.6 155.7L58 169.7Z" fill="#BCDEE9"/>
<path d="M117.8 33.9C116.8 33.9 116 34.7 116 35.7V50.2C116 51.2 116.8 52 117.8 52H126.5L125.7 54.4C125.5 55 125.6 55.6 126 56.1C126.3 56.6 126.9 56.9 127.5 56.9H140.2C141 56.9 141.7 56.4 142 55.6L146.5 41C146.7 40.4 146.6 39.8 146.2 39.4C145.9 38.9 145.3 38.7 144.7 38.7H134.6L135.3 36.3C135.5 35.7 135.4 35.1 135 34.7C134.7 34.2 134.1 33.9 133.5 33.9H117.8Z" fill="#FFA996" stroke="#221F1F" stroke-width="3.6949" stroke-linecap="round" stroke-linejoin="round"/>
<path d="M117.8 35.8V50.3H129L132.1 40.5L133.6 35.7H117.8V35.8Z" fill="#E88974"/>
<path d="M115.8 71.5C114.8 71.5 114 70.7 114 69.7V30.2C114 29.2 114.8 28.4 115.8 28.4C116.8 28.4 117.6 29.2 117.6 30.2V69.6C117.6 70.7 116.8 71.5 115.8 71.5Z" fill="#221F1F"/>
<path d="M79.7998 113.1L115.7 69.2" stroke="#221F1F" stroke-width="4.0437" stroke-linecap="round" stroke-linejoin="round"/>
<path d="M109.6 191.6C159 191.6 199 181.3 199 168.6H20.2002C20.2002 181.3 60.2002 191.6 109.6 191.6Z" fill="#A0A0A0"/>
<path d="M175.2 173.1C174.6 173.8 174.1 174.2 173.6 174.3H173.5H173.4C173 174.5 172 174.8 170.5 175.1C169.4 175.3 168.7 176.4 169 177.5C169.2 178.6 170.3 179.3 171.4 179C172.8 178.7 174 178.4 174.8 178H174.9C176.2 177.5 177.3 176.6 178.2 175.6C178.9 174.7 178.8 173.5 178 172.8C177.2 172.1 175.9 172.2 175.2 173.1Z" fill="#221F1F"/>
<path d="M162.5 176.6C160.4 176.9 158.2 177.2 156 177.5C154.9 177.6 154.1 178.6 154.2 179.7C154.3 180.8 155.3 181.6 156.4 181.5C158.7 181.2 160.9 180.9 163.1 180.6C164.2 180.4 165 179.4 164.8 178.3C164.6 177.2 163.6 176.5 162.5 176.6Z" fill="#221F1F"/>
<path d="M147.8 178.2C146.6 178.3 145.6 178.3 144.6 178.3C143.5 178.3 142.6 179.2 142.6 180.3C142.6 181.4 143.5 182.3 144.6 182.3C145.7 182.3 146.8 182.3 148 182.2C149.1 182.1 150 181.2 149.9 180.1C149.8 179 148.9 178.2 147.8 178.2Z" fill="#221F1F"/>
<path d="M123.4 92.4C124.3 91.8 124.5 90.5 123.9 89.6C122.6 87.8 121.3 86 120.1 83.9C119.6 82.9 118.3 82.6 117.3 83.1C116.3 83.6 116 84.9 116.5 85.9C117.8 88.1 119.2 90.2 120.5 91.9C121.3 92.8 122.5 93 123.4 92.4Z" fill="#96B5CA"/>
<path d="M126.8 141.3C127.2 140.4 127.9 139.4 128.7 138.3C129.4 137.4 130 136.6 130.6 135.8C131.3 134.9 131.1 133.6 130.2 133C129.3 132.3 128 132.5 127.4 133.4C126.8 134.2 126.2 135 125.6 135.8C124.6 137.1 123.8 138.3 123.3 139.4C122.8 140.4 123.2 141.6 124.2 142.1C125.1 142.7 126.3 142.3 126.8 141.3Z" fill="#96B5CA"/>
<path d="M128.1 118.3C128.7 117.4 128.5 116.1 127.6 115.5C126.8 114.9 125.9 114.4 124.9 113.8C123.7 113.1 122.9 112.4 122.5 111.9C121.8 111 120.5 110.9 119.7 111.7C118.8 112.4 118.7 113.7 119.5 114.5C120.3 115.5 121.5 116.4 122.9 117.3C123.8 117.9 124.7 118.4 125.4 118.9C126.2 119.5 127.5 119.3 128.1 118.3Z" fill="#96B5CA"/>
<path d="M117.7 76.5C117.6 75.5 117.6 74.5 117.8 73.4L113.8 72.9C113.6 74.3 113.6 75.6 113.7 76.8C113.8 77.9 114.8 78.7 115.9 78.6C116.9 78.6 117.8 77.6 117.7 76.5Z" fill="#96B5CA"/>
<path d="M131.2 125.4C131.3 126 131.2 126.7 130.9 127.5C130.5 128.6 131.1 129.7 132.2 130.1C133.3 130.5 134.4 129.9 134.8 128.8C135.2 127.5 135.4 126.3 135.2 124.9C135 123.6 134.5 122.3 133.7 121.1C133.1 120.2 131.8 119.9 130.9 120.6C130 121.2 129.7 122.5 130.4 123.4C130.9 124.2 131.2 124.8 131.2 125.4Z" fill="#96B5CA"/>
<path d="M123.1 100.6C122.3 101.7 121.6 102.6 120.9 103.6C120.2 104.5 120.4 105.8 121.3 106.4C122.2 107.1 123.5 106.9 124.1 106C124.8 105.1 125.6 104 126.4 103C127.4 101.6 127.9 100.1 128 98.6C128 97.5 127.1 96.6 126 96.5C124.9 96.4 124 97.4 123.9 98.5C123.9 99.2 123.7 99.8 123.1 100.6Z" fill="#96B5CA"/>
<path d="M170.6 157.4C170.9 156.3 170.2 155.2 169.1 155C166.7 154.4 164 153.9 161.3 153.5C160.2 153.3 159.2 154.1 159 155.2C158.8 156.3 159.6 157.3 160.7 157.5C163.4 157.9 165.9 158.3 168.2 158.9C169.2 159.1 170.3 158.4 170.6 157.4Z" fill="#96B5CA"/>
<path d="M134.5 149.8C131.6 149.1 129.4 148.3 128 147.3C127.1 146.7 125.8 146.9 125.2 147.8C124.6 148.7 124.8 150 125.7 150.6C127.8 152 130.5 153 133.6 153.7C134.7 154 135.8 153.3 136 152.2C136.2 151.1 135.5 150.1 134.5 149.8Z" fill="#96B5CA"/>
<path d="M181.501 163.4C181.001 161.7 180.101 160.3 178.801 159.2C178.001 158.5 176.701 158.5 175.901 159.4C175.201 160.2 175.201 161.5 176.101 162.3C176.901 163 177.401 163.7 177.601 164.5C177.701 165 177.801 165.9 177.701 166.9C177.601 168 178.401 169 179.501 169.1C180.601 169.2 181.601 168.4 181.701 167.3C181.801 166 181.801 164.6 181.501 163.4Z" fill="#96B5CA"/>
<path d="M151.501 152.3C148.901 152 146.301 151.7 143.801 151.4C142.701 151.3 141.701 152 141.501 153.1C141.401 154.2 142.101 155.2 143.201 155.4C145.701 155.7 148.401 156 151.001 156.3C152.101 156.4 153.101 155.6 153.201 154.5C153.401 153.4 152.601 152.4 151.501 152.3Z" fill="#96B5CA"/>
<path d="M23.7998 168.8L67.9998 106.5L79.7998 113.1L94.0998 123.5L99.2998 145.8L114.7 158.7L115.4 120.1L102.5 102.3L115.7 69.2L196.8 168.8" stroke="#221F1F" stroke-width="4.0437" stroke-linecap="round" stroke-linejoin="round"/>
<path d="M68 106.5L59.3 142L68 156.3L57 169.2" stroke="#221F1F" stroke-width="4.0437" stroke-linecap="round" stroke-linejoin="round"/>
<path d="M19.5 169.5H200.5" stroke="#221F1F" stroke-width="4.0437" stroke-linecap="round" stroke-linejoin="round"/>
<path d="M183.2 98.3C185.851 98.3 188 96.151 188 93.5C188 90.849 185.851 88.7 183.2 88.7C180.549 88.7 178.4 90.849 178.4 93.5C178.4 96.151 180.549 98.3 183.2 98.3Z" fill="#A0A0A0"/>
</svg>
