<svg width="220" height="220" viewBox="0 0 220 220" fill="none" xmlns="http://www.w3.org/2000/svg">
<path fill-rule="evenodd" clip-rule="evenodd" d="M30.7001 141.5C29.3001 143.8 26.6001 151.7 26.6001 161.2C26.6001 170.7 34.8001 159.1 34.8001 159.1C34.8001 159.1 30.6001 146.5 30.7001 146.2C30.8001 145.9 30.7001 141.5 30.7001 141.5Z" fill="white"/>
<path fill-rule="evenodd" clip-rule="evenodd" d="M189.3 141.5C190.7 143.8 193.4 151.7 193.4 161.2C193.4 170.7 185.2 159.1 185.2 159.1C185.2 159.1 189.4 146.5 189.3 146.2C189.2 145.9 189.3 141.5 189.3 141.5Z" fill="white"/>
<path fill-rule="evenodd" clip-rule="evenodd" d="M108.2 78.7C107.4 78.7 106.3 78.6 105.1 78.2C101.7 77 96.4004 74.1 91.9004 69.6C86.4004 63.9 83.4004 57.1 83.4004 49.8C83.4004 40.7 90.8004 33.3 99.8004 33.3C102.8 33.3 105.6 34.1 108.1 35.6C110.6 34.1 113.5 33.3 116.4 33.3C125.5 33.3 132.8 40.7 132.8 49.8C132.8 57.1 129.9 63.9 124.3 69.6C119.9 74.2 114.6 77 111.1 78.2C110.1 78.6 109 78.7 108.2 78.7ZM99.9004 45.2C97.4004 45.2 95.5004 47.2 95.5004 49.7C95.5004 53.8 97.2004 57.7 100.6 61.1C103.4 63.9 106.5 65.7 108.3 66.5C110.2 65.7 113.3 64 116 61.1C119.4 57.7 121.1 53.8 121.1 49.7C121.1 47.2 119.1 45.2 116.7 45.2C115.3 45.2 114 45.9 113.2 47C112.1 48.5 110.3 49.4 108.4 49.4C106.5 49.4 104.7 48.5 103.6 47C102.5 45.9 101.3 45.2 99.9004 45.2Z" fill="white"/>
<path fill-rule="evenodd" clip-rule="evenodd" d="M177.7 200C175.8 200 174.1 199.2 173 197.7C168.8 192.3 162.1 184.2 155.7 177.4C152.3 173.7 149.3 170.8 146.8 168.6C145.5 167.5 144.5 166.7 143.6 166.1C143 165.7 142.6 165.5 142.5 165.5C141.2 165.2 139.6 165.1 137.9 165.1C136 165.1 133.9 165.3 131.5 165.6C129.5 165.9 127.4 166.3 125.7 166.6L125 166.7C123.4 167 121.9 167.3 120.6 167.5C119.7 167.6 118.9 167.7 118.1 167.7C114.9 167.7 112.1 166.8 110 165.1C107.8 166.8 105 167.7 101.9 167.7C101.1 167.7 100.2 167.6 99.4002 167.5C98.1002 167.3 96.6002 167 95.0002 166.7L94.3002 166.6C92.6002 166.3 90.6002 165.9 88.5002 165.6C86.1002 165.3 84.0002 165.1 82.1002 165.1C80.4002 165.1 78.8002 165.2 77.5002 165.5C77.4002 165.5 77.0002 165.7 76.4002 166.1C75.5002 166.7 74.4002 167.5 73.2002 168.6C70.8002 170.7 67.8002 173.7 64.3002 177.4C58.0002 184.2 51.2002 192.3 47.0002 197.7C45.9002 199.2 44.1002 200 42.3002 200C41.0002 200 39.7002 199.5 38.6002 198.7C38.0002 198.2 37.5002 197.7 37.1002 197C29.3002 188.7 26.2002 172.7 26.5002 160.2C26.7002 153.7 27.7002 149 29.6002 146.1C29.3002 144.6 29.6002 142.9 30.5002 141.5C32.2002 139.1 34.1002 136.2 36.1002 133.2L36.3002 133C40.6002 126.7 45.5002 119.5 50.0002 112.9C53.8002 107.3 56.8002 103 59.2002 99.7C62.2002 95.5 64.1002 93 65.3002 91.7C66.6002 90.2 71.6002 85.3 79.7002 83.1C82.2002 82.4 84.7002 82.1 87.2002 82.1C94.0002 82.1 100.7 84.5 107.2 89.1C108.4 90 109.3 91.1 110 92.3C110.6 91 111.6 89.9 112.8 89.1C119.3 84.4 126 82.1 132.8 82.1C135.3 82.1 137.8 82.4 140.3 83.1C148.3 85.3 153.3 90.2 154.7 91.7C155.8 92.9 157.8 95.5 160.8 99.7C163.2 103.1 166.2 107.4 170 112.9C174.4 119.3 179.2 126.3 183.4 132.5C183.4 132.5 187.8 139 189.5 141.5C190.5 142.9 190.7 144.6 190.4 146.1C192.3 148.9 193.3 153.5 193.5 159.8C193.9 172.3 190.8 188.5 183.1 196.9C182.7 197.6 182.2 198.2 181.5 198.7C180.3 199.5 179 200 177.7 200ZM97.2002 139C98.5002 139.5 102.4 141 106.2 143.5C107.7 144.4 108.9 145.4 110 146.4C111.1 145.4 112.3 144.4 113.8 143.5C117.6 141.1 121.5 139.5 122.8 139C128.9 136.4 132.3 132.8 132.8 128.2C133.2 124.4 131.6 120.9 130.4 119.7C129 118.3 126.9 117.5 124.8 117.5C123.8 117.5 122.9 117.7 122.1 118H122C120.8 118.5 118.8 119.4 116.5 119.4C116.3 119.4 116.2 119.4 116 119.4C113.7 119.3 111.7 118.7 110 117.6C108.3 118.7 106.2 119.3 104 119.4C103.8 119.4 103.7 119.4 103.5 119.4C101.1 119.4 99.2002 118.5 98.0002 118L97.9002 117.9C97.0002 117.5 96.1002 117.3 95.2002 117.3C93.1002 117.3 91.0002 118.1 89.6002 119.5C88.4002 120.7 86.8002 124.2 87.2002 128C87.8002 132.8 91.1002 136.5 97.2002 139Z" fill="white"/>
<path d="M71.2002 108.5C81.6002 92.9 95.8002 97 102.1 100.2C102.9 99.4 103.3 98.5 103.6 97.6C83.3002 88.9 73.6002 101.2 71.2002 108.5Z" fill="#E2AA99"/>
<path d="M148.8 108.5C138.4 92.9 124.2 97 117.9 100.2C117.1 99.4 116.7 98.5 116.4 97.6C136.7 88.9 146.4 101.2 148.8 108.5Z" fill="#E2AA99"/>
<path fill-rule="evenodd" clip-rule="evenodd" d="M150.8 39C149.3 38.2 147.3 38.8 146.5 40.4C145.3 42.7 145.4 45.1 146.1 47.3C146.8 49.5 148 51.2 148.7 52C149.8 52.1 151.9 52.1 154.1 51.4C156.3 50.7 158.3 49.3 159.4 47C160.2 45.4 159.6 43.5 158 42.7C157.1 42.2 156 42.3 155.2 42.7C154.6 43 154 43 153.4 42.7C152.8 42.4 152.4 41.9 152.3 41.3C152.3 40.3 151.7 39.5 150.8 39ZM143 38.6C144.8 35.1 149.1 33.7 152.6 35.5C154 36.2 155 37.3 155.7 38.5C157.1 38.3 158.6 38.5 160 39.2C163.5 41 164.9 45.3 163.1 48.9C161.3 52.4 158.3 54.3 155.5 55.2C152.7 56.1 149.9 56.2 148.2 56C147.7 55.9 147.3 55.8 147 55.6C146.7 55.4 146.3 55.2 146 54.9C144.8 53.7 143.2 51.3 142.4 48.5C141.4 45.6 141.2 42.1 143 38.6Z" fill="#A0A0A0"/>
<path fill-rule="evenodd" clip-rule="evenodd" d="M58.2006 27.9C56.8006 28.6 56.2006 30.4 57.0006 31.8C58.1006 33.9 60.0006 35.2 62.0006 35.9C64.0006 36.6 66.0006 36.6 67.0006 36.5C67.7006 35.7 68.8006 34.1 69.5006 32.1C70.1006 30.1 70.2006 27.8 69.1006 25.6C68.4006 24.2 66.6006 23.6 65.2006 24.3C64.4006 24.7 63.8006 25.5 63.7006 26.4C63.6006 27 63.2006 27.6 62.6006 27.8C62.0006 28.1 61.4006 28.1 60.8006 27.8C60.0006 27.5 59.0006 27.4 58.2006 27.9ZM53.4006 33.6C51.7006 30.2 53.0006 26 56.4006 24.3C57.7006 23.6 59.1006 23.4 60.4006 23.6C61.0006 22.4 62.0006 21.4 63.3006 20.7C66.7006 19 70.8006 20.3 72.6006 23.7C74.3006 27 74.1006 30.4 73.2006 33.2C72.4006 35.9 70.9006 38.1 69.7006 39.3C69.4006 39.6 69.0006 39.9 68.7006 40C68.4006 40.2 68.0006 40.3 67.5006 40.4C65.9006 40.6 63.2006 40.5 60.5006 39.7C58.0006 38.8 55.1006 36.9 53.4006 33.6Z" fill="#A0A0A0"/>
<path d="M69.8 95.8C65.7 100.3 44.1 132.3 33.7 147.6C28.3 152.4 29.3 185.1 41.3 195.5L42.3 194C50.8 183.2 69.4 161.1 76.1 159.6C84.4 157.7 95 160.7 100.1 161.5C105.3 162.2 108.8 159.8 108.1 154.5C107.5 150.3 99.1 146.2 94.9 144.6C76 136.7 80.3 120.3 85.3 115.4C88.9 111.9 95 110.3 100.2 112.5H100.3C101.4 113 102.5 113.4 103.6 113.4C110.6 113.1 110.6 104.6 103.2 101.1C105.8 98.2 105.1 95 103.6 93.9C86.2 81.5 72.8 92.5 69.8 95.8Z" fill="#FCC35E"/>
<path fill-rule="evenodd" clip-rule="evenodd" d="M81.8001 90.9C76.4001 92.4 72.6001 95.7 71.3001 97.1C70.4001 98.1 68.4001 100.7 65.8001 104.3C63.2001 107.9 60.1001 112.5 56.7001 117.4C52.1001 124 47.2001 131.3 42.9001 137.6C40.8001 140.6 38.9001 143.5 37.2001 146C36.6001 146.9 35.3001 147.1 34.4001 146.5C33.5001 145.9 33.3001 144.6 33.9001 143.7C35.6001 141.2 37.5001 138.4 39.6001 135.4C43.9001 129 48.8001 121.8 53.4001 115.1C56.8001 110.2 60.0001 105.6 62.6001 102C65.2001 98.4 67.2001 95.6 68.4001 94.4C70.1001 92.6 74.5001 88.7 80.8001 87C87.3001 85.3 95.6001 85.8 104.9 92.4C107.1 94 107.7 97.4 106.2 100.5C109.2 102.6 110.9 105.5 110.9 108.4C110.9 110.2 110.3 111.9 109.1 113.2C107.8 114.5 106 115.3 103.8 115.4C102.2 115.5 100.7 114.8 99.7001 114.4C99.6001 114.4 99.6001 114.3 99.5001 114.3C95.2001 112.4 89.9001 113.8 86.8001 116.8C84.8001 118.8 82.6001 123.5 83.2001 128.6C83.8001 133.5 86.9001 139 95.7001 142.7C97.9001 143.5 101.1 145 104 146.8C105.4 147.7 106.8 148.8 107.9 150C109 151.1 109.9 152.6 110.1 154.2C110.5 157.3 109.7 160 107.6 161.8C105.6 163.5 102.7 163.9 99.9001 163.5C98.7001 163.3 97.3001 163.1 95.7001 162.8C95.5001 162.8 95.3001 162.7 95.0001 162.7C93.2001 162.3 91.1001 162 89.0001 161.7C84.7001 161.1 80.3001 160.9 76.5001 161.7C76.0001 161.8 75.2001 162.2 74.2001 162.9C73.1001 163.6 71.9001 164.6 70.5001 165.8C67.8001 168.2 64.6001 171.4 61.3001 174.9C54.8001 181.9 48.0001 190.1 43.8001 195.5C43.1001 196.4 41.9001 196.5 41.0001 195.8C40.1001 195.1 40.0001 193.9 40.7001 193C45.0001 187.6 51.8001 179.3 58.4001 172.2C61.7001 168.7 65.0001 165.4 67.9001 162.9C69.3001 161.6 70.7001 160.6 72.0001 159.7C73.2001 158.9 74.5001 158.2 75.7001 158C80.2001 157 85.2001 157.3 89.6001 157.9C91.8001 158.2 93.9001 158.6 95.8001 159C96.0001 159 96.2001 159.1 96.5001 159.1C98.1001 159.4 99.4001 159.7 100.5 159.8C102.8 160.1 104.3 159.7 105.2 159C106 158.4 106.6 157.2 106.3 155.1C106.2 154.6 105.9 153.9 105.1 153.1C104.3 152.3 103.2 151.4 101.9 150.6C99.4001 149 96.3001 147.6 94.4001 146.9C84.4001 142.7 80.2001 136.1 79.4001 129.6C78.7001 123.3 81.2001 117.4 84.2001 114.5C88.3001 110.5 95.3001 108.6 101.3 111.3C102.5 111.8 103.2 112.1 103.8 112.1C105.1 112 105.9 111.6 106.4 111.1C106.9 110.6 107.1 110 107.1 109.1C107.1 107.4 105.8 105.1 102.7 103.6C99.7001 102.1 95.0001 100.5 89.9001 100.9C84.9001 101.4 79.3001 103.9 74.4001 111.2C73.8001 112.1 72.5001 112.4 71.6001 111.7C70.7001 111.1 70.4001 109.8 71.1001 108.9C76.6001 100.6 83.3001 97.4 89.6001 96.9C94.9001 96.4 99.7001 97.8 103 99.2C103.8 97.5 103.1 96.3 102.9 96.2C94.3001 89.8 87.2001 89.5 81.8001 90.9Z" fill="#393939"/>
<path d="M150.201 95.8C154.301 100.3 175.901 132.3 186.301 147.6C191.701 152.4 190.701 185.1 178.601 195.5L177.601 194C169.101 183.2 150.501 161.1 143.801 159.6C135.501 157.7 124.901 160.7 119.801 161.5C114.601 162.2 111.101 159.8 111.801 154.5C112.401 150.3 120.801 146.2 125.001 144.6C143.901 136.7 139.601 120.3 134.601 115.4C131.001 111.9 124.901 110.3 119.701 112.5H119.601C118.501 113 117.401 113.4 116.301 113.4C109.301 113.1 109.301 104.6 116.701 101.1C114.101 98.2 114.801 95 116.301 93.9C133.901 81.5 147.201 92.5 150.201 95.8Z" fill="#FCC35E"/>
<path fill-rule="evenodd" clip-rule="evenodd" d="M138.201 90.9C143.601 92.4 147.401 95.7 148.701 97.1C149.601 98.1 151.601 100.7 154.201 104.3C156.801 107.9 159.901 112.5 163.301 117.4C167.901 124 172.801 131.3 177.101 137.6C179.201 140.6 181.101 143.5 182.801 146C183.401 146.9 184.701 147.1 185.601 146.5C186.501 145.9 186.701 144.6 186.101 143.7C184.401 141.2 182.501 138.4 180.401 135.4C176.101 129 171.201 121.8 166.601 115.1C163.201 110.2 160.001 105.6 157.401 102C154.801 98.4 152.801 95.6 151.601 94.4C149.901 92.6 145.501 88.7 139.201 87C132.701 85.3 124.401 85.8 115.101 92.4C112.901 94 112.301 97.4 113.801 100.5C110.801 102.6 109.101 105.5 109.101 108.4C109.101 110.2 109.701 111.9 110.901 113.2C112.201 114.5 114.001 115.3 116.201 115.4C117.801 115.5 119.301 114.8 120.301 114.4C120.401 114.4 120.401 114.3 120.501 114.3C124.801 112.4 130.101 113.8 133.201 116.8C135.201 118.8 137.401 123.5 136.801 128.6C136.201 133.5 133.101 139 124.301 142.7C122.101 143.5 118.901 145 116.001 146.8C114.601 147.7 113.201 148.8 112.101 150C111.001 151.1 110.101 152.6 109.901 154.2C109.501 157.3 110.301 160 112.401 161.8C114.401 163.5 117.301 163.9 120.101 163.5C121.301 163.3 122.701 163.1 124.301 162.8C124.501 162.8 124.701 162.7 125.001 162.7C126.801 162.3 128.901 162 131.001 161.7C135.301 161.1 139.701 160.9 143.501 161.7C144.001 161.8 144.801 162.2 145.801 162.9C146.901 163.6 148.101 164.6 149.501 165.8C152.201 168.2 155.401 171.4 158.701 174.9C165.201 181.9 172.001 190.1 176.201 195.5C176.901 196.4 178.101 196.5 179.001 195.8C179.901 195.1 180.001 193.9 179.301 193C175.001 187.6 168.201 179.3 161.601 172.2C158.301 168.7 155.001 165.4 152.101 162.9C150.701 161.6 149.301 160.6 148.001 159.7C146.801 158.9 145.501 158.2 144.301 158C139.801 157 134.801 157.3 130.401 157.9C128.201 158.2 126.101 158.6 124.201 159C124.001 159 123.801 159.1 123.501 159.1C121.901 159.4 120.601 159.7 119.501 159.8C117.201 160.1 115.701 159.7 114.801 159C114.001 158.4 113.401 157.2 113.701 155.1C113.801 154.6 114.101 153.9 114.901 153.1C115.701 152.3 116.801 151.4 118.101 150.6C120.601 149 123.701 147.6 125.601 146.9C135.601 142.7 139.801 136.1 140.601 129.6C141.301 123.3 138.801 117.4 135.801 114.5C131.701 110.5 124.701 108.6 118.701 111.3C117.501 111.8 116.801 112.1 116.201 112.1C114.901 112 114.101 111.6 113.601 111.1C113.101 110.6 112.901 110 112.901 109.1C112.901 107.4 114.201 105.1 117.301 103.6C120.301 102.1 125.001 100.5 130.101 100.9C135.101 101.4 140.701 103.9 145.601 111.2C146.201 112.1 147.501 112.4 148.401 111.7C149.301 111.1 149.601 109.8 148.901 108.9C143.401 100.6 136.701 97.4 130.401 96.9C125.101 96.4 120.301 97.8 117.001 99.2C116.201 97.5 116.901 96.3 117.101 96.2C125.701 89.8 132.801 89.5 138.201 90.9Z" fill="#393939"/>
<path d="M109.4 72.5C108.8 72.7 107.7 72.7 107.1 72.5C101.7 70.6 89.5 62.9 89.5 49.7C89.5 43.9 94.2 39.2 99.9 39.2C103.3 39.2 106.3 40.9 108.2 43.4C110.1 40.8 113.1 39.2 116.5 39.2C122.3 39.2 126.9 43.9 126.9 49.7C127 62.9 114.8 70.6 109.4 72.5Z" fill="#F2AC99"/>
<path d="M112.1 72.4C105.6 69.1 95.7004 62.9 95.7004 50.7C95.7004 46.6 97.7004 41.9 101 40.4C92.7004 40.4 90.9004 45.6 90.9004 50.7C90.9004 63.8 103.1 71.6 108.5 73.5C109 73.6 111.6 72.4 112.1 72.4Z" fill="#CB644D" fill-opacity="0.47"/>
<path fill-rule="evenodd" clip-rule="evenodd" d="M99.9004 41.2C95.2004 41.2 91.5004 45 91.5004 49.7C91.5004 55.6 94.2004 60.4 97.7004 63.9C101.2 67.5 105.3 69.7 107.8 70.6H107.9C108 70.6 108.1 70.6 108.2 70.6C108.3 70.6 108.4 70.6 108.5 70.6H108.6C111 69.8 115.2 67.5 118.7 63.9C122.2 60.3 124.9 55.6 124.9 49.7C124.9 45 121.1 41.2 116.5 41.2C113.8 41.2 111.3 42.5 109.8 44.6C109.4 45.1 108.8 45.4 108.2 45.4C107.6 45.4 107 45.1 106.6 44.6C105.1 42.5 102.6 41.2 99.9004 41.2ZM87.4004 49.7C87.4004 42.8 93.0004 37.2 99.8004 37.2C103 37.2 105.9 38.4 108.1 40.4C110.3 38.4 113.2 37.2 116.4 37.2C123.3 37.2 128.8 42.8 128.8 49.7C128.8 56.9 125.4 62.6 121.5 66.7C117.6 70.7 112.9 73.3 109.9 74.3C109.3 74.5 108.6 74.6 108.1 74.6C107.6 74.6 106.9 74.5 106.3 74.3C103.3 73.3 98.6004 70.7 94.7004 66.7C90.8004 62.7 87.4004 57 87.4004 49.7Z" fill="#393939"/>
<path fill-rule="evenodd" clip-rule="evenodd" d="M177.1 106.3C175.5 106.3 173.9 105.6 172.7 104.4C170.4 102 170.5 98.2 173 95.9L180.7 88.7C181.8 87.6 183.3 87.1 184.8 87.1C186.4 87.1 188 87.8 189.2 89C191.5 91.4 191.4 95.2 188.9 97.5L181.2 104.7C180.1 105.7 178.6 106.3 177.1 106.3Z" fill="white"/>
<path fill-rule="evenodd" clip-rule="evenodd" d="M186.2 91.7C187 92.5 186.9 93.8 186.1 94.5L178.4 101.7C177.6 102.5 176.3 102.4 175.6 101.6C174.9 100.8 174.9 99.5 175.7 98.8L183.4 91.6C184.2 90.9 185.4 90.9 186.2 91.7Z" fill="#393939"/>
<path fill-rule="evenodd" clip-rule="evenodd" d="M159.4 86.2C158.3 86.1 157.2 85.7 156.3 85.1C153.6 83.2 153 79.4 154.9 76.7L163.8 64.3C165 62.6 167 61.7 169.1 61.8C170.2 61.9 171.3 62.3 172.2 62.9C174.9 64.8 175.5 68.6 173.6 71.3L164.7 83.7C163.4 85.4 161.5 86.4 159.4 86.2Z" fill="white"/>
<path fill-rule="evenodd" clip-rule="evenodd" d="M169.9 66.2C170.8 66.8 171 68.1 170.4 69L161.5 81.4C160.9 82.3 159.6 82.5 158.7 81.9C157.8 81.3 157.6 80 158.2 79.1L167.1 66.7C167.8 65.8 169 65.6 169.9 66.2Z" fill="#393939"/>
<path fill-rule="evenodd" clip-rule="evenodd" d="M63.8007 82.5C61.6007 82.7 59.5007 81.7 58.3007 79.8L48.4007 65C46.6007 62.2 47.3007 58.5 50.1007 56.7C50.9007 56.1 51.9007 55.8 52.9007 55.7C55.1007 55.5 57.2007 56.5 58.4007 58.4L68.3007 73.3C70.1007 76.1 69.4007 79.8 66.6007 81.6C65.7007 82.1 64.8007 82.4 63.8007 82.5Z" fill="white"/>
<path fill-rule="evenodd" clip-rule="evenodd" d="M52.2998 60C53.1998 59.4 54.4998 59.6 55.0998 60.6L64.9998 75.5C65.5998 76.4 65.3998 77.7 64.3998 78.3C63.4998 78.9 62.1998 78.7 61.5998 77.7L51.6998 62.8C51.0998 61.8 51.2998 60.6 52.2998 60Z" fill="#393939"/>
<path fill-rule="evenodd" clip-rule="evenodd" d="M42.8001 104C41.0001 104 39.4001 103.2 38.2001 101.9L30.6001 93.1C29.6001 91.9 29.1001 90.3 29.2001 88.7C29.3001 87.1 30.1001 85.6 31.3001 84.6C32.4001 83.7 33.8001 83.2 35.2001 83.2C37.0001 83.2 38.6001 84 39.8001 85.3L47.4001 94.1C49.6001 96.6 49.3001 100.4 46.7001 102.6C45.6001 103.5 44.2001 104 42.8001 104Z" fill="white"/>
<path fill-rule="evenodd" clip-rule="evenodd" d="M34.0003 87.7C34.8003 87 36.1003 87.1 36.8003 87.9L44.4003 96.7C45.1003 97.5 45.0003 98.8 44.2003 99.5C43.4003 100.2 42.1003 100.1 41.4003 99.3L33.8003 90.5C33.0003 89.6 33.1003 88.4 34.0003 87.7Z" fill="#393939"/>
</svg>
