<svg width="165" height="165" viewBox="0 0 165 165" fill="none" xmlns="http://www.w3.org/2000/svg">
<path d="M79.5748 156.188C68.6998 156.188 55.1623 144.862 43.3123 125.925C31.7623 107.475 24.8623 86.85 24.8623 70.7625C24.8623 70.35 24.8623 69.9 24.8998 69.4125V69.0375C24.8998 68.7 24.9373 68.3625 24.9748 67.9875L25.0123 67.6125C25.0498 67.2 25.0873 66.7875 25.1248 66.4125V66.3C25.2373 65.3625 25.3873 64.3875 25.5748 63.45L25.6123 63.2625C25.6873 62.85 25.7998 62.4375 25.8748 62.025L25.9123 61.8375C26.1373 60.9375 26.3998 60.0375 26.6623 59.175C26.6998 59.0625 26.8123 58.6875 26.8123 58.6875C26.8873 58.4625 26.9623 58.2 27.0748 57.975C27.1498 57.75 27.2248 57.525 27.3373 57.2625L27.4498 56.9625C28.6123 54 30.1498 51.1125 32.0248 48.4125C35.3248 41.6625 31.4998 31.8375 30.5998 29.7C30.4498 29.4375 30.2998 29.1 30.1498 28.6875C30.1498 28.65 30.1498 28.65 30.1123 28.6125C29.5498 26.8125 29.7748 24.8625 30.7498 23.025C32.4748 19.7625 36.4873 16.95 41.7373 15.3375C44.2498 14.5875 46.7623 14.175 49.0123 14.175C49.6873 14.175 50.3623 14.2125 50.9998 14.2875C54.9748 14.7375 57.8248 16.725 58.7623 19.6875C59.5873 22.0875 62.0248 26.5875 64.3123 27.375C66.5998 25.725 69.1498 24.375 71.9998 23.3625C75.3748 21.375 75.1498 16.425 75.1123 15.8625C75.1123 15.7875 75.1123 15.675 75.1123 15.6V15.4125C75.1123 13.35 76.4248 10.725 80.1373 9.525C81.5248 9.075 83.2123 8.8125 85.0123 8.8125C85.3123 8.8125 85.6123 8.8125 85.8748 8.85C91.8373 9.1125 95.7748 11.5875 96.1123 15.3C97.0873 14.1 98.8498 12.9375 102 12.9375C103.575 12.9375 105.375 13.2375 107.175 13.8C109.35 14.475 113.175 16.05 114.787 19.0875C115.5 20.4375 115.65 21.9 115.275 23.2875C115.237 23.4375 115.2 23.55 115.162 23.7C115.162 23.7375 115.125 23.8125 115.087 23.85C114.375 25.5375 113.662 28.0875 113.437 30.225C117.6 29.475 121.912 29.1 126.3 29.1C126.9 29.1 127.537 29.1 128.137 29.1375C128.625 29.0625 129.112 29.025 129.6 29.025C135.487 29.025 140.1 34.9875 140.1 42.5625C140.1 49.4625 136.275 55.0125 131.175 55.95C133.2 60.7125 134.25 65.7 134.25 70.8375C134.25 85.875 127.5 107.025 117.075 124.763C105.6 144.338 92.6998 155.512 80.7748 156.225C80.3998 156.188 79.9873 156.188 79.5748 156.188Z" fill="white"/>
<path d="M88.875 46.5375C88.875 46.5375 99.975 37.125 110.587 35.4375C121.2 33.75 129.675 33.0375 130.987 33.525C132.3 34.0125 135.038 39.8625 135.038 39.8625V45.3375L133.125 50.5875L129.9 52.275L126.562 52.05L107.475 60.15L88.875 46.5375Z" fill="#F0AA97"/>
<path d="M79.5748 152.812C58.9498 152.812 28.2373 103.725 28.2373 70.7624C28.2373 47.8499 51.2623 29.2124 79.5748 29.2124C107.887 29.2124 130.912 47.8499 130.912 70.7624C130.912 85.2374 124.35 105.712 114.187 122.962C103.05 141.937 90.4123 152.812 79.5748 152.812ZM79.5748 31.9874C52.7998 31.9874 31.0123 49.3874 31.0123 70.7624C31.0123 85.4624 37.6873 105.3 48.4498 122.512C59.0248 139.462 70.9498 150 79.6123 150C89.3248 150 101.362 139.35 111.862 121.537C121.8 104.662 128.212 84.7124 128.212 70.7249C128.137 49.3874 106.35 31.9874 79.5748 31.9874Z" fill="#221F1F"/>
<path d="M79.575 30.6C74.5875 30.6 69.7875 31.2 65.2125 32.2875C58.1625 32.5125 54.2625 21.225 54.2625 21.225C53.5125 18.825 48.5625 18.2625 43.125 19.9125C37.725 21.6 33.9375 24.8625 34.6875 27.2625C34.725 27.4125 34.8 27.5625 34.875 27.7125C35.9625 30.15 40.725 42.0375 36.1125 50.925C31.9875 56.775 29.625 63.5625 29.625 70.7626C29.625 103.238 60 151.425 79.575 151.425C102.112 151.425 129.525 100.613 129.525 70.7626C129.525 48.6 107.175 30.6 79.575 30.6Z" fill="#F0AA97"/>
<path d="M79.5748 152.813C58.9498 152.813 28.2373 103.725 28.2373 70.7625C28.2373 63.525 30.5623 56.4375 34.9498 50.175C39.1873 41.925 34.6873 30.675 33.6748 28.3125C33.5623 28.0875 33.4498 27.8625 33.3748 27.6375C32.3623 24.4125 36.4123 20.5125 42.7498 18.5625C45.5623 17.7 48.3373 17.3625 50.6248 17.625C53.2873 17.925 55.0498 19.05 55.5748 20.7375C55.7248 21.1875 59.2498 30.8625 64.9873 30.8625H65.0248C69.7123 29.7375 74.6248 29.175 79.5373 29.175C107.85 29.175 130.875 47.8125 130.875 70.725C130.875 85.2 124.312 105.675 114.15 122.925C103.05 141.938 90.4123 152.813 79.5748 152.813ZM48.9748 20.3625C47.3248 20.3625 45.4123 20.6625 43.5373 21.2625C38.4373 22.8375 35.6248 25.6875 35.9998 26.8875C35.9998 26.925 36.0373 26.9625 36.0748 27.0375C36.1123 27.075 36.1123 27.15 36.1498 27.1875C37.1998 29.5875 42.2623 42.15 37.3498 51.6C37.3123 51.6375 37.2748 51.7125 37.2373 51.75C33.1498 57.525 30.9748 64.125 30.9748 70.8C30.9748 85.5 37.6498 105.338 48.4123 122.55C58.9873 139.5 70.9123 150.038 79.5748 150.038C89.2873 150.038 101.325 139.388 111.825 121.575C121.762 104.7 128.175 84.75 128.175 70.7625C128.175 49.3875 106.387 31.9875 79.6123 31.9875C74.8498 31.9875 70.1248 32.55 65.5873 33.6375C65.5123 33.675 65.3998 33.675 65.3248 33.675C65.2498 33.675 65.1373 33.675 65.0623 33.675C57.2623 33.675 53.1748 22.1625 53.0248 21.675V21.6375C52.8373 21.075 51.8248 20.5875 50.3623 20.4375C49.8748 20.3625 49.4248 20.3625 48.9748 20.3625Z" fill="#221F1F"/>
<path d="M109.5 35.6999C106.95 31.2374 110.775 22.0124 110.775 22.0124C111.112 20.9249 108.9 19.2749 105.862 18.3374C102.825 17.3999 100.087 17.4749 99.7496 18.5624C99.7496 18.5624 97.3121 27.9749 93.7121 26.9999C90.1121 26.0624 91.4246 15.7874 91.4246 15.7874C91.4621 14.6624 88.9121 13.6499 85.7246 13.5374C82.5371 13.4249 79.9121 14.2499 79.8746 15.3749C79.8746 15.3749 80.6996 24.1124 73.9496 27.6374C66.4871 30.2249 60.8996 35.5124 59.4371 42.4874C57.9746 49.4999 61.0121 56.5874 66.8996 61.9499C69.2246 61.9874 71.4371 62.2124 72.7121 62.8499C72.7121 62.8499 85.0871 42.2999 109.912 36.1124C109.8 35.9999 109.65 35.8499 109.5 35.6999Z" fill="#F0AA97"/>
<path d="M98.25 40.3499L110.925 34.6874L130.65 33.8999V50.8874L116.4 55.7624L102.15 63.3374L92.8125 54.1874L98.25 40.3499Z" fill="#F0AA97"/>
<path d="M94.9494 42.4873L82.6494 50.2873L72.7119 62.8498L58.6494 63.1498L60.2244 77.2123L112.312 82.6498L120.674 68.8123L119.924 55.1623L110.174 44.0623L94.9494 42.4873Z" fill="#F0AA97"/>
<path d="M37.5746 51.1123C37.4996 51.2623 37.4246 51.4123 37.3496 51.5623C37.3121 51.5998 37.2746 51.6748 37.2371 51.7123C33.1496 57.4873 30.9746 64.0873 30.9746 70.7623C30.9746 85.4623 37.6496 105.3 48.4121 122.512C58.9871 139.462 70.9121 150 79.5746 150C88.0121 150 98.2121 141.937 107.625 128.137C49.6496 114.337 39.3746 65.2873 37.5746 51.1123Z" fill="#D88C7D"/>
<path d="M65.0621 32.8499C62.2121 35.4749 60.2246 38.7374 59.4371 42.4874C57.9746 49.4999 61.0121 56.5874 66.8996 61.9499C69.2246 61.9874 71.4371 62.2124 72.7121 62.8499C72.7121 62.8499 75.2621 58.6124 80.3996 53.3999C72.2621 49.5749 66.3371 41.9249 65.0621 32.8499Z" fill="#D88C7D"/>
<path d="M112.05 22.5374C112.05 22.4999 112.087 22.4624 112.087 22.4249C112.8 20.1749 109.687 18.0749 106.275 17.0249C102.862 15.9749 99.1122 15.8999 98.3997 18.1874C98.3997 18.2249 98.3997 18.2249 98.3997 18.2624C97.7997 20.6249 96.2247 24.6749 94.6497 25.6124C94.3872 25.7624 94.1997 25.7624 94.0872 25.7249C92.6997 25.3499 92.2872 20.3249 92.8497 16.0499C92.8497 16.0124 92.8497 15.9749 92.8497 15.9374C92.9247 13.5749 89.3622 12.3749 85.7997 12.2249C84.1122 12.1499 82.4622 12.3374 81.2247 12.7499C78.9372 13.4624 78.5247 14.7374 78.5247 15.4124C78.5247 15.4874 78.5247 15.5249 78.5247 15.5999C78.5247 15.6749 79.1997 23.3624 73.4247 26.4374C65.2122 29.3249 59.6247 35.0624 58.1247 42.2624C56.6622 49.3124 59.4372 56.4749 64.9872 62.0624C66.4122 62.0249 67.8747 62.0249 69.1872 62.1374C62.8122 56.9999 59.3997 49.8374 60.8622 42.8624C62.1747 36.6374 67.1247 31.5749 74.4372 29.0624C74.5122 29.0249 74.5497 29.0249 74.6247 28.9874C81.3747 25.4624 81.4122 17.6249 81.3372 15.7499C81.8247 15.4124 83.3997 14.9624 85.7247 15.0374C88.0497 15.1124 89.5872 15.7124 90.0747 16.0874C89.9997 16.8749 89.8122 19.0124 89.8872 21.2249C90.0747 25.4624 91.2747 27.8999 93.4122 28.4624C94.3122 28.6874 95.2497 28.5749 96.1122 28.0499C98.9622 26.3999 100.687 20.7374 101.1 19.2749C101.625 19.0874 103.312 19.0499 105.562 19.7249C107.775 20.4374 109.125 21.3749 109.462 21.8624C108.712 23.7749 105.787 31.8749 108.412 36.4499C108.45 36.4874 108.487 36.5249 108.525 36.5624C109.537 36.2999 110.55 36.0374 111.6 35.8124C111.337 35.5124 111.037 35.2124 110.737 34.9124C108.975 31.6499 111.075 24.8999 112.05 22.5374Z" fill="#221F1F"/>
<path d="M98.4372 103.763C98.1372 103.763 97.8372 103.65 97.5747 103.463C96.9747 102.975 96.8622 102.113 97.3497 101.513C102.037 95.6625 100.8 92.2875 99.1497 87.6375C97.7622 83.7375 95.9997 78.8625 97.6872 71.6625C100.987 57.375 123.862 51.075 129.262 49.8V35.2125C109.612 34.425 95.7372 41.9625 87.4872 48.525C78.3372 55.8 73.9497 63.4875 73.9122 63.5625C73.6122 64.0875 73.0497 64.35 72.4497 64.2375C56.2872 61.3875 46.4622 68.1 42.0747 72.375C37.4247 76.875 33.1497 84.4125 33.9747 90.1875C34.0872 90.9375 33.5622 91.65 32.8122 91.7625C32.0622 91.875 31.3497 91.35 31.2372 90.6C30.3747 84.6 34.0497 76.275 40.1247 70.3875C44.8122 65.85 55.1622 58.725 71.9622 61.3875C73.3872 59.1375 77.7747 52.725 85.6122 46.4625C94.4247 39.45 109.35 31.3125 130.65 32.55C131.4 32.5875 131.962 33.1875 131.962 33.9375V50.8875C131.962 51.5625 131.512 52.125 130.875 52.2375C130.612 52.3125 103.612 58.0875 100.35 72.2625C98.8497 78.675 100.387 82.95 101.737 86.7C103.5 91.575 105.15 96.1875 99.4872 103.275C99.2622 103.575 98.8497 103.763 98.4372 103.763Z" fill="#221F1F"/>
<path d="M129.638 51.2624C132.807 51.2624 135.375 47.3337 135.375 42.4874C135.375 37.6411 132.807 33.7124 129.638 33.7124C126.469 33.7124 123.9 37.6411 123.9 42.4874C123.9 47.3337 126.469 51.2624 129.638 51.2624Z" fill="#D88C7D"/>
<path d="M129.638 52.65C125.625 52.65 122.513 48.1875 122.513 42.4875C122.513 36.7875 125.663 32.325 129.638 32.325C133.613 32.325 136.763 36.7875 136.763 42.4875C136.763 48.1875 133.65 52.65 129.638 52.65ZM129.638 35.0625C127.275 35.0625 125.288 38.4375 125.288 42.45C125.288 46.4625 127.275 49.8375 129.638 49.8375C132 49.8375 133.988 46.4625 133.988 42.45C133.988 38.4375 132 35.0625 129.638 35.0625Z" fill="#221F1F"/>
</svg>
