<svg width="165" height="165" viewBox="0 0 165 165" fill="none" xmlns="http://www.w3.org/2000/svg">
<path d="M79.5748 152.813C58.9498 152.813 28.2373 103.725 28.2373 70.7629C28.2373 47.8504 51.2623 29.2129 79.5748 29.2129C107.887 29.2129 130.912 47.8504 130.912 70.7629C130.912 85.2379 124.35 105.713 114.187 122.963C103.05 141.938 90.4123 152.813 79.5748 152.813ZM79.5748 31.9879C52.7998 31.9879 31.0123 49.3879 31.0123 70.7629C31.0123 85.4629 37.6873 105.3 48.4498 122.513C59.0248 139.463 70.9498 150 79.6123 150C89.3248 150 101.362 139.35 111.862 121.538C121.8 104.663 128.212 84.7129 128.212 70.7254C128.137 49.3879 106.35 31.9879 79.5748 31.9879Z" fill="#221F1F"/>
<path d="M79.575 30.6C74.5875 30.6 69.7875 31.2 65.2125 32.2875C58.1625 32.5125 54.2625 21.225 54.2625 21.225C53.5125 18.825 48.5625 18.2625 43.125 19.9125C37.725 21.6 33.9375 24.8625 34.6875 27.2625C34.725 27.4125 34.8 27.5625 34.875 27.7125C35.9625 30.15 40.725 42.0375 36.1125 50.925C31.9875 56.775 29.625 63.5625 29.625 70.7626C29.625 103.238 60 151.425 79.575 151.425C102.112 151.425 129.525 100.613 129.525 70.7626C129.525 48.6 107.175 30.6 79.575 30.6Z" fill="white"/>
<path d="M79.5748 152.813C58.9498 152.813 28.2373 103.725 28.2373 70.7625C28.2373 63.525 30.5623 56.4375 34.9498 50.175C39.1873 41.925 34.6873 30.675 33.6748 28.3125C33.5623 28.0875 33.4498 27.8625 33.3748 27.6375C32.3623 24.4125 36.4123 20.5125 42.7498 18.5625C45.5623 17.7 48.3373 17.3625 50.6248 17.625C53.2873 17.925 55.0498 19.05 55.5748 20.7375C55.7248 21.1875 59.2498 30.8625 64.9873 30.8625H65.0248C69.7123 29.7375 74.6248 29.175 79.5373 29.175C107.85 29.175 130.875 47.8125 130.875 70.725C130.875 85.2 124.312 105.675 114.15 122.925C103.05 141.938 90.4123 152.813 79.5748 152.813ZM48.9748 20.3625C47.3248 20.3625 45.4123 20.6625 43.5373 21.2625C38.4373 22.8375 35.6248 25.6875 35.9998 26.8875C35.9998 26.925 36.0373 26.9625 36.0748 27.0375C36.1123 27.075 36.1123 27.15 36.1498 27.1875C37.1998 29.5875 42.2623 42.15 37.3498 51.6C37.3123 51.6375 37.2748 51.7125 37.2373 51.75C33.1498 57.525 30.9748 64.125 30.9748 70.8C30.9748 85.5 37.6498 105.338 48.4123 122.55C58.9873 139.5 70.9123 150.038 79.5748 150.038C89.2873 150.038 101.325 139.388 111.825 121.575C121.762 104.7 128.175 84.75 128.175 70.7625C128.175 49.3875 106.387 31.9875 79.6123 31.9875C74.8498 31.9875 70.1248 32.55 65.5873 33.6375C65.5123 33.675 65.3998 33.675 65.3248 33.675C65.2498 33.675 65.1373 33.675 65.0623 33.675C57.2623 33.675 53.1748 22.1625 53.0248 21.675V21.6375C52.8373 21.075 51.8248 20.5875 50.3623 20.4375C49.8748 20.3625 49.4248 20.3625 48.9748 20.3625Z" fill="#221F1F"/>
<path d="M109.5 35.7001C106.95 31.2376 110.775 22.0126 110.775 22.0126C111.112 20.9251 108.9 19.2751 105.862 18.3376C102.825 17.4001 100.087 17.4751 99.75 18.5626C99.75 18.5626 97.3124 27.9751 93.7124 27.0001C90.1124 26.0626 91.4249 15.7876 91.4249 15.7876C91.4625 14.6626 88.9125 13.6501 85.725 13.5376C82.5375 13.4251 79.9125 14.2501 79.875 15.3751C79.875 15.3751 80.7 24.1126 73.95 27.6376C66.4875 30.2251 60.9 35.5126 59.4375 42.4876C56.925 54.4501 67.5749 66.8251 83.2124 70.0876C98.8499 73.3501 113.55 66.3001 116.062 54.3001C117.45 47.7001 114.787 40.9501 109.5 35.7001Z" fill="white"/>
<path d="M90.8624 72.3002C88.2374 72.3002 85.6124 72.0377 82.9499 71.4752C66.5999 68.0627 55.4624 54.9377 58.0874 42.2252C59.5874 35.0252 65.1749 29.2877 73.3874 26.4002C79.1249 23.3252 78.5249 15.6377 78.4874 15.5252C78.4874 15.4502 78.4874 15.4127 78.4874 15.3377C78.5249 14.6627 78.8999 13.3877 81.1874 12.6752C82.4249 12.3002 84.0749 12.1127 85.7624 12.1502C87.4499 12.2252 89.0624 12.5252 90.2999 13.0127C92.5499 13.9127 92.8499 15.1877 92.8124 15.8627C92.8124 15.9002 92.8124 15.9377 92.8124 15.9752C92.2499 20.2502 92.6999 25.2752 94.0499 25.6502C94.1624 25.6877 94.3499 25.6877 94.6124 25.5377C96.1874 24.6002 97.7624 20.5502 98.3624 18.1877C98.3624 18.1502 98.3624 18.1502 98.3624 18.1127C99.0749 15.8627 102.825 15.9002 106.237 16.9502C107.85 17.4377 109.312 18.1502 110.362 18.9377C112.312 20.4002 112.237 21.7127 112.05 22.3502C112.05 22.3877 112.012 22.4252 112.012 22.4627C111.037 24.8252 108.937 31.5752 110.587 34.7627C116.325 40.5377 118.762 47.7377 117.375 54.4877C116.062 60.7127 111.712 65.8877 105.112 69.0752C100.875 71.2502 95.9624 72.3002 90.8624 72.3002ZM81.2999 15.6752C81.3749 17.5502 81.3374 25.3877 74.5874 28.9127C74.5124 28.9502 74.4749 28.9877 74.3999 28.9877C67.0499 31.5377 62.0999 36.5627 60.8249 42.7877C58.4999 54.0002 68.6624 65.6252 83.5124 68.7377C90.7874 70.2377 98.0249 69.5252 103.95 66.6752C109.762 63.9002 113.55 59.4002 114.675 54.0377C115.912 48.1502 113.662 41.8127 108.525 36.6752C108.45 36.6002 108.375 36.4877 108.3 36.3752C105.675 31.8002 108.6 23.6627 109.35 21.7877C109.012 21.3377 107.662 20.3627 105.45 19.6502C103.2 18.9377 101.55 19.0127 100.987 19.2002C100.575 20.6627 98.8499 26.2877 95.9999 27.9752C95.1374 28.4627 94.1999 28.6127 93.2999 28.3877C91.1624 27.8252 89.9624 25.3877 89.7749 21.1502C89.6624 18.9377 89.8499 16.8002 89.9624 16.0127C89.5124 15.6377 87.9749 15.0752 85.6124 14.9627C83.3624 14.8877 81.7874 15.3377 81.2999 15.6752Z" fill="#221F1F"/>
<path d="M98.25 40.3504L110.925 34.6879L130.65 33.9004V50.8879L116.4 55.7629L102.15 63.3379L92.8125 54.1879L98.25 40.3504Z" fill="white"/>
<path d="M94.9504 42.4878L82.6504 50.2878L72.7129 62.8503L58.6504 63.1503L60.2254 77.2128L112.313 82.6503L120.675 68.8128L119.925 55.1628L110.175 44.0628L94.9504 42.4878Z" fill="white"/>
<path d="M98.4381 103.763C98.1381 103.763 97.8381 103.651 97.5756 103.463C96.9756 102.976 96.8631 102.113 97.3506 101.513C102.038 95.663 100.801 92.288 99.1506 87.638C97.7631 83.738 96.0006 78.863 97.6881 71.663C100.988 57.3755 123.863 51.0755 129.263 49.8005V35.213C109.613 34.4255 95.7381 41.963 87.4881 48.5255C78.3381 55.8005 73.9506 63.488 73.9131 63.563C73.6131 64.088 73.0506 64.3505 72.4506 64.238C56.2881 61.388 46.4631 68.1005 42.0756 72.3755C37.4256 76.8755 33.1506 84.413 33.9756 90.188C34.0881 90.938 33.5631 91.6505 32.8131 91.763C32.0631 91.8755 31.3506 91.3505 31.2381 90.6005C30.3756 84.6005 34.0506 76.2755 40.1256 70.388C44.8131 65.8505 55.1631 58.7255 71.9631 61.388C73.3881 59.138 77.7756 52.7255 85.6131 46.463C94.4256 39.4505 109.351 31.313 130.651 32.5505C131.401 32.588 131.963 33.188 131.963 33.938V50.888C131.963 51.563 131.513 52.1255 130.876 52.238C130.613 52.313 103.613 58.088 100.351 72.263C98.8506 78.6755 100.388 82.9505 101.738 86.7005C103.501 91.5755 105.151 96.188 99.4881 103.276C99.2631 103.576 98.8506 103.763 98.4381 103.763Z" fill="#221F1F"/>
<path d="M129.637 51.2629C132.806 51.2629 135.374 47.3342 135.374 42.4879C135.374 37.6416 132.806 33.7129 129.637 33.7129C126.468 33.7129 123.899 37.6416 123.899 42.4879C123.899 47.3342 126.468 51.2629 129.637 51.2629Z" fill="white"/>
<path d="M129.637 52.6502C125.624 52.6502 122.512 48.1877 122.512 42.4877C122.512 36.7877 125.662 32.3252 129.637 32.3252C133.612 32.3252 136.762 36.7877 136.762 42.4877C136.762 48.1877 133.649 52.6502 129.637 52.6502ZM129.637 35.0627C127.274 35.0627 125.287 38.4377 125.287 42.4502C125.287 46.4627 127.274 49.8377 129.637 49.8377C131.999 49.8377 133.987 46.4627 133.987 42.4502C133.987 38.4377 131.999 35.0627 129.637 35.0627Z" fill="#221F1F"/>
</svg>
