<svg width="165" height="165" viewBox="0 0 165 165" fill="none" xmlns="http://www.w3.org/2000/svg">
<path d="M43.6875 28.2001C43.6875 49.6876 53.0625 68.1376 66.5625 76.4251C68.8875 77.8501 70.2375 80.1001 70.2375 82.5001C70.2375 84.9001 68.85 87.1501 66.5625 88.5751C53.0625 96.8626 43.6875 115.35 43.6875 136.8C43.6875 139.013 43.8 141.225 43.9875 143.4H121.05C121.238 141.225 121.35 139.05 121.35 136.8C121.35 115.313 111.975 96.8626 98.475 88.5751C96.15 87.1501 94.8 84.9001 94.8 82.5001C94.8 80.1001 96.1875 77.8501 98.475 76.4251C111.975 68.1376 121.35 49.6501 121.35 28.2001C121.35 25.9876 121.238 23.7751 121.05 21.6001H43.9875C43.7625 23.7751 43.6875 25.9876 43.6875 28.2001Z" fill="white"/>
<path d="M121.012 144.787H43.9873C43.2748 144.787 42.6748 144.225 42.5998 143.512C42.4123 141.3 42.2998 139.05 42.2998 136.8C42.2998 115.575 51.5248 96.1499 65.8498 87.3749C67.7623 86.2124 68.8873 84.3749 68.8873 82.4999C68.8873 80.6249 67.7623 78.7874 65.8498 77.6249C51.5623 68.8499 42.2998 49.4624 42.2998 28.1999C42.2998 25.9499 42.4123 23.6999 42.5998 21.4874C42.6748 20.7749 43.2748 20.2124 43.9873 20.2124H121.05C121.762 20.2124 122.362 20.7749 122.437 21.4874C122.625 23.6999 122.737 25.9499 122.737 28.1999C122.737 49.4249 113.512 68.8499 99.1873 77.6249C97.2748 78.7874 96.1498 80.6249 96.1498 82.4999C96.1498 84.3749 97.2748 86.2124 99.1873 87.3749C113.475 96.1499 122.737 115.575 122.737 136.8C122.737 139.05 122.625 141.3 122.437 143.512C122.325 144.225 121.725 144.787 121.012 144.787ZM45.2623 142.012H119.737C119.85 140.287 119.925 138.525 119.925 136.8C119.925 116.512 111.187 98.0249 97.6873 89.7374C94.9498 88.0499 93.3373 85.3499 93.3373 82.4999C93.3373 79.6499 94.9498 76.9124 97.6873 75.2624C111.187 66.9749 119.925 48.4874 119.925 28.1999C119.925 26.4749 119.85 24.7124 119.737 22.9874H45.2623C45.1498 24.7124 45.0748 26.4749 45.0748 28.1999C45.0748 48.4874 53.8123 66.9749 67.3123 75.2624C70.0498 76.9499 71.6623 79.6499 71.6623 82.4999C71.6623 85.3499 70.0498 88.0874 67.3123 89.7374C53.8123 98.0249 45.0748 116.512 45.0748 136.8C45.0748 138.525 45.1123 140.25 45.2623 142.012Z" fill="#221F1F"/>
<path d="M64.3496 122.7C60.9371 127.35 58.3496 133.012 56.6621 139.237H108.337C106.687 133.012 104.062 127.35 100.65 122.7C95.4371 115.612 88.8371 111.525 82.4996 111.525C76.1621 111.525 69.5246 115.612 64.3496 122.7Z" fill="white"/>
<path d="M108.337 140.625H56.662C56.212 140.625 55.837 140.437 55.5745 140.1C55.312 139.762 55.237 139.312 55.3495 138.9C57.0745 132.487 59.812 126.6 63.262 121.912C68.737 114.45 75.7495 110.175 82.537 110.175C89.3245 110.175 96.337 114.45 101.812 121.912C105.262 126.6 107.999 132.487 109.724 138.9C109.837 139.312 109.762 139.762 109.499 140.1C109.237 140.437 108.787 140.625 108.337 140.625ZM58.4995 137.85H106.499C104.849 132.45 102.487 127.537 99.562 123.525C94.6119 116.812 88.4244 112.95 82.4995 112.95C76.612 112.95 70.387 116.812 65.437 123.525C62.512 127.537 60.1495 132.45 58.4995 137.85Z" fill="#221F1F"/>
<path d="M56.3613 43.2744C58.0113 49.9119 60.7113 55.9869 64.3113 60.8994C69.5238 67.9869 76.1238 72.0744 82.4613 72.0744C88.7988 72.0744 95.4363 68.0244 100.611 60.8994C104.211 55.9869 106.911 49.9119 108.561 43.2744H56.3613Z" fill="white"/>
<path d="M82.4993 73.4246C75.7118 73.4246 68.6993 69.1496 63.2243 61.6871C59.5493 56.6996 56.7368 50.4371 55.0493 43.5746C54.9368 43.1621 55.0493 42.7121 55.3118 42.3746C55.5743 42.0371 55.9868 41.8496 56.3993 41.8496H108.637C109.049 41.8496 109.462 42.0371 109.724 42.3746C109.987 42.7121 110.099 43.1621 109.987 43.5746C108.299 50.4371 105.449 56.6996 101.812 61.6871C96.2993 69.1496 89.2868 73.4246 82.4993 73.4246ZM58.1618 44.6621C59.8118 50.5121 62.2868 55.7996 65.4368 60.0746C70.3868 66.7871 76.5743 70.6496 82.4993 70.6496C88.3868 70.6496 94.6118 66.7871 99.5618 60.0746C102.712 55.7996 105.187 50.5121 106.837 44.6621H58.1618Z" fill="#221F1F"/>
<path d="M122.625 29.2875H42.3752C39.7127 29.2875 37.5752 27.1125 37.5752 24.4875C37.5752 21.825 39.7502 19.6875 42.3752 19.6875H122.625C125.288 19.6875 127.425 21.8625 127.425 24.4875C127.425 27.1125 125.25 29.2875 122.625 29.2875Z" fill="white"/>
<path d="M122.625 30.6748H42.375C38.9625 30.6748 36.1875 27.8998 36.1875 24.4873C36.1875 21.0748 38.9625 18.2998 42.375 18.2998H122.625C126.037 18.2998 128.812 21.0748 128.812 24.4873C128.812 27.8998 126.037 30.6748 122.625 30.6748ZM42.375 21.0373C40.5 21.0373 38.9625 22.5748 38.9625 24.4498C38.9625 26.3248 40.5 27.8623 42.375 27.8623H122.625C124.5 27.8623 126.038 26.3248 126.038 24.4498C126.038 22.5748 124.5 21.0373 122.625 21.0373H42.375Z" fill="#221F1F"/>
<path d="M122.625 145.35H42.3752C39.7127 145.35 37.5752 143.175 37.5752 140.55C37.5752 137.887 39.7502 135.75 42.3752 135.75H122.625C125.288 135.75 127.425 137.925 127.425 140.55C127.425 143.175 125.25 145.35 122.625 145.35Z" fill="white"/>
<path d="M122.625 146.737H42.375C38.9625 146.737 36.1875 143.962 36.1875 140.55C36.1875 137.137 38.9625 134.362 42.375 134.362H122.625C126.037 134.362 128.812 137.137 128.812 140.55C128.812 143.962 126.037 146.737 122.625 146.737ZM42.375 137.1C40.5 137.1 38.9625 138.637 38.9625 140.512C38.9625 142.387 40.5 143.925 42.375 143.925H122.625C124.5 143.925 126.038 142.387 126.038 140.512C126.038 138.637 124.5 137.1 122.625 137.1H42.375Z" fill="#221F1F"/>
<path d="M82.4998 83.7747C81.7498 83.7747 81.1123 83.1372 81.1123 82.3872V77.7747C81.1123 77.0247 81.7498 76.3872 82.4998 76.3872C83.2498 76.3872 83.8873 77.0247 83.8873 77.7747V82.3872C83.8873 83.1747 83.2498 83.7747 82.4998 83.7747Z" fill="#221F1F"/>
<path d="M82.4998 94.2371C81.7498 94.2371 81.1123 93.5996 81.1123 92.8496V88.2371C81.1123 87.4871 81.7498 86.8496 82.4998 86.8496C83.2498 86.8496 83.8873 87.4871 83.8873 88.2371V92.8496C83.8873 93.5996 83.2498 94.2371 82.4998 94.2371Z" fill="#221F1F"/>
<path d="M82.4998 104.7C81.7498 104.7 81.1123 104.062 81.1123 103.312V98.7C81.1123 97.95 81.7498 97.3125 82.4998 97.3125C83.2498 97.3125 83.8873 97.95 83.8873 98.7V103.312C83.8873 104.062 83.2498 104.7 82.4998 104.7Z" fill="#221F1F"/>
</svg>
