<svg width="165" height="165" viewBox="0 0 165 165" fill="none" xmlns="http://www.w3.org/2000/svg">
<path d="M42.375 150.113C37.0875 150.113 32.8125 145.838 32.8125 140.55C32.8125 136.425 35.4375 132.9 39.1125 131.55C39.75 122.063 42.1875 112.913 46.1625 104.925C50.5875 96.0375 56.8125 88.9501 64.0875 84.4875C64.9875 83.9625 65.5125 83.175 65.5125 82.5C65.5125 81.8251 64.9875 81.0375 64.0875 80.5125C49.95 71.8125 40.5 53.9626 39.1125 33.4876C35.4375 32.1376 32.8125 28.6126 32.8125 24.4876C32.8125 19.2001 37.0875 14.925 42.375 14.925H122.625C127.912 14.925 132.188 19.2001 132.188 24.4876C132.188 28.5751 129.562 32.1 125.925 33.45C124.537 53.9625 115.088 71.8125 100.95 80.5125C100.05 81.0375 99.525 81.8251 99.525 82.5C99.525 83.175 100.05 83.9625 100.95 84.4875C108.225 88.9501 114.412 96.0375 118.875 104.925C122.85 112.913 125.287 122.1 125.962 131.588C129.6 132.938 132.225 136.463 132.225 140.55C132.225 145.838 127.95 150.113 122.663 150.113H42.375Z" fill="white"/>
<path d="M43.6875 28.2001C43.6875 49.6876 53.0625 68.1376 66.5625 76.4251C68.8875 77.8501 70.2375 80.1001 70.2375 82.5001C70.2375 84.9001 68.85 87.1501 66.5625 88.5751C53.0625 96.8626 43.6875 115.35 43.6875 136.8C43.6875 139.013 43.8 141.225 43.9875 143.4H121.05C121.238 141.225 121.35 139.05 121.35 136.8C121.35 115.313 111.975 96.8626 98.475 88.5751C96.15 87.1501 94.8 84.9001 94.8 82.5001C94.8 80.1001 96.1875 77.8501 98.475 76.4251C111.975 68.1376 121.35 49.6501 121.35 28.2001C121.35 25.9876 121.238 23.7751 121.05 21.6001H43.9875C43.7625 23.7751 43.6875 25.9876 43.6875 28.2001Z" fill="#CAE5FF"/>
<path d="M121.012 144.788H43.9873C43.2748 144.788 42.6748 144.225 42.5998 143.513C42.4123 141.3 42.2998 139.05 42.2998 136.8C42.2998 115.575 51.5248 96.1501 65.8498 87.3752C67.7623 86.2126 68.8873 84.3752 68.8873 82.5001C68.8873 80.6251 67.7623 78.7876 65.8498 77.6251C51.5623 68.8501 42.2998 49.4626 42.2998 28.2001C42.2998 25.9501 42.4123 23.7001 42.5998 21.4876C42.6748 20.7751 43.2748 20.2126 43.9873 20.2126H121.05C121.762 20.2126 122.362 20.7751 122.437 21.4876C122.625 23.7001 122.737 25.9501 122.737 28.2001C122.737 49.4251 113.512 68.8501 99.1873 77.6251C97.2748 78.7876 96.1498 80.6251 96.1498 82.5001C96.1498 84.3752 97.2748 86.2126 99.1873 87.3752C113.475 96.1501 122.737 115.575 122.737 136.8C122.737 139.05 122.625 141.3 122.437 143.513C122.325 144.225 121.725 144.788 121.012 144.788ZM45.2623 142.013H119.737C119.85 140.288 119.925 138.525 119.925 136.8C119.925 116.513 111.187 98.0251 97.6873 89.7376C94.9498 88.0501 93.3373 85.3502 93.3373 82.5001C93.3373 79.6502 94.9498 76.9126 97.6873 75.2626C111.187 66.9751 119.925 48.4876 119.925 28.2001C119.925 26.4751 119.85 24.7126 119.737 22.9876H45.2623C45.1498 24.7126 45.0748 26.4751 45.0748 28.2001C45.0748 48.4876 53.8123 66.9751 67.3123 75.2626C70.0498 76.9501 71.6623 79.6502 71.6623 82.5001C71.6623 85.3502 70.0498 88.0876 67.3123 89.7376C53.8123 98.0251 45.0748 116.513 45.0748 136.8C45.0748 138.525 45.1123 140.25 45.2623 142.013Z" fill="#221F1F"/>
<path d="M64.3506 122.7C60.9381 127.35 58.3506 133.013 56.6631 139.238H108.338C106.688 133.013 104.063 127.35 100.651 122.7C95.4381 115.613 88.8381 111.525 82.5006 111.525C76.1631 111.525 69.5256 115.613 64.3506 122.7Z" fill="#FAC15E"/>
<path d="M108.338 140.625H56.6629C56.2129 140.625 55.8379 140.438 55.5754 140.1C55.3129 139.763 55.2379 139.313 55.3504 138.9C57.0754 132.488 59.8129 126.6 63.2629 121.913C68.7379 114.45 75.7504 110.175 82.5379 110.175C89.3254 110.175 96.3379 114.45 101.813 121.913C105.263 126.6 108 132.488 109.725 138.9C109.838 139.313 109.763 139.763 109.5 140.1C109.238 140.438 108.788 140.625 108.338 140.625ZM58.5004 137.85H106.5C104.85 132.45 102.488 127.538 99.5629 123.525C94.6129 116.813 88.4254 112.95 82.5004 112.95C76.6129 112.95 70.3879 116.813 65.4379 123.525C62.5129 127.538 60.1504 132.45 58.5004 137.85Z" fill="#221F1F"/>
<path d="M56.3623 43.2751C58.0123 49.9126 60.7123 55.9876 64.3123 60.9001C69.5248 67.9876 76.1248 72.0751 82.4623 72.0751C88.7998 72.0751 95.4373 68.0251 100.612 60.9001C104.212 55.9876 106.912 49.9126 108.562 43.2751H56.3623Z" fill="#FAC15E"/>
<path d="M82.5003 73.4251C75.7128 73.4251 68.7003 69.1501 63.2253 61.6876C59.5503 56.7001 56.7378 50.4376 55.0503 43.5751C54.9378 43.1626 55.0503 42.7126 55.3128 42.3751C55.5753 42.0376 55.9878 41.8501 56.4003 41.8501H108.638C109.05 41.8501 109.463 42.0376 109.725 42.3751C109.988 42.7126 110.1 43.1626 109.988 43.5751C108.3 50.4376 105.45 56.7001 101.813 61.6876C96.3003 69.1501 89.2878 73.4251 82.5003 73.4251ZM58.1628 44.6626C59.8128 50.5126 62.2878 55.8001 65.4378 60.0751C70.3878 66.7876 76.5753 70.6501 82.5003 70.6501C88.3878 70.6501 94.6128 66.7876 99.5628 60.0751C102.713 55.8001 105.188 50.5126 106.838 44.6626H58.1628Z" fill="#221F1F"/>
<path d="M82.4998 83.775C81.7498 83.775 81.1123 83.1375 81.1123 82.3875V77.775C81.1123 77.025 81.7498 76.3875 82.4998 76.3875C83.2498 76.3875 83.8873 77.025 83.8873 77.775V82.3875C83.8873 83.175 83.2498 83.775 82.4998 83.775Z" fill="#221F1F"/>
<path d="M82.4998 94.2376C81.7498 94.2376 81.1123 93.6001 81.1123 92.8501V88.2376C81.1123 87.4876 81.7498 86.8501 82.4998 86.8501C83.2498 86.8501 83.8873 87.4876 83.8873 88.2376V92.8501C83.8873 93.6001 83.2498 94.2376 82.4998 94.2376Z" fill="#221F1F"/>
<path d="M82.4998 104.7C81.7498 104.7 81.1123 104.062 81.1123 103.312V98.7C81.1123 97.95 81.7498 97.3125 82.4998 97.3125C83.2498 97.3125 83.8873 97.95 83.8873 98.7V103.312C83.8873 104.062 83.2498 104.7 82.4998 104.7Z" fill="#221F1F"/>
<path d="M71.0621 117.562C69.0746 119.175 67.1996 121.2 65.4746 123.562C62.5496 127.575 60.1496 132.488 58.5371 137.888H85.9871C83.1746 129.338 77.8871 122.175 71.0621 117.562Z" fill="#F9A936"/>
<path d="M122.625 29.2875H42.3752C39.7127 29.2875 37.5752 27.1125 37.5752 24.4875C37.5752 21.825 39.7502 19.6875 42.3752 19.6875H122.625C125.288 19.6875 127.425 21.8625 127.425 24.4875C127.425 27.1125 125.25 29.2875 122.625 29.2875Z" fill="#FCD26E"/>
<path d="M122.625 30.6751H42.375C38.9625 30.6751 36.1875 27.9001 36.1875 24.4876C36.1875 21.0751 38.9625 18.3 42.375 18.3H122.625C126.037 18.3 128.812 21.0751 128.812 24.4876C128.812 27.9001 126.037 30.6751 122.625 30.6751ZM42.375 21.0375C40.5 21.0375 38.9625 22.575 38.9625 24.45C38.9625 26.325 40.5 27.8626 42.375 27.8626H122.625C124.5 27.8626 126.038 26.325 126.038 24.45C126.038 22.575 124.5 21.0375 122.625 21.0375H42.375Z" fill="#221F1F"/>
<path d="M122.625 145.35H42.3752C39.7127 145.35 37.5752 143.175 37.5752 140.55C37.5752 137.887 39.7502 135.75 42.3752 135.75H122.625C125.288 135.75 127.425 137.925 127.425 140.55C127.425 143.175 125.25 145.35 122.625 145.35Z" fill="#FCD26E"/>
<path d="M122.625 146.738H42.375C38.9625 146.738 36.1875 143.963 36.1875 140.55C36.1875 137.138 38.9625 134.363 42.375 134.363H122.625C126.037 134.363 128.812 137.138 128.812 140.55C128.812 143.963 126.037 146.738 122.625 146.738ZM42.375 137.1C40.5 137.1 38.9625 138.638 38.9625 140.513C38.9625 142.388 40.5 143.925 42.375 143.925H122.625C124.5 143.925 126.038 142.388 126.038 140.513C126.038 138.638 124.5 137.1 122.625 137.1H42.375Z" fill="#221F1F"/>
<path d="M73.6496 44.6626H58.1621C59.8121 50.5126 62.2871 55.8001 65.4371 60.0751C70.3871 66.7876 76.5746 70.6501 82.4996 70.6501C86.0246 70.6501 89.6621 69.2626 93.1121 66.7126C84.1121 61.9501 77.1371 54.1126 73.6496 44.6626Z" fill="#F9A936"/>
</svg>
