<svg width="220" height="220" viewBox="0 0 220 220" fill="none" xmlns="http://www.w3.org/2000/svg">
<path d="M98.0006 148.2C97.6006 148.2 97.1006 148 96.8006 147.7C96.0006 147 96.0006 145.8 96.7006 145.1L137.001 100.6C137.701 99.8 138.901 99.8 139.601 100.5C140.401 101.2 140.401 102.4 139.701 103.1L99.4006 147.6C99.0006 148 98.5006 148.2 98.0006 148.2Z" fill="#A0A0A0"/>
<path d="M84.1008 145.4C83.3008 145.4 82.5008 144.8 82.3008 144L70.6008 91.5C70.4008 90.5 71.0008 89.5 72.0008 89.3C73.0008 89.1 74.0008 89.7 74.2008 90.7L85.9008 143.2C86.1008 144.2 85.5008 145.2 84.5008 145.4C84.4008 145.4 84.2008 145.4 84.1008 145.4Z" fill="#A0A0A0"/>
<path d="M61.1008 86.8C73.969 86.8 84.4008 76.3682 84.4008 63.5C84.4008 50.6318 73.969 40.2 61.1008 40.2C48.2325 40.2 37.8008 50.6318 37.8008 63.5C37.8008 76.3682 48.2325 86.8 61.1008 86.8Z" fill="white"/>
<path d="M133.601 85.8C133.501 85.8 133.401 85.8 133.401 85.8L84.9005 79.4C83.9005 79.3 83.2005 78.3 83.3005 77.3C83.4005 76.3 84.4005 75.6 85.4005 75.7L133.901 82.1C134.901 82.2 135.601 83.2 135.501 84.2C135.301 85.1 134.501 85.8 133.601 85.8Z" fill="#A0A0A0"/>
<path d="M39.0006 132.6C45.2966 132.6 50.4006 127.496 50.4006 121.2C50.4006 114.904 45.2966 109.8 39.0006 109.8C32.7045 109.8 27.6006 114.904 27.6006 121.2C27.6006 127.496 32.7045 132.6 39.0006 132.6Z" fill="white"/>
<path d="M155.7 195.8C154.8 195.8 154 195.7 153.2 195.4C118.6 183.1 62.4004 178.8 39.9004 177.4C36.2004 177.2 33.3004 174.4 32.9004 170.8C32.5004 167.2 34.8004 163.9 38.2004 162.9C41.3004 162 44.4004 161.2 47.7004 160.6C48.8004 152.2 52.0004 136 60.3004 120.2C61.3004 118.3 63.3004 117.1 65.4004 117.1C65.5004 117.1 65.7004 117.1 65.8004 117.1C68.3004 117.2 91.1004 118.6 101.5 122.2C119.6 127 132.8 145.8 132.8 167C132.8 167.7 132.8 168.3 132.8 169C142 172.7 151 177.1 159.4 182.3C162.6 184.3 163.8 188.3 162.2 191.6C161.1 194.2 158.5 195.8 155.7 195.8ZM161 132C158.8 132 156.8 130.8 155.8 128.9L151.8 121.4C150.8 121.3 149.7 121.2 148.7 121L142.9 127.2C141.8 128.4 140.2 129.1 138.6 129.1C137.6 129.1 136.6 128.8 135.7 128.3L128.6 124.2C126.2 122.8 125.1 120 125.9 117.4L128.4 109.3C127.7 108.5 127.1 107.7 126.5 106.8L118 107.1H117.8C115.2 107.1 112.8 105.3 112.2 102.8L110.1 94.9C109.4 92.2 110.6 89.5 113 88.2L120.5 84.2C120.6 83.2 120.7 82.1 120.9 81.1L114.7 75.3C112.7 73.4 112.2 70.5 113.6 68.1L117.7 61C118.7 59.2 120.7 58.1 122.8 58.1C123.4 58.1 124 58.2 124.5 58.4L132.6 60.9C133.4 60.2 134.2 59.6 135.1 59L134.8 50.5C134.7 47.8 136.5 45.3 139.1 44.6L147 42.5C147.5 42.4 148 42.3 148.5 42.3C150.7 42.3 152.7 43.5 153.7 45.4L157.7 52.9C158.7 53 159.8 53.1 160.8 53.3L166.6 47.1C167.7 45.9 169.3 45.2 170.9 45.2C171.9 45.2 172.9 45.5 173.8 46L180.9 50.1C183.3 51.5 184.4 54.3 183.6 56.9L181.1 65C181.8 65.8 182.4 66.6 183 67.5L191.5 67.2H191.7C194.3 67.2 196.7 69 197.4 71.5L199.5 79.4C200.2 82.1 199 84.8 196.6 86.1L189.1 90.1C189 91.1 188.9 92.2 188.7 93.2L194.9 99C196.9 100.9 197.4 103.8 196 106.2L191.9 113.3C190.9 115.1 188.9 116.2 186.8 116.2C186.2 116.2 185.6 116.1 185.1 115.9L177 113.4C176.2 114.1 175.4 114.7 174.5 115.3L174.8 123.8C174.9 126.5 173.1 129 170.5 129.7L162.6 131.8C162 131.9 161.5 132 161 132ZM154.8 79.6C154.1 79.6 153.5 79.7 152.8 79.9C150.9 80.4 149.2 81.7 148.2 83.4C147.2 85.1 146.9 87.2 147.4 89.1C147.9 91 149.2 92.7 150.9 93.7C152 94.4 153.3 94.7 154.6 94.7C155.3 94.7 155.9 94.6 156.6 94.4C160.6 93.3 163 89.2 161.9 85.2C161.4 83.3 160.1 81.6 158.4 80.6C157.4 80 156.1 79.6 154.8 79.6ZM61.4004 106.1C49.2004 106.1 37.8004 100.8 30.0004 91.5C15.5004 74.2 17.7004 48.3 35.0004 33.8C42.4004 27.6 51.7004 24.2 61.3004 24.2C73.5004 24.2 84.9004 29.5 92.7004 38.8C99.7004 47.2 103.1 57.8 102.1 68.7C101.1 79.6 96.0004 89.5 87.6004 96.5C80.3004 102.7 71.0004 106.1 61.4004 106.1ZM62.2004 79.9C65.3004 79.7 68.4004 78.5 70.8004 76.5C73.2004 74.4 74.9004 71.7 75.6004 68.7L62.2004 79.9ZM60.4004 50.6C57.2004 50.8 54.2004 52 51.9004 54C49.4004 56.1 47.8004 58.8 47.1004 61.8L60.4004 50.6Z" fill="white"/>
<path d="M99.9 127.7C90.1 124.2 65.5 122.9 65.5 122.9C54.5 143.8 53 166.1 53 166.1L57.9 166.3V166.4L102.5 169.4L126.3 175.1C126.8 172.5 127 169.7 127 167C127 147.7 115.4 131.7 99.9 127.7Z" fill="#E56F4E"/>
<path d="M126.301 176.9C126.201 176.9 126.001 176.9 125.901 176.9L102.201 171.3L57.7006 168.4C57.5006 168.4 57.3006 168.3 57.2006 168.3L52.9006 168.1C52.4006 168.1 51.9006 167.9 51.6006 167.5C51.3006 167.1 51.1006 166.6 51.1006 166.1C51.2006 165.2 52.7006 143.1 63.8006 122.1C64.1006 121.5 64.8006 121.1 65.5006 121.1C66.5006 121.2 90.3006 122.5 100.301 126C116.801 130.2 128.801 147.5 128.801 167C128.801 169.8 128.601 172.7 128.101 175.5C128.001 176 127.701 176.4 127.301 176.7C127.001 176.8 126.701 176.9 126.301 176.9ZM58.6006 164.7L102.601 167.6C102.701 167.6 102.801 167.6 102.901 167.6L124.801 172.8C125.101 170.9 125.201 168.9 125.201 166.9C125.201 149 114.401 133.3 99.4006 129.5C99.3006 129.5 99.3006 129.5 99.2006 129.5C90.9006 126.6 71.5006 125.2 66.5006 124.9C58.1006 141.4 55.5006 158.8 54.9006 164.5L57.8006 164.6C58.2006 164.5 58.4006 164.6 58.6006 164.7Z" fill="#221F1F"/>
<path d="M68.5 125C67.7 124.9 67.1 124.9 66.6 124.9C58.2 141.4 55.6 158.8 55 164.5L57.9 164.6C58.1 164.6 58.3 164.7 58.5 164.7L69.3 165.4C73.4 146.4 71.1 132.9 68.5 125Z" fill="#E56F4E"/>
<path d="M88.2002 42.6C100.7 57.5 98.7002 79.6 83.9002 92.1C69.1002 104.6 46.9002 102.6 34.4002 87.8C21.9002 72.9 23.9002 50.8 38.7002 38.3C53.5002 25.8 75.8002 27.8 88.2002 42.6ZM74.5002 80.9C81.6002 74.9 83.7002 65.2 80.2002 57.1L50.1002 82.4C57.5002 87.2 67.4002 86.9 74.5002 80.9ZM42.4002 73.3L72.6002 48C65.2002 43.2 55.3002 43.5 48.1002 49.5C40.9002 55.5 39.0002 65.2 42.4002 73.3Z" fill="#E56F4E"/>
<path d="M61.3999 102.2C60.2999 102.2 59.1999 102.2 58.0999 102.1C48.2999 101.2 39.3999 96.5 32.9999 89C19.8999 73.4 21.8999 50 37.5999 36.9C53.1999 23.8 76.5999 25.8 89.6999 41.5C102.8 57.1 100.8 80.5 85.0999 93.6C78.3999 99.1 70.0999 102.2 61.3999 102.2ZM61.2999 31.9C53.7999 31.9 46.1999 34.4 39.8999 39.7C25.7999 51.5 23.9999 72.5 35.7999 86.6C41.4999 93.4 49.4999 97.6 58.3999 98.4C67.2999 99.2 75.8999 96.5 82.6999 90.7C96.7999 78.9 98.5999 57.9 86.7999 43.8C80.1999 36 70.7999 31.9 61.2999 31.9ZM61.2999 87.6C57.0999 87.6 52.7999 86.4 48.9999 83.9C48.4999 83.6 48.1999 83 48.1999 82.5C48.1999 81.9 48.3999 81.3 48.8999 81L78.9999 55.7C79.3999 55.3 79.9999 55.2 80.5999 55.3C81.1999 55.4 81.5999 55.8 81.8999 56.4C85.7999 65.5 83.2999 76 75.6999 82.4C71.5999 85.8 66.4999 87.6 61.2999 87.6ZM53.2999 82.1C59.7999 85.2 67.6999 84.2 73.2999 79.5C78.8999 74.8 81.1999 67.2 79.2999 60.2L53.2999 82.1ZM42.3999 75.1C42.2999 75.1 42.0999 75.1 41.9999 75C41.3999 74.9 40.9999 74.5 40.6999 73.9C36.7999 64.8 39.2999 54.3 46.8999 47.9C54.4999 41.5 65.1999 40.9 73.5999 46.3C74.0999 46.6 74.3999 47.2 74.3999 47.7C74.3999 48.3 74.1999 48.9 73.6999 49.2L43.5999 74.7C43.2999 75 42.8999 75.1 42.3999 75.1ZM61.2999 46.5C56.9999 46.5 52.6999 48 49.2999 50.8C43.6999 55.5 41.3999 63.1 43.2999 70.1L69.2999 48.3C66.7999 47.1 64.0999 46.5 61.2999 46.5Z" fill="#221F1F"/>
<path d="M67.7006 165.4C67.6006 165.4 67.4006 165.4 67.3006 165.4C66.3006 165.2 65.7006 164.2 65.9006 163.2C70.9006 139.3 68.2006 129.8 68.1006 129.7C67.8006 128.7 68.4006 127.7 69.3006 127.4C70.3006 127.1 71.3006 127.6 71.6006 128.6C71.7006 129 74.7006 138.9 69.5006 163.9C69.3006 164.8 68.6006 165.4 67.7006 165.4Z" fill="#221F1F"/>
<path d="M116.801 177.1C116.701 177.1 116.601 177.1 116.401 177.1C101.601 174.2 79.9008 172.1 68.2008 171C67.3008 170.9 66.6008 170.2 66.5008 169.3C66.4008 168 66.3008 166.8 66.3008 165.6C66.3008 146.9 78.3008 131.7 93.0008 131.7C107.701 131.7 119.701 146.9 119.701 165.6C119.701 169 119.301 172.4 118.501 175.7C118.401 176.5 117.701 177.1 116.801 177.1ZM70.2008 167.4C81.7008 168.5 101.201 170.4 115.401 173.1C115.901 170.6 116.101 168.1 116.101 165.6C116.101 149 105.801 135.4 93.1008 135.4C80.4008 135.4 70.1008 148.9 70.1008 165.6C70.1008 166.2 70.2008 166.8 70.2008 167.4Z" fill="#221F1F"/>
<path d="M40.2004 171.5C61.7004 172.8 119.5 177.2 155.1 189.8C156.8 190.4 158 188.2 156.4 187.2C135.7 174.6 91.1004 153.8 39.8004 168.5C38.1004 169 38.4004 171.4 40.2004 171.5Z" fill="#E56F4E"/>
<path d="M155.7 191.8C155.3 191.8 154.9 191.7 154.5 191.6C119.4 179.2 62.8003 174.7 40.1003 173.4C38.4003 173.3 37.0003 172.1 36.9003 170.4C36.7003 168.7 37.7003 167.3 39.4003 166.8C90.9003 152.1 135.5 172.3 157.5 185.7C159 186.6 159.5 188.4 158.8 189.9C158.1 191.1 156.9 191.8 155.7 191.8ZM42.2003 169.8C65.3003 171.2 117.4 175.5 152.1 186.9C129.9 174 89.1003 157.1 42.2003 169.8Z" fill="#221F1F"/>
<path d="M148.601 48.2L140.701 50.3L141.101 62.2C138.501 63.6 136.101 65.4 134.201 67.5L122.801 64L118.701 71.1L127.401 79.2C126.601 82 126.201 84.9 126.301 87.9L115.801 93.4L117.901 101.3L129.801 100.9C131.201 103.5 133.001 105.9 135.101 107.8L131.601 119.1L138.701 123.2L146.801 114.5C149.601 115.3 152.501 115.7 155.501 115.6L161.001 126.1L168.901 124L168.501 112.1C171.101 110.7 173.501 108.9 175.401 106.8L186.701 110.3L190.801 103.2L182.101 95.1C182.901 92.3 183.301 89.4 183.201 86.4L193.701 80.9L191.601 73L179.701 73.4C178.301 70.8 176.501 68.4 174.401 66.5L177.901 55.2L170.801 51.1L162.701 59.8C159.901 59 157.001 58.6 154.001 58.7L148.601 48.2ZM167.701 83.7C169.601 90.8 165.401 98.2 158.201 100.1C151.001 102 143.701 97.8 141.801 90.6C139.901 83.5 144.101 76.1 151.301 74.2C158.501 72.3 165.801 76.6 167.701 83.7Z" fill="white"/>
<path d="M161 128C160.3 128 159.7 127.6 159.4 127L154.4 117.5C152 117.5 149.7 117.2 147.4 116.6L140.1 124.5C139.5 125.1 138.6 125.3 137.8 124.8L130.7 120.7C130 120.3 129.6 119.4 129.9 118.6L133.1 108.3C131.5 106.6 130 104.7 128.8 102.7L118.1 103.1C117.3 103.1 116.5 102.6 116.2 101.7L114.1 93.8C113.9 93 114.3 92.1 115 91.7L124.5 86.7C124.5 84.3 124.8 82 125.4 79.7L117.5 72.4C116.9 71.8 116.7 70.9 117.2 70.1L121.3 63C121.7 62.3 122.6 61.9 123.4 62.2L133.7 65.4C135.4 63.8 137.3 62.3 139.3 61.1L138.9 50.4C138.9 49.5 139.4 48.8 140.3 48.5L148.2 46.4C149 46.2 149.9 46.6 150.3 47.3L155.3 56.8C157.7 56.8 160 57.1 162.3 57.7L169.6 49.8C170.2 49.2 171.1 49 171.9 49.5L179 53.6C179.7 54 180.1 54.9 179.8 55.7L176.6 66C178.2 67.7 179.7 69.6 180.9 71.6L191.6 71.2C192.4 71.2 193.2 71.7 193.5 72.6L195.6 80.5C195.8 81.3 195.4 82.2 194.7 82.6L185.2 87.6C185.2 90 184.9 92.3 184.3 94.6L192.2 101.9C192.8 102.5 193 103.4 192.5 104.2L188.4 111.3C188 112 187.1 112.4 186.3 112.1L176 108.9C174.3 110.5 172.4 112 170.4 113.2L170.8 123.9C170.8 124.8 170.3 125.5 169.4 125.8L161.5 127.9C161.3 128 161.2 128 161 128ZM155.5 113.8C156.2 113.8 156.8 114.2 157.1 114.8L162 124L167.1 122.6L166.7 112.2C166.7 111.5 167 110.8 167.7 110.5C170.1 109.2 172.3 107.5 174.2 105.5C174.7 105 175.4 104.8 176.1 105L186 108.1L188.6 103.6L181 96.5C180.5 96 180.3 95.3 180.5 94.6C181.3 92 181.6 89.2 181.6 86.5C181.6 85.8 182 85.1 182.6 84.8L191.8 79.9L190.4 74.8L180 75.2C179.3 75.2 178.6 74.9 178.3 74.2C177 71.8 175.3 69.6 173.3 67.7C172.8 67.2 172.6 66.5 172.8 65.8L175.9 55.9L171.4 53.3L164.3 60.9C163.8 61.4 163.1 61.6 162.4 61.4C159.8 60.6 157 60.3 154.3 60.3C153.6 60.3 152.9 59.9 152.6 59.3L147.7 50.1L142.6 51.5L143 61.9C143 62.6 142.7 63.3 142 63.6C139.6 64.9 137.4 66.6 135.5 68.6C135 69.1 134.3 69.3 133.6 69.1L123.7 66L121.1 70.5L128.7 77.6C129.2 78.1 129.4 78.8 129.2 79.5C128.4 82.1 128.1 84.9 128.1 87.6C128.1 88.3 127.7 89 127.1 89.3L117.9 94.2L119.3 99.3L129.7 98.9C130.4 98.9 131.1 99.2 131.4 99.9C132.7 102.3 134.4 104.5 136.4 106.4C136.9 106.9 137.1 107.6 136.9 108.3L133.8 118.2L138.3 120.8L145.4 113.2C145.9 112.7 146.6 112.5 147.3 112.7C149.9 113.5 152.7 113.9 155.5 113.8C155.4 113.8 155.4 113.8 155.5 113.8ZM154.8 102.4C148.1 102.4 141.9 97.9 140.1 91.1C137.9 83 142.8 74.6 150.9 72.5C159 70.3 167.4 75.2 169.5 83.3C171.7 91.4 166.8 99.8 158.7 101.9C157.4 102.2 156.1 102.4 154.8 102.4ZM154.8 75.6C153.8 75.6 152.8 75.7 151.8 76C145.7 77.6 142 84 143.7 90.1C145.3 96.2 151.7 99.9 157.8 98.2C163.9 96.6 167.6 90.2 165.9 84.1C164.5 79 159.9 75.6 154.8 75.6Z" fill="#221F1F"/>
<path d="M148 147.4C149.933 147.4 151.5 145.833 151.5 143.9C151.5 141.967 149.933 140.4 148 140.4C146.067 140.4 144.5 141.967 144.5 143.9C144.5 145.833 146.067 147.4 148 147.4Z" fill="#A0A0A0"/>
<path d="M39.0004 126.8C42.0932 126.8 44.6004 124.293 44.6004 121.2C44.6004 118.107 42.0932 115.6 39.0004 115.6C35.9076 115.6 33.4004 118.107 33.4004 121.2C33.4004 124.293 35.9076 126.8 39.0004 126.8Z" fill="#EFD488"/>
<path d="M39.0006 128.6C34.9006 128.6 31.6006 125.3 31.6006 121.2C31.6006 117.1 34.9006 113.8 39.0006 113.8C43.1006 113.8 46.4006 117.1 46.4006 121.2C46.4006 125.3 43.1006 128.6 39.0006 128.6ZM39.0006 117.4C36.9006 117.4 35.3006 119.1 35.3006 121.1C35.3006 123.1 37.0006 124.8 39.0006 124.8C41.0006 124.8 42.7006 123.1 42.7006 121.1C42.7006 119.1 41.1006 117.4 39.0006 117.4Z" fill="#221F1F"/>
<path d="M113 43.3C116.314 43.3 119 40.6137 119 37.3C119 33.9863 116.314 31.3 113 31.3C109.686 31.3 107 33.9863 107 37.3C107 40.6137 109.686 43.3 113 43.3Z" fill="#A0A0A0"/>
</svg>
