<svg width="165" height="165" viewBox="0 0 165 165" fill="none" xmlns="http://www.w3.org/2000/svg">
<path d="M121.65 102.637C108.038 102.637 99.1879 94.4248 94.1254 87.5248L90.4504 82.4623L94.1254 77.3998C99.1504 70.4998 108.038 62.2873 121.65 62.2873C125.85 62.2873 130.238 64.3498 133.688 67.9498C137.475 71.8873 139.538 77.0623 139.538 82.4248C139.538 87.7873 137.475 92.9623 133.688 96.8998C130.275 100.575 125.888 102.637 121.65 102.637ZM43.3504 102.637C39.1504 102.637 34.7629 100.575 31.3129 96.9748C27.5254 93.0373 25.4629 87.8623 25.4629 82.4998C25.4629 77.1373 27.5254 71.9623 31.3129 68.0248C34.7629 64.4248 39.1504 62.3623 43.3504 62.3623C56.9629 62.3623 65.8129 70.5748 70.8754 77.4748L74.5504 82.5373L70.8754 87.5998C65.8129 94.4248 56.9629 102.637 43.3504 102.637ZM121.65 117.075C138.488 117.075 153.975 101.587 153.975 82.4998C153.975 63.4123 138.488 47.9248 121.65 47.9248C105.413 47.9248 91.9129 56.0623 82.5004 68.9248C73.0879 56.0623 59.5879 47.9248 43.3504 47.9248C26.5129 47.9248 11.0254 63.4123 11.0254 82.4998C11.0254 101.587 26.5129 117.075 43.3504 117.075C59.5879 117.075 73.0879 108.937 82.5004 96.0748C91.9129 108.937 105.413 117.075 121.65 117.075Z" fill="white"/>
<path d="M121.65 118.462C106.425 118.462 92.5877 111.337 82.5002 98.3624C72.4127 111.337 58.5752 118.462 43.3502 118.462C34.8377 118.462 26.2877 114.6 19.8752 107.887C13.2752 100.987 9.6377 91.9499 9.6377 82.4624C9.6377 72.9749 13.2752 63.9749 19.8752 57.0374C26.2877 50.3249 34.8377 46.4624 43.3502 46.4624C58.5752 46.4624 72.4127 53.5874 82.5002 66.5624C92.5877 53.5874 106.425 46.4624 121.65 46.4624C130.163 46.4624 138.713 50.3249 145.125 57.0374C151.725 63.9374 155.363 72.9749 155.363 82.4624C155.363 91.9499 151.725 100.95 145.125 107.887C138.713 114.637 130.163 118.462 121.65 118.462ZM82.5002 94.6874C82.9502 94.6874 83.3627 94.9124 83.6252 95.2499C93.2627 108.45 106.763 115.687 121.65 115.687C129.413 115.687 137.25 112.162 143.1 105.975C149.213 99.5999 152.55 91.2374 152.55 82.4624C152.55 73.6874 149.175 65.3624 143.1 58.9499C137.213 52.7999 129.375 49.2374 121.65 49.2374C106.763 49.2374 93.2627 56.5124 83.6252 69.6749C83.3627 70.0499 82.9502 70.2374 82.5002 70.2374C82.0502 70.2374 81.6377 70.0124 81.3752 69.6749C71.7377 56.4749 58.2377 49.2374 43.3502 49.2374C35.5877 49.2374 27.7502 52.7624 21.9002 58.9499C15.7877 65.3249 12.4502 73.6874 12.4502 82.4624C12.4502 91.2374 15.8252 99.5624 21.9002 105.975C27.7877 112.125 35.6252 115.687 43.3502 115.687C58.2377 115.687 71.7377 108.412 81.3752 95.2499C81.6377 94.8749 82.0502 94.6874 82.5002 94.6874ZM121.65 104.025C107.438 104.025 98.2502 95.5124 93.0377 88.3499L89.3627 83.2874C88.9877 82.7999 88.9877 82.1249 89.3627 81.6374L93.0377 76.5749C98.2502 69.4124 107.475 60.8999 121.65 60.8999C126.225 60.8999 130.988 63.1124 134.7 66.9749C138.713 71.1749 140.925 76.6874 140.925 82.4249C140.925 88.1624 138.713 93.6749 134.7 97.8749C130.988 101.812 126.263 104.025 121.65 104.025ZM92.1752 82.4999L95.2502 86.7374C100.125 93.3749 108.638 101.25 121.65 101.25C125.475 101.25 129.488 99.3374 132.675 95.9999C136.2 92.3249 138.15 87.4874 138.15 82.4624C138.15 77.4374 136.2 72.6374 132.675 68.9249C129.488 65.5874 125.475 63.6749 121.65 63.6749C108.638 63.6749 100.125 71.5874 95.2502 78.2249L92.1752 82.4999ZM43.3502 104.025C38.7752 104.025 34.0127 101.812 30.3002 97.9499C26.2877 93.7499 24.0752 88.2374 24.0752 82.4999C24.0752 76.7624 26.2877 71.2499 30.3002 67.0499C34.0127 63.1874 38.7377 60.9749 43.3502 60.9749C57.5627 60.9749 66.7502 69.4874 71.9627 76.6499L75.6377 81.7124C76.0127 82.1999 76.0127 82.8749 75.6377 83.3624L71.9627 88.4249C66.7502 95.5124 57.5252 104.025 43.3502 104.025ZM43.3502 63.7499C39.5252 63.7499 35.5127 65.6624 32.3252 68.9999C28.8002 72.6749 26.8502 77.5124 26.8502 82.5374C26.8502 87.5624 28.8002 92.3624 32.3252 96.0749C35.5127 99.4124 39.5252 101.325 43.3502 101.325C56.3627 101.325 64.8752 93.4124 69.7502 86.7749L72.8627 82.5374L69.7877 78.2999C64.8752 71.6249 56.3627 63.7499 43.3502 63.7499Z" fill="#221F1F"/>
<path d="M82.5 96.075C84.9375 92.25 86.775 88.3125 90.45 82.5L82.5 96.075Z" fill="#FCD26E"/>
<path d="M82.4999 97.4624C82.2374 97.4624 81.9749 97.3874 81.7499 97.2374C81.1124 96.8249 80.9249 95.9624 81.3374 95.3249C82.4249 93.6374 83.3624 91.9124 84.4499 89.9624C85.7624 87.5999 87.2249 84.9749 89.2874 81.7499C89.6999 81.1124 90.5624 80.9249 91.1999 81.3374C91.8374 81.7499 92.0249 82.6124 91.6124 83.2499C89.6249 86.3999 88.1624 89.0249 86.8499 91.3124C85.7624 93.2249 84.7874 95.0249 83.6249 96.8249C83.3999 97.2374 82.9499 97.4624 82.4999 97.4624Z" fill="#221F1F"/>
<path d="M74.5508 82.4998C77.4383 78.3748 79.4633 73.1623 82.5008 68.9248L74.5508 82.4998Z" fill="#FCD26E"/>
<path d="M74.5504 83.8873C74.2879 83.8873 73.9879 83.8123 73.7629 83.6248C73.1254 83.1748 72.9754 82.3123 73.4254 81.6748C74.7754 79.7623 75.9379 77.5873 77.1379 75.2998C78.4129 72.8623 79.7629 70.3498 81.4129 68.0998C81.8629 67.4623 82.7254 67.3498 83.3629 67.7998C84.0004 68.2498 84.1129 69.1123 83.6629 69.7498C82.1629 71.8498 80.8504 74.2873 79.6129 76.6498C78.4129 78.8998 77.1754 81.2623 75.7129 83.3248C75.4129 83.6998 74.9629 83.8873 74.5504 83.8873Z" fill="#221F1F"/>
</svg>
