<svg width="220" height="220" viewBox="0 0 220 220" fill="none" xmlns="http://www.w3.org/2000/svg">
<path d="M45.4004 73.4C44.4004 73.4 43.5004 73.2 42.6004 72.7C30.5004 66 30.3004 58.1 30.7004 55C31.4004 50.4 34.8004 46.7 39.3004 45.8C40.0004 45.7 40.6004 45.6 41.3004 45.6C42.7004 45.6 44.1004 45.9 45.4004 46.5C46.7004 45.9 48.1004 45.6 49.5004 45.6C50.2004 45.6 50.8004 45.7 51.5004 45.8C55.9004 46.7 59.4004 50.4 60.1004 55C60.6004 58.1 60.4004 66 48.2004 72.7C47.4004 73.1 46.4004 73.4 45.4004 73.4Z" fill="white"/>
<path d="M102.701 184.8C129.984 184.8 152.101 164.563 152.101 139.6C152.101 114.637 129.984 94.4 102.701 94.4C75.4179 94.4 53.3008 114.637 53.3008 139.6C53.3008 164.563 75.4179 184.8 102.701 184.8Z" fill="white"/>
<path d="M106.201 200.6C87.9005 200.6 69.5005 192.9 57.0005 180.1C46.1005 168.8 40.5005 155 41.0005 140C41.3005 127.9 46.0005 116.1 54.4005 106.4C52.7005 99.5 53.3005 92.5 56.0005 86.4C58.0005 82 60.9005 78.5 64.5005 76C64.7005 68.6 67.4005 61.6 72.1005 56.4C71.4005 54.2 71.1005 52 71.1005 49.7C71.1005 33 89.5005 19.4 112.201 19.4C130.801 19.4 146.901 28.4 151.801 41.4C160.601 49.4 165.701 62.3 165.701 76.3C165.701 87.1 162.501 97.4 156.901 105.3C165.801 115 171.001 127.5 171.301 140.1V140.2C171.401 147.4 170.201 154.5 167.601 161.1C167.601 161.2 167.501 161.3 167.501 161.4L167.401 161.6C167.001 162.6 166.501 163.6 166.101 164.6L165.801 165.2C165.301 166.2 164.801 167.1 164.401 168L164.001 168.7C163.601 169.5 163.101 170.2 162.601 171C161.801 172.3 161.001 173.5 160.201 174.5C157.901 177.6 154.501 179.6 150.601 180.1C149.901 180.2 149.301 180.2 148.601 180.2C145.401 180.2 142.301 179.1 139.701 177.1C126.701 167 113.001 157.8 99.0005 149.8C98.3005 149.4 96.7005 148.6 96.0005 148.2C88.0005 143.9 86.6005 135.5 89.4005 129.4C89.8005 128.5 90.3005 127.7 90.8005 126.9C89.6005 127.5 88.2005 128 86.9005 128.4C84.9005 129 82.8005 129.3 80.7005 129.3C77.8005 129.3 74.8005 128.7 71.9005 127.6C69.9005 131.7 69.0005 136.1 69.3005 140.4C69.8005 147.9 73.8005 154.8 81.0005 160.2C87.5005 165.1 95.9005 167.8 104.901 168C110.901 168.1 116.001 172.4 117.001 178.3L118.401 186.1C119.001 189.8 118.001 193.5 115.601 196.3C113.301 199.1 109.801 200.7 106.201 200.7C106.401 200.6 106.201 200.6 106.201 200.6ZM102.401 121C104.301 121 106.201 121.4 108.101 122.1C108.201 122.1 108.201 122.2 108.301 122.2C119.601 127.3 130.901 133.1 141.901 139.5C141.701 138.8 141.501 138.2 141.301 137.7C137.801 128.9 127.601 119 119.101 116.1C114.201 114.3 108.501 113.2 103.001 112.9C102.701 113.6 102.501 114.4 102.101 115.1C100.901 117.7 99.4005 120 97.7005 121.9C99.2005 121.2 100.701 121 102.401 121Z" fill="white"/>
<path d="M165.6 140.1C165.3 126.8 158.9 114.3 149.1 105.6C155.7 98.9 159.9 88.2 159.9 76.3C159.9 63 154.6 51.3 146.8 44.8C143.5 33.7 129.3 25.3 112.2 25.3C92.8004 25.2 77.0004 36.2 77.0004 49.7C77.0004 52.6 77.7004 55.3 79.0004 57.9C73.7004 62.2 70.3004 69.2 70.3004 77C70.3004 84.6 73.5004 91.3 78.4004 95.6C74.4004 97.4 70.6004 99.7 67.0004 102.4C55.3004 111.2 47.1004 125.2 46.7004 140.1C45.8004 172.1 75.9004 194.8 106.1 194.7H106.2C110.3 194.7 113.4 191 112.7 187L111.3 179.2C110.7 176.1 108 173.8 104.8 173.8C95.0004 173.6 85.3004 170.7 77.5004 164.9C58.8004 150.6 60.2004 128.8 74.0004 115C78.2004 110.8 79.4004 111.2 85.8004 109C96.2004 105.3 110.5 106.7 121 110.4C135.8 115.5 153.6 136.7 147.1 149.3C133.9 141.2 120.2 133.9 106 127.5C95.6004 123.5 89.1004 137.8 98.9004 143C99.7004 143.4 101.3 144.3 102.1 144.7C116.5 152.9 130.4 162.2 143.5 172.4C147.3 175.4 152.8 174.7 155.7 170.8C156.5 169.8 157.2 168.7 157.9 167.6C158.3 166.9 158.7 166.2 159.1 165.5C159.2 165.3 159.3 165.1 159.4 164.9C159.9 164.1 160.3 163.2 160.7 162.4C160.8 162.2 160.9 162.1 160.9 161.9C161.3 161 161.7 160.1 162.1 159.2C162.1 159.1 162.2 159.1 162.2 159C164.5 153.3 165.7 146.9 165.6 140.1Z" fill="#9B94F8"/>
<path d="M106.4 196.6C106.3 196.6 106.3 196.6 106.2 196.6C88.9004 196.6 71.6004 189.4 59.9004 177.3C49.7004 166.9 44.6004 154 45.0004 140.1C45.4004 125.2 53.2004 110.5 66.0004 100.9C68.9004 98.7 72.0004 96.7 75.3004 95C70.9004 90.2 68.5004 83.8 68.5004 76.9C68.5004 69.4 71.6004 62.1 76.8004 57.3C75.7004 54.8 75.2003 52.2 75.2003 49.6C75.2003 35.1 91.9004 23.3 112.3 23.3C129.6 23.3 144.6 31.8 148.5 43.6C156.9 50.7 161.9 62.9 161.9 76.2C161.9 87.5 158.3 98.1 151.8 105.4C161.5 114.7 167.2 127.2 167.5 140C167.6 146.8 166.4 153.3 164 159.6C164 159.7 164 159.7 163.9 159.8C163.9 159.9 163.8 159.9 163.8 160C163.4 161 163 162 162.6 162.8L162.3 163.3C161.8 164.3 161.4 165.1 161 165.9C160.9 166 160.8 166.2 160.8 166.3L160.7 166.5C160.3 167.2 159.9 167.9 159.4 168.6C158.6 169.8 157.9 170.9 157.1 171.9C155.4 174.1 153 175.6 150.2 176C147.4 176.4 144.6 175.6 142.3 173.9C129.1 163.6 115.3 154.4 101.1 146.3C100.4 145.9 98.7004 145 98.0004 144.6C91.9004 141.4 91.2004 135.3 93.1004 131C95.1004 126.7 100.1 123.2 106.6 125.7C120 131.7 133.2 138.6 146.1 146.5C147.1 142.9 146.1 138.9 145 136C141 126.1 130 115.4 120.4 112.1C110.9 108.7 96.8004 106.9 86.5004 110.6C85.1004 111.1 84.0004 111.4 83.0004 111.8C79.5004 112.9 78.4004 113.3 75.4004 116.3C68.6004 123.1 65.0004 131.9 65.6004 140.6C66.2004 149.3 70.8004 157.2 78.9004 163.3C86.0004 168.7 95.4004 171.7 105.2 171.9C109.3 172 112.8 174.9 113.5 178.9L114.9 186.7C115.3 189.2 114.6 191.7 113 193.7C111.1 195.5 108.8 196.6 106.4 196.6ZM106.2 192.9H106.4C107.7 192.9 109 192.3 109.9 191.3C110.8 190.2 111.2 188.8 111 187.4L109.6 179.6C109.2 177.4 107.2 175.7 104.9 175.7C94.3004 175.5 84.2004 172.2 76.5004 166.4C67.5004 159.6 62.4004 150.8 61.8004 141C61.2004 131.3 65.1003 121.4 72.7003 113.8C76.3004 110.2 78.2004 109.6 81.8004 108.4C82.7004 108.1 83.8004 107.7 85.1004 107.3C96.3004 103.3 111.5 105.1 121.5 108.7C132.1 112.3 143.9 123.8 148.3 134.7C150.7 140.6 150.7 145.9 148.6 150.1C148.4 150.6 147.9 150.9 147.5 151C147.1 151.1 146.5 151.1 146 150.8C132.7 142.6 118.9 135.3 105.2 129.1C101 127.5 97.8004 129.6 96.5004 132.5C95.2004 135.4 95.7004 139.2 99.7004 141.3C100.5 141.7 102.1 142.6 102.9 143C117.2 151.2 131.2 160.5 144.5 170.9C146 172 147.8 172.5 149.6 172.3C151.4 172.1 153 171.1 154 169.7C154.7 168.8 155.4 167.8 156.1 166.6C156.5 165.9 156.9 165.3 157.3 164.6L157.4 164.4C157.5 164.3 157.5 164.2 157.6 164.1C158 163.4 158.4 162.6 158.8 161.7L159 161.2C159.4 160.4 159.8 159.5 160.1 158.6L160.2 158.5V158.4C162.5 152.6 163.6 146.4 163.5 140.1C163.2 127.7 157.4 115.6 147.6 106.9C147.2 106.6 147 106.1 147 105.6C147 105.1 147.2 104.6 147.5 104.2C154 97.5 157.8 87.3 157.8 76.2C157.8 64 153 52.4 145.3 46.1C145 45.9 144.8 45.5 144.7 45.2C141.6 34.6 127.8 27 111.9 27C93.5004 27 78.5004 37.1 78.5004 49.6C78.5004 52.1 79.1004 54.6 80.3004 56.9C80.7004 57.7 80.5004 58.6 79.8004 59.2C74.8004 63.3 71.8004 69.9 71.8004 76.9C71.8004 83.7 74.5004 90 79.3004 94.2C79.8004 94.6 80.0004 95.2 79.9004 95.9C79.8004 96.5 79.4004 97.1 78.8004 97.3C74.9004 99.1 71.2004 101.3 67.8004 103.9C55.9004 112.8 48.6004 126.4 48.3004 140.2C47.9004 153.1 52.7004 165 62.1004 174.7C73.6004 186.1 89.9004 192.9 106.2 192.9Z" fill="#221F1F"/>
<path d="M97.8998 40.2C90.8998 45.6 86.2998 54.9 86.2998 65.3C86.2998 82 97.8998 95.5 112.3 95.5C126 95.5 137.3 83.1 138.2 67.4C117.7 60.3 104.1 47.2 97.8998 40.2Z" fill="white"/>
<path d="M112.4 97.4C97 97.4 84.5 83 84.5 65.3C84.5 54.6 89.1 44.7 96.8 38.7C97.6 38.1 98.7 38.2 99.3 38.9C105.4 45.9 118.8 58.7 138.9 65.7C139.7 66 140.2 66.7 140.1 67.6C139.1 84.3 126.9 97.4 112.4 97.4ZM97.7 42.7C91.7 48.1 88.2 56.4 88.2 65.3C88.2 81 99 93.7 112.3 93.7C124.5 93.7 134.8 82.8 136.3 68.7C117.4 61.8 104.4 50 97.7 42.7Z" fill="#221F1F"/>
<path d="M85.3746 122.923C95.7273 119.954 101.27 107.606 97.7535 95.3423C94.2375 83.0783 82.9946 75.5424 72.6418 78.5105C62.2891 81.4786 56.7468 93.8267 60.2628 106.091C63.7789 118.355 75.0218 125.891 85.3746 122.923Z" fill="white"/>
<path d="M80.8008 125.3C71.1008 125.3 61.7008 117.8 58.5008 106.5C54.8008 93.4 60.9008 80 72.2008 76.7C83.5008 73.5 95.8008 81.6 99.6008 94.8C103.401 108 97.3008 121.4 86.0008 124.6C84.2008 125.1 82.5008 125.3 80.8008 125.3ZM77.3008 79.7C75.9008 79.7 74.6008 79.9 73.2008 80.3C63.9008 83 58.9008 94.3 62.1008 105.5C65.3008 116.7 75.5008 123.7 84.9008 121C94.2008 118.3 99.2008 107 96.0008 95.8C93.2008 86.2 85.3008 79.7 77.3008 79.7Z" fill="#221F1F"/>
<path d="M112.8 187L111.4 179.2C110.8 176.1 108.1 173.8 104.9 173.8C97.1 173.7 89.4 171.8 82.6 168.1L73.5 185.7C83.3 191.5 94.7 194.8 106.2 194.8H106.3C110.4 194.8 113.5 191 112.8 187Z" fill="white"/>
<path d="M106.4 196.6C106.3 196.6 106.3 196.6 106.2 196.6C94.6 196.6 82.7 193.3 72.6 187.3C71.8 186.8 71.5 185.7 71.9 184.9L81 167.3C81.2 166.9 81.6 166.5 82.1 166.4C82.6 166.3 83.1 166.3 83.5 166.5C89.8 170 97.2 171.9 104.9 172C109 172.1 112.5 175 113.2 179L114.6 186.8C115 189.3 114.3 191.8 112.7 193.8C111.1 195.5 108.8 196.6 106.4 196.6ZM106.2 192.9H106.4C107.7 192.9 109 192.3 109.9 191.3C110.8 190.2 111.2 188.8 111 187.4L109.6 179.6C109.2 177.4 107.2 175.7 104.9 175.7C97.3 175.6 89.9 173.8 83.4 170.6L76 185C85.2 190.1 95.8 192.9 106.2 192.9Z" fill="#221F1F"/>
<path d="M105.9 127.5C95.4997 123.5 88.9997 137.8 98.7997 143C99.5997 143.4 101.2 144.3 102 144.7C110.1 149.3 117.9 154.2 125.6 159.5L135.3 142.4C125.8 137 116 132 105.9 127.5Z" fill="white"/>
<path d="M125.7 161.4C125.3 161.4 125 161.3 124.7 161.1C117 155.8 109 150.9 101.2 146.4C100.5 146 98.7997 145.1 98.0997 144.7C91.9997 141.5 91.2997 135.4 93.1997 131.1C95.1997 126.8 100.2 123.3 106.7 125.8H106.8C116.7 130.2 126.6 135.3 136.4 140.8C136.8 141 137.1 141.4 137.3 141.9C137.4 142.4 137.4 142.9 137.1 143.3L127.4 160.4C127.1 160.8 126.7 161.2 126.2 161.3C125.9 161.4 125.8 161.4 125.7 161.4ZM102.4 128.7C99.5997 128.7 97.4997 130.5 96.4997 132.6C95.1997 135.5 95.6997 139.3 99.6997 141.4C100.5 141.8 102.1 142.7 102.9 143.1C110.3 147.3 117.7 151.9 125 156.8L132.8 143C123.7 137.9 114.4 133.2 105.2 129.1C104.2 128.8 103.3 128.7 102.4 128.7Z" fill="#221F1F"/>
<path d="M40.1006 97C42.3097 97 44.1006 95.2091 44.1006 93C44.1006 90.7909 42.3097 89 40.1006 89C37.8914 89 36.1006 90.7909 36.1006 93C36.1006 95.2091 37.8914 97 40.1006 97Z" fill="#A0A0A0"/>
<path d="M158.401 73.8C158.301 73.8 158.301 73.8 158.201 73.8C150.501 73.2 138.201 69.4 137.701 69.2C136.701 68.9 136.201 67.9 136.501 66.9C136.801 65.9 137.801 65.4 138.801 65.7C138.901 65.7 151.201 69.5 158.501 70.1C159.501 70.2 160.301 71.1 160.201 72.1C160.201 73.1 159.401 73.8 158.401 73.8Z" fill="#221F1F"/>
<path d="M87.0006 114.5C75.3006 114.5 65.3006 106.2 61.5006 94.5C60.9006 98 61.0006 101.8 62.1006 105.6C63.7006 111.1 67.0006 115.7 71.3006 118.7C75.6006 121.6 80.4006 122.4 84.9006 121.2C88.9006 120.1 92.2006 117.3 94.3006 113.5C92.0006 114.1 89.5006 114.5 87.0006 114.5Z" fill="#E6E6E6"/>
<path d="M120.3 88.4C105.1 88.4 92.3002 76.9 88.5002 61.3C88.3002 62.6 88.2002 64 88.2002 65.4C88.2002 81.1 99.0002 93.8 112.3 93.8C117.9 93.8 123.1 91.5 127.3 87.6C125.1 88.1 122.7 88.4 120.3 88.4Z" fill="#E6E6E6"/>
<path d="M45.4002 67.5C27.9002 57.9 40.5002 46 45.4002 54.1C50.3002 46.1 63.0002 57.9 45.4002 67.5Z" fill="#F2AC99"/>
<path d="M45.4 69.4C45.1 69.4 44.8 69.3 44.5 69.2C34.6 63.8 34.3 57.9 34.6 55.6C35.1 52.6 37.2 50.3 40 49.7C42 49.3 43.8 49.9 45.3 51.2C46.8 49.9 48.7 49.3 50.6 49.7C53.4 50.3 55.5 52.6 56 55.6C56.3 57.9 56.1 63.7 46.1 69.2C46 69.3 45.7 69.4 45.4 69.4ZM41.3 53.3C41.1 53.3 41 53.3 40.8 53.3C39.8 53.5 38.6 54.5 38.3 56.1C37.9 59 40.5 62.5 45.4 65.3C50.3 62.4 52.9 59 52.5 56.1C52.2 54.4 51.1 53.5 50 53.3C48.8 53.1 47.8 53.7 47 55C46.7 55.6 46.1 55.9 45.4 55.9C44.8 55.9 44.2 55.6 43.8 55C43.2 53.9 42.3 53.3 41.3 53.3Z" fill="#221F1F"/>
<path d="M180.001 110.5C164.701 102.5 175.801 92.5 180.001 99.2C184.201 92.5 195.301 102.4 180.001 110.5Z" fill="#A0A0A0"/>
<path d="M180.001 112C179.701 112 179.501 111.9 179.301 111.8C170.701 107.3 170.401 102.4 170.701 100.5C171.001 98 172.901 96 175.301 95.4C177.001 95 178.701 95.5 180.101 96.6C181.401 95.4 183.101 95 184.901 95.4C187.301 95.9 189.101 98 189.501 100.5C189.801 102.4 189.401 107.3 180.901 111.8C180.501 112 180.201 112 180.001 112ZM176.401 98.5C176.201 98.5 176.101 98.5 175.901 98.6C175.001 98.8 174.001 99.6 173.801 101C173.501 103.4 175.801 106.3 180.001 108.7C184.201 106.3 186.601 103.5 186.201 101C186.001 99.6 185.001 98.8 184.101 98.6C183.001 98.4 182.101 98.9 181.301 100C181.001 100.5 180.501 100.7 180.001 100.7C179.501 100.7 179.001 100.4 178.701 100C178.001 99.1 177.201 98.5 176.401 98.5Z" fill="#A0A0A0"/>
</svg>
