<svg width="178" height="178" viewBox="0 0 178 178" fill="none" xmlns="http://www.w3.org/2000/svg">
<path d="M99.7998 82.8002C96.5998 82.8002 93.7998 80.8002 92.6998 77.8002C91.5998 74.7002 92.5998 71.3002 95.1998 69.3002C95.7998 68.8002 96.3998 68.1002 96.6998 67.6002C96.4998 67.3002 95.9998 66.8002 94.8998 66.1002C92.1998 64.3002 90.0998 62.0002 88.7998 59.4002C87.9998 63.1002 89.7998 67.5002 90.5998 69.0002C92.1998 71.7002 91.8998 75.2002 89.7998 77.6002C88.3998 79.3002 86.2998 80.3002 84.0998 80.3002C83.1998 80.3002 82.2998 80.1002 81.3998 79.8002C73.6998 76.8002 59.9998 66.6002 63.2998 48.9002C65.3998 38.0002 74.5998 32.5002 81.9998 28.1002C90.3998 23.1002 92.6998 21.1002 92.0998 17.5002C91.5998 14.4002 93.0998 11.2002 95.7998 9.7002C96.8998 9.1002 98.1998 8.7002 99.4998 8.7002C101.3 8.7002 103.1 9.4002 104.4 10.6002C105.1 11.2002 118.1 22.9002 117.9 38.9002L119.1 38.6002C119.7 38.5002 120.3 38.4002 120.8 38.4002C122.4 38.4002 123.9 38.9002 125.1 39.8002C126.8 41.0002 128 43.0002 128.2 45.1002C129.4 56.5002 127.1 65.7002 121.2 72.5002C113 82.0002 101.2 82.7002 99.8998 82.8002C99.9998 82.8002 99.7998 82.8002 99.7998 82.8002ZM106.7 56.4002C108.6 58.3002 109.9 60.2002 110.7 61.9002C112 60.1002 112.9 58.0002 113.4 55.4002L109.8 56.3002C109.2 56.4002 108.6 56.5002 108.1 56.5002C107.5 56.5002 107.1 56.5002 106.7 56.4002ZM97.1998 36.7002C99.3998 36.7002 101.5 37.7002 102.9 39.4002C103 37.1002 102.6 34.8002 101.7 32.3002C100.1 34.0002 98.3998 35.4002 96.4998 36.7002C96.7998 36.7002 96.9998 36.7002 97.1998 36.7002Z" fill="white"/>
<path d="M153.7 49.7002L97.1002 17.0002C92.1002 14.1002 85.8002 14.1002 80.8002 17.0002L24.3002 49.7002C19.3002 52.6002 16.2002 58.0002 16.2002 63.8002V129C16.2002 134.8 19.3002 140.2 24.3002 143.1L80.8002 175.7C83.3002 177.1 86.1002 177.9 88.9002 177.9C91.8002 177.9 94.6002 177.1 97.0002 175.7L153.5 143.1C158.5 140.2 161.6 134.8 161.6 129V63.7002C161.8 57.9002 158.7 52.5002 153.7 49.7002ZM146.8 63.7002V129C146.8 129.4 146.6 129.9 146.2 130.1L89.7002 162.7C89.3002 162.9 88.8002 162.9 88.4002 162.7L31.9002 130.1C31.5002 129.9 31.3002 129.4 31.3002 129V63.7002C31.3002 63.3002 31.5002 62.8002 31.9002 62.6002L88.4002 30.0002C88.6002 29.9002 88.9002 29.8002 89.0002 29.8002C89.2002 29.8002 89.4002 29.8002 89.6002 30.0002L146.1 62.6002C146.5 62.9002 146.8 63.3002 146.8 63.7002Z" fill="white"/>
<path d="M84.6002 23.5003L28.1002 56.1003C25.4002 57.7003 23.7002 60.6003 23.7002 63.7003V129C23.7002 132.1 25.4002 135 28.1002 136.6L84.6002 169.2C87.3002 170.8 90.7002 170.8 93.4002 169.2L149.9 136.6C152.6 135 154.3 132.1 154.3 129V63.7003C154.3 60.6003 152.6 57.7003 149.9 56.1003L93.4002 23.5003C90.7002 21.9003 87.3002 21.9003 84.6002 23.5003Z" fill="#D2D2FF"/>
<path d="M89.0002 165.4C88.3002 165.4 87.7002 165.2 87.1002 164.9L30.6002 132.3C29.4002 131.6 28.7002 130.4 28.7002 129V63.7003C28.7002 62.4003 29.4002 61.1003 30.6002 60.4003L87.1002 27.8003C87.7002 27.5003 88.3002 27.3003 89.0002 27.3003C89.7002 27.3003 90.3002 27.5003 90.9002 27.8003L147.4 60.4003C148.6 61.1003 149.3 62.3003 149.3 63.7003V129C149.3 130.3 148.6 131.6 147.4 132.3L90.9002 164.9C90.3002 165.2 89.7002 165.4 89.0002 165.4Z" fill="url(#paint0_linear_4242_3783)"/>
<path d="M89.0002 162.4C88.9002 162.4 88.7002 162.4 88.6002 162.3L32.1002 129.7C31.9002 129.6 31.7002 129.3 31.7002 129V63.7003C31.7002 63.4003 31.8002 63.2003 32.1002 63.0003L88.6002 30.4003C88.7002 30.3003 88.8002 30.3003 89.0002 30.3003C89.1002 30.3003 89.3002 30.3003 89.4002 30.4003L145.9 63.0003C146.1 63.1003 146.3 63.4003 146.3 63.7003V129C146.3 129.3 146.2 129.5 145.9 129.7L89.4002 162.3C89.3002 162.4 89.1002 162.4 89.0002 162.4Z" fill="url(#paint1_linear_4242_3783)"/>
<path d="M149.9 56.1003L93.4002 23.5003C90.7002 21.9003 87.3002 21.9003 84.6002 23.5003L28.1002 56.1003C25.4002 57.7003 23.7002 60.6003 23.7002 63.7003V69.2003C23.7002 66.1003 25.4002 63.2003 28.1002 61.6003L84.6002 29.0003C87.3002 27.4003 90.7002 27.4003 93.4002 29.0003L149.9 61.6003C152.6 63.2003 154.3 66.1003 154.3 69.2003V63.7003C154.3 60.6003 152.6 57.7003 149.9 56.1003Z" fill="white"/>
<path d="M88.9998 171.9C87.1998 171.9 85.4998 171.4 83.8998 170.5L27.3998 137.9C24.1998 136.1 22.2998 132.7 22.2998 129V63.7001C22.2998 60.0001 24.2998 56.6001 27.3998 54.8001L83.8998 22.2001C87.0998 20.4001 90.9998 20.4001 94.1998 22.2001L150.7 54.8001C153.9 56.6001 155.8 60.0001 155.8 63.7001V129C155.8 132.7 153.8 136.1 150.7 137.9L94.1998 170.5C92.4998 171.4 90.7998 171.9 88.9998 171.9ZM88.9998 23.8001C87.6998 23.8001 86.4998 24.1001 85.3998 24.8001L28.7998 57.4001C26.5998 58.7001 25.1998 61.1001 25.1998 63.7001V129C25.1998 131.6 26.5998 134 28.7998 135.3L85.2998 167.9C87.4998 169.2 90.2998 169.2 92.5998 167.9L149.1 135.3C151.3 134 152.7 131.6 152.7 129V63.7001C152.7 61.1001 151.3 58.7001 149.1 57.4001L92.5998 24.8001C91.4998 24.2001 90.2998 23.8001 88.9998 23.8001Z" fill="#221F1F"/>
<path d="M113.7 112.4L58.4004 102.6L63.9004 71.4004L119.2 81.2004L113.7 112.4Z" fill="url(#paint2_linear_4242_3783)"/>
<path d="M111.997 82.9065L107.081 110.776L113.581 111.923L118.496 84.0529L111.997 82.9065Z" fill="white"/>
<path d="M92.6006 79.3002C101.713 79.3002 109.101 70.6593 109.101 60.0002C109.101 49.3411 101.713 40.7002 92.6006 40.7002C83.4879 40.7002 76.1006 49.3411 76.1006 60.0002C76.1006 70.6593 83.4879 79.3002 92.6006 79.3002Z" fill="#F9A936"/>
<path d="M108.1 105.9L65.7998 98.5L69.7998 158.9L81.6998 165.8L108.1 105.9Z" fill="url(#paint3_linear_4242_3783)"/>
<path d="M78.7002 164.1L81.7002 165.8L106.6 109.2L104.9 105.4L101.2 104.7L78.7002 164.1Z" fill="white"/>
<path d="M108.3 104.4L66.0998 97.0001C65.5998 96.9001 65.1998 97.1001 64.7998 97.4001C64.4998 97.7001 64.2998 98.2001 64.2998 98.6001L68.2998 159.1L71.3998 160.9L67.3998 100.3L105.9 107.1L79.9998 165.9L82.5998 167.4L109.4 106.6C109.6 106.2 109.6 105.7 109.4 105.3C109.2 104.8 108.8 104.5 108.3 104.4Z" fill="#221F1F"/>
<path d="M77.9004 160.9C77.7004 160.9 77.5004 160.9 77.3004 160.8C77.1004 160.7 77.0004 160.6 76.8004 160.5C76.7004 160.4 76.6004 160.2 76.5004 160C76.4004 159.8 76.4004 159.6 76.4004 159.4C76.4004 159.3 76.4004 159.2 76.4004 159.1C76.4004 159 76.4004 158.9 76.5004 158.8C76.5004 158.7 76.6004 158.6 76.6004 158.5C76.7004 158.4 76.7004 158.3 76.8004 158.3C77.4004 157.7 78.4004 157.7 78.9004 158.3C79.0004 158.4 79.0004 158.4 79.1004 158.5C79.1004 158.6 79.2004 158.7 79.2004 158.8C79.2004 158.9 79.3004 159 79.3004 159.1C79.3004 159.2 79.3004 159.3 79.3004 159.4C79.3004 159.6 79.3004 159.8 79.2004 160C79.1004 160.2 79.0004 160.3 78.9004 160.5C78.6004 160.7 78.3004 160.9 77.9004 160.9Z" fill="#4E8193"/>
<path d="M79.3004 155C78.5004 154.7 78.1004 153.9 78.4004 153.1C78.7004 152.3 79.5004 151.9 80.3004 152.2C81.1004 152.5 81.5004 153.3 81.2004 154.1C81.0004 154.7 80.4004 155.1 79.8004 155.1C79.6004 155.1 79.5004 155.1 79.3004 155ZM81.2004 149.3C80.4004 149 80.0004 148.2 80.3004 147.4C80.6004 146.6 81.4004 146.2 82.2004 146.5C83.0004 146.8 83.4004 147.6 83.1004 148.4C82.9004 149 82.3004 149.4 81.7004 149.4C81.6004 149.4 81.4004 149.4 81.2004 149.3ZM83.2004 143.6C82.4004 143.3 82.0004 142.5 82.3004 141.7C82.6004 140.9 83.4004 140.5 84.2004 140.8C85.0004 141.1 85.4004 141.9 85.1004 142.7C84.9004 143.3 84.3004 143.7 83.7004 143.7C83.5004 143.7 83.3004 143.6 83.2004 143.6ZM85.1004 137.9C84.3004 137.6 83.9004 136.8 84.1004 136C84.4004 135.2 85.2004 134.8 86.0004 135.1C86.8004 135.4 87.2004 136.2 87.0004 137C86.8004 137.6 86.2004 138 85.6004 138C85.4004 137.9 85.3004 137.9 85.1004 137.9ZM87.0004 132.1C86.2004 131.8 85.8004 131 86.1004 130.2C86.4004 129.4 87.2004 129 88.0004 129.3C88.8004 129.6 89.2004 130.4 88.9004 131.2C88.7004 131.8 88.1004 132.2 87.5004 132.2C87.4004 132.2 87.2004 132.2 87.0004 132.1ZM89.0004 126.4C88.2004 126.1 87.8004 125.3 88.0004 124.5C88.3004 123.7 89.1004 123.3 89.9004 123.6C90.7004 123.9 91.1004 124.7 90.8004 125.5C90.6004 126.1 90.0004 126.5 89.4004 126.5C89.3004 126.5 89.1004 126.5 89.0004 126.4ZM90.9004 120.7C90.1004 120.4 89.7004 119.6 89.9004 118.8C90.2004 118 91.0004 117.6 91.8004 117.9C92.6004 118.2 93.0004 119 92.7004 119.8C92.5004 120.4 91.9004 120.8 91.3004 120.8C91.2004 120.7 91.1004 120.7 90.9004 120.7ZM92.8004 114.9C92.0004 114.6 91.6004 113.8 91.9004 113C92.2004 112.2 93.0004 111.8 93.8004 112.1C94.6004 112.4 95.0004 113.2 94.7004 114C94.5004 114.6 93.9004 115 93.3004 115C93.1004 115 93.0004 115 92.8004 114.9Z" fill="#4E8193"/>
<path d="M95.2002 109.3C94.8002 109.3 94.4002 109.2 94.1002 108.9C94.0002 108.8 93.9002 108.6 93.8002 108.4C93.7002 108.2 93.7002 108 93.7002 107.8C93.7002 107.7 93.7002 107.6 93.7002 107.5C93.7002 107.4 93.7002 107.3 93.8002 107.2C93.9002 107.1 93.9002 107 93.9002 106.9C94.0002 106.8 94.0002 106.7 94.1002 106.7C94.2002 106.6 94.2002 106.6 94.3002 106.5C94.4002 106.5 94.5002 106.4 94.5002 106.4C94.6002 106.4 94.7002 106.3 94.8002 106.3C95.0002 106.3 95.2002 106.3 95.4002 106.3C95.5002 106.3 95.6002 106.3 95.7002 106.4C95.8002 106.4 95.9002 106.5 96.0002 106.5C96.1002 106.6 96.2002 106.6 96.2002 106.7C96.3002 106.8 96.3002 106.9 96.4002 106.9C96.4002 107 96.5002 107.1 96.5002 107.2C96.5002 107.3 96.6002 107.4 96.6002 107.5C96.6002 107.6 96.6002 107.7 96.6002 107.8C96.6002 108 96.6002 108.2 96.5002 108.4C96.4002 108.6 96.3002 108.7 96.2002 108.9C96.0002 109.1 95.6002 109.3 95.2002 109.3Z" fill="#221F1F"/>
<path fill-rule="evenodd" clip-rule="evenodd" d="M99.8004 75.3003C99.8004 75.3003 124.1 74.4003 121 45.9003L108 49.0003C116.9 31.4003 99.6004 16.3003 99.6004 16.3003C102.6 33.6003 73.8004 34.1003 70.7004 50.3003C67.6004 66.5003 84.1004 72.7003 84.1004 72.7003C84.1004 72.7003 71.6004 51.6003 97.2004 44.2003C97.2004 44.2003 90.3004 54.2003 99.0004 59.9003C110.5 67.3003 99.8004 75.3003 99.8004 75.3003Z" fill="url(#paint4_linear_4242_3783)"/>
<path d="M99.8004 76.8C99.2004 76.8 98.6004 76.4 98.4004 75.8C98.2004 75.2 98.4004 74.5 98.9004 74.1C99.0004 74.1 103 71 102.8 67.3C102.7 65.1 101.2 63 98.2004 61.1C95.5004 59.4 93.9004 57.1 93.3004 54.3C92.8004 51.5 93.4004 48.8 94.2004 46.8C88.7004 49 85.1004 52.1 83.5004 56.2C80.5004 63.7 85.3004 72 85.3004 72C85.6004 72.5 85.6004 73.2 85.2004 73.7C84.8004 74.2 84.1004 74.4 83.5004 74.1C83.4004 74.1 66.0004 67.3 69.2004 50C70.8004 41.8 78.0004 37.5 85.1004 33.3C92.8004 28.7 99.5004 24.8 98.1004 16.5C98.0004 15.9 98.3004 15.2 98.8004 14.9C99.4004 14.6 100 14.7 100.5 15.1C100.7 15.3 116.7 29.6 110.5 46.8L120.6 44.4C121 44.3 121.5 44.4 121.8 44.6C122.2 44.8 122.4 45.2 122.4 45.7C123.4 55.4 121.6 63 116.8 68.5C110.1 76.3 100.2 76.8 99.8004 76.8ZM97.2004 42.7C97.7004 42.7 98.1004 42.9 98.4004 43.3C98.8004 43.8 98.8004 44.5 98.4004 45C98.4004 45 95.4004 49.5 96.2004 53.7C96.6004 55.7 97.8004 57.3 99.7004 58.6C103.6 61.1 105.6 64 105.7 67.2C105.8 69.5 104.9 71.5 103.8 73C106.9 72.2 111.2 70.3 114.5 66.5C118.4 62 120.1 55.7 119.5 47.7L108.2 50.4C107.6 50.5 107 50.3 106.7 49.9C106.4 49.5 106.3 48.8 106.5 48.3C109.9 41.5 109.7 34.3 105.7 26.8C104.2 24 102.5 21.8 101.1 20.1C100.3 27.6 93.3004 31.8 86.5004 35.8C80.0004 39.6 73.3004 43.6 72.0004 50.5C70.8004 56.7 72.5004 62 77.0004 66.4C78.3004 67.6 79.6004 68.6 80.8004 69.4C79.5004 65.8 78.5004 60.4 80.6004 55C82.9004 49.3 88.3004 45.1 96.7004 42.7C97.0004 42.7 97.1004 42.7 97.2004 42.7Z" fill="#221F1F"/>
<path d="M113.7 113.9C113.6 113.9 113.5 113.9 113.4 113.9L58.1001 104.2C57.3001 104.1 56.7001 103.3 56.9001 102.5L62.4001 71.3003C62.5001 70.5003 63.3001 69.9003 64.1001 70.1003L119.4 79.8003C119.8 79.9003 120.1 80.1003 120.4 80.4003C120.6 80.7003 120.7 81.1003 120.6 81.5003L115.1 112.7C115 113.1 114.8 113.4 114.5 113.7C114.3 113.8 114 113.9 113.7 113.9ZM60.1001 101.4L112.4 110.6L117.4 82.4003L65.1001 73.2003L60.1001 101.4Z" fill="#221F1F"/>
<path d="M82.2004 118.7L72.9004 114.6L74.5004 155.3L82.2004 118.7Z" fill="white"/>
<path d="M73.3562 75.3084L68.4434 103.178L74.943 104.324L79.8559 76.4541L73.3562 75.3084Z" fill="white"/>
<path d="M118.201 86.4004L62.9006 76.7004C60.3006 76.2004 58.6006 73.8004 59.0006 71.2004C59.5006 68.6004 61.9006 66.9004 64.5006 67.3004L119.801 77.0004C122.401 77.5004 124.101 79.9004 123.701 82.5004C123.301 85.2004 120.801 86.9004 118.201 86.4004Z" fill="url(#paint5_linear_4242_3783)"/>
<path d="M113 116.1L57.7004 106.4C55.1004 105.9 53.4004 103.5 53.8004 100.9C54.3004 98.3001 56.7004 96.6001 59.3004 97.0001L114.6 106.7C117.2 107.2 118.9 109.6 118.5 112.2C118 114.8 115.6 116.6 113 116.1Z" fill="url(#paint6_linear_4242_3783)"/>
<path d="M67 89.6002C66.6 89.6002 66.2 89.4002 65.9 89.2002C65.6 88.9002 65.5 88.5002 65.5 88.1002C65.5 87.7002 65.7 87.3002 65.9 87.0002C66.2 86.7002 66.8 86.5002 67.3 86.6002C67.4 86.6002 67.5 86.6002 67.6 86.7002C67.7 86.8002 67.8 86.8002 67.8 86.8002C67.9 86.9002 68 86.9002 68 87.0002C68.3 87.3002 68.4 87.7002 68.4 88.1002C68.4 88.5002 68.2 88.9002 68 89.2002C67.8 89.4002 67.4 89.6002 67 89.6002Z" fill="#4E8193"/>
<path d="M104 96.1004C103.2 96.0004 102.6 95.2004 102.8 94.4004C102.9 93.6004 103.7 93.0004 104.5 93.2004C105.3 93.3004 105.9 94.1004 105.7 94.9004C105.6 95.6004 104.9 96.1004 104.2 96.1004C104.2 96.1004 104.1 96.1004 104 96.1004ZM97.8005 95.0004C97.0005 94.9004 96.4005 94.1004 96.6005 93.3004C96.7005 92.5004 97.5005 91.9004 98.3005 92.1004C99.1005 92.2004 99.7005 93.0004 99.5005 93.8004C99.4005 94.5004 98.7005 95.0004 98.0005 95.0004C98.0005 95.0004 97.9005 95.0004 97.8005 95.0004ZM91.6005 93.9004C90.8005 93.8004 90.2005 93.0004 90.4005 92.2004C90.5005 91.4004 91.3005 90.8004 92.1005 91.0004C92.9005 91.1004 93.5005 91.9004 93.3005 92.7004C93.2005 93.4004 92.5005 93.9004 91.8005 93.9004C91.8005 94.0004 91.7005 93.9004 91.6005 93.9004ZM85.4005 92.8004C84.6005 92.7004 84.0005 91.9004 84.2005 91.1004C84.3005 90.3004 85.1005 89.7004 85.9005 89.9004C86.7005 90.0004 87.3005 90.8004 87.1005 91.6004C87.0005 92.3004 86.3005 92.8004 85.6005 92.8004C85.6005 92.9004 85.5005 92.8004 85.4005 92.8004ZM79.2005 91.7004C78.4005 91.6004 77.8005 90.8004 78.0005 90.0004C78.1005 89.2004 78.9005 88.6004 79.7005 88.8004C80.5005 88.9004 81.1005 89.7004 80.9005 90.5004C80.8005 91.2004 80.1005 91.7004 79.4005 91.7004C79.4005 91.8004 79.3005 91.8004 79.2005 91.7004ZM73.0005 90.6004C72.2005 90.4004 71.6005 89.7004 71.8005 88.9004C71.9005 88.1004 72.7005 87.5004 73.5005 87.7004C74.3005 87.9004 74.9005 88.6004 74.7005 89.4004C74.6005 90.1004 73.9005 90.6004 73.2005 90.6004C73.2005 90.7004 73.1005 90.7004 73.0005 90.6004Z" fill="#4E8193"/>
<path d="M110.5 97.2002C110.3 97.2002 110.1 97.2002 109.9 97.1002C109.7 97.0002 109.5 96.9002 109.4 96.8002C109.3 96.7002 109.2 96.5002 109.1 96.3002C109 96.1002 109 95.9002 109 95.7002C109 95.6002 109 95.5002 109 95.4002C109 95.3002 109 95.2002 109.1 95.1002C109.1 95.0002 109.2 94.9002 109.2 94.8002C109.3 94.7002 109.3 94.6002 109.4 94.6002C109.5 94.5002 109.5 94.5002 109.6 94.4002C109.7 94.4002 109.8 94.3002 109.9 94.3002C110 94.3002 110.1 94.2002 110.2 94.2002C110.4 94.2002 110.6 94.2002 110.8 94.2002C110.9 94.2002 111 94.2002 111.1 94.3002C111.2 94.3002 111.3 94.4002 111.4 94.4002C111.5 94.5002 111.6 94.5002 111.6 94.6002C111.7 94.7002 111.7 94.7002 111.8 94.8002C111.9 94.9002 111.9 95.0002 111.9 95.1002C111.9 95.2002 112 95.3002 112 95.4002C112 95.5002 112 95.6002 112 95.7002C112 95.9002 112 96.1002 111.9 96.3002C111.8 96.5002 111.7 96.6002 111.6 96.8002C111.3 97.1002 110.9 97.2002 110.5 97.2002Z" fill="#4E8193"/>
<path d="M63.2998 107.4L72.7998 109.1L74.4998 99.7003L64.9998 98.0003L63.2998 107.4ZM70.1998 68.3003L68.4998 77.7003L77.9998 79.4003L79.6998 70.0003L70.1998 68.3003Z" fill="white"/>
<path d="M114.601 106.7L110.801 106L109.101 115.4L112.901 116.1C115.501 116.6 118.001 114.8 118.401 112.2C119.001 109.7 117.201 107.2 114.601 106.7ZM119.901 77.1004L116.101 76.4004L114.401 85.8004L118.201 86.5004C120.801 87.0004 123.301 85.2004 123.701 82.6004C124.201 80.0004 122.501 77.5004 119.901 77.1004Z" fill="white"/>
<path d="M119.1 88C118.7 88 118.4 88 118 87.9L62.6999 78.2C61.0999 77.9 59.5999 77 58.6999 75.6C57.6999 74.2 57.3999 72.6 57.6999 70.9C57.9999 69.3 58.8999 67.8 60.2998 66.9C61.6999 65.9 63.2999 65.6 64.9999 65.9L120.3 75.6C123.7 76.2 126 79.5 125.4 82.8C125.1 84.4 124.2 85.9 122.8 86.8C121.6 87.6 120.3 88 119.1 88ZM63.7998 68.8C63.0999 68.8 62.4999 69 61.8999 69.4C61.1999 69.9 60.6998 70.6 60.5998 71.5C60.3998 72.4 60.5998 73.2 61.0998 73.9C61.5998 74.6 62.2999 75.1 63.1999 75.2L118.5 84.9C119.3 85 120.2 84.9 120.9 84.4C121.6 83.9 122.1 83.2 122.2 82.3C122.5 80.5 121.3 78.8 119.6 78.5L64.2999 68.8C64.0999 68.8 63.9998 68.8 63.7998 68.8Z" fill="#221F1F"/>
<path d="M113.8 117.7C113.4 117.7 113.1 117.7 112.7 117.6L57.4 107.9C55.8 107.6 54.3 106.7 53.4 105.3C52.4 103.9 52.1 102.3 52.4 100.6C53 97.2 56.3 94.9 59.6 95.5L114.9 105.2C116.5 105.5 118 106.4 118.9 107.8C119.9 109.2 120.2 110.8 119.9 112.5C119.4 115.5 116.8 117.7 113.8 117.7ZM58.5 98.4C57.8 98.4 57.2 98.6 56.6 99C55.9 99.5 55.4 100.2 55.3 101.1C55.1 102 55.3 102.8 55.8 103.5C56.3 104.2 57 104.7 57.9 104.8L113.2 114.5C115 114.8 116.7 113.6 117 111.9C117.2 111 117 110.2 116.5 109.5C116 108.8 115.3 108.3 114.4 108.2L59.1 98.5C58.9 98.4 58.7 98.4 58.5 98.4Z" fill="#221F1F"/>
<defs>
<linearGradient id="paint0_linear_4242_3783" x1="89.0002" y1="27.3403" x2="89.0002" y2="165.403" gradientUnits="userSpaceOnUse">
<stop offset="0.3974" stop-color="#4E4E85"/>
<stop offset="0.7659" stop-color="#4A4866"/>
</linearGradient>
<linearGradient id="paint1_linear_4242_3783" x1="89.0002" y1="30.3386" x2="89.0002" y2="162.403" gradientUnits="userSpaceOnUse">
<stop offset="0.3974" stop-color="#4E4E85"/>
<stop offset="0.7659" stop-color="#4A4866"/>
</linearGradient>
<linearGradient id="paint2_linear_4242_3783" x1="81.8022" y1="90.6762" x2="105.772" y2="94.9188" gradientUnits="userSpaceOnUse">
<stop stop-color="#B5D6E2"/>
<stop offset="1" stop-color="#95B2BF"/>
</linearGradient>
<linearGradient id="paint3_linear_4242_3783" x1="76.091" y1="132.538" x2="94.4111" y2="135.781" gradientUnits="userSpaceOnUse">
<stop stop-color="#B5D6E2"/>
<stop offset="1" stop-color="#95B2BF"/>
</linearGradient>
<linearGradient id="paint4_linear_4242_3783" x1="94.3771" y1="60.8829" x2="99.7863" y2="30.6548" gradientUnits="userSpaceOnUse">
<stop stop-color="#F7E837"/>
<stop offset="1" stop-color="#F9A936"/>
</linearGradient>
<linearGradient id="paint5_linear_4242_3783" x1="83.2753" y1="75.4455" x2="111.296" y2="80.4049" gradientUnits="userSpaceOnUse">
<stop stop-color="#B5D6E2"/>
<stop offset="1" stop-color="#95B2BF"/>
</linearGradient>
<linearGradient id="paint6_linear_4242_3783" x1="78.0434" y1="105.116" x2="106.064" y2="110.075" gradientUnits="userSpaceOnUse">
<stop stop-color="#B5D6E2"/>
<stop offset="1" stop-color="#95B2BF"/>
</linearGradient>
</defs>
</svg>
