<svg width="165" height="165" viewBox="0 0 165 165" fill="none" xmlns="http://www.w3.org/2000/svg">
<path d="M107.4 15.2251C86.9629 15.2251 70.4254 31.8001 70.4254 52.2001C70.4254 59.5126 72.5629 66.3376 76.2004 72.0376L20.5879 127.688L31.9504 139.05L37.0879 133.913L52.9504 149.775L62.0629 140.663L52.8379 131.438L61.2004 123.075L70.4254 132.3L79.5379 123.188L70.3129 114L63.6379 107.325L87.5254 83.4376C93.2629 87.1126 100.088 89.2126 107.363 89.2126C127.8 89.2126 144.338 72.6376 144.338 52.2376C144.413 31.8001 127.838 15.2251 107.4 15.2251ZM107.4 74.1376C95.2879 74.1376 85.4629 64.3126 85.4629 52.2001C85.4629 40.0876 95.2879 30.2626 107.4 30.2626C119.513 30.2626 129.338 40.0876 129.338 52.2001C129.338 64.3126 119.513 74.1376 107.4 74.1376Z" fill="white"/>
<path d="M52.9498 151.162C52.6123 151.162 52.2373 151.012 51.9748 150.75L37.0873 135.862L32.9623 139.987C32.4373 140.512 31.5373 140.512 31.0123 139.987L19.6498 128.625C19.3873 128.362 19.2373 128.025 19.2373 127.65C19.2373 127.275 19.3873 126.937 19.6498 126.675L74.4748 71.8499C70.9498 65.9249 69.0748 59.1374 69.0748 52.1999C69.0748 31.0499 86.2873 13.8374 107.437 13.8374C128.587 13.8374 145.8 31.0499 145.8 52.1999C145.8 73.3499 128.587 90.5624 107.437 90.5624C100.5 90.5624 93.7123 88.6874 87.7873 85.1624L65.6248 107.325L80.5123 122.212C80.7748 122.475 80.9248 122.812 80.9248 123.187C80.9248 123.562 80.7748 123.9 80.5123 124.162L71.3998 133.275C70.8748 133.8 69.9748 133.8 69.4498 133.275L61.1998 125.025L54.8248 131.4L63.0748 139.65C63.3373 139.912 63.4873 140.25 63.4873 140.625C63.4873 141 63.3373 141.337 63.0748 141.6L53.9248 150.75C53.6623 151.012 53.2873 151.162 52.9498 151.162ZM37.0873 132.525C37.4248 132.525 37.7998 132.675 38.0623 132.937L52.9498 147.825L60.1123 140.662L51.8623 132.412C51.3373 131.887 51.3373 130.987 51.8623 130.462L60.2248 122.1C60.7498 121.575 61.6498 121.575 62.1748 122.1L70.4248 130.35L77.5873 123.187L62.6998 108.3C62.1748 107.775 62.1748 106.875 62.6998 106.35L86.5873 82.4624C87.0373 82.0124 87.7498 81.9374 88.3123 82.2749C94.0123 85.9124 100.612 87.8249 107.437 87.8249C127.05 87.8249 143.025 71.8499 143.025 52.2374C143.025 32.6249 127.05 16.6499 107.437 16.6499C87.8248 16.6499 71.8498 32.6249 71.8498 52.2374C71.8498 59.0249 73.7623 65.6249 77.3998 71.3624C77.7373 71.9249 77.6623 72.6374 77.2123 73.0874L22.5748 127.687L31.9873 137.1L36.1123 132.975C36.3748 132.637 36.7123 132.525 37.0873 132.525ZM107.4 75.5249C94.5373 75.5249 84.0748 65.0624 84.0748 52.1999C84.0748 39.3374 94.5373 28.8749 107.4 28.8749C120.262 28.8749 130.725 39.3374 130.725 52.1999C130.725 65.0624 120.262 75.5249 107.4 75.5249ZM107.4 31.6499C96.0748 31.6499 86.8498 40.8749 86.8498 52.1999C86.8498 63.5249 96.0748 72.7499 107.4 72.7499C118.725 72.7499 127.95 63.5249 127.95 52.1999C127.95 40.8749 118.725 31.6499 107.4 31.6499Z" fill="#221F1F"/>
<path d="M52.5748 119.775C52.2373 119.775 51.8623 119.625 51.5998 119.362C51.0748 118.837 51.0748 117.937 51.5998 117.412L63.6373 105.375C64.1623 104.85 65.0623 104.85 65.5873 105.375C66.1123 105.9 66.1123 106.8 65.5873 107.325L53.5498 119.362C53.2873 119.662 52.9498 119.775 52.5748 119.775Z" fill="#221F1F"/>
</svg>
