<svg width="165" height="165" viewBox="0 0 165 165" fill="none" xmlns="http://www.w3.org/2000/svg">
<path d="M52.9498 154.537C51.7123 154.537 50.4748 154.012 49.5748 153.15L37.0873 140.625L35.3623 142.35C34.4623 143.25 33.2623 143.737 31.9873 143.737C30.7123 143.737 29.5123 143.25 28.6123 142.35L17.2498 131.025C16.3498 130.125 15.8623 128.925 15.8623 127.65C15.8623 126.375 16.3498 125.175 17.2498 124.275L70.3123 71.2499C67.3123 65.3624 65.7373 58.8374 65.7373 52.1999C65.7373 29.1749 84.4498 10.4624 107.475 10.4624C130.5 10.4624 149.212 29.1749 149.212 52.1999C149.212 75.2249 130.5 93.9374 107.475 93.9374C100.837 93.9374 94.3123 92.3624 88.4248 89.3624L70.4623 107.362L82.9498 119.85C83.8498 120.75 84.3373 121.95 84.3373 123.225C84.3373 124.5 83.8498 125.7 82.9498 126.6L73.8373 135.712C72.9373 136.612 71.7373 137.1 70.4623 137.1C69.1873 137.1 67.9873 136.612 67.0873 135.712L61.2373 129.862L59.6248 131.475L65.4748 137.325C66.3748 138.225 66.8623 139.425 66.8623 140.7C66.8623 141.975 66.3748 143.175 65.4748 144.075L56.3248 153.225C55.4248 154.012 54.1873 154.537 52.9498 154.537ZM107.4 35.0249C97.9123 35.0249 90.2248 42.7124 90.2248 52.1999C90.2248 61.6874 97.9123 69.3749 107.4 69.3749C116.887 69.3749 124.575 61.6874 124.575 52.1999C124.575 42.7124 116.887 35.0249 107.4 35.0249Z" fill="white"/>
<path d="M107.399 15.2249C86.9619 15.2249 70.4244 31.7999 70.4244 52.1998C70.4244 59.5123 72.5619 66.3373 76.1994 72.0373L20.5869 127.687L31.9494 139.05L37.0869 133.912L52.9494 149.775L62.0619 140.662L52.8369 131.437L61.1994 123.075L70.4244 132.3L79.5369 123.187L70.3119 114L63.6369 107.325L87.5244 83.4373C93.2619 87.1123 100.087 89.2123 107.362 89.2123C127.799 89.2123 144.337 72.6374 144.337 52.2374C144.412 31.7999 127.837 15.2249 107.399 15.2249ZM107.399 74.1374C95.2869 74.1374 85.4619 64.3123 85.4619 52.1998C85.4619 40.0874 95.2869 30.2624 107.399 30.2624C119.512 30.2624 129.337 40.0874 129.337 52.1998C129.337 64.3123 119.512 74.1374 107.399 74.1374Z" fill="#FCD26E"/>
<path d="M52.9498 151.162C52.6123 151.162 52.2373 151.012 51.9748 150.75L37.0873 135.862L32.9623 139.987C32.4373 140.512 31.5373 140.512 31.0123 139.987L19.6498 128.625C19.3873 128.362 19.2373 128.025 19.2373 127.65C19.2373 127.275 19.3873 126.937 19.6498 126.675L74.4748 71.8499C70.9498 65.9249 69.0748 59.1374 69.0748 52.1999C69.0748 31.0499 86.2873 13.8374 107.437 13.8374C128.587 13.8374 145.8 31.0499 145.8 52.1999C145.8 73.3499 128.587 90.5624 107.437 90.5624C100.5 90.5624 93.7123 88.6874 87.7873 85.1624L65.6248 107.325L80.5123 122.212C80.7748 122.475 80.9248 122.812 80.9248 123.187C80.9248 123.562 80.7748 123.9 80.5123 124.162L71.3998 133.275C70.8748 133.8 69.9748 133.8 69.4498 133.275L61.1998 125.025L54.8248 131.4L63.0748 139.65C63.3373 139.912 63.4873 140.25 63.4873 140.625C63.4873 141 63.3373 141.337 63.0748 141.6L53.9248 150.75C53.6623 151.012 53.2873 151.162 52.9498 151.162ZM37.0873 132.525C37.4248 132.525 37.7998 132.675 38.0623 132.937L52.9498 147.825L60.1123 140.662L51.8623 132.412C51.3373 131.887 51.3373 130.987 51.8623 130.462L60.2248 122.1C60.7498 121.575 61.6498 121.575 62.1748 122.1L70.4248 130.35L77.5873 123.187L62.6998 108.3C62.1748 107.775 62.1748 106.875 62.6998 106.35L86.5873 82.4624C87.0373 82.0124 87.7498 81.9374 88.3123 82.2749C94.0123 85.9124 100.612 87.8249 107.437 87.8249C127.05 87.8249 143.025 71.8499 143.025 52.2374C143.025 32.6249 127.05 16.6499 107.437 16.6499C87.8248 16.6499 71.8498 32.6249 71.8498 52.2374C71.8498 59.0249 73.7623 65.6249 77.3998 71.3624C77.7373 71.9249 77.6623 72.6374 77.2123 73.0874L22.5748 127.687L31.9873 137.1L36.1123 132.975C36.3748 132.637 36.7123 132.525 37.0873 132.525ZM107.4 75.5249C94.5373 75.5249 84.0748 65.0624 84.0748 52.1999C84.0748 39.3374 94.5373 28.8749 107.4 28.8749C120.262 28.8749 130.725 39.3374 130.725 52.1999C130.725 65.0624 120.262 75.5249 107.4 75.5249ZM107.4 31.6499C96.0748 31.6499 86.8498 40.8749 86.8498 52.1999C86.8498 63.5249 96.0748 72.7499 107.4 72.7499C118.725 72.7499 127.95 63.5249 127.95 52.1999C127.95 40.8749 118.725 31.6499 107.4 31.6499Z" fill="#221F1F"/>
<path d="M52.5748 119.775C52.2373 119.775 51.8623 119.625 51.5998 119.362C51.0748 118.837 51.0748 117.937 51.5998 117.412L63.6373 105.375C64.1623 104.85 65.0623 104.85 65.5873 105.375C66.1123 105.9 66.1123 106.8 65.5873 107.325L53.5498 119.362C53.2873 119.662 52.9498 119.775 52.5748 119.775Z" fill="#221F1F"/>
<path d="M53.5875 119.362C53.325 119.625 52.95 119.775 52.6125 119.775C52.275 119.775 51.9 119.625 51.6375 119.362C51.1125 118.837 51.1125 117.975 51.6 117.45L36.1875 132.862C36.45 132.637 36.7875 132.487 37.125 132.487C37.4625 132.487 37.8375 132.637 38.1 132.9L52.9875 147.787L60.15 140.625L51.9 132.375C51.375 131.85 51.375 130.95 51.9 130.425L60.2625 122.062C60.7875 121.537 61.6875 121.537 62.2125 122.062L70.4625 130.312L77.625 123.15L63.7125 109.237L53.5875 119.362Z" fill="#E0B344"/>
<path d="M77.5869 71.8499C77.6619 72.2624 77.5119 72.7124 77.2119 73.0499L70.8369 79.4249L80.2494 88.8373L86.6244 82.4623C86.9619 82.1248 87.4869 81.9748 87.9369 82.0873C83.8119 79.4248 80.2869 75.9374 77.5869 71.8499Z" fill="#E0B344"/>
</svg>
