<svg width="165" height="165" viewBox="0 0 165 165" fill="none" xmlns="http://www.w3.org/2000/svg">
<path d="M82.5003 155.25C70.8753 155.25 61.7628 151.425 58.8753 145.575C56.2503 144.3 54.4878 141.6 54.4878 138.562V110.438C54.4878 105.825 52.5378 101.512 49.2003 98.55C38.4378 89.175 32.1378 75.6 31.8753 61.3125C31.6503 47.775 36.7503 34.9125 46.2753 25.0875C55.8378 15.2625 68.5878 9.825 82.1253 9.75H82.5003C95.9628 9.75 108.6 14.9625 118.163 24.45C127.8 34.0125 133.125 46.7625 133.125 60.375C133.125 74.8875 126.9 88.725 116.025 98.325C112.538 101.4 110.513 105.788 110.513 110.325V138.525C110.513 141.6 108.75 144.3 106.125 145.575C103.238 151.425 94.1253 155.25 82.5003 155.25Z" fill="white"/>
<path d="M82.5002 150.487C93.4354 150.487 102.3 146.508 102.3 141.6C102.3 136.691 93.4354 132.712 82.5002 132.712C71.565 132.712 62.7002 136.691 62.7002 141.6C62.7002 146.508 71.565 150.487 82.5002 150.487Z" fill="#9E9E9E"/>
<path d="M82.5 151.875C70.6125 151.875 61.3125 147.375 61.3125 141.6C61.3125 135.825 70.6125 131.325 82.5 131.325C94.3875 131.325 103.688 135.825 103.688 141.6C103.688 147.375 94.3875 151.875 82.5 151.875ZM82.5 134.1C77.4 134.1 72.6375 135 69.075 136.575C65.925 138 64.0875 139.837 64.0875 141.6C64.0875 145.162 71.6625 149.1 82.5 149.1C87.6 149.1 92.3625 148.2 95.925 146.625C99.075 145.2 100.913 143.362 100.913 141.6C100.913 138.037 93.3375 134.1 82.5 134.1Z" fill="#221F1F"/>
<path d="M128.4 60.375C128.4 34.9125 107.662 14.325 82.1996 14.5125C56.7371 14.7 36.1871 35.8125 36.6371 61.2C36.8621 74.6625 42.8996 86.7 52.3496 94.9125C56.8121 98.8125 59.2496 104.475 59.2496 110.4V138.525C59.2496 140.212 60.5996 141.562 62.2871 141.562H102.712C104.4 141.562 105.75 140.212 105.75 138.525V110.325C105.75 104.363 108.375 98.7 112.875 94.7625C122.4 86.3625 128.4 74.0625 128.4 60.375Z" fill="white"/>
<path d="M102.712 142.987H62.2873C59.8498 142.987 57.8623 141 57.8623 138.562V110.437C57.8623 104.85 55.4998 99.6 51.4123 96C41.3623 87.225 35.4748 74.55 35.2498 61.2375C35.0248 48.5625 39.8248 36.5625 48.7123 27.4125C57.5998 18.3 69.4873 13.2 82.1623 13.125C82.2748 13.125 82.3873 13.125 82.4998 13.125C95.0623 13.125 106.875 18 115.8 26.85C124.8 35.775 129.75 47.7 129.75 60.375C129.75 73.9125 123.937 86.8125 113.775 95.8125C109.537 99.5625 107.137 104.85 107.137 110.325V138.525C107.137 141 105.15 142.987 102.712 142.987ZM82.4998 15.9C82.3873 15.9 82.2748 15.9 82.1623 15.9C70.2373 15.975 59.0623 20.775 50.6998 29.3625C42.2998 37.95 37.7998 49.275 38.0248 61.2C38.2498 73.725 43.7998 85.65 53.2498 93.9C57.9373 97.9875 60.6373 104.025 60.6373 110.4V138.525C60.6373 139.425 61.3873 140.175 62.2873 140.175H102.712C103.612 140.175 104.362 139.425 104.362 138.525V110.325C104.362 104.025 107.137 97.9875 111.937 93.7125C121.5 85.275 126.975 73.125 126.975 60.375C126.975 48.4125 122.325 37.2 113.812 28.8C105.45 20.475 94.3123 15.9 82.4998 15.9Z" fill="#221F1F"/>
<path d="M103.462 104.4C71.8121 104.4 46.1996 78.75 46.1996 47.1375C46.1996 41.9625 46.8746 36.9375 48.1871 32.175C41.3996 40.35 37.8371 50.55 38.0246 61.2C38.2496 73.725 43.7996 85.65 53.2496 93.9C57.9371 98.025 60.6371 104.025 60.6371 110.4V138.525C60.6371 139.425 61.3871 140.175 62.2871 140.175H102.712C103.612 140.175 104.362 139.425 104.362 138.525V110.325C104.362 108.3 104.662 106.275 105.225 104.363C104.625 104.4 104.062 104.4 103.462 104.4Z" fill="#A2D6FF"/>
<path d="M60.6377 117.038V138.525C60.6377 139.425 61.3877 140.175 62.2877 140.175H102.713C103.613 140.175 104.363 139.425 104.363 138.525V117.038H60.6377Z" fill="#C4C4C4"/>
<path d="M105.75 134.587H59.2498C58.4998 134.587 57.8623 133.95 57.8623 133.2C57.8623 132.45 58.4998 131.812 59.2498 131.812H105.75C106.5 131.812 107.137 132.45 107.137 133.2C107.137 133.95 106.537 134.587 105.75 134.587Z" fill="#221F1F"/>
<path d="M105.75 126.6H59.2498C58.4998 126.6 57.8623 125.962 57.8623 125.212C57.8623 124.462 58.4998 123.825 59.2498 123.825H105.75C106.5 123.825 107.137 124.462 107.137 125.212C107.137 125.962 106.537 126.6 105.75 126.6Z" fill="#221F1F"/>
<path d="M105.75 118.575H59.2498C58.4998 118.575 57.8623 117.938 57.8623 117.188C57.8623 116.438 58.4998 115.8 59.2498 115.8H105.75C106.5 115.8 107.137 116.438 107.137 117.188C107.137 117.938 106.537 118.575 105.75 118.575Z" fill="#221F1F"/>
<path d="M82.4997 118.575C81.8997 118.575 81.3747 118.2 81.1872 117.6L69.1497 80.55C68.9997 80.1375 69.0747 79.65 69.3372 79.3125C69.5997 78.975 70.0122 78.75 70.4622 78.75H94.5372C94.9872 78.75 95.3997 78.975 95.6622 79.3125C95.9247 79.65 95.9997 80.1375 95.8497 80.55L83.8122 117.6C83.6247 118.2 83.0997 118.575 82.4997 118.575ZM72.3747 81.5625L82.4997 112.725L92.6247 81.5625H72.3747Z" fill="#221F1F"/>
</svg>
