<svg width="165" height="165" viewBox="0 0 165 165" fill="none" xmlns="http://www.w3.org/2000/svg">
<path d="M14.175 58.6128C13.6125 58.6128 13.0875 58.6503 12.5625 58.6503C12.225 61.5003 12 64.4253 12 67.3878C12 106.35 43.575 137.925 82.5375 137.925C83.1 137.925 83.625 137.888 84.15 137.888C84.4875 135.038 84.7125 132.113 84.7125 129.15C84.675 90.1878 53.1 58.6128 14.175 58.6128Z" fill="white"/>
<path d="M82.5002 139.313C42.8627 139.313 10.5752 107.063 10.5752 67.3876C10.5752 64.5376 10.7627 61.5376 11.1377 58.4626C11.2127 57.7876 11.8127 57.2626 12.4877 57.2626C12.6752 57.2626 12.8627 57.2626 13.0502 57.2626C13.4252 57.2626 13.7627 57.2251 14.1377 57.2251C53.7752 57.2251 86.0627 89.4751 86.0627 129.15C86.0627 132 85.8752 135 85.5002 138.075C85.4252 138.75 84.8252 139.275 84.1502 139.275C83.9627 139.275 83.7752 139.275 83.5877 139.275C83.2127 139.275 82.8752 139.313 82.5002 139.313ZM13.7627 60.0001C13.5002 62.5501 13.3502 64.9876 13.3502 67.3876C13.3502 105.525 44.3627 136.538 82.5002 136.538C82.6127 136.538 82.7627 136.538 82.8752 136.538C83.1377 133.988 83.2877 131.55 83.2877 129.15C83.2877 91.0126 52.2752 60.0001 14.1377 60.0001C14.0252 60.0001 13.9127 60.0001 13.7627 60.0001Z" fill="#221F1F"/>
<path d="M150.825 58.6123C151.387 58.6123 151.912 58.6498 152.437 58.6498C152.775 61.4998 153 64.4248 153 67.3873C153 106.35 121.425 137.925 82.4621 137.925C81.8996 137.925 81.3746 137.887 80.8496 137.887C80.5121 135.037 80.2871 132.112 80.2871 129.15C80.3246 90.1873 111.9 58.6123 150.825 58.6123Z" fill="white"/>
<path d="M82.5 139.313C82.125 139.313 81.7875 139.313 81.4125 139.275C81.225 139.275 81.0375 139.275 80.85 139.275C80.175 139.275 79.575 138.75 79.5 138.075C79.125 134.963 78.9375 132.075 78.9375 129.15C78.9375 89.5126 111.187 57.2251 150.862 57.2251C151.237 57.2251 151.575 57.2251 151.95 57.2626C152.138 57.2626 152.325 57.2626 152.513 57.2626C153.188 57.2626 153.787 57.7876 153.862 58.4626C154.237 61.5001 154.425 64.5001 154.425 67.3876C154.425 107.025 122.137 139.313 82.5 139.313ZM82.125 136.5C82.2375 136.5 82.3875 136.5 82.5 136.5C120.637 136.5 151.65 105.488 151.65 67.3501C151.65 64.9501 151.5 62.5126 151.237 59.9626C151.125 59.9626 150.975 59.9626 150.862 59.9626C112.725 59.9626 81.7125 90.9751 81.7125 129.113C81.7125 131.55 81.825 133.988 82.125 136.5Z" fill="#221F1F"/>
<path d="M55.5752 82.5002C55.5752 105 66.1127 124.988 82.5002 137.925C98.8877 125.025 109.425 105 109.425 82.5002C109.425 60.0002 98.8877 40.0127 82.5002 27.0752C66.1127 40.0127 55.5752 60.0002 55.5752 82.5002Z" fill="white"/>
<path d="M82.5 139.313C82.2 139.313 81.9 139.2 81.6375 139.013C64.2 125.25 54.1875 104.663 54.1875 82.5001C54.1875 60.3376 64.2 39.7501 81.6375 25.9876C82.125 25.5751 82.8375 25.5751 83.3625 25.9876C100.8 39.7501 110.812 60.3376 110.812 82.5001C110.812 104.663 100.8 125.25 83.3625 139.013C83.1 139.2 82.8 139.313 82.5 139.313ZM82.5 28.8751C66.2625 42.0751 56.9625 61.5751 56.9625 82.5001C56.9625 103.425 66.2625 122.925 82.5 136.125C98.7375 122.925 108.038 103.425 108.038 82.5001C108.038 61.5751 98.7375 42.0751 82.5 28.8751Z" fill="#221F1F"/>
</svg>
