<svg width="165" height="165" viewBox="0 0 165 165" fill="none" xmlns="http://www.w3.org/2000/svg">
<path d="M82.5 157.05C81.5625 157.05 80.775 156.75 80.2875 156.525C80.175 156.487 80.1 156.412 80.025 156.375H79.9875C78 155.175 71.1 150.675 65.4 143.7C63.975 141.938 62.7 140.137 61.65 138.337C56.5125 139.387 52.6125 139.387 52.425 139.387C50.7 139.387 49.05 138.412 48.2625 136.912C47.9625 136.387 46.1625 133.125 44.625 128.512C42.6 128.512 40.3875 128.325 38.0625 127.95C28.3875 126.412 20.55 122.1 19.65 121.575C18.15 120.712 17.25 119.175 17.25 117.45C17.25 117.075 17.2875 107.85 20.925 98.325C21.75 96.1875 22.6875 94.1625 23.775 92.325C20.2875 88.3875 18.3 84.975 18.2625 84.9375C17.4 83.4375 17.4 81.5625 18.3 80.1C18.6375 79.5375 20.5875 76.3875 23.775 72.7875C22.725 70.95 21.7875 68.9625 20.9625 66.825C17.325 57.3 17.2875 48.075 17.2875 47.7C17.2875 45.9375 18.3 44.2875 19.8375 43.5C21.3 42.6 28.875 38.625 38.1 37.125C40.3125 36.75 42.525 36.5625 44.625 36.5625C46.275 31.65 48.225 28.2375 48.3 28.05C49.1625 26.55 50.7375 25.65 52.425 25.65C52.6125 25.65 56.475 25.65 61.6125 26.7C62.6625 24.8625 63.9375 23.0625 65.3625 21.3C71.0625 14.2875 78 9.825 79.9875 8.625C79.9875 8.625 80.0625 8.5875 80.1 8.55C80.85 8.1375 81.675 7.875 82.5 7.875C83.3625 7.875 84.225 8.1375 84.975 8.5875H85.0125C87 9.7875 93.9 14.2875 99.6 21.2625C101.025 23.025 102.3 24.825 103.35 26.6625C108.488 25.6125 112.35 25.6125 112.538 25.6125C114.263 25.6125 115.913 26.5875 116.7 28.0875C117.038 28.6875 118.8 31.9125 120.337 36.4875C122.438 36.4875 124.65 36.675 126.9 37.05C136.537 38.5875 144.375 42.9 145.312 43.425C146.775 44.2875 147.712 45.8625 147.712 47.55C147.712 47.925 147.675 57.15 144.038 66.675C143.213 68.8125 142.275 70.8375 141.225 72.675C144.713 76.65 146.7 80.0625 146.737 80.1C147.6 81.6 147.6 83.475 146.7 84.9375C146.363 85.5 144.413 88.65 141.263 92.25C142.313 94.0875 143.287 96.1125 144.112 98.25C147.75 107.775 147.788 117 147.788 117.375C147.788 119.137 146.775 120.787 145.237 121.575C143.775 122.4 136.2 126.375 127.013 127.875C124.688 128.287 122.513 128.475 120.413 128.475C118.763 133.387 116.85 136.762 116.737 136.95C115.875 138.45 114.3 139.35 112.612 139.35C112.425 139.35 108.525 139.35 103.388 138.3C102.338 140.1 101.1 141.9 99.675 143.662C93.975 150.675 87.0375 155.137 85.05 156.337C84.3 156.787 83.4375 157.05 82.5 157.05Z" fill="white"/>
<path d="M82.5 82.4999L99.5625 52.9499C112.612 30.3374 82.5 12.7124 82.5 12.7124C82.5 12.7124 52.3875 30.3374 65.4375 52.9499L82.5 82.4999Z" fill="#9CDB9C"/>
<path d="M82.5002 83.8875C82.0127 83.8875 81.5627 83.625 81.3002 83.175L64.2377 53.625C58.5752 43.8375 59.8877 33.4125 67.9877 23.4375C73.9877 16.0875 81.4877 11.6625 81.7877 11.475C82.2377 11.2125 82.7627 11.2125 83.1752 11.475C83.4752 11.6625 90.9752 16.0875 96.9752 23.4375C105.075 33.375 106.388 43.8375 100.725 53.625L83.6627 83.175C83.4377 83.625 82.9877 83.8875 82.5002 83.8875ZM82.5002 14.325C80.5127 15.6 74.7377 19.5375 70.0877 25.275C62.7002 34.35 61.5377 43.425 66.6002 52.2375L82.4627 79.725L98.3252 52.2375C103.425 43.425 102.225 34.35 94.8377 25.275C90.2627 19.5375 84.4877 15.6 82.5002 14.325Z" fill="#221F1F"/>
<path d="M82.5 82.5L65.4375 112.05C52.3875 134.662 82.5 152.287 82.5 152.287C82.5 152.287 112.612 134.662 99.5625 112.05L82.5 82.5Z" fill="#9CDB9C"/>
<path d="M82.5002 153.675C82.2752 153.675 82.0127 153.6 81.7877 153.487C81.4877 153.3 73.9877 148.875 67.9877 141.525C59.8877 131.587 58.5752 121.125 64.2377 111.337L81.3002 81.7875C81.5627 81.375 82.0127 81.075 82.5002 81.075C82.9877 81.075 83.4377 81.3375 83.7002 81.7875L100.763 111.337C106.425 121.125 105.113 131.55 97.0127 141.525C91.0127 148.875 83.5127 153.3 83.2127 153.487C82.9877 153.637 82.7252 153.675 82.5002 153.675ZM82.5002 85.275L66.6377 112.762C61.5377 121.575 62.7377 130.65 70.1252 139.725C74.7752 145.425 80.5502 149.4 82.5377 150.675C84.5252 149.4 90.3002 145.462 94.9502 139.725C102.338 130.65 103.5 121.575 98.4377 112.762L82.5002 85.275Z" fill="#221F1F"/>
<path d="M82.4998 82.5H48.3748C22.2748 82.5 22.0498 117.413 22.0498 117.413C22.0498 117.413 52.3873 134.7 65.4373 112.087L82.4998 82.5Z" fill="#9CDB9C"/>
<path d="M44.7375 125.1C42.7875 125.1 40.725 124.912 38.5875 124.575C29.25 123.075 21.6375 118.8 21.3375 118.612C20.8875 118.35 20.625 117.9 20.625 117.412C20.625 117.037 20.7 108.337 24.075 99.4874C28.65 87.4874 37.0125 81.1499 48.3375 81.1499H82.4625C82.95 81.1499 83.4 81.4124 83.6625 81.8624C83.925 82.2749 83.925 82.8374 83.6625 83.2499L66.6 112.8C61.95 120.9 54.45 125.1 44.7375 125.1ZM23.475 116.587C25.575 117.675 31.875 120.675 39.15 121.837C50.7 123.675 59.175 120.15 64.2375 111.337L80.1 83.8499H48.375C38.2125 83.8499 30.9375 89.3999 26.7375 100.35C24.1125 107.25 23.5875 114.225 23.475 116.587Z" fill="#221F1F"/>
<path d="M82.5 82.4999H116.625C142.725 82.4999 142.95 47.5874 142.95 47.5874C142.95 47.5874 112.612 30.2999 99.5625 52.9124L82.5 82.4999Z" fill="#9CDB9C"/>
<path d="M116.625 83.8875H82.5004C82.0129 83.8875 81.5629 83.625 81.3004 83.175C81.0379 82.7625 81.0379 82.2 81.3004 81.7875L98.3629 52.2375C104.025 42.45 113.7 38.3625 126.375 40.425C135.713 41.925 143.325 46.2 143.625 46.3875C144.075 46.65 144.338 47.1 144.338 47.5875C144.338 47.9625 144.263 56.6625 140.888 65.5125C136.313 77.55 127.95 83.8875 116.625 83.8875ZM84.9004 81.1125H116.625C126.788 81.1125 134.063 75.5625 138.263 64.6125C140.888 57.75 141.413 50.7375 141.525 48.4125C139.425 47.325 133.125 44.325 125.85 43.1625C114.3 41.325 105.825 44.85 100.763 53.6625L84.9004 81.1125Z" fill="#221F1F"/>
<path d="M82.5 82.5L99.5625 112.05C112.612 134.662 142.95 117.375 142.95 117.375C142.95 117.375 142.762 82.5 116.625 82.5H82.5Z" fill="#9CDB9C"/>
<path d="M120.263 125.1C110.588 125.1 103.088 120.9 98.4 112.763L81.3375 83.2125C81.075 82.8 81.075 82.2375 81.3375 81.825C81.6 81.4125 82.05 81.1125 82.5375 81.1125H116.663C127.95 81.1125 136.35 87.4501 140.925 99.4501C144.3 108.3 144.375 117.038 144.375 117.375C144.375 117.863 144.113 118.35 143.663 118.575C143.363 118.763 135.75 123.038 126.413 124.538C124.238 124.913 122.213 125.1 120.263 125.1ZM84.9 83.8875L100.763 111.375C105.863 120.188 114.3 123.713 125.85 121.875C133.125 120.713 139.425 117.675 141.525 116.625C141.412 114.263 140.888 107.288 138.263 100.425C134.1 89.475 126.825 83.925 116.625 83.925L84.9 83.8875Z" fill="#221F1F"/>
<path d="M82.4998 82.5L65.4373 52.95C52.3873 30.3375 22.0498 47.625 22.0498 47.625C22.0498 47.625 22.2373 82.5 48.3748 82.5H82.4998Z" fill="#9CDB9C"/>
<path d="M82.4996 83.8876H48.3746C37.0871 83.8876 28.6871 77.5501 24.1121 65.5501C20.7371 56.7001 20.6621 47.9626 20.6621 47.6251C20.6621 47.1376 20.9246 46.6501 21.3746 46.4251C21.6746 46.2376 29.2871 41.9626 38.6246 40.4626C51.2996 38.4001 60.9746 42.4876 66.6371 52.2751L83.6996 81.8251C83.9621 82.2376 83.9621 82.8001 83.6996 83.2126C83.4371 83.6251 82.9871 83.8876 82.4996 83.8876ZM23.4746 48.4126C23.5871 50.7751 24.1121 57.7501 26.7371 64.6126C30.8996 75.5626 38.1746 81.1126 48.3746 81.1126H80.0996L64.2371 53.6251C59.1371 44.8126 50.6996 41.2876 39.1496 43.1251C31.8746 44.3251 25.5371 47.3251 23.4746 48.4126Z" fill="#221F1F"/>
<path d="M82.4998 82.5001L96.8623 57.6376C107.85 38.6251 82.4998 23.7751 82.4998 23.7751C82.4998 23.7751 57.1498 38.5876 68.1373 57.6376L82.4998 82.5001Z" fill="#9891F5"/>
<path d="M82.4997 83.8875C82.0122 83.8875 81.5622 83.625 81.2997 83.175L66.9372 58.3125C62.1372 49.9875 63.2247 41.1375 70.1247 32.7C75.1872 26.475 81.5247 22.725 81.7872 22.575C82.2372 22.3125 82.7622 22.3125 83.1747 22.575C83.4372 22.725 89.7747 26.475 94.8372 32.7C101.737 41.1375 102.825 50.025 98.0247 58.3125L83.6622 83.175C83.4372 83.625 82.9872 83.8875 82.4997 83.8875ZM82.4997 25.425C80.7372 26.55 76.0497 29.85 72.2247 34.5C66.0747 42.0751 65.0997 49.6125 69.3372 56.925L82.4997 79.7251L95.6622 56.925C99.8997 49.6125 98.9247 42.0751 92.7747 34.5C88.9497 29.8125 84.2622 26.55 82.4997 25.425Z" fill="#221F1F"/>
<path d="M82.4998 82.5L68.1373 107.362C57.1498 126.375 82.4998 141.225 82.4998 141.225C82.4998 141.225 107.85 126.412 96.8623 107.362L82.4998 82.5Z" fill="#9891F5"/>
<path d="M82.4997 142.613C82.2747 142.613 82.0122 142.538 81.7872 142.425C81.5247 142.275 75.1872 138.525 70.1247 132.3C63.2247 123.863 62.1372 114.975 66.9372 106.688L81.2997 81.825C81.5622 81.4125 82.0122 81.1125 82.4997 81.1125C82.9872 81.1125 83.4372 81.375 83.6997 81.825L98.0622 106.688C102.862 115.013 101.775 123.863 94.8747 132.3C89.8122 138.525 83.4747 142.275 83.2122 142.425C82.9872 142.538 82.7247 142.613 82.4997 142.613ZM82.4997 85.275L69.3372 108.075C65.0997 115.388 66.0747 122.925 72.2247 130.5C76.0122 135.188 80.7372 138.45 82.4997 139.575C84.2622 138.45 88.9497 135.15 92.7747 130.5C98.9247 122.925 99.8997 115.388 95.6622 108.075L82.4997 85.275Z" fill="#221F1F"/>
<path d="M82.5004 82.5H53.7754C31.8004 82.5 31.6504 111.862 31.6504 111.862C31.6504 111.862 57.1504 126.375 68.1379 107.362L82.5004 82.5Z" fill="#9891F5"/>
<path d="M50.7752 118.538C49.1252 118.538 47.3627 118.388 45.5627 118.088C37.6502 116.813 31.2377 113.175 30.9752 113.025C30.5252 112.763 30.2627 112.313 30.2627 111.825C30.2627 111.525 30.3377 104.138 33.1877 96.675C37.0502 86.475 44.1752 81.1125 53.7752 81.1125H82.5002C82.9877 81.1125 83.4377 81.375 83.7002 81.825C83.9627 82.2375 83.9627 82.8 83.7002 83.2125L69.3377 108.075C65.3627 114.975 58.9877 118.538 50.7752 118.538ZM33.0752 111.038C34.9502 111.975 40.1252 114.45 46.0877 115.388C55.7252 116.925 62.7377 114 66.9752 106.688L80.1377 83.8875H53.8127C45.3377 83.8875 39.3002 88.5375 35.8127 97.6875C33.6377 103.313 33.1877 108.975 33.0752 111.038Z" fill="#221F1F"/>
<path d="M82.5 82.5H111.225C133.2 82.5 133.35 53.1375 133.35 53.1375C133.35 53.1375 107.85 38.625 96.8625 57.6375L82.5 82.5Z" fill="#9891F5"/>
<path d="M111.225 83.8874H82.5004C82.0129 83.8874 81.5629 83.6249 81.3004 83.1749C81.0379 82.7624 81.0379 82.1999 81.3004 81.7874L95.6629 56.9249C100.463 48.5999 108.675 45.1124 119.438 46.8749C127.35 48.1499 133.763 51.7874 134.025 51.9374C134.475 52.1999 134.738 52.6499 134.738 53.1374C134.738 53.4374 134.663 60.8249 131.813 68.2874C127.95 78.4874 120.825 83.8874 111.225 83.8874ZM84.9004 81.1124H111.225C119.663 81.1124 125.738 76.4999 129.225 67.3874C131.363 61.7624 131.85 56.0624 131.963 53.9624C130.088 53.0249 124.913 50.5499 118.95 49.6124C109.313 48.0749 102.3 50.9999 98.0629 58.3124L84.9004 81.1124Z" fill="#221F1F"/>
<path d="M82.5 82.5L96.8625 107.362C107.85 126.375 133.35 111.862 133.35 111.862C133.35 111.862 133.163 82.5 111.225 82.5H82.5Z" fill="#9891F5"/>
<path d="M114.225 118.537C106.012 118.537 99.6373 114.975 95.6248 108.037L81.2623 83.175C80.9998 82.7625 80.9998 82.2 81.2623 81.7875C81.5248 81.375 81.9748 81.075 82.4623 81.075H111.187C120.787 81.075 127.912 86.475 131.775 96.6375C134.625 104.137 134.7 111.487 134.7 111.787C134.7 112.275 134.437 112.762 133.987 112.987C133.725 113.137 127.312 116.775 119.4 118.05C117.637 118.425 115.912 118.537 114.225 118.537ZM84.8998 83.8875L98.0623 106.687C102.3 114.037 109.35 116.962 118.987 115.387C124.912 114.412 130.087 112.012 131.925 111.037C131.812 108.937 131.325 103.237 129.187 97.6124C125.7 88.4999 119.662 83.8875 111.187 83.8875H84.8998Z" fill="#221F1F"/>
<path d="M82.5004 82.4998L68.1379 57.6373C57.1504 38.6248 31.6504 53.1373 31.6504 53.1373C31.6504 53.1373 31.8379 82.4998 53.7754 82.4998H82.5004Z" fill="#9891F5"/>
<path d="M82.5002 83.8874H53.7752C44.1752 83.8874 37.0502 78.4874 33.1877 68.3249C30.3377 60.8249 30.2627 53.4749 30.2627 53.1749C30.2627 52.6874 30.5252 52.1999 30.9752 51.9749C31.2377 51.8249 37.6502 48.1874 45.5627 46.9124C56.3252 45.1874 64.5377 48.6374 69.3377 56.9624L83.7002 81.8249C83.9627 82.2374 83.9627 82.7999 83.7002 83.2124C83.4377 83.6249 82.9877 83.8874 82.5002 83.8874ZM33.0752 53.9624C33.1877 56.0624 33.6752 61.7624 35.8127 67.3874C39.3002 76.4999 45.3377 81.1124 53.8127 81.1124H80.1377L66.9752 58.3124C62.7377 50.9624 55.6877 48.0374 46.0502 49.6124C40.0502 50.5874 34.9127 53.0249 33.0752 53.9624Z" fill="#221F1F"/>
<path d="M82.5002 82.4999V53.0999C82.5002 30.5999 52.4252 30.4124 52.4252 30.4124C52.4252 30.4124 37.5377 56.5499 57.0377 67.7999L82.5002 82.4999Z" fill="#FFCCBD"/>
<path d="M82.4998 83.8874C82.2748 83.8874 82.0123 83.8124 81.7873 83.6999L56.3248 68.9999C47.8123 64.0874 44.2498 55.6874 46.0498 44.6624C47.3623 36.5624 51.0748 29.9999 51.2248 29.7374C51.4873 29.2874 51.9373 29.0249 52.4248 29.0249C52.7248 29.0249 60.2623 29.0999 67.9498 32.0249C78.3748 35.9999 83.8873 43.2749 83.8873 53.0999V82.4999C83.8873 82.9874 83.6248 83.4374 83.1748 83.6999C82.9873 83.8124 82.7248 83.8874 82.4998 83.8874ZM53.2498 31.8374C52.2748 33.7124 49.7623 39.0749 48.7873 45.1874C47.2123 55.0499 50.2123 62.2499 57.7123 66.5999L81.1123 80.0999V53.0999C81.1123 44.4374 76.3873 38.2124 67.0498 34.6499C61.2373 32.4374 55.3873 31.9499 53.2498 31.8374Z" fill="#221F1F"/>
<path d="M60.7878 61.3124C57.5253 59.4374 53.3628 55.8374 54.7878 46.4249C55.2378 43.3874 56.1753 40.5749 57.0378 38.3999C59.3628 38.7374 62.2878 39.3749 65.1003 40.4999C73.9878 43.9874 75.0003 49.3874 75.0003 53.1374V69.5624L60.7878 61.3124Z" fill="#D88C7D"/>
<path d="M82.5 82.5V111.9C82.5 134.4 112.575 134.587 112.575 134.587C112.575 134.587 127.463 108.45 107.962 97.2L82.5 82.5Z" fill="#FFCCBD"/>
<path d="M112.575 135.975C112.237 135.975 104.7 135.9 97.0498 132.975C86.6248 129 81.1123 121.725 81.1123 111.9V82.4999C81.1123 82.0124 81.3748 81.5624 81.8248 81.2999C82.2373 81.0374 82.7998 81.0374 83.2123 81.2999L108.675 95.9999C117.187 100.912 120.75 109.312 118.95 120.337C117.637 128.437 113.925 135 113.775 135.262C113.512 135.712 113.062 135.975 112.575 135.975ZM83.8873 84.8999V111.9C83.8873 120.6 88.6498 126.825 98.0248 130.387C103.8 132.6 109.65 133.05 111.75 133.162C112.725 131.287 115.237 125.925 116.212 119.812C117.787 109.95 114.787 102.75 107.287 98.3999L83.8873 84.8999Z" fill="#221F1F"/>
<path d="M108 126.637C105.675 126.3 102.75 125.662 99.9371 124.537C91.0496 121.05 90.0371 115.65 90.0371 111.9V95.4749L104.25 103.687C107.512 105.562 111.675 109.162 110.25 118.575C109.762 121.612 108.825 124.462 108 126.637Z" fill="#D88C7D"/>
<path d="M82.4995 82.5L57.037 97.2C37.5745 108.45 52.4245 134.587 52.4245 134.587C52.4245 134.587 82.4995 134.4 82.4995 111.9V82.5Z" fill="#FFCCBD"/>
<path d="M52.4248 135.975C51.9373 135.975 51.4498 135.712 51.2248 135.262C51.0748 135 47.3623 128.437 46.0498 120.337C44.2498 109.35 47.8123 100.912 56.3248 95.9999L81.7873 81.2999C82.1998 81.0374 82.7623 81.0374 83.1748 81.2999C83.5873 81.5624 83.8873 82.0124 83.8873 82.4999V111.9C83.8873 121.725 78.3748 129 67.9498 132.975C60.2998 135.9 52.7623 135.975 52.4248 135.975ZM81.1123 84.8999L57.7123 98.3999C50.2123 102.75 47.2123 109.95 48.7873 119.812C49.7623 125.925 52.2748 131.25 53.2498 133.162C55.3873 133.05 61.2373 132.562 67.0498 130.35C76.3873 126.787 81.1123 120.562 81.1123 111.9V84.8999Z" fill="#221F1F"/>
<path d="M56.9997 126.637C56.1372 124.462 55.2372 121.612 54.7497 118.612C53.3247 109.2 57.4872 105.6 60.7497 103.725L74.9622 95.5125V111.937C74.9622 115.687 73.9497 121.087 65.0622 124.575C62.2497 125.662 59.3247 126.3 56.9997 126.637Z" fill="#D88C7D"/>
<path d="M82.5 82.4999L107.962 67.7999C127.425 56.5499 112.575 30.4124 112.575 30.4124C112.575 30.4124 82.5 30.5999 82.5 53.0999V82.4999Z" fill="#FFCCBD"/>
<path d="M82.5002 83.8874C82.2752 83.8874 82.0127 83.8124 81.7877 83.6999C81.3752 83.4374 81.0752 82.9874 81.0752 82.4999V53.0999C81.0752 43.2749 86.5877 35.9999 97.0127 32.0249C104.663 29.0999 112.2 29.0249 112.538 29.0249C113.025 29.0249 113.513 29.2874 113.738 29.7374C113.888 29.9999 117.6 36.5624 118.913 44.6624C120.713 55.6499 117.15 64.0874 108.638 68.9999L83.1752 83.6999C82.9877 83.8124 82.7252 83.8874 82.5002 83.8874ZM111.75 31.8374C109.613 31.9499 103.763 32.4374 97.9502 34.6499C88.6127 38.2124 83.8877 44.4374 83.8877 53.0999V80.0999L107.288 66.5999C114.788 62.2499 117.788 55.0499 116.213 45.1874C115.238 39.0749 112.725 33.7124 111.75 31.8374Z" fill="#221F1F"/>
<path d="M90 53.1C90 49.35 91.0125 43.95 99.9 40.4625C102.75 39.3375 105.675 38.7375 107.962 38.3625C108.825 40.5375 109.725 43.3875 110.212 46.3875C111.637 55.8 107.475 59.4 104.212 61.275L90 69.525V53.1Z" fill="#D88C7D"/>
<path d="M82.4992 82.5001L57.0367 97.2001C37.5742 108.45 22.3867 82.5001 22.3867 82.5001C22.3867 82.5001 37.5742 56.5501 57.0367 67.8001L82.4992 82.5001Z" fill="#FFCCBD"/>
<path d="M47.0996 101.4C41.8871 101.4 36.6371 99.3 31.5371 95.1375C25.1996 89.9625 21.3371 83.475 21.1871 83.2125C20.9246 82.7625 20.9246 82.2375 21.1871 81.825C21.3371 81.5625 25.1996 75.075 31.5371 69.9C40.1621 62.85 49.2371 61.725 57.7496 66.6375L83.2121 81.3375C83.6246 81.6 83.9246 82.05 83.9246 82.5375C83.9246 83.025 83.6621 83.475 83.2121 83.7375L57.7496 98.4375C54.2621 100.425 50.6996 101.4 47.0996 101.4ZM23.9996 82.5C25.1621 84.3 28.4996 89.1375 33.3371 93.0375C41.0996 99.3375 48.8246 100.35 56.3621 96L79.7621 82.5L56.3621 69C48.8621 64.65 41.0996 65.6625 33.3371 71.9625C28.4996 75.8625 25.1621 80.7 23.9996 82.5Z" fill="#221F1F"/>
<path d="M47.0996 92.5125C40.9496 92.5125 35.0246 86.8875 31.5371 82.5C32.4371 81.375 33.5621 80.0625 34.8371 78.7875C37.7621 75.9 42.2996 72.45 47.0996 72.45C49.1246 72.45 51.1496 73.05 53.2871 74.2875L67.4996 82.5L53.2871 90.7125C51.1496 91.9499 49.1246 92.5125 47.0996 92.5125Z" fill="#D88C7D"/>
<path d="M82.5 82.4999L107.962 67.7999C127.425 56.5499 142.612 82.4999 142.612 82.4999C142.612 82.4999 127.425 108.45 107.962 97.1999L82.5 82.4999Z" fill="#FFCCBD"/>
<path d="M117.9 101.4C114.3 101.4 110.738 100.387 107.25 98.3999L81.7877 83.6999C81.3752 83.4374 81.0752 82.9874 81.0752 82.4999C81.0752 82.0124 81.3377 81.5624 81.7877 81.2999L107.25 66.5999C115.763 61.6874 124.838 62.8124 133.463 69.8624C139.8 75.0374 143.663 81.5249 143.813 81.7874C144.075 82.2374 144.075 82.7624 143.813 83.1749C143.663 83.4374 139.8 89.9249 133.463 95.0999C128.363 99.2999 123.113 101.4 117.9 101.4ZM85.2752 82.4999L108.675 95.9999C116.175 100.35 123.938 99.3374 131.7 93.0374C136.5 89.1374 139.875 84.2999 141.038 82.4999C139.875 80.6999 136.538 75.8624 131.7 71.9624C123.938 65.6624 116.213 64.6499 108.675 68.9999L85.2752 82.4999Z" fill="#221F1F"/>
<path d="M117.9 92.5125C115.875 92.5125 113.85 91.9125 111.712 90.675L97.5 82.5L111.712 74.2875C113.85 73.05 115.875 72.45 117.9 72.45C124.05 72.45 129.975 78.075 133.462 82.4625C132.562 83.5875 131.438 84.9 130.163 86.175C127.238 89.0625 122.737 92.5125 117.9 92.5125Z" fill="#D88C7D"/>
<path d="M82.5 102.562C93.5802 102.562 102.562 93.5802 102.562 82.5C102.562 71.4198 93.5802 62.4375 82.5 62.4375C71.4198 62.4375 62.4375 71.4198 62.4375 82.5C62.4375 93.5802 71.4198 102.562 82.5 102.562Z" fill="#FCD26E"/>
<path d="M82.4998 103.95C70.6873 103.95 61.0498 94.35 61.0498 82.5C61.0498 70.6875 70.6498 61.05 82.4998 61.05C94.3123 61.05 103.95 70.65 103.95 82.5C103.95 94.3125 94.3123 103.95 82.4998 103.95ZM82.4998 63.825C72.2248 63.825 63.8248 72.1875 63.8248 82.5C63.8248 92.8125 72.1873 101.175 82.4998 101.175C92.8123 101.175 101.175 92.8125 101.175 82.5C101.175 72.1875 92.7748 63.825 82.4998 63.825Z" fill="#221F1F"/>
<path d="M82.5 94.6875C89.231 94.6875 94.6875 89.231 94.6875 82.5C94.6875 75.769 89.231 70.3125 82.5 70.3125C75.769 70.3125 70.3125 75.769 70.3125 82.5C70.3125 89.231 75.769 94.6875 82.5 94.6875Z" fill="#A2D6FF"/>
<path d="M82.4998 96.0751C75.0373 96.0751 68.9248 90 68.9248 82.5C68.9248 75 74.9998 68.925 82.4998 68.925C89.9998 68.925 96.0748 75 96.0748 82.5C96.0748 90 89.9623 96.0751 82.4998 96.0751ZM82.4998 71.7C76.5373 71.7 71.6998 76.5375 71.6998 82.5C71.6998 88.4625 76.5373 93.3 82.4998 93.3C88.4623 93.3 93.2998 88.4625 93.2998 82.5C93.2998 76.5375 88.4623 71.7 82.4998 71.7Z" fill="#221F1F"/>
</svg>
