<svg width="165" height="165" viewBox="0 0 165 165" fill="none" xmlns="http://www.w3.org/2000/svg">
<path d="M82.5 82.5004L99.5625 52.9504C112.612 30.3379 82.5 12.7129 82.5 12.7129C82.5 12.7129 52.3875 30.3379 65.4375 52.9504L82.5 82.5004Z" fill="white"/>
<path d="M82.5002 83.8877C82.0127 83.8877 81.5627 83.6252 81.3002 83.1752L64.2377 53.6252C58.5752 43.8377 59.8877 33.4127 67.9877 23.4377C73.9877 16.0877 81.4877 11.6627 81.7877 11.4752C82.2377 11.2127 82.7627 11.2127 83.1752 11.4752C83.4752 11.6627 90.9752 16.0877 96.9752 23.4377C105.075 33.3752 106.388 43.8377 100.725 53.6252L83.6627 83.1752C83.4377 83.6252 82.9877 83.8877 82.5002 83.8877ZM82.5002 14.3252C80.5127 15.6002 74.7377 19.5377 70.0877 25.2752C62.7002 34.3502 61.5377 43.4252 66.6002 52.2377L82.4627 79.7252L98.3252 52.2377C103.425 43.4252 102.225 34.3502 94.8377 25.2752C90.2627 19.5377 84.4877 15.6002 82.5002 14.3252Z" fill="#221F1F"/>
<path d="M82.5 82.5L65.4375 112.05C52.3875 134.662 82.5 152.288 82.5 152.288C82.5 152.288 112.612 134.662 99.5625 112.05L82.5 82.5Z" fill="white"/>
<path d="M82.5002 153.675C82.2752 153.675 82.0127 153.6 81.7877 153.488C81.4877 153.3 73.9877 148.875 67.9877 141.525C59.8877 131.588 58.5752 121.125 64.2377 111.338L81.3002 81.7877C81.5627 81.3752 82.0127 81.0752 82.5002 81.0752C82.9877 81.0752 83.4377 81.3377 83.7002 81.7877L100.763 111.338C106.425 121.125 105.113 131.55 97.0127 141.525C91.0127 148.875 83.5127 153.3 83.2127 153.488C82.9877 153.638 82.7252 153.675 82.5002 153.675ZM82.5002 85.2752L66.6377 112.763C61.5377 121.575 62.7377 130.65 70.1252 139.725C74.7752 145.425 80.5502 149.4 82.5377 150.675C84.5252 149.4 90.3002 145.463 94.9502 139.725C102.338 130.65 103.5 121.575 98.4377 112.763L82.5002 85.2752Z" fill="#221F1F"/>
<path d="M82.4998 82.5005H48.3748C22.2748 82.5005 22.0498 117.413 22.0498 117.413C22.0498 117.413 52.3873 134.7 65.4373 112.088L82.4998 82.5005Z" fill="white"/>
<path d="M44.7375 125.1C42.7875 125.1 40.725 124.913 38.5875 124.575C29.25 123.075 21.6375 118.8 21.3375 118.613C20.8875 118.35 20.625 117.9 20.625 117.413C20.625 117.038 20.7 108.338 24.075 99.4879C28.65 87.4879 37.0125 81.1504 48.3375 81.1504H82.4625C82.95 81.1504 83.4 81.4129 83.6625 81.8629C83.925 82.2754 83.925 82.8379 83.6625 83.2504L66.6 112.8C61.95 120.9 54.45 125.1 44.7375 125.1ZM23.475 116.588C25.575 117.675 31.875 120.675 39.15 121.838C50.7 123.675 59.175 120.15 64.2375 111.338L80.1 83.8504H48.375C38.2125 83.8504 30.9375 89.4004 26.7375 100.35C24.1125 107.25 23.5875 114.225 23.475 116.588Z" fill="#221F1F"/>
<path d="M82.5 82.5001H116.625C142.725 82.5001 142.95 47.5876 142.95 47.5876C142.95 47.5876 112.612 30.3001 99.5625 52.9126L82.5 82.5001Z" fill="white"/>
<path d="M116.625 83.8877H82.5004C82.0129 83.8877 81.5629 83.6252 81.3004 83.1752C81.0379 82.7627 81.0379 82.2002 81.3004 81.7877L98.3629 52.2377C104.025 42.4502 113.7 38.3627 126.375 40.4252C135.713 41.9252 143.325 46.2002 143.625 46.3877C144.075 46.6502 144.338 47.1002 144.338 47.5877C144.338 47.9627 144.263 56.6627 140.888 65.5127C136.313 77.5502 127.95 83.8877 116.625 83.8877ZM84.9004 81.1127H116.625C126.788 81.1127 134.063 75.5627 138.263 64.6127C140.888 57.7502 141.413 50.7377 141.525 48.4127C139.425 47.3252 133.125 44.3252 125.85 43.1627C114.3 41.3252 105.825 44.8502 100.763 53.6627L84.9004 81.1127Z" fill="#221F1F"/>
<path d="M82.5 82.5005L99.5625 112.05C112.612 134.663 142.95 117.375 142.95 117.375C142.95 117.375 142.762 82.5005 116.625 82.5005H82.5Z" fill="white"/>
<path d="M120.263 125.1C110.588 125.1 103.088 120.9 98.4 112.763L81.3375 83.2128C81.075 82.8003 81.075 82.2378 81.3375 81.8253C81.6 81.4128 82.05 81.1128 82.5375 81.1128H116.663C127.95 81.1128 136.35 87.4503 140.925 99.4503C144.3 108.3 144.375 117.038 144.375 117.375C144.375 117.863 144.113 118.35 143.663 118.575C143.363 118.763 135.75 123.038 126.413 124.538C124.238 124.913 122.213 125.1 120.263 125.1ZM84.9 83.8878L100.763 111.375C105.863 120.188 114.3 123.713 125.85 121.875C133.125 120.713 139.425 117.675 141.525 116.625C141.412 114.263 140.888 107.288 138.263 100.425C134.1 89.4753 126.825 83.9253 116.625 83.9253L84.9 83.8878Z" fill="#221F1F"/>
<path d="M82.4998 82.5002L65.4373 52.9502C52.3873 30.3377 22.0498 47.6252 22.0498 47.6252C22.0498 47.6252 22.2373 82.5002 48.3748 82.5002H82.4998Z" fill="white"/>
<path d="M82.4996 83.8878H48.3746C37.0871 83.8878 28.6871 77.5503 24.1121 65.5503C20.7371 56.7003 20.6621 47.9628 20.6621 47.6253C20.6621 47.1378 20.9246 46.6503 21.3746 46.4253C21.6746 46.2378 29.2871 41.9628 38.6246 40.4628C51.2996 38.4003 60.9746 42.4878 66.6371 52.2753L83.6996 81.8253C83.9621 82.2378 83.9621 82.8003 83.6996 83.2128C83.4371 83.6253 82.9871 83.8878 82.4996 83.8878ZM23.4746 48.4128C23.5871 50.7753 24.1121 57.7503 26.7371 64.6128C30.8996 75.5628 38.1746 81.1128 48.3746 81.1128H80.0996L64.2371 53.6253C59.1371 44.8128 50.6996 41.2878 39.1496 43.1253C31.8746 44.3253 25.5371 47.3253 23.4746 48.4128Z" fill="#221F1F"/>
<path d="M82.5007 82.5004L96.8632 57.6379C107.851 38.6254 82.5007 23.7754 82.5007 23.7754C82.5007 23.7754 57.1507 38.5879 68.1382 57.6379L82.5007 82.5004Z" fill="white"/>
<path d="M82.5007 83.8878C82.0132 83.8878 81.5632 83.6253 81.3007 83.1753L66.9382 58.3128C62.1382 49.9878 63.2257 41.1378 70.1257 32.7003C75.1882 26.4753 81.5257 22.7253 81.7882 22.5753C82.2382 22.3128 82.7632 22.3128 83.1757 22.5753C83.4382 22.7253 89.7757 26.4753 94.8382 32.7003C101.738 41.1378 102.826 50.0253 98.0257 58.3128L83.6632 83.1753C83.4382 83.6253 82.9882 83.8878 82.5007 83.8878ZM82.5007 25.4253C80.7382 26.5503 76.0507 29.8503 72.2257 34.5003C66.0757 42.0753 65.1007 49.6128 69.3382 56.9253L82.5007 79.7253L95.6632 56.9253C99.9007 49.6128 98.9257 42.0753 92.7757 34.5003C88.9507 29.8128 84.2632 26.5503 82.5007 25.4253Z" fill="#221F1F"/>
<path d="M82.5007 82.5005L68.1382 107.363C57.1507 126.375 82.5007 141.225 82.5007 141.225C82.5007 141.225 107.851 126.413 96.8632 107.363L82.5007 82.5005Z" fill="white"/>
<path d="M82.5007 142.613C82.2757 142.613 82.0132 142.538 81.7882 142.425C81.5257 142.275 75.1882 138.525 70.1257 132.3C63.2257 123.863 62.1382 114.975 66.9382 106.688L81.3007 81.8253C81.5632 81.4128 82.0132 81.1128 82.5007 81.1128C82.9882 81.1128 83.4382 81.3753 83.7007 81.8253L98.0632 106.688C102.863 115.013 101.776 123.863 94.8757 132.3C89.8132 138.525 83.4757 142.275 83.2132 142.425C82.9882 142.538 82.7257 142.613 82.5007 142.613ZM82.5007 85.2753L69.3382 108.075C65.1007 115.388 66.0757 122.925 72.2257 130.5C76.0132 135.188 80.7382 138.45 82.5007 139.575C84.2632 138.45 88.9507 135.15 92.7757 130.5C98.9257 122.925 99.9007 115.388 95.6632 108.075L82.5007 85.2753Z" fill="#221F1F"/>
<path d="M82.5004 82.5H53.7754C31.8004 82.5 31.6504 111.862 31.6504 111.862C31.6504 111.862 57.1504 126.375 68.1379 107.362L82.5004 82.5Z" fill="white"/>
<path d="M50.7752 118.538C49.1252 118.538 47.3627 118.388 45.5627 118.088C37.6502 116.813 31.2377 113.175 30.9752 113.025C30.5252 112.763 30.2627 112.313 30.2627 111.825C30.2627 111.525 30.3377 104.138 33.1877 96.6753C37.0502 86.4753 44.1752 81.1128 53.7752 81.1128H82.5002C82.9877 81.1128 83.4377 81.3753 83.7002 81.8253C83.9627 82.2378 83.9627 82.8003 83.7002 83.2128L69.3377 108.075C65.3627 114.975 58.9877 118.538 50.7752 118.538ZM33.0752 111.038C34.9502 111.975 40.1252 114.45 46.0877 115.388C55.7252 116.925 62.7377 114 66.9752 106.688L80.1377 83.8878H53.8127C45.3377 83.8878 39.3002 88.5378 35.8127 97.6878C33.6377 103.313 33.1877 108.975 33.0752 111.038Z" fill="#221F1F"/>
<path d="M82.5 82.5H111.225C133.2 82.5 133.35 53.1375 133.35 53.1375C133.35 53.1375 107.85 38.625 96.8625 57.6375L82.5 82.5Z" fill="white"/>
<path d="M111.225 83.8874H82.5004C82.0129 83.8874 81.5629 83.6249 81.3004 83.1749C81.0379 82.7624 81.0379 82.1999 81.3004 81.7874L95.6629 56.9249C100.463 48.5999 108.675 45.1124 119.438 46.8749C127.35 48.1499 133.763 51.7874 134.025 51.9374C134.475 52.1999 134.738 52.6499 134.738 53.1374C134.738 53.4374 134.663 60.8249 131.813 68.2874C127.95 78.4874 120.825 83.8874 111.225 83.8874ZM84.9004 81.1124H111.225C119.663 81.1124 125.738 76.4999 129.225 67.3874C131.363 61.7624 131.85 56.0624 131.963 53.9624C130.088 53.0249 124.913 50.5499 118.95 49.6124C109.313 48.0749 102.3 50.9999 98.0629 58.3124L84.9004 81.1124Z" fill="#221F1F"/>
<path d="M82.5 82.5L96.8625 107.362C107.85 126.375 133.35 111.862 133.35 111.862C133.35 111.862 133.163 82.5 111.225 82.5H82.5Z" fill="white"/>
<path d="M114.225 118.538C106.012 118.538 99.6373 114.975 95.6248 108.038L81.2623 83.1752C80.9998 82.7627 80.9998 82.2002 81.2623 81.7877C81.5248 81.3752 81.9748 81.0752 82.4623 81.0752H111.187C120.787 81.0752 127.912 86.4752 131.775 96.6377C134.625 104.138 134.7 111.488 134.7 111.788C134.7 112.275 134.437 112.763 133.987 112.988C133.725 113.138 127.312 116.775 119.4 118.05C117.637 118.425 115.912 118.538 114.225 118.538ZM84.8998 83.8877L98.0623 106.688C102.3 114.038 109.35 116.963 118.987 115.388C124.912 114.413 130.087 112.013 131.925 111.038C131.812 108.938 131.325 103.238 129.187 97.6127C125.7 88.5002 119.662 83.8877 111.187 83.8877H84.8998Z" fill="#221F1F"/>
<path d="M82.5004 82.5L68.1379 57.6375C57.1504 38.625 31.6504 53.1375 31.6504 53.1375C31.6504 53.1375 31.8379 82.5 53.7754 82.5H82.5004Z" fill="white"/>
<path d="M82.5002 83.8876H53.7752C44.1752 83.8876 37.0502 78.4876 33.1877 68.3251C30.3377 60.8251 30.2627 53.4751 30.2627 53.1751C30.2627 52.6876 30.5252 52.2001 30.9752 51.9751C31.2377 51.8251 37.6502 48.1876 45.5627 46.9126C56.3252 45.1876 64.5377 48.6376 69.3377 56.9626L83.7002 81.8251C83.9627 82.2376 83.9627 82.8001 83.7002 83.2126C83.4377 83.6251 82.9877 83.8876 82.5002 83.8876ZM33.0752 53.9626C33.1877 56.0626 33.6752 61.7626 35.8127 67.3876C39.3002 76.5001 45.3377 81.1126 53.8127 81.1126H80.1377L66.9752 58.3126C62.7377 50.9626 55.6877 48.0376 46.0502 49.6126C40.0502 50.5876 34.9127 53.0251 33.0752 53.9626Z" fill="#221F1F"/>
<path d="M82.5002 82.5006V53.1006C82.5002 30.6006 52.4252 30.4131 52.4252 30.4131C52.4252 30.4131 37.5377 56.5506 57.0377 67.8006L82.5002 82.5006Z" fill="white"/>
<path d="M82.4998 83.8879C82.2748 83.8879 82.0123 83.8129 81.7873 83.7004L56.3248 69.0004C47.8123 64.0879 44.2498 55.6879 46.0498 44.6629C47.3623 36.5629 51.0748 30.0004 51.2248 29.7379C51.4873 29.2879 51.9373 29.0254 52.4248 29.0254C52.7248 29.0254 60.2623 29.1004 67.9498 32.0254C78.3748 36.0004 83.8873 43.2754 83.8873 53.1004V82.5004C83.8873 82.9879 83.6248 83.4379 83.1748 83.7004C82.9873 83.8129 82.7248 83.8879 82.4998 83.8879ZM53.2498 31.8379C52.2748 33.7129 49.7623 39.0754 48.7873 45.1879C47.2123 55.0504 50.2123 62.2504 57.7123 66.6004L81.1123 80.1004V53.1004C81.1123 44.4379 76.3873 38.2129 67.0498 34.6504C61.2373 32.4379 55.3873 31.9504 53.2498 31.8379Z" fill="#221F1F"/>
<path d="M82.5 82.5005V111.9C82.5 134.4 112.575 134.588 112.575 134.588C112.575 134.588 127.463 108.45 107.962 97.2005L82.5 82.5005Z" fill="white"/>
<path d="M112.575 135.975C112.237 135.975 104.7 135.9 97.0498 132.975C86.6248 129 81.1123 121.725 81.1123 111.9V82.5004C81.1123 82.0129 81.3748 81.5629 81.8248 81.3004C82.2373 81.0379 82.7998 81.0379 83.2123 81.3004L108.675 96.0004C117.187 100.913 120.75 109.313 118.95 120.338C117.637 128.438 113.925 135 113.775 135.263C113.512 135.713 113.062 135.975 112.575 135.975ZM83.8873 84.9004V111.9C83.8873 120.6 88.6498 126.825 98.0248 130.388C103.8 132.6 109.65 133.05 111.75 133.163C112.725 131.288 115.237 125.925 116.212 119.813C117.787 109.95 114.787 102.75 107.287 98.4004L83.8873 84.9004Z" fill="#221F1F"/>
<path d="M82.5005 82.5005L57.038 97.2005C37.5755 108.45 52.4255 134.588 52.4255 134.588C52.4255 134.588 82.5005 134.4 82.5005 111.9V82.5005Z" fill="white"/>
<path d="M52.4248 135.975C51.9373 135.975 51.4498 135.713 51.2248 135.263C51.0748 135 47.3623 128.438 46.0498 120.338C44.2498 109.35 47.8123 100.913 56.3248 96.0004L81.7873 81.3004C82.1998 81.0379 82.7623 81.0379 83.1748 81.3004C83.5873 81.5629 83.8873 82.0129 83.8873 82.5004V111.9C83.8873 121.725 78.3748 129 67.9498 132.975C60.2998 135.9 52.7623 135.975 52.4248 135.975ZM81.1123 84.9004L57.7123 98.4004C50.2123 102.75 47.2123 109.95 48.7873 119.813C49.7623 125.925 52.2748 131.25 53.2498 133.163C55.3873 133.05 61.2373 132.563 67.0498 130.35C76.3873 126.788 81.1123 120.563 81.1123 111.9V84.9004Z" fill="#221F1F"/>
<path d="M82.5 82.5006L107.962 67.8006C127.425 56.5506 112.575 30.4131 112.575 30.4131C112.575 30.4131 82.5 30.6006 82.5 53.1006V82.5006Z" fill="white"/>
<path d="M82.5002 83.8879C82.2752 83.8879 82.0127 83.8129 81.7877 83.7004C81.3752 83.4379 81.0752 82.9879 81.0752 82.5004V53.1004C81.0752 43.2754 86.5877 36.0004 97.0127 32.0254C104.663 29.1004 112.2 29.0254 112.538 29.0254C113.025 29.0254 113.513 29.2879 113.738 29.7379C113.888 30.0004 117.6 36.5629 118.913 44.6629C120.713 55.6504 117.15 64.0879 108.638 69.0004L83.1752 83.7004C82.9877 83.8129 82.7252 83.8879 82.5002 83.8879ZM111.75 31.8379C109.613 31.9504 103.763 32.4379 97.9502 34.6504C88.6127 38.2129 83.8877 44.4379 83.8877 53.1004V80.1004L107.288 66.6004C114.788 62.2504 117.788 55.0504 116.213 45.1879C115.238 39.0754 112.725 33.7129 111.75 31.8379Z" fill="#221F1F"/>
<path d="M82.4992 82.5004L57.0367 97.2004C37.5742 108.45 22.3867 82.5004 22.3867 82.5004C22.3867 82.5004 37.5742 56.5504 57.0367 67.8004L82.4992 82.5004Z" fill="white"/>
<path d="M47.0996 101.4C41.8871 101.4 36.6371 99.3003 31.5371 95.1378C25.1996 89.9628 21.3371 83.4753 21.1871 83.2128C20.9246 82.7628 20.9246 82.2378 21.1871 81.8253C21.3371 81.5628 25.1996 75.0753 31.5371 69.9003C40.1621 62.8503 49.2371 61.7253 57.7496 66.6378L83.2121 81.3378C83.6246 81.6003 83.9246 82.0503 83.9246 82.5378C83.9246 83.0253 83.6621 83.4753 83.2121 83.7378L57.7496 98.4378C54.2621 100.425 50.6996 101.4 47.0996 101.4ZM23.9996 82.5003C25.1621 84.3003 28.4996 89.1378 33.3371 93.0378C41.0996 99.3378 48.8246 100.35 56.3621 96.0003L79.7621 82.5003L56.3621 69.0003C48.8621 64.6503 41.0996 65.6628 33.3371 71.9628C28.4996 75.8628 25.1621 80.7003 23.9996 82.5003Z" fill="#221F1F"/>
<path d="M82.5 82.5004L107.962 67.8004C127.425 56.5504 142.612 82.5004 142.612 82.5004C142.612 82.5004 127.425 108.45 107.962 97.2004L82.5 82.5004Z" fill="white"/>
<path d="M117.9 101.4C114.3 101.4 110.738 100.388 107.25 98.4002L81.7877 83.7002C81.3752 83.4377 81.0752 82.9877 81.0752 82.5002C81.0752 82.0127 81.3377 81.5627 81.7877 81.3002L107.25 66.6002C115.763 61.6877 124.838 62.8127 133.463 69.8627C139.8 75.0377 143.663 81.5252 143.813 81.7877C144.075 82.2377 144.075 82.7627 143.813 83.1752C143.663 83.4377 139.8 89.9252 133.463 95.1002C128.363 99.3002 123.113 101.4 117.9 101.4ZM85.2752 82.5002L108.675 96.0002C116.175 100.35 123.938 99.3377 131.7 93.0377C136.5 89.1377 139.875 84.3002 141.038 82.5002C139.875 80.7002 136.538 75.8627 131.7 71.9627C123.938 65.6627 116.213 64.6502 108.675 69.0002L85.2752 82.5002Z" fill="#221F1F"/>
<path d="M82.5 102.563C93.5802 102.563 102.562 93.5807 102.562 82.5005C102.562 71.4203 93.5802 62.438 82.5 62.438C71.4198 62.438 62.4375 71.4203 62.4375 82.5005C62.4375 93.5807 71.4198 102.563 82.5 102.563Z" fill="white"/>
<path d="M82.4998 103.95C70.6873 103.95 61.0498 94.3503 61.0498 82.5003C61.0498 70.6878 70.6498 61.0503 82.4998 61.0503C94.3123 61.0503 103.95 70.6503 103.95 82.5003C103.95 94.3128 94.3123 103.95 82.4998 103.95ZM82.4998 63.8253C72.2248 63.8253 63.8248 72.1878 63.8248 82.5003C63.8248 92.8128 72.1873 101.175 82.4998 101.175C92.8123 101.175 101.175 92.8128 101.175 82.5003C101.175 72.1878 92.7748 63.8253 82.4998 63.8253Z" fill="#221F1F"/>
<path d="M82.5 94.688C89.231 94.688 94.6875 89.2315 94.6875 82.5005C94.6875 75.7695 89.231 70.313 82.5 70.313C75.769 70.313 70.3125 75.7695 70.3125 82.5005C70.3125 89.2315 75.769 94.688 82.5 94.688Z" fill="white"/>
<path d="M82.4998 96.0753C75.0373 96.0753 68.9248 90.0003 68.9248 82.5003C68.9248 75.0003 74.9998 68.9253 82.4998 68.9253C89.9998 68.9253 96.0748 75.0003 96.0748 82.5003C96.0748 90.0003 89.9623 96.0753 82.4998 96.0753ZM82.4998 71.7003C76.5373 71.7003 71.6998 76.5378 71.6998 82.5003C71.6998 88.4628 76.5373 93.3003 82.4998 93.3003C88.4623 93.3003 93.2998 88.4628 93.2998 82.5003C93.2998 76.5378 88.4623 71.7003 82.4998 71.7003Z" fill="#221F1F"/>
</svg>
