<svg width="165" height="165" viewBox="0 0 165 165" fill="none" xmlns="http://www.w3.org/2000/svg">
<path d="M69.4128 155.287C53.3253 155.287 37.4628 149.887 24.7128 140.1C22.3878 138.337 21.4878 135.3 22.4628 132.525C23.4003 129.825 25.8753 128.062 28.7253 128.062C28.8378 128.062 28.9503 128.062 29.0253 128.062C29.7378 128.1 30.4878 128.1 31.2003 128.1C38.5878 128.1 45.9753 126.787 53.1378 124.2C69.2253 118.35 82.0878 106.575 89.3628 91.0124C96.6378 75.4874 97.3878 58.0499 91.5378 41.9249C88.6878 34.1624 84.4878 27.1124 79.0128 20.9624C77.0253 18.7499 76.7253 15.5999 78.1878 13.0499C79.4253 10.9499 81.5628 9.7124 83.9628 9.7124C84.4878 9.7124 84.9753 9.7874 85.5003 9.8999C110.213 15.4124 130.125 32.9249 138.713 56.7374C145.388 75.2249 144.338 95.3249 135.75 113.325C127.163 131.325 112.2 144.787 93.5628 151.237C85.6878 153.937 77.5503 155.287 69.4128 155.287Z" fill="white"/>
<path d="M82.3873 17.8124C88.1248 24.1874 92.7373 31.7249 95.8498 40.2749C108.862 76.0124 90.4123 115.575 54.6748 128.55C46.1248 131.662 37.3498 132.975 28.7998 132.675C26.8123 132.6 25.9123 135.112 27.4873 136.35C45.2623 149.962 69.2623 154.612 91.9123 146.775C127.875 134.325 147.15 94.0499 134.212 58.2749C125.925 35.2874 106.612 19.4249 84.3748 14.4374C82.4248 14.0249 81.0748 16.3124 82.3873 17.8124Z" fill="#CAE5FF"/>
<path d="M69.4125 151.912C54.225 151.912 39.1875 146.962 26.7374 137.4C25.5374 136.5 25.1249 135 25.6124 133.612C26.0999 132.225 27.3749 131.325 28.8749 131.4C37.4999 131.7 46.0499 130.312 54.2624 127.35C71.2124 121.2 84.7499 108.787 92.3999 92.3999C100.05 76.05 100.837 57.6749 94.6874 40.725C91.6874 32.5125 87.2625 25.125 81.4874 18.675C80.5125 17.5875 80.3249 16.0125 81.0749 14.7375C81.8249 13.4625 83.2499 12.825 84.7124 13.1625C108.3 18.4125 127.312 35.1375 135.525 57.8625C141.9 75.4875 140.887 94.6874 132.675 111.862C124.462 129.075 110.175 141.9 92.4374 148.05C84.8624 150.637 77.1 151.912 69.4125 151.912ZM28.7624 134.025C28.3124 134.025 28.1249 134.362 28.0874 134.512C28.0499 134.662 27.9374 135.037 28.3499 135.337C46.4249 149.175 70.0499 153 91.5375 145.575C108.6 139.687 122.362 127.312 130.275 110.737C138.187 94.2 139.162 75.7125 133.05 58.7625C125.1 36.8624 106.837 20.8125 84.1124 15.7125C83.625 15.6 83.4 15.9375 83.2875 16.05C83.2125 16.2 83.0625 16.5375 83.3624 16.9125C89.3624 23.5875 93.9749 31.3125 97.0874 39.825C103.5 57.4125 102.675 76.5 94.725 93.4875C86.8125 110.475 72.7499 123.375 55.1249 129.787C46.6499 132.9 37.7624 134.325 28.7624 134.025Z" fill="#221F1F"/>
<path d="M121.875 100.275C125.168 100.275 127.837 97.6053 127.837 94.3124C127.837 91.0194 125.168 88.3499 121.875 88.3499C118.582 88.3499 115.912 91.0194 115.912 94.3124C115.912 97.6053 118.582 100.275 121.875 100.275Z" fill="#8EBFE2"/>
<path d="M121.875 101.587C117.862 101.587 114.6 98.3249 114.6 94.3124C114.6 90.2999 117.862 87.0374 121.875 87.0374C125.887 87.0374 129.15 90.2999 129.15 94.3124C129.15 98.3249 125.887 101.587 121.875 101.587ZM121.875 89.6624C119.287 89.6624 117.225 91.7624 117.225 94.3124C117.225 96.8999 119.325 98.9623 121.875 98.9623C124.462 98.9623 126.525 96.8624 126.525 94.3124C126.525 91.7624 124.462 89.6624 121.875 89.6624Z" fill="#8EBFE2"/>
<path d="M117.825 76.6875C119.15 76.6875 120.225 75.6129 120.225 74.2875C120.225 72.962 119.15 71.8875 117.825 71.8875C116.499 71.8875 115.425 72.962 115.425 74.2875C115.425 75.6129 116.499 76.6875 117.825 76.6875Z" fill="#8EBFE2"/>
<path d="M97.1623 126.788C100.124 126.788 102.525 124.387 102.525 121.425C102.525 118.463 100.124 116.062 97.1623 116.062C94.2007 116.062 91.7998 118.463 91.7998 121.425C91.7998 124.387 94.2007 126.788 97.1623 126.788Z" fill="#8EBFE2"/>
<path d="M97.1623 128.1C93.4873 128.1 90.4873 125.1 90.4873 121.425C90.4873 117.75 93.4873 114.75 97.1623 114.75C100.837 114.75 103.837 117.75 103.837 121.425C103.837 125.1 100.875 128.1 97.1623 128.1ZM97.1623 117.337C94.9123 117.337 93.1123 119.175 93.1123 121.388C93.1123 123.638 94.9498 125.438 97.1623 125.438C99.4123 125.438 101.212 123.6 101.212 121.388C101.25 119.175 99.4123 117.337 97.1623 117.337Z" fill="#8EBFE2"/>
<path d="M112.799 113.663C114.125 113.663 115.199 112.588 115.199 111.263C115.199 109.937 114.125 108.863 112.799 108.863C111.474 108.863 110.399 109.937 110.399 111.263C110.399 112.588 111.474 113.663 112.799 113.663Z" fill="#8EBFE2"/>
<path d="M86.175 136.237C74.85 136.237 64.0875 134.025 54.3 130.087C46.05 132.975 37.4625 134.287 28.8 133.987H28.7625C28.3125 133.987 28.125 134.325 28.0875 134.475C28.05 134.625 27.9375 135 28.35 135.3C46.425 149.137 70.05 152.962 91.5375 145.537C100.575 142.425 108.675 137.475 115.5 131.062C106.388 134.437 96.4875 136.237 86.175 136.237Z" fill="#8EBFE2"/>
</svg>
