<svg width="165" height="165" viewBox="0 0 165 165" fill="none" xmlns="http://www.w3.org/2000/svg">
<path d="M82.3873 17.8126C88.1248 24.1876 92.7373 31.7251 95.8498 40.2751C108.862 76.0126 90.4123 115.575 54.6748 128.55C46.1248 131.663 37.3498 132.975 28.7998 132.675C26.8123 132.6 25.9123 135.113 27.4873 136.35C45.2623 149.963 69.2623 154.613 91.9123 146.775C127.875 134.325 147.15 94.0501 134.212 58.2751C125.925 35.2876 106.612 19.4251 84.3748 14.4376C82.4248 14.0251 81.0748 16.3126 82.3873 17.8126Z" fill="white"/>
<path d="M69.4125 151.913C54.225 151.913 39.1875 146.963 26.7374 137.4C25.5374 136.5 25.1249 135 25.6124 133.613C26.0999 132.225 27.3749 131.325 28.8749 131.4C37.4999 131.7 46.0499 130.313 54.2624 127.35C71.2124 121.2 84.7499 108.788 92.3999 92.4002C100.05 76.0502 100.837 57.6752 94.6874 40.7252C91.6874 32.5127 87.2625 25.1252 81.4874 18.6752C80.5125 17.5877 80.3249 16.0127 81.0749 14.7377C81.8249 13.4627 83.2499 12.8252 84.7124 13.1627C108.3 18.4127 127.312 35.1377 135.525 57.8627C141.9 75.4877 140.887 94.6877 132.675 111.863C124.462 129.075 110.175 141.9 92.4374 148.05C84.8624 150.638 77.1 151.913 69.4125 151.913ZM28.7624 134.025C28.3124 134.025 28.1249 134.363 28.0874 134.513C28.0499 134.663 27.9374 135.038 28.3499 135.338C46.4249 149.175 70.0499 153 91.5375 145.575C108.6 139.688 122.362 127.313 130.275 110.738C138.187 94.2002 139.162 75.7127 133.05 58.7627C125.1 36.8627 106.837 20.8127 84.1124 15.7127C83.625 15.6002 83.4 15.9377 83.2875 16.0502C83.2125 16.2002 83.0625 16.5377 83.3624 16.9127C89.3624 23.5877 93.9749 31.3127 97.0874 39.8252C103.5 57.4127 102.675 76.5002 94.725 93.4877C86.8125 110.475 72.7499 123.375 55.1249 129.788C46.6499 132.9 37.7624 134.325 28.7624 134.025Z" fill="#221F1F"/>
<path d="M121.875 101.588C117.862 101.588 114.6 98.3251 114.6 94.3126C114.6 90.3001 117.862 87.0376 121.875 87.0376C125.887 87.0376 129.15 90.3001 129.15 94.3126C129.15 98.3251 125.887 101.588 121.875 101.588ZM121.875 89.6626C119.287 89.6626 117.225 91.7626 117.225 94.3126C117.225 96.9001 119.325 98.9626 121.875 98.9626C124.462 98.9626 126.525 96.8626 126.525 94.3126C126.525 91.7626 124.462 89.6626 121.875 89.6626Z" fill="#221F1F"/>
<path d="M117.825 76.6877C119.15 76.6877 120.225 75.6132 120.225 74.2877C120.225 72.9622 119.15 71.8877 117.825 71.8877C116.499 71.8877 115.425 72.9622 115.425 74.2877C115.425 75.6132 116.499 76.6877 117.825 76.6877Z" fill="#221F1F"/>
<path d="M97.1623 128.1C93.4873 128.1 90.4873 125.1 90.4873 121.425C90.4873 117.75 93.4873 114.75 97.1623 114.75C100.837 114.75 103.837 117.75 103.837 121.425C103.837 125.1 100.875 128.1 97.1623 128.1ZM97.1623 117.337C94.9123 117.337 93.1123 119.175 93.1123 121.388C93.1123 123.638 94.9498 125.438 97.1623 125.438C99.4123 125.438 101.212 123.6 101.212 121.388C101.25 119.175 99.4123 117.337 97.1623 117.337Z" fill="#221F1F"/>
<path d="M112.8 113.663C114.126 113.663 115.2 112.588 115.2 111.263C115.2 109.937 114.126 108.863 112.8 108.863C111.475 108.863 110.4 109.937 110.4 111.263C110.4 112.588 111.475 113.663 112.8 113.663Z" fill="#221F1F"/>
<path d="M78.4117 133.35C79.7372 133.35 80.8117 132.276 80.8117 130.95C80.8117 129.625 79.7372 128.55 78.4117 128.55C77.0862 128.55 76.0117 129.625 76.0117 130.95C76.0117 132.276 77.0862 133.35 78.4117 133.35Z" fill="#221F1F"/>
</svg>
