<svg width="220" height="220" viewBox="0 0 220 220" fill="none" xmlns="http://www.w3.org/2000/svg">
<g clip-path="url(#clip0_4242_1128)">
<path fill-rule="evenodd" clip-rule="evenodd" d="M139 99.8C136.7 99.8 134.8 101.7 134.8 104C134.8 106.3 136.7 108.2 139 108.2H185.5C189.4 108.2 192.6 105 192.6 101.1C192.6 97.2 189.4 94 185.5 94C184.3 94 183.1 94.3 182.1 94.9C181 95.5 179.7 95.8 178.4 95.8C175.7 95.8 173.1 94.3 171.8 92C169.9 88.7 166.3 86.7 162.5 86.7C157.5 86.7 153.1 90.2 152 95.1C151.5 97.4 149.9 99.4 147.8 100.4C146.8 100.9 145.6 101.1 144.5 101.1C143.3 101.1 142.1 100.8 141 100.3C140.3 100 139.6 99.8 139 99.8Z" fill="white"/>
<path fill-rule="evenodd" clip-rule="evenodd" d="M30.6 114.2C28.1 114.2 26 116.3 26 119C26 121.7 28.1 123.8 30.6 123.8H69.2C70.4 123.8 71.4 122.8 71.4 121.5C71.4 120.2 70.4 119.2 69.2 119.2C68.9 119.2 68.6 119.3 68.3 119.4C67.2 120 66 120.3 64.8 120.3C63.7 120.3 62.5 120 61.5 119.6C59.4 118.6 57.8 116.6 57.3 114.3C56.5 110.8 53.4 108.2 49.8 108.2C47.1 108.2 44.6 109.6 43.2 112.1C41.8 114.5 39.3 115.9 36.5 115.9C35.2 115.9 33.9 115.6 32.8 114.9C32.1 114.4 31.4 114.2 30.6 114.2Z" fill="white"/>
<path fill-rule="evenodd" clip-rule="evenodd" d="M179.3 136.6C176.1 136.6 173.4 134 173.4 130.7C173.4 127.4 176 124.8 179.3 124.8H200.3C203.5 124.8 206.2 127.4 206.2 130.7C206.2 134 203.6 136.6 200.3 136.6H179.3Z" fill="white"/>
<path fill-rule="evenodd" clip-rule="evenodd" d="M157.8 80.7C156.2 80.7 154.8 80.1 153.7 79C151.4 76.7 151.4 73 153.7 70.7L168.6 55.8C169.7 54.7 171.2 54.1 172.7 54.1C174.3 54.1 175.7 54.7 176.8 55.8C179.1 58.1 179.1 61.8 176.8 64.1L162 79C160.9 80.1 159.4 80.7 157.8 80.7Z" fill="white"/>
<path fill-rule="evenodd" clip-rule="evenodd" d="M63.4998 80.7C61.8998 80.7 60.4998 80.1 59.3998 79L44.4998 64.2C43.3998 63.1 42.7998 61.6 42.7998 60.1C42.7998 58.5 43.3998 57.1 44.4998 56C45.5998 54.9 47.0998 54.3 48.5998 54.3C50.1998 54.3 51.5998 54.9 52.6998 56L67.5998 70.9C69.8998 73.2 69.8998 76.9 67.5998 79.2C66.5998 80.1 65.0998 80.7 63.4998 80.7Z" fill="white"/>
<path fill-rule="evenodd" clip-rule="evenodd" d="M33.5001 159.9C30.3001 159.9 27.6001 157.3 27.6001 154C27.6001 150.8 30.2001 148.1 33.5001 148.1H186.8C190 148.1 192.7 150.7 192.7 154C192.7 157.2 190.1 159.9 186.8 159.9H33.5001Z" fill="white"/>
<path fill-rule="evenodd" clip-rule="evenodd" d="M110.7 61.2C107.5 61.2 104.8 58.6 104.8 55.3V34.3C104.8 31.1 107.4 28.4 110.7 28.4C114 28.4 116.6 31 116.6 34.3V55.3C116.5 58.6 113.9 61.2 110.7 61.2Z" fill="white"/>
<path fill-rule="evenodd" clip-rule="evenodd" d="M65.6998 159.1L64.4998 157.6C56.4998 147.4 52.2998 135.1 52.2998 122.1C52.2998 90.2 78.1998 64.3 110.1 64.3C142 64.2 168 90.1 168 122C168 135 163.8 147.3 155.8 157.5L154.6 159H65.6998V159.1ZM146.7 150.1C152.9 142.1 156.2 132.2 156.2 122C156.2 96.6 135.5 75.9 110.1 75.9C84.6998 75.9 63.9998 96.6 63.9998 122C63.9998 132.2 67.3998 142.1 73.4998 150.1H146.7Z" fill="white"/>
<path d="M110.1 70C81.3996 70 58.0996 93.3 58.0996 122C58.0996 134.6 62.5996 146.1 69.9996 155.1H150.2C157.6 146.1 162.1 134.6 162.1 122C162.1 93.3 138.9 70 110.1 70Z" fill="#F5D47D"/>
<path d="M71.5002 112.3C71.5002 98.7 76.4002 86.4 84.5002 76.9C68.0002 85 56.7002 102.1 56.7002 122C56.7002 134.7 61.3002 146.2 68.9002 155H92.3002C79.7002 145.3 71.5002 129.8 71.5002 112.3Z" fill="#D9B558"/>
<path fill-rule="evenodd" clip-rule="evenodd" d="M110.1 68.2C80.3998 68.2 56.2998 92.3 56.2998 122C56.2998 134.5 60.4998 146 67.6998 155.1H152.6C159.7 146 164 134.5 164 122C164 92.3 139.9 68.2 110.1 68.2ZM148.7 154.1H71.6998C64.3998 145.4 59.9998 134.2 59.9998 122C59.9998 94.3 82.3998 71.9 110.1 71.9C137.8 71.9 160.2 94.3 160.2 122C160.3 134.2 155.9 145.4 148.7 154.1Z" fill="#221F1F"/>
<path fill-rule="evenodd" clip-rule="evenodd" d="M202.2 130.7C202.2 131.7 201.4 132.6 200.3 132.6H179.3C178.3 132.6 177.4 131.8 177.4 130.7C177.4 129.7 178.2 128.8 179.3 128.8H200.3C201.4 128.9 202.2 129.7 202.2 130.7Z" fill="#221F1F"/>
<path fill-rule="evenodd" clip-rule="evenodd" d="M45.8001 122C45.8001 123 45.0001 123.9 43.9001 123.9H23.0001C22.0001 123.9 21.1001 123.1 21.1001 122C21.1001 121 21.9001 120.1 23.0001 120.1H44.0001C45.0001 120.2 45.8001 121 45.8001 122Z" fill="#221F1F"/>
<path fill-rule="evenodd" clip-rule="evenodd" d="M174 58.7C174.7 59.4 174.7 60.6 174 61.3L159.1 76.2C158.4 76.9 157.2 76.9 156.5 76.2C155.8 75.5 155.8 74.3 156.5 73.6L171.4 58.7C172.1 58 173.3 58 174 58.7Z" fill="#221F1F"/>
<path fill-rule="evenodd" clip-rule="evenodd" d="M47.3998 58.7C48.0998 58 49.2998 58 49.9998 58.7L64.8998 73.6C65.5998 74.3 65.5998 75.5 64.8998 76.2C64.1998 76.9 62.9998 76.9 62.2998 76.2L47.3998 61.3C46.5998 60.6 46.5998 59.4 47.3998 58.7Z" fill="#221F1F"/>
<path fill-rule="evenodd" clip-rule="evenodd" d="M31.6001 154.1C31.6001 153.1 32.4001 152.2 33.5001 152.2H186.8C187.8 152.2 188.7 153 188.7 154.1C188.7 155.1 187.9 156 186.8 156H33.5001C32.5001 155.9 31.6001 155.1 31.6001 154.1Z" fill="#221F1F"/>
<path fill-rule="evenodd" clip-rule="evenodd" d="M52.5 178.6C52.5 177.6 53.3 176.7 54.4 176.7H88.7C89.7 176.7 90.6 177.5 90.6 178.6C90.6 179.6 89.8 180.5 88.7 180.5H54.3C53.3 180.4 52.5 179.6 52.5 178.6Z" fill="#A0A0A0"/>
<path d="M139 114.9C133 114.9 128.1 110 128.1 104C128.1 98 133 93.1 139 93.1C140.7 93.1 142.4 93.5 143.9 94.3L145.1 94.9L145.4 93.6C147.2 85.7 154.3 79.9 162.5 79.9C168.7 79.9 174.5 83.2 177.6 88.5L178.1 89.3L179 88.8C181 87.7 183.3 87.1 185.6 87.1C193.2 87.1 199.4 93.3 199.4 100.9C199.4 108.5 193.2 114.7 185.6 114.7H139V114.9Z" fill="white"/>
<path d="M176.3 113.2C184.2 111.7 191.1 106.4 191.1 99C191.1 94 188.1 90 183.8 87.7C190.8 87.7 196.7 93.8 196.7 100.7C196.7 108.1 190.2 114.1 182.1 114.1H169.4L176.3 113.2Z" fill="#E6E6E6"/>
<path fill-rule="evenodd" clip-rule="evenodd" d="M187.3 115.8C194.6 114.9 200.3 108.7 200.3 101.1C200.3 92.9 193.7 86.3 185.5 86.3C182.9 86.3 180.5 87 178.4 88.1C175.2 82.6 169.2 79 162.4 79C154.9 79 148.4 83.5 145.5 89.9C145 91 144.6 92.2 144.3 93.4C143.2 92.8 142 92.5 140.8 92.3C140.2 92.2 139.6 92.2 139 92.2C132.4 92.2 127.1 97.5 127.1 104.1C127.1 110 131.5 115 137.2 115.9C137.8 116 138.4 116 139 116H185.5C186.1 115.9 186.7 115.9 187.3 115.8ZM175.1 90C176.1 91.7 178.3 92.3 180.1 91.4C181.7 90.5 183.5 90 185.4 90C191.5 90 196.5 95 196.5 101.1C196.5 107.2 191.5 112.2 185.4 112.2H139C134.5 112.2 130.8 108.5 130.8 104C130.8 99.5 134.5 95.8 139 95.8C140.3 95.8 141.6 96.1 142.7 96.7C143.7 97.2 144.9 97.2 146 96.7C147 96.2 147.8 95.3 148 94.2C149.5 87.6 155.4 82.6 162.4 82.6C167.8 82.6 172.6 85.6 175.1 90Z" fill="#221F1F"/>
<path fill-rule="evenodd" clip-rule="evenodd" d="M89 189.7C89 188.7 89.8 187.8 90.9 187.8H128.4C129.4 187.8 130.3 188.6 130.3 189.7C130.3 190.7 129.5 191.6 128.4 191.6H90.9C89.8 191.5 89 190.7 89 189.7Z" fill="#A0A0A0"/>
<path fill-rule="evenodd" clip-rule="evenodd" d="M62.9004 167.9C62.9004 166.9 63.7004 166 64.8004 166H114.7C115.7 166 116.6 166.8 116.6 167.9C116.6 168.9 115.8 169.8 114.7 169.8H64.7004C63.7004 169.8 62.9004 169 62.9004 167.9Z" fill="#A0A0A0"/>
<path fill-rule="evenodd" clip-rule="evenodd" d="M124 167.9C124 166.9 124.8 166 125.9 166H154.6C155.6 166 156.5 166.8 156.5 167.9C156.5 168.9 155.7 169.8 154.6 169.8H125.9C124.8 169.8 124 169 124 167.9Z" fill="#A0A0A0"/>
<path fill-rule="evenodd" clip-rule="evenodd" d="M97.2998 178.6C97.2998 177.6 98.0998 176.7 99.1998 176.7H167.3C168.3 176.7 169.2 177.5 169.2 178.6C169.2 179.6 168.4 180.5 167.3 180.5H99.1998C98.1998 180.4 97.2998 179.6 97.2998 178.6Z" fill="#A0A0A0"/>
<path fill-rule="evenodd" clip-rule="evenodd" d="M110.7 32.5C111.7 32.5 112.6 33.3 112.6 34.4V55.4C112.6 56.4 111.8 57.3 110.7 57.3C109.7 57.3 108.8 56.5 108.8 55.4V34.4C108.8 33.3 109.6 32.5 110.7 32.5Z" fill="#221F1F"/>
<path d="M30.5998 130.5C24.3998 130.5 19.2998 125.3 19.2998 119C19.2998 112.7 24.3998 107.5 30.5998 107.5C32.4998 107.5 34.3998 108 35.9998 108.9L36.8998 109.4L37.3998 108.5C39.9998 104.1 44.6998 101.3 49.7998 101.3C56.4998 101.3 62.3998 106.1 63.7998 112.7L63.9998 114L65.1998 113.4C66.3998 112.8 67.7998 112.4 69.1998 112.4C74.0998 112.4 78.0998 116.4 78.0998 121.4C78.0998 126.4 74.0998 130.4 69.1998 130.4H30.5998V130.5Z" fill="white"/>
<path fill-rule="evenodd" clip-rule="evenodd" d="M28.7002 131.3C22.8002 130.4 18.2002 125.2 18.2002 119C18.2002 112.1 23.7002 106.5 30.5002 106.5C32.6002 106.5 34.7002 107.1 36.4002 108C39.1002 103.4 44.0002 100.3 49.6002 100.3C55.6002 100.3 60.8002 103.8 63.4002 109C63.9002 110.1 64.4002 111.3 64.6002 112.5C65.7002 111.9 66.9002 111.6 68.2002 111.5C68.5002 111.5 68.8002 111.5 69.1002 111.5C74.6002 111.5 79.0002 116 79.0002 121.5C79.0002 126.4 75.5002 130.5 71.0002 131.3C70.4002 131.4 69.8002 131.5 69.2002 131.5H30.6002C30.0002 131.5 29.3002 131.4 28.7002 131.3ZM39.7002 109.9C38.7002 111.6 36.5002 112.3 34.7002 111.3C33.5002 110.6 32.1002 110.2 30.6002 110.2C25.9002 110.2 22.0002 114.1 22.0002 119C22.0002 123.9 25.9002 127.8 30.6002 127.8H69.2002C72.6002 127.8 75.4002 125 75.4002 121.5C75.4002 118 72.6002 115.2 69.2002 115.2C68.2002 115.2 67.3002 115.4 66.4002 115.9C65.4002 116.4 64.2002 116.4 63.1002 116C62.1002 115.5 61.3002 114.6 61.1002 113.4C59.9002 108.1 55.2002 104.1 49.7002 104.1C45.5002 104 41.7002 106.4 39.7002 109.9Z" fill="#221F1F"/>
</g>
<defs>
<clipPath id="clip0_4242_1128">
<rect width="192" height="164" fill="white" transform="translate(14 28)"/>
</clipPath>
</defs>
</svg>
