<svg width="165" height="165" viewBox="0 0 165 165" fill="none" xmlns="http://www.w3.org/2000/svg">
<path d="M13.9122 147.412C10.9122 147.412 8.17475 145.912 6.56225 143.362C4.94974 140.85 4.76225 137.7 6.07475 135L47.7372 48.5624C48.9747 46.0124 51.4872 44.4374 54.2997 44.4374C57.1122 44.4374 59.6997 46.0499 60.8622 48.5999L69.5622 66.5999L91.1622 21.7499C91.4622 21.1124 91.8747 20.5124 92.3622 19.9874C93.7497 18.4499 95.6998 17.5874 97.7623 17.5874C100.612 17.5874 103.125 19.1624 104.325 21.7499L121.237 56.7749C121.35 57.0374 121.462 57.2999 121.537 57.5624L158.85 135C160.162 137.737 159.975 140.85 158.362 143.362C156.75 145.912 154.05 147.412 151.087 147.412H13.9122Z" fill="white"/>
<path d="M95.4749 23.7749L69.5999 77.5124L56.6249 50.5874C55.6874 48.6749 52.9874 48.6749 52.0499 50.5874L10.3874 137.062C9.14994 139.65 11.0249 142.687 13.9124 142.687H38.2124H100.987H151.125C154.012 142.687 155.887 139.687 154.65 137.062L100.087 23.8124C99.1124 21.8624 96.4124 21.8624 95.4749 23.7749Z" fill="#A2D6FF"/>
<path d="M151.088 144.038H13.9128C12.0753 144.038 10.3878 143.1 9.41275 141.562C8.43775 140.025 8.32525 138.112 9.11275 136.462L50.7753 50.025C51.4503 48.6375 52.8003 47.8125 54.3003 47.8125C55.8003 47.8125 57.1878 48.675 57.8252 50.025L69.5628 74.3625L94.2002 23.2125C94.8753 21.825 96.2253 21 97.7253 21C99.2628 21 100.613 21.8625 101.25 23.2125L155.813 136.462C156.6 138.112 156.488 140.025 155.513 141.562C154.538 143.1 152.925 144.038 151.088 144.038ZM54.3378 50.55C54.1128 50.55 53.5878 50.625 53.2878 51.1875L11.6253 137.663C11.2503 138.45 11.2878 139.35 11.7753 140.1C12.2628 140.85 13.0128 141.263 13.9128 141.263H151.088C151.988 141.263 152.738 140.85 153.225 140.1C153.713 139.35 153.75 138.45 153.375 137.663L98.8128 24.375C98.5127 23.775 97.9878 23.7375 97.7628 23.7375C97.5378 23.7375 97.0127 23.8125 96.7128 24.375L70.8377 78.1125C70.6128 78.6 70.1253 78.9 69.6003 78.9C69.0753 78.9 68.5878 78.6 68.3628 78.1125L55.3878 51.1875C55.0878 50.5875 54.5253 50.55 54.3378 50.55Z" fill="#221F1F"/>
<path d="M79.9128 100.725C79.3878 100.725 78.9003 100.425 78.6753 99.9373L67.3503 76.2373C67.0128 75.5623 67.3128 74.6998 67.9878 74.3998C68.6628 74.0623 69.5253 74.3623 69.8253 75.0373L81.1503 98.7373C81.4878 99.4123 81.1878 100.275 80.5128 100.575C80.3253 100.65 80.1378 100.725 79.9128 100.725Z" fill="#221F1F"/>
<path d="M116.963 58.8748L100.05 23.8123C99.1127 21.8998 96.4127 21.8998 95.4752 23.8123L80.7002 54.4873L90.9002 51.2998L100.763 67.1998L107.588 53.9998L116.963 58.8748Z" fill="white"/>
<path d="M100.763 68.5874C100.276 68.5874 99.8255 68.3249 99.6005 67.9124L90.3005 52.9124L81.113 55.7624C80.588 55.9124 80.0255 55.7624 79.6505 55.3499C79.2755 54.9374 79.2005 54.3374 79.463 53.8499L94.238 23.1749C94.913 21.7874 96.263 20.9624 97.763 20.9624C99.3005 20.9624 100.651 21.8249 101.288 23.1749L118.201 58.2374C118.463 58.7624 118.351 59.4374 117.901 59.8499C117.488 60.2624 116.813 60.3749 116.288 60.0749L108.188 55.8374L102.001 67.8374C101.776 68.2874 101.326 68.5499 100.838 68.5874C100.801 68.5874 100.801 68.5874 100.763 68.5874ZM90.9005 49.8749C91.388 49.8749 91.838 50.0999 92.063 50.5499L100.651 64.3874L106.351 53.3624C106.538 53.0249 106.801 52.7999 107.176 52.6874C107.513 52.5749 107.926 52.6124 108.226 52.7999L113.851 55.7624L98.813 24.3749C98.513 23.7749 97.988 23.7374 97.763 23.7374C97.538 23.7374 97.013 23.8124 96.713 24.3749L83.3255 52.1624L90.488 49.9499C90.638 49.9124 90.7505 49.8749 90.9005 49.8749Z" fill="#221F1F"/>
<path d="M34.6128 89.9248L11.6253 137.662C11.2503 138.45 11.2878 139.35 11.7753 140.1C12.2628 140.85 13.0128 141.262 13.9128 141.262H69.2628C61.7628 119.7 49.6503 101.775 34.6128 89.9248Z" fill="#8EBFE2"/>
<path d="M92.3248 116.025L79.4248 141.262H108.075C105.412 130.312 99.7123 121.275 92.3248 116.025Z" fill="#8EBFE2"/>
<path d="M79.538 144.038C79.3505 144.038 79.1255 144 78.938 143.888C78.263 143.55 77.963 142.725 78.3005 142.05L98.063 101.025C98.738 99.6375 100.088 98.8125 101.588 98.8125C103.125 98.8125 104.475 99.675 105.113 101.025L117.9 127.575C118.238 128.25 117.938 129.113 117.263 129.413C116.588 129.75 115.725 129.45 115.425 128.775L102.638 102.225C102.338 101.625 101.813 101.587 101.588 101.587C101.363 101.587 100.838 101.663 100.538 102.225L80.7755 143.25C80.5505 143.737 80.063 144.038 79.538 144.038Z" fill="#221F1F"/>
</svg>
