<svg width="165" height="165" viewBox="0 0 165 165" fill="none" xmlns="http://www.w3.org/2000/svg">
<path d="M49.2746 88.0122C45.4496 86.3247 40.3871 85.7997 34.8371 86.7747C22.9496 88.8747 13.3496 97.0872 13.3496 105.112C13.3496 113.137 22.9871 117.937 34.8371 115.875C46.7246 113.775 56.3246 105.562 56.3246 97.5372V19.7622L49.2746 20.9997V88.0122Z" fill="white"/>
<path d="M29.3998 117.75C23.9998 117.75 19.2373 116.325 16.0123 113.587C13.3498 111.337 11.9248 108.412 11.9248 105.112C11.9248 100.8 14.3248 96.4125 18.7123 92.6625C22.9498 89.025 28.5748 86.475 34.5748 85.425C39.3748 84.5625 44.0248 84.7875 47.8873 86.025V21C47.8873 20.325 48.3748 19.7625 49.0498 19.65L56.0998 18.4125C56.5123 18.3375 56.9248 18.45 57.2248 18.7125C57.5248 18.975 57.7123 19.35 57.7123 19.7625V97.5375C57.7123 101.85 55.3123 106.237 50.9248 109.987C46.6873 113.625 41.0623 116.175 35.0623 117.225C33.1498 117.6 31.2373 117.75 29.3998 117.75ZM40.2748 87.7125C38.5873 87.7125 36.8623 87.8625 35.0623 88.1625C23.8498 90.15 14.6998 97.7625 14.6998 105.112C14.6998 107.55 15.7873 109.762 17.8123 111.45C21.4873 114.562 27.7873 115.687 34.5748 114.487C45.7873 112.5 54.9373 104.887 54.9373 97.5375V21.4125L50.6623 22.1625V88.0125C50.6623 88.4625 50.4373 88.9125 50.0248 89.175C49.6498 89.4375 49.1248 89.475 48.7123 89.2875C46.3123 88.2375 43.4248 87.7125 40.2748 87.7125Z" fill="#221F1F"/>
<path d="M144.638 39.6374L93.5258 48.6374L86.4758 49.8749V116.887C82.6508 115.2 77.5883 114.675 72.0383 115.65C60.1508 117.75 50.5508 125.962 50.5508 133.987C50.5508 142.012 60.1883 146.812 72.0383 144.75C83.9258 142.65 93.5258 134.437 93.5258 126.412V71.1749L144.638 62.1749V106.65C140.813 104.962 135.751 104.437 130.201 105.412C118.313 107.512 108.713 115.725 108.713 123.75C108.713 131.775 118.351 136.575 130.201 134.512C142.088 132.412 151.688 124.2 151.688 116.175V38.3999L144.638 39.6374Z" fill="white"/>
<path d="M66.5629 146.625C61.1629 146.625 56.4004 145.2 53.1754 142.463C50.5129 140.213 49.0879 137.288 49.0879 133.988C49.0879 129.675 51.4879 125.288 55.8754 121.538C60.1129 117.9 65.7379 115.35 71.7379 114.3C76.5379 113.438 81.1879 113.663 85.0504 114.9V49.8751C85.0504 49.2001 85.5379 48.6376 86.2129 48.5251L144.375 38.2501L151.425 37.0126C151.838 36.9376 152.25 37.0501 152.55 37.3126C152.85 37.5751 153.038 37.9501 153.038 38.3626V116.138C153.038 120.45 150.638 124.838 146.25 128.588C142.013 132.225 136.388 134.775 130.388 135.825C122.775 137.175 115.65 135.825 111.338 132.188C108.675 129.938 107.25 127.013 107.25 123.713C107.25 119.4 109.65 115.013 114.038 111.263C118.275 107.625 123.9 105.075 129.9 104.025C134.7 103.163 139.35 103.388 143.213 104.625V63.8251L94.8754 72.3376V126.413C94.8754 130.725 92.4754 135.113 88.0879 138.863C83.8504 142.5 78.2254 145.05 72.2254 146.1C70.3129 146.475 68.4004 146.625 66.5629 146.625ZM77.4379 116.588C75.7504 116.588 74.0254 116.738 72.2254 117.038C61.0129 119.025 51.8629 126.638 51.8629 133.988C51.8629 136.425 52.9504 138.638 54.9754 140.325C58.6504 143.438 64.9504 144.563 71.7379 143.363C82.9504 141.375 92.1004 133.763 92.1004 126.413V71.1751C92.1004 70.5001 92.5879 69.9376 93.2629 69.8251L144.375 60.8251C144.788 60.7501 145.2 60.8626 145.5 61.1251C145.8 61.3876 145.988 61.7626 145.988 62.1751V106.65C145.988 107.1 145.763 107.55 145.35 107.813C144.975 108.075 144.45 108.113 144.038 107.925C140.325 106.313 135.488 105.9 130.388 106.8C119.175 108.788 110.025 116.4 110.025 123.75C110.025 126.188 111.113 128.4 113.138 130.088C116.813 133.2 123.113 134.325 129.9 133.125C141.113 131.138 150.263 123.525 150.263 116.175V40.0501L87.8254 51.0751V116.925C87.8254 117.375 87.6004 117.825 87.1879 118.088C86.8129 118.35 86.2879 118.388 85.8754 118.2C83.4754 117.113 80.5879 116.588 77.4379 116.588Z" fill="#221F1F"/>
</svg>
