<svg width="165" height="165" viewBox="0 0 165 165" fill="none" xmlns="http://www.w3.org/2000/svg">
<path d="M66.5623 150C60.2998 150 54.7498 148.237 50.9998 145.05C47.5498 142.125 45.7123 138.3 45.7123 133.987C45.7123 128.7 48.5248 123.375 53.6998 118.987C58.3498 114.975 64.5748 112.162 71.1748 111C73.2748 110.625 75.3748 110.438 77.4373 110.438C78.8998 110.438 80.3248 110.55 81.7123 110.737V49.875C81.7123 47.55 83.3998 45.5625 85.6873 45.1875L143.812 34.9125L150.862 33.675C151.125 33.6375 151.425 33.6 151.687 33.6C152.812 33.6 153.937 34.0125 154.8 34.7625C155.85 35.6625 156.45 36.975 156.45 38.3625V116.138C156.45 121.425 153.637 126.75 148.462 131.138C143.812 135.15 137.587 137.963 130.987 139.125C128.887 139.5 126.787 139.688 124.725 139.688C118.5 139.688 112.987 137.925 109.2 134.737C105.75 131.812 103.912 127.987 103.912 123.675C103.912 118.387 106.725 113.062 111.9 108.675C116.55 104.662 122.775 101.85 129.375 100.688C131.475 100.312 133.575 100.125 135.637 100.125C137.1 100.125 138.525 100.237 139.912 100.425V67.8375L98.2498 75.1875V126.413C98.2498 131.7 95.4373 137.025 90.2623 141.413C85.6123 145.387 79.4248 148.238 72.8248 149.4C70.8748 149.812 68.7373 150 66.5623 150ZM29.3998 121.125C23.1373 121.125 17.5873 119.362 13.8373 116.175C10.3873 113.25 8.5498 109.425 8.5498 105.112C8.5498 99.825 11.3623 94.5 16.5373 90.1125C21.1873 86.1 27.4123 83.2875 34.0123 82.125C36.1123 81.75 38.2123 81.5625 40.2748 81.5625C41.7373 81.5625 43.1623 81.675 44.5498 81.8625V21C44.5498 18.675 46.2373 16.6875 48.5248 16.3125L55.5373 15.075C55.7998 15.0375 56.0998 15 56.3623 15C57.4873 15 58.6123 15.4125 59.4748 16.1625C60.5248 17.0625 61.1248 18.375 61.1248 19.7625V97.5375C61.1248 102.825 58.3123 108.15 53.1373 112.538C48.4873 116.513 42.2998 119.362 35.6998 120.525C33.7123 120.938 31.5748 121.125 29.3998 121.125Z" fill="white"/>
<path d="M49.2746 88.0125C45.4496 86.325 40.3871 85.7999 34.8371 86.7749C22.9496 88.8749 13.3496 97.0874 13.3496 105.112C13.3496 113.137 22.9871 117.937 34.8371 115.875C46.7246 113.775 56.3246 105.562 56.3246 97.5375V19.7625L49.2746 21V88.0125Z" fill="#B9B9FF"/>
<path d="M29.3998 117.75C23.9998 117.75 19.2373 116.325 16.0123 113.587C13.3498 111.337 11.9248 108.412 11.9248 105.112C11.9248 100.8 14.3248 96.4125 18.7123 92.6625C22.9498 89.025 28.5748 86.475 34.5748 85.425C39.3748 84.5625 44.0248 84.7875 47.8873 86.025V21C47.8873 20.325 48.3748 19.7625 49.0498 19.65L56.0998 18.4125C56.5123 18.3375 56.9248 18.45 57.2248 18.7125C57.5248 18.975 57.7123 19.35 57.7123 19.7625V97.5375C57.7123 101.85 55.3123 106.237 50.9248 109.987C46.6873 113.625 41.0623 116.175 35.0623 117.225C33.1498 117.6 31.2373 117.75 29.3998 117.75ZM40.2748 87.7125C38.5873 87.7125 36.8623 87.8625 35.0623 88.1625C23.8498 90.15 14.6998 97.7625 14.6998 105.112C14.6998 107.55 15.7873 109.762 17.8123 111.45C21.4873 114.562 27.7873 115.687 34.5748 114.487C45.7873 112.5 54.9373 104.887 54.9373 97.5375V21.4125L50.6623 22.1625V88.0125C50.6623 88.4625 50.4373 88.9125 50.0248 89.175C49.6498 89.4375 49.1248 89.475 48.7123 89.2875C46.3123 88.2375 43.4248 87.7125 40.2748 87.7125Z" fill="#221F1F"/>
<path d="M144.637 39.6376L93.5248 48.6376L86.4748 49.8751V116.888C82.6498 115.2 77.5873 114.675 72.0373 115.65C60.1498 117.75 50.5498 125.963 50.5498 133.988C50.5498 142.013 60.1873 146.813 72.0373 144.75C83.9248 142.65 93.5248 134.438 93.5248 126.413V71.1751L144.637 62.1751V106.65C140.812 104.963 135.75 104.438 130.2 105.413C118.312 107.513 108.712 115.725 108.712 123.75C108.712 131.775 118.35 136.575 130.2 134.513C142.087 132.413 151.687 124.2 151.687 116.175V38.4001L144.637 39.6376Z" fill="#B9B9FF"/>
<path d="M66.5619 146.625C61.1619 146.625 56.3994 145.2 53.1744 142.463C50.5119 140.213 49.0869 137.288 49.0869 133.988C49.0869 129.675 51.4869 125.288 55.8744 121.538C60.1119 117.9 65.7369 115.35 71.7369 114.3C76.5369 113.438 81.1869 113.663 85.0494 114.9V49.8751C85.0494 49.2001 85.5369 48.6376 86.2119 48.5251L144.374 38.2501L151.424 37.0126C151.837 36.9376 152.249 37.0501 152.549 37.3126C152.849 37.5751 153.037 37.9501 153.037 38.3626V116.138C153.037 120.45 150.637 124.838 146.249 128.588C142.012 132.225 136.387 134.775 130.387 135.825C122.774 137.175 115.649 135.825 111.337 132.188C108.674 129.938 107.249 127.013 107.249 123.713C107.249 119.4 109.649 115.013 114.037 111.263C118.274 107.625 123.899 105.075 129.899 104.025C134.699 103.163 139.349 103.388 143.212 104.625V63.8251L94.8744 72.3376V126.413C94.8744 130.725 92.4744 135.113 88.0869 138.863C83.8494 142.5 78.2244 145.05 72.2244 146.1C70.3119 146.475 68.3994 146.625 66.5619 146.625ZM77.4369 116.588C75.7494 116.588 74.0244 116.738 72.2244 117.038C61.0119 119.025 51.8619 126.638 51.8619 133.988C51.8619 136.425 52.9494 138.638 54.9744 140.325C58.6494 143.438 64.9494 144.563 71.7369 143.363C82.9494 141.375 92.0994 133.763 92.0994 126.413V71.1751C92.0994 70.5001 92.5869 69.9376 93.2619 69.8251L144.374 60.8251C144.787 60.7501 145.199 60.8626 145.499 61.1251C145.799 61.3876 145.987 61.7626 145.987 62.1751V106.65C145.987 107.1 145.762 107.55 145.349 107.813C144.974 108.075 144.449 108.113 144.037 107.925C140.324 106.313 135.487 105.9 130.387 106.8C119.174 108.788 110.024 116.4 110.024 123.75C110.024 126.188 111.112 128.4 113.137 130.088C116.812 133.2 123.112 134.325 129.899 133.125C141.112 131.138 150.262 123.525 150.262 116.175V40.0501L87.8244 51.0751V116.925C87.8244 117.375 87.5994 117.825 87.1869 118.088C86.8119 118.35 86.2869 118.388 85.8744 118.2C83.4744 117.113 80.5869 116.588 77.4369 116.588Z" fill="#221F1F"/>
<path d="M55.6869 125.587C53.2869 128.212 51.8994 131.137 51.8994 134.025C51.8994 136.462 52.9869 138.675 55.0119 140.362C58.6869 143.475 64.9869 144.6 71.7744 143.4C80.0994 141.937 87.2619 137.362 90.4119 132.112C86.6244 133.837 82.1244 134.85 77.2869 134.85C67.9494 134.812 59.8119 131.1 55.6869 125.587Z" fill="#9891F5"/>
<path d="M111.862 117.938C110.7 119.812 110.062 121.8 110.062 123.75C110.062 126.188 111.15 128.4 113.175 130.087C116.85 133.2 123.15 134.325 129.938 133.125C138.975 131.512 146.663 126.263 149.325 120.413C144.9 123.563 138.788 125.475 132.075 125.475C123.675 125.513 116.287 122.512 111.862 117.938Z" fill="#9891F5"/>
<path d="M37.9123 106.2C29.2873 106.2 21.6748 103.013 17.3248 98.175C15.6748 100.388 14.7373 102.788 14.7373 105.15C14.7373 107.588 15.8248 109.8 17.8498 111.488C21.5248 114.6 27.8248 115.725 34.6123 114.525C43.6123 112.95 51.2623 107.738 53.9248 101.925C49.6123 104.588 44.0248 106.2 37.9123 106.2Z" fill="#9891F5"/>
</svg>
