<svg width="220" height="220" viewBox="0 0 220 220" fill="none" xmlns="http://www.w3.org/2000/svg">
<path d="M116.7 202.35C69.5498 202.35 31.1998 163.95 31.1998 116.75C31.1998 101.2 35.2998 86.3 43.1498 73.15C28.9498 71.95 17.7998 59.95 17.7998 45.45C17.7998 30.1 30.2498 17.65 45.5498 17.65C60.0498 17.65 71.9998 28.85 73.1998 43.1C86.3498 35.25 101.2 31.15 116.7 31.15C163.85 31.15 202.2 69.55 202.2 116.75C202.2 163.95 163.85 202.35 116.7 202.35ZM45.5498 40.95C43.1498 40.95 41.1998 42.95 41.1998 45.45C41.1998 47.9 43.1998 49.95 45.5498 49.95C47.9498 49.95 49.8998 47.95 49.8998 45.45C49.8998 42.95 47.9498 40.95 45.5498 40.95Z" fill="white"/>
<path d="M116.7 195.95C160.413 195.95 195.85 160.469 195.85 116.7C195.85 72.9315 160.413 37.4501 116.7 37.4501C72.9865 37.4501 37.5498 72.9315 37.5498 116.7C37.5498 160.469 72.9865 195.95 116.7 195.95Z" fill="#FCD26E"/>
<path d="M116.699 197.85C72.0492 197.85 35.6992 161.45 35.6992 116.75C35.6992 72.05 72.0492 35.65 116.699 35.65C161.349 35.65 197.699 72.05 197.699 116.75C197.699 161.45 161.349 197.85 116.699 197.85ZM116.699 39.3C74.0992 39.3 39.3992 74.05 39.3992 116.7C39.3992 159.35 74.0492 194.1 116.699 194.1C159.349 194.1 193.999 159.4 193.999 116.7C193.999 74 159.349 39.3 116.699 39.3Z" fill="#221F1F"/>
<path d="M116.701 180.9C152.102 180.9 180.801 152.157 180.801 116.7C180.801 81.2433 152.102 52.5 116.701 52.5C81.2991 52.5 52.6006 81.2433 52.6006 116.7C52.6006 152.157 81.2991 180.9 116.701 180.9Z" fill="white"/>
<path d="M116.7 182.75C80.35 182.75 50.75 153.15 50.75 116.7C50.75 80.25 80.35 50.65 116.7 50.65C153.05 50.65 182.65 80.25 182.65 116.7C182.65 153.15 153.05 182.75 116.7 182.75ZM116.7 54.4C82.4 54.4 54.45 82.35 54.45 116.75C54.45 151.15 82.35 179.1 116.7 179.1C151.05 179.1 178.95 151.15 178.95 116.75C178.95 82.35 151 54.4 116.7 54.4Z" fill="#221F1F"/>
<path d="M109.049 69.1C144.449 69.1 173.149 97.85 173.149 133.3C173.149 137.4 172.749 141.4 172.049 145.25C176.449 136.7 178.949 127 178.949 116.75C178.949 82.4 151.049 54.4 116.699 54.4C90.7494 54.4 68.4994 70.4 59.1494 93.05C70.8994 78.45 88.8994 69.1 109.049 69.1Z" fill="#CAE5FF"/>
<path d="M104.722 124.458L90.474 76.4103L128.622 108.973L142.871 157.02L104.722 124.458Z" fill="#979797"/>
<path d="M89.1657 75.1022C89.2718 74.9962 89.3425 74.9254 89.4839 74.8547C90.1557 74.3951 91.0749 74.4658 91.6759 74.9962L129.824 107.558C130.107 107.771 130.284 108.089 130.425 108.442L144.674 156.49C144.886 157.268 144.603 158.117 143.931 158.576C143.259 159.036 142.34 158.965 141.739 158.435L103.591 125.872C103.308 125.66 103.131 125.342 102.99 124.989L88.7414 76.9407C88.494 76.2689 88.7061 75.5618 89.1657 75.1022ZM127.031 109.998L94.0447 81.8198L106.348 123.398L139.335 151.576L127.031 109.998Z" fill="#221F1F"/>
<path d="M104.721 124.458L128.621 108.973L90.4727 76.4105L104.721 124.458Z" fill="#D88C7D"/>
<path d="M89.1647 75.1021C89.2708 74.996 89.3415 74.9253 89.4829 74.8546C90.1547 74.395 91.0739 74.4657 91.675 74.996L129.823 107.558C130.283 107.947 130.495 108.513 130.495 109.079C130.46 109.68 130.142 110.21 129.647 110.493L105.746 125.978C105.287 126.297 104.65 126.367 104.085 126.155C103.519 125.943 103.13 125.483 102.953 124.953L88.7051 76.9052C88.493 76.2688 88.7051 75.5617 89.1647 75.1021ZM125.545 108.725L94.0438 81.8196L105.817 121.524L125.545 108.725Z" fill="#221F1F"/>
<path d="M45.5494 24C33.7494 24 24.1494 33.6 24.1494 45.45C24.1494 57.3 33.7494 66.9 45.5494 66.9C57.3494 66.9 66.9494 57.3 66.9494 45.45C66.9494 33.6 57.3494 24 45.5494 24ZM45.5494 56.3C39.6494 56.3 34.8494 51.45 34.8494 45.45C34.8494 39.45 39.6494 34.6 45.5494 34.6C51.4494 34.6 56.2494 39.45 56.2494 45.45C56.2494 51.45 51.4494 56.3 45.5494 56.3Z" fill="#FCD26E"/>
<path d="M45.5498 68.75C32.7498 68.75 22.2998 58.3 22.2998 45.45C22.2998 32.6 32.7498 22.15 45.5498 22.15C58.3498 22.15 68.7998 32.6 68.7998 45.45C68.7998 58.3 58.3498 68.75 45.5498 68.75ZM45.5498 25.85C34.7498 25.85 25.9998 34.65 25.9998 45.45C25.9998 56.25 34.7498 65.05 45.5498 65.05C56.3498 65.05 65.0998 56.25 65.0998 45.45C65.0998 34.65 56.3498 25.85 45.5498 25.85ZM45.5498 58.15C38.5998 58.15 32.9998 52.45 32.9998 45.45C32.9998 38.45 38.6498 32.75 45.5498 32.75C52.4498 32.75 58.0998 38.45 58.0998 45.45C58.0998 52.45 52.4998 58.15 45.5498 58.15ZM45.5498 36.45C40.6498 36.45 36.6998 40.5 36.6998 45.45C36.6998 50.4 40.6998 54.45 45.5498 54.45C50.4498 54.45 54.3998 50.4 54.3998 45.45C54.3998 40.5 50.4498 36.45 45.5498 36.45Z" fill="#221F1F"/>
<path d="M162 196.667C165.744 196.667 172.667 189.795 172.667 186C172.667 189.744 179.538 196.667 183.333 196.667C179.59 196.667 172.667 203.538 172.667 207.333C172.615 203.538 165.744 196.667 162 196.667Z" fill="#F1C958"/>
<path d="M6.66699 89.3334C9.51699 89.3334 14.667 84.1334 14.667 81.3334C14.667 84.1834 19.867 89.3334 22.667 89.3334C19.817 89.3334 14.667 94.5334 14.667 97.3334C14.667 94.4834 9.51699 89.3334 6.66699 89.3334Z" fill="#F1C958"/>
<path d="M86 23.3333C87.8723 23.3333 91.3333 19.8723 91.3333 18C91.3333 19.8723 94.7943 23.3333 96.6667 23.3333C94.7943 23.3333 91.3333 26.7943 91.3333 28.6667C91.3333 26.7943 87.8723 23.3333 86 23.3333Z" fill="#9E9E9E"/>
<path d="M11 160.333C12.8723 160.333 16.3333 156.872 16.3333 155C16.3333 156.872 19.7943 160.333 21.6667 160.333C19.7943 160.333 16.3333 163.794 16.3333 165.667C16.3333 163.738 12.8723 160.333 11 160.333Z" fill="#9E9E9E"/>
<path d="M198 156.333C199.872 156.333 203.333 152.872 203.333 151C203.333 152.872 206.794 156.333 208.667 156.333C206.794 156.333 203.333 159.794 203.333 161.667C203.333 159.738 199.872 156.333 198 156.333Z" fill="#9E9E9E"/>
<path d="M43 194C45.8387 194 51 188.839 51 186C51 188.839 56.1613 194 59 194C56.1613 194 51 199.161 51 202C51 199.161 45.8387 194 43 194Z" fill="#9E9E9E"/>
<path d="M165 32C167.839 32 173 26.8387 173 24C173 26.8387 178.161 32 181 32C178.161 32 173 37.1613 173 40C173 37.1613 167.839 32 165 32Z" fill="#F1C958"/>
</svg>
