<svg width="165" height="165" viewBox="0 0 165 165" fill="none" xmlns="http://www.w3.org/2000/svg">
<path d="M87.5246 151.763C52.1621 151.763 23.3996 122.963 23.3996 87.5625C23.3996 75.9 26.4746 64.725 32.3621 54.8625C21.7121 53.9625 13.3496 44.9625 13.3496 34.0875C13.3496 22.575 22.6871 13.2375 34.1621 13.2375C45.0371 13.2375 53.9996 21.6375 54.8996 32.325C64.7621 26.4375 75.8996 23.3625 87.5246 23.3625C122.887 23.3625 151.65 52.1625 151.65 87.5625C151.65 122.963 122.887 151.763 87.5246 151.763ZM34.1621 30.7125C32.3621 30.7125 30.8996 32.2125 30.8996 34.0875C30.8996 35.925 32.3996 37.4626 34.1621 37.4626C35.9621 37.4626 37.4246 35.9625 37.4246 34.0875C37.4246 32.2125 35.9621 30.7125 34.1621 30.7125Z" fill="white"/>
<path d="M87.5246 146.963C120.31 146.963 146.887 120.352 146.887 87.5251C146.887 54.6987 120.31 28.0876 87.5246 28.0876C54.7396 28.0876 28.1621 54.6987 28.1621 87.5251C28.1621 120.352 54.7396 146.963 87.5246 146.963Z" fill="#FCD26E"/>
<path d="M87.5244 148.388C54.0369 148.388 26.7744 121.088 26.7744 87.5625C26.7744 54.0375 54.0369 26.7375 87.5244 26.7375C121.012 26.7375 148.274 54.0375 148.274 87.5625C148.274 121.088 121.012 148.388 87.5244 148.388ZM87.5244 29.475C55.5744 29.475 29.5494 55.5375 29.5494 87.525C29.5494 119.513 55.5369 145.575 87.5244 145.575C119.512 145.575 145.499 119.55 145.499 87.525C145.499 55.5 119.512 29.475 87.5244 29.475Z" fill="#221F1F"/>
<path d="M87.5252 135.675C114.076 135.675 135.6 114.118 135.6 87.525C135.6 60.9325 114.076 39.375 87.5252 39.375C60.9741 39.375 39.4502 60.9325 39.4502 87.525C39.4502 114.118 60.9741 135.675 87.5252 135.675Z" fill="white"/>
<path d="M87.525 137.063C60.2625 137.063 38.0625 114.863 38.0625 87.525C38.0625 60.1875 60.2625 37.9875 87.525 37.9875C114.787 37.9875 136.987 60.1875 136.987 87.525C136.987 114.863 114.787 137.063 87.525 137.063ZM87.525 40.8C61.8 40.8 40.8375 61.7625 40.8375 87.5625C40.8375 113.363 61.7625 134.325 87.525 134.325C113.287 134.325 134.212 113.363 134.212 87.5625C134.212 61.7625 113.25 40.8 87.525 40.8Z" fill="#221F1F"/>
<path d="M81.7873 51.825C108.337 51.825 129.862 73.3876 129.862 99.9751C129.862 103.05 129.562 106.05 129.037 108.938C132.337 102.525 134.212 95.25 134.212 87.5625C134.212 61.8 113.287 40.8 87.5248 40.8C68.0623 40.8 51.3748 52.8001 44.3623 69.7875C53.1748 58.8375 66.6748 51.825 81.7873 51.825Z" fill="#CAE5FF"/>
<path d="M78.5419 93.3438L67.8558 57.3078L96.4671 81.7295L107.153 117.765L78.5419 93.3438Z" fill="#979797"/>
<path d="M66.8743 56.3268C66.9538 56.2472 67.0069 56.1942 67.1129 56.1411C67.6167 55.7964 68.3062 55.8495 68.757 56.2472L97.3683 80.6689C97.5804 80.828 97.713 81.0667 97.819 81.3318L108.505 117.368C108.664 117.951 108.452 118.588 107.948 118.932C107.445 119.277 106.755 119.224 106.304 118.826L77.693 94.4045C77.4809 94.2454 77.3483 94.0067 77.2422 93.7415L66.5561 57.7056C66.3705 57.2018 66.5296 56.6715 66.8743 56.3268ZM95.2735 82.4986L70.5336 61.3649L79.7613 92.5483L104.501 113.682L95.2735 82.4986Z" fill="#221F1F"/>
<path d="M78.5407 93.3437L96.4658 81.7295L67.8545 57.3078L78.5407 93.3437Z" fill="#D88C7D"/>
<path d="M66.8738 56.3265C66.9533 56.247 67.0064 56.194 67.1124 56.1409C67.6163 55.7962 68.3057 55.8493 68.7565 56.247L97.3678 80.6687C97.7125 80.9604 97.8716 81.3846 97.8716 81.8089C97.8451 82.2597 97.6064 82.6574 97.2352 82.8696L79.31 94.4838C78.9653 94.7224 78.488 94.7755 78.0638 94.6164C77.6395 94.4573 77.3478 94.1126 77.2152 93.7148L66.5291 57.6789C66.37 57.2016 66.5291 56.6713 66.8738 56.3265ZM94.1593 81.5437L70.5331 61.3647L79.3631 91.1427L94.1593 81.5437Z" fill="#221F1F"/>
<path d="M34.1623 18C25.3123 18 18.1123 25.2 18.1123 34.0875C18.1123 42.975 25.3123 50.175 34.1623 50.175C43.0123 50.175 50.2123 42.975 50.2123 34.0875C50.2123 25.2 43.0123 18 34.1623 18ZM34.1623 42.225C29.7373 42.225 26.1373 38.5875 26.1373 34.0875C26.1373 29.5875 29.7373 25.95 34.1623 25.95C38.5873 25.95 42.1873 29.5875 42.1873 34.0875C42.1873 38.5875 38.5873 42.225 34.1623 42.225Z" fill="#FCD26E"/>
<path d="M34.1621 51.5625C24.5621 51.5625 16.7246 43.725 16.7246 34.0875C16.7246 24.45 24.5621 16.6125 34.1621 16.6125C43.7621 16.6125 51.5996 24.45 51.5996 34.0875C51.5996 43.725 43.7621 51.5625 34.1621 51.5625ZM34.1621 19.3875C26.0621 19.3875 19.4996 25.9875 19.4996 34.0875C19.4996 42.1875 26.0621 48.7875 34.1621 48.7875C42.2621 48.7875 48.8246 42.1875 48.8246 34.0875C48.8246 25.9875 42.2621 19.3875 34.1621 19.3875ZM34.1621 43.6125C28.9496 43.6125 24.7496 39.3375 24.7496 34.0875C24.7496 28.8375 28.9871 24.5625 34.1621 24.5625C39.3371 24.5625 43.5746 28.8375 43.5746 34.0875C43.5746 39.3375 39.3746 43.6125 34.1621 43.6125ZM34.1621 27.3375C30.4871 27.3375 27.5246 30.375 27.5246 34.0875C27.5246 37.8 30.5246 40.8375 34.1621 40.8375C37.8371 40.8375 40.7996 37.8 40.7996 34.0875C40.7996 30.375 37.8371 27.3375 34.1621 27.3375Z" fill="#221F1F"/>
<path d="M121.5 147.5C124.308 147.5 129.5 142.346 129.5 139.5C129.5 142.308 134.654 147.5 137.5 147.5C134.692 147.5 129.5 152.654 129.5 155.5C129.462 152.654 124.308 147.5 121.5 147.5Z" fill="#F1C958"/>
<path d="M5 67C7.1375 67 11 63.1 11 61C11 63.1375 14.9 67 17 67C14.8625 67 11 70.9 11 73C11 70.8625 7.1375 67 5 67Z" fill="#F1C958"/>
<path d="M64.5 17.5C65.9043 17.5 68.5 14.9043 68.5 13.5C68.5 14.9043 71.0957 17.5 72.5 17.5C71.0957 17.5 68.5 20.0957 68.5 21.5C68.5 20.0957 65.9043 17.5 64.5 17.5Z" fill="#9E9E9E"/>
<path d="M8.25 120.25C9.65425 120.25 12.25 117.654 12.25 116.25C12.25 117.654 14.8457 120.25 16.25 120.25C14.8457 120.25 12.25 122.846 12.25 124.25C12.25 122.803 9.65425 120.25 8.25 120.25Z" fill="#9E9E9E"/>
<path d="M148.5 117.25C149.904 117.25 152.5 114.654 152.5 113.25C152.5 114.654 155.096 117.25 156.5 117.25C155.096 117.25 152.5 119.846 152.5 121.25C152.5 119.803 149.904 117.25 148.5 117.25Z" fill="#9E9E9E"/>
<path d="M32.25 145.5C34.379 145.5 38.25 141.629 38.25 139.5C38.25 141.629 42.121 145.5 44.25 145.5C42.121 145.5 38.25 149.371 38.25 151.5C38.25 149.371 34.379 145.5 32.25 145.5Z" fill="#9E9E9E"/>
<path d="M123.75 24C125.879 24 129.75 20.129 129.75 18C129.75 20.129 133.621 24 135.75 24C133.621 24 129.75 27.871 129.75 30C129.75 27.871 125.879 24 123.75 24Z" fill="#F1C958"/>
</svg>
