<svg width="165" height="165" viewBox="0 0 165 165" fill="none" xmlns="http://www.w3.org/2000/svg">
<path d="M143.025 149.1C142.8 147.3 142.313 144.675 141.563 141.337C140.7 137.4 139.5 132.412 138 126.525C140.475 120.525 138.675 113.55 133.463 109.462C131.325 101.7 128.963 93.2625 126.375 84.375C131.4 73.125 132.225 62.8125 128.813 53.6625C125.288 44.2125 117.938 38.175 112.575 34.875C113.588 30.8625 113.513 26.7375 112.313 22.9125C109.95 15.375 103.575 9.75 95.2501 7.8C94.9126 7.725 94.5376 7.6875 94.1626 7.6875C92.8126 7.6875 91.5376 8.25 90.6376 9.225C85.7251 14.625 83.5876 21.45 84.5251 28.05C78.6001 28.125 72.7501 29.025 67.0126 30.75C53.9251 34.6875 42.6751 42.525 34.5001 53.4375C24.3001 66.975 19.9876 83.7 22.3876 100.537C24.7876 117.375 33.5626 132.262 47.1001 142.387C58.2001 150.712 71.3626 155.1 85.2001 155.1C100.463 155.1 115.275 149.55 126.713 139.725C127.463 141.637 128.25 143.475 129 145.275C130.2 148.162 131.363 150.637 132.3 152.475C133.238 154.275 134.813 157.237 138.113 157.237C138.525 157.237 138.938 157.162 139.425 157.05C139.5 157.05 139.575 157.012 139.613 156.975C143.888 155.7 143.288 151.087 143.025 149.1Z" fill="white"/>
<path d="M54.6001 132.375C42.3001 123.113 34.3126 109.613 32.1376 94.3502C30.1501 80.4377 33.2251 66.6001 40.8376 54.9001C40.2751 55.5751 39.7501 56.2501 39.2251 56.9626C29.9626 69.2626 26.0626 84.4501 28.2376 99.7126C30.4126 114.975 38.3626 128.475 50.7001 137.738C76.1251 156.825 112.35 151.688 131.475 126.263C131.925 125.7 132.263 125.063 132.525 124.425C112.763 146.775 78.7876 150.563 54.6001 132.375Z" fill="#F9A936"/>
<path d="M104.363 35.8875C80.888 27.8625 53.9255 35.325 38.213 56.25C18.6755 82.275 23.888 119.212 49.913 138.75C75.938 158.287 112.875 153.075 132.413 127.05C135.75 122.625 134.85 116.325 130.425 112.987C128.475 111.525 126.188 110.887 123.9 111C123.9 110.962 123.9 110.925 123.9 110.925C120.863 111.075 107.438 107.812 114.788 95.475C117.113 91.95 119.063 88.65 120.713 85.5375C137.138 53.4375 112.5 39.15 104.363 35.8875ZM101.025 91.725C98.1755 95.5125 92.813 96.2625 89.063 93.4125C85.2755 90.5625 84.5255 85.2 87.3755 81.45C90.2255 77.6625 95.588 76.9125 99.338 79.7625C103.088 82.6125 103.838 87.975 101.025 91.725Z" fill="#FFD781"/>
<path d="M85.2378 151.763C72.6753 151.763 59.9628 147.825 49.1628 139.725C36.3003 130.088 28.0128 115.988 25.7628 100.088C23.5128 84.1876 27.5628 68.3626 37.2378 55.5001C45.0003 45.1501 55.6503 37.7251 68.0253 34.0126C80.1378 30.3751 92.8503 30.6376 104.775 34.6876C104.813 34.6876 104.813 34.6876 104.85 34.7251C107.475 35.7751 120.75 41.6626 125.663 54.8626C129.075 63.9751 127.763 74.4751 121.838 86.0626C120.113 89.2876 118.088 92.6626 115.875 96.0751C113.7 99.7126 113.325 102.75 114.713 105.113C116.738 108.525 122.1 109.763 123.863 109.65C124.013 109.65 124.2 109.65 124.313 109.725C126.788 109.725 129.188 110.513 131.175 111.975C136.163 115.725 137.175 122.813 133.425 127.763C121.575 143.475 103.5 151.763 85.2378 151.763ZM85.3503 33.9376C79.7628 33.9376 74.1753 34.7626 68.7378 36.3751C56.8878 39.9376 46.6503 47.0251 39.2253 56.9626C29.9628 69.2626 26.0628 84.4501 28.2378 99.7126C30.4128 114.975 38.3628 128.475 50.7003 137.738C76.1253 156.825 112.35 151.688 131.475 126.3C134.4 122.4 133.613 116.888 129.713 113.963C128.063 112.725 126.038 112.125 124.013 112.2C123.825 112.2 123.675 112.163 123.525 112.125C121.125 112.013 115.2 110.663 112.613 106.388C110.7 103.2 111.113 99.3001 113.775 94.8001C113.775 94.8001 113.775 94.7626 113.813 94.7626C116.025 91.3876 117.975 88.0876 119.663 84.9376C125.288 74.0251 126.525 64.2001 123.375 55.7626C118.838 43.6126 106.5 38.1001 103.988 37.0876C97.8753 34.9876 91.6128 33.9376 85.3503 33.9376ZM94.1628 96.3751C92.1003 96.3751 90.0378 95.7376 88.3128 94.4251C86.2128 92.8501 84.8628 90.5626 84.4878 87.9751C84.1128 85.3876 84.7878 82.8001 86.3628 80.7376C87.9378 78.6376 90.2253 77.2876 92.8128 76.9126C95.4003 76.5376 97.9878 77.2126 100.05 78.7876C102.15 80.3626 103.5 82.6501 103.875 85.2376C104.25 87.8251 103.575 90.4126 102 92.4751C100.088 95.0251 97.1253 96.3751 94.1628 96.3751ZM94.2003 79.2751C93.8628 79.2751 93.4878 79.3126 93.1503 79.3501C91.2003 79.6126 89.5128 80.6251 88.3128 82.2001C87.1128 83.7751 86.6253 85.6876 86.9253 87.6376C87.1878 89.5876 88.2003 91.2751 89.7753 92.4751C93.0003 94.9126 97.5753 94.2376 100.013 91.0126C101.175 89.4376 101.7 87.5251 101.4 85.5751C101.138 83.6251 100.125 81.9376 98.5503 80.7376C97.3128 79.8001 95.7753 79.2751 94.2003 79.2751Z" fill="#221F1F"/>
<path d="M67.6873 64.95C72.1815 64.95 75.8248 61.3068 75.8248 56.8125C75.8248 52.3183 72.1815 48.675 67.6873 48.675C63.1931 48.675 59.5498 52.3183 59.5498 56.8125C59.5498 61.3068 63.1931 64.95 67.6873 64.95Z" fill="#9891F5"/>
<path d="M67.6877 66.1875C62.7377 66.1875 58.6127 62.2875 58.3502 57.3C58.0877 52.125 62.0627 47.7375 67.2002 47.475C69.7127 47.325 72.1127 48.1875 73.9502 49.875C75.7877 51.5625 76.9127 53.85 77.0252 56.3625C77.1377 58.875 76.3127 61.275 74.6252 63.1125C72.9377 64.9875 70.6502 66.075 68.1377 66.1875C68.0252 66.1875 67.8377 66.1875 67.6877 66.1875ZM67.6877 49.9125C67.5752 49.9125 67.4252 49.9125 67.3127 49.9125C63.5252 50.1 60.6002 53.3625 60.7877 57.15C60.9752 60.9375 64.2377 63.8625 68.0252 63.675C69.8627 63.5625 71.5502 62.775 72.7877 61.3875C74.0252 60.0375 74.6627 58.2375 74.5502 56.4C74.4377 54.5625 73.6502 52.875 72.2627 51.6375C71.0252 50.55 69.4127 49.9125 67.6877 49.9125Z" fill="#221F1F"/>
<path d="M49.8377 85.4625C54.3319 85.4625 57.9752 81.8192 57.9752 77.325C57.9752 72.8308 54.3319 69.1875 49.8377 69.1875C45.3435 69.1875 41.7002 72.8308 41.7002 77.325C41.7002 81.8192 45.3435 85.4625 49.8377 85.4625Z" fill="#A2D6FF"/>
<path d="M49.8379 86.6626C47.5129 86.6626 45.3004 85.8001 43.5754 84.2626C41.7004 82.5751 40.6129 80.2876 40.5004 77.7751C40.3879 75.2626 41.2129 72.8626 42.9004 71.0251C44.5879 69.1501 46.8754 68.0626 49.3879 67.9501C51.9004 67.8001 54.3004 68.6626 56.1379 70.3501C58.0129 72.0376 59.1004 74.3251 59.2129 76.8376C59.4754 81.9751 55.5004 86.4001 50.3629 86.6626C50.1379 86.6626 49.9879 86.6626 49.8379 86.6626ZM49.8379 70.4251C49.7254 70.4251 49.5754 70.4251 49.4629 70.4251C47.6254 70.5376 45.9379 71.3251 44.7004 72.7126C43.4629 74.0626 42.8254 75.8626 42.9379 77.7001C43.0504 79.5376 43.8379 81.2251 45.2254 82.4626C46.5754 83.7001 48.3754 84.3376 50.2129 84.2251C54.0004 84.0376 56.9254 80.7751 56.7379 76.9876C56.6254 75.1501 55.8379 73.4626 54.4504 72.2251C53.1754 71.0626 51.5629 70.4251 49.8379 70.4251Z" fill="#221F1F"/>
<path d="M133.388 127.763C132.038 129.563 130.613 131.25 129.15 132.825C134.025 145.388 137.4 152.775 138.225 152.513C139.163 152.213 137.25 142.875 133.388 127.763Z" fill="#FFCCBD"/>
<path d="M123.825 109.65C123.975 109.65 124.162 109.65 124.275 109.725C125.85 109.725 127.425 110.025 128.85 110.663C123.038 89.4376 115.013 62.1001 106.013 33.4126L96 36.4876C104.475 63.4126 113.1 88.8751 120.337 109.013C121.762 109.5 123.075 109.688 123.825 109.65Z" fill="#FFCCBD"/>
<path d="M121.95 109.463C114.15 87.7877 105.638 62.5127 97.7254 37.4252L105.113 35.1752C114.263 64.3502 121.838 90.1877 127.275 110.138C128.438 110.438 129.525 110.925 130.538 111.6C124.313 88.7252 115.95 60.4127 107.325 33.0377C107.1 32.3252 106.313 31.9127 105.6 32.1377L95.5879 35.2127C95.2504 35.3252 94.9504 35.5502 94.7629 35.8877C94.5754 36.2252 94.5754 36.6002 94.6504 36.9377C102.375 61.4627 110.888 86.8877 118.575 108.375C119.775 108.9 120.938 109.238 121.95 109.463Z" fill="#221F1F"/>
<path d="M139.688 149.55C139.463 147.825 138.976 145.275 138.263 142.05C137.363 137.888 136.051 132.488 134.401 126.15C134.101 126.713 133.763 127.275 133.388 127.8C133.051 128.25 132.676 128.738 132.338 129.188C134.288 136.875 135.676 142.838 136.426 146.775C135.001 143.7 132.976 138.863 130.201 131.7C129.526 132.488 128.813 133.2 128.101 133.95C129.601 137.813 130.988 141.225 132.151 144C133.426 147.038 134.513 149.363 135.338 150.938C136.088 152.363 136.913 153.9 138.151 153.9C138.301 153.9 138.488 153.863 138.638 153.825C140.176 153.338 139.913 151.313 139.688 149.55Z" fill="#221F1F"/>
<path d="M89.8887 30.0376C90.9387 33.3376 92.9263 36.1126 95.5513 38.2126C99.5638 41.4001 106.314 39.2626 107.776 34.3501C108.751 31.1251 108.789 27.7126 107.739 24.4126C105.789 18.2626 100.539 13.9876 94.1638 12.5251C89.8138 17.3626 87.9387 23.8876 89.8887 30.0376Z" fill="#D88C7D"/>
<path d="M100.051 41.0626C98.0636 41.0626 96.1886 40.4251 94.6886 39.2626C91.7636 36.9376 89.6261 33.9001 88.5386 30.4126C86.5136 24.0001 88.2386 16.9501 93.1511 11.5501C93.4886 11.1751 94.0136 11.0251 94.5011 11.1376C101.626 12.7876 107.064 17.5501 109.089 23.9626C110.176 27.4126 110.176 31.1251 109.126 34.7251C108.301 37.4626 106.051 39.6751 103.051 40.6126C102.039 40.9126 101.064 41.0626 100.051 41.0626ZM94.6886 14.0626C90.8636 18.6376 89.5886 24.4126 91.2011 29.6251C92.1386 32.5501 93.9386 35.1376 96.4136 37.1251C97.9511 38.3251 100.089 38.6626 102.189 37.9876C104.289 37.3126 105.864 35.8126 106.426 33.9376C107.326 30.9001 107.326 27.7501 106.426 24.8251C104.776 19.6126 100.426 15.6376 94.6886 14.0626Z" fill="#221F1F"/>
<path d="M94.6879 14.0625C93.3379 15.675 92.3254 17.4 91.6504 19.2375C96.4129 20.7375 102.9 24.0375 107.025 31.425C107.325 29.175 107.138 26.9625 106.463 24.825C104.775 19.6125 100.425 15.6375 94.6879 14.0625Z" fill="#FFCCBD"/>
<path d="M108.901 127.575C73.6881 127.575 43.2006 109.238 28.3506 82.5C27.4506 88.125 27.3756 93.9375 28.2006 99.75C30.3756 115.013 38.3256 128.512 50.6631 137.775C76.0881 156.862 112.313 151.725 131.438 126.3C131.813 125.812 132.113 125.288 132.376 124.763C124.876 126.563 117.001 127.575 108.901 127.575Z" fill="#F9A936"/>
<path d="M50.8504 111.375C55.3446 111.375 58.9879 107.732 58.9879 103.238C58.9879 98.7434 55.3446 95.1001 50.8504 95.1001C46.3562 95.1001 42.7129 98.7434 42.7129 103.238C42.7129 107.732 46.3562 111.375 50.8504 111.375Z" fill="#9CDB9C"/>
<path d="M50.8508 112.613C48.5258 112.613 46.3133 111.75 44.5883 110.213C42.7133 108.525 41.6258 106.238 41.5133 103.725C41.2508 98.5875 45.2258 94.1625 50.3633 93.9C52.8758 93.7875 55.2758 94.6125 57.1133 96.3C58.9883 97.9875 60.0758 100.275 60.1883 102.788C60.4508 107.925 56.4758 112.35 51.3383 112.613C51.1508 112.613 51.0008 112.613 50.8508 112.613ZM50.8508 96.3375C50.7383 96.3375 50.5883 96.3375 50.4758 96.3375C46.6883 96.525 43.7633 99.7875 43.9508 103.575C44.0633 105.413 44.8508 107.1 46.2383 108.338C47.5883 109.575 49.3883 110.175 51.2258 110.1C55.0133 109.913 57.9383 106.65 57.7508 102.863C57.6383 101.025 56.8508 99.3375 55.4633 98.1C54.1883 96.975 52.5758 96.3375 50.8508 96.3375Z" fill="#221F1F"/>
</svg>
