<svg width="165" height="165" viewBox="0 0 165 165" fill="none" xmlns="http://www.w3.org/2000/svg">
<path d="M104.363 35.8877C80.888 27.8627 53.9255 35.3252 38.213 56.2502C18.6755 82.2752 23.888 119.213 49.913 138.75C75.938 158.288 112.875 153.075 132.413 127.05C135.75 122.625 134.85 116.325 130.425 112.988C128.475 111.525 126.188 110.888 123.9 111C123.9 110.963 123.9 110.925 123.9 110.925C120.863 111.075 107.438 107.813 114.788 95.4752C117.113 91.9502 119.063 88.6502 120.713 85.5377C137.138 53.4377 112.5 39.1502 104.363 35.8877ZM101.025 91.7252C98.1755 95.5127 92.813 96.2627 89.063 93.4127C85.2755 90.5627 84.5255 85.2002 87.3755 81.4502C90.2255 77.6627 95.588 76.9127 99.338 79.7627C103.088 82.6127 103.838 87.9752 101.025 91.7252Z" fill="white"/>
<path d="M85.2378 151.763C72.6753 151.763 59.9628 147.825 49.1628 139.725C36.3003 130.088 28.0128 115.988 25.7628 100.088C23.5128 84.1876 27.5628 68.3626 37.2378 55.5001C45.0003 45.1501 55.6503 37.7251 68.0253 34.0126C80.1378 30.3751 92.8503 30.6376 104.775 34.6876C104.813 34.6876 104.813 34.6876 104.85 34.7251C107.475 35.7751 120.75 41.6626 125.663 54.8626C129.075 63.9751 127.763 74.4751 121.838 86.0626C120.113 89.2876 118.088 92.6626 115.875 96.0751C113.7 99.7126 113.325 102.75 114.713 105.113C116.738 108.525 122.1 109.763 123.863 109.65C124.013 109.65 124.2 109.65 124.313 109.725C126.788 109.688 129.188 110.513 131.175 111.975C136.163 115.725 137.175 122.813 133.425 127.763C121.575 143.475 103.5 151.763 85.2378 151.763ZM85.3503 33.9376C79.7628 33.9376 74.1753 34.7626 68.7378 36.3751C56.8878 39.9376 46.6503 47.0251 39.2253 56.9626C29.9628 69.2626 26.0628 84.4501 28.2378 99.7126C30.4128 114.975 38.3628 128.475 50.7003 137.738C76.1253 156.825 112.35 151.688 131.475 126.3C134.4 122.4 133.613 116.888 129.713 113.963C128.063 112.725 126.038 112.125 124.013 112.2C123.825 112.2 123.675 112.163 123.525 112.125C121.125 112.013 115.2 110.663 112.613 106.388C110.7 103.2 111.113 99.3001 113.775 94.8001C113.775 94.8001 113.775 94.7626 113.813 94.7626C116.025 91.3876 117.975 88.0876 119.663 84.9376C125.288 74.0251 126.525 64.2001 123.375 55.7626C118.838 43.6126 106.5 38.1001 103.988 37.0876C97.8753 34.9876 91.6128 33.9376 85.3503 33.9376ZM94.1628 96.3751C92.1003 96.3751 90.0378 95.7376 88.3128 94.4251C86.2128 92.8501 84.8628 90.5626 84.4878 87.9751C84.1128 85.3876 84.7878 82.8001 86.3628 80.7376C87.9378 78.6376 90.2253 77.2876 92.8128 76.9126C95.4003 76.5376 97.9878 77.2126 100.05 78.7876C102.113 80.3626 103.5 82.6501 103.875 85.2376C104.25 87.8251 103.575 90.4126 102 92.4751C100.088 95.0251 97.1253 96.3751 94.1628 96.3751ZM94.2003 79.2751C93.8628 79.2751 93.4878 79.3126 93.1503 79.3501C91.2003 79.6126 89.5128 80.6251 88.3128 82.2001C87.1128 83.7751 86.6253 85.6876 86.9253 87.6376C87.1878 89.5876 88.2003 91.2751 89.7753 92.4751C93.0003 94.9126 97.5753 94.2376 100.013 91.0126C101.175 89.4376 101.7 87.5251 101.4 85.5751C101.138 83.6251 100.125 81.9376 98.5503 80.7376C97.3128 79.8001 95.7753 79.2751 94.2003 79.2751Z" fill="#221F1F"/>
<path d="M138.225 152.475C140.475 151.762 125.625 95.7371 106.013 33.4121L96 36.4871C115.612 98.8121 135.975 153.187 138.225 152.475Z" fill="white"/>
<path d="M138.15 153.9C136.913 153.9 136.088 152.325 135.338 150.937C134.513 149.362 133.425 147.037 132.15 144C129.6 137.962 126.188 129.225 122.288 118.65C113.7 95.2873 103.613 65.5123 94.6502 36.9748C94.5377 36.6373 94.5752 36.2248 94.7627 35.9248C94.9502 35.5873 95.2127 35.3623 95.5877 35.2498L105.6 32.1748C106.313 31.9498 107.1 32.3623 107.325 33.0748C116.475 62.0998 125.325 92.2498 131.663 115.762C134.588 126.675 136.875 135.787 138.263 142.125C138.975 145.35 139.463 147.862 139.688 149.625C139.913 151.387 140.175 153.412 138.675 153.9C138.488 153.862 138.338 153.9 138.15 153.9ZM97.7252 37.4248C106.35 64.7623 115.65 92.3248 124.013 115.2C130.163 132.075 134.1 141.75 136.425 146.775C133.613 132.225 122.175 89.4373 105.113 35.1748L97.7252 37.4248Z" fill="#221F1F"/>
<path d="M67.6883 64.9498C72.1825 64.9498 75.8258 61.3065 75.8258 56.8123C75.8258 52.3181 72.1825 48.6748 67.6883 48.6748C63.1941 48.6748 59.5508 52.3181 59.5508 56.8123C59.5508 61.3065 63.1941 64.9498 67.6883 64.9498Z" fill="white"/>
<path d="M67.6877 66.1875C62.7377 66.1875 58.6127 62.2875 58.3502 57.3C58.0877 52.125 62.0627 47.7375 67.2002 47.475C69.7127 47.3625 72.1127 48.1875 73.9502 49.875C75.8252 51.5625 76.9127 53.85 77.0252 56.3625C77.1377 58.875 76.3127 61.275 74.6252 63.1125C72.9377 64.9875 70.6502 66.075 68.1377 66.1875C68.0252 66.1875 67.8377 66.1875 67.6877 66.1875ZM67.6877 49.9125C67.5752 49.9125 67.4252 49.9125 67.3127 49.9125C63.5252 50.1 60.6002 53.3625 60.7877 57.15C60.9752 60.9375 64.2377 63.8625 68.0252 63.675C69.8627 63.5625 71.5502 62.775 72.7877 61.3875C74.0252 60.0375 74.6627 58.2375 74.5502 56.4C74.4377 54.5625 73.6502 52.875 72.2627 51.6375C71.0252 50.55 69.4127 49.9125 67.6877 49.9125Z" fill="#221F1F"/>
<path d="M50.8514 111.375C55.3456 111.375 58.9889 107.732 58.9889 103.238C58.9889 98.7434 55.3456 95.1001 50.8514 95.1001C46.3572 95.1001 42.7139 98.7434 42.7139 103.238C42.7139 107.732 46.3572 111.375 50.8514 111.375Z" fill="white"/>
<path d="M50.8508 112.613C48.5258 112.613 46.3133 111.75 44.5883 110.213C42.7133 108.525 41.6258 106.238 41.5133 103.725C41.2508 98.5878 45.2258 94.1628 50.3633 93.9003C52.8758 93.7878 55.2758 94.6128 57.1133 96.3003C58.9883 97.9878 60.0758 100.275 60.1883 102.788C60.4508 107.925 56.4758 112.35 51.3383 112.613C51.1508 112.613 51.0008 112.613 50.8508 112.613ZM50.8508 96.3378C50.7383 96.3378 50.5883 96.3378 50.4758 96.3378C46.6883 96.5253 43.7633 99.7878 43.9508 103.575C44.0633 105.413 44.8508 107.1 46.2383 108.338C47.5883 109.575 49.3883 110.175 51.2258 110.1C55.0133 109.913 57.9383 106.65 57.7508 102.863C57.6383 101.025 56.8508 99.3378 55.4633 98.1003C54.1883 96.9753 52.5758 96.3378 50.8508 96.3378Z" fill="#221F1F"/>
<path d="M49.8377 85.4625C54.3319 85.4625 57.9752 81.8192 57.9752 77.325C57.9752 72.8308 54.3319 69.1875 49.8377 69.1875C45.3435 69.1875 41.7002 72.8308 41.7002 77.325C41.7002 81.8192 45.3435 85.4625 49.8377 85.4625Z" fill="white"/>
<path d="M49.8379 86.6626C47.5129 86.6626 45.3004 85.8001 43.5754 84.2626C41.7004 82.5751 40.6129 80.2876 40.5004 77.7751C40.3879 75.2626 41.2129 72.8626 42.9004 71.0251C44.5879 69.1501 46.8754 68.0626 49.3879 67.9501C51.9004 67.8376 54.3004 68.6626 56.1379 70.3501C58.0129 72.0376 59.1004 74.3251 59.2129 76.8376C59.4754 81.9751 55.5004 86.4001 50.3629 86.6626C50.1379 86.6626 49.9879 86.6626 49.8379 86.6626ZM49.8379 70.4251C49.7254 70.4251 49.5754 70.4251 49.4629 70.4251C47.6254 70.5376 45.9379 71.3251 44.7004 72.7126C43.4629 74.0626 42.8254 75.8626 42.9379 77.7001C43.0504 79.5376 43.8379 81.2251 45.2254 82.4626C46.5754 83.7001 48.3754 84.3001 50.2129 84.2251C54.0004 84.0376 56.9254 80.7751 56.7379 76.9876C56.6254 75.1501 55.8379 73.4626 54.4504 72.2251C53.1754 71.0626 51.5629 70.4251 49.8379 70.4251Z" fill="#221F1F"/>
<path d="M119.363 139.725C124.2 136.275 128.625 132.038 132.375 127.05C135.713 122.625 134.813 116.325 130.388 112.988C128.438 111.525 126.15 110.888 123.863 111C123.863 110.963 123.863 110.925 123.863 110.925C122.588 111 119.513 110.438 116.925 108.9M101.025 91.7255C98.1753 95.513 92.8128 96.263 89.0628 93.413C85.2753 90.563 84.5253 85.2005 87.3753 81.4505C90.2253 77.663 95.5878 76.913 99.3378 79.763C103.088 82.613 103.838 87.9755 101.025 91.7255Z" fill="white"/>
<path d="M119.363 140.963C118.988 140.963 118.613 140.775 118.351 140.438C117.938 139.875 118.088 139.125 118.651 138.713C123.488 135.263 127.801 131.1 131.401 126.3C134.326 122.4 133.538 116.888 129.638 113.963C127.988 112.725 125.963 112.125 123.938 112.2C123.751 112.2 123.601 112.163 123.451 112.125C121.876 112.088 118.913 111.488 116.288 109.95C115.688 109.613 115.501 108.863 115.838 108.263C116.176 107.663 116.926 107.475 117.526 107.813C120.038 109.275 122.888 109.688 123.788 109.65C123.938 109.65 124.126 109.65 124.238 109.725C126.713 109.688 129.113 110.513 131.101 111.975C136.088 115.725 137.063 122.813 133.351 127.763C129.601 132.75 125.101 137.138 120.038 140.7C119.888 140.888 119.626 140.963 119.363 140.963ZM94.163 96.3753C92.1005 96.3753 90.038 95.7378 88.313 94.4253C86.213 92.8503 84.863 90.5628 84.488 87.9753C84.113 85.3878 84.788 82.8003 86.363 80.7378C87.938 78.6378 90.2255 77.2878 92.813 76.9128C95.4005 76.5378 97.988 77.2128 100.051 78.7878C102.151 80.3628 103.501 82.6503 103.876 85.2378C104.251 87.8253 103.576 90.4128 102.001 92.4753C100.088 95.0253 97.1255 96.3753 94.163 96.3753ZM94.2005 79.2753C93.863 79.2753 93.488 79.3128 93.1505 79.3503C91.2005 79.6128 89.513 80.6253 88.313 82.2003C87.1505 83.7753 86.6255 85.6878 86.9255 87.6378C87.188 89.5878 88.2005 91.2753 89.7755 92.4753C93.0005 94.9128 97.5755 94.2378 100.013 91.0128C101.176 89.4378 101.701 87.5253 101.401 85.5753C101.138 83.6253 100.126 81.9378 98.5505 80.7378C97.313 79.8003 95.7755 79.2753 94.2005 79.2753Z" fill="#221F1F"/>
<path d="M89.8887 30.0374C90.9387 33.3374 92.9263 36.1124 95.5513 38.2124C99.5638 41.3999 106.314 39.2624 107.776 34.3499C108.751 31.1249 108.789 27.7124 107.739 24.4124C105.789 18.2624 100.539 13.9874 94.1638 12.5249C89.8138 17.3624 87.9387 23.8874 89.8887 30.0374Z" fill="white"/>
<path d="M100.051 41.0626C98.0636 41.0626 96.1886 40.4251 94.6886 39.2626C91.7636 36.9376 89.6261 33.9001 88.5386 30.4126C86.5136 24.0001 88.2386 16.9501 93.1511 11.5501C93.4886 11.1751 94.0136 11.0251 94.5011 11.1376C101.626 12.7876 107.064 17.5501 109.089 23.9626C110.176 27.4126 110.176 31.1251 109.126 34.7251C108.301 37.4626 106.051 39.6751 103.051 40.6126C102.039 40.9126 101.064 41.0626 100.051 41.0626ZM94.6886 14.0626C90.8636 18.6376 89.5886 24.4126 91.2011 29.6251C92.1386 32.5501 93.9386 35.1376 96.4136 37.1251C97.9511 38.3251 100.089 38.6626 102.189 37.9876C104.289 37.3126 105.864 35.8126 106.426 33.9376C107.326 30.9001 107.326 27.7501 106.426 24.8251C104.776 19.6126 100.426 15.6376 94.6886 14.0626Z" fill="#221F1F"/>
</svg>
