<svg width="165" height="165" viewBox="0 0 165 165" fill="none" xmlns="http://www.w3.org/2000/svg">
<path d="M82.5001 156.713C81.15 156.713 79.9126 156.15 79.0126 155.175C74.25 150.113 70.875 144.038 69.2251 137.513C69.2251 137.513 65.7375 141.825 65.7 141.825C64.8 142.913 63.45 143.513 62.025 143.513C61.35 143.513 60.675 143.363 60.075 143.1C60.0375 143.1 60.0375 143.063 60 143.063C58.0125 142.125 56.8875 139.913 57.375 137.738L63 110.363C62.1375 110.475 61.2375 110.513 60.3375 110.513C56.85 110.513 53.325 109.763 49.875 108.263C44.8875 106.088 41.7375 103.163 41.175 102.6C39.975 101.475 39.45 99.7126 39.8625 98.0626C39.8625 97.9876 39.9 97.9501 39.9 97.8751C32.2125 96.5251 27.075 93.1501 23.8875 90.2251C18.7875 85.5751 16.875 80.5501 16.425 79.0876C16.425 79.0501 16.3875 78.9751 16.3875 78.9376C15.8625 77.1001 16.4625 75.1501 17.925 73.9126C17.9625 73.8751 18 73.8376 18.075 73.8001C18.075 73.8001 18.075 73.8001 18.1125 73.7626C16.3875 72.0376 14.8125 70.1626 13.4625 68.1376C8.85004 61.2376 7.68754 54.5626 7.61254 52.8376C7.50004 50.7751 8.66254 48.9001 10.5 48.1501C11.1 47.8876 11.7 47.7751 12.3375 47.7751C12.5625 47.7751 12.7875 47.7751 13.05 47.8126C10.3125 42.9001 8.96254 38.1001 8.28754 34.2001C6.41254 23.2876 8.73754 14.1376 9.52504 11.5876C9.52504 11.5876 9.56254 11.4751 9.56254 11.4376C10.1625 9.4876 12.0375 8.1376 14.1 8.1376C14.2875 8.1376 14.475 8.1376 14.6625 8.1751C16.8375 8.4376 18.5625 10.0876 18.8625 12.2626V12.3001C19.1625 14.2126 22.0125 31.2001 33.825 38.2876C37.65 40.5751 42.6375 42.8626 47.4375 45.0751L47.55 45.1126C54.4125 48.3001 61.4625 51.5626 67.3125 55.5001C67.4625 54.4126 67.6501 53.3251 67.8 52.3501C61.9125 50.1376 58.5375 44.1001 57.825 38.6251C57.5625 36.8626 58.3876 35.0626 59.925 34.0126C60.7125 33.4876 61.6125 33.2251 62.55 33.2251C63.4875 33.2251 64.3875 33.4876 65.1375 34.0126C67.125 35.2876 69.5625 35.9251 72.4875 35.9251C75.4875 35.9251 77.925 35.2501 78.5625 35.0251C80.7375 34.0501 82.9875 33.5626 85.2375 33.5626C89.2501 33.5626 93.1125 35.1376 96.3 38.0626C102.113 38.3626 106.275 41.1001 107.475 42.1501C108.863 43.3126 109.463 45.1876 109.013 46.9501C108.6 48.6751 107.175 50.0626 105.375 50.4376H105.338C101.025 51.3001 98.1375 52.9501 96.675 55.3126C96.4125 55.7251 96.2251 56.1376 96.0376 56.5876C102.225 52.0876 109.988 48.5251 117.525 45.0376L118.275 44.6626C123.038 42.4501 127.575 40.3126 131.175 38.2126C143.4 30.9001 146.025 13.0501 146.1 12.3751C146.1 12.3376 146.1 12.3376 146.1 12.3001C146.363 10.0501 148.163 8.3251 150.413 8.1376C150.563 8.1376 150.713 8.1001 150.863 8.1001C152.85 8.1001 154.613 9.3751 155.325 11.2501C155.363 11.3251 155.363 11.4001 155.4 11.4751C155.963 13.2751 158.663 22.8376 156.638 34.2001C155.963 38.1001 154.575 42.8626 151.875 47.7751C152.1 47.7376 152.325 47.7376 152.55 47.7376C153.225 47.7376 153.9 47.8876 154.538 48.1876C156.338 49.0126 157.425 50.8501 157.313 52.8376C157.313 52.9126 157.313 52.9876 157.275 53.0626C157.05 54.9001 156 61.3126 151.463 68.1376C150.113 70.1251 148.575 72.0001 146.85 73.7251C146.888 73.7626 146.925 73.8001 147 73.8376C148.538 75.0751 149.138 77.1751 148.5 79.0126C148.05 80.4376 146.1 85.4626 141 90.1501C137.813 93.0751 132.638 96.4501 125.025 97.8001C125.025 97.8376 125.025 97.8376 125.025 97.8751C125.475 99.5626 124.988 101.363 123.713 102.563C123.225 103.05 120.038 106.013 115.05 108.188C111.6 109.688 108.075 110.438 104.588 110.438C103.688 110.438 102.825 110.4 101.925 110.288L107.55 137.7C107.55 137.738 107.55 137.775 107.55 137.775C107.925 139.913 106.838 142.05 104.888 142.95C104.25 143.25 103.575 143.4 102.863 143.4C101.438 143.4 100.088 142.8 99.1876 141.713L95.6626 137.4C94.0126 143.888 90.675 149.925 85.9501 154.988C85.1626 156.113 83.8876 156.713 82.5001 156.713Z" fill="white"/>
<path d="M82.4996 152.963C82.2371 152.963 81.9371 152.85 81.7496 152.663C75.6746 146.213 72.1121 138 71.7371 129.45C71.7371 129.3 71.6246 129.15 71.4746 129.113C71.4371 129.113 71.3996 129.075 71.3621 129.075C71.2496 129.075 71.1371 129.113 71.0621 129.225L62.7746 139.425C62.5871 139.65 62.2871 139.8 61.9871 139.8C61.8371 139.8 61.6871 139.763 61.5371 139.688C61.1246 139.5 60.8996 139.013 60.9746 138.563L67.6496 106.05C67.6871 105.9 67.6121 105.788 67.5371 105.675C67.4621 105.6 67.3871 105.6 67.2746 105.6C67.2371 105.6 67.1996 105.6 67.1621 105.638C64.9121 106.425 62.5871 106.838 60.2621 106.838C57.2996 106.838 54.2621 106.2 51.3371 104.925C46.7246 102.938 43.8746 100.125 43.7621 100.013C43.4996 99.7502 43.3871 99.3752 43.4996 99.0002C43.6121 98.6627 43.8746 98.3626 44.2496 98.2877C45.4871 97.9876 47.0996 97.0501 49.1246 95.4377C49.2371 95.3251 49.3121 95.1751 49.2371 95.0251C49.1996 94.8751 49.0496 94.8001 48.8996 94.8001C48.2996 94.8376 47.6621 94.8376 47.0621 94.8376C36.5621 94.8376 30.0746 90.9002 26.4746 87.6002C21.5996 83.1376 20.0621 78.2626 20.0246 78.0751C19.9121 77.6626 20.0246 77.2501 20.3621 76.9876C20.5496 76.8376 20.7746 76.7626 20.9996 76.7626C21.1871 76.7626 21.3371 76.8001 21.4871 76.9127C22.7996 77.6627 25.8746 78.3751 30.6371 79.0126H30.6746C30.8246 79.0126 30.9746 78.9001 31.0496 78.7502C31.0871 78.5627 31.0121 78.3751 30.8621 78.3001C24.8621 75.4876 20.0996 71.4376 16.6496 66.3376C12.0371 59.5126 11.4371 53.1751 11.3996 52.9126C11.3621 52.5001 11.5871 52.0876 11.9996 51.9001C12.1496 51.8251 12.2621 51.8251 12.4121 51.8251C12.6746 51.8251 12.9746 51.9376 13.1621 52.1251C15.3746 54.4501 20.1746 57.0751 27.4121 59.9626C27.4496 59.9626 27.4871 60.0001 27.5621 60.0001C27.7121 60.0001 27.8246 59.9251 27.8996 59.8126C27.9746 59.6626 27.9371 59.4376 27.7871 59.3251C16.9871 51.1126 13.2746 40.9501 12.0371 33.8626C10.0496 22.5001 13.0871 13.2376 13.1996 12.8626C13.3496 12.4501 13.7246 12.1876 14.1371 12.1876C14.1746 12.1876 14.2121 12.1876 14.2496 12.1876C14.7371 12.2251 15.1121 12.6001 15.1496 13.0876C15.1871 13.2751 17.8496 33.3376 31.9121 41.7751C35.8496 44.1376 40.7246 46.3876 45.8621 48.7876C54.5621 52.8376 63.5621 57.0001 69.7496 62.3626C69.8246 62.4376 69.8996 62.4376 70.0121 62.4376C70.0496 62.4376 70.1246 62.4376 70.1621 62.4001C70.2746 62.3626 70.3871 62.2127 70.3871 62.1002C70.8371 57.3377 71.4371 53.3251 72.1496 50.1751C72.1871 50.0626 72.1496 49.9501 72.0746 49.8751C71.9996 49.8001 71.9246 49.7251 71.8121 49.7251C64.8371 49.1251 62.0621 42.0751 61.5746 38.4001C61.5371 38.0251 61.6871 37.6126 62.0246 37.4251C62.1746 37.3126 62.3621 37.2751 62.5871 37.2751C62.7746 37.2751 62.9621 37.3126 63.1496 37.4251C65.7371 39.0751 68.9246 39.9376 72.5621 39.9376C76.3496 39.9376 79.3871 39.0001 79.9496 38.8126H79.9871C81.7121 38.0251 83.5121 37.6126 85.3121 37.6126C88.7621 37.6126 91.9871 39.1126 94.6871 41.9626C94.7621 42.0376 94.8746 42.0751 94.9496 42.0751C95.0996 42.0751 95.2121 42.0751 95.3621 42.0751C101.137 42.0751 104.962 45.1501 105.112 45.3001C105.412 45.5626 105.525 45.9376 105.45 46.3126C105.337 46.6876 105.037 46.9876 104.662 47.0626C99.2996 48.1501 95.5496 50.3626 93.5246 53.6626C91.7621 56.5126 91.2746 60.2251 92.0621 64.6501C92.0996 64.8001 92.1746 64.9126 92.3246 64.9501C92.3621 64.9501 92.3996 64.9501 92.4371 64.9501C92.5496 64.9501 92.6246 64.9126 92.6996 64.8376C98.7371 58.2001 109.125 53.4001 119.175 48.7501C124.312 46.3501 129.187 44.1001 133.162 41.7376C147.225 33.3376 149.925 13.2376 149.925 13.0501C150 12.5626 150.375 12.2251 150.825 12.1501C150.862 12.1501 150.9 12.1501 150.937 12.1501C151.35 12.1501 151.762 12.4126 151.875 12.8251C151.987 13.2001 155.025 22.4626 153.037 33.8251C151.8 40.9126 148.05 51.0751 137.287 59.2876C137.137 59.4001 137.1 59.6251 137.175 59.7751C137.25 59.8876 137.362 59.9626 137.512 59.9626C137.55 59.9626 137.587 59.9626 137.662 59.9251C144.9 57.0376 149.7 54.4126 151.912 52.0876C152.1 51.9001 152.362 51.7876 152.662 51.7876C152.812 51.7876 152.962 51.8251 153.075 51.8626C153.45 52.0501 153.712 52.4626 153.675 52.8751C153.637 53.1376 153.037 59.4751 148.425 66.3001C144.975 71.4376 140.175 75.4501 134.212 78.2626C134.062 78.3376 133.95 78.5251 134.025 78.7126C134.062 78.8626 134.212 78.9752 134.4 78.9752H134.437C139.2 78.3377 142.275 77.6252 143.587 76.8752C143.737 76.8001 143.925 76.7252 144.075 76.7252C144.3 76.7252 144.525 76.8001 144.712 76.9501C145.05 77.2126 145.162 77.6252 145.05 78.0377C144.975 78.2252 143.437 83.1002 138.6 87.5627C135 90.8626 128.512 94.8001 118.012 94.8001C117.412 94.8001 116.812 94.8001 116.175 94.7626C116.025 94.7626 115.875 94.8751 115.837 94.9876C115.762 95.1376 115.837 95.3251 115.95 95.4001C117.937 97.0126 119.587 97.9501 120.825 98.2502C121.2 98.3251 121.462 98.5876 121.575 98.9626C121.687 99.3001 121.575 99.7127 121.312 99.9752C121.2 100.088 118.312 102.9 113.737 104.888C110.775 106.163 107.775 106.8 104.812 106.8C102.487 106.8 100.162 106.388 97.9121 105.6C97.8746 105.6 97.8371 105.563 97.7996 105.563C97.7246 105.563 97.6121 105.6 97.5371 105.638C97.4246 105.713 97.3871 105.863 97.4246 106.013L104.1 138.525C104.212 138.975 103.95 139.425 103.537 139.65C103.387 139.725 103.237 139.763 103.087 139.763C102.787 139.763 102.487 139.613 102.3 139.388L94.0121 129.188C93.9371 129.113 93.8246 129.038 93.7121 129.038C93.6746 129.038 93.6371 129.038 93.5996 129.075C93.4496 129.113 93.3371 129.263 93.3371 129.413C92.9621 137.925 89.3996 146.175 83.3246 152.625C83.0621 152.85 82.7621 152.963 82.4996 152.963Z" fill="#FFD781"/>
<path d="M77.5127 72.9C77.5127 72.9 81.0752 51.7875 65.4752 44.625C64.7252 44.2875 64.0502 44.025 63.4502 43.8C65.0252 46.6125 67.6877 49.2375 71.8127 49.6125C71.9252 49.6125 72.0002 49.6875 72.0752 49.7625C72.1502 49.8375 72.1502 49.95 72.1502 50.0625C71.4377 53.2125 70.8377 57.225 70.3877 61.9875C70.3877 62.1375 70.2752 62.25 70.1627 62.2875C70.1252 62.2875 70.0877 62.325 70.0127 62.325C69.9377 62.325 69.8252 62.2875 69.7502 62.25C68.2127 60.9 66.4877 59.625 64.6502 58.425L70.1252 63.375L73.5752 68.7375L77.5127 72.9Z" fill="#F9A936"/>
<path d="M35.025 43.9126L34.95 43.3501C33.9 42.7876 32.85 42.2251 31.9125 41.6251C17.8125 33.1876 15.15 13.1251 15.1125 12.9376C15.0375 12.4501 14.7 12.1126 14.2125 12.0376C14.175 12.0376 14.1375 12.0376 14.1 12.0376C13.65 12.0376 13.275 12.3001 13.1625 12.7126C13.05 13.0876 10.0125 22.3501 12 33.7126C13.2375 40.8001 16.9875 50.9626 27.75 59.1751C27.9 59.2876 27.9375 59.5126 27.8625 59.6626C27.7875 59.7751 27.675 59.8501 27.525 59.8501C27.4875 59.8501 27.45 59.8501 27.375 59.8126C20.1375 56.9251 15.3375 54.3001 13.125 51.9751C12.9375 51.7876 12.675 51.6751 12.375 51.6751C12.225 51.6751 12.075 51.7126 11.9625 51.7501C11.5875 51.9376 11.325 52.3501 11.3625 52.7626C11.4 53.0251 12 59.3626 16.6125 66.1876C20.0625 71.3251 24.8625 75.3376 30.825 78.1501C30.975 78.2251 31.0875 78.4126 31.0125 78.6001C30.975 78.7501 30.825 78.8626 30.6375 78.8626H30.6C25.8375 78.2251 22.7625 77.5126 21.45 76.7626C21.3 76.6876 21.1125 76.6126 20.9625 76.6126C20.7375 76.6126 20.5125 76.6876 20.325 76.8376C19.9875 77.1001 19.875 77.5126 19.9875 77.9251C20.0625 78.1126 21.6 82.9876 26.4375 87.4501C30.0375 90.7501 36.525 94.6876 47.025 94.6876C47.625 94.6876 48.225 94.6876 48.8625 94.6501C49.0125 94.6501 49.1625 94.7626 49.2 94.8751C49.275 95.0251 49.2 95.2126 49.0875 95.2876C47.1 96.9001 45.45 97.8376 44.2125 98.1376C43.8375 98.2126 43.575 98.4751 43.4625 98.8501C43.35 99.1876 43.4625 99.6001 43.725 99.8626C43.8375 99.9751 46.725 102.788 51.3 104.775C54.2625 106.05 57.2625 106.688 60.225 106.688C62.55 106.688 64.875 106.275 67.125 105.488C67.1625 105.488 67.2 105.45 67.2375 105.45C67.3125 105.45 67.425 105.488 67.5 105.525C67.6125 105.6 67.65 105.75 67.6125 105.9L60.9375 138.413C60.825 138.863 61.0875 139.313 61.5 139.538C61.65 139.613 61.8 139.65 61.95 139.65C62.25 139.65 62.55 139.5 62.7375 139.275L71.025 129.075C71.1 129 71.2125 128.925 71.325 128.925C71.3625 128.925 71.4 128.925 71.4375 128.963C71.5875 129 71.7 129.15 71.7 129.3C72.075 137.813 75.6375 146.063 81.7125 152.513C81.8625 152.663 82.05 152.775 82.2375 152.813C82.3125 152.475 82.3875 152.175 82.4625 151.838C95.625 87.4501 35.025 43.9126 35.025 43.9126Z" fill="#F9A936"/>
<path d="M82.5 153.338C82.125 153.338 81.75 153.188 81.4875 152.888C75.3 146.363 71.775 138.075 71.4 129.45L63.1125 139.65C62.7 140.138 62.025 140.288 61.425 140.025C60.8625 139.763 60.525 139.125 60.675 138.488L67.35 105.975C62.1375 107.813 56.625 107.55 51.225 105.225C46.5375 103.2 43.65 100.35 43.5375 100.238C43.1625 99.9001 43.05 99.3751 43.1625 98.8876C43.3125 98.4001 43.6875 98.0251 44.175 97.9126C45.525 97.6126 47.325 96.3751 48.9 95.1376C37.3875 95.6251 30.2625 91.5751 26.2125 87.8251C21.2625 83.2876 19.725 78.3376 19.65 78.1126C19.5 77.5876 19.65 76.9876 20.1 76.6126C20.55 76.2751 21.15 76.2001 21.6375 76.5001C23.0625 77.3251 26.5875 78.0001 30.6375 78.5251C23.4375 75.1501 18.975 70.4626 16.275 66.4126C11.625 59.4751 10.9875 53.0626 10.9875 52.8001C10.95 52.2001 11.25 51.6376 11.8125 51.4126C12.3375 51.1876 12.975 51.3001 13.3875 51.7126C15.9375 54.3751 21.75 57.1501 27.525 59.4751C16.9875 51.4501 12.975 41.5876 11.625 33.7876C9.6375 22.3126 12.675 13.0126 12.7875 12.6001C12.975 12.0001 13.6125 11.5876 14.25 11.6626C14.8875 11.7376 15.4125 12.2251 15.4875 12.8626C15.525 13.0501 18.15 32.9626 32.0625 41.2876C36 43.6501 40.875 45.9001 46.0125 48.2626C54.75 52.3126 63.75 56.4751 69.975 61.9126C70.425 57.1501 71.025 53.1376 71.7375 49.9501C64.575 49.3126 61.6875 42.2626 61.1625 38.3251C61.0875 37.8001 61.35 37.2751 61.8 36.9751C62.25 36.6751 62.85 36.6751 63.3 36.9751C70.05 41.3251 78.8625 38.6251 79.7625 38.3251C85.05 35.8876 90.675 37.0876 94.875 41.5501C101.025 41.4001 105.113 44.7001 105.263 44.8501C105.675 45.1876 105.863 45.7501 105.713 46.2751C105.6 46.8001 105.15 47.1751 104.625 47.2876C99.375 48.3376 95.7 50.5126 93.75 53.7376C91.725 57.0376 91.725 61.0501 92.325 64.4626C98.4 57.7876 108.825 52.9501 118.913 48.3001C124.05 45.9001 128.925 43.6501 132.863 41.3251C146.775 33.0001 149.438 13.0876 149.438 12.9001C149.513 12.2626 150.038 11.7376 150.675 11.7001C151.313 11.6251 151.913 12.0376 152.138 12.6376C152.25 13.0126 155.325 22.3501 153.3 33.8251C151.95 41.6251 147.938 51.4876 137.4 59.5126C143.175 57.2251 148.988 54.4501 151.538 51.7501C151.95 51.3376 152.588 51.1876 153.113 51.4501C153.638 51.6751 153.975 52.2376 153.938 52.8376C153.9 53.1001 153.3 59.5126 148.65 66.4501C145.95 70.5001 141.488 75.1876 134.288 78.5626C138.338 78.0001 141.863 77.3251 143.288 76.5376C143.775 76.2751 144.413 76.3126 144.825 76.6501C145.238 76.9876 145.463 77.5876 145.275 78.1501C145.2 78.3751 143.663 83.3251 138.713 87.8626C134.663 91.5751 127.538 95.6626 116.025 95.1751C117.6 96.4126 119.363 97.6501 120.75 97.9501C121.238 98.0626 121.65 98.4376 121.763 98.9251C121.913 99.4126 121.763 99.9376 121.388 100.275C121.275 100.388 118.35 103.238 113.7 105.263C108.3 107.588 102.788 107.85 97.575 106.013L104.25 138.525C104.363 139.163 104.063 139.8 103.5 140.063C102.938 140.325 102.225 140.175 101.813 139.688L93.525 129.488C93.15 138.113 89.5875 146.4 83.4375 152.925C83.25 153.188 82.875 153.338 82.5 153.338ZM72.825 124.088C73.0125 124.088 73.1625 124.125 73.35 124.2C73.9125 124.425 74.25 124.988 74.2125 125.588C74.1375 126.375 74.1375 127.163 74.1375 127.95C74.1375 135.938 77.1 143.663 82.5 149.888C87.9 143.663 90.8625 135.938 90.8625 127.95C90.8625 127.163 90.825 126.375 90.7875 125.588C90.75 124.988 91.0875 124.425 91.65 124.2C92.2125 123.975 92.85 124.163 93.225 124.613L100.425 133.5L94.35 103.95C94.2375 103.425 94.425 102.9 94.875 102.563C95.2875 102.225 95.85 102.188 96.3375 102.413C105.938 107.1 114.338 102.225 117.788 99.6376C114.638 97.9501 111.488 94.7626 111.038 94.3501C110.625 93.9376 110.513 93.3001 110.775 92.7751C111.038 92.2501 111.6 91.9501 112.2 92.0251C122.55 93.3376 130.8 91.2751 136.725 85.8751C138.938 83.8501 140.438 81.7126 141.338 80.1001C134.213 81.9001 120.6 82.6501 118.763 82.7626C118.013 82.8001 117.375 82.2376 117.3 81.4876C117.225 80.7376 117.788 80.0626 118.538 79.9876C131.175 78.5251 140.475 73.5001 146.25 65.0251C148.463 61.7626 149.7 58.5376 150.375 56.2126C141.675 61.9501 123.975 67.0876 123.113 67.3501C122.4 67.5376 121.65 67.1626 121.425 66.4501C121.2 65.7376 121.538 64.9876 122.213 64.7251C138.45 58.3501 147.975 47.8126 150.525 33.4501C151.463 28.2001 151.238 23.3251 150.75 19.7251C148.763 26.7376 144.188 37.7251 134.213 43.6876C130.163 46.1251 125.213 48.4126 120.038 50.8126C109.163 55.8376 97.9125 61.0501 92.7 68.3626C92.4 68.8126 91.875 69.0001 91.3125 68.9251C90.7875 68.8501 90.375 68.4376 90.225 67.9501C88.5 61.7251 88.875 56.3251 91.3125 52.3126C93.225 49.2001 96.375 46.9126 100.65 45.4876C99.075 44.8126 96.8625 44.2126 94.275 44.4001C93.825 44.4376 93.4125 44.2501 93.15 43.9126C88.2375 38.2501 82.875 39.9376 80.775 40.9126C80.7375 40.9501 80.6625 40.9501 80.625 40.9876C79.65 41.3251 71.85 43.7626 64.575 40.8376C65.625 43.6876 68.0625 47.5876 73.3125 47.2501C73.7625 47.2126 74.175 47.4001 74.475 47.7376C74.775 48.0751 74.85 48.5251 74.7375 48.9751C73.725 52.8001 72.9375 58.2001 72.375 65.0626C72.3375 65.6251 71.9625 66.0751 71.475 66.2626C70.95 66.4501 70.3875 66.3001 70.0125 65.9251C64.2 59.8876 54.3 55.2751 44.7375 50.8501C39.525 48.4501 34.6125 46.1626 30.525 43.7251C20.7 37.7251 16.125 26.7376 14.1375 19.7251C13.65 23.3251 13.425 28.1626 14.3625 33.4501C16.9125 47.8126 26.4375 58.3501 42.675 64.7251C43.35 64.9876 43.725 65.7751 43.4625 66.4501C43.2 67.1251 42.4875 67.5376 41.775 67.3501C40.9125 67.0876 23.25 61.9501 14.5125 56.2126C15.1875 58.5376 16.425 61.7251 18.6375 65.0251C24.375 73.5001 33.7125 78.5626 46.35 79.9876C47.1 80.0626 47.625 80.7376 47.5875 81.4876C47.55 82.2376 46.875 82.8001 46.125 82.7626C44.325 82.6501 30.675 81.9001 23.55 80.1001C24.45 81.7501 25.95 83.8501 28.1625 85.8751C34.125 91.2751 42.375 93.3376 52.6875 92.0251C53.2875 91.9501 53.85 92.2501 54.1125 92.7751C54.375 93.3001 54.2625 93.9376 53.85 94.3501C53.4375 94.8001 50.25 97.9501 47.1 99.6751C50.55 102.3 58.875 107.175 68.5875 102.45C69.075 102.225 69.6375 102.263 70.05 102.6C70.4625 102.938 70.65 103.463 70.575 103.988L64.5375 133.5L71.7375 124.613C72.0375 124.275 72.4125 124.088 72.825 124.088Z" fill="#221F1F"/>
<path d="M85.3878 48.3376C84.8253 48.3376 84.2628 47.9626 84.0753 47.4001L83.4753 45.6001C83.2503 44.8876 83.6253 44.1001 84.3378 43.8376C85.0503 43.6126 85.8378 43.9876 86.1003 44.7001L86.7003 46.5001C86.9253 47.2126 86.5503 48.0001 85.8378 48.2626C85.6503 48.3001 85.5378 48.3376 85.3878 48.3376Z" fill="#221F1F"/>
<path d="M73.5005 50.2877C73.388 50.2877 73.2755 50.2877 73.1255 50.2502C72.3755 50.0627 71.963 49.2752 72.1505 48.5627C72.6005 46.8752 73.0505 45.6377 73.088 45.5627C73.3505 44.8502 74.138 44.4752 74.888 44.7377C75.6005 45.0002 75.9755 45.7877 75.713 46.5377C75.713 46.5377 75.263 47.7377 74.8505 49.2752C74.663 49.8752 74.1005 50.2877 73.5005 50.2877Z" fill="#221F1F"/>
<path d="M76.2001 74.3251C75.6376 74.3251 75.1126 73.9876 74.8876 73.3876C73.8001 70.3126 70.1251 65.8126 70.0876 65.7751C69.6001 65.1751 69.6751 64.3126 70.2751 63.8251C70.8751 63.3376 71.7376 63.4126 72.2251 64.0126C72.3751 64.2001 76.2376 68.9251 77.5126 72.4501C77.7751 73.1626 77.4001 73.9501 76.6876 74.2126C76.5001 74.3251 76.3501 74.3251 76.2001 74.3251Z" fill="#221F1F"/>
<path d="M94.6874 85.9125C93.9749 85.9125 93.3749 85.35 93.2999 84.6375C92.7374 77.775 90.3374 67.95 90.3374 67.875C90.1499 67.125 90.5999 66.375 91.3499 66.1875C92.0999 66 92.8499 66.45 93.0374 67.2C93.1499 67.6125 95.4749 77.325 96.0749 84.375C96.1499 85.125 95.5874 85.8 94.7999 85.875C94.7624 85.9125 94.7249 85.9125 94.6874 85.9125Z" fill="#221F1F"/>
</svg>
