<svg width="165" height="165" viewBox="0 0 165 165" fill="none" xmlns="http://www.w3.org/2000/svg">
<path d="M152.587 52.6878C146.4 59.1753 122.812 66.0003 122.812 66.0003C163.237 50.1003 150.9 13.0503 150.9 13.0503C150.9 13.0503 148.312 33.7128 133.65 42.4878C121.2 49.9503 99.6745 56.3628 91.687 67.5378C89.737 60.6003 88.9495 49.0503 104.437 45.9378C104.437 45.9378 100.387 42.5628 94.312 42.9753C89.812 37.8003 84.3745 37.7253 80.287 39.6003C77.662 40.5003 69.2245 42.4128 62.5495 38.1378C62.5495 38.1378 64.0495 49.2003 73.537 48.6003C72.2995 53.2128 71.587 59.4753 71.137 64.9128C61.912 55.3128 42.8245 49.3128 31.387 42.4878C16.687 33.7128 14.137 13.0503 14.137 13.0503C14.137 13.0503 1.76201 50.1003 42.2245 66.0003C42.2245 66.0003 18.5995 59.2128 12.4495 52.6878C12.4495 52.6878 14.6995 77.7003 46.2745 81.3378C46.2745 81.3378 25.4995 80.2128 21.037 77.7003C21.037 77.7003 26.887 96.6753 52.987 93.3753C52.987 93.3753 47.9995 98.4378 44.587 99.2253C44.587 99.2253 55.762 110.288 69.2995 103.65L62.0245 138.75L72.8245 125.475C72.7495 126.3 72.7495 127.088 72.7495 127.913C72.7495 137.1 76.4245 145.5 82.4995 151.913C88.5745 145.5 92.2495 137.1 92.2495 127.913C92.2495 127.088 92.212 126.263 92.1745 125.475L102.975 138.75L95.7745 103.65C109.35 110.288 120.487 99.2253 120.487 99.2253C117.037 98.4378 112.087 93.3753 112.087 93.3753C138.187 96.7128 144.037 77.7003 144.037 77.7003C139.575 80.2503 118.799 81.3378 118.799 81.3378C150.374 77.7003 152.587 52.6878 152.587 52.6878Z" fill="white"/>
<path d="M82.5 153.338C82.125 153.338 81.75 153.188 81.4875 152.888C75.3 146.363 71.775 138.075 71.4 129.45L63.1125 139.65C62.7 140.138 62.025 140.288 61.425 140.025C60.8625 139.763 60.525 139.125 60.675 138.488L67.35 105.975C62.1375 107.813 56.625 107.55 51.225 105.225C46.5375 103.2 43.65 100.35 43.5375 100.238C43.1625 99.9001 43.05 99.3751 43.1625 98.8876C43.3125 98.4001 43.6875 98.0251 44.175 97.9126C45.525 97.6126 47.325 96.3751 48.9 95.1376C37.3875 95.6251 30.2625 91.5751 26.2125 87.8251C21.2625 83.2876 19.725 78.3376 19.65 78.1126C19.5 77.5876 19.65 76.9876 20.1 76.6126C20.55 76.2751 21.15 76.2001 21.6375 76.5001C23.0625 77.3251 26.5875 78.0001 30.6375 78.5251C23.4375 75.1501 18.975 70.4626 16.275 66.4126C11.625 59.4751 10.9875 53.0626 10.9875 52.8001C10.95 52.2001 11.25 51.6376 11.8125 51.4126C12.3375 51.1876 12.975 51.3001 13.3875 51.7126C15.9375 54.3751 21.75 57.1501 27.525 59.4751C16.9875 51.4501 12.975 41.5876 11.625 33.7876C9.6375 22.3126 12.675 13.0126 12.7875 12.6001C12.975 12.0001 13.6125 11.5876 14.25 11.6626C14.8875 11.7376 15.4125 12.2251 15.4875 12.8626C15.525 13.0501 18.15 32.9626 32.0625 41.2876C36 43.6501 40.875 45.9001 46.0125 48.2626C54.75 52.3126 63.75 56.4751 69.975 61.9126C70.425 57.1501 71.025 53.1376 71.7375 49.9501C64.575 49.3126 61.6875 42.2626 61.1625 38.3251C61.0875 37.8001 61.35 37.2751 61.8 36.9751C62.25 36.6751 62.85 36.6751 63.3 36.9751C70.05 41.3251 78.8625 38.6251 79.7625 38.3251C85.05 35.8876 90.675 37.0876 94.875 41.5501C101.025 41.4001 105.113 44.7001 105.263 44.8501C105.675 45.1876 105.863 45.7501 105.713 46.2751C105.6 46.8001 105.15 47.1751 104.625 47.2876C99.375 48.3376 95.7 50.5126 93.75 53.7376C91.725 57.0376 91.725 61.0501 92.325 64.4626C98.4 57.7876 108.825 52.9501 118.913 48.3001C124.05 45.9001 128.925 43.6501 132.863 41.3251C146.775 33.0001 149.438 13.0876 149.438 12.9001C149.513 12.2626 150.038 11.7376 150.675 11.7001C151.313 11.6251 151.913 12.0376 152.138 12.6376C152.25 13.0126 155.325 22.3501 153.3 33.8251C151.95 41.6251 147.938 51.4876 137.4 59.5126C143.175 57.2251 148.988 54.4501 151.538 51.7501C151.95 51.3376 152.588 51.1876 153.113 51.4501C153.638 51.6751 153.975 52.2376 153.938 52.8376C153.9 53.1001 153.3 59.5126 148.65 66.4501C145.95 70.5001 141.488 75.1876 134.288 78.5626C138.338 78.0001 141.863 77.3251 143.288 76.5376C143.775 76.2751 144.413 76.3126 144.825 76.6501C145.238 76.9876 145.463 77.5876 145.275 78.1501C145.2 78.3751 143.663 83.3251 138.713 87.8626C134.663 91.5751 127.538 95.6626 116.025 95.1751C117.6 96.4126 119.363 97.6501 120.75 97.9501C121.238 98.0626 121.65 98.4376 121.763 98.9251C121.913 99.4126 121.763 99.9376 121.388 100.275C121.275 100.388 118.35 103.238 113.7 105.263C108.3 107.588 102.788 107.85 97.575 106.013L104.25 138.525C104.363 139.163 104.063 139.8 103.5 140.063C102.938 140.325 102.225 140.175 101.813 139.688L93.525 129.488C93.15 138.113 89.5875 146.4 83.4375 152.925C83.25 153.188 82.875 153.338 82.5 153.338ZM72.825 124.088C73.0125 124.088 73.1625 124.125 73.35 124.2C73.9125 124.425 74.25 124.988 74.2125 125.588C74.1375 126.375 74.1375 127.163 74.1375 127.95C74.1375 135.938 77.1 143.663 82.5 149.888C87.9 143.663 90.8625 135.938 90.8625 127.95C90.8625 127.163 90.825 126.375 90.7875 125.588C90.75 124.988 91.0875 124.425 91.65 124.2C92.2125 123.975 92.85 124.163 93.225 124.613L100.425 133.5L94.35 103.95C94.2375 103.425 94.425 102.9 94.875 102.563C95.2875 102.225 95.85 102.188 96.3375 102.413C105.938 107.1 114.338 102.225 117.788 99.6376C114.638 97.9501 111.488 94.7626 111.038 94.3501C110.625 93.9376 110.513 93.3001 110.775 92.7751C111.038 92.2501 111.6 91.9501 112.2 92.0251C122.55 93.3376 130.8 91.2751 136.725 85.8751C138.938 83.8501 140.438 81.7126 141.338 80.1001C134.213 81.9001 120.6 82.6501 118.763 82.7626C118.013 82.8001 117.375 82.2376 117.3 81.4876C117.225 80.7376 117.788 80.0626 118.538 79.9876C131.175 78.5251 140.475 73.5001 146.25 65.0251C148.463 61.7626 149.7 58.5376 150.375 56.2126C141.675 61.9501 123.975 67.0876 123.113 67.3501C122.4 67.5376 121.65 67.1626 121.425 66.4501C121.2 65.7376 121.538 64.9876 122.213 64.7251C138.45 58.3501 147.975 47.8126 150.525 33.4501C151.463 28.2001 151.238 23.3251 150.75 19.7251C148.763 26.7376 144.188 37.7251 134.213 43.6876C130.163 46.1251 125.213 48.4126 120.038 50.8126C109.163 55.8376 97.9125 61.0501 92.7 68.3626C92.4 68.8126 91.875 69.0001 91.3125 68.9251C90.7875 68.8501 90.375 68.4376 90.225 67.9501C88.5 61.7251 88.875 56.3251 91.3125 52.3126C93.225 49.2001 96.375 46.9126 100.65 45.4876C99.075 44.8126 96.8625 44.2126 94.275 44.4001C93.825 44.4376 93.4125 44.2501 93.15 43.9126C88.2375 38.2501 82.875 39.9376 80.775 40.9126C80.7375 40.9501 80.6625 40.9501 80.625 40.9876C79.65 41.3251 71.85 43.7626 64.575 40.8376C65.625 43.6876 68.0625 47.5876 73.3125 47.2501C73.7625 47.2126 74.175 47.4001 74.475 47.7376C74.775 48.0751 74.85 48.5251 74.7375 48.9751C73.725 52.8001 72.9375 58.2001 72.375 65.0626C72.3375 65.6251 71.9625 66.0751 71.475 66.2626C70.95 66.4501 70.3875 66.3001 70.0125 65.9251C64.2 59.8876 54.3 55.2751 44.7375 50.8501C39.525 48.4501 34.6125 46.1626 30.525 43.7251C20.7 37.7251 16.125 26.7376 14.1375 19.7251C13.65 23.3251 13.425 28.1626 14.3625 33.4501C16.9125 47.8126 26.4375 58.3501 42.675 64.7251C43.35 64.9876 43.725 65.7751 43.4625 66.4501C43.2 67.1251 42.4875 67.5376 41.775 67.3501C40.9125 67.0876 23.25 61.9501 14.5125 56.2126C15.1875 58.5376 16.425 61.7251 18.6375 65.0251C24.375 73.5001 33.7125 78.5626 46.35 79.9876C47.1 80.0626 47.625 80.7376 47.5875 81.4876C47.55 82.2376 46.875 82.8001 46.125 82.7626C44.325 82.6501 30.675 81.9001 23.55 80.1001C24.45 81.7501 25.95 83.8501 28.1625 85.8751C34.125 91.2751 42.375 93.3376 52.6875 92.0251C53.2875 91.9501 53.85 92.2501 54.1125 92.7751C54.375 93.3001 54.2625 93.9376 53.85 94.3501C53.4375 94.8001 50.25 97.9501 47.1 99.6751C50.55 102.3 58.875 107.213 68.5875 102.45C69.075 102.225 69.6375 102.263 70.05 102.6C70.4625 102.938 70.65 103.463 70.575 103.988L64.5375 133.5L71.7375 124.613C72.0375 124.275 72.4125 124.088 72.825 124.088Z" fill="#221F1F"/>
<path d="M85.3878 48.3376C84.8253 48.3376 84.2628 47.9626 84.0753 47.4001L83.4753 45.6001C83.2503 44.8876 83.6253 44.1001 84.3378 43.8376C85.0503 43.6126 85.8378 43.9876 86.1003 44.7001L86.7003 46.5001C86.9253 47.2126 86.5503 48.0001 85.8378 48.2626C85.6503 48.3001 85.5378 48.3376 85.3878 48.3376Z" fill="#221F1F"/>
<path d="M73.5005 50.2877C73.388 50.2877 73.2755 50.2877 73.1255 50.2502C72.3755 50.0627 71.963 49.2752 72.1505 48.5627C72.6005 46.8752 73.0505 45.6377 73.088 45.5627C73.3505 44.8502 74.138 44.4752 74.888 44.7377C75.6005 45.0002 75.9755 45.7877 75.713 46.5377C75.713 46.5377 75.263 47.7377 74.8505 49.2752C74.663 49.8752 74.1005 50.2877 73.5005 50.2877Z" fill="#221F1F"/>
<path d="M76.2001 74.3249C75.6376 74.3249 75.1126 73.9874 74.8876 73.3874C73.8001 70.3124 70.1251 65.8124 70.0876 65.7749C69.6001 65.1749 69.6751 64.3124 70.2751 63.8249C70.8751 63.3374 71.7376 63.4124 72.2251 64.0124C72.3751 64.1999 76.2376 68.9249 77.5126 72.4499C77.7751 73.1624 77.4001 73.9499 76.6876 74.2124C76.5001 74.3249 76.3501 74.3249 76.2001 74.3249Z" fill="#221F1F"/>
<path d="M94.6874 85.9125C93.9749 85.9125 93.3749 85.35 93.2999 84.6375C92.7374 77.775 90.3374 67.95 90.3374 67.875C90.1499 67.125 90.5999 66.375 91.3499 66.1875C92.0999 66 92.8499 66.45 93.0374 67.2C93.1499 67.6125 95.4749 77.325 96.0749 84.375C96.1499 85.125 95.5874 85.8 94.7999 85.875C94.7624 85.9125 94.7249 85.9125 94.6874 85.9125Z" fill="#221F1F"/>
</svg>
