<svg width="220" height="220" viewBox="0 0 220 220" fill="none" xmlns="http://www.w3.org/2000/svg">
<path d="M141.7 197.15C141.6 197.15 141.5 197.15 141.4 197.15C138.85 197.05 136.65 195.4 135.75 193L119.9 149.45L82.3503 163.1C79.9503 164 77.4503 164.4 74.9003 164.4C71.7003 164.4 68.6503 163.7 65.7503 162.35L20.3503 141.15C18.0003 140.05 16.6003 137.7 16.7003 135.1C16.8003 132.55 18.4503 130.3 20.8503 129.4L64.4003 113.55L50.7503 76C50.7003 75.9 50.6503 75.75 50.6503 75.65C48.8003 70.3 49.1003 64.5 51.5003 59.35L72.5503 14C73.6003 11.75 75.8503 10.35 78.3003 10.35C78.4003 10.35 78.5503 10.35 78.6503 10.35C81.2003 10.45 83.4003 12.1 84.3003 14.5L100.15 58.05L137.7 44.4C137.85 44.35 137.95 44.3 138.05 44.3C140.35 43.5 142.75 43.1 145.15 43.1C148.35 43.1 151.4 43.8 154.3 45.15L199.7 66.35C202.05 67.45 203.45 69.8 203.35 72.4C203.25 74.95 201.6 77.2 199.2 78.1L155.65 93.95L169.3 131.5C171.3 136.95 171.05 142.85 168.55 148.1L147.35 193.5C146.4 195.7 144.15 197.15 141.7 197.15Z" fill="white"/>
<path d="M36.4002 108.35C29.1002 108.35 23.2002 102.45 23.2002 95.15C23.2002 87.85 29.1502 81.95 36.4002 81.95C43.7002 81.95 49.6002 87.9 49.6002 95.15C49.6002 102.4 43.7002 108.35 36.4002 108.35ZM36.4002 94.65C36.1002 94.65 35.9002 94.9 35.9002 95.15C35.9002 95.4 36.1502 95.65 36.4002 95.65C36.6502 95.65 36.9002 95.4 36.9002 95.15C36.9002 94.85 36.7002 94.65 36.4002 94.65Z" fill="white"/>
<path d="M110 209.65C109 209.65 108.15 208.8 108.15 207.8V131.2C108.15 130.2 109 129.35 110 129.35C111 129.35 111.85 130.2 111.85 131.2V207.8C111.85 208.8 111 209.65 110 209.65Z" fill="#9E9E9E"/>
<path d="M139.85 50.35L96.1004 66.3L93.9504 60.3L56.6504 73.9L72.4504 117.4L66.5004 119.6L80.1504 157.1L123.65 141.25L125.85 147.25L163.35 133.6L147.45 89.85L153.45 87.65L139.85 50.35Z" fill="#D88C7D"/>
<path d="M80.1499 158.95C79.8999 158.95 79.5999 158.9 79.3499 158.8C78.8999 158.6 78.5499 158.2 78.3999 157.75L64.7499 120.2C64.3999 119.25 64.8999 118.2 65.8499 117.85L70.0999 116.3L54.8999 74.5C54.5499 73.55 55.0499 72.5 55.9999 72.15L93.2999 58.55C93.75 58.4 94.2499 58.4 94.6999 58.6C95.1499 58.8 95.4999 59.2 95.6499 59.65L97.1999 63.9L139.2 48.6C139.65 48.45 140.15 48.45 140.6 48.65C141.05 48.85 141.4 49.25 141.55 49.7L155.15 87C155.5 87.95 155 89 154.05 89.35L149.8 90.9L165.1 132.9C165.45 133.85 164.95 134.9 164 135.25L126.45 149C126 149.15 125.5 149.15 125.05 148.95C124.6 148.75 124.25 148.35 124.1 147.9L122.55 143.65L80.7499 158.85C80.5499 158.95 80.3499 158.95 80.1499 158.95ZM68.8499 120.7L81.2499 154.75L123.05 139.55C123.5 139.4 124 139.4 124.45 139.6C124.9 139.8 125.25 140.2 125.4 140.65L126.95 144.9L161 132.5L145.7 90.5C145.35 89.55 145.85 88.5 146.8 88.15L151.05 86.6L138.75 52.75L96.7499 68.05C96.2999 68.2 95.7999 68.2 95.3499 68C94.8999 67.8 94.5499 67.4 94.3999 66.95L92.8499 62.7L58.9999 75L74.1999 116.8C74.5499 117.75 74.0499 118.8 73.0999 119.15L68.8499 120.7Z" fill="#221F1F"/>
<path d="M110 103.75L78.2997 16.7L57.0997 62.0999C53.4997 69.7999 56.8497 78.95 64.5497 82.55L110 103.75Z" fill="#F0AA97"/>
<path d="M110 105.6C109.75 105.6 109.45 105.55 109.2 105.45L63.7999 84.2499C55.1999 80.2499 51.4499 69.9499 55.4499 61.3499L76.6499 15.9499C76.9499 15.2499 77.6499 14.8499 78.3999 14.8999C79.1499 14.9499 79.7999 15.3999 80.0499 16.0999L111.75 103.15C112 103.85 111.8 104.65 111.25 105.15C110.9 105.45 110.45 105.6 110 105.6ZM78.0999 21.5499L58.7999 62.8999C55.6499 69.6499 58.5999 77.6999 65.3499 80.8999L106.7 100.2L78.0999 21.5499Z" fill="#221F1F"/>
<path d="M110 103.75L141.7 190.8L162.9 145.4C166.5 137.7 163.15 128.55 155.45 124.95L110 103.75Z" fill="#F0AA97"/>
<path d="M141.7 192.65C141.65 192.65 141.65 192.65 141.6 192.65C140.85 192.6 140.2 192.15 139.95 191.45L108.25 104.4C108 103.7 108.2 102.9 108.75 102.4C109.3 101.9 110.1 101.75 110.8 102.1L156.2 123.3C164.8 127.3 168.55 137.6 164.55 146.2L143.35 191.6C143.05 192.2 142.4 192.65 141.7 192.65ZM113.25 107.3L141.85 185.95L161.15 144.6C164.3 137.85 161.35 129.8 154.6 126.6L113.25 107.3Z" fill="#221F1F"/>
<path d="M110 103.75L22.9502 135.4L68.3502 156.6C76.0502 160.2 85.2002 156.85 88.8002 149.15L110 103.75Z" fill="#F0AA97"/>
<path d="M74.8507 159.9C72.4007 159.9 69.9507 159.4 67.6007 158.3L22.2007 137.1C21.5007 136.8 21.1007 136.1 21.1507 135.35C21.2007 134.6 21.6507 133.95 22.3507 133.7L109.351 102C110.051 101.75 110.851 101.95 111.351 102.5C111.851 103.05 112.001 103.85 111.651 104.55L90.5007 149.95C87.6007 156.2 81.3507 159.9 74.8507 159.9ZM27.8007 135.65L69.1507 154.95C75.9007 158.1 83.9507 155.15 87.1507 148.4L106.451 107.05L27.8007 135.65Z" fill="#221F1F"/>
<path d="M110 103.75L197.05 72.05L151.65 50.85C143.95 47.25 134.8 50.6 131.2 58.3L110 103.75Z" fill="#F0AA97"/>
<path d="M110 105.6C109.5 105.6 109 105.4 108.65 105C108.15 104.45 108 103.65 108.35 102.95L129.55 57.55C131.5 53.4 134.95 50.2 139.25 48.65C143.55 47.1 148.25 47.3 152.4 49.2L197.8 70.4C198.5 70.7 198.9 71.4 198.85 72.15C198.8 72.9 198.35 73.55 197.65 73.8L110.65 105.5C110.45 105.55 110.2 105.6 110 105.6ZM145.1 51.3C143.55 51.3 142 51.55 140.45 52.1C137.05 53.35 134.35 55.8 132.8 59.1L113.55 100.5L192.2 71.9L150.85 52.6C149 51.7 147.05 51.3 145.1 51.3Z" fill="#221F1F"/>
<path d="M190.301 138.45C192.234 138.45 193.801 136.883 193.801 134.95C193.801 133.017 192.234 131.45 190.301 131.45C188.368 131.45 186.801 133.017 186.801 134.95C186.801 136.883 188.368 138.45 190.301 138.45Z" fill="#9E9E9E"/>
<path d="M177 113.8C180.314 113.8 183 111.114 183 107.8C183 104.486 180.314 101.8 177 101.8C173.686 101.8 171 104.486 171 107.8C171 111.114 173.686 113.8 177 113.8Z" fill="#9E9E9E"/>
<path d="M36.4008 102C40.1839 102 43.2508 98.9331 43.2508 95.1499C43.2508 91.3668 40.1839 88.2999 36.4008 88.2999C32.6176 88.2999 29.5508 91.3668 29.5508 95.1499C29.5508 98.9331 32.6176 102 36.4008 102Z" fill="#9CDB9C"/>
<path d="M36.4002 103.85C31.6002 103.85 27.7002 99.95 27.7002 95.15C27.7002 90.35 31.6002 86.45 36.4002 86.45C41.2002 86.45 45.1002 90.35 45.1002 95.15C45.1002 99.95 41.2002 103.85 36.4002 103.85ZM36.4002 90.15C33.6502 90.15 31.4002 92.4 31.4002 95.15C31.4002 97.9 33.6502 100.15 36.4002 100.15C39.1502 100.15 41.4002 97.9 41.4002 95.15C41.4002 92.4 39.1502 90.15 36.4002 90.15Z" fill="#221F1F"/>
<path d="M110 111.55C114.308 111.55 117.8 108.058 117.8 103.75C117.8 99.4421 114.308 95.95 110 95.95C105.692 95.95 102.2 99.4421 102.2 103.75C102.2 108.058 105.692 111.55 110 111.55Z" fill="white"/>
<path d="M110.001 113.4C104.701 113.4 100.351 109.05 100.351 103.75C100.351 98.45 104.701 94.1 110.001 94.1C115.301 94.1 119.651 98.45 119.651 103.75C119.651 109.05 115.301 113.4 110.001 113.4ZM110.001 97.8C106.701 97.8 104.051 100.45 104.051 103.75C104.051 107.05 106.701 109.7 110.001 109.7C113.301 109.7 115.951 107.05 115.951 103.75C115.951 100.45 113.301 97.8 110.001 97.8Z" fill="#221F1F"/>
</svg>
