<svg width="220" height="220" viewBox="0 0 220 220" fill="none" xmlns="http://www.w3.org/2000/svg">
<path d="M101.8 191.3C92.8003 191.3 85.5003 184 85.5003 175V169.2H72.1003C59.2003 169.2 48.7003 158.7 48.7003 145.8V134.8C44.7003 134.4 41.1003 132.1 39.2003 128.5C37.0003 124.6 37.1003 119.8 39.5003 116L48.6003 101.2C49.5003 99.7 50.0003 97.9 49.9003 96.1C49.9003 95.4 49.9003 94.6 49.9003 93.9C49.9003 59.8 77.6003 32.1 111.7 32.1C112.5 32.1 113.2 32.1 114 32.1C146.2 33.3 172.3 59.4 173.4 91.6C173.8 103.2 171 114.6 165.2 124.7C158.8 140 156.7 156.3 158.8 173C159.4 177.7 157.9 182.3 154.9 185.9C151.8 189.4 147.4 191.4 142.7 191.4H101.8V191.3Z" fill="white"/>
<path d="M101.8 187.3C95 187.3 89.5 181.8 89.5 175V165.2H72.1C61.4 165.2 52.7 156.5 52.7 145.8V130.9H50C47 130.9 44.2 129.3 42.7 126.6C41.2 124 41.3 120.7 42.9 118.1L52 103.3C53.3 101.1 54 98.6 53.9 95.9C53.9 95.2 53.9 94.5 53.9 93.8C53.9 62 79.8 36 111.7 36C112.4 36 113.1 36 113.9 36C144 37.1 168.4 61.5 169.5 91.6C169.9 102.6 167.2 113.3 161.7 122.7C155 138.8 152.7 155.8 154.9 173.2C155.3 176.7 154.3 180.3 151.9 182.9C149.6 185.5 146.2 187 142.7 187H101.8V187.3Z" fill="#221F1F"/>
<path d="M49.9003 127.1H53.4003C55.0003 127.1 56.4003 128.4 56.4003 130.1V145.7C56.4003 154.4 63.4003 161.4 72.1003 161.4H93.2003V175C93.2003 179.7 97.0003 183.6 101.8 183.6H142.5C147.7 183.6 151.6 179 151 173.9C148 149.8 153.8 131.5 158.2 121.2C163.2 112.6 166 102.6 165.6 91.8C164.6 63.7 141.7 40.8 113.6 39.7C82.8003 38.6 57.5003 63.2 57.5003 93.7C57.5003 94.4 57.5003 95 57.5003 95.6C57.6003 98.9 56.8003 102.2 55.1003 105.1L46.0003 120C44.1003 123.1 46.3003 127.1 49.9003 127.1Z" fill="#B9EFB9"/>
<path fill-rule="evenodd" clip-rule="evenodd" d="M180.8 137.1C180.3 137.1 179.9 137.5 179.9 138C179.9 138.5 180.3 138.9 180.8 138.9C181.3 138.9 181.7 138.5 181.7 138C181.7 137.5 181.3 137.1 180.8 137.1Z" fill="white"/>
<path d="M38.6 77.8C38.6 80.2 36.7 82.1 34.3 82.1C31.9 82.1 30 80.2 30 77.8C30 75.4 31.9 73.5 34.3 73.5C36.7 73.5 38.6 75.4 38.6 77.8Z" fill="#A0A0A0"/>
<path d="M53.7002 44.6C53.7002 48.2 50.8002 51.1 47.2002 51.1C43.6002 51.1 40.7002 48.2 40.7002 44.6C40.7002 41 43.6002 38.1 47.2002 38.1C50.8002 38.1 53.7002 41 53.7002 44.6Z" fill="#9EDD9E"/>
<path fill-rule="evenodd" clip-rule="evenodd" d="M47.2 48.5C49.3 48.5 51.1 46.8 51.1 44.6C51.1 42.5 49.4 40.7 47.2 40.7C45.1 40.7 43.3 42.4 43.3 44.6C43.3 46.7 45.1 48.5 47.2 48.5ZM47.2 52.7C51.7 52.7 55.4 49 55.4 44.5C55.4 40 51.7 36.3 47.2 36.3C42.7 36.3 39 40 39 44.5C39 49.1 42.7 52.7 47.2 52.7Z" fill="#221F1F"/>
<path d="M188.8 138.1C188.8 142.5 185.2 146.1 180.8 146.1C176.4 146.1 172.8 142.5 172.8 138.1C172.8 133.7 176.4 130.1 180.8 130.1C185.2 130.1 188.8 133.6 188.8 138.1Z" fill="#9EDD9E"/>
<path fill-rule="evenodd" clip-rule="evenodd" d="M180.8 143C183.5 143 185.7 140.8 185.7 138.1C185.7 135.4 183.5 133.2 180.8 133.2C178.1 133.2 175.9 135.4 175.9 138.1C175.9 140.8 178.1 143 180.8 143ZM180.8 147.3C185.9 147.3 190 143.2 190 138.1C190 133 185.9 128.9 180.8 128.9C175.7 128.9 171.6 133 171.6 138.1C171.6 143.2 175.7 147.3 180.8 147.3Z" fill="#221F1F"/>
<path d="M173 50.7H157V34.7C157 32.4 155.1 30.5 152.8 30.5H142.1C139.8 30.5 137.9 32.4 137.9 34.7V50.7H121.9C119.6 50.7 117.7 52.6 117.7 54.9V65.6C117.7 67.9 119.6 69.8 121.9 69.8H137.9V85.8C137.9 88.1 139.8 90 142.1 90H152.8C155.1 90 157 88.1 157 85.8V69.8H173C175.3 69.8 177.2 67.9 177.2 65.6V54.9C177.2 52.6 175.3 50.7 173 50.7Z" fill="white"/>
<path d="M152.9 91.8H142.2C138.9 91.8 136.2 89.1 136.2 85.8V71.7H122C118.7 71.7 116 69 116 65.7V54.9C116 51.6 118.7 48.9 122 48.9H136.1V34.8C136.1 31.5 138.8 28.8 142.1 28.8H152.8C156.1 28.8 158.8 31.5 158.8 34.8V48.9H173C176.3 48.9 179 51.6 179 54.9V65.6C179 68.9 176.3 71.6 173 71.6H158.9V85.7C158.9 89.1 156.2 91.8 152.9 91.8ZM122 52.6C120.7 52.6 119.7 53.6 119.7 54.9V65.6C119.7 66.9 120.7 67.9 122 67.9H139.8V85.7C139.8 87 140.8 88 142.1 88H152.8C154.1 88 155.1 87 155.1 85.7V68H173C174.3 68 175.3 67 175.3 65.7V54.9C175.3 53.6 174.3 52.6 173 52.6H155.2V34.8C155.2 33.5 154.2 32.5 152.9 32.5H142.2C140.9 32.5 139.9 33.5 139.9 34.8V52.6H122Z" fill="#221F1F"/>
<path d="M182.5 165.5H178V161C178 160.3 177.5 159.8 176.8 159.8H173.8C173.1 159.8 172.6 160.3 172.6 161V165.5H168.1C167.4 165.5 166.9 166 166.9 166.7V169.7C166.9 170.4 167.4 170.9 168.1 170.9H172.6V175.4C172.6 176.1 173.1 176.6 173.8 176.6H176.8C177.5 176.6 178 176.1 178 175.4V170.9H182.5C183.2 170.9 183.7 170.4 183.7 169.7V166.7C183.7 166 183.2 165.5 182.5 165.5Z" fill="#A0A0A0"/>
<path d="M89.6996 105.1C88.6996 105.1 87.7996 104.3 87.7996 103.2V101C87.7996 98.1 85.4996 95.8 82.5996 95.8C79.6996 95.8 77.3996 98.1 77.3996 101V103.3C77.3996 104.3 76.5996 105.2 75.4996 105.2C74.3996 105.2 73.5996 104.4 73.5996 103.3V101C73.5996 96.1 77.5996 92.1 82.4996 92.1C87.3996 92.1 91.3996 96.1 91.3996 101V103.3C91.5996 104.2 90.6996 105.1 89.6996 105.1Z" fill="#221F1F"/>
<path d="M75.1004 143.5C74.1004 143.5 73.3004 142.8 73.3004 141.8C73.2004 140.8 74.0004 139.9 75.0004 139.8C86.2004 138.9 96.6004 133.9 104.1 125.5C104.8 124.7 106 124.7 106.7 125.4C107.5 126.1 107.5 127.3 106.8 128C98.6004 137.1 87.4004 142.6 75.2004 143.6C75.2004 143.5 75.2004 143.5 75.1004 143.5Z" fill="#221F1F"/>
<path d="M101.9 155.4H76.1003C68.9003 155.4 63.1003 149.6 63.1003 142.4V121.7H45.3003C44.8003 124.4 46.9003 127.1 49.9003 127.1H53.4003C55.0003 127.1 56.4003 128.4 56.4003 130.1V145.7C56.4003 154.4 63.4003 161.4 72.1003 161.4H93.2003V175C93.2003 179.7 97.0003 183.6 101.8 183.6H101.9V155.4Z" fill="#8CE099"/>
</svg>
