<svg width="220" height="220" viewBox="0 0 220 220" fill="none" xmlns="http://www.w3.org/2000/svg">
<path fill-rule="evenodd" clip-rule="evenodd" d="M35.8995 186.3C29.8995 186.3 24.3995 183.2 21.3995 178C18.2995 172.8 18.2995 166.5 21.1995 161.3L82.3995 51.7C85.3995 46.3 90.8995 43.1 97.0994 43.1C103.299 43.1 108.699 46.3 111.799 51.7L173.499 161.2C176.499 166.5 176.399 172.7 173.399 178C170.399 183.3 164.899 186.3 158.899 186.3H35.8995ZM97.0994 55.4C96.2994 55.4 94.2994 55.6 93.0994 57.7L31.8995 167.2C30.7995 169.3 31.5995 171 31.8995 171.7C32.2995 172.4 33.4995 173.9 35.7995 173.9H158.699C161.099 173.9 162.199 172.3 162.599 171.6C162.999 170.9 163.799 169.1 162.599 167.1L101.099 57.7C99.8995 55.6 97.8995 55.4 97.0994 55.4Z" fill="white"/>
<path fill-rule="evenodd" clip-rule="evenodd" d="M202.599 85.1C202.099 85.1 201.699 85.5 201.699 86C201.699 86.5 202.099 86.9 202.599 86.9C203.099 86.9 203.499 86.5 203.499 86C203.499 85.5 203.099 85.1 202.599 85.1Z" fill="white"/>
<path fill-rule="evenodd" clip-rule="evenodd" d="M84.5991 164.4C80.0991 164.4 76.0991 162.1 73.7991 158.3C71.4991 154.4 71.3991 149.8 73.5991 145.9L118.199 64.3C120.399 60.2 124.599 57.8 129.199 57.8C133.799 57.8 137.999 60.2 140.199 64.3L184.799 145.9C186.899 149.8 186.899 154.5 184.599 158.3C182.299 162.2 178.299 164.4 173.799 164.4H84.5991Z" fill="white"/>
<path fill-rule="evenodd" clip-rule="evenodd" d="M121.6 66.2C124.8 60.3 133.4 60.3 136.6 66.2L181.2 147.8C184.3 153.5 180.2 160.5 173.7 160.5H84.5999C78.0999 160.5 73.9999 153.5 77.0999 147.8L121.6 66.2Z" fill="#A0A0A0"/>
<path d="M86.1998 55.3C90.9998 46.8 103.2 46.8 108 55.3L168.1 161.9C172.8 170.2 166.8 180.5 157.2 180.5H37.4998C27.9998 180.5 21.8998 170.2 26.5998 161.9L86.1998 55.3Z" fill="#FFA996"/>
<path fill-rule="evenodd" clip-rule="evenodd" d="M166.3 165.2L104.6 55.8C101.3 50 92.8997 50 89.6997 55.8L28.4997 165.3C25.2997 171 29.3997 178 35.9997 178H158.9C165.4 178 169.5 170.9 166.3 165.2ZM108.3 53.7C103.4 45 90.7997 45 85.8997 53.7L24.6997 163.2C19.8997 171.8 26.0997 182.3 35.8997 182.3H158.8C168.6 182.3 174.8 171.7 170 163.2L108.3 53.7Z" fill="#221F1F"/>
<path d="M89.8991 73.9C93.0991 68 101.699 68 104.899 73.9L149.499 155.5C152.599 161.2 148.499 168.2 141.999 168.2H52.7991C46.2991 168.2 42.1991 161.2 45.2991 155.5L89.8991 73.9Z" fill="white"/>
<path fill-rule="evenodd" clip-rule="evenodd" d="M145.699 157.5L101.199 76C99.5991 73 95.2991 73 93.6991 76L49.0991 157.6C47.4991 160.4 49.5991 163.9 52.8991 163.9H141.999C145.199 163.9 147.299 160.4 145.699 157.5ZM104.899 73.9C101.699 68 93.0991 68 89.8991 73.9L45.2991 155.5C42.1991 161.2 46.2991 168.2 52.7991 168.2H141.999C148.499 168.2 152.599 161.2 149.499 155.5L104.899 73.9Z" fill="#221F1F"/>
<path d="M100.7 143.2C100.7 145 99.1996 146.5 97.3996 146.5C95.5996 146.5 94.0996 145 94.0996 143.2C94.0996 141.4 95.5996 139.9 97.3996 139.9C99.1996 139.9 100.7 141.4 100.7 143.2Z" fill="#FFA996"/>
<path fill-rule="evenodd" clip-rule="evenodd" d="M104.899 143.2C104.899 147.4 101.499 150.7 97.3994 150.7C93.1994 150.7 89.8994 147.3 89.8994 143.2C89.8994 139 93.2994 135.7 97.3994 135.7C101.599 135.6 104.899 139 104.899 143.2ZM97.3994 146.4C99.1994 146.4 100.699 144.9 100.699 143.1C100.699 141.3 99.1994 139.8 97.3994 139.8C95.5994 139.8 94.0994 141.3 94.0994 143.1C94.0994 145 95.5994 146.4 97.3994 146.4Z" fill="#221F1F"/>
<path d="M93.2996 110.4L95.0996 127.9C95.1996 128.9 95.9996 129.7 97.0996 129.7H97.8996C98.8996 129.7 99.7996 128.9 99.8996 127.9L101.7 110.4C101.8 109.2 100.9 108.2 99.6996 108.2H95.3996C94.0996 108.2 93.1996 109.3 93.2996 110.4Z" fill="#FFA996"/>
<path fill-rule="evenodd" clip-rule="evenodd" d="M90.7998 128.3L88.9998 110.8C88.5998 107.1 91.4998 103.9 95.1998 103.9H99.4998C103.2 103.9 106.1 107.1 105.7 110.8L103.9 128.3C103.6 131.5 100.9 133.9 97.6998 133.9H96.9998C93.7998 133.9 91.0998 131.5 90.7998 128.3ZM95.0998 127.9L93.2998 110.4C93.1998 109.2 94.0998 108.2 95.2998 108.2H99.5998C100.8 108.2 101.7 109.2 101.6 110.4L99.7998 127.9C99.6998 128.9 98.8998 129.7 97.7998 129.7H96.9998C95.9998 129.6 95.1998 128.9 95.0998 127.9Z" fill="#221F1F"/>
<path d="M22.6 106.4C22.6 108.8 20.7 110.7 18.3 110.7C15.9 110.7 14 108.8 14 106.4C14 104 15.9 102.1 18.3 102.1C20.7 102.1 22.6 104 22.6 106.4Z" fill="#A0A0A0"/>
<path d="M22.7998 41.9C22.7998 45.5 19.8998 48.4 16.2998 48.4C12.6998 48.4 9.7998 45.5 9.7998 41.9C9.7998 38.3 12.6998 35.4 16.2998 35.4C19.8998 35.4 22.7998 38.3 22.7998 41.9Z" fill="#FFA996"/>
<path fill-rule="evenodd" clip-rule="evenodd" d="M16.2996 45.8C18.3996 45.8 20.1996 44.1 20.1996 41.9C20.1996 39.8 18.4996 38 16.2996 38C14.0996 38 12.3996 39.7 12.3996 41.9C12.4996 44 14.1996 45.8 16.2996 45.8ZM16.2996 50.1C20.7996 50.1 24.4996 46.4 24.4996 41.9C24.4996 37.4 20.7996 33.7 16.2996 33.7C11.7996 33.7 8.09961 37.4 8.09961 41.9C8.19961 46.4 11.7996 50.1 16.2996 50.1Z" fill="#221F1F"/>
<path d="M210.6 86.1C210.6 90.5 207 94.1 202.6 94.1C198.2 94.1 194.6 90.5 194.6 86.1C194.6 81.7 198.2 78.1 202.6 78.1C207 78.1 210.6 81.7 210.6 86.1Z" fill="#FFA996"/>
<path fill-rule="evenodd" clip-rule="evenodd" d="M202.599 91C205.299 91 207.499 88.8 207.499 86.1C207.499 83.4 205.299 81.2 202.599 81.2C199.899 81.2 197.699 83.4 197.699 86.1C197.699 88.8 199.899 91 202.599 91ZM202.599 95.3C207.699 95.3 211.799 91.2 211.799 86.1C211.799 81 207.699 76.9 202.599 76.9C197.499 76.9 193.399 81 193.399 86.1C193.399 91.2 197.499 95.3 202.599 95.3Z" fill="#221F1F"/>
</svg>
