<svg width="220" height="220" viewBox="0 0 220 220" fill="none" xmlns="http://www.w3.org/2000/svg">
<path d="M109.55 174.85C74.7502 174.85 46.4502 146.55 46.4502 111.75C46.4502 76.95 74.7502 48.65 109.55 48.65C144.35 48.65 172.65 76.95 172.65 111.75C172.65 146.55 144.35 174.85 109.55 174.85ZM109.55 61.35C81.7502 61.35 59.1502 83.95 59.1502 111.75C59.1502 139.55 81.7502 162.15 109.55 162.15C137.35 162.15 159.95 139.55 159.95 111.75C159.95 83.95 137.35 61.35 109.55 61.35Z" fill="white"/>
<path fill-rule="evenodd" clip-rule="evenodd" d="M206.95 155.35C211.25 154.55 214.5 150.8 214.5 146.3C214.5 141.2 210.35 137.1 205.2 137.1C203.6 137.1 202.05 137.5 200.75 138.25C198.75 134.85 195 132.55 190.75 132.55C186.45 132.55 182.7 134.85 180.7 138.3C180.1 139.3 179.7 140.4 179.4 141.55C178.4 141.05 177.25 140.75 176 140.75C171.9 140.75 168.55 144.05 168.55 148.15C168.55 151.65 171 154.55 174.3 155.35C174.85 155.5 175.45 155.55 176.05 155.55H205.25C205.8 155.5 206.35 155.45 206.95 155.35ZM197.75 139.95C198.7 141.55 200.75 142.15 202.4 141.25C203.25 140.8 204.2 140.55 205.2 140.55C208.45 140.55 211 143.15 211 146.3C211 149.45 208.45 152.05 205.2 152.05H176C173.75 152.05 172 150.25 172 148.15C172 146 173.75 144.25 176 144.25C176.65 144.25 177.25 144.4 177.8 144.7C178.75 145.2 179.9 145.2 180.85 144.75C181.8 144.3 182.55 143.4 182.75 142.35C183.55 138.8 186.8 136.1 190.7 136.1C193.7 136 196.3 137.6 197.75 139.95Z" fill="#9E9E9E"/>
<path d="M166.3 111.75C166.3 143.1 140.9 168.5 109.55 168.5C78.1998 168.5 52.7998 143.1 52.7998 111.75C52.7998 80.4 78.1998 55 109.55 55C140.9 55 166.3 80.4 166.3 111.75Z" fill="#CAE5FF"/>
<path d="M109.55 170.35C77.2502 170.35 50.9502 144.05 50.9502 111.75C50.9502 79.45 77.2502 53.15 109.55 53.15C141.85 53.15 168.15 79.45 168.15 111.75C168.15 144.05 141.85 170.35 109.55 170.35ZM109.55 56.85C79.3002 56.85 54.6502 81.5 54.6502 111.75C54.6502 142 79.3002 166.65 109.55 166.65C139.8 166.65 164.45 142 164.45 111.75C164.45 81.5 139.8 56.85 109.55 56.85Z" fill="#221F1F"/>
<path d="M151.5 146.9C145.35 149.1 138.75 150.25 131.85 150.25C99.3998 150.25 73.0498 123.95 73.0498 91.45C73.0498 82.55 74.9998 74.15 78.5498 66.6C64.1998 76.45 54.7998 93 54.7998 111.7C54.7998 141.95 79.2998 166.45 109.55 166.45C126.4 166.5 141.45 158.85 151.5 146.9Z" fill="#8EBFE2"/>
<path d="M158.2 113.8C158.2 119.4 153.65 123.95 148.05 123.95C142.45 123.95 137.9 119.4 137.9 113.8C137.9 108.2 142.45 103.65 148.05 103.65C153.65 103.65 158.2 108.2 158.2 113.8Z" fill="#8EBFE2"/>
<path d="M103.45 79.3C103.45 81.55 101.65 83.35 99.3996 83.35C97.1496 83.35 95.3496 81.55 95.3496 79.3C95.3496 77.05 97.1496 75.25 99.3996 75.25C101.65 75.25 103.45 77.1 103.45 79.3Z" fill="#8EBFE2"/>
<path d="M117.65 115.8C117.65 119.15 114.95 121.9 111.55 121.9C108.15 121.9 105.45 119.2 105.45 115.8C105.45 112.45 108.15 109.7 111.55 109.7C114.95 109.7 117.65 112.45 117.65 115.8Z" fill="#8EBFE2"/>
<path d="M85.1996 109.75C85.1996 110.85 84.2996 111.8 83.1496 111.8C82.0496 111.8 81.0996 110.9 81.0996 109.75C81.0996 108.65 81.9996 107.7 83.1496 107.7C84.2996 107.7 85.1996 108.6 85.1996 109.75Z" fill="#8EBFE2"/>
<path d="M121.7 94.55C121.7 96.25 120.35 97.6 118.65 97.6C116.95 97.6 115.6 96.25 115.6 94.55C115.6 92.85 116.95 91.5 118.65 91.5C120.35 91.5 121.7 92.85 121.7 94.55Z" fill="#8EBFE2"/>
<path d="M113.6 65.15C113.6 66.25 112.7 67.2 111.55 67.2C110.45 67.2 109.5 66.3 109.5 65.15C109.5 64.05 110.4 63.1 111.55 63.1C112.7 63.1 113.6 64 113.6 65.15Z" fill="#8EBFE2"/>
<path d="M37.0498 47.8C40.6998 47.8 47.4498 41.1 47.4498 37.4C47.4498 41.05 54.1498 47.8 57.8498 47.8C54.1998 47.8 47.4498 54.5 47.4498 58.2C47.3998 54.5 40.6998 47.8 37.0498 47.8Z" fill="#F1C958"/>
<path fill-rule="evenodd" clip-rule="evenodd" d="M35.5996 47.8C35.5996 47 36.2496 46.4 36.9996 46.4C37.5496 46.4 38.3996 46.15 39.4496 45.5C40.4996 44.9 41.5496 44 42.5496 43C43.5496 42 44.4496 40.9 45.0496 39.9C45.6996 38.85 45.9496 38 45.9496 37.45C45.9496 36.65 46.5996 36.05 47.3496 36.05C48.1496 36.05 48.7496 36.7 48.7496 37.45C48.7496 38 48.9996 38.85 49.6496 39.9C50.2496 40.95 51.1496 42 52.1496 43C53.1496 44 54.2496 44.9 55.2496 45.5C56.2996 46.15 57.1496 46.4 57.6996 46.4C58.4996 46.4 59.0996 47.05 59.0996 47.8C59.0996 48.6 58.4496 49.2 57.6996 49.2C57.1496 49.2 56.3496 49.45 55.2496 50.1C54.1996 50.7 53.1496 51.6 52.1496 52.6C51.1496 53.6 50.2496 54.7 49.6496 55.7C48.9996 56.75 48.7496 57.6 48.7496 58.15C48.7496 58.95 48.0996 59.55 47.3496 59.55C46.5496 59.55 45.9496 58.9 45.9496 58.15C45.9496 57.6 45.6996 56.75 45.0496 55.7C44.4496 54.65 43.5496 53.6 42.5496 52.6C41.5496 51.6 40.4496 50.7 39.4496 50.1C38.3996 49.45 37.5496 49.2 36.9996 49.2C36.2496 49.25 35.5996 48.6 35.5996 47.8ZM41.0996 47.8C42.2996 48.55 43.4996 49.55 44.5996 50.6C45.6996 51.7 46.6496 52.9 47.3996 54.1C48.1496 52.9 49.1496 51.7 50.1996 50.6C51.2996 49.5 52.4996 48.55 53.6996 47.8C52.4996 47.05 51.2996 46.05 50.1996 45C49.0996 43.9 48.1496 42.7 47.3996 41.5C46.6496 42.7 45.6496 43.9 44.5996 45C43.4996 46.1 42.2996 47.05 41.0996 47.8Z" fill="#221F1F"/>
<path d="M22 86.7C24.85 86.7 30 81.5 30 78.7C30 81.55 35.2 86.7 38 86.7C35.15 86.7 30 91.9 30 94.7C30 91.85 24.85 86.7 22 86.7Z" fill="#9E9E9E"/>
<path d="M157.05 177.7C158.7 177.7 161.75 174.65 161.75 173C161.75 174.65 164.8 177.7 166.45 177.7C164.8 177.7 161.75 180.75 161.75 182.4C161.75 180.75 158.7 177.7 157.05 177.7Z" fill="#9E9E9E"/>
<path d="M146.45 39.9C148.1 39.9 151.15 36.85 151.15 35.2C151.15 36.85 154.2 39.9 155.85 39.9C154.2 39.9 151.15 42.95 151.15 44.6C151.15 42.9 148.1 39.9 146.45 39.9Z" fill="#9E9E9E"/>
<path d="M59.0498 179.1C61.7998 179.1 66.7998 174.1 66.7998 171.35C66.7998 174.1 71.7998 179.1 74.5498 179.1C71.7998 179.1 66.7998 184.1 66.7998 186.85C66.7998 184.1 61.7998 179.1 59.0498 179.1Z" fill="#F1C958"/>
<path fill-rule="evenodd" clip-rule="evenodd" d="M57.6504 179.1C57.6504 178.3 58.3004 177.7 59.0504 177.7C59.3504 177.7 59.9004 177.55 60.7004 177.1C61.4504 176.65 62.2504 176 62.9504 175.3C63.7004 174.55 64.3004 173.8 64.7504 173.05C65.2004 172.3 65.3504 171.7 65.3504 171.4C65.3504 170.6 66.0004 170 66.7504 170C67.5004 170 68.1504 170.65 68.1504 171.4C68.1504 171.7 68.3004 172.25 68.7504 173.05C69.2004 173.8 69.8504 174.6 70.5504 175.3C71.3004 176.05 72.0504 176.65 72.8004 177.1C73.5504 177.55 74.1504 177.7 74.4504 177.7C75.2504 177.7 75.8504 178.35 75.8504 179.1C75.8504 179.85 75.2004 180.5 74.4504 180.5C74.1504 180.5 73.6004 180.65 72.8004 181.1C72.0504 181.55 71.2504 182.2 70.5504 182.9C69.8004 183.65 69.2004 184.4 68.7504 185.15C68.3004 185.9 68.1504 186.5 68.1504 186.8C68.1504 187.6 67.5004 188.2 66.7504 188.2C66.0004 188.2 65.3504 187.55 65.3504 186.8C65.3504 186.5 65.2004 185.95 64.7504 185.15C64.3004 184.4 63.6504 183.6 62.9504 182.9C62.2004 182.15 61.4504 181.55 60.7004 181.1C59.9504 180.65 59.3504 180.5 59.0504 180.5C58.3004 180.55 57.6504 179.9 57.6504 179.1ZM62.7504 179.1C63.5004 179.6 64.2504 180.25 64.9504 180.95C65.6504 181.65 66.2504 182.4 66.8004 183.15C67.3004 182.4 67.9504 181.65 68.6504 180.95C69.3504 180.25 70.1004 179.65 70.8504 179.1C70.1004 178.55 69.3504 177.95 68.6504 177.25C67.9504 176.55 67.3504 175.8 66.8004 175.05C66.3004 175.8 65.6504 176.55 64.9504 177.25C64.3004 177.95 63.5504 178.6 62.7504 179.1Z" fill="#221F1F"/>
<path d="M181.75 93.4C184.5 93.4 189.5 88.4 189.5 85.65C189.5 88.4 194.5 93.4 197.25 93.4C194.5 93.4 189.5 98.4 189.5 101.15C189.5 98.4 184.5 93.4 181.75 93.4Z" fill="#F1C958"/>
<path fill-rule="evenodd" clip-rule="evenodd" d="M180.35 93.4C180.35 92.6 181 92 181.75 92C182.05 92 182.6 91.85 183.4 91.4C184.15 90.95 184.95 90.3 185.65 89.6C186.4 88.85 187 88.1 187.45 87.35C187.9 86.6 188.05 86 188.05 85.7C188.05 84.9 188.7 84.3 189.45 84.3C190.2 84.3 190.85 84.95 190.85 85.7C190.85 86 191 86.55 191.45 87.35C191.9 88.1 192.55 88.9 193.25 89.6C193.95 90.3 194.75 90.95 195.5 91.4C196.25 91.85 196.85 92 197.15 92C197.95 92 198.55 92.65 198.55 93.4C198.55 94.15 197.9 94.8 197.15 94.8C196.85 94.8 196.3 94.95 195.5 95.4C194.75 95.85 193.95 96.5 193.25 97.2C192.5 97.95 191.9 98.7 191.45 99.45C191 100.2 190.85 100.8 190.85 101.1C190.85 101.9 190.2 102.5 189.45 102.5C188.7 102.5 188.05 101.85 188.05 101.1C188.05 100.8 187.9 100.25 187.45 99.45C187 98.7 186.35 97.9 185.65 97.2C184.9 96.45 184.15 95.85 183.4 95.4C182.65 94.95 182.05 94.8 181.75 94.8C181 94.85 180.35 94.2 180.35 93.4ZM185.45 93.4C186.2 93.9 186.95 94.55 187.65 95.25C188.35 95.95 188.95 96.7 189.5 97.45C190 96.7 190.65 95.95 191.35 95.25C192.05 94.55 192.8 93.95 193.55 93.4C192.8 92.85 192.05 92.25 191.35 91.55C190.65 90.85 190.05 90.1 189.5 89.35C189 90.1 188.35 90.85 187.65 91.55C187 92.25 186.25 92.9 185.45 93.4Z" fill="#221F1F"/>
<path d="M21.5996 155.2C12.4996 155.2 5.09961 147.8 5.09961 138.7C5.09961 129.6 12.4996 122.2 21.5996 122.2C24.3496 122.2 27.0996 122.9 29.4996 124.2L30.4496 124.7L30.9996 123.8C34.7496 117.45 41.5996 113.5 48.9496 113.5C58.6496 113.5 67.1996 120.35 69.2996 129.8L69.5996 131.2L70.8496 130.55C72.6996 129.6 74.6496 129.15 76.7496 129.15C83.9496 129.15 89.7496 135 89.7496 142.15C89.7496 149.35 83.8996 155.15 76.7496 155.15H21.5996V155.2Z" fill="white"/>
<path d="M31.4498 153.1C21.9998 151.35 13.9498 145.1 13.9498 136.3C13.9498 130.4 17.4498 125.65 22.5998 122.9C14.3498 122.9 7.2998 130.15 7.2998 138.35C7.2998 147.15 15.0498 154.3 24.5998 154.3H39.6998L31.4498 153.1Z" fill="#CAE5FF"/>
<path d="M76.75 157.05H21.6C11.5 157.05 3.25 148.8 3.25 138.7C3.25 128.6 11.5 120.35 21.6 120.35C24.45 120.35 27.25 121 29.75 122.25C33.9 115.7 41.2 111.65 48.95 111.65C59.2 111.65 68.25 118.7 70.85 128.5C72.7 127.7 74.65 127.3 76.7 127.3C84.9 127.3 91.55 133.95 91.55 142.15C91.6 150.4 84.95 157.05 76.75 157.05ZM21.6 124.05C13.55 124.05 6.95 130.6 6.95 138.7C6.95 146.75 13.5 153.35 21.6 153.35H76.75C82.9 153.35 87.9 148.35 87.9 142.2C87.9 136.05 82.9 131.05 76.75 131.05C74.95 131.05 73.25 131.45 71.7 132.25L68.3 133.95L67.5 130.25C65.6 121.65 57.8 115.4 48.95 115.4C42.25 115.4 35.95 119 32.55 124.8L31.1 127.25L28.6 125.9C26.45 124.7 24.05 124.05 21.6 124.05Z" fill="#221F1F"/>
</svg>
