<svg width="140" height="140" viewBox="0 0 140 140" fill="none" xmlns="http://www.w3.org/2000/svg">
<path d="M70.0002 134.3C34.5002 134.3 5.7002 105.4 5.7002 70.0002C5.7002 34.6002 34.5002 5.7002 70.0002 5.7002C105.5 5.7002 134.3 34.6002 134.3 70.0002C134.3 105.4 105.5 134.3 70.0002 134.3Z" fill="white"/>
<path d="M70 128.5C102.309 128.5 128.5 102.309 128.5 70C128.5 37.6913 102.309 11.5 70 11.5C37.6913 11.5 11.5 37.6913 11.5 70C11.5 102.309 37.6913 128.5 70 128.5Z" fill="#F6E442"/>
<path d="M70.0002 130.3C36.7002 130.3 9.7002 103.2 9.7002 70.0002C9.7002 36.7002 36.7002 9.7002 70.0002 9.7002C103.3 9.7002 130.3 36.8002 130.3 70.0002C130.3 103.3 103.3 130.3 70.0002 130.3ZM70.0002 13.4002C38.8002 13.4002 13.4002 38.8002 13.4002 70.0002C13.4002 101.2 38.8002 126.6 70.0002 126.6C101.2 126.6 126.6 101.2 126.6 70.0002C126.6 38.8002 101.2 13.4002 70.0002 13.4002Z" fill="#221F1F"/>
<path opacity="0.15" fill-rule="evenodd" clip-rule="evenodd" d="M88.4998 115.6C51.9998 115.6 22.2998 85.9004 22.2998 49.4004C22.2998 45.5004 22.6998 41.6004 23.2998 37.9004C16.9998 47.0004 13.2998 58.1004 13.2998 70.0004C13.2998 101.2 38.6998 126.6 69.8998 126.6C83.8998 126.6 96.6998 121.5 106.6 113C100.9 114.7 94.7998 115.6 88.4998 115.6Z" fill="black"/>
<path fill-rule="evenodd" clip-rule="evenodd" d="M70.0003 88.0004C58.4003 88.0004 47.3003 85.9004 37.1003 82.0004C33.5003 80.6004 30.1003 84.3004 31.7003 87.8004C38.4003 102.2 53.0003 112.2 70.0003 112.2C87.0003 112.2 101.6 102.2 108.3 87.8004C109.9 84.3004 106.5 80.6004 102.9 82.0004C92.7003 85.9004 81.6003 88.0004 70.0003 88.0004Z" fill="#D88C7D"/>
<path d="M70.0006 114.1C52.9006 114.1 37.2006 104.1 30.0006 88.6001C28.9006 86.3001 29.3006 83.7001 31.1006 81.8001C32.8006 79.9001 35.4006 79.4001 37.8006 80.3001C48.1006 84.2001 58.9006 86.2001 70.0006 86.2001C81.1006 86.2001 91.9006 84.2001 102.201 80.3001C104.601 79.4001 107.201 80.0001 108.901 81.8001C110.601 83.7001 111.001 86.2001 110.001 88.6001C102.801 104.1 87.1006 114.1 70.0006 114.1ZM35.5006 83.6001C34.6006 83.6001 34.0006 84.2001 33.8006 84.4001C33.5006 84.7001 32.7006 85.7001 33.4006 87.1001C40.0006 101.3 54.4006 110.5 70.0006 110.5C85.6006 110.5 100.001 101.3 106.601 87.1001C107.201 85.7001 106.501 84.7001 106.201 84.4001C105.901 84.1001 105.001 83.2001 103.501 83.8001C92.8006 87.9001 81.5006 90.0001 70.0006 90.0001C58.4006 90.0001 47.2006 87.9001 36.5006 83.8001C36.1006 83.6001 35.8006 83.6001 35.5006 83.6001Z" fill="#221F1F"/>
<path d="M53.6 71.1001C52.6 71.1001 51.7 70.3001 51.7 69.2001V67.0001C51.7 64.1001 49.4 61.8001 46.5 61.8001C43.6 61.8001 41.3 64.1001 41.3 67.0001V69.3001C41.3 70.3001 40.5 71.2001 39.4 71.2001C38.3 71.2001 37.5 70.4001 37.5 69.3001V67.0001C37.5 62.1001 41.5 58.1001 46.4 58.1001C51.3 58.1001 55.3 62.1001 55.3 67.0001V69.3001C55.4 70.3001 54.6 71.1001 53.6 71.1001Z" fill="#221F1F"/>
<path d="M100.5 71.1001C99.5002 71.1001 98.7002 70.3001 98.7002 69.2001V67.0001C98.7002 64.1001 96.4002 61.8001 93.5002 61.8001C90.6002 61.8001 88.3002 64.1001 88.3002 67.0001V69.3001C88.3002 70.3001 87.5002 71.2001 86.5002 71.2001C85.5002 71.2001 84.7002 70.4001 84.7002 69.3001V67.0001C84.7002 62.1001 88.7002 58.1001 93.6002 58.1001C98.5002 58.1001 102.5 62.1001 102.5 67.0001V69.3001C102.4 70.3001 101.5 71.1001 100.5 71.1001Z" fill="#221F1F"/>
<path fill-rule="evenodd" clip-rule="evenodd" d="M70 88.0001C61.4 88.0001 53 86.8001 45 84.6001C47 93.3001 57.4 100 70 100C82.6 100 93 93.3001 95 84.6001C87 86.8001 78.6 88.0001 70 88.0001Z" fill="white"/>
<path d="M70 101.9C56.7 101.9 45.5 94.8 43.2 85L42.5 82L45.5 82.8C61.4 87.2 78.5 87.2 94.4 82.8L97.4 82L96.7 85C94.5 94.8 83.3 101.9 70 101.9ZM48 87.3C51.3 93.7 60.1 98.2 70 98.2C79.9 98.2 88.7 93.7 92 87.3C77.6 90.7 62.4 90.7 48 87.3Z" fill="#221F1F"/>
</svg>
