<svg width="140" height="140" viewBox="0 0 140 140" fill="none" xmlns="http://www.w3.org/2000/svg">
<path d="M70.0002 134.3C34.5002 134.3 5.7002 105.4 5.7002 70.0002C5.7002 34.6002 34.5002 5.7002 70.0002 5.7002C105.5 5.7002 134.3 34.6002 134.3 70.0002C134.3 105.4 105.5 134.3 70.0002 134.3Z" fill="white"/>
<path d="M70 128.5C102.309 128.5 128.5 102.309 128.5 70C128.5 37.6913 102.309 11.5 70 11.5C37.6913 11.5 11.5 37.6913 11.5 70C11.5 102.309 37.6913 128.5 70 128.5Z" fill="#F6E442"/>
<path d="M70.0002 130.3C36.7002 130.3 9.7002 103.2 9.7002 70.0002C9.7002 36.7002 36.7002 9.7002 70.0002 9.7002C103.3 9.7002 130.3 36.8002 130.3 70.0002C130.3 103.3 103.3 130.3 70.0002 130.3ZM70.0002 13.4002C38.8002 13.4002 13.4002 38.8002 13.4002 70.0002C13.4002 101.2 38.8002 126.6 70.0002 126.6C101.2 126.6 126.6 101.2 126.6 70.0002C126.6 38.8002 101.2 13.4002 70.0002 13.4002Z" fill="#221F1F"/>
<path opacity="0.15" fill-rule="evenodd" clip-rule="evenodd" d="M88.4998 115.6C51.9998 115.6 22.2998 85.9004 22.2998 49.4004C22.2998 45.5004 22.6998 41.6004 23.2998 37.9004C16.9998 47.0004 13.2998 58.1004 13.2998 70.0004C13.2998 101.2 38.6998 126.6 69.8998 126.6C83.8998 126.6 96.6998 121.5 106.6 113C100.9 114.7 94.7998 115.6 88.4998 115.6Z" fill="black"/>
<path d="M46.4 70.4004C45.4 70.4004 44.5 69.6004 44.5 68.5004V58.3004C44.5 57.3004 45.3 56.4004 46.4 56.4004C47.5 56.4004 48.3 57.2004 48.3 58.3004V68.6004C48.2 69.6004 47.4 70.4004 46.4 70.4004Z" fill="#221F1F"/>
<path d="M93.5998 70.4004C92.5998 70.4004 91.7998 69.6004 91.7998 68.5004V58.3004C91.7998 57.3004 92.5998 56.4004 93.5998 56.4004C94.5998 56.4004 95.3998 57.2004 95.3998 58.3004V68.6004C95.4998 69.6004 94.5998 70.4004 93.5998 70.4004Z" fill="#221F1F"/>
<path fill-rule="evenodd" clip-rule="evenodd" d="M69.9998 94.2001C76.9998 94.2001 83.5998 95.3001 89.6998 97.3001C84.5998 88.5001 77.6998 83.1001 69.9998 83.1001C62.2998 83.1001 55.3998 88.5001 50.2998 97.3001C56.3998 95.3001 62.9998 94.2001 69.9998 94.2001Z" fill="#D88C7D"/>
<path d="M89.6999 99.2003C89.4999 99.2003 89.2999 99.2003 89.0999 99.1003C82.9999 97.1003 76.5999 96.1003 69.9999 96.1003C63.3999 96.1003 56.9999 97.1003 50.8999 99.1003C50.1999 99.3003 49.3999 99.1003 48.8999 98.5003C48.3999 97.9003 48.2999 97.1003 48.6999 96.4003C54.3999 86.7003 61.8999 81.3003 69.9999 81.3003C78.0999 81.3003 85.5999 86.7003 91.2999 96.4003C91.6999 97.1003 91.5999 97.9003 91.0999 98.5003C90.7999 98.9003 90.1999 99.2003 89.6999 99.2003ZM69.9999 85.0003C64.4999 85.0003 59.0999 88.2003 54.5999 94.1003C59.5999 92.9003 64.6999 92.3003 69.9999 92.3003C75.2999 92.3003 80.3999 92.9003 85.3999 94.1003C80.8999 88.2003 75.4999 85.0003 69.9999 85.0003Z" fill="#221F1F"/>
<path d="M36.2998 46.6C35.7998 46.6 35.2998 46.4 34.8998 45.9C34.1998 45.1 34.2998 44 35.0998 43.3L46.3998 33.7C47.1998 33 48.2998 33.1 48.9998 33.9C49.6998 34.7 49.5998 35.8 48.7998 36.5L37.4998 46.1C37.0998 46.4 36.6998 46.6 36.2998 46.6Z" fill="#221F1F"/>
<path d="M103.7 46.6001C103.3 46.6001 102.9 46.5001 102.5 46.2001L91.2003 36.6001C90.4003 35.9001 90.3003 34.8001 91.0003 34.0001C91.7003 33.2001 92.8003 33.1001 93.6003 33.8001L104.9 43.4001C105.7 44.1001 105.8 45.2001 105.1 46.0001C104.8 46.3001 104.3 46.6001 103.7 46.6001Z" fill="#221F1F"/>
</svg>
