<svg width="140" height="140" viewBox="0 0 140 140" fill="none" xmlns="http://www.w3.org/2000/svg">
<path d="M70.0002 134.3C34.5002 134.3 5.7002 105.4 5.7002 70.0002C5.7002 34.6002 34.5002 5.7002 70.0002 5.7002C105.5 5.7002 134.3 34.6002 134.3 70.0002C134.3 105.4 105.5 134.3 70.0002 134.3Z" fill="white"/>
<path d="M70 128.5C102.309 128.5 128.5 102.309 128.5 70C128.5 37.6913 102.309 11.5 70 11.5C37.6913 11.5 11.5 37.6913 11.5 70C11.5 102.309 37.6913 128.5 70 128.5Z" fill="#F6E442"/>
<path d="M70.0002 130.3C36.7002 130.3 9.7002 103.2 9.7002 70.0002C9.7002 36.7002 36.7002 9.7002 70.0002 9.7002C103.3 9.7002 130.3 36.8002 130.3 70.0002C130.3 103.3 103.3 130.3 70.0002 130.3ZM70.0002 13.4002C38.8002 13.4002 13.4002 38.8002 13.4002 70.0002C13.4002 101.2 38.8002 126.6 70.0002 126.6C101.2 126.6 126.6 101.2 126.6 70.0002C126.6 38.8002 101.2 13.4002 70.0002 13.4002Z" fill="#221F1F"/>
<path opacity="0.15" fill-rule="evenodd" clip-rule="evenodd" d="M88.4998 115.6C51.9998 115.6 22.2998 85.9004 22.2998 49.4004C22.2998 45.5004 22.6998 41.6004 23.2998 37.9004C16.9998 47.0004 13.2998 58.1004 13.2998 70.0004C13.2998 101.2 38.6998 126.6 69.8998 126.6C83.8998 126.6 96.6998 121.5 106.6 113C100.9 114.7 94.7998 115.6 88.4998 115.6Z" fill="black"/>
<path d="M70.0001 98.5004C57.7001 98.5004 45.8001 93.3004 37.5001 84.2004C36.8001 83.4004 36.9001 82.3004 37.6001 81.6004C38.3001 80.9004 39.5001 81.0004 40.2001 81.7004C47.8001 90.0004 58.7001 94.8004 70.0001 94.8004C81.3001 94.8004 92.2001 90.0004 99.8001 81.6004C100.5 80.8004 101.7 80.8004 102.4 81.5004C103.2 82.2004 103.2 83.4004 102.5 84.1004C94.2001 93.3004 82.3001 98.5004 70.0001 98.5004Z" fill="#221F1F"/>
<path d="M46.4 70.4004C45.4 70.4004 44.5 69.6004 44.5 68.5004V58.3004C44.5 57.3004 45.3 56.4004 46.4 56.4004C47.5 56.4004 48.3 57.2004 48.3 58.3004V68.6004C48.2 69.6004 47.4 70.4004 46.4 70.4004Z" fill="#221F1F"/>
<path d="M93.5998 70.4004C92.5998 70.4004 91.7998 69.6004 91.7998 68.5004V58.3004C91.7998 57.3004 92.5998 56.4004 93.5998 56.4004C94.5998 56.4004 95.3998 57.2004 95.3998 58.3004V68.6004C95.4998 69.6004 94.5998 70.4004 93.5998 70.4004Z" fill="#221F1F"/>
</svg>
