<svg width="165" height="165" viewBox="0 0 165 165" fill="none" xmlns="http://www.w3.org/2000/svg">
<path d="M128.325 96.525L119.963 89.9625V78.4126C125.025 70.9501 127.688 62.2125 127.688 53.175C127.688 28.275 107.4 7.98755 82.5 7.98755C57.6 7.98755 37.3125 28.275 37.3125 53.175C37.3125 62.25 39.975 70.9501 45.0375 78.4126V89.9625L36.7125 96.525C35.55 97.425 34.875 98.8125 34.875 100.275V121.163C34.875 129.975 39.675 138.15 47.3625 142.463L47.475 142.538C47.5125 142.575 47.5875 142.613 47.625 142.613C48.075 142.838 48.525 142.988 49.0125 143.063C49.275 143.1 49.5375 143.138 49.8 143.138C50.0625 143.138 50.325 143.1 50.5875 143.063C51.075 142.988 51.525 142.838 51.975 142.613C51.975 142.613 52.0875 142.575 52.125 142.538L52.2375 142.463C59.925 138.15 64.725 129.975 64.725 121.163V100.275C64.725 98.8125 64.05 97.425 62.925 96.525L54.5625 89.9625V88.65C61.2375 93.9 69.3 97.2001 77.7375 98.1001V103.875L69.4125 110.438C68.25 111.338 67.575 112.725 67.575 114.188V135.075C67.575 143.888 72.375 152.063 80.0625 156.375C80.0625 156.375 80.175 156.413 80.2125 156.45C80.25 156.45 80.325 156.488 80.325 156.525C80.775 156.75 81.225 156.9 81.7125 157.013C81.975 157.05 82.2375 157.088 82.5 157.088C82.7625 157.088 82.9875 157.05 83.2875 157.013C83.775 156.938 84.2625 156.788 84.7125 156.525C84.75 156.525 84.7875 156.488 84.825 156.488C84.8625 156.45 84.975 156.413 84.975 156.413C92.6625 152.1 97.4625 143.925 97.4625 135.113V114.225C97.4625 112.763 96.7875 111.375 95.6625 110.475L87.2625 103.875V98.1001C95.7 97.2001 103.763 93.9 110.438 88.65V89.9625L102.113 96.525C100.988 97.425 100.275 98.8125 100.275 100.275V121.163C100.275 129.975 105.075 138.15 112.763 142.463L112.875 142.538C112.913 142.538 112.988 142.613 112.988 142.613C113.438 142.838 113.888 142.988 114.375 143.1C114.638 143.138 114.9 143.175 115.163 143.175C115.425 143.175 115.65 143.138 115.913 143.1C116.588 142.988 117.225 142.763 117.75 142.388C125.363 138.038 130.05 129.938 130.05 121.2V100.313C130.125 98.8125 129.45 97.425 128.325 96.525Z" fill="white"/>
<path d="M49.8002 92.2876L59.9627 100.275V121.163C59.9627 128.588 55.8377 135.038 49.8002 138.375C43.7252 135.038 39.6377 128.588 39.6377 121.163V100.275L49.8002 92.2876Z" fill="#F0AA97"/>
<path d="M49.8 139.763C49.575 139.763 49.35 139.688 49.125 139.575C42.4125 135.863 38.25 128.813 38.25 121.163V100.275C38.25 99.8625 38.4375 99.45 38.775 99.1875L48.9375 91.2C49.425 90.7875 50.1375 90.7875 50.6625 91.2L60.825 99.1875C61.1625 99.45 61.35 99.8625 61.35 100.275V121.163C61.35 128.813 57.1875 135.863 50.475 139.575C50.25 139.688 50.025 139.763 49.8 139.763ZM40.9875 100.95V121.163C40.9875 127.538 44.325 133.463 49.7625 136.763C55.2 133.463 58.5375 127.575 58.5375 121.163V100.95L49.7625 94.05L40.9875 100.95Z" fill="#221F1F"/>
<path d="M49.7996 139.763C49.0496 139.763 48.4121 139.125 48.4121 138.375V71.9251C48.4121 71.1751 49.0496 70.5376 49.7996 70.5376C50.5496 70.5376 51.1871 71.1751 51.1871 71.9251V138.375C51.1871 139.125 50.5496 139.763 49.7996 139.763Z" fill="#221F1F"/>
<path d="M59.2871 113.588C59.0621 113.588 58.7996 113.513 58.5746 113.4L49.4621 108C48.7871 107.625 48.5996 106.763 48.9746 106.088C49.3496 105.413 50.2121 105.225 50.8871 105.6L59.9996 111C60.6746 111.375 60.8621 112.238 60.4871 112.913C60.2246 113.363 59.7746 113.588 59.2871 113.588Z" fill="#221F1F"/>
<path d="M40.6503 122.737C40.2003 122.737 39.7503 122.512 39.4878 122.1C39.0753 121.462 39.2628 120.6 39.9003 120.187L49.0128 114.375C49.6503 113.962 50.5128 114.15 50.9253 114.787C51.3378 115.425 51.1503 116.287 50.5128 116.7L41.4003 122.512C41.1753 122.662 40.9128 122.737 40.6503 122.737Z" fill="#221F1F"/>
<path d="M115.201 92.2876L105.038 100.275V121.163C105.038 128.588 109.163 135.038 115.201 138.375C121.276 135.038 125.363 128.588 125.363 121.163V100.275L115.201 92.2876Z" fill="#F0AA97"/>
<path d="M115.2 139.763C114.975 139.763 114.75 139.688 114.525 139.575C107.813 135.863 103.65 128.813 103.65 121.163V100.275C103.65 99.8625 103.838 99.45 104.175 99.1875L114.338 91.2C114.825 90.7875 115.538 90.7875 116.063 91.2L126.225 99.1875C126.563 99.45 126.75 99.8625 126.75 100.275V121.163C126.75 128.813 122.588 135.863 115.875 139.575C115.688 139.688 115.425 139.763 115.2 139.763ZM106.425 100.95V121.163C106.425 127.538 109.763 133.463 115.2 136.763C120.638 133.463 123.975 127.575 123.975 121.163V100.95L115.2 94.05L106.425 100.95Z" fill="#221F1F"/>
<path d="M115.2 139.763C114.45 139.763 113.812 139.125 113.812 138.375V71.9251C113.812 71.1751 114.45 70.5376 115.2 70.5376C115.95 70.5376 116.587 71.1751 116.587 71.9251V138.375C116.587 139.125 115.988 139.763 115.2 139.763Z" fill="#221F1F"/>
<path d="M105.713 113.587C105.225 113.587 104.775 113.362 104.513 112.912C104.138 112.237 104.325 111.412 105 111L114.113 105.562C114.788 105.187 115.613 105.375 116.025 106.05C116.4 106.725 116.213 107.55 115.538 107.962L106.425 113.4C106.2 113.55 105.938 113.587 105.713 113.587Z" fill="#221F1F"/>
<path d="M124.35 122.737C124.087 122.737 123.825 122.662 123.6 122.512L114.487 116.7C113.85 116.287 113.662 115.425 114.075 114.787C114.487 114.15 115.35 113.962 115.987 114.375L125.1 120.187C125.737 120.6 125.925 121.462 125.512 122.1C125.25 122.475 124.8 122.737 124.35 122.737Z" fill="#221F1F"/>
<path d="M82.5004 106.2L72.3379 114.188V135.075C72.3379 142.5 76.4629 148.95 82.5004 152.288C88.5754 148.95 92.6629 142.5 92.6629 135.075V114.188L82.5004 106.2Z" fill="#A2D6FF"/>
<path d="M82.5002 153.675C82.2752 153.675 82.0502 153.6 81.8252 153.488C75.1127 149.775 70.9502 142.725 70.9502 135.075V114.188C70.9502 113.775 71.1377 113.363 71.4752 113.1L81.6377 105.113C82.1252 104.7 82.8377 104.7 83.3627 105.113L93.5252 113.1C93.8627 113.363 94.0502 113.775 94.0502 114.188V135.075C94.0502 142.725 89.8877 149.775 83.1752 153.488C82.9502 153.6 82.7252 153.675 82.5002 153.675ZM73.7252 114.863V135.075C73.7252 141.45 77.0627 147.375 82.5002 150.675C87.9377 147.375 91.2752 141.488 91.2752 135.075V114.863L82.5002 107.963L73.7252 114.863Z" fill="#221F1F"/>
<path d="M82.4998 153.675C81.7498 153.675 81.1123 153.037 81.1123 152.287V85.8375C81.1123 85.0875 81.7498 84.45 82.4998 84.45C83.2498 84.45 83.8873 85.0875 83.8873 85.8375V152.287C83.8873 153.037 83.2498 153.675 82.4998 153.675Z" fill="#221F1F"/>
<path d="M73.0124 127.5C72.5249 127.5 72.0749 127.275 71.8124 126.825C71.4374 126.15 71.6249 125.325 72.2999 124.913L81.4124 119.475C82.0874 119.1 82.9124 119.288 83.3249 119.963C83.6999 120.638 83.5124 121.463 82.8374 121.875L73.7249 127.313C73.4624 127.425 73.2374 127.5 73.0124 127.5Z" fill="#221F1F"/>
<path d="M91.6499 136.612C91.3874 136.612 91.1249 136.537 90.8999 136.387L81.7499 130.575C81.1124 130.162 80.9249 129.3 81.3374 128.662C81.7499 128.025 82.6124 127.837 83.2499 128.25L92.3624 134.062C92.9999 134.475 93.1874 135.337 92.7749 135.975C92.5499 136.387 92.0999 136.612 91.6499 136.612Z" fill="#221F1F"/>
<path d="M82.5002 12.7126C60.1502 12.7126 42.0752 30.8251 42.0752 53.1376C42.0752 75.4876 60.1877 93.5627 82.5002 93.5627C104.813 93.5627 122.925 75.4501 122.925 53.1376C122.925 30.8251 104.85 12.7126 82.5002 12.7126ZM82.5002 86.1376C64.3127 86.1376 49.5377 71.3627 49.5377 53.1752C49.5377 34.9876 64.3127 20.2126 82.5002 20.2126C100.688 20.2126 115.463 34.9876 115.463 53.1752C115.463 71.3252 100.688 86.1376 82.5002 86.1376Z" fill="#E0B344"/>
<path d="M82.5 94.9875C59.4375 94.9875 40.6875 76.2375 40.6875 53.175C40.6875 30.1125 59.4375 11.3625 82.5 11.3625C105.562 11.3625 124.312 30.1125 124.312 53.175C124.312 76.2375 105.562 94.9875 82.5 94.9875ZM82.5 14.1C60.975 14.1 43.4625 31.6125 43.4625 53.1375C43.4625 74.6625 60.975 92.2125 82.5 92.2125C104.025 92.2125 121.538 74.7001 121.538 53.175C121.538 31.65 104.025 14.1 82.5 14.1ZM82.5 87.525C63.5625 87.525 48.15 72.1125 48.15 53.175C48.15 34.2375 63.5625 18.825 82.5 18.825C101.438 18.825 116.85 34.2375 116.85 53.175C116.85 72.1125 101.438 87.525 82.5 87.525ZM82.5 21.6C65.1 21.6 50.925 35.775 50.925 53.175C50.925 70.5751 65.1 84.75 82.5 84.75C99.9 84.75 114.075 70.5751 114.075 53.175C114.075 35.7375 99.9 21.6 82.5 21.6Z" fill="#221F1F"/>
<path d="M105.637 77.6627H59.3621C58.6121 77.6627 57.9746 77.0251 57.9746 76.2751V30.0376C57.9746 29.2876 58.6121 28.6501 59.3621 28.6501H105.6C106.35 28.6501 106.987 29.2876 106.987 30.0376V76.2751C107.025 77.0626 106.387 77.6627 105.637 77.6627ZM60.7496 74.8876H104.25V31.4251H60.7496V74.8876Z" fill="#221F1F"/>
<path d="M82.4998 87.5249C81.7498 87.5249 81.1123 86.8875 81.1123 86.1375V20.2125C81.1123 19.4625 81.7498 18.825 82.4998 18.825C83.2498 18.825 83.8873 19.4625 83.8873 20.2125V86.1375C83.8873 86.8875 83.2498 87.5249 82.4998 87.5249Z" fill="#221F1F"/>
<path d="M115.463 54.5626H49.5379C48.7879 54.5626 48.1504 53.9251 48.1504 53.1751C48.1504 52.4251 48.7879 51.7876 49.5379 51.7876H115.463C116.213 51.7876 116.85 52.4251 116.85 53.1751C116.85 53.9251 116.213 54.5626 115.463 54.5626Z" fill="#221F1F"/>
<path d="M59.1754 77.85C58.8379 77.85 58.4629 77.7 58.2004 77.4375C57.6754 76.9125 57.6754 76.0125 58.2004 75.4875L104.813 28.875C105.338 28.35 106.238 28.35 106.763 28.875C107.288 29.4 107.288 30.3 106.763 30.825L60.1879 77.4375C59.8879 77.7 59.5504 77.85 59.1754 77.85Z" fill="#221F1F"/>
<path d="M105.788 77.85C105.45 77.85 105.075 77.7 104.813 77.4375L58.2004 30.825C57.6754 30.3 57.6754 29.4 58.2004 28.875C58.7254 28.35 59.6254 28.35 60.1504 28.875L106.763 75.4875C107.288 76.0125 107.288 76.9125 106.763 77.4375C106.5 77.7 106.163 77.85 105.788 77.85Z" fill="#221F1F"/>
</svg>
