<svg width="165" height="165" viewBox="0 0 165 165" fill="none" xmlns="http://www.w3.org/2000/svg">
<path d="M49.8002 92.2876L59.9627 100.275V121.163C59.9627 128.588 55.8377 135.038 49.8002 138.375C43.7252 135.038 39.6377 128.588 39.6377 121.163V100.275L49.8002 92.2876Z" fill="white"/>
<path d="M49.8 139.763C49.575 139.763 49.35 139.688 49.125 139.575C42.4125 135.863 38.25 128.813 38.25 121.163V100.275C38.25 99.8625 38.4375 99.45 38.775 99.1875L48.9375 91.2C49.425 90.7875 50.1375 90.7875 50.6625 91.2L60.825 99.1875C61.1625 99.45 61.35 99.8625 61.35 100.275V121.163C61.35 128.813 57.1875 135.863 50.475 139.575C50.25 139.688 50.025 139.763 49.8 139.763ZM40.9875 100.95V121.163C40.9875 127.538 44.325 133.463 49.7625 136.763C55.2 133.463 58.5375 127.575 58.5375 121.163V100.95L49.7625 94.05L40.9875 100.95Z" fill="#221F1F"/>
<path d="M49.7996 139.762C49.0496 139.762 48.4121 139.125 48.4121 138.375V71.9246C48.4121 71.1746 49.0496 70.5371 49.7996 70.5371C50.5496 70.5371 51.1871 71.1746 51.1871 71.9246V138.375C51.1871 139.125 50.5496 139.762 49.7996 139.762Z" fill="#221F1F"/>
<path d="M59.2871 113.587C59.0621 113.587 58.7996 113.512 58.5746 113.4L49.4621 108C48.7871 107.625 48.5996 106.762 48.9746 106.087C49.3496 105.412 50.2121 105.225 50.8871 105.6L59.9996 111C60.6746 111.375 60.8621 112.237 60.4871 112.912C60.2246 113.362 59.7746 113.587 59.2871 113.587Z" fill="#221F1F"/>
<path d="M40.6493 122.737C40.1993 122.737 39.7493 122.512 39.4868 122.1C39.0743 121.462 39.2618 120.6 39.8993 120.187L49.0118 114.375C49.6493 113.962 50.5118 114.15 50.9243 114.787C51.3368 115.425 51.1493 116.287 50.5118 116.7L41.3993 122.512C41.1743 122.662 40.9118 122.737 40.6493 122.737Z" fill="#221F1F"/>
<path d="M115.201 92.2876L105.038 100.275V121.163C105.038 128.588 109.163 135.038 115.201 138.375C121.276 135.038 125.363 128.588 125.363 121.163V100.275L115.201 92.2876Z" fill="white"/>
<path d="M115.2 139.763C114.975 139.763 114.75 139.688 114.525 139.575C107.813 135.863 103.65 128.813 103.65 121.163V100.275C103.65 99.8625 103.838 99.45 104.175 99.1875L114.338 91.2C114.825 90.7875 115.538 90.7875 116.063 91.2L126.225 99.1875C126.563 99.45 126.75 99.8625 126.75 100.275V121.163C126.75 128.813 122.588 135.863 115.875 139.575C115.688 139.688 115.425 139.763 115.2 139.763ZM106.425 100.95V121.163C106.425 127.538 109.763 133.463 115.2 136.763C120.638 133.463 123.975 127.575 123.975 121.163V100.95L115.2 94.05L106.425 100.95Z" fill="#221F1F"/>
<path d="M115.2 139.762C114.45 139.762 113.812 139.125 113.812 138.375V71.9246C113.812 71.1746 114.45 70.5371 115.2 70.5371C115.95 70.5371 116.587 71.1746 116.587 71.9246V138.375C116.587 139.125 115.988 139.762 115.2 139.762Z" fill="#221F1F"/>
<path d="M105.713 113.587C105.225 113.587 104.775 113.362 104.513 112.912C104.138 112.237 104.325 111.412 105 111L114.113 105.562C114.788 105.187 115.613 105.375 116.025 106.05C116.4 106.725 116.213 107.55 115.538 107.962L106.425 113.4C106.2 113.55 105.938 113.587 105.713 113.587Z" fill="#221F1F"/>
<path d="M124.35 122.737C124.087 122.737 123.825 122.662 123.6 122.512L114.487 116.7C113.85 116.287 113.662 115.425 114.075 114.787C114.487 114.15 115.35 113.962 115.987 114.375L125.1 120.187C125.737 120.6 125.925 121.462 125.512 122.1C125.25 122.475 124.8 122.737 124.35 122.737Z" fill="#221F1F"/>
<path d="M82.5004 106.2L72.3379 114.187V135.075C72.3379 142.5 76.4629 148.95 82.5004 152.287C88.5754 148.95 92.6629 142.5 92.6629 135.075V114.187L82.5004 106.2Z" fill="white"/>
<path d="M82.5002 153.675C82.2752 153.675 82.0502 153.6 81.8252 153.487C75.1127 149.775 70.9502 142.725 70.9502 135.075V114.187C70.9502 113.775 71.1377 113.362 71.4752 113.1L81.6377 105.112C82.1252 104.7 82.8377 104.7 83.3627 105.112L93.5252 113.1C93.8627 113.362 94.0502 113.775 94.0502 114.187V135.075C94.0502 142.725 89.8877 149.775 83.1752 153.487C82.9502 153.6 82.7252 153.675 82.5002 153.675ZM73.7252 114.862V135.075C73.7252 141.45 77.0627 147.375 82.5002 150.675C87.9377 147.375 91.2752 141.487 91.2752 135.075V114.862L82.5002 107.962L73.7252 114.862Z" fill="#221F1F"/>
<path d="M82.4998 153.675C81.7498 153.675 81.1123 153.037 81.1123 152.287V85.8372C81.1123 85.0872 81.7498 84.4497 82.4998 84.4497C83.2498 84.4497 83.8873 85.0872 83.8873 85.8372V152.287C83.8873 153.037 83.2498 153.675 82.4998 153.675Z" fill="#221F1F"/>
<path d="M73.0124 127.5C72.5249 127.5 72.0749 127.275 71.8124 126.825C71.4374 126.15 71.6249 125.325 72.2999 124.912L81.4124 119.475C82.0874 119.1 82.9124 119.287 83.3249 119.962C83.6999 120.637 83.5124 121.462 82.8374 121.875L73.7249 127.312C73.4624 127.425 73.2374 127.5 73.0124 127.5Z" fill="#221F1F"/>
<path d="M91.6499 136.612C91.3874 136.612 91.1249 136.537 90.8999 136.387L81.7499 130.575C81.1124 130.162 80.9249 129.3 81.3374 128.662C81.7499 128.025 82.6124 127.837 83.2499 128.25L92.3624 134.062C92.9999 134.475 93.1874 135.337 92.7749 135.975C92.5499 136.387 92.0999 136.612 91.6499 136.612Z" fill="#221F1F"/>
<path d="M82.5002 93.6C104.826 93.6 122.925 75.5011 122.925 53.175C122.925 30.8489 104.826 12.75 82.5002 12.75C60.1741 12.75 42.0752 30.8489 42.0752 53.175C42.0752 75.5011 60.1741 93.6 82.5002 93.6Z" fill="white"/>
<path d="M82.5 94.9873C59.4375 94.9873 40.6875 76.2373 40.6875 53.1748C40.6875 30.1123 59.4375 11.3623 82.5 11.3623C105.562 11.3623 124.312 30.1123 124.312 53.1748C124.312 76.2373 105.562 94.9873 82.5 94.9873ZM82.5 14.0998C60.975 14.0998 43.4625 31.6123 43.4625 53.1373C43.4625 74.6623 60.975 92.2123 82.5 92.2123C104.025 92.2123 121.538 74.6998 121.538 53.1748C121.538 31.6498 104.025 14.0998 82.5 14.0998Z" fill="#221F1F"/>
<path d="M82.5006 86.1374C100.705 86.1374 115.463 71.3796 115.463 53.1749C115.463 34.9702 100.705 20.2124 82.5006 20.2124C64.2959 20.2124 49.5381 34.9702 49.5381 53.1749C49.5381 71.3796 64.2959 86.1374 82.5006 86.1374Z" fill="white"/>
<path d="M82.5004 87.5247C63.5629 87.5247 48.1504 72.1122 48.1504 53.1747C48.1504 34.2372 63.5629 18.8247 82.5004 18.8247C101.438 18.8247 116.85 34.2372 116.85 53.1747C116.85 72.1122 101.438 87.5247 82.5004 87.5247ZM82.5004 21.5997C65.1004 21.5997 50.9254 35.7747 50.9254 53.1747C50.9254 70.5747 65.1004 84.7497 82.5004 84.7497C99.9004 84.7497 114.075 70.5747 114.075 53.1747C114.075 35.7372 99.9004 21.5997 82.5004 21.5997Z" fill="#221F1F"/>
<path d="M105.637 77.6624H59.3621C58.6121 77.6624 57.9746 77.0249 57.9746 76.2749V30.0374C57.9746 29.2874 58.6121 28.6499 59.3621 28.6499H105.6C106.35 28.6499 106.987 29.2874 106.987 30.0374V76.2749C107.025 77.0624 106.387 77.6624 105.637 77.6624ZM60.7496 74.8874H104.25V31.4249H60.7496V74.8874Z" fill="#221F1F"/>
<path d="M82.4998 87.5247C81.7498 87.5247 81.1123 86.8872 81.1123 86.1372V20.2122C81.1123 19.4622 81.7498 18.8247 82.4998 18.8247C83.2498 18.8247 83.8873 19.4622 83.8873 20.2122V86.1372C83.8873 86.8872 83.2498 87.5247 82.4998 87.5247Z" fill="#221F1F"/>
<path d="M115.463 54.5621H49.5379C48.7879 54.5621 48.1504 53.9246 48.1504 53.1746C48.1504 52.4246 48.7879 51.7871 49.5379 51.7871H115.463C116.213 51.7871 116.85 52.4246 116.85 53.1746C116.85 53.9246 116.213 54.5621 115.463 54.5621Z" fill="#221F1F"/>
<path d="M59.1754 77.8497C58.8379 77.8497 58.4629 77.6997 58.2004 77.4372C57.6754 76.9122 57.6754 76.0122 58.2004 75.4872L104.813 28.8747C105.338 28.3497 106.238 28.3497 106.763 28.8747C107.288 29.3997 107.288 30.2997 106.763 30.8247L60.1879 77.4372C59.8879 77.6997 59.5504 77.8497 59.1754 77.8497Z" fill="#221F1F"/>
<path d="M105.788 77.8497C105.45 77.8497 105.075 77.6997 104.813 77.4372L58.2004 30.8247C57.6754 30.2997 57.6754 29.3997 58.2004 28.8747C58.7254 28.3497 59.6254 28.3497 60.1504 28.8747L106.763 75.4872C107.288 76.0122 107.288 76.9122 106.763 77.4372C106.5 77.6997 106.163 77.8497 105.788 77.8497Z" fill="#221F1F"/>
</svg>
