<svg width="140" height="140" viewBox="0 0 140 140" fill="none" xmlns="http://www.w3.org/2000/svg">
<path d="M34.8001 134C32.7001 134 30.7001 133.3 29.0001 132.1C26.4001 130.2 24.9001 127.3 24.9001 124.1L25.0001 90.3L5.10006 63C3.20006 60.4 2.70006 57.2 3.70006 54.1C4.70006 51.1 7.00006 48.7 10.1001 47.8L42.3001 37.5L62.0001 10.1C63.9001 7.5 66.8001 6 70.0001 6C73.2001 6 76.1001 7.5 78.0001 10.1L97.8001 37.5L130 47.8C133.1 48.8 135.4 51.1 136.4 54.1C137.4 57.1 136.9 60.4 135 63L115.1 90.3L115.2 124.1C115.2 127.3 113.7 130.2 111.1 132.1C109.4 133.3 107.4 134 105.3 134C104.3 134 103.2 133.8 102.2 133.5L70.0001 123L37.9001 133.5C36.9001 133.8 35.9001 134 34.8001 134Z" fill="white"/>
<path fill-rule="evenodd" clip-rule="evenodd" d="M73.3004 13.5L94.2004 42.4L128.2 53.3C130.8 54.1 131.8 57.3 130.2 59.5L109.1 88.3L109.2 124C109.2 126.7 106.5 128.7 103.9 127.8L70.0004 116.8L36.1004 127.9C33.5004 128.8 30.8004 126.8 30.8004 124.1L30.9004 88.4L9.90042 59.6C8.30042 57.4 9.30042 54.2 11.9004 53.4L45.9004 42.5L66.8004 13.6C68.3004 11.3 71.7004 11.3 73.3004 13.5Z" fill="#FFD781"/>
<path d="M105.2 130C104.6 130 104 129.9 103.4 129.7L69.9997 118.7L36.6997 129.6C34.8997 130.2 32.9997 129.9 31.3997 128.8C29.8997 127.7 28.9997 125.9 28.9997 124L29.0997 89.0001L8.39971 60.7001C7.29971 59.2001 6.99971 57.2001 7.59971 55.4001C8.19971 53.6001 9.59971 52.2001 11.3997 51.6001L44.7997 40.9001L65.2997 12.5001C66.3997 11.0001 68.0997 10.1001 70.0997 10.1001C71.9997 10.1001 73.6997 11.0001 74.8997 12.5001L95.3997 40.9001L128.8 51.6001C130.6 52.2001 132 53.6001 132.6 55.4001C133.2 57.2001 132.9 59.1001 131.8 60.7001L110.9 89.0001L111 124.1C111 126 110.1 127.7 108.6 128.9C107.6 129.6 106.4 130 105.2 130ZM69.9997 115C70.1997 115 70.3997 115 70.5997 115.1L104.5 126.2C105.2 126.4 105.9 126.3 106.5 125.9C107.1 125.5 107.4 124.8 107.4 124.1L107.3 88.4001C107.3 88.0001 107.4 87.6001 107.7 87.3001L128.8 58.5001C129.2 57.9001 129.3 57.2001 129.1 56.6001C128.9 56.0001 128.4 55.4001 127.7 55.2001L93.6997 44.3001C93.2997 44.2001 92.9997 43.9001 92.7997 43.6001L71.7997 14.6001C71.3997 14.0001 70.6997 13.7001 69.9997 13.7001C69.2997 13.7001 68.6997 14.0001 68.1997 14.6001L47.2997 43.6001C47.0997 43.9001 46.6997 44.2001 46.3997 44.3001L12.3997 55.2001C11.6997 55.4001 11.1997 55.9001 10.9997 56.6001C10.7997 57.3001 10.8997 58.0001 11.2997 58.5001L32.3997 87.3001C32.5997 87.6001 32.7997 88.0001 32.7997 88.4001L32.6997 124.1C32.6997 124.8 32.9997 125.4 33.5997 125.9C34.1997 126.3 34.8997 126.4 35.4997 126.2L69.3997 115C69.5997 115 69.7997 115 69.9997 115Z" fill="#221F1F"/>
<path d="M51.8004 73.2001C50.8004 73.2001 49.9004 72.4001 49.9004 71.4001V63.5001C49.9004 62.5001 50.7004 61.6001 51.8004 61.6001C52.9004 61.6001 53.7004 62.4001 53.7004 63.5001V71.4001C53.7004 72.3001 52.9004 73.2001 51.8004 73.2001Z" fill="#221F1F"/>
<path d="M88.2004 73.2001C87.2004 73.2001 86.4004 72.4001 86.4004 71.4001V63.5001C86.4004 62.5001 87.2004 61.6001 88.2004 61.6001C89.2004 61.6001 90.0004 62.4001 90.0004 63.5001V71.4001C90.0004 72.3001 89.2004 73.2001 88.2004 73.2001Z" fill="#221F1F"/>
<path fill-rule="evenodd" clip-rule="evenodd" d="M89.6998 112.3C55.3998 112.3 27.4998 84.5999 27.1998 50.3999L12.2998 55.1999C11.5998 55.3999 11.0998 55.8999 10.8998 56.5999C10.6998 57.2999 10.7998 57.9999 11.1998 58.4999L32.5998 87.7999L32.4998 124.1C32.4998 124.8 32.7998 125.4 33.3998 125.9C33.9998 126.3 34.6998 126.4 35.3998 126.2L69.9998 114.9L104.5 126.2C105.2 126.4 105.9 126.3 106.5 125.9C107.1 125.5 107.4 124.8 107.4 124.1V109.8C101.7 111.4 95.7998 112.3 89.6998 112.3Z" fill="#D0B366"/>
<path d="M90.6 90.2001H49.4C48.4 90.2001 47.5 89.4001 47.5 88.4001C47.5 87.4001 48.3 86.6001 49.4 86.6001H90.6C91.6 86.6001 92.4 87.4001 92.4 88.4001C92.4 89.4001 91.6 90.2001 90.6 90.2001Z" fill="#221F1F"/>
</svg>
