<svg width="165" height="165" viewBox="0 0 165 165" fill="none" xmlns="http://www.w3.org/2000/svg">
<path d="M42.1878 73.088L60.2628 88.013L83.3628 84.188C85.1253 83.888 86.5128 85.6505 85.8753 87.3005L77.2503 109.088L88.0128 129.9C88.8378 131.475 87.6003 133.35 85.8378 133.238L62.4753 131.775L46.0128 148.425C44.7753 149.7 42.6003 149.1 42.1503 147.375L36.3003 124.688L15.3753 114.188C13.7628 113.4 13.6503 111.15 15.1878 110.213L34.9503 97.6505L38.4753 74.4755C38.7378 72.7505 40.8378 71.9255 42.1878 73.088Z" fill="white"/>
<path d="M44.4001 150.525C44.0626 150.525 43.7626 150.488 43.4251 150.413C42.1126 150.075 41.1376 149.063 40.8001 147.788L35.1376 125.7L14.7751 115.463C13.5751 114.863 12.8251 113.7 12.7501 112.35C12.6751 111 13.3126 109.763 14.4376 109.05L33.6751 96.8252L37.0876 74.2877C37.2751 72.9752 38.1751 71.8877 39.4126 71.4002C40.6501 70.9127 42.0376 71.1377 43.0876 72.0002L60.6751 86.5127L83.1751 82.8002C84.4876 82.5752 85.8001 83.0627 86.6251 84.1127C87.4876 85.1627 87.6751 86.5127 87.1876 87.7877L78.8251 108.975L89.2876 129.225C89.8876 130.425 89.8501 131.813 89.1001 132.938C88.3501 134.063 87.1126 134.7 85.8001 134.588L63.0376 133.163L47.0251 149.363C46.2751 150.15 45.3376 150.525 44.4001 150.525ZM40.7626 73.9127C40.6126 73.9127 40.5001 73.9502 40.4251 73.9877C40.2751 74.0627 39.9376 74.2127 39.8626 74.7002L36.3001 97.8752C36.2251 98.2877 36.0001 98.6252 35.6626 98.8502L15.9001 111.375C15.4876 111.638 15.4876 112.013 15.4876 112.2C15.4876 112.35 15.5626 112.763 15.9751 112.95L36.9001 123.45C37.2751 123.638 37.5376 123.938 37.6126 124.35L43.4626 147.038C43.5751 147.488 43.9501 147.638 44.1001 147.675C44.2501 147.713 44.6626 147.788 45.0001 147.45L61.4626 130.8C61.7626 130.5 62.1376 130.35 62.5501 130.388L85.9126 131.85C86.4001 131.888 86.6626 131.588 86.7376 131.438C86.8126 131.288 87.0001 130.95 86.7751 130.538L76.0126 109.725C75.8251 109.35 75.8251 108.938 75.9376 108.563L84.5626 86.7752C84.7501 86.3252 84.5251 85.9877 84.4126 85.8752C84.3001 85.7627 84.0376 85.4627 83.5501 85.5377L60.4501 89.3627C60.0376 89.4377 59.6626 89.3252 59.3251 89.0627L41.2501 74.1377C41.1001 73.9877 40.9126 73.9127 40.7626 73.9127Z" fill="#221F1F"/>
<path d="M123.375 47.5876L131.213 64.7251L149.25 70.0876C150.975 70.6126 151.463 72.7876 150.15 73.9876L136.275 86.7001L136.763 105.525C136.8 107.325 134.888 108.45 133.35 107.588L116.963 98.3251L99.1876 104.625C97.5001 105.225 95.8126 103.763 96.1876 102L99.9376 83.5501L88.5001 68.5876C87.4126 67.1626 88.2751 65.1001 90.0751 64.9126L108.788 62.7751L119.475 47.2501C120.413 45.7876 122.625 45.9751 123.375 47.5876Z" fill="white"/>
<path d="M134.475 109.275C133.837 109.275 133.237 109.125 132.675 108.788L116.812 99.8252L99.6373 105.9C98.3623 106.35 97.0123 106.088 95.9998 105.225C94.9873 104.325 94.5373 103.013 94.7998 101.7L98.3998 83.8502L87.3373 69.4127C86.5123 68.3627 86.3623 66.9752 86.8873 65.7377C87.4123 64.5002 88.5373 63.6752 89.8498 63.5252L107.925 61.4627L118.237 46.4627C118.987 45.3377 120.262 44.7752 121.612 44.8877C122.962 45.0002 124.087 45.7877 124.65 47.0252L132.225 63.5627L149.662 68.7377C150.937 69.1127 151.912 70.1252 152.212 71.4377C152.512 72.7502 152.1 74.0627 151.125 75.0002L137.7 87.3002L138.15 105.488C138.187 106.838 137.512 108.038 136.35 108.75C135.75 109.125 135.112 109.275 134.475 109.275ZM116.925 96.9377C117.15 96.9377 117.412 97.0127 117.6 97.1252L133.987 106.388C134.4 106.613 134.775 106.463 134.887 106.388C135.037 106.313 135.337 106.05 135.337 105.6L134.85 86.7752C134.85 86.3627 135 85.9877 135.3 85.7252L149.175 73.0127C149.512 72.6752 149.475 72.3002 149.437 72.1502C149.4 72.0002 149.25 71.6252 148.8 71.4752L130.762 66.1127C130.387 66.0002 130.05 65.7377 129.9 65.3627L122.062 48.2252C121.875 47.7752 121.462 47.7002 121.312 47.7002C121.162 47.7002 120.75 47.7002 120.487 48.0752L109.875 63.5627C109.65 63.9002 109.275 64.1252 108.9 64.1627L90.1873 66.3002C89.6998 66.3377 89.5123 66.7127 89.4373 66.8627C89.3623 67.0127 89.2498 67.3877 89.5498 67.7627L100.987 82.7252C101.25 83.0252 101.325 83.4377 101.25 83.8502L97.4998 102.3C97.3873 102.788 97.6873 103.05 97.7998 103.163C97.9123 103.275 98.2498 103.5 98.6998 103.35L116.437 97.0877C116.625 96.9752 116.775 96.9377 116.925 96.9377Z" fill="#221F1F"/>
<path d="M57.488 16.0877L70.238 22.3127L83.288 16.8002C84.938 16.1252 86.7005 17.4752 86.438 19.2377L84.4505 33.2627L93.713 43.9877C94.8755 45.3377 94.1255 47.4377 92.363 47.7377L78.413 50.1752L71.063 62.3252C70.1255 63.8627 67.913 63.7877 67.0505 62.2127L60.413 49.6877L46.613 46.4627C44.888 46.0502 44.2505 43.9127 45.488 42.6377L55.3505 32.4377L54.188 18.3752C54.038 16.5752 55.8755 15.3377 57.488 16.0877Z" fill="white"/>
<path d="M69.1501 64.8752C69.1126 64.8752 69.0751 64.8752 69.0376 64.8752C67.6876 64.8377 66.5251 64.0877 65.8876 62.9252L59.5501 50.9627L46.3501 47.8877C45.0376 47.5877 44.0251 46.6127 43.6501 45.3377C43.2751 44.0627 43.6126 42.7127 44.5501 41.7377L53.9626 31.9877L52.8001 18.4877C52.6876 17.1377 53.2876 15.9002 54.3751 15.1502C55.5001 14.4002 56.8501 14.2877 58.0876 14.8877L70.2376 20.8502L82.7251 15.6002C83.9626 15.0752 85.3501 15.2627 86.4001 16.0877C87.4501 16.9127 87.9751 18.1877 87.7876 19.5377L85.8751 32.9627L94.7251 43.2002C95.5876 44.2127 95.8501 45.5627 95.4001 46.8377C94.9501 48.1127 93.9001 49.0127 92.5501 49.2377L79.2001 51.5627L72.1876 63.1502C71.6251 64.2002 70.4251 64.8752 69.1501 64.8752ZM56.4751 17.2502C56.2501 17.2502 56.0626 17.3627 55.9501 17.4002C55.8001 17.4752 55.5001 17.7377 55.5751 18.2252L56.7751 32.3627C56.8126 32.7752 56.6626 33.1502 56.4001 33.4502L46.5376 43.6502C46.2001 43.9877 46.2751 44.4002 46.3126 44.5502C46.3501 44.7002 46.5001 45.0752 46.9876 45.1877L60.7876 48.4127C61.1626 48.4877 61.5001 48.7502 61.6876 49.1252L68.3251 61.6502C68.5501 62.0627 68.9626 62.1377 69.1126 62.1377C69.2626 62.1377 69.6751 62.1002 69.9001 61.6877L77.2501 49.5377C77.4751 49.2002 77.8126 48.9752 78.1876 48.9002L92.1376 46.4627C92.6251 46.3877 92.7751 46.0127 92.8501 45.8627C92.8876 45.7127 93.0001 45.3377 92.6626 44.9627L83.4001 34.2377C83.1376 33.9377 83.0251 33.5252 83.0626 33.1502L85.0501 19.1252C85.1251 18.6377 84.8251 18.3752 84.7126 18.2627C84.6001 18.1502 84.2626 17.9627 83.8126 18.1502L70.7626 23.6252C70.3876 23.7752 69.9751 23.7752 69.6001 23.5877L56.8501 17.3627C56.7376 17.2877 56.5876 17.2502 56.4751 17.2502Z" fill="#221F1F"/>
</svg>
