<svg width="140" height="140" viewBox="0 0 140 140" fill="none" xmlns="http://www.w3.org/2000/svg">
<path d="M34.8001 131.8C32.7001 131.8 30.7001 131.1 29.0001 129.9C26.4001 128 24.9001 125.1 24.9001 121.9L25.0001 88.0999L5.10006 60.8999C3.20006 58.2999 2.70006 55.0999 3.70006 51.9999C4.70006 48.9999 7.00006 46.5999 10.1001 45.6999L42.3001 35.3999L62.0001 7.9999C63.9001 5.3999 66.8001 3.8999 70.0001 3.8999C73.2001 3.8999 76.1001 5.3999 78.0001 7.9999L97.8001 35.3999L130 45.6999C133.1 46.6999 135.4 48.9999 136.4 51.9999C137.4 54.9999 136.9 58.2999 135 60.8999L115.1 88.1999L115.2 122C115.2 125.2 113.7 128.1 111.1 130C109.4 131.2 107.4 131.9 105.3 131.9C104.3 131.9 103.2 131.7 102.2 131.4L70.0001 120.8L37.9001 131.3C36.9001 131.7 35.9001 131.8 34.8001 131.8Z" fill="white"/>
<path fill-rule="evenodd" clip-rule="evenodd" d="M73.3004 11.4L94.2004 40.3L128.2 51.2C130.8 52 131.8 55.2 130.2 57.4L109.1 86.2L109.2 121.9C109.2 124.6 106.5 126.6 103.9 125.7L70.0004 114.7L36.1004 125.8C33.5004 126.7 30.8004 124.7 30.8004 122L30.9004 86.3L9.90042 57.4C8.30042 55.2 9.30042 52 11.9004 51.2L45.9004 40.3L66.8004 11.4C68.3004 9.2 71.7004 9.2 73.3004 11.4Z" fill="#FAC15E"/>
<path d="M105.2 127.8C104.6 127.8 104 127.7 103.4 127.5L69.9997 116.6L36.6997 127.5C34.8997 128.1 32.9997 127.8 31.3997 126.7C29.8997 125.6 28.9997 123.8 28.9997 121.9L29.0997 86.7999L8.39971 58.4999C7.29971 56.9999 6.99971 54.9999 7.59971 53.1999C8.19971 51.3999 9.59971 49.9999 11.3997 49.3999L44.7997 38.6999L65.2997 10.2999C66.3997 8.7999 68.0997 7.8999 70.0997 7.8999C71.9997 7.8999 73.6997 8.7999 74.8997 10.2999L95.3997 38.6999L128.8 49.3999C130.6 49.9999 132 51.3999 132.6 53.1999C133.2 54.9999 132.9 56.8999 131.8 58.4999L111.1 86.7999L111.2 121.9C111.2 123.8 110.3 125.5 108.8 126.7C107.6 127.5 106.4 127.8 105.2 127.8ZM69.9997 112.8C70.1997 112.8 70.3997 112.8 70.5997 112.9L104.5 124C105.2 124.2 105.9 124.1 106.5 123.7C107.1 123.3 107.4 122.6 107.4 121.9L107.3 86.1999C107.3 85.7999 107.4 85.3999 107.7 85.0999L128.8 56.2999C129.2 55.6999 129.3 54.9999 129.1 54.3999C128.9 53.7999 128.4 53.1999 127.7 52.9999L93.6997 42.0999C93.2997 41.9999 92.9997 41.6999 92.7997 41.3999L71.7997 12.4999C71.3997 11.8999 70.6997 11.5999 69.9997 11.5999C69.2997 11.5999 68.6997 11.8999 68.1997 12.4999L47.2997 41.3999C47.0997 41.6999 46.6997 41.9999 46.3997 42.0999L12.3997 52.9999C11.6997 53.1999 11.1997 53.6999 10.9997 54.3999C10.7997 55.0999 10.8997 55.7999 11.2997 56.2999L32.3997 85.0999C32.5997 85.3999 32.7997 85.7999 32.7997 86.1999L32.6997 122C32.6997 122.7 32.9997 123.3 33.5997 123.8C34.1997 124.2 34.8997 124.3 35.4997 124.1L69.3997 113C69.5997 112.8 69.7997 112.8 69.9997 112.8Z" fill="#221F1F"/>
<path d="M70.0003 95.5997C60.4003 95.5997 51.2003 91.4997 44.7003 84.3997C44.0003 83.5997 44.1003 82.4997 44.8003 81.7997C45.6003 81.0997 46.7003 81.1997 47.4003 81.8997C53.2003 88.1997 61.4003 91.8997 70.0003 91.8997C78.6003 91.8997 86.8003 88.2997 92.6003 81.8997C93.3003 81.0997 94.5003 81.0997 95.2003 81.7997C96.0003 82.4997 96.0003 83.6997 95.3003 84.3997C88.8003 91.4997 79.6003 95.5997 70.0003 95.5997Z" fill="#221F1F"/>
<path d="M51.8004 70.9999C50.8004 70.9999 49.9004 70.1999 49.9004 69.1999V61.2999C49.9004 60.2999 50.7004 59.3999 51.8004 59.3999C52.9004 59.3999 53.7004 60.1999 53.7004 61.2999V69.1999C53.7004 70.1999 52.9004 70.9999 51.8004 70.9999Z" fill="#221F1F"/>
<path d="M88.2004 70.9999C87.2004 70.9999 86.4004 70.1999 86.4004 69.1999V61.2999C86.4004 60.2999 87.2004 59.3999 88.2004 59.3999C89.2004 59.3999 90.0004 60.1999 90.0004 61.2999V69.1999C90.0004 70.1999 89.2004 70.9999 88.2004 70.9999Z" fill="#221F1F"/>
<path fill-rule="evenodd" clip-rule="evenodd" d="M89.7004 110.2C55.4004 110.2 27.5004 82.4998 27.2004 48.2998L12.4004 52.9998C11.7004 53.1998 11.2004 53.6998 11.0004 54.3998C10.8004 55.0998 10.9004 55.7998 11.3004 56.2998L32.7004 85.5998V122C32.7004 122.7 33.0004 123.3 33.6004 123.8C34.2004 124.2 34.9004 124.3 35.6004 124.1L70.0004 112.7L104.5 124C105.2 124.2 105.9 124.1 106.5 123.7C107.1 123.3 107.4 122.6 107.4 121.9V107.6C101.7 109.3 95.8004 110.2 89.7004 110.2Z" fill="#E0A547"/>
<path d="M69.9996 136.1C68.9996 136.1 68.0996 135.3 68.0996 134.3V127.7C68.0996 126.7 68.8996 125.9 69.9996 125.9C71.0996 125.9 71.8996 126.7 71.8996 127.7V134.3C71.7996 135.3 70.9996 136.1 69.9996 136.1Z" fill="#9E9E9E"/>
<path d="M129.101 93.2001C128.901 93.2001 128.701 93.2001 128.501 93.1001L122.201 91.1001C121.201 90.8001 120.701 89.7001 121.001 88.8001C121.301 87.8001 122.401 87.3001 123.301 87.6001L129.601 89.6001C130.601 89.9001 131.101 91.0001 130.801 91.9001C130.601 92.7001 129.901 93.2001 129.101 93.2001Z" fill="#9E9E9E"/>
<path d="M102.7 29C102.3 29 101.9 28.9 101.6 28.6C100.8 28 100.6 26.8 101.2 26L105.1 20.7C105.7 19.9 106.9 19.7 107.7 20.3C108.5 20.9 108.7 22.1 108.1 22.9L104.2 28.2C103.8 28.7 103.2 29 102.7 29Z" fill="#9E9E9E"/>
<path d="M10.9001 93.2001C10.1001 93.2001 9.40014 92.7001 9.10014 91.9001C8.80014 90.9001 9.30014 89.9001 10.3001 89.6001L16.6001 87.6001C17.6001 87.3001 18.6001 87.8001 18.9001 88.8001C19.2001 89.8001 18.7001 90.8001 17.7001 91.1001L11.4001 93.1001C11.2001 93.1001 11.0001 93.2001 10.9001 93.2001Z" fill="#9E9E9E"/>
<path d="M37.3002 29C36.7002 29 36.2002 28.7 35.8002 28.2L32.0002 22.9C31.4002 22.1 31.6002 20.9 32.4002 20.3C33.2002 19.7 34.4002 19.9 35.0002 20.7L38.9002 26C39.5002 26.8 39.3002 28 38.5002 28.6C38.1002 28.9 37.7002 29 37.3002 29Z" fill="#9E9E9E"/>
</svg>
