<svg width="165" height="165" viewBox="0 0 165 165" fill="none" xmlns="http://www.w3.org/2000/svg">
<path d="M44.3995 153.9C43.837 153.9 43.2745 153.825 42.6745 153.712C42.637 153.712 42.5995 153.712 42.562 153.675C40.087 153.037 38.1745 151.125 37.4995 148.65L32.212 128.025L13.237 118.462C10.9495 117.337 9.48704 115.087 9.37454 112.537C9.22454 109.987 10.462 107.55 12.637 106.2L30.562 94.8L33.7495 73.8C34.087 71.325 35.812 69.225 38.1745 68.2875C38.9995 67.95 39.862 67.8 40.7245 67.8C42.337 67.8 43.9495 68.3625 45.2245 69.4125L61.6495 82.95L82.6495 79.5C83.0245 79.4249 83.437 79.3875 83.812 79.3875C85.9495 79.3875 87.937 80.3624 89.2495 82.0125C90.862 84 91.2745 86.5874 90.337 89.0249L82.537 108.825C82.537 108.825 92.3245 127.725 92.3245 127.762C93.487 130.087 93.337 132.75 91.912 134.85C90.5995 136.837 88.4245 138 86.0995 138C85.912 138 85.7245 138 85.5745 137.962L64.387 136.65L49.462 151.725C48.0745 153.112 46.312 153.9 44.3995 153.9ZM134.475 112.65C133.2 112.65 132.037 112.35 130.987 111.712L116.512 103.537L100.8 109.087C100.012 109.35 99.2245 109.5 98.437 109.5C96.787 109.5 95.137 108.9 93.862 107.812L93.8245 107.775C91.912 106.087 91.0495 103.575 91.5745 101.062L94.8745 84.7124L84.7495 71.5125C83.212 69.525 82.8745 66.825 83.8495 64.4624C84.8245 62.1375 86.9995 60.4875 89.5495 60.225L106.087 58.35L115.5 44.625C116.775 42.7125 118.987 41.55 121.312 41.55C121.5 41.55 121.725 41.5499 121.95 41.5875C124.537 41.8125 126.712 43.35 127.762 45.675L134.7 60.825L150.675 65.55C153.112 66.2625 154.987 68.25 155.55 70.725C156.112 73.2 155.362 75.7125 153.525 77.475C153.487 77.5125 141.187 88.8 141.187 88.8L141.6 105.45C141.675 108 140.4 110.325 138.187 111.675C137.025 112.312 135.787 112.65 134.475 112.65ZM68.962 68.25C66.412 68.175 64.162 66.7875 62.962 64.5375L57.337 53.8875L45.637 51.1499C43.162 50.5874 41.1745 48.7124 40.462 46.2749C39.7495 43.8374 40.387 41.25 42.1495 39.375L50.4745 30.75L49.462 18.7875C49.237 16.2375 50.362 13.8375 52.4995 12.375L52.537 12.3375C53.737 11.55 55.087 11.1375 56.4745 11.1375C57.562 11.1375 58.5745 11.3625 59.587 11.85L70.4245 17.1375L81.487 12.4875C82.3495 12.1125 83.287 11.925 84.2245 11.925C85.7995 11.925 87.2995 12.45 88.537 13.425C90.562 15 91.537 17.475 91.1995 19.9875L89.512 31.9125L97.3495 40.9875C99.037 42.9375 99.487 45.5625 98.662 47.9624C97.7995 50.4375 95.737 52.125 93.187 52.575L81.3745 54.6375L75.112 64.875C73.912 66.975 71.6245 68.25 69.1495 68.25H68.962Z" fill="white"/>
<path d="M42.1878 73.0875L60.2628 88.0125L83.3628 84.1875C85.1253 83.8875 86.5128 85.65 85.8753 87.3L77.2503 109.087L88.0128 129.9C88.8378 131.475 87.6003 133.35 85.8378 133.237L62.4753 131.775L46.0128 148.425C44.7753 149.7 42.6003 149.1 42.1503 147.375L36.3003 124.687L15.3753 114.187C13.7628 113.4 13.6503 111.15 15.1878 110.212L34.9503 97.65L38.4753 74.475C38.7378 72.75 40.8378 71.925 42.1878 73.0875Z" fill="#FCD26E"/>
<path d="M44.4001 150.525C44.0626 150.525 43.7626 150.487 43.4251 150.412C42.1126 150.075 41.1376 149.062 40.8001 147.787L35.1376 125.7L14.7751 115.462C13.5751 114.862 12.8251 113.7 12.7501 112.35C12.6751 111 13.3126 109.762 14.4376 109.05L33.6751 96.825L37.0876 74.2875C37.2751 72.975 38.1751 71.8875 39.4126 71.4C40.6501 70.9125 42.0376 71.1375 43.0876 72L60.6751 86.5125L83.1751 82.8C84.4876 82.575 85.8001 83.0625 86.6251 84.1125C87.4876 85.1625 87.6751 86.5125 87.1876 87.7875L78.8251 108.975L89.2876 129.225C89.8876 130.425 89.8501 131.812 89.1001 132.937C88.3501 134.062 87.1126 134.7 85.8001 134.587L63.0376 133.162L47.0251 149.362C46.2751 150.15 45.3376 150.525 44.4001 150.525ZM40.7626 73.9125C40.6126 73.9125 40.5001 73.95 40.4251 73.9875C40.2751 74.0625 39.9376 74.2125 39.8626 74.7L36.3001 97.875C36.2251 98.2875 36.0001 98.625 35.6626 98.85L15.9001 111.375C15.4876 111.637 15.4876 112.012 15.4876 112.2C15.4876 112.35 15.5626 112.762 15.9751 112.95L36.9001 123.45C37.2751 123.637 37.5376 123.937 37.6126 124.35L43.4626 147.037C43.5751 147.487 43.9501 147.637 44.1001 147.675C44.2501 147.712 44.6626 147.787 45.0001 147.45L61.4626 130.8C61.7626 130.5 62.1376 130.35 62.5501 130.387L85.9126 131.85C86.4001 131.887 86.6626 131.587 86.7376 131.437C86.8126 131.287 87.0001 130.95 86.7751 130.537L76.0126 109.725C75.8251 109.35 75.8251 108.937 75.9376 108.562L84.5626 86.775C84.7501 86.325 84.5251 85.9875 84.4126 85.875C84.3001 85.7625 84.0376 85.4625 83.5501 85.5375L60.4501 89.3625C60.0376 89.4375 59.6626 89.325 59.3251 89.0625L41.2501 74.1375C41.1001 73.9875 40.9126 73.9125 40.7626 73.9125Z" fill="#221F1F"/>
<path d="M123.375 47.5873L131.213 64.7248L149.25 70.0873C150.975 70.6123 151.463 72.7873 150.15 73.9873L136.275 86.6998L136.763 105.525C136.8 107.325 134.888 108.45 133.35 107.587L116.963 98.3248L99.1876 104.625C97.5001 105.225 95.8126 103.762 96.1876 102L99.9376 83.5498L88.5001 68.5873C87.4126 67.1623 88.2751 65.0998 90.0751 64.9123L108.788 62.7748L119.475 47.2498C120.413 45.7873 122.625 45.9748 123.375 47.5873Z" fill="#FCD26E"/>
<path d="M134.475 109.275C133.837 109.275 133.237 109.125 132.675 108.787L116.812 99.8249L99.6373 105.9C98.3623 106.35 97.0123 106.087 95.9998 105.225C94.9873 104.325 94.5373 103.012 94.7998 101.7L98.3998 83.8499L87.3373 69.4124C86.5123 68.3624 86.3623 66.9749 86.8873 65.7374C87.4123 64.4999 88.5373 63.6749 89.8498 63.5249L107.925 61.4624L118.237 46.4624C118.987 45.3374 120.262 44.7749 121.612 44.8874C122.962 44.9999 124.087 45.7874 124.65 47.0249L132.225 63.5624L149.662 68.7374C150.937 69.1124 151.912 70.1249 152.212 71.4374C152.512 72.7499 152.1 74.0624 151.125 74.9999L137.7 87.2999L138.15 105.487C138.187 106.837 137.512 108.037 136.35 108.75C135.75 109.125 135.112 109.275 134.475 109.275ZM116.925 96.9374C117.15 96.9374 117.412 97.0124 117.6 97.1249L133.987 106.387C134.4 106.612 134.775 106.462 134.887 106.387C135.037 106.312 135.337 106.05 135.337 105.6L134.85 86.7749C134.85 86.3624 135 85.9874 135.3 85.7249L149.175 73.0124C149.512 72.6749 149.475 72.2999 149.437 72.1499C149.4 71.9999 149.25 71.6249 148.8 71.4749L130.762 66.1124C130.387 65.9999 130.05 65.7374 129.9 65.3624L122.062 48.2249C121.875 47.7749 121.462 47.6999 121.312 47.6999C121.162 47.6999 120.75 47.6999 120.487 48.0749L109.875 63.5624C109.65 63.8999 109.275 64.1249 108.9 64.1624L90.1873 66.2999C89.6998 66.3374 89.5123 66.7124 89.4373 66.8624C89.3623 67.0124 89.2498 67.3874 89.5498 67.7624L100.987 82.7249C101.25 83.0249 101.325 83.4374 101.25 83.8499L97.4998 102.3C97.3873 102.787 97.6873 103.05 97.7998 103.162C97.9123 103.275 98.2498 103.5 98.6998 103.35L116.437 97.0874C116.625 96.9749 116.775 96.9374 116.925 96.9374Z" fill="#221F1F"/>
<path d="M57.488 16.0875L70.238 22.3125L83.288 16.8C84.938 16.125 86.7005 17.475 86.438 19.2375L84.4505 33.2625L93.713 43.9875C94.8755 45.3375 94.1255 47.4375 92.363 47.7375L78.413 50.175L71.063 62.325C70.1255 63.8625 67.913 63.7875 67.0505 62.2125L60.413 49.6875L46.613 46.4625C44.888 46.05 44.2505 43.9125 45.488 42.6375L55.3505 32.4375L54.188 18.375C54.038 16.575 55.8755 15.3375 57.488 16.0875Z" fill="#FCD26E"/>
<path d="M69.1501 64.8749C69.1126 64.8749 69.0751 64.8749 69.0376 64.8749C67.6876 64.8374 66.5251 64.0874 65.8876 62.9249L59.5501 50.9624L46.3501 47.8874C45.0376 47.5874 44.0251 46.6124 43.6501 45.3374C43.2751 44.0624 43.6126 42.7124 44.5501 41.7374L53.9626 31.9874L52.8001 18.4874C52.6876 17.1374 53.2876 15.8999 54.3751 15.1499C55.5001 14.3999 56.8501 14.2874 58.0876 14.8874L70.2751 20.8499L82.7626 15.5999C84.0001 15.0749 85.3876 15.2624 86.4376 16.0874C87.4876 16.9124 88.0126 18.1874 87.8251 19.5374L85.9126 32.9624L94.7626 43.1999C95.6251 44.2124 95.8876 45.5624 95.4376 46.8374C94.9876 48.1124 93.9376 49.0124 92.5876 49.2374L79.2376 51.5624L72.2251 63.1499C71.6251 64.1999 70.4251 64.8749 69.1501 64.8749ZM56.4751 17.2499C56.2501 17.2499 56.0626 17.3624 55.9501 17.3999C55.8001 17.4749 55.5001 17.7374 55.5751 18.2249L56.7751 32.3624C56.8126 32.7749 56.6626 33.1499 56.4001 33.4499L46.5376 43.6499C46.2001 43.9874 46.2751 44.3999 46.3126 44.5499C46.3501 44.6999 46.5001 45.0749 46.9876 45.1874L60.7876 48.4124C61.1626 48.4874 61.5001 48.7499 61.6876 49.1249L68.3251 61.6499C68.5501 62.0624 68.9626 62.1374 69.1126 62.1374C69.2626 62.1374 69.6751 62.0999 69.9001 61.6874L77.2501 49.5374C77.4751 49.1999 77.8126 48.9749 78.1876 48.8999L92.1376 46.4624C92.6251 46.3874 92.7751 46.0124 92.8501 45.8624C92.8876 45.7124 93.0001 45.3374 92.6626 44.9624L83.4001 34.2374C83.1376 33.9374 83.0251 33.5249 83.0626 33.1499L85.0501 19.1249C85.1251 18.6374 84.8251 18.3749 84.7126 18.2624C84.6001 18.1499 84.2626 17.9624 83.8126 18.1499L70.7626 23.6249C70.3876 23.7749 69.9751 23.7749 69.6001 23.5874L56.8501 17.3624C56.7376 17.2874 56.5876 17.2499 56.4751 17.2499Z" fill="#221F1F"/>
<path d="M60.4873 89.3624C60.0748 89.4374 59.6998 89.3249 59.3623 89.0624L41.2873 74.1374C41.0998 73.9874 40.8748 73.9124 40.7248 73.9124C40.5748 73.9124 40.4623 73.9499 40.3873 73.9874C40.2373 74.0624 39.8998 74.2124 39.8248 74.6999L36.2998 97.8748C36.2248 98.2873 35.9998 98.6249 35.6623 98.8499L15.8998 111.375C15.4873 111.637 15.4873 112.012 15.4873 112.2C15.4873 112.35 15.5623 112.762 15.9748 112.95L36.8998 123.45C37.2748 123.637 37.5373 123.937 37.6123 124.35L43.4623 147.037C43.5748 147.487 43.9498 147.637 44.0998 147.675C44.2498 147.712 44.6623 147.787 44.9998 147.45L61.4623 130.8C61.7623 130.5 62.1373 130.35 62.5498 130.387L85.9123 131.85C86.3998 131.887 86.6623 131.587 86.7373 131.437C86.8123 131.287 86.9998 130.95 86.7748 130.537L76.0123 109.725C75.8248 109.35 75.8248 108.937 75.9373 108.562L84.5623 86.7748C84.7498 86.3248 84.5248 85.9874 84.4123 85.8749C84.2998 85.7624 84.0373 85.4624 83.5498 85.5374L60.4873 89.3624Z" fill="#FCD26E"/>
<path d="M149.213 72.9749C149.55 72.6374 149.513 72.2624 149.475 72.1124C149.438 71.9624 149.288 71.5874 148.838 71.4374L130.8 66.0749C130.425 65.9624 130.088 65.6999 129.938 65.3249L122.1 48.1874C121.913 47.7374 121.5 47.6624 121.35 47.6624C121.2 47.6624 120.788 47.6624 120.525 48.0374L109.875 63.5624C109.65 63.8999 109.275 64.1249 108.9 64.1624L90.1879 66.2999C89.7004 66.3374 89.5129 66.7124 89.4379 66.8624C89.3629 67.0124 89.2504 67.3874 89.5504 67.7624L100.988 82.7249C101.25 83.0249 101.325 83.4374 101.25 83.8499L97.5004 102.3C97.3879 102.787 97.6879 103.05 97.8004 103.162C97.9129 103.275 98.2504 103.5 98.7004 103.35L116.438 97.0873C116.588 97.0499 116.738 97.0124 116.888 97.0124C117.113 97.0124 117.375 97.0874 117.563 97.1999L133.95 106.462C134.363 106.687 134.738 106.537 134.85 106.462C135 106.387 135.3 106.125 135.3 105.675L134.813 86.8499C134.813 86.4374 134.963 86.0624 135.263 85.7999L149.213 72.9749Z" fill="#FCD26E"/>
<path d="M46.5376 43.65C46.2001 43.9875 46.2751 44.4 46.3126 44.55C46.3501 44.7 46.5001 45.075 46.9876 45.1875L60.7876 48.4125C61.1626 48.4875 61.5001 48.75 61.6876 49.125L68.3251 61.65C68.5501 62.0625 68.9626 62.1375 69.1126 62.1375C69.2626 62.1375 69.6751 62.1 69.9001 61.6875L77.2501 49.5375C77.4751 49.2 77.8126 48.975 78.1876 48.9L92.1376 46.4625C92.6251 46.3875 92.7751 46.0125 92.8501 45.8625C92.9251 45.7125 93.0001 45.3375 92.6626 44.9625L83.4001 34.2375C83.1376 33.9375 83.0251 33.525 83.0626 33.15L85.0501 19.125C85.1251 18.6375 84.8251 18.375 84.7126 18.2625C84.6001 18.15 84.2626 17.9625 83.8126 18.15L70.7626 23.625C70.3876 23.775 69.9751 23.775 69.6001 23.5875L56.8501 17.3625C56.7001 17.2875 56.5876 17.25 56.4376 17.25C56.2126 17.25 56.0251 17.3625 55.9126 17.4C55.7626 17.475 55.4626 17.7375 55.5376 18.225L56.7376 32.3625C56.7751 32.775 56.6251 33.15 56.3626 33.45L46.5376 43.65Z" fill="#FCD26E"/>
<path d="M54.563 35.325L46.5005 43.65C46.163 43.9875 46.238 44.4 46.2755 44.55C46.313 44.7 46.463 45.075 46.9505 45.1875L60.7505 48.4125C61.1255 48.4875 61.463 48.75 61.6505 49.125L68.288 61.65C68.513 62.0625 68.9255 62.1375 69.0755 62.1375C69.2255 62.1375 69.638 62.1 69.863 61.6875L77.213 49.5375C77.213 49.5 77.2505 49.5 77.2505 49.4625C67.763 48.375 59.513 43.0125 54.563 35.325Z" fill="#E0B344"/>
<path d="M98.7379 65.2874L90.1879 66.2624C89.7004 66.2999 89.5129 66.6749 89.4379 66.8249C89.3629 66.9749 89.2504 67.3499 89.5504 67.7249L100.988 82.6874C101.25 82.9874 101.325 83.3999 101.25 83.8124L97.5004 102.262C97.3879 102.75 97.6879 103.012 97.8004 103.125C97.9129 103.237 98.2504 103.462 98.7004 103.312L116.438 97.0498C116.588 97.0123 116.738 96.9749 116.888 96.9749C117.113 96.9749 117.375 97.0499 117.563 97.1624L133.95 106.425C134.363 106.65 134.738 106.5 134.85 106.425C135 106.35 135.3 106.087 135.3 105.637L135.075 96.7499C117.525 94.7624 103.125 82.0499 98.7379 65.2874Z" fill="#E0B344"/>
<path d="M83.7004 124.5C79.3504 125.513 74.7754 126.038 70.1254 126.038C52.1254 126.038 35.9254 118.2 24.7879 105.75L15.9379 111.375C15.5254 111.637 15.5254 112.013 15.5254 112.2C15.5254 112.35 15.6004 112.763 16.0129 112.95L36.9379 123.45C37.3129 123.638 37.5754 123.938 37.6504 124.35L43.5004 147.038C43.6129 147.488 43.9879 147.637 44.1379 147.675C44.2879 147.712 44.7004 147.788 45.0379 147.45L61.5004 130.8C61.8004 130.5 62.1754 130.35 62.5879 130.388L85.9504 131.85C86.4379 131.888 86.7004 131.587 86.7754 131.438C86.8504 131.288 87.0379 130.95 86.8129 130.538L83.7004 124.5Z" fill="#E0B344"/>
</svg>
