<svg width="140" height="140" viewBox="0 0 140 140" fill="none" xmlns="http://www.w3.org/2000/svg">
<path d="M34.8001 128.6C32.7001 128.6 30.7001 127.9 29.0001 126.7C26.4001 124.8 24.9001 121.9 24.9001 118.7L25.0001 84.9001L5.10006 57.7001C3.20006 55.1001 2.70006 51.9001 3.70006 48.8001C4.70006 45.8001 7.00006 43.4001 10.1001 42.5001L42.3001 32.2001L62.0001 4.7001C63.9001 2.1001 66.8001 0.600098 70.0001 0.600098C73.2001 0.600098 76.1001 2.1001 78.0001 4.7001L97.8001 32.1001L130 42.4001C133.1 43.4001 135.4 45.7001 136.4 48.7001C137.4 51.7001 136.9 55.0001 135 57.6001L115.1 84.9001L115.2 118.7C115.2 121.9 113.7 124.8 111.1 126.7C109.4 127.9 107.4 128.6 105.3 128.6C104.3 128.6 103.2 128.4 102.2 128.1L70.0001 117.6L37.9001 128.1C36.9001 128.4 35.9001 128.6 34.8001 128.6Z" fill="white"/>
<path fill-rule="evenodd" clip-rule="evenodd" d="M73.3004 8.2001L94.2004 37.1001L128.2 48.0001C130.8 48.8001 131.8 52.0001 130.2 54.2001L109.1 83.0001L109.2 118.7C109.2 121.4 106.5 123.4 103.9 122.5L70.0004 111.4L36.1004 122.5C33.5004 123.4 30.8004 121.4 30.8004 118.7L30.9004 83.0001L9.90042 54.2001C8.30042 52.0001 9.30042 48.8001 11.9004 48.0001L45.9004 37.1001L66.7004 8.2001C68.3004 5.9001 71.7004 5.9001 73.3004 8.2001Z" fill="#F9A936"/>
<path d="M105.2 124.6C104.6 124.6 104 124.5 103.4 124.3L69.9997 113.4L36.6997 124.3C34.8997 124.9 32.9997 124.6 31.3997 123.5C29.8997 122.4 28.9997 120.6 28.9997 118.7L29.0997 83.6002L8.39971 55.3002C7.29971 53.8002 6.99971 51.8002 7.59971 50.0002C8.19971 48.2002 9.59971 46.8002 11.3997 46.2002L44.7997 35.5002L65.1997 7.1002C66.2997 5.6002 67.9997 4.7002 69.9997 4.7002C71.8997 4.7002 73.5997 5.6002 74.7997 7.1002L95.2997 35.5002L128.7 46.2002C130.5 46.8002 131.9 48.2002 132.5 50.0002C133.1 51.8002 132.8 53.7002 131.7 55.3002L111 83.6002L111.1 118.7C111.1 120.6 110.2 122.3 108.7 123.5C107.6 124.2 106.4 124.6 105.2 124.6ZM69.9997 109.6C70.1997 109.6 70.3997 109.6 70.5997 109.7L104.5 120.8C105.2 121 105.9 120.9 106.5 120.5C107.1 120.1 107.4 119.4 107.4 118.7L107.2 83.0002C107.2 82.6002 107.3 82.2002 107.6 81.9002L128.7 53.1002C129.1 52.5002 129.2 51.8002 129 51.2002C128.8 50.5002 128.3 50.0002 127.6 49.8002L93.5997 38.9002C93.1997 38.8002 92.8997 38.5002 92.6997 38.2002L71.7997 9.2002C71.3997 8.6002 70.6997 8.3002 69.9997 8.3002C69.2997 8.3002 68.6997 8.6002 68.1997 9.2002L47.2997 38.2002C47.0997 38.5002 46.6997 38.8002 46.3997 38.9002L12.3997 49.8002C11.6997 50.0002 11.1997 50.5002 10.9997 51.2002C10.7997 51.9002 10.8997 52.6002 11.2997 53.1002L32.3997 81.9002C32.5997 82.2002 32.7997 82.6002 32.7997 83.0002L32.6997 118.7C32.6997 119.4 32.9997 120 33.5997 120.5C34.1997 120.9 34.8997 121 35.4997 120.8L69.3997 109.7C69.5997 109.6 69.7997 109.6 69.9997 109.6Z" fill="#221F1F"/>
<path fill-rule="evenodd" clip-rule="evenodd" d="M89.6998 106.9C55.3998 106.9 27.4998 79.2 27.1998 45L12.2998 49.8C11.5998 50 11.0998 50.5 10.8998 51.2C10.6998 51.9 10.7998 52.6 11.1998 53.1L32.5998 82.4L32.4998 118.7C32.4998 119.4 32.7998 120 33.3998 120.5C33.9998 120.9 34.6998 121 35.3998 120.8L69.9998 109.5L104.5 120.8C105.2 121 105.9 120.9 106.5 120.5C107.1 120.1 107.4 119.4 107.4 118.7V104.4C101.7 106.1 95.7998 106.9 89.6998 106.9Z" fill="#E39128"/>
<path d="M69.9996 139.4C68.9996 139.4 68.0996 138.6 68.0996 137.6V124.6C68.0996 123.6 68.8996 122.8 69.9996 122.8C71.0996 122.8 71.8996 123.6 71.8996 124.6V137.6C71.7996 138.5 70.9996 139.4 69.9996 139.4Z" fill="#9E9E9E"/>
<path d="M135.3 91.9003C135.1 91.9003 134.9 91.9003 134.7 91.8003L122.3 87.8003C121.3 87.5003 120.8 86.4003 121.1 85.5003C121.4 84.5003 122.5 84.0003 123.4 84.3003L135.8 88.3003C136.8 88.6003 137.3 89.7003 137 90.6003C136.8 91.4003 136.1 91.9003 135.3 91.9003Z" fill="#9E9E9E"/>
<path d="M102.699 25.8C102.299 25.8 101.899 25.7 101.599 25.4C100.799 24.8 100.599 23.6 101.199 22.8L108.899 12.2C109.499 11.4 110.699 11.2 111.499 11.8C112.299 12.4 112.499 13.6 111.899 14.4L104.199 25C103.799 25.5 103.199 25.8 102.699 25.8Z" fill="#9E9E9E"/>
<path d="M4.69994 91.9003C3.89994 91.9003 3.19994 91.4003 2.89994 90.6003C2.59994 89.6003 3.09994 88.6003 4.09994 88.3003L16.4999 84.3003C17.4999 84.0003 18.4999 84.5003 18.7999 85.5003C19.0999 86.5003 18.5999 87.5003 17.5999 87.8003L5.19994 91.8003C5.09994 91.9003 4.89994 91.9003 4.69994 91.9003Z" fill="#9E9E9E"/>
<path d="M37.2998 25.8C36.6998 25.8 36.1998 25.5 35.7998 25L28.0998 14.4C27.4998 13.6 27.6998 12.4 28.4998 11.8C29.2998 11.2 30.4998 11.4 31.0998 12.2L38.7998 22.8C39.3998 23.6 39.1998 24.8 38.3998 25.4C38.0998 25.6 37.6998 25.8 37.2998 25.8Z" fill="#9E9E9E"/>
<path d="M56.5 67.6002C55.5 67.6002 54.6 66.8002 54.6 65.7002V63.8002C54.6 61.6002 52.8 59.9002 50.7 59.9002C48.6 59.9002 46.8 61.7002 46.8 63.8002V65.7002C46.8 66.7002 46 67.6002 44.9 67.6002C43.9 67.6002 43 66.8002 43 65.7002V63.8002C43 59.6002 46.4 56.2002 50.6 56.2002C54.8 56.2002 58.2 59.6002 58.2 63.8002V65.7002C58.4 66.8002 57.6 67.6002 56.5 67.6002Z" fill="#221F1F"/>
<path d="M94.9998 67.6002C93.9998 67.6002 93.1998 66.8002 93.1998 65.7002V63.8002C93.1998 61.6002 91.3998 59.9002 89.2998 59.9002C87.1998 59.9002 85.3998 61.7002 85.3998 63.8002V65.7002C85.3998 66.7002 84.5998 67.6002 83.5998 67.6002C82.5998 67.6002 81.7998 66.8002 81.7998 65.7002V63.8002C81.7998 59.6002 85.1998 56.2002 89.3998 56.2002C93.5998 56.2002 96.9998 59.6002 96.9998 63.8002V65.7002C96.8998 66.8002 95.9998 67.6002 94.9998 67.6002Z" fill="#221F1F"/>
<path fill-rule="evenodd" clip-rule="evenodd" d="M70 80.9C62.2 80.9 54.8 79.5 48 76.9C45.6 76 43.3 78.4 44.4 80.8C48.9 90.5 58.7 97.2 70 97.2C81.3 97.2 91.1 90.5 95.6 80.8C96.7 78.5 94.4 76 92 76.9C85.2 79.5 77.8 80.9 70 80.9Z" fill="#D88C7D"/>
<path d="M70.0001 98.9999C58.3001 98.9999 47.6001 92.1999 42.7001 81.5999C41.9001 79.7999 42.2001 77.7999 43.5001 76.3999C44.8001 74.9999 46.8001 74.4999 48.6001 75.1999C55.4001 77.7999 62.6001 79.0999 70.0001 79.0999C77.4001 79.0999 84.5001 77.7999 91.4001 75.1999C93.2001 74.4999 95.2001 74.9999 96.5001 76.3999C97.8001 77.7999 98.1001 79.7999 97.3001 81.5999C92.4001 92.0999 81.7001 98.9999 70.0001 98.9999ZM46.9001 78.4999C46.5001 78.4999 46.3001 78.6999 46.2001 78.7999C46.1001 78.9999 45.8001 79.3999 46.0001 79.9999C50.3001 89.2999 59.7001 95.2999 70.0001 95.2999C80.2001 95.2999 89.6001 89.2999 94.0001 79.9999C94.3001 79.3999 94.0001 78.9999 93.8001 78.8999C93.7001 78.7999 93.3001 78.3999 92.7001 78.6999C85.5001 81.4999 77.8001 82.8999 70.0001 82.8999C62.2001 82.8999 54.6001 81.4999 47.3001 78.6999C47.2001 78.5999 47.0001 78.4999 46.9001 78.4999Z" fill="#221F1F"/>
<path fill-rule="evenodd" clip-rule="evenodd" d="M69.9998 80.9001C64.1998 80.9001 58.5998 80.1001 53.2998 78.6001C54.5998 84.5001 61.5998 89.0001 69.9998 89.0001C78.3998 89.0001 85.3998 84.5001 86.6998 78.7001C81.3998 80.1001 75.7998 80.9001 69.9998 80.9001Z" fill="white"/>
<path d="M69.9998 90.8C60.7998 90.8 52.9998 85.9 51.4998 79L50.7998 76L53.7998 76.8C64.2998 79.7 75.6998 79.7 86.1998 76.8L89.1998 76L88.4998 79C86.9998 85.9 79.1998 90.8 69.9998 90.8ZM56.5998 81.4C59.0998 84.8 64.2998 87.2 69.9998 87.2C75.6998 87.2 80.8998 84.9 83.3998 81.4C74.5998 83.3 65.3998 83.3 56.5998 81.4Z" fill="#221F1F"/>
</svg>
