<svg width="165" height="165" viewBox="0 0 165 165" fill="none" xmlns="http://www.w3.org/2000/svg">
<path d="M82.4998 29.0626C81.7498 29.0626 81.1123 28.4251 81.1123 27.6751V13.6126C81.1123 12.8626 81.7498 12.2251 82.4998 12.2251C83.2498 12.2251 83.8873 12.8626 83.8873 13.6126V27.6751C83.8873 28.4251 83.2498 29.0626 82.4998 29.0626Z" fill="#221F1F"/>
<path d="M82.4998 152.775C81.7498 152.775 81.1123 152.138 81.1123 151.388V137.325C81.1123 136.575 81.7498 135.938 82.4998 135.938C83.2498 135.938 83.8873 136.575 83.8873 137.325V151.388C83.8873 152.138 83.2498 152.775 82.4998 152.775Z" fill="#221F1F"/>
<path d="M55.0865 36.4127C54.599 36.4127 54.149 36.1502 53.8865 35.7002L46.874 23.5502C46.499 22.8752 46.724 22.0502 47.399 21.6377C48.074 21.2627 48.899 21.4877 49.3115 22.1627L56.324 34.3127C56.699 34.9877 56.474 35.8127 55.799 36.2252C55.574 36.3377 55.3115 36.4127 55.0865 36.4127Z" fill="#221F1F"/>
<path d="M116.924 143.55C116.437 143.55 115.987 143.288 115.724 142.838L108.712 130.688C108.337 130.013 108.562 129.188 109.237 128.775C109.912 128.4 110.737 128.625 111.149 129.3L118.162 141.45C118.537 142.125 118.312 142.95 117.637 143.363C117.412 143.475 117.187 143.55 116.924 143.55Z" fill="#221F1F"/>
<path d="M35.0258 56.4754C34.8008 56.4754 34.5383 56.4004 34.3508 56.2879L22.2008 49.2754C21.5258 48.9004 21.3008 48.0379 21.6758 47.3629C22.0508 46.6879 22.9133 46.4629 23.5883 46.8379L35.7383 53.8504C36.4133 54.2254 36.6383 55.0879 36.2633 55.7629C35.9633 56.2129 35.4758 56.4754 35.0258 56.4754Z" fill="#221F1F"/>
<path d="M142.163 118.313C141.938 118.313 141.676 118.238 141.488 118.125L129.338 111.113C128.663 110.738 128.438 109.875 128.813 109.2C129.188 108.525 130.051 108.3 130.726 108.675L142.876 115.688C143.551 116.063 143.776 116.925 143.401 117.6C143.101 118.088 142.613 118.313 142.163 118.313Z" fill="#221F1F"/>
<path d="M27.6756 83.8878H13.6131C12.8631 83.8878 12.2256 83.2503 12.2256 82.5003C12.2256 81.7503 12.8631 81.1128 13.6131 81.1128H27.6756C28.4256 81.1128 29.0631 81.7503 29.0631 82.5003C29.0631 83.2503 28.4256 83.8878 27.6756 83.8878Z" fill="#221F1F"/>
<path d="M151.388 83.8878H137.325C136.575 83.8878 135.938 83.2503 135.938 82.5003C135.938 81.7503 136.575 81.1128 137.325 81.1128H151.388C152.138 81.1128 152.775 81.7503 152.775 82.5003C152.775 83.2503 152.138 83.8878 151.388 83.8878Z" fill="#221F1F"/>
<path d="M22.8377 118.313C22.3502 118.313 21.9002 118.05 21.6377 117.6C21.2627 116.925 21.4877 116.1 22.1627 115.688L34.3127 108.675C34.9877 108.3 35.8127 108.525 36.2252 109.2C36.6002 109.875 36.3752 110.7 35.7002 111.113L23.5502 118.125C23.3252 118.275 23.1002 118.313 22.8377 118.313Z" fill="#221F1F"/>
<path d="M129.975 56.4754C129.488 56.4754 129.038 56.2129 128.775 55.7629C128.4 55.0879 128.625 54.2629 129.3 53.8504L141.45 46.8379C142.125 46.4629 142.95 46.6879 143.363 47.3629C143.738 48.0379 143.513 48.8629 142.838 49.2754L130.688 56.2879C130.463 56.4004 130.238 56.4754 129.975 56.4754Z" fill="#221F1F"/>
<path d="M48.074 143.55C47.849 143.55 47.5865 143.475 47.399 143.363C46.724 142.988 46.499 142.125 46.874 141.45L53.8865 129.3C54.2615 128.625 55.124 128.4 55.799 128.775C56.474 129.15 56.699 130.013 56.324 130.688L49.3115 142.838C49.0115 143.288 48.524 143.55 48.074 143.55Z" fill="#221F1F"/>
<path d="M109.912 36.4127C109.687 36.4127 109.424 36.3377 109.237 36.2252C108.562 35.8502 108.337 34.9877 108.712 34.3127L115.724 22.1627C116.099 21.4877 116.962 21.2627 117.637 21.6377C118.312 22.0127 118.537 22.8752 118.162 23.5502L111.149 35.7002C110.849 36.1502 110.399 36.4127 109.912 36.4127Z" fill="#221F1F"/>
<path d="M82.5 124.875C105.903 124.875 124.875 105.904 124.875 82.5005C124.875 59.0974 105.903 40.1255 82.5 40.1255C59.0969 40.1255 40.125 59.0974 40.125 82.5005C40.125 105.904 59.0969 124.875 82.5 124.875Z" fill="white"/>
<path d="M82.4998 126.263C58.3498 126.263 38.7373 106.613 38.7373 82.5003C38.7373 58.3503 58.3873 38.7378 82.4998 38.7378C106.612 38.7378 126.262 58.3503 126.262 82.5003C126.262 106.65 106.65 126.263 82.4998 126.263ZM82.4998 41.5128C59.8873 41.5128 41.5123 59.8878 41.5123 82.5003C41.5123 105.113 59.8873 123.488 82.4998 123.488C105.112 123.488 123.487 105.113 123.487 82.5003C123.487 59.8878 105.112 41.5128 82.4998 41.5128Z" fill="#221F1F"/>
</svg>
