<svg width="165" height="165" viewBox="0 0 165 165" fill="none" xmlns="http://www.w3.org/2000/svg">
<path d="M82.4998 30.5626C85.1248 30.5626 87.2623 28.4251 87.2623 25.8001V13.6126C87.2623 10.9876 85.1248 8.8501 82.4998 8.8501C79.8748 8.8501 77.7373 10.9876 77.7373 13.6126V25.8001C77.7373 28.4251 79.8748 30.5626 82.4998 30.5626Z" fill="white"/>
<path d="M82.4998 129.638C108.533 129.638 129.637 108.533 129.637 82.5C129.637 56.4667 108.533 35.3625 82.4998 35.3625C56.4665 35.3625 35.3623 56.4667 35.3623 82.5C35.3623 108.533 56.4665 129.638 82.4998 129.638Z" fill="white"/>
<path d="M82.4998 134.438C79.8748 134.438 77.7373 136.575 77.7373 139.2V151.388C77.7373 154.013 79.8748 156.15 82.4998 156.15C85.1248 156.15 87.2623 154.013 87.2623 151.388V139.2C87.2623 136.575 85.1248 134.438 82.4998 134.438Z" fill="white"/>
<path d="M82.4998 27.1876C81.7498 27.1876 81.1123 26.5501 81.1123 25.8001V13.6126C81.1123 12.8626 81.7498 12.2251 82.4998 12.2251C83.2498 12.2251 83.8873 12.8626 83.8873 13.6126V25.8001C83.8873 26.5501 83.2498 27.1876 82.4998 27.1876Z" fill="#221F1F"/>
<path d="M82.4998 152.775C81.7498 152.775 81.1123 152.138 81.1123 151.388V139.2C81.1123 138.45 81.7498 137.812 82.4998 137.812C83.2498 137.812 83.8873 138.45 83.8873 139.2V151.388C83.8873 152.138 83.2498 152.775 82.4998 152.775Z" fill="#221F1F"/>
<path d="M56.5123 37.5375C58.7998 36.225 59.5873 33.3 58.2373 31.05L52.1623 20.5125C50.8498 18.225 47.9248 17.475 45.6748 18.7875C43.4248 20.1 42.5998 23.025 43.9498 25.275L50.0623 35.8125C51.3373 38.0625 54.2623 38.85 56.5123 37.5375Z" fill="white"/>
<path d="M108.45 127.463C106.162 128.775 105.375 131.7 106.725 133.95L112.8 144.488C114.112 146.775 117.037 147.563 119.287 146.213C121.575 144.9 122.362 141.975 121.012 139.725L114.937 129.188C113.662 126.938 110.737 126.15 108.45 127.463Z" fill="white"/>
<path d="M54.8244 34.6127C54.1869 34.9877 53.2869 34.7627 52.9119 34.0877L46.8369 23.5502C46.4619 22.9127 46.6869 22.0127 47.3619 21.6377C48.0369 21.2627 48.8994 21.4877 49.2744 22.1627L55.3494 32.7002C55.7244 33.3377 55.4994 34.2377 54.8244 34.6127Z" fill="#221F1F"/>
<path d="M117.637 143.363C116.999 143.738 116.099 143.513 115.724 142.838L109.649 132.3C109.274 131.663 109.499 130.763 110.174 130.388C110.849 130.013 111.712 130.238 112.087 130.913L118.162 141.45C118.537 142.125 118.274 142.988 117.637 143.363Z" fill="#221F1F"/>
<path d="M37.5376 56.5127C38.8501 54.2252 38.0626 51.3377 35.8126 50.0252L25.2751 43.9502C22.9876 42.6377 20.1001 43.4252 18.7876 45.6752C17.4751 47.9627 18.2626 50.8502 20.5126 52.1627L31.0501 58.2377C33.3001 59.5877 36.2251 58.8002 37.5376 56.5127Z" fill="white"/>
<path d="M127.462 108.45C126.15 110.738 126.937 113.625 129.187 114.938L139.725 121.013C142.012 122.325 144.9 121.538 146.212 119.288C147.525 117 146.737 114.113 144.487 112.8L133.95 106.725C131.7 105.413 128.775 106.2 127.462 108.45Z" fill="white"/>
<path d="M34.6117 54.8251C34.2367 55.4626 33.3742 55.7251 32.6992 55.3501L22.1617 49.2751C21.5242 48.9001 21.2617 48.0376 21.6367 47.3626C22.0117 46.6876 22.8742 46.4626 23.5492 46.8376L34.0867 52.9501C34.7242 53.3251 34.9867 54.1876 34.6117 54.8251Z" fill="#221F1F"/>
<path d="M143.362 117.638C142.987 118.275 142.124 118.538 141.449 118.163L130.912 112.088C130.274 111.713 130.012 110.85 130.387 110.175C130.762 109.5 131.624 109.275 132.299 109.65L142.837 115.725C143.512 116.1 143.737 117 143.362 117.638Z" fill="#221F1F"/>
<path d="M30.5621 82.5C30.5621 79.875 28.4246 77.7375 25.7996 77.7375H13.6121C10.9871 77.7375 8.84961 79.875 8.84961 82.5C8.84961 85.125 10.9871 87.2625 13.6121 87.2625H25.7996C28.4246 87.2625 30.5621 85.125 30.5621 82.5Z" fill="white"/>
<path d="M134.438 82.5C134.438 85.125 136.575 87.2625 139.2 87.2625H151.388C154.013 87.2625 156.15 85.125 156.15 82.5C156.15 79.875 154.013 77.7375 151.388 77.7375H139.2C136.575 77.7375 134.438 79.875 134.438 82.5Z" fill="white"/>
<path d="M27.1871 82.5C27.1871 83.25 26.5496 83.8875 25.7996 83.8875H13.6121C12.8621 83.8875 12.2246 83.25 12.2246 82.5C12.2246 81.75 12.8621 81.1125 13.6121 81.1125H25.7996C26.5496 81.1125 27.1871 81.75 27.1871 82.5Z" fill="#221F1F"/>
<path d="M152.775 82.5C152.775 83.25 152.138 83.8875 151.388 83.8875H139.2C138.45 83.8875 137.812 83.25 137.812 82.5C137.812 81.75 138.45 81.1125 139.2 81.1125H151.388C152.138 81.1125 152.775 81.75 152.775 82.5Z" fill="#221F1F"/>
<path d="M37.537 108.488C36.2245 106.2 33.2995 105.413 31.0495 106.763L20.512 112.838C18.2245 114.15 17.4745 117.075 18.787 119.325C20.0995 121.575 23.0245 122.4 25.2745 121.05L35.812 114.975C38.062 113.663 38.8495 110.738 37.537 108.488Z" fill="white"/>
<path d="M127.462 56.55C128.775 58.8375 131.7 59.625 133.95 58.275L144.487 52.2C146.775 50.8875 147.562 47.9625 146.212 45.7125C144.9 43.425 141.975 42.6375 139.725 43.9875L129.187 50.0625C126.937 51.3375 126.15 54.2625 127.462 56.55Z" fill="white"/>
<path d="M34.6117 110.175C34.9867 110.813 34.7617 111.713 34.0867 112.088L23.5492 118.163C22.9117 118.538 22.0117 118.313 21.6367 117.638C21.2617 116.963 21.4867 116.1 22.1617 115.725L32.6992 109.65C33.3367 109.275 34.2367 109.5 34.6117 110.175Z" fill="#221F1F"/>
<path d="M143.362 47.3627C143.737 48.0002 143.512 48.9002 142.837 49.2752L132.299 55.3502C131.662 55.7252 130.762 55.5002 130.387 54.8252C130.012 54.1502 130.237 53.2877 130.912 52.9127L141.449 46.8002C142.124 46.4627 142.987 46.7252 143.362 47.3627Z" fill="#221F1F"/>
<path d="M56.5122 127.463C54.2247 126.15 51.3372 126.938 50.0247 129.188L43.9497 139.725C42.6372 142.013 43.4247 144.9 45.6747 146.213C47.9622 147.525 50.8497 146.738 52.1622 144.488L58.2372 133.95C59.5872 131.7 58.7997 128.775 56.5122 127.463Z" fill="white"/>
<path d="M108.45 37.5376C110.738 38.8501 113.625 38.0626 114.938 35.8126L121.013 25.2751C122.325 22.9876 121.538 20.1001 119.288 18.7876C117 17.4751 114.113 18.2626 112.8 20.5126L106.725 31.0501C105.413 33.3001 106.2 36.2251 108.45 37.5376Z" fill="white"/>
<path d="M54.8244 130.388C55.4619 130.763 55.7244 131.625 55.3494 132.3L49.2744 142.838C48.8994 143.475 48.0369 143.738 47.3619 143.363C46.6869 142.988 46.4619 142.125 46.8369 141.45L52.9494 130.913C53.3244 130.275 54.1869 130.013 54.8244 130.388Z" fill="#221F1F"/>
<path d="M117.637 21.6377C118.274 22.0127 118.537 22.8752 118.162 23.5502L112.087 34.0877C111.712 34.7252 110.849 34.9877 110.174 34.6127C109.499 34.2377 109.274 33.3752 109.649 32.7002L115.724 22.1627C116.099 21.4877 116.999 21.2627 117.637 21.6377Z" fill="#221F1F"/>
<path d="M82.5 124.875C105.903 124.875 124.875 105.903 124.875 82.5C124.875 59.0969 105.903 40.125 82.5 40.125C59.0969 40.125 40.125 59.0969 40.125 82.5C40.125 105.903 59.0969 124.875 82.5 124.875Z" fill="#FCD26E"/>
<path d="M82.4998 126.263C58.3498 126.263 38.7373 106.613 38.7373 82.5C38.7373 58.35 58.3873 38.7375 82.4998 38.7375C106.612 38.7375 126.262 58.35 126.262 82.5C126.262 106.65 106.65 126.263 82.4998 126.263ZM82.4998 41.5125C59.8873 41.5125 41.5123 59.8875 41.5123 82.5C41.5123 105.113 59.8873 123.488 82.4998 123.488C105.112 123.488 123.487 105.113 123.487 82.5C123.487 59.8875 105.112 41.5125 82.4998 41.5125Z" fill="#221F1F"/>
<path d="M97.0867 110.775C73.1242 110.775 52.3117 97.2751 41.8117 77.4751C41.6242 79.1251 41.5117 80.8126 41.5117 82.5001C41.5117 105.113 59.8867 123.488 82.4992 123.488C95.2867 123.488 106.762 117.6 114.262 108.375C108.824 109.95 103.049 110.775 97.0867 110.775Z" fill="#E0B344"/>
</svg>
