<svg width="165" height="165" viewBox="0 0 165 165" fill="none" xmlns="http://www.w3.org/2000/svg">
<path d="M136.537 65.1002C136.687 64.2002 136.725 63.2627 136.725 62.2877C136.725 51.6002 128.062 42.9377 117.375 42.9377C115.5 42.9377 113.7 43.2002 111.975 43.7252C106.8 32.7752 95.6621 25.2002 82.7246 25.2002C64.8746 25.2002 50.3996 39.6752 50.3996 57.5252C50.3996 60.1127 50.6996 62.6627 51.2996 65.0627H51.2246C42.1496 65.0627 34.7246 72.4877 34.7246 81.5627C34.7246 90.6377 42.1496 98.0627 51.2246 98.0627H80.5496C86.1371 106.163 89.6246 117.638 89.6246 130.425V151.013H105V130.425C105 117.638 108.487 106.163 114.075 98.0627H135.9C144.975 98.0627 152.4 90.6377 152.4 81.5627C152.437 72.7127 145.35 65.4377 136.537 65.1002ZM97.3121 112.8C96.0371 107.475 94.1996 102.525 91.8746 98.1002H102.787C100.462 102.525 98.6246 107.475 97.3121 112.8Z" fill="white"/>
<path d="M105.037 152.587H89.6621C88.7996 152.587 88.1246 151.912 88.1246 151.05V130.462C88.1246 118.875 85.0871 107.7 79.7621 99.6375H51.2621C41.3246 99.6375 33.2246 91.5375 33.2246 81.6C33.2246 72.2625 40.3496 64.575 49.4621 63.6375C49.0871 61.6125 48.8996 59.5875 48.8996 57.525C48.8996 38.85 64.0871 23.625 82.7996 23.625C95.3996 23.625 107.062 30.75 112.875 41.8875C114.375 41.55 115.912 41.3625 117.45 41.3625C128.962 41.3625 138.337 50.7375 138.337 62.25C138.337 62.7 138.337 63.1875 138.3 63.675C142.35 64.2 146.062 66.075 148.95 69.0375C152.212 72.4125 154.012 76.875 154.012 81.5625C154.012 91.5 145.912 99.6 135.975 99.6H114.975C109.65 107.663 106.612 118.837 106.612 130.425V151.013C106.575 151.913 105.862 152.587 105.037 152.587ZM91.1621 149.513H103.5V130.462C103.5 117.75 106.837 105.937 112.837 97.2375C113.137 96.825 113.587 96.5625 114.112 96.5625H135.937C144.187 96.5625 150.9 89.85 150.9 81.6C150.9 73.65 144.45 66.9375 136.5 66.6375C136.05 66.6375 135.637 66.4125 135.375 66.075C135.112 65.7375 134.962 65.2875 135.037 64.875C135.15 64.0125 135.225 63.15 135.225 62.2875C135.225 52.4625 127.237 44.475 117.412 44.475C115.725 44.475 114.075 44.7 112.425 45.1875C111.712 45.4125 110.925 45.0375 110.587 44.3625C105.525 33.6375 94.5746 26.7375 82.7246 26.7375C65.7371 26.7375 51.9371 40.5375 51.9371 57.525C51.9371 59.925 52.2371 62.3625 52.7996 64.725C52.9121 65.175 52.7996 65.6625 52.4996 66.0375C52.1996 66.4125 51.7496 66.6375 51.2996 66.6375H51.2246C42.9746 66.6375 36.2621 73.35 36.2621 81.6C36.2621 89.85 42.9746 96.5625 51.2246 96.5625H80.5496C81.0746 96.5625 81.5246 96.825 81.8246 97.2375C87.8621 105.975 91.1621 117.787 91.1621 130.462V149.513ZM97.3121 114.337C96.5996 114.337 95.9621 113.85 95.8121 113.175C94.5746 108.037 92.7746 103.2 90.4871 98.8125C90.2246 98.325 90.2621 97.7625 90.5246 97.3125C90.7871 96.8625 91.3121 96.5625 91.8371 96.5625H102.75C103.275 96.5625 103.8 96.8625 104.062 97.3125C104.325 97.7625 104.362 98.3625 104.1 98.8125C101.812 103.2 100.012 108 98.7746 113.175C98.6621 113.85 98.0246 114.337 97.3121 114.337ZM94.3496 99.6375C95.4746 102.038 96.4871 104.55 97.3121 107.138C98.1746 104.55 99.1496 102.038 100.275 99.6375H94.3496Z" fill="#221F1F"/>
<path d="M81.9746 74.7378C75.3371 81.2628 70.3121 90.6378 67.6871 101.55C65.0621 90.6378 60.0371 81.2253 53.3996 74.7378H37.3496V75.9003C50.2871 80.1753 59.9621 97.9503 59.9621 119.25V151.088H75.3371V119.25C75.3371 97.9878 85.0121 80.2128 97.9496 75.9003V74.7378H81.9746Z" fill="white"/>
<path d="M75.375 152.438H60C59.25 152.438 58.6125 151.8 58.6125 151.05V119.213C58.6125 99.0376 49.5 81.3376 36.9375 77.2126C36.375 77.0251 36 76.5001 36 75.9001V74.7376C36 73.9876 36.6375 73.3501 37.3875 73.3501H53.4C53.775 73.3501 54.1125 73.5001 54.375 73.7626C60.2625 79.5001 64.8 87.2626 67.6875 96.4126C70.575 87.3001 75.15 79.5376 81 73.7626C81.2625 73.5001 81.6 73.3501 81.975 73.3501H97.9875C98.7375 73.3501 99.375 73.9876 99.375 74.7376V75.9001C99.375 76.5001 99 77.0251 98.4375 77.2126C85.875 81.3751 76.7625 99.0376 76.7625 119.213V151.05C76.7625 151.8 76.125 152.438 75.375 152.438ZM61.35 149.663H73.95V119.213C73.95 108.788 76.3125 98.5876 80.5875 90.5251C84.075 83.9251 88.725 78.9376 93.9375 76.1251H82.5375C76.3125 82.4251 71.5125 91.5376 69 101.888C68.85 102.525 68.2875 102.938 67.65 102.938C67.0125 102.938 66.45 102.488 66.3 101.888C63.825 91.5376 59.025 82.4251 52.7625 76.1251H41.3625C46.575 78.9376 51.225 83.9251 54.7125 90.5251C58.9875 98.5876 61.35 108.788 61.35 119.213V149.663Z" fill="#221F1F"/>
<path d="M113.774 53.8503H113.699C114.262 51.4128 114.599 48.9003 114.599 46.3128C114.599 28.4628 100.124 13.9878 82.274 13.9878C69.374 13.9878 58.2365 21.5628 53.024 32.5128C51.299 32.0253 49.499 31.7253 47.624 31.7253C36.9365 31.7253 28.274 40.3878 28.274 51.0753C28.274 52.0128 28.349 52.9503 28.4615 53.8878C19.6865 54.2253 12.5615 61.5003 12.5615 70.3878C12.5615 79.4628 19.9865 86.8878 29.0615 86.8878H113.774C122.849 86.8878 130.274 79.4628 130.274 70.3878C130.274 61.2753 122.849 53.8503 113.774 53.8503Z" fill="white"/>
<path d="M113.774 88.3877H29.0619C19.1244 88.3877 11.0244 80.2877 11.0244 70.3502C11.0244 65.6627 12.8244 61.2377 16.0869 57.8252C18.9744 54.8627 22.6869 52.9877 26.7369 52.4627C26.6994 51.9752 26.6994 51.5252 26.6994 51.0752C26.6994 39.5627 36.0744 30.1877 47.5869 30.1877C49.1244 30.1877 50.6619 30.3752 52.1619 30.7127C57.9744 19.5752 69.6369 12.4502 82.2369 12.4502C100.912 12.4502 116.137 27.6377 116.137 46.3502C116.137 48.3752 115.949 50.4377 115.574 52.4627C124.687 53.3627 131.812 61.0877 131.812 70.4252C131.812 80.2877 123.712 88.3877 113.774 88.3877ZM47.6244 33.2252C37.7994 33.2252 29.8119 41.2127 29.8119 51.0377C29.8119 51.9002 29.8869 52.7627 29.9994 53.6252C30.0744 54.0752 29.9244 54.4877 29.6619 54.8252C29.3994 55.1627 28.9869 55.3502 28.5369 55.3877C20.5869 55.6877 14.1369 62.4002 14.1369 70.3502C14.1369 78.6002 20.8494 85.3127 29.0994 85.3127H113.812C122.062 85.3127 128.774 78.6002 128.774 70.3502C128.774 62.1002 122.062 55.3877 113.812 55.3877H113.737C113.249 55.3877 112.837 55.1627 112.537 54.7877C112.237 54.4127 112.124 53.9252 112.237 53.4752C112.799 51.1127 113.099 48.6752 113.099 46.2752C113.099 29.2877 99.2994 15.4877 82.3119 15.4877C70.4619 15.4877 59.5494 22.4252 54.4494 33.1127C54.1119 33.7877 53.3619 34.1252 52.6119 33.9377C50.9619 33.4877 49.2744 33.2252 47.6244 33.2252Z" fill="#221F1F"/>
<path d="M114.112 99.6375H80.5492C79.6867 99.6375 79.0117 98.9625 79.0117 98.1C79.0117 97.2375 79.6867 96.5625 80.5492 96.5625H114.112C114.974 96.5625 115.649 97.2375 115.649 98.1C115.649 98.9625 114.974 99.6375 114.112 99.6375Z" fill="#221F1F"/>
</svg>
