<svg width="165" height="165" viewBox="0 0 165 165" fill="none" xmlns="http://www.w3.org/2000/svg">
<path d="M89.6625 155.962C86.9625 155.962 84.75 153.75 84.75 151.05V130.462C84.75 129.787 84.75 129.075 84.7125 128.362C84.7125 128.287 84.7125 128.175 84.7125 128.1C84.7125 127.988 84.675 127.688 84.675 127.688C84.6375 127.2 84.6375 126.75 84.6 126.3C84.6 126.187 84.6 126.075 84.5625 125.962L84.525 125.55C84.4875 125.1 84.45 124.65 84.4125 124.2C84.4125 124.088 84.375 123.975 84.375 123.862L84.3375 123.562C84.3 123.075 84.225 122.625 84.1875 122.138C84.1875 122.025 84.1125 121.538 84.1125 121.538C84.0375 121.05 83.9625 120.6 83.8875 120.112C83.8875 120 83.85 119.925 83.85 119.812L83.8125 119.55C83.7375 119.062 83.625 118.613 83.55 118.125C83.5125 118.012 83.5125 117.938 83.475 117.825L83.4375 117.562C83.325 117.075 83.25 116.625 83.1375 116.138C83.1 116.025 83.1 115.95 83.0625 115.837L82.9875 115.612C82.875 115.162 82.7625 114.675 82.6125 114.225C82.575 114.113 82.4625 113.7 82.4625 113.7C82.35 113.25 82.2 112.838 82.0875 112.388C82.05 112.275 82.0125 112.162 81.975 112.05L81.9 111.862C81.75 111.45 81.6375 111.037 81.4875 110.625C81.45 110.475 81.375 110.362 81.3375 110.212L81.2625 110.025C81.15 109.762 81.075 109.5 80.9625 109.237C80.4375 112.462 80.175 115.8 80.175 119.138V150.975C80.175 153.6 78.0375 155.737 75.4125 155.737H60.0375C57.4125 155.737 55.275 153.6 55.275 150.975V119.138C55.275 113.588 54.525 108.037 53.1 102.938H51.3C43.35 102.938 36.1875 98.5875 32.475 91.6875H29.1C17.2875 91.6875 7.6875 82.0875 7.6875 70.275C7.6875 64.725 9.825 59.475 13.6875 55.425C16.425 52.6125 19.7625 50.6625 23.4 49.65C24.075 36.9 34.6875 26.7 47.625 26.7C48.5625 26.7 49.5 26.775 50.4375 26.8875C53.55 21.825 57.825 17.55 62.925 14.4375C68.775 10.875 75.4875 9 82.275 9C91.275 9 99.975 12.2625 106.762 18.1875C112.725 23.4 116.887 30.3375 118.612 37.95C131.025 38.5125 141.037 48.45 141.712 60.8625C145.35 61.875 148.688 63.825 151.387 66.6375C155.287 70.65 157.425 75.9375 157.425 81.525C157.425 93.3375 147.825 102.938 136.012 102.938H116.887C112.5 110.325 110.025 120.188 110.025 130.388V150.975C110.025 151.012 110.025 151.05 110.025 151.125C109.95 153.075 108.75 154.8 106.987 155.55C106.387 155.812 105.75 155.925 105.075 155.925H89.6625V155.962Z" fill="white"/>
<path d="M136.538 65.1C136.688 64.2 136.726 63.2625 136.726 62.2875C136.726 51.6 128.063 42.9375 117.376 42.9375C115.501 42.9375 113.701 43.2 111.976 43.725C106.801 32.775 95.6631 25.2 82.7256 25.2C64.8756 25.2 50.4006 39.675 50.4006 57.5249C50.4006 60.1124 50.7006 62.6625 51.3006 65.0625H51.2256C42.1506 65.0625 34.7256 72.4875 34.7256 81.5625C34.7256 90.6375 42.1506 98.0625 51.2256 98.0625H80.5506C86.1381 106.162 89.6256 117.637 89.6256 130.425V151.012H105.001V130.425C105.001 117.637 108.488 106.162 114.076 98.0625H135.901C144.976 98.0625 152.401 90.6375 152.401 81.5625C152.438 72.7125 145.351 65.4375 136.538 65.1ZM97.3131 112.8C96.0381 107.475 94.2006 102.525 91.8756 98.1H102.788C100.463 102.525 98.6256 107.475 97.3131 112.8Z" fill="#9CDB9C"/>
<path d="M105.038 152.587H89.6631C88.8006 152.587 88.1256 151.912 88.1256 151.05V130.462C88.1256 118.875 85.0881 107.7 79.7631 99.6375H51.2631C41.3256 99.6375 33.2256 91.5375 33.2256 81.6C33.2256 72.2625 40.3506 64.575 49.4631 63.6375C49.0881 61.6125 48.9006 59.5875 48.9006 57.525C48.9006 38.85 64.0881 23.625 82.8006 23.625C95.4006 23.625 107.063 30.75 112.876 41.8875C114.376 41.55 115.913 41.3625 117.451 41.3625C128.963 41.3625 138.338 50.7375 138.338 62.25C138.338 62.7 138.338 63.1875 138.301 63.675C142.351 64.2 146.063 66.075 148.951 69.0375C152.213 72.4125 154.013 76.875 154.013 81.5625C154.013 91.5 145.913 99.6 135.976 99.6H114.976C109.651 107.663 106.613 118.837 106.613 130.425V151.013C106.576 151.913 105.863 152.587 105.038 152.587ZM91.1631 149.513H103.501V130.462C103.501 117.75 106.838 105.937 112.838 97.2375C113.138 96.825 113.588 96.5625 114.113 96.5625H135.938C144.188 96.5625 150.901 89.85 150.901 81.6C150.901 73.65 144.451 66.9375 136.501 66.6375C136.051 66.6375 135.638 66.4125 135.376 66.075C135.113 65.7375 134.963 65.2875 135.038 64.875C135.151 64.0125 135.226 63.15 135.226 62.2875C135.226 52.4625 127.238 44.475 117.413 44.475C115.726 44.475 114.076 44.7 112.426 45.1875C111.713 45.4125 110.926 45.0375 110.588 44.3625C105.526 33.6375 94.5756 26.7375 82.7256 26.7375C65.7381 26.7375 51.9381 40.5375 51.9381 57.525C51.9381 59.925 52.2381 62.3625 52.8006 64.725C52.9131 65.175 52.8006 65.6625 52.5006 66.0375C52.2006 66.4125 51.7506 66.6375 51.3006 66.6375H51.2256C42.9756 66.6375 36.2631 73.35 36.2631 81.6C36.2631 89.85 42.9756 96.5625 51.2256 96.5625H80.5506C81.0756 96.5625 81.5256 96.825 81.8256 97.2375C87.8631 105.975 91.1631 117.787 91.1631 130.462V149.513ZM97.3131 114.337C96.6006 114.337 95.9631 113.85 95.8131 113.175C94.5756 108.037 92.7756 103.2 90.4881 98.8125C90.2256 98.325 90.2631 97.7625 90.5256 97.3125C90.7881 96.8625 91.3131 96.5625 91.8381 96.5625H102.751C103.276 96.5625 103.801 96.8625 104.063 97.3125C104.326 97.7625 104.363 98.3625 104.101 98.8125C101.813 103.2 100.013 108 98.7756 113.175C98.6631 113.85 98.0256 114.337 97.3131 114.337ZM94.3506 99.6375C95.4756 102.038 96.4881 104.55 97.3131 107.138C98.1756 104.55 99.1506 102.038 100.276 99.6375H94.3506Z" fill="#221F1F"/>
<path d="M81.9746 74.7375C75.3371 81.2625 70.3121 90.6375 67.6871 101.55C65.0621 90.6375 60.0371 81.225 53.3996 74.7375H37.3496V75.9C50.2871 80.175 59.9621 97.95 59.9621 119.25V151.088H75.3371V119.25C75.3371 97.9875 85.0121 80.2125 97.9496 75.9V74.7375H81.9746Z" fill="#FCD26E"/>
<path d="M75.375 152.438H60C59.25 152.438 58.6125 151.8 58.6125 151.05V119.213C58.6125 99.0376 49.5 81.3376 36.9375 77.2126C36.375 77.0251 36 76.5001 36 75.9001V74.7376C36 73.9876 36.6375 73.3501 37.3875 73.3501H53.4C53.775 73.3501 54.1125 73.5001 54.375 73.7626C60.2625 79.5001 64.8 87.2626 67.6875 96.4126C70.575 87.3001 75.15 79.5376 81 73.7626C81.2625 73.5001 81.6 73.3501 81.975 73.3501H97.9875C98.7375 73.3501 99.375 73.9876 99.375 74.7376V75.9001C99.375 76.5001 99 77.0251 98.4375 77.2126C85.875 81.3751 76.7625 99.0376 76.7625 119.213V151.05C76.7625 151.8 76.125 152.438 75.375 152.438ZM61.35 149.663H73.95V119.213C73.95 108.788 76.3125 98.5876 80.5875 90.5251C84.075 83.9251 88.725 78.9376 93.9375 76.1251H82.5375C76.3125 82.4251 71.5125 91.5376 69 101.888C68.85 102.525 68.2875 102.938 67.65 102.938C67.0125 102.938 66.45 102.488 66.3 101.888C63.825 91.5376 59.025 82.4251 52.7625 76.1251H41.3625C46.575 78.9376 51.225 83.9251 54.7125 90.5251C58.9875 98.5876 61.35 108.788 61.35 119.213V149.663Z" fill="#221F1F"/>
<path d="M113.775 53.85H113.7C114.263 51.4125 114.6 48.9 114.6 46.3125C114.6 28.4625 100.125 13.9875 82.275 13.9875C69.375 13.9875 58.2375 21.5625 53.025 32.5125C51.3 32.025 49.5 31.725 47.625 31.725C36.9375 31.725 28.275 40.3875 28.275 51.075C28.275 52.0125 28.35 52.95 28.4625 53.8875C19.6875 54.225 12.5625 61.5 12.5625 70.3875C12.5625 79.4625 19.9875 86.8875 29.0625 86.8875H113.775C122.85 86.8875 130.275 79.4625 130.275 70.3875C130.275 61.275 122.85 53.85 113.775 53.85Z" fill="#B7EDB7"/>
<path d="M113.775 88.3876H29.0629C19.1254 88.3876 11.0254 80.2876 11.0254 70.3501C11.0254 65.6626 12.8254 61.2376 16.0879 57.8251C18.9754 54.8626 22.6879 52.9876 26.7379 52.4626C26.7004 51.9751 26.7004 51.5251 26.7004 51.0376C26.7004 39.5251 36.0754 30.1501 47.5879 30.1501C49.1254 30.1501 50.6629 30.3376 52.1629 30.6751C57.9754 19.5376 69.6379 12.4126 82.2379 12.4126C100.913 12.4126 116.138 27.6001 116.138 46.3126C116.138 48.3376 115.95 50.4001 115.575 52.4251C124.688 53.3251 131.813 61.0501 131.813 70.3876C131.813 80.2876 123.713 88.3876 113.775 88.3876ZM47.6254 33.2251C37.8004 33.2251 29.8129 41.2126 29.8129 51.0376C29.8129 51.9001 29.8879 52.7626 30.0004 53.6251C30.0754 54.0751 29.9254 54.4876 29.6629 54.8251C29.4004 55.1626 28.9879 55.3501 28.5379 55.3876C20.5879 55.6876 14.1379 62.4001 14.1379 70.3501C14.1379 78.6001 20.8504 85.3126 29.1004 85.3126H113.813C122.063 85.3126 128.775 78.6001 128.775 70.3501C128.775 62.1001 122.063 55.3876 113.813 55.3876H113.738C113.25 55.3876 112.838 55.1626 112.538 54.7876C112.238 54.4126 112.125 53.9251 112.238 53.4751C112.8 51.1126 113.1 48.6751 113.1 46.2751C113.1 29.2876 99.3004 15.4876 82.3129 15.4876C70.4629 15.4876 59.5504 22.4251 54.4504 33.1126C54.1129 33.7876 53.3629 34.1251 52.6129 33.9376C50.9629 33.4876 49.2754 33.2251 47.6254 33.2251Z" fill="#221F1F"/>
<path d="M97.3123 112.8C96.0373 107.475 94.1998 102.525 91.8748 98.1001H80.5498C86.1373 106.2 89.6248 117.675 89.6248 130.463V151.05H105V130.463C105 117.675 108.487 106.2 114.075 98.1001H102.75C100.462 102.525 98.6248 107.475 97.3123 112.8Z" fill="#E0B344"/>
<path d="M105.037 152.587H89.6621C88.7996 152.587 88.1246 151.912 88.1246 151.05V130.462C88.1246 118.537 84.8996 107.062 79.3121 98.9625C78.9746 98.475 78.9371 97.875 79.1996 97.3875C79.4621 96.8625 79.9871 96.5625 80.5496 96.5625H91.8746C92.4371 96.5625 92.9621 96.8625 93.2246 97.3875C94.8371 100.463 96.1871 103.725 97.3121 107.138C98.4371 103.725 99.7871 100.425 101.4 97.3875C101.662 96.8625 102.187 96.5625 102.75 96.5625H114.075C114.637 96.5625 115.162 96.8625 115.425 97.3875C115.687 97.9125 115.65 98.5125 115.312 98.9625C109.725 107.062 106.5 118.537 106.5 130.462V151.05C106.575 151.912 105.862 152.587 105.037 152.587ZM91.1621 149.513H103.5V130.462C103.5 118.912 106.237 108.075 111.3 99.6375H103.725C101.625 103.8 99.9746 108.337 98.8121 113.175C98.6621 113.85 98.0246 114.337 97.3121 114.337C96.5996 114.337 95.9621 113.85 95.8121 113.175C94.6496 108.337 92.9996 103.8 90.8996 99.6375H83.3246C88.3871 108.075 91.1246 118.912 91.1246 130.462V149.513H91.1621Z" fill="#221F1F"/>
<path d="M41.8506 49.0875C41.8506 43.6875 42.6756 38.475 44.2131 33.5625C36.0006 35.175 29.7756 42.375 29.7756 51.0375C29.7756 51.9 29.8506 52.7625 29.9631 53.625C30.0381 54.075 29.8881 54.4875 29.6256 54.825C29.3631 55.1625 28.9506 55.35 28.5006 55.3875C20.5506 55.6875 14.1006 62.4 14.1006 70.35C14.1006 78.6 20.8131 85.3125 29.0631 85.3125H56.5881C47.4756 75.975 41.8506 63.1875 41.8506 49.0875Z" fill="#9CDB9C"/>
</svg>
