<svg width="165" height="165" viewBox="0 0 165 165" fill="none" xmlns="http://www.w3.org/2000/svg">
<path d="M62.7 101.287L51.1875 134.4C46.95 146.55 29.4 145.425 26.775 132.825L14.325 73.35C11.925 61.8 18.3375 50.25 29.4 46.2375L91.875 23.475C102.937 19.4625 115.312 24.15 120.862 34.5375L149.587 88.125C155.662 99.4875 142.95 111.637 131.888 105.037L101.775 87.075L62.7 101.287Z" fill="white"/>
<path d="M39.2624 144.337C38.9249 144.337 38.5874 144.337 38.2499 144.3C31.7624 143.887 26.6999 139.5 25.3874 133.125L12.9749 73.6499C11.7374 67.7624 12.6749 61.5749 15.5999 56.3249C18.5249 51.0374 23.2874 47.0249 28.9499 44.9624L91.4249 22.1999C97.0873 20.1374 103.312 20.1749 108.937 22.3499C114.562 24.4874 119.25 28.6124 122.1 33.9374L150.825 87.4874C153.9 93.2249 152.85 99.8249 148.125 104.325C143.437 108.825 136.762 109.575 131.175 106.237L101.625 88.6124L63.7499 102.412L52.4249 134.887C50.4374 140.7 45.3374 144.337 39.2624 144.337ZM99.9373 23.4749C97.4249 23.4749 94.8748 23.8874 92.3998 24.7874L29.8874 47.5499C19.5374 51.2999 13.4249 62.2874 15.6749 73.0874L28.0874 132.562C29.3999 138.787 34.4624 141.3 38.4374 141.525C42.3749 141.787 47.7749 139.95 49.8374 133.95L61.3499 100.837C61.4999 100.462 61.7999 100.125 62.1749 99.9749L101.287 85.7249C101.662 85.5749 102.112 85.6124 102.487 85.8374L132.6 103.8C138.037 107.062 143.325 105 146.212 102.262C149.1 99.5249 151.35 94.3499 148.35 88.7249L119.662 35.2124C115.687 27.8249 107.962 23.4749 99.9373 23.4749Z" fill="#221F1F"/>
<path d="M27.187 73.275L38.437 69.15L34.3495 57.8625L45.487 53.8125L49.5745 65.1L60.862 61.0125L64.912 72.1125L53.6245 76.2375L57.7495 87.525L46.612 91.575L42.487 80.2875L31.237 84.375L27.187 73.275Z" fill="white"/>
<path d="M46.6121 92.9625C46.4246 92.9625 46.1996 92.925 46.0121 92.85C45.6746 92.7 45.4121 92.4 45.2996 92.0625L41.6621 82.0875L31.6871 85.725C30.9746 85.9875 30.1871 85.6125 29.9246 84.9L25.8746 73.725C25.7621 73.3875 25.7621 73.0125 25.9121 72.675C26.0621 72.3375 26.3621 72.075 26.6996 71.9625L36.6746 68.325L33.0371 58.35C32.9246 58.0125 32.9246 57.6375 33.0746 57.3C33.2246 56.9625 33.5246 56.7 33.8621 56.5875L44.9996 52.5375C45.7121 52.275 46.4996 52.65 46.7621 53.3625L50.3996 63.3375L60.3746 59.7C60.7121 59.5875 61.0871 59.5875 61.4246 59.7375C61.7621 59.8875 62.0246 60.1875 62.1371 60.525L66.1871 71.6625C66.4496 72.375 66.0746 73.1625 65.3621 73.425L55.3871 77.0625L59.0246 87.0375C59.2871 87.75 58.9121 88.5375 58.1996 88.8L47.0621 92.85C46.9121 92.925 46.7621 92.9625 46.6121 92.9625ZM42.4871 78.9C42.6746 78.9 42.8996 78.9375 43.0871 79.0125C43.4246 79.1625 43.6871 79.4625 43.7996 79.8L47.4371 89.775L55.9496 86.6625L52.3121 76.6875C52.0496 75.975 52.4246 75.1875 53.1371 74.925L63.1121 71.2875L59.9996 62.775L50.0246 66.4125C49.3121 66.675 48.5246 66.3 48.2621 65.5875L44.6246 55.6125L36.1121 58.725L39.7496 68.7C39.8621 69.0375 39.8621 69.4125 39.7121 69.75C39.5621 70.0875 39.2621 70.35 38.9246 70.4625L28.9496 74.1L32.0621 82.6125L42.0371 78.975C42.1871 78.9375 42.3371 78.9 42.4871 78.9Z" fill="#221F1F"/>
<path d="M102.188 49.4253C106.537 49.4253 110.062 45.8995 110.062 41.5503C110.062 37.2011 106.537 33.6753 102.188 33.6753C97.8383 33.6753 94.3125 37.2011 94.3125 41.5503C94.3125 45.8995 97.8383 49.4253 102.188 49.4253Z" fill="white"/>
<path d="M102.15 50.8125C100.8 50.8125 99.487 50.5125 98.2495 49.95C95.9995 48.9 94.312 47.0625 93.4495 44.7375C91.687 39.9375 94.1995 34.6125 98.9995 32.8875C103.8 31.125 109.125 33.6375 110.85 38.4375C112.612 43.2375 110.1 48.5625 105.3 50.2875C104.287 50.6625 103.237 50.8125 102.15 50.8125ZM102.15 35.1C101.4 35.1 100.65 35.2125 99.937 35.475C96.562 36.7125 94.837 40.425 96.0745 43.8C96.6745 45.4125 97.8745 46.725 99.412 47.475C100.987 48.225 102.75 48.3 104.362 47.7C107.737 46.4625 109.462 42.75 108.225 39.375C107.325 36.7125 104.812 35.1 102.15 35.1Z" fill="#221F1F"/>
<path d="M90.1504 75.2256C94.4996 75.2256 98.0254 71.6998 98.0254 67.3506C98.0254 63.0013 94.4996 59.4756 90.1504 59.4756C85.8011 59.4756 82.2754 63.0013 82.2754 67.3506C82.2754 71.6998 85.8011 75.2256 90.1504 75.2256Z" fill="white"/>
<path d="M90.1495 76.6128C88.7995 76.6128 87.487 76.3128 86.2495 75.7503C83.9995 74.7003 82.312 72.8628 81.4495 70.5378C79.687 65.7378 82.1995 60.4128 86.9995 58.6878C91.7995 56.9253 97.1245 59.4378 98.8495 64.2378C99.712 66.5628 99.5995 69.0753 98.5495 71.3253C97.4995 73.5753 95.662 75.2628 93.337 76.1253C92.287 76.4253 91.1995 76.6128 90.1495 76.6128ZM90.1495 60.8628C89.3995 60.8628 88.6495 60.9753 87.937 61.2378C84.562 62.4753 82.837 66.1878 84.0745 69.5628C84.6745 71.1753 85.8745 72.4878 87.412 73.2378C88.987 73.9878 90.7495 74.0628 92.362 73.4628C93.9745 72.8628 95.287 71.6628 96.037 70.1253C96.787 68.5503 96.862 66.7878 96.262 65.1753C95.287 62.4753 92.812 60.8628 90.1495 60.8628Z" fill="#221F1F"/>
</svg>
