<svg width="165" height="165" viewBox="0 0 165 165" fill="none" xmlns="http://www.w3.org/2000/svg">
<path d="M39.2622 147.713C38.8872 147.713 38.4372 147.713 37.9497 147.675C29.9247 147.15 23.6997 141.713 22.0872 133.8L9.6747 74.3251C8.2497 67.6126 9.3372 60.6376 12.6372 54.6751C15.9372 48.7126 21.2997 44.1376 27.7872 41.7751L90.2622 19.0126C93.4122 17.8876 96.6747 17.2876 99.9747 17.2876C103.462 17.2876 106.875 17.9251 110.137 19.1626C116.512 21.6001 121.837 26.2501 125.062 32.2876L153.787 85.8751C157.612 93.0001 156.3 101.175 150.45 106.763C147.112 109.913 142.875 111.675 138.45 111.675C135.337 111.675 132.225 110.813 129.412 109.125L101.25 92.3251L66.3747 105.038L55.5747 136.013C53.1747 143.1 46.7622 147.713 39.2622 147.713Z" fill="white"/>
<path d="M62.6995 101.287L51.187 134.4C46.9495 146.55 29.3995 145.425 26.7745 132.825L14.3245 73.35C11.9245 61.8 18.337 50.25 29.3995 46.2375L91.8745 23.475C102.937 19.4625 115.312 24.15 120.862 34.5375L149.587 88.125C155.662 99.4875 142.95 111.637 131.887 105.037L101.775 87.075L62.6995 101.287Z" fill="#E9E5DC"/>
<path d="M39.2624 144.337C38.9249 144.337 38.5874 144.337 38.2499 144.3C31.7624 143.887 26.6999 139.5 25.3874 133.125L12.9749 73.6499C11.7374 67.7624 12.6749 61.5749 15.5999 56.3249C18.5249 51.0374 23.2874 47.0249 28.9499 44.9624L91.4249 22.1999C97.0873 20.1374 103.312 20.1749 108.937 22.3499C114.562 24.4874 119.25 28.6124 122.1 33.9374L150.825 87.4874C153.9 93.2249 152.85 99.8249 148.125 104.325C143.4 108.825 136.762 109.575 131.175 106.237L101.625 88.6124L63.7499 102.412L52.4249 134.887C50.4374 140.7 45.3374 144.337 39.2624 144.337ZM99.9373 23.4749C97.4249 23.4749 94.8748 23.8874 92.3998 24.7874L29.8874 47.5499C19.5374 51.2999 13.4249 62.2874 15.6749 73.0874L28.0874 132.562C29.3999 138.787 34.4624 141.3 38.4374 141.525C42.3749 141.787 47.7749 139.95 49.8374 133.95L61.3499 100.837C61.4999 100.462 61.7999 100.125 62.1749 99.9749L101.287 85.7249C101.662 85.5749 102.112 85.6124 102.487 85.8374L132.6 103.8C138.037 107.062 143.325 105 146.212 102.262C149.1 99.5249 151.35 94.3499 148.35 88.7249L119.662 35.2124C115.687 27.8249 107.962 23.4749 99.9373 23.4749Z" fill="#221F1F"/>
<path d="M27.1875 73.275L38.4375 69.15L34.35 57.8625L45.4875 53.8125L49.575 65.1L60.8625 61.0125L64.9125 72.1125L53.625 76.2375L57.75 87.525L46.6125 91.575L42.4875 80.2875L31.2375 84.375L27.1875 73.275Z" fill="#F9A936"/>
<path d="M46.6126 92.9625C46.4251 92.9625 46.2001 92.925 46.0126 92.85C45.6751 92.7 45.4126 92.4 45.3001 92.0625L41.6626 82.0875L31.6876 85.725C30.9751 85.9875 30.1876 85.6125 29.9251 84.9L25.8751 73.725C25.7626 73.3875 25.7626 73.0125 25.9126 72.675C26.0626 72.3375 26.3626 72.075 26.7001 71.9625L36.6751 68.325L33.0376 58.35C32.9251 58.0125 32.9251 57.6375 33.0751 57.3C33.2251 56.9625 33.5251 56.7 33.8626 56.5875L45.0001 52.5375C45.7126 52.275 46.5001 52.65 46.7626 53.3625L50.4001 63.3375L60.3751 59.7C60.7126 59.5875 61.0876 59.5875 61.4251 59.7375C61.7626 59.8875 62.0251 60.1875 62.1376 60.525L66.1876 71.6625C66.4501 72.375 66.0751 73.1625 65.3626 73.425L55.3876 77.0625L59.0251 87.0375C59.2876 87.75 58.9126 88.5375 58.2001 88.8L47.0626 92.85C46.9126 92.925 46.7626 92.9625 46.6126 92.9625ZM42.4876 78.9C42.6751 78.9 42.9001 78.9375 43.0876 79.0125C43.4251 79.1625 43.6876 79.4625 43.8001 79.8L47.4376 89.775L55.9501 86.6625L52.3126 76.6875C52.0501 75.975 52.4251 75.1875 53.1376 74.925L63.1126 71.2875L60.0001 62.775L50.0251 66.4125C49.3126 66.675 48.5251 66.3 48.2626 65.5875L44.6251 55.6125L36.1126 58.725L39.7501 68.7C39.8626 69.0375 39.8626 69.4125 39.7126 69.75C39.5626 70.0875 39.2626 70.35 38.9251 70.4625L28.9501 74.1L32.0626 82.6125L42.0376 78.975C42.1876 78.9375 42.3376 78.9 42.4876 78.9Z" fill="#221F1F"/>
<path d="M102.188 49.425C106.537 49.425 110.062 45.8993 110.062 41.55C110.062 37.2008 106.537 33.675 102.188 33.675C97.8383 33.675 94.3125 37.2008 94.3125 41.55C94.3125 45.8993 97.8383 49.425 102.188 49.425Z" fill="#9CDB9C"/>
<path d="M102.15 50.8125C100.8 50.8125 99.487 50.5125 98.2495 49.95C95.9995 48.9 94.312 47.0625 93.4495 44.7375C91.687 39.9375 94.1995 34.6125 98.9995 32.8875C103.8 31.125 109.125 33.6375 110.85 38.4375C112.575 43.2375 110.1 48.5625 105.3 50.2875C104.287 50.6625 103.237 50.8125 102.15 50.8125ZM102.15 35.1C101.4 35.1 100.65 35.2125 99.937 35.475C96.562 36.7125 94.837 40.425 96.0745 43.8C96.6745 45.4125 97.8745 46.725 99.412 47.475C100.987 48.225 102.75 48.3 104.362 47.7C107.737 46.4625 109.462 42.75 108.225 39.375C107.325 36.7125 104.812 35.1 102.15 35.1Z" fill="#221F1F"/>
<path d="M90.1494 75.2249C94.4987 75.2249 98.0244 71.6991 98.0244 67.3499C98.0244 63.0006 94.4987 59.4749 90.1494 59.4749C85.8002 59.4749 82.2744 63.0006 82.2744 67.3499C82.2744 71.6991 85.8002 75.2249 90.1494 75.2249Z" fill="#F0AA97"/>
<path d="M90.1495 76.6123C88.7995 76.6123 87.487 76.3123 86.2495 75.7498C83.9995 74.6998 82.312 72.8623 81.4495 70.5373C79.687 65.7373 82.1995 60.4123 86.9995 58.6873C91.7995 56.9248 97.1245 59.4373 98.8495 64.2373C99.712 66.5623 99.5995 69.0748 98.5495 71.3248C97.4995 73.5748 95.662 75.2623 93.337 76.1248C92.287 76.4248 91.1995 76.6123 90.1495 76.6123ZM90.1495 60.8623C89.3995 60.8623 88.6495 60.9748 87.937 61.2373C84.562 62.4748 82.837 66.1873 84.0745 69.5623C84.6745 71.1748 85.8745 72.4873 87.412 73.2373C88.987 73.9873 90.7495 74.0623 92.362 73.4623C93.9745 72.8623 95.287 71.6623 96.037 70.1248C96.787 68.5498 96.862 66.7873 96.262 65.1748C95.287 62.4748 92.812 60.8623 90.1495 60.8623Z" fill="#221F1F"/>
<path d="M49.8377 133.95L61.5002 100.312C50.5127 103.762 27.3002 105.075 19.0127 89.0999L28.0877 132.525C29.4002 138.75 34.4627 141.262 38.4377 141.487C42.4127 141.787 47.7752 139.95 49.8377 133.95Z" fill="black" fill-opacity="0.1"/>
</svg>
