<svg width="165" height="165" viewBox="0 0 165 165" fill="none" xmlns="http://www.w3.org/2000/svg">
<path d="M153.637 145.388C146.925 145.388 140.662 142.688 136.162 137.963C133.612 140.625 130.462 142.688 126.937 143.963L126.825 144C126.412 144.15 126 144.3 125.587 144.413C125.4 144.488 125.212 144.525 125.025 144.563C124.837 144.6 124.612 144.675 124.425 144.713C124.125 144.788 123.787 144.863 123.487 144.938C123.337 144.975 123.187 145.013 123.037 145.013C122.7 145.088 122.325 145.125 121.987 145.163C121.987 145.163 121.725 145.2 121.65 145.2C121.237 145.238 120.787 145.275 120.375 145.313H120.112C119.587 145.35 119.137 145.35 118.725 145.35C112.012 145.35 105.75 142.613 101.25 137.925C96.7123 142.65 90.4498 145.35 83.7748 145.35C77.0623 145.35 70.7998 142.613 66.2998 137.925C61.7623 142.65 55.4998 145.35 48.8248 145.35C42.1123 145.35 35.8498 142.613 31.3498 137.888C31.2373 138 31.1248 138.113 31.0123 138.225L30.9748 138.263C30.8623 138.375 30.7498 138.488 30.6373 138.6C29.3998 139.8 28.0123 140.888 26.5498 141.788C26.1373 142.05 25.7623 142.275 25.3873 142.5C25.1998 142.613 25.0498 142.688 24.9373 142.725C21.5623 144.45 17.7373 145.388 13.9123 145.388C11.2873 145.388 9.14981 143.25 9.14981 140.625C9.14981 138.863 10.1248 137.325 11.5498 136.5C8.3248 127.313 6.6748 117.638 6.6748 107.738C6.6748 84.1875 15.9748 62.0625 32.8498 45.4125C49.6123 28.7625 71.9998 19.6125 95.8498 19.6125C109.65 19.6125 123.487 22.8375 135.825 28.95H135.862C136.087 29.025 136.35 29.1 136.575 29.2125C142.087 31.9875 148.012 37.9875 147.975 44.55C147.937 47.1375 146.925 51.8251 140.7 54.7876C139.5 55.3501 138.112 55.65 136.425 55.65C132.525 55.65 127.425 54.15 121.5 52.425C120.337 52.0875 118.912 51.675 117.45 51.2625C117.937 51.6375 119.025 52.425 119.025 52.425C129.187 59.85 139.687 67.5375 139.725 75.6375C139.725 77.775 139.012 80.8876 135.562 83.4751C135.562 83.4751 135.525 83.475 135.525 83.5125C133.612 84.9375 131.212 85.65 128.325 85.65C121.687 85.65 113.025 82.05 101.775 76.6875C101.587 80.4 101.7 84.1125 102.075 87.675C103.012 96.15 105.525 103.95 109.612 110.85C114.262 118.763 121.012 125.55 129.675 131.063C130.575 130.05 131.325 128.925 131.925 127.688C132.712 126.038 134.362 124.988 136.2 124.988C138.037 124.988 139.687 126.038 140.475 127.688C142.987 132.75 148.05 135.9 153.675 135.9C156.3 135.9 158.437 138.038 158.437 140.663C158.437 143.288 156.262 145.388 153.637 145.388Z" fill="white"/>
<path d="M31.3877 129.713C34.5377 136.163 41.1752 140.625 48.8627 140.625C56.5502 140.625 63.1502 136.163 66.3377 129.713C69.4877 136.163 76.1252 140.625 83.8127 140.625C91.5002 140.625 98.1002 136.163 101.288 129.713C104.438 136.163 111.075 140.625 118.763 140.625C122.925 140.625 126.788 139.313 129.938 137.1L129.713 136.65C83.4002 109.463 99.7127 59.9251 99.7127 59.9251L67.9127 40.3501L33.9002 65.0626L21.6377 102.975L21.2627 128.025L23.0627 138.338C26.6627 136.425 29.5877 133.388 31.3877 129.713Z" fill="#8EBFE2"/>
<path d="M118.688 142.013C111.525 142.013 105.037 138.45 101.212 132.525C97.3875 138.413 90.9 142.013 83.7375 142.013C76.575 142.013 70.0875 138.45 66.2625 132.525C62.4375 138.413 55.95 142.013 48.7875 142.013C41.625 142.013 35.1375 138.45 31.3125 132.525C29.4 135.45 26.7375 137.888 23.6625 139.575C23.2875 139.8 22.8 139.8 22.425 139.613C22.0125 139.425 21.75 139.05 21.675 138.6L19.9125 128.25C19.9125 128.175 19.875 128.063 19.875 127.988L20.25 102.938C20.25 102.788 20.2875 102.675 20.325 102.525L32.5125 64.5751C32.5875 64.3126 32.775 64.0501 33 63.8626L67.0125 39.1501C67.4625 38.8126 68.0625 38.8126 68.55 39.0751L100.35 58.6501C100.875 58.9876 101.138 59.6626 100.95 60.2626C100.913 60.3751 96.975 72.6376 98.6625 87.9751C99.6375 96.9376 102.337 105.188 106.65 112.5C112.05 121.65 120 129.338 130.35 135.413C130.575 135.525 130.725 135.713 130.875 135.938L131.1 136.388C131.438 136.988 131.25 137.775 130.688 138.188C127.162 140.7 123 142.013 118.688 142.013ZM101.25 128.363C101.775 128.363 102.262 128.663 102.487 129.15C105.562 135.413 111.75 139.275 118.725 139.275C121.838 139.275 124.838 138.488 127.5 136.988C117.45 130.8 109.613 123.038 104.25 113.925C99.75 106.275 96.9375 97.6126 95.925 88.2751C94.4625 74.8126 97.0875 63.9376 98.025 60.5626L67.875 41.9626L34.9875 65.8501L23.025 103.163L22.6875 127.875L24.1125 136.05C26.7 134.288 28.8 131.85 30.1875 129.075C30.4125 128.588 30.9 128.288 31.425 128.288C31.95 128.288 32.4375 128.588 32.6625 129.075C35.7375 135.338 41.925 139.2 48.9 139.2C55.875 139.2 62.0625 135.338 65.1375 129.075C65.3625 128.588 65.85 128.288 66.375 128.288C66.9 128.288 67.3875 128.588 67.6125 129.075C70.6875 135.338 76.875 139.2 83.85 139.2C90.825 139.2 97.0125 135.338 100.087 129.075C100.237 128.663 100.725 128.363 101.25 128.363Z" fill="#221F1F"/>
<path d="M153.637 142.012C146.474 142.012 139.987 138.45 136.162 132.525C132.337 138.412 125.849 142.012 118.687 142.012C111.524 142.012 105.037 138.45 101.212 132.525C97.3867 138.412 90.8992 142.012 83.7367 142.012C76.5742 142.012 70.0867 138.45 66.2617 132.525C62.4367 138.412 55.9492 142.012 48.7867 142.012C41.6242 142.012 35.1367 138.45 31.3117 132.525C27.4867 138.412 20.9992 142.012 13.8367 142.012C13.0867 142.012 12.4492 141.375 12.4492 140.625C12.4492 139.875 13.0867 139.237 13.8367 139.237C20.7742 139.237 26.9992 135.375 30.0742 129.112C30.2992 128.625 30.7867 128.325 31.3117 128.325C31.8367 128.325 32.3242 128.625 32.5492 129.112C35.6242 135.337 41.8117 139.237 48.7867 139.237C55.7242 139.237 61.9492 135.375 65.0242 129.112C65.2492 128.625 65.7367 128.325 66.2617 128.325C66.7867 128.325 67.2742 128.625 67.4992 129.112C70.5742 135.337 76.7617 139.237 83.7367 139.237C90.6742 139.237 96.8992 135.375 99.9742 129.112C100.199 128.625 100.687 128.325 101.212 128.325C101.737 128.325 102.224 128.625 102.449 129.112C105.524 135.337 111.712 139.237 118.687 139.237C125.624 139.237 131.849 135.375 134.924 129.112C135.149 128.625 135.637 128.325 136.162 128.325C136.687 128.325 137.174 128.625 137.399 129.112C140.474 135.337 146.662 139.237 153.637 139.237C154.387 139.237 155.024 139.875 155.024 140.625C155.024 141.375 154.387 142.012 153.637 142.012Z" fill="#221F1F"/>
<path d="M27.8998 134.7C12.4873 101.363 84.4123 99.525 84.9748 81.7875C85.3873 69.1125 40.5373 75.6 48.8248 60.675C60.2623 40.05 120.075 88.95 132.6 79.65C145.125 70.35 101.475 49.95 105.412 45.6375C109.35 41.325 133.087 53.1375 138.6 50.5125C147.75 46.125 141.6 37.0125 134.437 33.45L135.787 34.2C123.825 27.9375 110.25 24.375 95.8498 24.375C49.1623 24.375 11.3623 61.6875 11.3623 107.737C11.3623 119.25 13.7248 130.237 17.9998 140.212C21.8623 139.35 25.2748 137.4 27.8998 134.7Z" fill="white"/>
<path d="M17.9996 141.563C17.4746 141.563 16.9496 141.225 16.7246 140.738C12.2246 130.275 9.97461 119.175 9.97461 107.738C9.97461 85.0875 18.8996 63.825 35.1371 47.8125C51.3371 31.8 72.8996 22.9875 95.8496 22.9875C109.312 22.9875 122.662 26.1375 134.625 32.1C134.775 32.1375 134.887 32.175 135.037 32.2125C139.8 34.6125 144.6 39.6 144.562 44.5125C144.525 46.65 143.587 49.65 139.2 51.75C136.162 53.2125 129.787 51.3375 122.4 49.1625C116.812 47.5126 108.487 45.0751 106.612 46.4251C107.212 47.9626 112.8 52.05 116.887 55.05C125.962 61.6875 136.237 69.1875 136.275 75.6001C136.275 77.5876 135.337 79.3125 133.462 80.7375C127.35 85.275 113.212 78.4501 96.8621 70.5376C77.6246 61.2751 55.8746 50.775 50.0246 61.3125C49.1621 62.8875 48.9371 64.1625 49.4246 65.175C50.9246 68.3625 58.9871 69.7875 66.1121 71.025C76.1996 72.825 86.5871 74.6626 86.3621 81.7876C86.0996 89.8126 74.3246 94.3875 60.6746 99.7125C47.2496 104.963 32.0246 110.888 28.0871 120.675C26.4746 124.688 26.8121 129.038 29.1371 134.063C29.3621 134.588 29.2871 135.188 28.8746 135.6C25.9871 138.6 22.3121 140.625 18.2996 141.488C18.1871 141.563 18.1121 141.563 17.9996 141.563ZM95.8496 25.7625C73.6496 25.7625 52.7621 34.275 37.0871 49.7625C21.3746 65.25 12.7496 85.8375 12.7496 107.738C12.7496 118.425 14.8121 128.775 18.8246 138.6C21.5996 137.813 24.1121 136.388 26.2496 134.4C23.9996 129.075 23.7371 124.163 25.5371 119.7C29.9246 108.825 45.7121 102.638 59.6621 97.2001C71.8496 92.4376 83.3996 87.9375 83.5871 81.75C83.7371 76.9875 74.0996 75.3 65.6246 73.7625C57.1121 72.2625 49.0871 70.8375 46.9496 66.375C46.0871 64.5375 46.3121 62.4 47.6246 60C50.8871 54.15 57.6746 52.725 68.3621 55.65C77.3246 58.0875 87.8246 63.1875 98.0246 68.1001C112.275 75 127.012 82.0875 131.775 78.5625C132.937 77.7 133.5 76.7626 133.5 75.675C133.462 70.65 122.925 62.9625 115.237 57.3375C107.887 51.975 104.025 49.05 103.8 46.575C103.725 45.9 103.95 45.225 104.4 44.7376C106.875 42 113.137 43.6125 123.15 46.575C128.812 48.2625 135.9 50.3251 138 49.35C140.512 48.15 141.787 46.5375 141.825 44.5501C141.862 41.625 139.125 37.9501 135.262 35.5501C135.225 35.5126 135.15 35.5125 135.112 35.475C123.075 29.1 109.537 25.7625 95.8496 25.7625Z" fill="#221F1F"/>
<path d="M12.75 107.737C12.75 118.425 14.8125 128.775 18.825 138.6C21.6 137.813 24.1125 136.387 26.25 134.4C24 129.075 23.7375 124.163 25.5375 119.7C29.925 108.825 45.7125 102.638 59.6625 97.2C71.85 92.4375 83.4 87.9375 83.5875 81.75C83.5875 81.225 83.5125 80.7375 83.2875 80.2875C75.525 88.2 48.4875 98.1 33.5625 96.5625C18.3375 94.9875 16.7625 86.7 17.85 79.3125C14.5125 88.2375 12.75 97.8375 12.75 107.737Z" fill="#CAE5FF"/>
<path d="M104.212 113.888C100.2 107.063 97.5373 99.4876 96.2998 91.2751C70.4623 98.2501 51.2248 116.775 47.9248 139.2C48.2248 139.2 48.5248 139.238 48.8623 139.238C55.7998 139.238 62.0248 135.375 65.0998 129.113C65.3248 128.625 65.8123 128.325 66.3373 128.325C66.8623 128.325 67.3498 128.625 67.5748 129.113C70.6498 135.375 76.8373 139.238 83.8123 139.238C90.7873 139.238 96.9748 135.375 100.05 129.113C100.275 128.625 100.762 128.325 101.287 128.325C101.812 128.325 102.3 128.625 102.525 129.113C105.6 135.375 111.787 139.238 118.762 139.238C121.875 139.238 124.875 138.45 127.537 136.95C117.412 130.8 109.612 123.038 104.212 113.888Z" fill="#A2D6FF"/>
</svg>
