<svg width="165" height="165" viewBox="0 0 165 165" fill="none" xmlns="http://www.w3.org/2000/svg">
<path d="M153.637 142.013C146.474 142.013 139.987 138.45 136.162 132.525C132.337 138.413 125.849 142.013 118.687 142.013C111.524 142.013 105.037 138.45 101.212 132.525C97.3867 138.413 90.8992 142.013 83.7367 142.013C76.5742 142.013 70.0867 138.45 66.2617 132.525C62.4367 138.413 55.9492 142.013 48.7867 142.013C41.6242 142.013 35.1367 138.45 31.3117 132.525C27.4867 138.413 20.9992 142.013 13.8367 142.013C13.0867 142.013 12.4492 141.375 12.4492 140.625C12.4492 139.875 13.0867 139.238 13.8367 139.238C20.7742 139.238 26.9992 135.375 30.0742 129.113C30.2992 128.625 30.7867 128.325 31.3117 128.325C31.8367 128.325 32.3242 128.625 32.5492 129.113C35.6242 135.338 41.8117 139.238 48.7867 139.238C55.7242 139.238 61.9492 135.375 65.0242 129.113C65.2492 128.625 65.7367 128.325 66.2617 128.325C66.7867 128.325 67.2742 128.625 67.4992 129.113C70.5742 135.338 76.7617 139.238 83.7367 139.238C90.6742 139.238 96.8992 135.375 99.9742 129.113C100.199 128.625 100.687 128.325 101.212 128.325C101.737 128.325 102.224 128.625 102.449 129.113C105.524 135.338 111.712 139.238 118.687 139.238C125.624 139.238 131.849 135.375 134.924 129.113C135.149 128.625 135.637 128.325 136.162 128.325C136.687 128.325 137.174 128.625 137.399 129.113C140.474 135.338 146.662 139.238 153.637 139.238C154.387 139.238 155.024 139.875 155.024 140.625C155.024 141.375 154.387 142.013 153.637 142.013Z" fill="#221F1F"/>
<path d="M31.3879 129.712C34.5379 136.162 41.1754 140.625 48.8629 140.625C56.5504 140.625 63.1504 136.162 66.3379 129.712C69.4879 136.162 76.1254 140.625 83.8129 140.625C91.5004 140.625 98.1004 136.162 101.288 129.712C104.438 136.162 111.075 140.625 118.763 140.625C122.738 140.625 126.413 139.425 129.488 137.4L129.675 136.65C83.3629 109.462 99.6754 59.925 99.6754 59.925L58.8754 42.1875L28.4629 75.4875L20.2129 115.575L23.8129 137.962C27.0379 136.012 29.7004 133.162 31.3879 129.712Z" fill="white"/>
<path d="M118.687 142.012C111.525 142.012 105.037 138.45 101.212 132.525C97.3873 138.412 90.8998 142.012 83.7373 142.012C76.5748 142.012 70.0873 138.45 66.2623 132.525C62.4373 138.412 55.9498 142.012 48.7873 142.012C41.6248 142.012 35.1373 138.45 31.3123 132.525C29.5498 135.225 27.2248 137.475 24.4123 139.125C24.0373 139.35 23.5498 139.387 23.1373 139.2C22.7248 139.012 22.4248 138.637 22.3498 138.187L18.7498 115.8C18.7123 115.65 18.7123 115.462 18.7498 115.312L26.9998 75.2249C27.0373 74.9999 27.1498 74.7374 27.3373 74.5874L57.7498 41.2874C58.1623 40.8374 58.7623 40.7249 59.3248 40.9499L100.087 58.6874C100.725 58.9874 101.062 59.6999 100.837 60.3749C100.8 60.4874 96.8623 72.7499 98.5498 88.0874C99.5248 97.0499 102.225 105.3 106.537 112.612C111.937 121.762 119.887 129.45 130.237 135.525C130.762 135.825 131.025 136.462 130.875 137.062L130.687 137.812C130.612 138.15 130.387 138.412 130.125 138.6C126.787 140.812 122.812 142.012 118.687 142.012ZM101.25 128.362C101.775 128.362 102.262 128.662 102.487 129.15C105.562 135.412 111.75 139.275 118.725 139.275C121.8 139.275 124.837 138.487 127.5 136.987C117.45 130.8 109.612 123.037 104.25 113.925C99.7498 106.275 96.9373 97.6124 95.9248 88.2749C94.4998 75.0374 97.0123 64.2374 97.9873 60.7124L59.2498 43.8749L29.6998 76.1249L21.5998 115.575L24.7873 135.562C27.0373 133.875 28.8748 131.662 30.1123 129.075C30.3373 128.587 30.8248 128.287 31.3498 128.287C31.8748 128.287 32.3623 128.587 32.5873 129.075C35.6623 135.337 41.8498 139.2 48.8248 139.2C55.7998 139.2 61.9873 135.337 65.0623 129.075C65.2873 128.587 65.7748 128.287 66.2998 128.287C66.8248 128.287 67.3123 128.587 67.5373 129.075C70.6123 135.337 76.7998 139.2 83.7748 139.2C90.7498 139.2 96.9373 135.337 100.012 129.075C100.237 128.662 100.725 128.362 101.25 128.362Z" fill="#221F1F"/>
<path d="M27.8998 134.7C12.4873 101.363 84.4123 99.525 84.9748 81.7875C85.3873 69.1125 40.5373 75.6 48.8248 60.675C60.2623 40.05 120.075 88.95 132.6 79.65C145.125 70.35 101.475 49.95 105.412 45.6375C109.35 41.325 133.087 53.1375 138.6 50.5125C147.75 46.125 141.6 37.0125 134.437 33.45L135.787 34.2C123.825 27.9375 110.25 24.375 95.8498 24.375C49.1623 24.375 11.3623 61.6875 11.3623 107.737C11.3623 119.25 13.7248 130.237 17.9998 140.212C21.8623 139.35 25.2748 137.4 27.8998 134.7Z" fill="white"/>
<path d="M17.9996 141.562C17.4746 141.562 16.9496 141.225 16.7246 140.737C12.2246 130.275 9.97461 119.175 9.97461 107.737C9.97461 85.0873 18.8996 63.8248 35.1371 47.8123C51.3371 31.7998 72.8996 22.9873 95.8496 22.9873C109.312 22.9873 122.662 26.1373 134.625 32.0998C134.775 32.1373 134.887 32.1748 135.037 32.2123C139.8 34.6123 144.6 39.5998 144.562 44.5123C144.525 46.6498 143.587 49.6498 139.2 51.7498C136.162 53.2123 129.787 51.3373 122.4 49.1623C116.812 47.5123 108.487 45.0748 106.612 46.4248C107.212 47.9623 112.8 52.0498 116.887 55.0498C125.962 61.6873 136.237 69.1873 136.275 75.5998C136.275 77.5873 135.337 79.3123 133.462 80.7373C127.35 85.2748 113.212 78.4498 96.8621 70.5373C77.6246 61.2748 55.8746 50.7748 50.0246 61.3123C49.1621 62.8873 48.9371 64.1623 49.4246 65.1748C50.9246 68.3623 58.9871 69.7873 66.1121 71.0248C76.1996 72.8248 86.5871 74.6623 86.3621 81.7873C86.0996 89.8123 74.3246 94.3873 60.6746 99.7123C47.2496 104.962 32.0246 110.887 28.0871 120.675C26.4746 124.687 26.8121 129.037 29.1371 134.062C29.3621 134.587 29.2871 135.187 28.8746 135.6C25.9871 138.6 22.3121 140.625 18.2996 141.487C18.1871 141.562 18.1121 141.562 17.9996 141.562ZM95.8496 25.7623C73.6496 25.7623 52.7621 34.2748 37.0871 49.7623C21.3746 65.2498 12.7496 85.8373 12.7496 107.737C12.7496 118.425 14.8121 128.775 18.8246 138.6C21.5996 137.812 24.1121 136.387 26.2496 134.4C23.9996 129.075 23.7371 124.162 25.5371 119.7C29.9246 108.825 45.7121 102.637 59.6621 97.1998C71.8496 92.4373 83.3996 87.9373 83.5871 81.7498C83.7371 76.9873 74.0996 75.2998 65.6246 73.7623C57.1121 72.2623 49.0871 70.8373 46.9496 66.3748C46.0871 64.5373 46.3121 62.3998 47.6246 59.9998C50.8871 54.1498 57.6746 52.7248 68.3621 55.6498C77.3246 58.0873 87.8246 63.1873 98.0246 68.0998C112.275 74.9998 127.012 82.0873 131.775 78.5623C132.937 77.6998 133.5 76.7623 133.5 75.6748C133.462 70.6498 122.925 62.9623 115.237 57.3373C107.887 51.9748 104.025 49.0498 103.8 46.5748C103.725 45.8998 103.95 45.2248 104.4 44.7373C106.875 41.9998 113.137 43.6123 123.15 46.5748C128.812 48.2623 135.9 50.3248 138 49.3498C140.512 48.1498 141.787 46.5373 141.825 44.5498C141.862 41.6248 139.125 37.9498 135.262 35.5498C135.225 35.5123 135.15 35.5123 135.112 35.4748C123.075 29.0998 109.537 25.7623 95.8496 25.7623Z" fill="#221F1F"/>
</svg>
