<svg width="140" height="140" viewBox="0 0 140 140" fill="none" xmlns="http://www.w3.org/2000/svg">
<path d="M26.4003 124.7C19.6003 124.7 13.0003 121.8 8.50032 116.7C3.90032 111.6 1.70032 104.8 2.50032 97.8998C3.70032 86.9998 12.4003 77.9998 23.3003 76.5998C17.0003 71.4998 12.9003 63.6998 12.9003 55.0998C12.9003 39.8998 25.3003 27.4998 40.5003 27.4998C42.4003 27.4998 44.2003 27.6998 46.0003 28.0998C51.8003 19.9998 61.0003 15.2998 71.2003 15.2998C83.8003 15.2998 95.2003 22.9998 100 34.4998C100.8 34.3998 101.6 34.3998 102.4 34.3998C115.7 34.3998 126.6 45.2998 126.6 58.5998C126.6 63.0998 125.4 67.4998 123 71.1998C131 75.6998 136.5 83.6998 137.5 92.9998C138.4 101.2 135.9 109.1 130.5 115.2C125.2 121.1 117.7 124.6 109.8 124.8C109.7 124.8 109.5 124.8 109.4 124.8H26.4003V124.7Z" fill="white"/>
<path fill-rule="evenodd" clip-rule="evenodd" d="M102.4 40.1997C100.2 40.1997 98.0004 40.5997 96.1004 41.3997C93.7004 29.7997 83.5004 21.1997 71.3004 21.1997C61.4004 21.1997 52.8004 26.8997 48.7004 35.1997C46.2004 34.1997 43.4004 33.5997 40.6004 33.5997C28.6004 33.5997 18.9004 43.2997 18.9004 55.2997C18.9004 67.2997 28.6004 76.9997 40.6004 76.9997C47.8004 76.9997 54.1004 73.4997 58.1004 68.0997C62.0004 70.4997 66.5004 71.8997 71.4004 71.8997C77.0004 71.8997 82.1004 70.0997 86.3004 67.0997C89.4004 72.9997 95.5004 76.9997 102.6 76.9997C112.7 76.9997 120.9 68.7997 120.9 58.6997C120.8 48.3997 112.5 40.1997 102.4 40.1997Z" fill="#E4E4E4"/>
<path d="M102.401 78.7999C95.5008 78.7999 89.2008 75.2999 85.5008 69.6999C81.2008 72.3999 76.3008 73.7999 71.2008 73.7999C66.7008 73.7999 62.3008 72.6999 58.4008 70.5999C53.9008 75.7999 47.4008 78.8999 40.4008 78.8999C27.4008 78.8999 16.8008 68.2999 16.8008 55.2999C16.8008 42.2999 27.4008 31.6999 40.4008 31.6999C42.9008 31.6999 45.3008 32.0999 47.7008 32.8999C52.6008 24.4999 61.4008 19.3999 71.2008 19.3999C83.4008 19.3999 94.1008 27.5999 97.4008 39.0999C99.1008 38.6999 100.701 38.4999 102.401 38.4999C113.501 38.4999 122.601 47.5999 122.601 58.6999C122.601 69.7999 113.501 78.7999 102.401 78.7999ZM86.1008 65.0999C86.2008 65.0999 86.4008 65.0999 86.5008 65.0999C87.0008 65.1999 87.5008 65.5999 87.7008 65.9999C90.6008 71.4999 96.2008 74.8999 102.401 74.8999C111.501 74.8999 118.901 67.4999 118.901 58.3999C118.901 49.2999 111.501 41.8999 102.401 41.8999C100.501 41.8999 98.6008 42.1999 96.7008 42.8999C96.2008 43.0999 95.6008 42.9999 95.2008 42.7999C94.7008 42.4999 94.4008 42.0999 94.3008 41.5999C92.0008 30.8999 82.3008 22.9999 71.2008 22.9999C62.3008 22.9999 54.2008 27.9999 50.2008 35.8999C49.8008 36.7999 48.7008 37.0999 47.9008 36.7999C45.5008 35.7999 43.0008 35.2999 40.4008 35.2999C29.4008 35.2999 20.5008 44.1999 20.5008 55.1999C20.5008 66.1999 29.4008 75.0999 40.4008 75.0999C46.7008 75.0999 52.7008 72.0999 56.4008 66.9999C57.0008 66.1999 58.0008 65.9999 58.9008 66.4999C62.6008 68.7999 66.9008 69.9999 71.2008 69.9999C76.2008 69.9999 81.0008 68.3999 85.0008 65.4999C85.3008 65.1999 85.7008 65.0999 86.1008 65.0999Z" fill="#221F1F"/>
<path d="M98.9004 74.6997C100 74.8997 101.2 75.0997 102.4 75.0997C111.5 75.0997 118.9 67.6997 118.9 58.5997C118.9 50.0997 112.4 42.9997 104.1 42.1997C107.4 45.9997 109.4 50.8997 109.4 56.2997C109.4 64.0997 105.2 70.8997 98.9004 74.6997Z" fill="#C4C4C4"/>
<path fill-rule="evenodd" clip-rule="evenodd" d="M131.8 93.5997C130.7 83.2997 122.4 74.8997 112.2 73.5997C107.6 72.9997 103.3 73.7997 99.5001 75.5997C97.4001 76.5997 94.8001 75.8997 93.7001 73.8997C88.5001 64.7997 78.7001 58.6997 67.5001 58.6997C53.5001 58.6997 41.7001 68.1997 38.3001 81.1997C37.7001 83.3997 35.4001 84.4997 33.4001 83.5997C30.6001 82.4997 27.5001 81.9997 24.2001 82.3997C15.9001 83.4997 9.3001 90.1997 8.4001 98.4997C7.2001 109.5 15.8001 118.8 26.6001 118.8H109.6C122.7 118.8 133.2 107.2 131.8 93.5997Z" fill="#E4E4E4"/>
<path d="M109.4 120.7H26.4004C20.7004 120.7 15.2004 118.3 11.4004 114C7.6004 109.8 5.8004 104.1 6.4004 98.2999C7.4004 89.1999 14.7004 81.6999 23.8004 80.5999C27.3004 80.1999 30.8004 80.5999 34.0004 81.8999C34.5004 82.0999 35.1004 82.0999 35.5004 81.8999C36.0004 81.6999 36.3004 81.2999 36.4004 80.6999C40.1004 66.6999 52.9004 56.8999 67.4004 56.8999C78.8004 56.8999 89.5004 63.0999 95.2004 72.9999C95.9004 74.0999 97.4004 74.5999 98.6004 73.8999C102.9 71.8999 107.6 71.0999 112.3 71.6999C123.4 73.0999 132.3 82.1999 133.6 93.2999C134.4 100.3 132.2 107.1 127.5 112.4C122.9 117.5 116.4 120.5 109.5 120.6C109.5 120.7 109.4 120.7 109.4 120.7ZM26.4004 84.1999C25.7004 84.1999 24.9004 84.1999 24.2004 84.2999C16.8004 85.2999 10.8004 91.2999 10.1004 98.7999C9.6004 103.5 11.1004 108.1 14.2004 111.6C17.3004 115.1 21.8004 117 26.4004 117H109.2C109.3 117 109.3 117 109.4 117C115.3 116.9 120.9 114.4 124.8 110C128.8 105.5 130.6 99.7999 129.9 93.7999C128.9 84.3999 121.3 76.5999 111.9 75.3999C107.9 74.8999 103.8 75.4999 100.2 77.2999C97.2004 78.6999 93.6004 77.6999 92.0004 74.8999C86.9004 66.0999 77.5004 60.5999 67.4004 60.5999C54.5004 60.5999 43.3004 69.2999 40.0004 81.6999C39.6004 83.1999 38.6004 84.4999 37.1004 85.1999C35.7004 85.8999 34.0004 85.9999 32.5004 85.3999C30.5004 84.5999 28.5004 84.1999 26.4004 84.1999Z" fill="#221F1F"/>
<path d="M124.8 110C128.8 105.5 130.6 99.8 129.9 93.8C129 85.9 123.5 79.1 116.2 76.5C118.4 80.5 119.7 85.1 119.7 90C119.7 103.7 109.6 115.1 96.5 117.1H109.2C109.3 117.1 109.3 117.1 109.4 117.1C115.2 117 120.9 114.4 124.8 110Z" fill="#C4C4C4"/>
</svg>
