<svg width="140" height="140" viewBox="0 0 140 140" fill="none" xmlns="http://www.w3.org/2000/svg">
<path d="M46.9009 136C41.1009 136 35.5009 133.5 31.6009 129.2C27.7009 124.9 25.8009 119 26.4009 113.2C27.4009 103.9 34.9009 96.2002 44.2009 95.0002C45.1009 94.9002 46.0009 94.8002 46.9009 94.8002C48.5009 94.8002 50.1009 95.0002 51.7009 95.4002C56.1009 83.6002 67.3009 75.7002 80.0009 75.7002C90.1009 75.7002 99.6009 80.8002 105.101 89.1002C107.901 88.0002 110.801 87.5002 113.801 87.5002C114.801 87.5002 115.901 87.6002 116.901 87.7002C127.801 89.1002 136.701 98.1002 137.901 109C138.701 115.9 136.501 122.6 131.901 127.8C127.401 132.8 121.101 135.8 114.401 135.9C114.301 135.9 114.101 135.9 114.001 135.9H46.9009V136Z" fill="white"/>
<path d="M66 105.7C45.3 105.7 28.5 88.9003 28.5 68.2003C28.5 47.5003 45.4 30.8003 66 30.8003C86.7 30.8003 103.5 47.6003 103.5 68.3003C103.5 89.0003 86.7 105.7 66 105.7Z" fill="white"/>
<path d="M66.0004 99.8001C83.4526 99.8001 97.6004 85.6523 97.6004 68.2001C97.6004 50.7479 83.4526 36.6001 66.0004 36.6001C48.5482 36.6001 34.4004 50.7479 34.4004 68.2001C34.4004 85.6523 48.5482 99.8001 66.0004 99.8001Z" fill="#EDD286"/>
<path d="M66 101.7C47.6 101.7 32.5 86.7002 32.5 68.2002C32.5 49.7002 47.5 34.7002 66 34.7002C84.4 34.7002 99.5 49.7002 99.5 68.2002C99.5 86.7002 84.5 101.7 66 101.7ZM66 38.5002C49.6 38.5002 36.2 51.8002 36.2 68.3002C36.2 84.8002 49.6 98.0002 66 98.0002C82.4 98.0002 95.8 84.7002 95.8 68.2002C95.8 51.7002 82.4 38.5002 66 38.5002Z" fill="#221F1F"/>
<path fill-rule="evenodd" clip-rule="evenodd" d="M75.3008 92.0002C56.5008 92.0002 41.3008 76.7002 41.3008 58.0002C41.3008 55.5002 41.6008 53.0002 42.1008 50.7002C38.5008 55.6002 36.3008 61.7002 36.3008 68.3002C36.3008 84.6002 49.6008 98.0002 66.0008 98.0002C73.7008 98.0002 80.7008 95.1002 86.0008 90.3002C82.6008 91.4002 79.1008 92.0002 75.3008 92.0002Z" fill="#D0B366"/>
<path d="M110.101 114.2C109.601 114.2 109.201 114 108.801 113.7L96.5006 101.4C95.8006 100.7 95.8006 99.4999 96.5006 98.7999C97.2006 98.0999 98.4006 98.0999 99.1006 98.7999L111.401 111.1C112.101 111.8 112.101 113 111.401 113.7C111.101 114 110.601 114.2 110.101 114.2Z" fill="#221F1F"/>
<path fill-rule="evenodd" clip-rule="evenodd" d="M132.1 109.7C131.2 101.4 124.5 94.6001 116.2 93.5001C112.5 93.0001 109 93.7001 105.9 95.1001C104.2 95.9001 102.1 95.4001 101.2 93.7001C97.0002 86.5001 89.1002 81.6001 80.0002 81.6001C68.7002 81.6001 59.2002 89.3001 56.4002 99.7001C55.9002 101.4 54.1002 102.4 52.4002 101.7C50.1002 100.8 47.6002 100.4 44.9002 100.8C38.2002 101.7 32.9002 107.1 32.2002 113.8C31.3002 122.7 38.2002 130.2 46.9002 130.2H114C124.7 130.1 133.3 120.7 132.1 109.7Z" fill="white"/>
<path d="M114 132H46.9003C42.2003 132 37.7003 130 34.5003 126.5C31.4003 123 29.8003 118.3 30.3003 113.6C31.1003 106.1 37.1003 99.9002 44.6003 98.9002C47.5003 98.5002 50.4003 98.9002 53.0003 100C53.3003 100.1 53.7003 100.1 53.9003 100C54.2003 99.9002 54.4003 99.6002 54.5003 99.3002C57.7003 87.8002 68.1003 79.7002 80.0003 79.7002C89.4003 79.7002 98.1003 84.8002 102.8 92.9002C103.2 93.7002 104.3 93.9002 105.1 93.5002C108.6 91.8002 112.5 91.2002 116.4 91.7002C125.5 92.9002 132.9 100.3 133.9 109.5C134.5 115.3 132.8 120.9 128.9 125.2C125.1 129.4 119.8 131.9 114.1 132H114ZM46.9003 102.5C46.3003 102.5 45.8003 102.5 45.2003 102.6C39.4003 103.4 34.7003 108.1 34.1003 114C33.7003 117.7 34.9003 121.3 37.3003 124.1C39.7003 126.8 43.3003 128.4 46.9003 128.4H113.8C113.9 128.4 113.9 128.4 114 128.4C118.7 128.4 123.1 126.3 126.2 122.9C129.3 119.4 130.8 114.8 130.3 110.1C129.5 102.6 123.5 96.5002 116 95.6002C112.8 95.2002 109.6 95.7002 106.8 97.1002C104.2 98.3002 101.1 97.4002 99.7003 95.0002C95.7003 88.0002 88.2003 83.7002 80.1003 83.7002C69.9003 83.7002 60.9003 90.6002 58.3003 100.5C57.9003 101.8 57.0003 103 55.8003 103.6C54.6003 104.2 53.1003 104.3 51.8003 103.7C50.2003 102.8 48.6003 102.5 46.9003 102.5Z" fill="#221F1F"/>
<path d="M130.2 109.9C129.4 102.7 123.7 96.7 116.6 95.5C119.1 98.9 120.7 103.1 120.7 107.7C120.7 118.8 112 127.8 101 128.3H113.8C113.9 128.3 113.9 128.3 114 128.3C118.7 128.3 123.1 126.2 126.2 122.8C129.3 119.2 130.7 114.7 130.2 109.9Z" fill="#E4E4E4"/>
<path d="M66.0006 24.5001C65.0006 24.5001 64.1006 23.7001 64.1006 22.6001V6.0001C64.1006 5.0001 64.9006 4.1001 66.0006 4.1001C67.1006 4.1001 67.9006 5.0001 67.9006 6.0001V22.7001C67.9006 23.7001 67.0006 24.5001 66.0006 24.5001Z" fill="#9E9E9E"/>
<path d="M20.5004 70.1003H3.80039C2.80039 70.1003 1.90039 69.3003 1.90039 68.2003C1.90039 67.1003 2.70039 66.3003 3.80039 66.3003H20.5004C21.5004 66.3003 22.4004 67.1003 22.4004 68.2003C22.4004 69.3003 21.5004 70.1003 20.5004 70.1003Z" fill="#9E9E9E"/>
<path d="M33.8008 37.9C33.3008 37.9 32.9008 37.7 32.5008 37.4L20.7008 25.5C20.0008 24.8 20.0008 23.6 20.7008 22.9C21.4008 22.2 22.6008 22.2 23.3008 22.9L35.1008 34.7C35.8008 35.4 35.8008 36.6 35.1008 37.3C34.8008 37.7 34.3008 37.9 33.8008 37.9Z" fill="#9E9E9E"/>
<path d="M98.2 37.9001C97.7 37.9001 97.3 37.7001 96.9 37.4001C96.2 36.7001 96.2 35.5001 96.9 34.8001L108.7 23.0001C109.4 22.3001 110.6 22.3001 111.3 23.0001C112 23.7001 112 24.9001 111.3 25.6001L99.5 37.3001C99.2 37.7001 98.7 37.9001 98.2 37.9001Z" fill="#9E9E9E"/>
<path d="M128.2 70.1003H111.5C110.5 70.1003 109.7 69.3003 109.7 68.2003C109.7 67.1003 110.5 66.3003 111.5 66.3003H128.2C129.2 66.3003 130 67.1003 130 68.2003C130 69.3003 129.3 70.1003 128.2 70.1003Z" fill="#9E9E9E"/>
</svg>
