<svg width="140" height="140" viewBox="0 0 140 140" fill="none" xmlns="http://www.w3.org/2000/svg">
<path d="M70 107.5C49.3 107.5 32.5 90.7 32.5 70C32.5 49.3 49.3 32.5 70 32.5C90.7 32.5 107.5 49.3 107.5 70C107.5 90.7 90.7 107.5 70 107.5Z" fill="white"/>
<path d="M70.0004 101.6C87.4526 101.6 101.6 87.4521 101.6 69.9999C101.6 52.5477 87.4526 38.3999 70.0004 38.3999C52.5482 38.3999 38.4004 52.5477 38.4004 69.9999C38.4004 87.4521 52.5482 101.6 70.0004 101.6Z" fill="#EDD286"/>
<path d="M70 103.5C51.6 103.5 36.5 88.5 36.5 70C36.5 51.5 51.5 36.5 70 36.5C88.4 36.5 103.5 51.5 103.5 70C103.5 88.5 88.4 103.5 70 103.5ZM70 40.2C53.6 40.2 40.2 53.5 40.2 70C40.2 86.5 53.6 99.8 70 99.8C86.4 99.8 99.8 86.5 99.8 70C99.8 53.5 86.4 40.2 70 40.2Z" fill="#221F1F"/>
<path fill-rule="evenodd" clip-rule="evenodd" d="M79.3008 93.8C60.5008 93.8 45.3008 78.5 45.3008 59.8C45.3008 57.3 45.6008 54.8 46.1008 52.5C42.5008 57.4 40.3008 63.5 40.3008 70.1C40.3008 86.5 53.6008 99.9 70.1008 99.9C77.8008 99.9 84.8008 97 90.1008 92.2C86.6008 93.1 83.0008 93.8 79.3008 93.8Z" fill="#D0B366"/>
<path d="M70.0006 26.2999C69.0006 26.2999 68.1006 25.4999 68.1006 24.3999V7.7999C68.1006 6.7999 68.9006 5.8999 70.0006 5.8999C71.1006 5.8999 71.9006 6.6999 71.9006 7.7999V24.4999C71.9006 25.4999 71.0006 26.2999 70.0006 26.2999Z" fill="#9E9E9E"/>
<path d="M70.0006 134.1C69.0006 134.1 68.1006 133.3 68.1006 132.3V115.6C68.1006 114.6 68.9006 113.8 70.0006 113.8C71.1006 113.8 71.9006 114.6 71.9006 115.6V132.3C71.9006 133.2 71.0006 134.1 70.0006 134.1Z" fill="#9E9E9E"/>
<path d="M37.8008 39.6998C37.3008 39.6998 36.9008 39.4998 36.5008 39.1998L24.7008 27.2998C24.0008 26.5998 24.0008 25.3998 24.7008 24.6998C25.4008 23.9998 26.6008 23.9998 27.3008 24.6998L39.1008 36.4998C39.8008 37.1998 39.8008 38.3998 39.1008 39.0998C38.7008 39.4998 38.3008 39.6998 37.8008 39.6998Z" fill="#9E9E9E"/>
<path d="M114 115.8C113.5 115.8 113.1 115.6 112.7 115.3L100.9 103.5C100.2 102.8 100.2 101.6 100.9 100.9C101.6 100.2 102.8 100.2 103.5 100.9L115.3 112.7C116 113.4 116 114.6 115.3 115.3C114.9 115.7 114.5 115.8 114 115.8Z" fill="#9E9E9E"/>
<path d="M24.5004 71.9001H7.80039C6.80039 71.9001 5.90039 71.1001 5.90039 70.0001C5.90039 68.9001 6.70039 68.1001 7.80039 68.1001H24.5004C25.5004 68.1001 26.4004 68.9001 26.4004 70.0001C26.4004 71.1001 25.5004 71.9001 24.5004 71.9001Z" fill="#9E9E9E"/>
<path d="M132.2 71.9001H115.5C114.5 71.9001 113.7 71.1001 113.7 70.0001C113.7 68.9001 114.5 68.1001 115.5 68.1001H132.2C133.2 68.1001 134 68.9001 134 70.0001C134 71.1001 133.2 71.9001 132.2 71.9001Z" fill="#9E9E9E"/>
<path d="M26.0008 115.8C25.5008 115.8 25.1008 115.6 24.7008 115.3C24.0008 114.6 24.0008 113.4 24.7008 112.7L36.5008 100.9C37.2008 100.2 38.4008 100.2 39.1008 100.9C39.8008 101.6 39.8008 102.8 39.1008 103.5L27.3008 115.3C27.0008 115.7 26.5008 115.8 26.0008 115.8Z" fill="#9E9E9E"/>
<path d="M102.2 39.6999C101.7 39.6999 101.3 39.4999 100.9 39.1999C100.2 38.4999 100.2 37.2999 100.9 36.5999L112.7 24.7999C113.4 24.0999 114.6 24.0999 115.3 24.7999C116 25.4999 116 26.6999 115.3 27.3999L103.5 39.1999C103.1 39.4999 102.7 39.6999 102.2 39.6999Z" fill="#9E9E9E"/>
</svg>
