<svg width="140" height="140" viewBox="0 0 140 140" fill="none" xmlns="http://www.w3.org/2000/svg">
<path d="M26.4003 78.8C19.6003 78.8 13.0003 75.9 8.50032 70.8C3.90032 65.7 1.70032 58.9 2.50032 52C3.70032 41.1 12.4003 32.1 23.3003 30.7C24.3003 30.6 25.4003 30.5 26.4003 30.5C28.7003 30.5 31.0003 30.8 33.2003 31.5C38.1003 17 51.8003 7 67.4003 7C79.8003 7 91.4003 13.5 98.0003 24C101.6 22.5 105.3 21.7 109.3 21.7C110.5 21.7 111.8 21.8 113 21.9C125.9 23.5 136.3 34.1 137.7 47.1C138.6 55.3 136.1 63.2 130.7 69.3C125.4 75.2 117.9 78.7 110 78.9C109.9 78.9 109.7 78.9 109.6 78.9H26.4003V78.8Z" fill="white"/>
<path fill-rule="evenodd" clip-rule="evenodd" d="M131.801 47.6998C130.701 37.3998 122.401 28.9998 112.201 27.6998C107.601 27.0998 103.301 27.8998 99.5008 29.6998C97.4008 30.6998 94.8008 29.9998 93.7008 27.9998C88.5008 18.8998 78.7008 12.7998 67.5008 12.7998C53.5008 12.7998 41.7008 22.2998 38.3008 35.2998C37.7008 37.4998 35.4008 38.5998 33.4008 37.6998C30.6008 36.5998 27.5008 36.0998 24.2008 36.4998C15.9008 37.5998 9.30077 44.2998 8.40077 52.5998C7.00077 63.6998 15.6008 72.9998 26.4008 72.9998H109.401C122.701 72.7998 133.201 61.2998 131.801 47.6998Z" fill="#E4E4E4"/>
<path d="M109.4 74.8H26.4004C20.7004 74.8 15.2004 72.4 11.4004 68.1C7.6004 63.9 5.8004 58.2 6.4004 52.4C7.4004 43.3 14.7004 35.8 23.8004 34.7C27.3004 34.2 30.8004 34.7 34.0004 36C34.5004 36.2 35.1004 36.2 35.5004 36C36.0004 35.8 36.3004 35.4 36.4004 34.8C40.1004 20.8 52.9004 11 67.4004 11C78.8004 11 89.5004 17.2 95.2004 27.1C95.9004 28.2 97.4004 28.7 98.6004 28C102.9 26 107.6 25.2 112.3 25.8C123.4 27.2 132.3 36.3 133.6 47.4C134.4 54.4 132.2 61.2 127.5 66.5C122.9 71.6 116.4 74.6 109.5 74.7C109.5 74.8 109.4 74.8 109.4 74.8ZM26.4004 38.3C25.7004 38.3 24.9004 38.3 24.2004 38.4C16.8004 39.4 10.8004 45.4 10.1004 52.9C9.6004 57.6 11.1004 62.2 14.2004 65.7C17.3004 69.2 21.8004 71.1 26.4004 71.1H109.2C109.3 71.1 109.3 71.1 109.4 71.1C115.3 71 120.9 68.5 124.8 64.1C128.8 59.6 130.6 53.9 129.9 47.9C128.9 38.5 121.3 30.7 111.9 29.5C107.9 29 103.8 29.6 100.2 31.4C97.2004 32.8 93.6004 31.8 92.0004 29C86.9004 20.2 77.5004 14.8 67.4004 14.8C54.5004 14.8 43.3004 23.5 40.0004 35.9C39.6004 37.4 38.6004 38.7 37.1004 39.4C35.6004 40 34.0004 40 32.5004 39.4C30.5004 38.7 28.5004 38.3 26.4004 38.3Z" fill="#221F1F"/>
<path d="M124.8 64.1001C128.8 59.6001 130.6 53.9001 129.9 47.9001C129 40.0001 123.5 33.2001 116.2 30.6001C118.4 34.6001 119.7 39.2001 119.7 44.1001C119.7 57.8001 109.6 69.2001 96.5 71.2001H109.2C109.3 71.2001 109.3 71.2001 109.4 71.2001C115.2 71.0001 120.9 68.5001 124.8 64.1001Z" fill="#C4C4C4"/>
<path d="M19.5006 102.6C19.2006 102.6 19.0006 102.5 18.7006 102.4C17.8006 102 17.4006 100.9 17.8006 99.9L25.0006 84.6C25.4006 83.7 26.5006 83.3 27.5006 83.7C28.4006 84.1 28.8006 85.2 28.4006 86.2L21.2006 101.6C20.8006 102.2 20.2006 102.6 19.5006 102.6Z" fill="#9E9E9E"/>
<path d="M21.8004 133C21.5004 133 21.3004 132.9 21.0004 132.8C20.1004 132.4 19.7004 131.3 20.1004 130.3L27.3004 115C27.7004 114.1 28.8004 113.7 29.8004 114.1C30.7004 114.5 31.1004 115.6 30.7004 116.6L23.5004 131.9C23.1004 132.6 22.5004 133 21.8004 133Z" fill="#9E9E9E"/>
<path d="M32.4 110.2C32.1 110.2 31.9 110.1 31.6 110C30.7 109.6 30.3 108.5 30.7 107.5L41.5 84.4999C41.9 83.5999 43 83.1999 44 83.5999C44.9 83.9999 45.3 85.0999 44.9 86.0999L34.1 109.1C33.8 109.8 33.1 110.2 32.4 110.2Z" fill="#9E9E9E"/>
<path d="M42.2008 124.8C41.9008 124.8 41.7008 124.7 41.4008 124.6C40.5008 124.2 40.1008 123.1 40.5008 122.1L58.1008 84.4999C58.5008 83.5999 59.6008 83.1999 60.6008 83.5999C61.5008 83.9999 61.9008 85.0999 61.5008 86.0999L43.9008 123.7C43.5008 124.4 42.9008 124.8 42.2008 124.8Z" fill="#9E9E9E"/>
<path d="M54.8004 133C54.5004 133 54.3004 132.9 54.0004 132.8C53.1004 132.4 52.7004 131.3 53.1004 130.3L67.4004 99.7001C67.8004 98.8001 68.9004 98.4001 69.9004 98.8001C70.8004 99.2001 71.2004 100.3 70.8004 101.3L56.5004 131.9C56.2004 132.6 55.5004 133 54.8004 133Z" fill="#9E9E9E"/>
<path d="M73.5006 93.1999C73.2006 93.1999 73.0006 93.0999 72.7006 92.9999C71.8006 92.5999 71.4006 91.4999 71.8006 90.4999L74.6006 84.4999C75.0006 83.5999 76.1006 83.1999 77.1006 83.5999C78.0006 83.9999 78.4006 85.0999 78.0006 86.0999L75.2006 92.0999C74.9006 92.7999 74.2006 93.1999 73.5006 93.1999Z" fill="#9E9E9E"/>
<path d="M75.5006 124.2C75.2006 124.2 75.0006 124.1 74.7006 124C73.8006 123.6 73.4006 122.5 73.8006 121.5L91.1006 84.6C91.5006 83.7 92.6006 83.3 93.6006 83.7C94.5006 84.1 94.9006 85.2 94.5006 86.2L77.2006 123.1C76.9006 123.8 76.2006 124.2 75.5006 124.2Z" fill="#9E9E9E"/>
<path d="M87.9 133C87.6 133 87.4 132.9 87.1 132.8C86.2 132.4 85.8 131.3 86.2 130.3L95 111.5C95.4 110.6 96.5 110.2 97.5 110.6C98.4 111 98.8 112.1 98.4 113.1L89.6 131.9C89.3 132.6 88.6 133 87.9 133Z" fill="#9E9E9E"/>
<path d="M101.3 104.4C101 104.4 100.8 104.3 100.5 104.2C99.6004 103.8 99.2004 102.7 99.6004 101.7L107.7 84.4999C108.1 83.5999 109.2 83.1999 110.2 83.5999C111.1 83.9999 111.5 85.0999 111.1 86.0999L103 103.3C102.7 104 102 104.4 101.3 104.4Z" fill="#9E9E9E"/>
</svg>
