<svg width="140" height="140" viewBox="0 0 140 140" fill="none" xmlns="http://www.w3.org/2000/svg">
<path d="M28.6 128.8C22 128.8 15.7 126 11.4 121.1C7.00002 116.2 4.90002 109.6 5.60002 103.1C6.70002 92.6 15.1 84 25.6 82.6C26.6 82.5 27.6 82.4 28.6 82.4C30.7 82.4 32.8 82.7 34.9 83.3C39.6 69.5 52.7 60 67.5 60C79.3 60 90.3 66.1 96.6 76C99.9 74.6 103.5 73.9 107.2 73.9C108.4 73.9 109.6 74 110.7 74.1C123.1 75.7 133.1 85.8 134.4 98.2C135.3 106 132.9 113.6 127.6 119.5C122.6 125.2 115.3 128.5 107.7 128.7C107.6 128.7 107.4 128.7 107.3 128.7H28.6V128.8Z" fill="white"/>
<path d="M70 97.8003C85.7401 97.8003 98.5 85.0404 98.5 69.3003C98.5 53.5602 85.7401 40.8003 70 40.8003C54.2599 40.8003 41.5 53.5602 41.5 69.3003C41.5 85.0404 54.2599 97.8003 70 97.8003Z" fill="#EDD286"/>
<path d="M70.0002 99.6C53.3002 99.6 39.7002 86 39.7002 69.3C39.7002 52.6 53.3002 39 70.0002 39C86.7002 39 100.3 52.6 100.3 69.3C100.3 86 86.7002 99.6 70.0002 99.6ZM70.0002 42.7C55.3002 42.7 43.4002 54.7 43.4002 69.3C43.4002 83.9 55.4002 95.9 70.0002 95.9C84.6002 95.9 96.6002 83.9 96.6002 69.3C96.6002 54.7 84.7002 42.7 70.0002 42.7Z" fill="#221F1F"/>
<path d="M70.0002 103.6C88.9436 103.6 104.3 88.2434 104.3 69.3C104.3 50.3566 88.9436 35 70.0002 35C51.0568 35 35.7002 50.3566 35.7002 69.3C35.7002 88.2434 51.0568 103.6 70.0002 103.6Z" fill="white"/>
<path d="M70 97.8003C85.7401 97.8003 98.5 85.0404 98.5 69.3003C98.5 53.5602 85.7401 40.8003 70 40.8003C54.2599 40.8003 41.5 53.5602 41.5 69.3003C41.5 85.0404 54.2599 97.8003 70 97.8003Z" fill="#EDD286"/>
<path d="M70.0002 99.6C53.3002 99.6 39.7002 86 39.7002 69.3C39.7002 52.6 53.3002 39 70.0002 39C86.7002 39 100.3 52.6 100.3 69.3C100.3 86 86.7002 99.6 70.0002 99.6ZM70.0002 42.7C55.3002 42.7 43.4002 54.7 43.4002 69.3C43.4002 84 55.4002 95.9 70.0002 95.9C84.6002 95.9 96.6002 83.9 96.6002 69.3C96.6002 54.6 84.7002 42.7 70.0002 42.7Z" fill="#221F1F"/>
<path fill-rule="evenodd" clip-rule="evenodd" d="M47.6998 60.0003C47.6998 57.9003 47.8998 55.8003 48.2998 53.8003C45.1998 58.2003 43.2998 63.5003 43.2998 69.3003C43.2998 84.0003 55.2998 95.9003 69.8998 95.9003C76.5998 95.9003 82.7998 93.4003 87.4998 89.2003C84.5998 90.1003 81.4998 90.6003 78.2998 90.6003C61.3998 90.7003 47.6998 76.9003 47.6998 60.0003Z" fill="#D0B366"/>
<path d="M69.9996 29.6002C68.9996 29.6002 68.0996 28.8002 68.0996 27.7002V13.1002C68.0996 12.1002 68.8996 11.2002 69.9996 11.2002C71.0996 11.2002 71.8996 12.0002 71.8996 13.1002V27.8002C71.7996 28.8002 70.9996 29.6002 69.9996 29.6002Z" fill="#9E9E9E"/>
<path d="M28.5004 71.1004H13.8004C12.8004 71.1004 11.9004 70.3004 11.9004 69.3004C11.9004 68.3004 12.7004 67.4004 13.8004 67.4004H28.5004C29.5004 67.4004 30.4004 68.2004 30.4004 69.3004C30.4004 70.4004 29.5004 71.1004 28.5004 71.1004Z" fill="#9E9E9E"/>
<path d="M40.6 41.8004C40.1 41.8004 39.7 41.6004 39.3 41.3004L28.9 30.9004C28.2 30.2004 28.2 29.0004 28.9 28.3004C29.6 27.6004 30.8 27.6004 31.5 28.3004L41.9 38.7004C42.6 39.4004 42.6 40.6004 41.9 41.3004C41.6 41.6004 41.1 41.8004 40.6 41.8004Z" fill="#9E9E9E"/>
<path d="M99.4002 41.8004C98.9002 41.8004 98.5002 41.6004 98.1002 41.3004C97.4002 40.6004 97.4002 39.4004 98.1002 38.7004L108.5 28.3004C109.2 27.6004 110.4 27.6004 111.1 28.3004C111.8 29.0004 111.8 30.2004 111.1 30.9004L100.7 41.3004C100.3 41.6004 99.8002 41.8004 99.4002 41.8004Z" fill="#9E9E9E"/>
<path d="M126.2 71.2004H111.5C110.5 71.2004 109.7 70.4004 109.7 69.3004C109.7 68.2004 110.5 67.4004 111.5 67.4004H126.2C127.2 67.4004 128 68.2004 128 69.3004C128 70.4004 127.2 71.2004 126.2 71.2004Z" fill="#9E9E9E"/>
<path fill-rule="evenodd" clip-rule="evenodd" d="M128.6 98.9003C127.5 89.1003 119.7 81.2003 110 79.9003C105.6 79.3003 101.5 80.1003 97.9 81.8003C95.9 82.8003 93.5 82.1003 92.4 80.2003C87.4 71.6003 78.2 65.8003 67.5 65.8003C54.2 65.8003 43 74.8003 39.8 87.1003C39.3 89.2003 37.1 90.2003 35.1 89.4003C32.4 88.3003 29.5 87.9003 26.3 88.3003C18.5 89.3003 12.2 95.7003 11.4 103.6C10.3 114 18.4 122.8 28.6 122.8H107.3C120 122.8 130 111.9 128.6 98.9003Z" fill="white"/>
<path d="M107.3 124.8H28.6004C23.2004 124.8 18.0004 122.5 14.3004 118.4C10.7004 114.4 8.90042 108.9 9.50042 103.5C10.4004 94.8 17.4004 87.7 26.0004 86.6C29.3004 86.2 32.7004 86.6 35.7004 87.8C36.2004 88 36.6004 88 37.1004 87.8C37.5004 87.6 37.8004 87.2 37.9004 86.8C41.5004 73.4 53.7004 64 67.5004 64C78.4004 64 88.5004 69.9 94.0004 79.3C94.6004 80.3 96.0004 80.7 97.1004 80.2C101.2 78.3 105.7 77.5 110.2 78.1C120.8 79.4 129.3 88.1 130.4 98.7C131.1 105.4 129.1 111.9 124.6 116.9C120.3 121.8 114 124.6 107.5 124.8C107.5 124.8 107.4 124.8 107.3 124.8ZM28.6004 90.1C27.9004 90.1 27.2004 90.1 26.5004 90.2C19.5004 91.1 13.9004 96.8 13.2004 103.8C12.7004 108.3 14.1004 112.6 17.1004 115.9C20.0004 119.2 24.2004 121 28.6004 121H107.1C107.2 121 107.2 121 107.3 121C112.9 121 118.2 118.5 121.9 114.4C125.6 110.2 127.4 104.8 126.8 99.1C125.8 90.2 118.7 82.9 109.8 81.8C106 81.3 102.2 81.9 98.8004 83.6C95.9004 85 92.4004 84 90.9004 81.3C86.0004 72.9 77.0004 67.7 67.5004 67.7C55.3004 67.7 44.7004 75.9 41.6004 87.6C41.2004 89.1 40.2004 90.3 38.8004 91C37.4004 91.7 35.8004 91.7 34.4004 91.2C32.5004 90.5 30.6004 90.1 28.6004 90.1Z" fill="#221F1F"/>
<path d="M126.7 99.1C126.1 93.3 122.8 88.2 118.2 85C119.1 87.8 119.7 90.7 119.7 93.8C119.7 107.6 109.5 118.9 96.2998 120.9H108.7C113.7 120.5 118.5 118.2 121.9 114.4C125.6 110.2 127.4 104.8 126.7 99.1Z" fill="#E4E4E4"/>
</svg>
