<svg width="220" height="220" viewBox="0 0 220 220" fill="none" xmlns="http://www.w3.org/2000/svg">
<path d="M126 207.4C125 207.4 124.1 207.2 123.2 206.7C98.4998 193.2 67.7998 171 59.4998 141H21.5998C18.3998 141 15.7998 138.4 15.7998 135.1V31.4C15.7998 28.2 18.3998 25.5 21.5998 25.5H34.5998V23C34.5998 17.2 39.2998 12.5 45.0998 12.5C50.8998 12.5 55.5998 17.2 55.5998 23V25.5H71.8998V23C71.8998 17.2 76.5998 12.5 82.3998 12.5C88.1998 12.5 92.8998 17.2 92.8998 23V25.5H109.2V23C109.2 17.2 113.9 12.5 119.7 12.5C125.5 12.5 130.2 17.2 130.2 23V25.5H143.2C146.4 25.5 149 28.1 149 31.4V84C150.9 83.7 152.9 83.5 154.9 83.5C160.8 83.5 166.8 85 172.2 87.9C181.6 92.9 188.7 101.4 192.2 111.9C195.8 122.6 195.3 134.4 190.9 146.2L201.9 154.2C203.7 155.5 204.6 157.7 204.2 159.8C203.9 162 202.3 163.8 200.2 164.5L159.9 177.6C159.3 177.8 158.7 177.9 158.1 177.9C156.9 177.9 155.7 177.5 154.7 176.8C153.2 175.7 152.3 173.9 152.3 172.1L152.2 129.7C152.2 127.5 153.4 125.5 155.4 124.5C156.2 124.1 157.1 123.9 158.1 123.9C159.3 123.9 160.5 124.3 161.5 125L169 130.4C169.5 126.5 169.2 123.4 168.6 121.3C166.8 114.1 161.1 109 155 109C153 109 151 109.6 149.1 110.9V135.3C149.1 138.5 146.5 141.2 143.3 141.2H86.4998C87.2998 142.8 88.1998 144.4 89.1998 146C96.1998 157.2 108.9 168.7 125.9 179.1C130.3 176.4 134.5 173.6 138.3 170.7C139.3 169.9 140.5 169.5 141.8 169.5C143.3 169.5 144.7 170 145.8 171L156 180.4C157.3 181.6 158 183.2 157.9 185C157.8 186.7 157 188.3 155.6 189.4C147.7 195.4 138.7 201.2 128.7 206.7C127.9 207.2 126.9 207.4 126 207.4ZM71.6998 141.1C76.5998 155.4 90.3998 174.9 125.9 194.9C132 191.5 137.7 187.9 142.9 184.3L141.4 182.9C137.5 185.6 133.3 188.3 128.9 190.9C128 191.4 127 191.7 125.9 191.7C124.8 191.7 123.8 191.4 122.9 190.9C102.8 179 87.6998 165.6 79.1998 152.1C76.8998 148.4 75.0998 144.7 73.6998 141H71.6998V141.1ZM163.9 164L185.7 156.9L180.3 153C178 151.4 177.3 148.4 178.4 145.8C186 129.3 184.4 107.6 166.8 98.2C163.1 96.2 158.9 95.2 154.9 95.2C152.9 95.2 151 95.4 149.1 95.9V98C151 97.4 153 97.2 155 97.2C166.3 97.2 176.8 106.1 179.9 118.4C181.2 123.5 181.9 131.8 177.8 142.2C177.1 143.9 175.8 145.2 174 145.7C173.5 145.9 172.9 145.9 172.4 145.9C171.2 145.9 170 145.5 169 144.8L164 141.1L163.9 164ZM137.3 129.4V125.4C134.9 127.5 132 128.9 128.8 129.4H137.3ZM123.2 129.4C118.3 128.6 114 125.7 111.4 121.4L109.3 118C106.8 113.9 102.7 109 97.0998 109C91.0998 109 85.3998 114.2 83.4998 121.3C82.8998 123.8 82.6998 126.5 82.9998 129.4H123.2ZM71.1998 129.4C70.8998 125.6 71.1998 121.9 72.0998 118.4C75.1998 106.1 85.6998 97.2 96.9998 97.2C103.1 97.2 111.9 99.7 119.2 111.8L121.3 115.2C122.3 116.8 124 117.8 125.9 117.8C127.8 117.8 129.5 116.8 130.5 115.2L132.6 111.8C134 109.5 135.6 107.4 137.2 105.6V102.7C134.9 104.9 132.8 107.6 130.9 110.8C129.8 112.5 127.9 113.6 125.9 113.6C123.9 113.6 121.9 112.5 120.9 110.8C114.8 100.7 106.4 95.2 97.0998 95.2C95.4998 95.2 93.8998 95.4 92.2998 95.7C80.5998 98 71.4998 108.3 69.4998 121.2C69.1998 123.1 68.9998 125.9 69.1998 129.4H71.1998ZM57.4998 129.4C57.2998 126 57.3998 122.7 57.8998 119.5C60.5998 101.7 73.4998 87.6 89.9998 84.3C92.2998 83.8 94.6998 83.6 96.9998 83.6C108 83.6 118.1 88.6 125.9 97.9C129.3 93.9 133.1 90.7 137.2 88.4V37.4H130.1V41.1C130.1 46.9 125.4 51.6 119.6 51.6C113.8 51.6 109.1 46.9 109.1 41.1V37.4H92.8998V41.1C92.8998 46.9 88.1998 51.6 82.3998 51.6C76.5998 51.6 71.8998 46.9 71.8998 41.1V37.4H55.5998V41.1C55.5998 46.9 50.8998 51.6 45.0998 51.6C39.2998 51.6 34.5998 46.9 34.5998 41.1V37.4H27.4998V129.5H57.4998V129.4Z" fill="white"/>
<path d="M143.1 31.4H21.5996V135.2H143.1V31.4Z" fill="white"/>
<path d="M53.8994 135.2H72.1994L74.0994 117.2L67.3994 105C63.7994 109.9 57.3994 117.9 53.8994 135.2Z" fill="#C4C4C4"/>
<path d="M143.1 137.1H21.5998C20.5998 137.1 19.7998 136.3 19.7998 135.2V31.4C19.7998 30.4 20.5998 29.5 21.5998 29.5H143.1C144.1 29.5 144.9 30.3 144.9 31.4V135.2C145 136.2 144.1 137.1 143.1 137.1ZM23.4998 133.4H141.3V33.3H23.4998V133.4Z" fill="#221F1F"/>
<path d="M76.3994 107.7C76.3994 107.7 95.8994 103 116.999 122.2L122.299 113.6L104.299 93.9L90.3994 92.6L76.3994 107.7Z" fill="#C4C4C4"/>
<path d="M183.6 148.2C205.4 100.7 150.9 66.6 125.9 107.7C92.0998 51.8 3.59978 134.8 125.9 201.5C136 196 144.7 190.4 152.1 184.7L141.9 175.3C137.1 178.9 131.7 182.4 126 185.8C106.6 174.4 92.2998 161.7 84.2998 149C76.0998 136 76.2998 125.9 77.7998 119.8C80.2998 110.1 88.3998 103.1 96.9998 103.1C103.6 103.1 109.5 107.2 114.2 114.9L116.3 118.3C120.7 125.5 131.2 125.5 135.6 118.3L137.7 114.9C142.4 107.2 148.3 103.1 154.9 103.1C163.6 103.1 171.7 110.1 174.1 119.8C175.3 124.4 175.7 131.3 172.2 140L157.8 129.6L157.9 172L198.2 158.9L183.6 148.2Z" fill="#F0AA97"/>
<path d="M56.5998 63H39.7998V79.8H56.5998V63Z" fill="white"/>
<path d="M56.5994 81.6H39.7994C38.7994 81.6 37.8994 80.8 37.8994 79.7V63C37.8994 62 38.6994 61.1 39.7994 61.1H56.5994C57.5994 61.1 58.4994 61.9 58.4994 63V79.8C58.3994 80.8 57.5994 81.6 56.5994 81.6ZM41.5994 77.9H54.6994V64.8H41.5994V77.9Z" fill="#221F1F"/>
<path d="M91.0002 63H74.2002V79.8H91.0002V63Z" fill="white"/>
<path d="M90.9998 81.6H74.1998C73.1998 81.6 72.2998 80.8 72.2998 79.7V63C72.2998 62 73.0998 61.1 74.1998 61.1H90.9998C91.9998 61.1 92.8998 61.9 92.8998 63V79.8C92.8998 80.8 91.9998 81.6 90.9998 81.6ZM76.0998 77.9H89.1998V64.8H76.0998V77.9Z" fill="#221F1F"/>
<path d="M125 63H108.2V79.8H125V63Z" fill="white"/>
<path d="M125 81.6H108.2C107.2 81.6 106.3 80.8 106.3 79.7V63C106.3 62 107.1 61.1 108.2 61.1H125C126 61.1 126.8 61.9 126.8 63V79.8C126.9 80.8 126 81.6 125 81.6ZM110.1 77.9H123.2V64.8H110.1V77.9Z" fill="#221F1F"/>
<path d="M56.5998 94.8H39.7998V111.6H56.5998V94.8Z" fill="white"/>
<path d="M56.5994 113.5H39.7994C38.7994 113.5 37.8994 112.7 37.8994 111.7V94.8C37.8994 93.8 38.6994 93 39.7994 93H56.5994C57.5994 93 58.4994 93.8 58.4994 94.8V111.6C58.3994 112.6 57.5994 113.5 56.5994 113.5ZM41.5994 109.8H54.6994V96.7H41.5994V109.8Z" fill="#221F1F"/>
<path d="M45.1 45.6C42.5 45.6 40.5 43.5 40.5 41V23.1C40.5 20.5 42.6 18.5 45.1 18.5C47.7 18.5 49.7 20.6 49.7 23.1V41C49.7 43.5 47.7 45.6 45.1 45.6Z" fill="#FCD26E"/>
<path d="M45.0996 47.4C41.4996 47.4 38.5996 44.5 38.5996 40.9V23.1C38.5996 19.5 41.4996 16.6 45.0996 16.6C48.6996 16.6 51.5996 19.5 51.5996 23.1V41C51.5996 44.5 48.6996 47.4 45.0996 47.4ZM45.0996 20.3C43.5996 20.3 42.2996 21.6 42.2996 23.1V41C42.2996 42.5 43.5996 43.8 45.0996 43.8C46.5996 43.8 47.8996 42.5 47.8996 41V23.1C47.8996 21.5 46.5996 20.3 45.0996 20.3Z" fill="#221F1F"/>
<path d="M82.3998 45.6C79.7998 45.6 77.7998 43.5 77.7998 41V23.1C77.7998 20.5 79.8998 18.5 82.3998 18.5C84.9998 18.5 86.9998 20.6 86.9998 23.1V41C86.9998 43.5 84.8998 45.6 82.3998 45.6Z" fill="#FCD26E"/>
<path d="M82.3994 47.4C78.7994 47.4 75.8994 44.5 75.8994 40.9V23.1C75.8994 19.5 78.7994 16.6 82.3994 16.6C85.9994 16.6 88.8994 19.5 88.8994 23.1V41C88.8994 44.5 85.9994 47.4 82.3994 47.4ZM82.3994 20.3C80.8994 20.3 79.5994 21.6 79.5994 23.1V41C79.5994 42.5 80.8994 43.8 82.3994 43.8C83.8994 43.8 85.1994 42.5 85.1994 41V23.1C85.1994 21.5 83.8994 20.3 82.3994 20.3Z" fill="#221F1F"/>
<path d="M119.7 45.6C117.1 45.6 115.1 43.5 115.1 41V23.1C115.1 20.5 117.2 18.5 119.7 18.5C122.3 18.5 124.3 20.6 124.3 23.1V41C124.3 43.5 122.2 45.6 119.7 45.6Z" fill="#FCD26E"/>
<path d="M119.7 47.4C116.1 47.4 113.2 44.5 113.2 40.9V23.1C113.2 19.5 116.1 16.6 119.7 16.6C123.3 16.6 126.2 19.5 126.2 23.1V41C126.2 44.5 123.2 47.4 119.7 47.4ZM119.7 20.3C118.2 20.3 116.9 21.6 116.9 23.1V41C116.9 42.5 118.2 43.8 119.7 43.8C121.2 43.8 122.5 42.5 122.5 41V23.1C122.5 21.5 121.2 20.3 119.7 20.3Z" fill="#221F1F"/>
<path d="M36.4995 180.1C35.9995 180.1 35.4995 179.9 35.0995 179.5C26.3995 169.7 28.2995 163.4 29.4995 161.1C31.0995 158.1 34.2995 156.5 37.4995 157C39.8995 157.4 41.8995 158.8 42.9995 161C45.2995 160.1 47.6995 160.2 49.7995 161.6C52.4995 163.4 53.8995 166.8 53.0995 170C52.4995 172.5 49.7995 178.5 36.6995 180.1C36.5995 180.1 36.5995 180.1 36.4995 180.1ZM36.3995 160.6C34.8995 160.6 33.4995 161.5 32.6995 162.9C30.9995 166 32.6995 171 37.1995 176.3C44.0995 175.3 48.5995 172.6 49.3995 169.2C49.7995 167.4 49.0995 165.6 47.6995 164.7C46.2995 163.8 44.5995 164 42.9995 165.2C42.4995 165.6 41.7995 165.7 41.1995 165.5C40.5995 165.3 40.1995 164.8 39.9995 164.1C39.5995 162.1 38.3995 160.9 36.7995 160.6C36.7995 160.6 36.5995 160.6 36.3995 160.6Z" fill="#9E9E9E"/>
<path d="M158.1 24.3C160.033 24.3 161.6 22.733 161.6 20.8C161.6 18.8671 160.033 17.3 158.1 17.3C156.167 17.3 154.6 18.8671 154.6 20.8C154.6 22.733 156.167 24.3 158.1 24.3Z" fill="#9E9E9E"/>
<path d="M63.2998 195.8C66.6135 195.8 69.2998 193.114 69.2998 189.8C69.2998 186.486 66.6135 183.8 63.2998 183.8C59.9861 183.8 57.2998 186.486 57.2998 189.8C57.2998 193.114 59.9861 195.8 63.2998 195.8Z" fill="#9E9E9E"/>
<path d="M160.099 131.6L157.899 134L157.999 172L180.799 164.7C161.599 163.4 160.099 131.6 160.099 131.6Z" fill="#D88C7D"/>
<path d="M126 203.4C125.7 203.4 125.4 203.3 125.1 203.2C61.8998 168.7 59.8998 133.5 61.8998 120C64.3998 103.9 75.9998 91.1 90.7998 88.1C104.2 85.4 117.1 91.5 125.9 104.3C131.4 96.3 138.4 90.9 146.3 88.6C154.2 86.4 162.7 87.3 170.2 91.3C186.5 99.9 196.8 121.9 185.8 147.5L199.3 157.3C199.9 157.7 200.2 158.4 200 159.1C199.9 159.8 199.4 160.4 198.7 160.6L158.4 173.7C157.8 173.9 157.2 173.8 156.7 173.4C156.2 173.1 155.9 172.5 155.9 171.9L155.8 129.5C155.8 128.8 156.2 128.2 156.8 127.8C157.4 127.5 158.2 127.5 158.7 127.9L171.1 136.8C173.5 129.4 173 123.6 172.1 120C169.8 111.1 162.5 104.6 154.7 104.6C148.8 104.6 143.4 108.4 139.1 115.5L137 118.9C134.6 122.9 130.4 125.2 125.8 125.2C121.2 125.2 117 122.8 114.6 118.9L112.5 115.5C108.2 108.4 102.8 104.6 96.8998 104.6C89.0998 104.6 81.6998 111.1 79.4998 120C77.9998 125.8 77.8998 135.3 85.6998 147.8C93.3998 160 107.2 172.4 125.8 183.5C131.1 180.3 136.1 177 140.6 173.7C141.3 173.2 142.3 173.2 143 173.8L153.2 183.2C153.6 183.6 153.8 184.1 153.8 184.6C153.8 185.1 153.5 185.7 153.1 186C145.4 191.9 136.5 197.6 126.7 203C126.6 203.4 126.3 203.4 126 203.4ZM97.1998 91.2C95.3998 91.2 93.4998 91.4 91.5998 91.8C78.2998 94.5 67.8998 106 65.5998 120.6C63.6998 133.3 65.6998 166.3 126 199.5C134.6 194.8 142.4 189.8 149.3 184.7L141.8 177.8C137.2 181.1 132.2 184.4 127 187.5C126.4 187.8 125.7 187.8 125.1 187.5C105.5 175.9 90.8998 163 82.7998 150.1C74.2998 136.5 74.4998 125.9 76.0998 119.5C78.7998 109 87.5998 101.4 97.0998 101.4C104.4 101.4 110.9 105.8 115.9 114.1L118 117.5C119.7 120.3 122.7 122 126 122C129.3 122 132.3 120.3 134 117.5L136.1 114.1C141.1 105.8 147.6 101.4 154.9 101.4C164.4 101.4 173.2 109 175.9 119.5C177.1 124 177.7 131.4 174 140.8C173.8 141.3 173.3 141.7 172.8 141.9C172.3 142.1 171.7 142 171.2 141.6L159.8 133.3L159.9 169.5L194.4 158.3L182.6 149.8C181.9 149.3 181.6 148.3 182 147.5C190.4 129.2 188.5 105.3 168.6 94.7C157.2 88.7 139.7 88.7 127.6 108.7C127.3 109.3 126.7 109.6 126 109.6C125.4 109.6 124.8 109.3 124.4 108.7C117.5 97.4 107.8 91.2 97.1998 91.2Z" fill="#221F1F"/>
<path d="M184.599 64.9C184.499 64.9 184.399 64.9 184.399 64.9C166.599 62.7 162.899 54.7 162.099 51.3C161.099 47 162.799 42.6 166.399 40.3C169.299 38.4 172.699 38.3 175.799 39.8C177.199 36.5 179.799 34.4 183.199 33.9C187.399 33.3 191.599 35.5 193.699 39.3C195.299 42.3 197.899 50.8 185.899 64.2C185.699 64.7 185.199 64.9 184.599 64.9ZM171.399 42.5C170.299 42.5 169.299 42.8 168.399 43.4C166.099 44.9 164.999 47.7 165.699 50.5C166.299 53 169.199 59.1 183.899 61.1C193.599 49.9 191.799 43.4 190.499 41.1C189.099 38.6 186.399 37.2 183.799 37.6C181.199 38 179.399 40 178.699 43C178.599 43.6 178.099 44.1 177.499 44.4C176.899 44.6 176.199 44.5 175.699 44.1C174.399 43.1 172.899 42.5 171.399 42.5Z" fill="#9E9E9E"/>
</svg>
