<svg width="178" height="178" viewBox="0 0 178 178" fill="none" xmlns="http://www.w3.org/2000/svg">
<path d="M78.6005 151.5C74.9005 151.5 71.3005 150.8 68.1005 149.4C50.8005 142 44.8005 122.3 52.1005 96.5002C52.7005 94.5002 54.0005 92.8002 55.9005 91.9002C55.1005 90.0002 55.0005 87.9002 55.8005 86.0002C56.6005 84.0002 57.5005 82.1002 58.3005 80.4002C62.4005 71.8002 67.8005 63.3002 74.3005 55.4002C75.4005 54.1002 76.9005 53.1002 78.6005 52.8002C78.7005 51.1002 79.4005 49.5002 80.6005 48.2002C91.1005 36.9002 111.6 20.2002 122.1 20.2002C123.5 20.2002 124.7 20.4002 125.9 20.9002C129 22.2002 132.7 25.6002 134.2 40.5002C135.2 49.9002 134.9 61.0002 133.5 71.5002C133.3 73.3002 132.4 75.0002 131 76.1002C131.9 77.6002 132.2 79.5002 131.8 81.3002C130 90.1002 127.4 98.6002 124.1 106.6C121 114 117.7 120.7 114.3 126.4C113.6 127.6 112.5 128.6 111.2 129.2C111.1 130.6 110.6 132 109.8 133.1C101.5 144.9 90.1005 151.5 78.6005 151.5ZM64.6005 109.2C61.7005 126.3 67.9005 133 74.0005 135.6C75.4005 136.2 77.0005 136.5 78.7005 136.5C82.9005 136.5 87.4005 134.7 91.5005 131.3L88.6005 129.9C85.5005 128.4 83.8005 125 84.5005 121.6C85.2005 118.2 88.1005 115.7 91.6005 115.6L103.7 115.2C106 110.9 108.3 106.1 110.5 100.9C112.6 95.9002 114.3 90.7002 115.7 85.3002L110 84.0002C106.9 83.2002 104.6 80.5002 104.4 77.3002C104.1 74.1002 106 71.1002 108.9 69.8002L119.1 65.4002C120.4 52.4002 119.5 42.3002 118.5 36.9002C113.4 39.6002 104.4 45.4002 94.5005 55.3002L97.9005 66.0002C98.9005 69.1002 97.7005 72.5002 95.1005 74.4002C93.8005 75.3002 92.3005 75.8002 90.8005 75.8002C89.2005 75.8002 87.6005 75.3002 86.3005 74.3002L81.6005 70.7002C77.8005 76.0002 74.5005 81.4002 71.9005 87.0002C71.7005 87.5002 71.5005 87.9002 71.3005 88.4002L79.1005 100.7C80.9005 103.5 80.6005 107.1 78.4005 109.6C77.0005 111.2 74.9005 112.2 72.7005 112.2C71.6005 112.2 70.6005 112 69.6005 111.5L64.6005 109.2Z" fill="white"/>
<path d="M153.7 49.7002L97.1002 17.0002C92.1002 14.1002 85.8002 14.1002 80.8002 17.0002L24.3002 49.7002C19.3002 52.6002 16.2002 58.0002 16.2002 63.8002V129C16.2002 134.8 19.3002 140.2 24.3002 143.1L80.8002 175.7C83.3002 177.1 86.1002 177.9 88.9002 177.9C91.8002 177.9 94.6002 177.1 97.0002 175.7L153.5 143.1C158.5 140.2 161.6 134.8 161.6 129V63.7002C161.8 57.9002 158.7 52.5002 153.7 49.7002ZM146.8 63.7002V129C146.8 129.4 146.6 129.9 146.2 130.1L89.7002 162.7C89.3002 162.9 88.8002 162.9 88.4002 162.7L31.9002 130.1C31.5002 129.9 31.3002 129.4 31.3002 129V63.7002C31.3002 63.3002 31.5002 62.8002 31.9002 62.6002L88.4002 30.0002C88.6002 29.9002 88.9002 29.8002 89.0002 29.8002C89.2002 29.8002 89.4002 29.8002 89.6002 30.0002L146.1 62.6002C146.5 62.9002 146.8 63.3002 146.8 63.7002Z" fill="white"/>
<path d="M84.6002 23.5003L28.1002 56.1003C25.4002 57.7003 23.7002 60.6003 23.7002 63.7003V129C23.7002 132.1 25.4002 135 28.1002 136.6L84.6002 169.2C87.3002 170.8 90.7002 170.8 93.4002 169.2L149.9 136.6C152.6 135 154.3 132.1 154.3 129V63.7003C154.3 60.6003 152.6 57.7003 149.9 56.1003L93.4002 23.5003C90.7002 21.9003 87.3002 21.9003 84.6002 23.5003Z" fill="#E2DBBC"/>
<path d="M89.0002 165.4C88.3002 165.4 87.7002 165.2 87.1002 164.9L30.6002 132.3C29.4002 131.6 28.7002 130.4 28.7002 129V63.7003C28.7002 62.4003 29.4002 61.1003 30.6002 60.4003L87.1002 27.8003C87.7002 27.5003 88.3002 27.3003 89.0002 27.3003C89.7002 27.3003 90.3002 27.5003 90.9002 27.8003L147.4 60.4003C148.6 61.1003 149.3 62.3003 149.3 63.7003V129C149.3 130.3 148.6 131.6 147.4 132.3L90.9002 164.9C90.3002 165.2 89.7002 165.4 89.0002 165.4Z" fill="url(#paint0_linear_4242_3786)"/>
<path d="M89.0002 162.4C88.9002 162.4 88.7002 162.4 88.6002 162.3L32.1002 129.7C31.9002 129.6 31.7002 129.3 31.7002 129V63.7003C31.7002 63.4003 31.8002 63.2003 32.1002 63.0003L88.6002 30.4003C88.7002 30.3003 88.8002 30.3003 89.0002 30.3003C89.1002 30.3003 89.3002 30.3003 89.4002 30.4003L145.9 63.0003C146.1 63.1003 146.3 63.4003 146.3 63.7003V129C146.3 129.3 146.2 129.5 145.9 129.7L89.4002 162.3C89.3002 162.4 89.1002 162.4 89.0002 162.4Z" fill="url(#paint1_linear_4242_3786)"/>
<path d="M149.9 56.1003L93.4002 23.5003C90.7002 21.9003 87.3002 21.9003 84.6002 23.5003L28.1002 56.1003C25.4002 57.7003 23.7002 60.6003 23.7002 63.7003V69.2003C23.7002 66.1003 25.4002 63.2003 28.1002 61.6003L84.6002 29.0003C87.3002 27.4003 90.7002 27.4003 93.4002 29.0003L149.9 61.6003C152.6 63.2003 154.3 66.1003 154.3 69.2003V63.7003C154.3 60.6003 152.6 57.7003 149.9 56.1003Z" fill="white"/>
<path d="M88.9998 171.9C87.1998 171.9 85.4998 171.4 83.8998 170.5L27.3998 137.9C24.1998 136.1 22.2998 132.7 22.2998 129V63.7001C22.2998 60.0001 24.2998 56.6001 27.3998 54.8001L83.8998 22.2001C87.0998 20.4001 90.9998 20.4001 94.1998 22.2001L150.7 54.8001C153.9 56.6001 155.8 60.0001 155.8 63.7001V129C155.8 132.7 153.8 136.1 150.7 137.9L94.1998 170.5C92.4998 171.4 90.7998 171.9 88.9998 171.9ZM88.9998 23.8001C87.6998 23.8001 86.4998 24.1001 85.3998 24.8001L28.7998 57.4001C26.5998 58.7001 25.1998 61.1001 25.1998 63.7001V129C25.1998 131.6 26.5998 134 28.7998 135.3L85.2998 167.9C87.4998 169.2 90.2998 169.2 92.5998 167.9L149.1 135.3C151.3 134 152.7 131.6 152.7 129V63.7001C152.7 61.1001 151.3 58.7001 149.1 57.4001L92.5998 24.8001C91.4998 24.2001 90.2998 23.8001 88.9998 23.8001Z" fill="#221F1F"/>
<path d="M91.6999 123.2L107.9 122.7C111.1 117.4 114.2 111.1 117.2 103.9C120.5 95.8004 122.9 87.7004 124.5 80.0004L111.9 76.8004L126.1 70.7004C129.2 47.2004 125.6 29.0004 123 28.0004C119.7 26.6004 102.4 36.1004 86.0999 53.5004L90.7999 68.4004L80.0999 60.3004C74.4999 67.0004 69.1999 74.9004 64.9999 83.7004C64.0999 85.5004 63.3999 87.3004 62.6999 89.0004L72.5999 104.6L59.2999 98.6004C52.0999 123.9 59.1999 137.5 70.9999 142.5C80.4999 146.5 93.8999 142.5 103.8 128.9L91.6999 123.2Z" fill="url(#paint2_linear_4242_3786)"/>
<path d="M122.4 29.1003C120.1 28.5003 104.1 36.2003 87.6001 53.7003L92.1001 67.9003C92.3001 68.5003 92.1001 69.1003 91.6001 69.4003C91.1001 69.7003 90.5001 69.7003 90.0001 69.4003L80.3001 62.0003C74.6001 69.1003 69.9001 76.6003 66.2001 84.2003C65.5001 85.6003 64.8001 87.1003 64.2001 88.8003L73.7001 103.8C74.0001 104.3 74.0001 105 73.6001 105.4C73.2001 105.9 72.6001 106 72.0001 105.8L60.1001 100.5C52.6001 128.6 63.9001 138.1 71.5001 141.3C71.6001 141.3 71.6001 141.4 71.7001 141.4C83.0001 115.2 106.4 62.0003 122.6 29.5003C122.6 29.3003 122.5 29.2003 122.4 29.1003Z" fill="#78CE78"/>
<path d="M93.3999 127.4L102.7 131.8C103.3 131 104 130.2 104.6 129.3L100.1 127.2L93.3999 127.4ZM124.7 32.1002C125.3 32.3002 125.9 33.5002 126.5 35.4002C125.7 31.2002 124.6 28.6002 123.7 28.3002C120.4 26.9002 103.1 36.4002 86.7999 53.8002L87.8999 57.4002C104.2 40.1002 121.4 30.7002 124.7 32.1002ZM80.8999 60.5002C75.1999 67.5002 69.9999 75.3002 65.7999 84.1002C64.8999 85.9002 64.1999 87.7002 63.4999 89.4002L64.9999 91.8002C65.4999 90.5002 66.0999 89.2002 66.6999 87.9002C70.8999 79.2002 76.7999 70.3002 82.4999 63.4002L90.0999 68.5002L91.0999 68.4002L80.8999 60.5002ZM59.9999 99.0002C56.3999 111.6 56.3999 121.3 58.6999 128.5C57.4999 121.8 57.9999 113.3 60.9999 102.9L74.2999 108.9L71.2999 104.2L59.9999 99.0002Z" fill="white"/>
<path d="M78.6006 145.5C75.6006 145.5 72.8006 144.9 70.4006 143.9C55.9006 137.7 51.3006 121.1 57.8006 98.2003C57.9006 97.8003 58.2006 97.4003 58.6006 97.3003C59.0006 97.1003 59.5006 97.1003 59.8006 97.3003L68.6006 101.2L61.4006 89.8003C61.1006 89.4003 61.1006 88.9003 61.3006 88.4003C62.1006 86.5003 62.9006 84.7003 63.7006 83.1003C67.6006 74.9003 72.7006 66.9003 79.0006 59.3003C79.5006 58.7003 80.4006 58.6003 81.1006 59.1003L88.0006 64.4003L84.7006 54.0003C84.5006 53.5003 84.7006 52.9003 85.0006 52.5003C97.7006 38.9003 118.001 24.3003 123.601 26.7003C127.801 28.5003 130.501 49.3003 127.601 71.0003C127.501 71.5003 127.201 72.0003 126.701 72.2003L116.501 76.6003L124.901 78.7003C125.701 78.9003 126.201 79.7003 126.001 80.5003C124.301 88.9003 121.801 97.0003 118.701 104.7C115.801 111.8 112.601 118.2 109.301 123.7C109.001 124.1 108.601 124.4 108.101 124.4L98.1006 124.7L104.601 127.8C105.001 128 105.301 128.4 105.401 128.8C105.501 129.2 105.401 129.7 105.201 130.1C96.9006 141 87.0006 145.5 78.6006 145.5ZM60.3006 100.7C52.9006 128.5 64.2006 138 71.6006 141.1C79.5006 144.4 91.6006 142.1 101.501 129.5L91.0006 124.5C90.4006 124.2 90.0006 123.5 90.2006 122.8C90.3006 122.1 90.9006 121.6 91.6006 121.6L107.001 121.1C110.101 115.9 113.001 109.9 115.801 103.2C118.701 96.1003 121.001 88.7003 122.701 80.9003L111.501 78.0003C110.901 77.8003 110.401 77.3003 110.401 76.7003C110.301 76.1003 110.701 75.5003 111.301 75.2003L124.701 69.4003C127.601 47.0003 124.101 30.9003 122.301 29.1003C119.801 28.6003 104.201 36.2003 87.7006 53.6003L92.2006 67.7003C92.4006 68.3003 92.2006 69.0003 91.6006 69.4003C91.1006 69.8003 90.3006 69.8003 89.8006 69.4003L80.3006 62.1003C74.6006 69.2003 70.0006 76.6003 66.3006 84.2003C65.6006 85.6003 65.0006 87.1003 64.3006 88.7003L73.8006 103.7C74.2006 104.3 74.1006 105 73.7006 105.5C73.3006 106 72.6006 106.2 72.0006 105.9L60.3006 100.7Z" fill="#221F1F"/>
<path d="M86.6998 108.3C99.2998 79.8003 113 49.8003 113 49.8003C113 49.8003 79.4998 101.9 61.2998 154L68.3998 158.1C72.4998 144.8 78.8998 126.1 86.6998 108.3Z" fill="#FCD26E"/>
<path d="M113.7 48.5003C113 48.1003 112.1 48.3003 111.7 49.0003C111.6 49.2003 100 67.2003 87.0002 92.3003C78.3002 109 67.6002 131.4 59.7002 154.1L62.3002 155.6C70.2002 132.9 80.9002 110.4 89.6002 93.7003C93.5002 86.3003 97.2002 79.4003 100.6 73.5003C96.0002 83.6003 90.6002 95.8003 85.4002 107.6C77.4002 125.6 71.0002 144.7 66.9002 158.2L69.6002 159.7C73.7002 146.3 80.2002 127 88.2002 108.8C100.6 80.6003 114.3 50.6003 114.5 50.3003C114.7 49.7003 114.4 48.9003 113.7 48.5003Z" fill="#221F1F"/>
<path d="M96.9004 101C96.5004 101 96.1004 100.8 95.8004 100.6C95.5004 100.3 95.4004 99.9002 95.4004 99.5002C95.4004 99.1002 95.6004 98.7002 95.8004 98.4002C96.4004 97.8002 97.3004 97.8002 97.9004 98.4002C98.0004 98.5002 98.0004 98.5002 98.1004 98.6002C98.1004 98.7002 98.2004 98.8002 98.2004 98.9002C98.2004 99.0002 98.3004 99.1002 98.3004 99.2002C98.3004 99.3002 98.3004 99.4002 98.3004 99.5002C98.3004 99.9002 98.1004 100.3 97.9004 100.6C97.8004 100.7 97.6004 100.8 97.4004 100.9C97.3004 100.9 97.1004 101 96.9004 101Z" fill="#9CDB9C"/>
<path d="M107.3 101.7C106.5 101.7 105.9 100.9 105.9 100.1C105.9 99.3001 106.7 98.7001 107.5 98.7001C108.3 98.8001 109 99.5001 108.9 100.3C108.9 101.1 108.2 101.7 107.4 101.7C107.3 101.7 107.3 101.7 107.3 101.7ZM102.1 101.3C101.3 101.3 100.6 100.5 100.7 99.7001C100.8 98.9001 101.5 98.2001 102.3 98.3001C103.1 98.4001 103.8 99.1001 103.7 99.9001C103.6 100.7 102.9 101.3 102.1 101.3Z" fill="#9CDB9C"/>
<path d="M112.601 102C112.201 102 111.801 101.8 111.501 101.6C111.201 101.4 111.101 100.9 111.101 100.5C111.101 100.1 111.301 99.7001 111.501 99.4001C111.601 99.3001 111.601 99.3001 111.701 99.2001C111.801 99.2001 111.901 99.1001 112.001 99.1001C112.101 99.1001 112.201 99.0001 112.301 99.0001C112.801 98.9001 113.301 99.1001 113.701 99.4001C114.001 99.7001 114.101 100.1 114.101 100.5C114.101 100.9 113.901 101.3 113.701 101.6C113.601 101.7 113.401 101.8 113.201 101.9C113.001 102 112.801 102 112.601 102Z" fill="#9CDB9C"/>
<path d="M74.001 79.1001C73.601 79.1001 73.201 78.9001 72.901 78.7001C72.601 78.4001 72.501 78.0001 72.501 77.6001C72.501 77.2001 72.701 76.8001 72.901 76.5001C73.001 76.4001 73.001 76.4001 73.101 76.3001C73.201 76.2001 73.301 76.2001 73.301 76.2001C73.401 76.2001 73.501 76.1001 73.601 76.1001C73.801 76.1001 74.001 76.1001 74.201 76.1001C74.301 76.1001 74.401 76.1001 74.501 76.2001C74.601 76.2001 74.701 76.3001 74.801 76.3001C74.901 76.3001 75.001 76.4001 75.001 76.5001C75.101 76.6001 75.101 76.7001 75.201 76.7001C75.201 76.8001 75.301 76.9001 75.301 77.0001C75.301 77.1001 75.401 77.2001 75.401 77.3001C75.401 77.4001 75.401 77.5001 75.401 77.6001C75.401 78.0001 75.201 78.4001 75.001 78.7001C74.901 78.8001 74.701 78.9001 74.501 79.0001C74.401 79.0001 74.201 79.1001 74.001 79.1001Z" fill="#35AF35"/>
<path d="M79.501 86.8004C79.001 86.2004 79.101 85.2004 79.701 84.7004C80.301 84.2004 81.301 84.3004 81.801 84.9004C82.301 85.5004 82.201 86.5004 81.601 87.0004C81.301 87.2004 81.001 87.3004 80.701 87.3004C80.301 87.4004 79.801 87.2004 79.501 86.8004ZM76.201 82.7004C75.701 82.0004 75.801 81.1004 76.401 80.6004C77.001 80.1004 78.001 80.2004 78.501 80.8004C79.001 81.4004 78.901 82.4004 78.301 82.9004C78.001 83.1004 77.701 83.2004 77.401 83.2004C76.901 83.2004 76.501 83.0004 76.201 82.7004Z" fill="#35AF35"/>
<path d="M84.1006 91.6003C83.9006 91.6003 83.7006 91.6003 83.5006 91.5003C83.3006 91.4003 83.2006 91.3003 83.0006 91.2003C82.8006 91.1003 82.7006 90.9003 82.7006 90.7003C82.6006 90.5003 82.6006 90.3003 82.6006 90.1003C82.6006 90.0003 82.6006 89.9003 82.6006 89.8003C82.6006 89.7003 82.6006 89.6003 82.7006 89.5003C82.8006 89.4003 82.8006 89.3003 82.8006 89.2003C82.8006 89.1003 82.9006 89.0003 83.0006 89.0003C83.5006 88.4003 84.6006 88.4003 85.1006 89.0003C85.2006 89.1003 85.2006 89.1003 85.3006 89.2003C85.3006 89.3003 85.4006 89.4003 85.4006 89.5003C85.4006 89.6003 85.5006 89.7003 85.5006 89.8003C85.5006 89.9003 85.5006 90.0003 85.5006 90.1003C85.5006 90.3003 85.5006 90.5003 85.4006 90.7003C85.3006 90.9003 85.2006 91.1003 85.1006 91.2003C85.0006 91.3003 84.8006 91.4003 84.6006 91.5003C84.5006 91.5003 84.3006 91.6003 84.1006 91.6003Z" fill="#35AF35"/>
<path d="M69.501 87.3003C69.301 87.3003 69.101 87.3003 68.901 87.2003C68.701 87.1003 68.601 87.0003 68.401 86.9003C68.301 86.8003 68.201 86.6003 68.101 86.4003C68.101 86.2003 68.001 86.0003 68.001 85.8003C68.001 85.4003 68.201 85.0003 68.401 84.7003C68.501 84.6003 68.601 84.6003 68.601 84.5003C68.701 84.5003 68.801 84.4003 68.901 84.4003C69.001 84.4003 69.101 84.3003 69.201 84.3003C69.401 84.3003 69.601 84.3003 69.801 84.3003C69.901 84.3003 70.001 84.3003 70.101 84.4003C70.201 84.4003 70.301 84.5003 70.401 84.5003C70.501 84.6003 70.601 84.6003 70.601 84.7003C70.901 85.0003 71.001 85.4003 71.001 85.8003C71.001 86.0003 71.001 86.2003 70.901 86.4003C70.801 86.6003 70.701 86.7003 70.601 86.9003C70.301 87.2003 69.901 87.3003 69.501 87.3003Z" fill="#35AF35"/>
<path d="M75.0008 94.5002C74.5008 93.9002 74.5008 92.9002 75.2008 92.4002C75.8008 91.9002 76.8008 91.9002 77.3008 92.6002C77.8008 93.2002 77.8008 94.2002 77.1008 94.7002C76.8008 94.9002 76.5008 95.1002 76.1008 95.1002C75.8008 95.0002 75.3008 94.9002 75.0008 94.5002ZM71.7008 90.7002C71.2008 90.1002 71.2008 89.1002 71.9008 88.6002C72.5008 88.1002 73.5008 88.1002 74.0008 88.7002C74.5008 89.3002 74.5008 90.3002 73.8008 90.8002C73.5008 91.0002 73.2008 91.2002 72.8008 91.2002C72.4008 91.2002 72.0008 91.0002 71.7008 90.7002Z" fill="#35AF35"/>
<path d="M79.501 98.9004C79.301 98.9004 79.101 98.9004 78.901 98.8004C78.701 98.7004 78.601 98.6004 78.401 98.5004C78.101 98.2004 78.001 97.8004 78.001 97.4004C78.001 97.3004 78.001 97.2004 78.001 97.1004C78.001 97.0004 78.101 96.9004 78.101 96.8004C78.101 96.7004 78.201 96.6004 78.201 96.5004C78.301 96.4004 78.301 96.3004 78.401 96.3004C78.501 96.2004 78.501 96.2004 78.601 96.1004C78.701 96.1004 78.801 96.0004 78.901 96.0004C79.001 96.0004 79.101 95.9004 79.201 95.9004C79.401 95.9004 79.601 95.9004 79.801 95.9004C79.901 95.9004 80.001 95.9004 80.101 96.0004C80.201 96.0004 80.301 96.1004 80.301 96.1004C80.401 96.1004 80.501 96.2004 80.501 96.3004C80.601 96.4004 80.601 96.4004 80.701 96.5004C80.701 96.6004 80.801 96.7004 80.801 96.8004C80.801 96.9004 80.901 97.0004 80.901 97.1004C80.901 97.2004 80.901 97.3004 80.901 97.4004C80.901 97.8004 80.701 98.2004 80.501 98.5004C80.301 98.7004 79.901 98.9004 79.501 98.9004Z" fill="#35AF35"/>
<path d="M79.501 70.6003C79.301 70.6003 79.101 70.6003 78.901 70.5003C78.701 70.4003 78.601 70.3003 78.401 70.2003C78.201 70.1003 78.101 69.9003 78.101 69.7003C78.001 69.5003 78.001 69.3003 78.001 69.1003C78.001 68.7003 78.201 68.3003 78.501 68.0003C79.001 67.4003 80.101 67.4003 80.601 68.0003C80.901 68.3003 81.001 68.7003 81.001 69.1003C81.001 69.3003 81.001 69.5003 80.901 69.7003C80.801 69.9003 80.701 70.0003 80.601 70.2003C80.501 70.3003 80.301 70.4003 80.101 70.5003C79.901 70.5003 79.701 70.6003 79.501 70.6003Z" fill="#35AF35"/>
<path d="M84.2006 78.6001C83.7006 77.9001 83.9006 77.0001 84.6006 76.5001C85.3006 76.0001 86.2006 76.2001 86.7006 76.9001C87.2006 77.6001 87.0006 78.5001 86.3006 79.0001C86.0006 79.2001 85.8006 79.3001 85.5006 79.3001C84.9006 79.3001 84.5006 79.1001 84.2006 78.6001ZM81.2006 74.3001C80.7006 73.6001 80.9006 72.7001 81.6006 72.2001C82.3006 71.7001 83.2006 71.9001 83.7006 72.6001C84.2006 73.3001 84.0006 74.2001 83.3006 74.7001C83.0006 74.9001 82.8006 75.0001 82.5006 75.0001C82.0006 74.9001 81.5006 74.7001 81.2006 74.3001Z" fill="#35AF35"/>
<path d="M88.3008 83.7003C87.9008 83.7003 87.5008 83.6003 87.2008 83.3003C87.1008 83.2003 87.0008 83.0003 86.9008 82.8003C86.8008 82.6003 86.8008 82.4003 86.8008 82.2003C86.8008 82.1003 86.8008 82.0003 86.8008 81.9003C86.8008 81.8003 86.8008 81.7003 86.9008 81.6003C86.9008 81.5003 87.0008 81.4003 87.0008 81.3003C87.0008 81.2003 87.1008 81.1003 87.2008 81.1003C87.3008 81.0003 87.4008 81.0003 87.4008 80.9003C87.5008 80.9003 87.6008 80.8003 87.7008 80.8003C87.8008 80.8003 87.9008 80.7003 88.0008 80.7003C88.5008 80.6003 89.0008 80.8003 89.3008 81.1003C89.4008 81.2003 89.4008 81.2003 89.5008 81.3003C89.6008 81.4003 89.6008 81.5003 89.6008 81.6003C89.6008 81.7003 89.7008 81.8003 89.7008 81.9003C89.7008 82.0003 89.7008 82.1003 89.7008 82.2003C89.7008 82.4003 89.7008 82.6003 89.6008 82.8003C89.5008 83.0003 89.4008 83.1003 89.3008 83.3003C89.2008 83.4003 89.0008 83.5003 88.8008 83.6003C88.7008 83.6003 88.5008 83.7003 88.3008 83.7003Z" fill="#35AF35"/>
<path d="M62.6006 112.2C62.4006 112.2 62.2006 112.2 62.0006 112.1C61.8006 112 61.7006 111.9 61.5006 111.8C61.4006 111.7 61.3006 111.5 61.2006 111.3C61.1006 111.1 61.1006 110.9 61.1006 110.7C61.1006 110.6 61.1006 110.5 61.1006 110.4C61.1006 110.3 61.2006 110.2 61.2006 110.1C61.2006 110 61.3006 109.9 61.3006 109.8C61.3006 109.7 61.4006 109.6 61.5006 109.6C62.1006 109 63.1006 109 63.6006 109.6C63.7006 109.7 63.7006 109.7 63.8006 109.8C63.9006 109.9 63.9006 110 63.9006 110.1C63.9006 110.2 64.0006 110.3 64.0006 110.4C64.0006 110.5 64.0006 110.6 64.0006 110.7C64.0006 110.9 64.0006 111.1 63.9006 111.3C63.8006 111.5 63.7006 111.6 63.6006 111.8C63.5006 112 63.3006 112.1 63.1006 112.1C63.0006 112.1 62.8006 112.2 62.6006 112.2Z" fill="#35AF35"/>
<path d="M65.5002 114.9C64.8002 114.4 64.7002 113.4 65.3002 112.8C65.8002 112.1 66.8002 112 67.4002 112.5C68.1002 113 68.2002 114 67.7002 114.6C67.4002 115 67.0002 115.2 66.5002 115.2C66.1002 115.2 65.8002 115.1 65.5002 114.9Z" fill="#35AF35"/>
<path d="M70.3008 118.2C70.1008 118.2 69.9008 118.2 69.7008 118.1C69.5008 118 69.3008 117.9 69.2008 117.8C68.9008 117.5 68.8008 117.1 68.8008 116.7C68.8008 116.6 68.8008 116.5 68.8008 116.4C68.8008 116.3 68.8008 116.2 68.9008 116.1C68.9008 116 69.0008 115.9 69.0008 115.8C69.1008 115.7 69.1008 115.7 69.2008 115.6C69.3008 115.5 69.3008 115.5 69.4008 115.4C69.5008 115.4 69.6008 115.3 69.7008 115.3C69.8008 115.3 69.9008 115.2 70.0008 115.2C70.2008 115.2 70.4008 115.2 70.6008 115.2C70.7008 115.2 70.8008 115.2 70.9008 115.3C71.0008 115.3 71.1008 115.4 71.2008 115.4C71.3008 115.5 71.4008 115.5 71.4008 115.6C71.5008 115.7 71.5008 115.7 71.6008 115.8C71.6008 115.9 71.7008 116 71.7008 116.1C71.7008 116.2 71.8008 116.3 71.8008 116.4C71.8008 116.5 71.8008 116.6 71.8008 116.7C71.8008 117.1 71.6008 117.5 71.4008 117.8C71.1008 118 70.7008 118.2 70.3008 118.2Z" fill="#35AF35"/>
<path d="M94.8006 57.9002C94.5006 57.1002 94.8006 56.2002 95.6006 55.9002C96.4006 55.6002 97.2006 55.9002 97.6006 56.7002C97.9006 57.5002 97.6006 58.4002 96.8006 58.7002C96.6006 58.8002 96.4006 58.8002 96.2006 58.8002C95.6006 58.8002 95.0006 58.4002 94.8006 57.9002Z" fill="#35AF35"/>
<path d="M98.3008 63.8005C97.9008 63.8005 97.5008 63.6005 97.2008 63.4005C96.9008 63.1005 96.8008 62.7005 96.8008 62.3005C96.8008 62.2005 96.8008 62.1005 96.8008 62.0005C96.8008 61.9005 96.8008 61.8005 96.9008 61.7005C96.9008 61.6005 97.0008 61.5005 97.0008 61.4005C97.0008 61.3005 97.1008 61.3005 97.2008 61.2005C97.8008 60.6005 98.8008 60.6005 99.3008 61.2005C99.4008 61.3005 99.4008 61.3005 99.5008 61.4005C99.6008 61.5005 99.6008 61.6005 99.6008 61.7005C99.6008 61.8005 99.7008 61.9005 99.7008 62.0005C99.7008 62.1005 99.7008 62.2005 99.7008 62.3005C99.7008 62.7005 99.5008 63.1005 99.3008 63.4005C99.2008 63.5005 99.0008 63.6005 98.8008 63.7005C98.7008 63.8005 98.5008 63.8005 98.3008 63.8005Z" fill="#35AF35"/>
<path d="M102.7 48.4003C102.3 48.4003 101.9 48.2003 101.6 48.0003C101.3 47.7003 101.2 47.3003 101.2 46.9003C101.2 46.5003 101.4 46.1003 101.6 45.8003C101.9 45.4003 102.5 45.3003 102.9 45.4003C103 45.4003 103.1 45.4003 103.2 45.5003C103.3 45.5003 103.4 45.6003 103.5 45.6003C103.6 45.7003 103.7 45.7003 103.7 45.8003C104 46.1003 104.1 46.5003 104.1 46.9003C104.1 47.3003 103.9 47.7003 103.7 48.0003C103.4 48.2003 103.1 48.4003 102.7 48.4003Z" fill="#35AF35"/>
<path d="M104.601 53.1005C104.201 53.1005 103.801 52.9005 103.501 52.7005C103.201 52.4005 103.101 52.0005 103.101 51.6005C103.101 51.2005 103.301 50.8005 103.501 50.5005C103.801 50.1005 104.401 50.0005 104.801 50.1005C104.901 50.1005 105.001 50.1005 105.101 50.2005C105.201 50.2005 105.301 50.3005 105.401 50.3005C105.501 50.4005 105.601 50.4005 105.601 50.5005C105.901 50.8005 106.001 51.2005 106.001 51.6005C106.001 52.0005 105.801 52.4005 105.601 52.7005C105.301 52.9005 105.001 53.1005 104.601 53.1005Z" fill="#35AF35"/>
<path d="M93.9004 53.7004C93.7004 53.7004 93.5004 53.7004 93.3004 53.6004C93.1004 53.5004 93.0004 53.4004 92.8004 53.3004C92.5004 53.0004 92.4004 52.6004 92.4004 52.2004C92.4004 51.8004 92.6004 51.4004 92.8004 51.1004C93.4004 50.5004 94.4004 50.5004 94.9004 51.1004C95.2004 51.4004 95.3004 51.8004 95.3004 52.2004C95.3004 52.6004 95.1004 53.0004 94.9004 53.3004C94.7004 53.6004 94.3004 53.7004 93.9004 53.7004Z" fill="#35AF35"/>
<defs>
<linearGradient id="paint0_linear_4242_3786" x1="89.0002" y1="27.3403" x2="89.0002" y2="165.403" gradientUnits="userSpaceOnUse">
<stop offset="0.3974" stop-color="#FFF8D2"/>
<stop offset="0.7659" stop-color="#F2F591"/>
</linearGradient>
<linearGradient id="paint1_linear_4242_3786" x1="89.0002" y1="30.3386" x2="89.0002" y2="162.403" gradientUnits="userSpaceOnUse">
<stop offset="0.3974" stop-color="#FFF8D2"/>
<stop offset="0.7659" stop-color="#F2F591"/>
</linearGradient>
<linearGradient id="paint2_linear_4242_3786" x1="75.5567" y1="129.8" x2="109.073" y2="52.1612" gradientUnits="userSpaceOnUse">
<stop offset="0.1832" stop-color="white"/>
<stop offset="0.6802" stop-color="#B7EDB7"/>
</linearGradient>
</defs>
</svg>
