<svg width="165" height="165" viewBox="0 0 165 165" fill="none" xmlns="http://www.w3.org/2000/svg">
<path d="M82.5002 144.525C116.528 144.525 144.113 116.756 144.113 82.5001C144.113 48.2446 116.528 20.4751 82.5002 20.4751C48.4726 20.4751 20.8877 48.2446 20.8877 82.5001C20.8877 116.756 48.4726 144.525 82.5002 144.525Z" fill="white"/>
<path d="M82.5 145.912C47.775 145.912 19.5 117.45 19.5 82.4999C19.5 47.5499 47.775 19.0874 82.5 19.0874C117.225 19.0874 145.5 47.5499 145.5 82.4999C145.5 117.45 117.225 145.912 82.5 145.912ZM82.5 21.8624C49.3125 21.8624 22.275 49.0874 22.275 82.4999C22.275 115.95 49.275 143.137 82.5 143.137C115.688 143.137 142.725 115.912 142.725 82.4999C142.725 49.0499 115.688 21.8624 82.5 21.8624Z" fill="#221F1F"/>
<path d="M82.5002 144.525C116.528 144.525 144.113 116.756 144.113 82.5001C144.113 48.2446 116.528 20.4751 82.5002 20.4751C48.4726 20.4751 20.8877 48.2446 20.8877 82.5001C20.8877 116.756 48.4726 144.525 82.5002 144.525Z" fill="white"/>
<path d="M82.5 145.912C47.775 145.912 19.5 117.45 19.5 82.4999C19.5 47.5499 47.775 19.0874 82.5 19.0874C117.225 19.0874 145.5 47.5499 145.5 82.4999C145.5 117.45 117.225 145.912 82.5 145.912ZM82.5 21.8624C49.3125 21.8624 22.275 49.0874 22.275 82.4999C22.275 115.95 49.275 143.137 82.5 143.137C115.688 143.137 142.725 115.912 142.725 82.4999C142.725 49.0499 115.688 21.8624 82.5 21.8624Z" fill="#221F1F"/>
<path d="M84.7873 20.5125C84.5248 20.5125 84.2623 20.475 83.9998 20.475C67.0123 20.0625 52.8748 33.6 52.4623 50.7375C52.0498 67.875 65.6248 80.4375 82.4998 82.5C98.7748 84.4875 112.95 97.125 112.537 114.263C112.125 131.138 98.4373 144.525 81.7873 144.525C115.425 144.938 143.25 118.012 144.075 84C144.9 50.025 118.425 21.75 84.7873 20.5125Z" fill="white"/>
<path d="M82.5374 145.912C82.2749 145.912 82.0499 145.912 81.7874 145.912C81.0374 145.912 80.3999 145.275 80.3999 144.525C80.3999 143.775 81.0374 143.137 81.7874 143.137C89.4749 143.137 96.7499 140.137 102.262 134.737C107.775 129.3 110.925 122.025 111.15 114.262C111.337 106.5 108.45 99.4123 102.787 93.7123C97.4624 88.3498 90.1874 84.8623 82.3124 83.8873C63.7874 81.5998 50.6624 67.6498 51.0749 50.6998C51.2999 42.0373 54.8249 34.0123 61.0499 28.0123C67.2749 22.0498 75.4499 18.8623 84.0374 19.0873C84.2999 19.0873 84.5999 19.0873 84.8624 19.1248C101.512 19.7623 116.962 26.8123 128.362 39.0373C139.8 51.2623 145.875 67.2373 145.462 84.0373C145.05 100.837 138.225 116.512 126.225 128.137C114.375 139.65 98.9249 145.912 82.5374 145.912ZM83.2499 21.8623C75.6749 21.8623 68.5124 24.7498 62.9999 30.0373C57.2999 35.5123 54.0749 42.8623 53.8874 50.7748C53.6999 58.6123 56.5124 65.6998 62.0249 71.2873C67.2749 76.6498 74.6249 80.1373 82.7249 81.1123C91.1999 82.1623 99.0374 85.9123 104.812 91.7248C110.925 97.8748 114.187 105.9 113.962 114.3C113.737 122.812 110.325 130.762 104.25 136.687C102.675 138.262 100.912 139.65 99.1124 140.812C108.487 138.112 117.112 133.162 124.312 126.15C135.787 115.012 142.35 100.012 142.725 83.9623C143.1 67.9123 137.325 52.6123 126.375 40.9123C115.425 29.2498 100.65 22.4998 84.7499 21.8998C84.4874 21.8998 84.2624 21.8623 83.9999 21.8623C83.7374 21.8623 83.4749 21.8623 83.2499 21.8623Z" fill="#221F1F"/>
<path d="M81.9375 119.25C85.0441 119.25 87.5625 116.732 87.5625 113.625C87.5625 110.518 85.0441 108 81.9375 108C78.8309 108 76.3125 110.518 76.3125 113.625C76.3125 116.732 78.8309 119.25 81.9375 119.25Z" fill="white"/>
<path d="M81.9374 120.637C81.8624 120.637 81.8249 120.637 81.7499 120.637C77.8874 120.525 74.8124 117.337 74.9249 113.437C75.0374 109.575 78.2249 106.5 82.1249 106.612C85.9874 106.725 89.0624 109.912 88.9499 113.812C88.8374 117.6 85.7249 120.637 81.9374 120.637ZM77.6999 113.512C77.6249 115.837 79.4999 117.787 81.8249 117.862C84.1499 117.9 86.0999 116.062 86.1749 113.737C86.2499 111.412 84.3749 109.462 82.0499 109.387C79.6874 109.312 77.7374 111.187 77.6999 113.512Z" fill="#221F1F"/>
<path d="M83.0625 57C86.1691 57 88.6875 54.4816 88.6875 51.375C88.6875 48.2684 86.1691 45.75 83.0625 45.75C79.9559 45.75 77.4375 48.2684 77.4375 51.375C77.4375 54.4816 79.9559 57 83.0625 57Z" fill="white"/>
<path d="M83.1005 58.3874C83.0255 58.3874 82.988 58.3874 82.913 58.3874C79.0505 58.2749 75.9755 55.0874 76.088 51.1874C76.2005 47.3249 79.4255 44.2499 83.288 44.3624C87.1505 44.4749 90.2255 47.6624 90.113 51.5624C90.0005 55.3499 86.888 58.3874 83.1005 58.3874ZM83.063 47.1374C80.7755 47.1374 78.9005 48.9749 78.8255 51.2624C78.7505 53.5874 80.6255 55.5374 82.9505 55.6124C84.0755 55.6499 85.163 55.2374 85.988 54.4499C86.813 53.6624 87.263 52.6124 87.3005 51.4874C87.338 50.3624 86.9255 49.2749 86.138 48.4499C85.3505 47.6249 84.3005 47.1749 83.1755 47.1374C83.138 47.1374 83.1005 47.1374 83.063 47.1374Z" fill="#221F1F"/>
</svg>
