<svg width="165" height="165" viewBox="0 0 165 165" fill="none" xmlns="http://www.w3.org/2000/svg">
<path d="M81.7875 149.287C81.675 149.287 81.5625 149.287 81.4875 149.287C64.0125 149.025 47.625 141.975 35.325 129.412C22.95 116.812 16.125 100.162 16.125 82.4999C16.125 45.7874 45.7875 15.8249 82.275 15.7124C82.575 15.7124 82.9125 15.7124 83.2125 15.7124C83.475 15.7124 83.775 15.7124 84.0375 15.7124C84.3375 15.7124 84.675 15.7124 85.0875 15.7499C102.6 16.4624 118.837 23.8874 130.8 36.7124C139.275 45.7499 145.012 56.8874 147.487 68.9624L147.525 69.0749C147.6 69.4499 147.675 69.8249 147.75 70.1999V70.2749C147.788 70.4624 147.825 70.6874 147.862 70.8749L147.938 71.3624C148.538 74.9999 148.875 78.7499 148.875 82.4249C148.875 87.8624 148.2 93.2999 146.888 98.5874V98.6249C146.775 98.9999 146.7 99.3749 146.587 99.7499C146.512 99.9749 146.475 100.2 146.4 100.462L146.25 100.912C143.062 112.125 136.95 122.325 128.55 130.462C116.137 142.537 99.7875 149.175 82.5 149.175H81.7875V149.287Z" fill="white"/>
<path d="M82.5002 144.525C116.528 144.525 144.113 116.756 144.113 82.5001C144.113 48.2446 116.528 20.4751 82.5002 20.4751C48.4726 20.4751 20.8877 48.2446 20.8877 82.5001C20.8877 116.756 48.4726 144.525 82.5002 144.525Z" fill="white"/>
<path d="M82.5 145.913C47.775 145.913 19.5 117.45 19.5 82.5001C19.5 47.5501 47.775 19.0876 82.5 19.0876C117.225 19.0876 145.5 47.5501 145.5 82.5001C145.5 117.45 117.225 145.913 82.5 145.913ZM82.5 21.8626C49.3125 21.8626 22.275 49.0877 22.275 82.5001C22.275 115.95 49.275 143.138 82.5 143.138C115.688 143.138 142.725 115.913 142.725 82.5001C142.725 49.0501 115.688 21.8626 82.5 21.8626Z" fill="#221F1F"/>
<path d="M82.5002 144.525C116.528 144.525 144.113 116.756 144.113 82.5001C144.113 48.2446 116.528 20.4751 82.5002 20.4751C48.4726 20.4751 20.8877 48.2446 20.8877 82.5001C20.8877 116.756 48.4726 144.525 82.5002 144.525Z" fill="white"/>
<path d="M82.5 145.913C47.775 145.913 19.5 117.45 19.5 82.5001C19.5 47.5501 47.775 19.0876 82.5 19.0876C117.225 19.0876 145.5 47.5501 145.5 82.5001C145.5 117.45 117.225 145.913 82.5 145.913ZM82.5 21.8626C49.3125 21.8626 22.275 49.0877 22.275 82.5001C22.275 115.95 49.275 143.138 82.5 143.138C115.688 143.138 142.725 115.913 142.725 82.5001C142.725 49.0501 115.688 21.8626 82.5 21.8626Z" fill="#221F1F"/>
<path d="M87.75 127.838C58.0875 127.838 32.7 109.35 22.3125 83.2126C22.6875 116.325 49.5375 143.138 82.5 143.138C107.025 143.138 128.138 128.288 137.513 107.1C124.763 119.925 107.175 127.838 87.75 127.838Z" fill="#E4E4E4"/>
<path d="M84.7873 20.5125C84.5248 20.5125 84.2623 20.475 83.9998 20.475C67.0123 20.0625 52.8748 33.6 52.4623 50.7375C52.0498 67.875 65.6248 80.4375 82.4998 82.5C98.7748 84.4875 112.95 97.125 112.537 114.263C112.125 131.138 98.4373 144.525 81.7873 144.525C115.425 144.938 143.25 118.012 144.075 84C144.9 50.025 118.425 21.75 84.7873 20.5125Z" fill="#9E9E9E"/>
<path d="M82.5374 145.913C82.2749 145.913 82.0499 145.913 81.7874 145.913C81.0374 145.913 80.3999 145.275 80.3999 144.525C80.3999 143.775 81.0374 143.138 81.7874 143.138C89.4749 143.138 96.7499 140.138 102.262 134.738C107.775 129.3 110.925 122.025 111.15 114.263C111.337 106.5 108.45 99.4126 102.787 93.7126C97.4624 88.3501 90.1874 84.8626 82.3124 83.8876C63.7874 81.6001 50.6624 67.6501 51.0749 50.7001C51.2999 42.0376 54.8249 34.0126 61.0499 28.0126C67.2749 22.0501 75.4499 18.8626 84.0374 19.0876C84.2999 19.0876 84.5999 19.0876 84.8624 19.1251C101.512 19.7626 116.962 26.8126 128.362 39.0376C139.8 51.2626 145.875 67.2376 145.462 84.0376C145.05 100.838 138.225 116.513 126.225 128.138C114.375 139.65 98.9249 145.913 82.5374 145.913ZM83.2499 21.8626C75.6749 21.8626 68.5124 24.7501 62.9999 30.0376C57.2999 35.5126 54.0749 42.8626 53.8874 50.7751C53.6999 58.6126 56.5124 65.7001 62.0249 71.2876C67.2749 76.6501 74.6249 80.1376 82.7249 81.1126C91.1999 82.1626 99.0374 85.9126 104.812 91.7251C110.925 97.8751 114.187 105.9 113.962 114.3C113.737 122.813 110.325 130.763 104.25 136.688C102.675 138.263 100.912 139.65 99.1124 140.813C108.487 138.113 117.112 133.163 124.312 126.15C135.787 115.013 142.35 100.013 142.725 83.9626C143.1 67.9126 137.325 52.6126 126.375 40.9126C115.425 29.2501 100.65 22.5001 84.7499 21.9001C84.4874 21.9001 84.2624 21.8626 83.9999 21.8626C83.7374 21.8626 83.4749 21.8626 83.2499 21.8626Z" fill="#221F1F"/>
<path d="M81.9375 119.25C85.0441 119.25 87.5625 116.732 87.5625 113.625C87.5625 110.518 85.0441 108 81.9375 108C78.8309 108 76.3125 110.518 76.3125 113.625C76.3125 116.732 78.8309 119.25 81.9375 119.25Z" fill="#9E9E9E"/>
<path d="M81.9374 120.638C81.8624 120.638 81.8249 120.638 81.7499 120.638C77.8874 120.525 74.8124 117.338 74.9249 113.438C75.0374 109.575 78.2249 106.5 82.1249 106.613C85.9874 106.725 89.0624 109.913 88.9499 113.813C88.8374 117.6 85.7249 120.638 81.9374 120.638ZM77.6999 113.513C77.6249 115.838 79.4999 117.788 81.8249 117.863C84.1499 117.938 86.0999 116.063 86.1749 113.738C86.2499 111.413 84.3749 109.463 82.0499 109.388C79.6874 109.313 77.7374 111.188 77.6999 113.513Z" fill="#221F1F"/>
<path d="M83.0625 57C86.1691 57 88.6875 54.4816 88.6875 51.375C88.6875 48.2684 86.1691 45.75 83.0625 45.75C79.9559 45.75 77.4375 48.2684 77.4375 51.375C77.4375 54.4816 79.9559 57 83.0625 57Z" fill="white"/>
<path d="M83.1005 58.3876C83.0255 58.3876 82.988 58.3876 82.913 58.3876C79.0505 58.2751 75.9755 55.0876 76.088 51.1876C76.2005 47.3251 79.4255 44.2501 83.288 44.3626C87.1505 44.4751 90.2255 47.6626 90.113 51.5626C90.0005 55.3501 86.888 58.3876 83.1005 58.3876ZM83.063 47.1376C80.7755 47.1376 78.9005 48.9751 78.8255 51.2626C78.7505 53.5876 80.6255 55.5376 82.9505 55.6126C84.0755 55.6501 85.163 55.2376 85.988 54.4501C86.813 53.6626 87.263 52.6126 87.3005 51.4876C87.338 50.3626 86.9255 49.2751 86.138 48.4501C85.3505 47.6251 84.3005 47.1751 83.1755 47.1376C83.138 47.1376 83.1005 47.1376 83.063 47.1376Z" fill="#221F1F"/>
</svg>
