<svg width="165" height="165" viewBox="0 0 165 165" fill="none" xmlns="http://www.w3.org/2000/svg">
<path d="M66.7879 16.3872L36.7129 103.462L80.1004 98.8122L62.7754 148.612L128.288 60.9747L93.4504 65.1747L120.825 16.3872H66.7879Z" fill="white"/>
<path d="M62.7752 150C62.5502 150 62.3252 149.962 62.1377 149.85C61.5377 149.512 61.2377 148.8 61.4627 148.162L78.0752 100.425L36.8627 104.812C36.3752 104.85 35.9252 104.662 35.6252 104.287C35.3252 103.912 35.2502 103.425 35.4002 102.975L65.4752 15.8999C65.6627 15.3374 66.1877 14.9624 66.7877 14.9624H120.825C121.313 14.9624 121.763 15.2249 122.025 15.6374C122.288 16.0499 122.288 16.5749 122.025 17.0249L96.0002 63.4499L128.138 59.5874C128.7 59.5124 129.225 59.7749 129.488 60.2624C129.75 60.7499 129.713 61.3499 129.413 61.7999L63.9002 149.437C63.6377 149.812 63.1877 150 62.7752 150ZM80.1002 97.4249C80.5127 97.4249 80.9252 97.6124 81.1877 97.9499C81.4877 98.3249 81.5627 98.8124 81.4127 99.2624L67.0502 140.625L125.25 62.7749L93.6377 66.5624C93.1127 66.6374 92.6252 66.3749 92.3252 65.9624C92.0252 65.5124 92.0252 64.9499 92.2502 64.4999L118.5 17.7749H67.7627L38.7377 101.85L79.9502 97.4249C79.9877 97.4249 80.0627 97.4249 80.1002 97.4249Z" fill="#221F1F"/>
</svg>
