<svg width="165" height="165" viewBox="0 0 165 165" fill="none" xmlns="http://www.w3.org/2000/svg">
<path d="M62.7752 153.375C61.9127 153.375 61.1252 153.188 60.4502 152.775C58.4252 151.613 57.5252 149.213 58.2752 147.038L73.1252 104.363L37.2002 108.188C37.1627 108.188 37.1252 108.188 37.0877 108.188C36.9752 108.188 36.8252 108.188 36.7127 108.188C35.2502 108.188 33.8627 107.55 32.9627 106.388C31.9502 105.113 31.6502 103.463 32.1752 101.888L62.2502 14.775C62.8877 12.8625 64.6877 11.55 66.7502 11.55H120.788C122.438 11.55 123.938 12.375 124.838 13.8C125.775 15.2625 125.813 17.1375 124.913 18.675L102.15 59.2876L127.688 56.2125C127.875 56.175 128.1 56.1751 128.288 56.1751C130.013 56.1751 131.588 57.1125 132.413 58.65C133.275 60.225 133.163 62.1751 132.188 63.6751C132.15 63.7126 132.113 63.7876 132.075 63.8251L66.6377 151.425C65.7377 152.663 64.3127 153.375 62.7752 153.375Z" fill="white"/>
<path d="M66.7879 16.3875L36.7129 103.462L80.1004 98.8125L62.7754 148.612L128.288 60.975L93.4504 65.175L120.825 16.3875H66.7879Z" fill="#FCD26E"/>
<path d="M62.7752 150C62.5502 150 62.3252 149.962 62.1377 149.85C61.5377 149.512 61.2377 148.8 61.4627 148.162L78.0752 100.425L36.8627 104.812C36.3752 104.85 35.9252 104.662 35.6252 104.287C35.3252 103.912 35.2502 103.425 35.4002 102.975L65.4752 15.8999C65.6627 15.3374 66.1877 14.9624 66.7877 14.9624H120.825C121.313 14.9624 121.763 15.2249 122.025 15.6374C122.288 16.0499 122.288 16.5749 122.025 17.0249L96.0002 63.4499L128.138 59.5874C128.7 59.5124 129.225 59.7749 129.488 60.2624C129.75 60.7499 129.713 61.3499 129.413 61.7999L63.9002 149.437C63.6377 149.812 63.1877 150 62.7752 150ZM80.1002 97.4249C80.5127 97.4249 80.9252 97.6124 81.1877 97.9499C81.4877 98.3249 81.5627 98.8124 81.4127 99.2624L67.0502 140.625L125.25 62.7749L93.6377 66.5624C93.1127 66.6374 92.6252 66.3749 92.3252 65.9624C92.0252 65.5124 92.0252 64.9499 92.2502 64.4999L118.5 17.7749H67.7627L38.7377 101.85L79.9502 97.4249C79.9877 97.4249 80.0627 97.4249 80.1002 97.4249Z" fill="#221F1F"/>
<path d="M79.9498 97.4249C79.9873 97.4249 80.0623 97.4249 80.0998 97.4249C71.5873 96.0374 50.3248 82.6499 67.9123 17.7749H67.7623L38.7373 101.85L79.9498 97.4249Z" fill="#E0B344"/>
</svg>
