<svg width="42" height="42" viewBox="0 0 42 42" fill="none" xmlns="http://www.w3.org/2000/svg">
<mask id="mask0_4919_2600" style="mask-type:luminance" maskUnits="userSpaceOnUse" x="1" y="1" width="40" height="40">
<path d="M41 1H1V41H41V1Z" fill="white"/>
</mask>
<g mask="url(#mask0_4919_2600)">
<path d="M22.1107 4.73357L37.2782 19.901C39.845 22.4678 39.845 26.6256 37.2782 29.1924L29.1818 37.2888C26.615 39.8556 22.4572 39.8556 19.8904 37.2888L4.72295 22.1213C2.15615 19.5545 2.15615 15.3968 4.72295 12.83L12.8194 4.73357C15.3862 2.16677 19.5439 2.16677 22.1107 4.73357Z" fill="white"/>
<path d="M12.1005 19.3405C11.0305 19.3405 10.0305 18.9205 9.27055 18.1705L5.73055 14.6305C4.97055 13.8705 4.56055 12.8705 4.56055 11.8005C4.56055 10.7305 4.98055 9.73055 5.73055 8.97055L8.97055 5.73055C9.73055 4.97055 10.7305 4.56055 11.8005 4.56055C12.8705 4.56055 13.8705 4.98055 14.6305 5.73055L18.1705 9.27055C18.9305 10.0305 19.3405 11.0305 19.3405 12.1005C19.3405 13.1705 18.9205 14.1705 18.1705 14.9305L14.9305 18.1705C14.1705 18.9305 13.1705 19.3405 12.1005 19.3405Z" fill="white"/>
<path d="M12.1005 17.3405C11.5905 17.3405 11.0805 17.1405 10.6905 16.7505L7.15055 13.2105C6.77055 12.8305 6.56055 12.3305 6.56055 11.8005C6.56055 11.2705 6.77055 10.7605 7.15055 10.3905L10.3905 7.15055C10.7805 6.76055 11.2905 6.56055 11.8005 6.56055C12.3105 6.56055 12.8205 6.76055 13.2105 7.15055L16.7505 10.6905C17.1305 11.0705 17.3405 11.5705 17.3405 12.1005C17.3405 12.6305 17.1305 13.1405 16.7505 13.5105L13.5105 16.7505C13.1205 17.1405 12.6105 17.3405 12.1005 17.3405Z" fill="#221F1F"/>
<path d="M20.6965 6.14747L35.864 21.3149C37.6459 23.0968 37.6459 25.996 35.864 27.7779L27.7676 35.8743C25.9857 37.6562 23.0865 37.6562 21.3046 35.8743L6.13721 20.7068C4.3553 18.9249 4.3553 16.0258 6.13721 14.2439L14.2336 6.14747C16.0155 4.36556 18.9146 4.36556 20.6965 6.14747Z" fill="#221F1F"/>
<path d="M12.1063 15.3433L15.352 12.0977L11.8164 8.56213L8.5708 11.8077L12.1063 15.3433Z" fill="#221F1F"/>
<path d="M26.3423 34.4488L34.4387 26.3524C35.4423 25.3488 35.4423 23.7215 34.4387 22.7179L19.2713 7.55047C18.2676 6.54682 16.6404 6.54682 15.6367 7.55047L7.54033 15.6468C6.53669 16.6505 6.53669 18.2777 7.54033 19.2814L22.7078 34.4488C23.7114 35.4524 25.3387 35.4524 26.3423 34.4488Z" fill="#CAE5FF"/>
<path d="M19.2792 7.55078C18.2792 6.55078 16.6492 6.55078 15.6492 7.55078L13.6992 9.50078L32.4992 28.3008L34.4492 26.3508C35.4492 25.3508 35.4492 23.7208 34.4492 22.7208L19.2792 7.55078Z" fill="white"/>
<path d="M34.4506 22.7206L31.8706 20.1406L20.1406 31.8706L22.7206 34.4506C23.7206 35.4506 25.3506 35.4506 26.3506 34.4506L34.4506 26.3506C35.4506 25.3506 35.4506 23.7206 34.4506 22.7206Z" fill="#D88C7D"/>
<path d="M32.4994 28.3006L34.4494 26.3506C35.4494 25.3506 35.4494 23.7206 34.4494 22.7206L31.8694 20.1406L28.1094 23.9006L32.5094 28.3006H32.4994Z" fill="#FFCCBD"/>
<path d="M31.7888 18.7894L19.2871 31.291L20.7013 32.7052L33.203 20.2036L31.7888 18.7894Z" fill="#221F1F"/>
</g>
</svg>
