<svg width="42" height="42" viewBox="0 0 42 42" fill="none" xmlns="http://www.w3.org/2000/svg">
<path d="M36 33.57V8.43C36 4.87881 33.1212 2 29.57 2H12.43C8.87881 2 6 4.87881 6 8.43V33.57C6 37.1212 8.87881 40 12.43 40H29.57C33.1212 40 36 37.1212 36 33.57Z" fill="white"/>
<path d="M34 33.57V8.43C34 5.98338 32.0166 4 29.57 4H12.43C9.98338 4 8 5.98338 8 8.43V33.57C8 36.0166 9.98338 38 12.43 38H29.57C32.0166 38 34 36.0166 34 33.57Z" fill="#221F1F"/>
<path d="M29.57 6H12.43C11.0879 6 10 7.08795 10 8.43V33.57C10 34.9121 11.0879 36 12.43 36H29.57C30.9121 36 32 34.9121 32 33.57V8.43C32 7.08795 30.9121 6 29.57 6Z" fill="#E4E4E4"/>
<path d="M10 13.25V33.57C10 34.91 11.09 36 12.43 36H29.56C29.76 36 29.96 35.97 30.15 35.92L10 13.25Z" fill="#C4C4C4"/>
<path d="M30 14V8H12V14H30Z" fill="#221F1F"/>
<path d="M28 12V10H14V12H28Z" fill="#9CDB9C"/>
<path d="M15 18.36V16.64C15 16.2865 14.7135 16 14.36 16H12.64C12.2865 16 12 16.2865 12 16.64V18.36C12 18.7135 12.2865 19 12.64 19H14.36C14.7135 19 15 18.7135 15 18.36Z" fill="#221F1F"/>
<path d="M20 18.36V16.64C20 16.2865 19.7135 16 19.36 16H17.64C17.2865 16 17 16.2865 17 16.64V18.36C17 18.7135 17.2865 19 17.64 19H19.36C19.7135 19 20 18.7135 20 18.36Z" fill="#221F1F"/>
<path d="M25 18.36V16.64C25 16.2865 24.7135 16 24.36 16H22.64C22.2865 16 22 16.2865 22 16.64V18.36C22 18.7135 22.2865 19 22.64 19H24.36C24.7135 19 25 18.7135 25 18.36Z" fill="#221F1F"/>
<path d="M30 18.36V16.64C30 16.2865 29.7135 16 29.36 16H27.64C27.2865 16 27 16.2865 27 16.64V18.36C27 18.7135 27.2865 19 27.64 19H29.36C29.7135 19 30 18.7135 30 18.36Z" fill="#221F1F"/>
<path d="M15 23.36V21.64C15 21.2865 14.7135 21 14.36 21H12.64C12.2865 21 12 21.2865 12 21.64V23.36C12 23.7135 12.2865 24 12.64 24H14.36C14.7135 24 15 23.7135 15 23.36Z" fill="#221F1F"/>
<path d="M20 23.36V21.64C20 21.2865 19.7135 21 19.36 21H17.64C17.2865 21 17 21.2865 17 21.64V23.36C17 23.7135 17.2865 24 17.64 24H19.36C19.7135 24 20 23.7135 20 23.36Z" fill="#221F1F"/>
<path d="M25 23.36V21.64C25 21.2865 24.7135 21 24.36 21H22.64C22.2865 21 22 21.2865 22 21.64V23.36C22 23.7135 22.2865 24 22.64 24H24.36C24.7135 24 25 23.7135 25 23.36Z" fill="#221F1F"/>
<path d="M30 23.36V21.64C30 21.2865 29.7135 21 29.36 21H27.64C27.2865 21 27 21.2865 27 21.64V23.36C27 23.7135 27.2865 24 27.64 24H29.36C29.7135 24 30 23.7135 30 23.36Z" fill="#221F1F"/>
<path d="M15 28.36V26.64C15 26.2865 14.7135 26 14.36 26H12.64C12.2865 26 12 26.2865 12 26.64V28.36C12 28.7135 12.2865 29 12.64 29H14.36C14.7135 29 15 28.7135 15 28.36Z" fill="#221F1F"/>
<path d="M20 28.36V26.64C20 26.2865 19.7135 26 19.36 26H17.64C17.2865 26 17 26.2865 17 26.64V28.36C17 28.7135 17.2865 29 17.64 29H19.36C19.7135 29 20 28.7135 20 28.36Z" fill="#221F1F"/>
<path d="M25 28.36V26.64C25 26.2865 24.7135 26 24.36 26H22.64C22.2865 26 22 26.2865 22 26.64V28.36C22 28.7135 22.2865 29 22.64 29H24.36C24.7135 29 25 28.7135 25 28.36Z" fill="#221F1F"/>
<path d="M30 28.36V26.64C30 26.2865 29.7135 26 29.36 26H27.64C27.2865 26 27 26.2865 27 26.64V28.36C27 28.7135 27.2865 29 27.64 29H29.36C29.7135 29 30 28.7135 30 28.36Z" fill="#221F1F"/>
<path d="M15 33.36V31.64C15 31.2865 14.7135 31 14.36 31H12.64C12.2865 31 12 31.2865 12 31.64V33.36C12 33.7135 12.2865 34 12.64 34H14.36C14.7135 34 15 33.7135 15 33.36Z" fill="#221F1F"/>
<path d="M20 33.36V31.64C20 31.2865 19.7135 31 19.36 31H17.64C17.2865 31 17 31.2865 17 31.64V33.36C17 33.7135 17.2865 34 17.64 34H19.36C19.7135 34 20 33.7135 20 33.36Z" fill="#221F1F"/>
<path d="M25 33.36V31.64C25 31.2865 24.7135 31 24.36 31H22.64C22.2865 31 22 31.2865 22 31.64V33.36C22 33.7135 22.2865 34 22.64 34H24.36C24.7135 34 25 33.7135 25 33.36Z" fill="#221F1F"/>
<path d="M30 33.36V31.64C30 31.2865 29.7135 31 29.36 31H27.64C27.2865 31 27 31.2865 27 31.64V33.36C27 33.7135 27.2865 34 27.64 34H29.36C29.7135 34 30 33.7135 30 33.36Z" fill="#221F1F"/>
<path d="M28 31H24V34H28V31Z" fill="#221F1F"/>
</svg>
