<svg width="42" height="42" viewBox="0 0 42 42" fill="none" xmlns="http://www.w3.org/2000/svg">
<path d="M12.0006 20C10.6506 20 9.40056 19.33 8.66056 18.2C7.92056 17.08 7.79056 15.66 8.32056 14.42L10.9006 8.41C11.7906 6.34 13.8206 5 16.0806 5H25.9306C28.1906 5 30.2206 6.34 31.1106 8.41L33.6906 14.42C34.2206 15.66 34.0906 17.07 33.3506 18.2C32.6106 19.33 31.3606 20 30.0106 20H12.0006Z" fill="white"/>
<path d="M40 29.38V16.62C40 12.4116 36.5884 9 32.38 9H9.62C5.41159 9 2 12.4116 2 16.62V29.38C2 33.5884 5.41159 37 9.62 37H32.38C36.5884 37 40 33.5884 40 29.38Z" fill="white"/>
<path d="M11.9991 18C11.3291 18 10.6991 17.66 10.3291 17.1C9.95911 16.54 9.89911 15.83 10.1591 15.21L12.7391 9.2C13.3091 7.86 14.6191 7 16.0791 7H25.9291C27.3891 7 28.6991 7.86 29.2691 9.2L31.8491 15.21C32.1091 15.83 32.0491 16.54 31.6791 17.1C31.3091 17.66 30.6791 18 30.0091 18H11.9991Z" fill="#221F1F"/>
<path d="M38 29.38V16.62C38 13.5162 35.4838 11 32.38 11H9.62C6.51616 11 4 13.5162 4 16.62V29.38C4 32.4838 6.51616 35 9.62 35H32.38C35.4838 35 38 32.4838 38 29.38Z" fill="#221F1F"/>
<path d="M30 16H12L14.58 9.99C14.84 9.39 15.43 9 16.08 9H25.93C26.58 9 27.17 9.39 27.43 9.99L30.01 16H30Z" fill="#979797"/>
<path d="M32.38 13H9.62C7.62073 13 6 14.6207 6 16.62V29.38C6 31.3793 7.62073 33 9.62 33H32.38C34.3793 33 36 31.3793 36 29.38V16.62C36 14.6207 34.3793 13 32.38 13Z" fill="#979797"/>
<path d="M24 11H18C17.4477 11 17 11.4477 17 12C17 12.5523 17.4477 13 18 13H24C24.5523 13 25 12.5523 25 12C25 11.4477 24.5523 11 24 11Z" fill="#221F1F"/>
<path d="M10.5 19C11.3284 19 12 18.3284 12 17.5C12 16.6716 11.3284 16 10.5 16C9.67157 16 9 16.6716 9 17.5C9 18.3284 9.67157 19 10.5 19Z" fill="#221F1F"/>
<path d="M32.3793 13H18.0293L24.9293 33H32.3793C34.3793 33 35.9993 31.38 35.9993 29.38V16.62C35.9993 14.62 34.3793 13 32.3793 13Z" fill="#C4C4C4"/>
<path d="M21 31.5C25.6944 31.5 29.5 27.6944 29.5 23C29.5 18.3056 25.6944 14.5 21 14.5C16.3056 14.5 12.5 18.3056 12.5 23C12.5 27.6944 16.3056 31.5 21 31.5Z" fill="#221F1F"/>
<path d="M21 29.5C24.5899 29.5 27.5 26.5899 27.5 23C27.5 19.4101 24.5899 16.5 21 16.5C17.4101 16.5 14.5 19.4101 14.5 23C14.5 26.5899 17.4101 29.5 21 29.5Z" fill="#8EBFE2"/>
<path d="M21 27.5C23.4853 27.5 25.5 25.4853 25.5 23C25.5 20.5147 23.4853 18.5 21 18.5C18.5147 18.5 16.5 20.5147 16.5 23C16.5 25.4853 18.5147 27.5 21 27.5Z" fill="#221F1F"/>
<path d="M22 23.5C22.8284 23.5 23.5 22.8284 23.5 22C23.5 21.1716 22.8284 20.5 22 20.5C21.1716 20.5 20.5 21.1716 20.5 22C20.5 22.8284 21.1716 23.5 22 23.5Z" fill="#9891F5"/>
</svg>
