<svg width="42" height="42" viewBox="0 0 42 42" fill="none" xmlns="http://www.w3.org/2000/svg">
<path d="M35 34.76V7.24C35 4.34603 32.654 2 29.76 2H12.24C9.34603 2 7 4.34603 7 7.24V34.76C7 37.654 9.34603 40 12.24 40H29.76C32.654 40 35 37.654 35 34.76Z" fill="white"/>
<path d="M33 34.76V7.24C33 5.4506 31.5494 4 29.76 4H12.24C10.4506 4 9 5.4506 9 7.24V34.76C9 36.5494 10.4506 38 12.24 38H29.76C31.5494 38 33 36.5494 33 34.76Z" fill="#221F1F"/>
<path d="M29.7598 6H25.8498C25.5198 6 25.2198 6.16 25.0398 6.44L24.2898 7.57C24.1098 7.84 23.7998 8.01 23.4798 8.01H18.5298C18.1998 8.01 17.8998 7.85 17.7198 7.57L16.9698 6.44C16.7898 6.17 16.4798 6 16.1598 6H12.2498C11.5698 6 11.0098 6.55 11.0098 7.24V34.76C11.0098 35.44 11.5598 36 12.2498 36H29.7698C30.4498 36 31.0098 35.45 31.0098 34.76V7.24C31.0098 6.56 30.4598 6 29.7698 6H29.7598Z" fill="#B7EDB7"/>
<path d="M12.24 36.0004H29.76C30.44 36.0004 31 35.4504 31 34.7604V33.2304L11 10.1504V34.7604C11 35.4404 11.55 36.0004 12.24 36.0004Z" fill="#9CDB9C"/>
<path d="M23.7603 12L15.7803 23.25H21.7803L23.7603 12Z" fill="#221F1F"/>
<path d="M18.2402 32L26.2202 20.75H20.2202L18.2402 32Z" fill="#221F1F"/>
</svg>
