<svg width="42" height="42" viewBox="0 0 42 42" fill="none" xmlns="http://www.w3.org/2000/svg">
<path d="M34.9 4.09998H7.1C4.3 4.09998 2 6.39998 2 9.19998V32.8C2 32.9 2 32.9 2 33C2 33.1 2 33.1 2 33.2C2 33.4 2 33.7 2.1 33.9C2.1 34 2.2 34.1 2.2 34.3C2.3 34.5 2.3 34.7 2.4 34.8C2.5 35 2.6 35.2 2.7 35.4C2.7 35.5 2.8 35.6 2.9 35.7C3.9 37.1 5.4 38 7.2 38H34.9C37.7 38 40 35.7 40 32.9V9.19998C40 6.39998 37.7 4.09998 34.9 4.09998Z" fill="white"/>
<path fill-rule="evenodd" clip-rule="evenodd" d="M34.9 34.9H7.1C6 34.9 5 34 5 32.8V9.19998C5 7.99998 6 7.09998 7.1 7.09998H34.8C36 7.09998 37 7.99998 37 9.19998V32.8C37 34 36 34.9 34.9 34.9Z" fill="#A2D6FF"/>
<path fill-rule="evenodd" clip-rule="evenodd" d="M13.4996 11.7C11.3996 11.7 9.59961 13.5 9.59961 15.6C9.59961 17.8 11.2996 19.5 13.4996 19.5C15.6996 19.5 17.3996 17.7 17.3996 15.6C17.2996 13.5 15.5996 11.7 13.4996 11.7Z" fill="#FCD26E"/>
<path fill-rule="evenodd" clip-rule="evenodd" d="M28.9 21.2L20.4 28.7L15 24L5 32.9C5 34.1 6 35 7.1 35H34.8C36 35 36.9 34 36.9 32.9V28.5L28.9 21.2Z" fill="#B7EDB7"/>
<path fill-rule="evenodd" clip-rule="evenodd" d="M28.8996 22.4H28.6996H28.5996L20.8996 29.1C20.5996 29.4 19.9996 29.6 19.6996 29.4L19.7996 29.5L24.9996 34H30.4996C29.0996 30.3 28.0996 25.8 28.8996 22.4ZM14.9996 25.2L14.7996 25.3L6.09961 33.2C6.29961 33.6 6.69961 33.9 7.09961 33.9H15.2996C14.2996 30.2 14.8996 25.8 14.9996 25.2Z" fill="#9CDB9C"/>
<path d="M34.9 35.9H7.1C5.4 35.9 4 34.6 4 32.9C4 32.6 4.1 32.3 4.3 32.1L14.2 23.3C14.6 23 15.1 23 15.5 23.3L20.2 27.4L28.1 20.5C28.5 20.2 29 20.2 29.4 20.5L37.5 27.7C37.7 27.9 37.8 28.2 37.8 28.5V32.9C38 34.5 36.6 35.9 34.9 35.9ZM6.1 33.2C6.3 33.6 6.7 33.9 7.1 33.9H34.8C35.4 33.9 35.9 33.4 35.9 32.8V28.9L28.8 22.6L21 29.5C20.6 29.8 20.1 29.8 19.7 29.5L15 25.3L6.1 33.2Z" fill="#221F1F"/>
<path d="M34.9 35.9H7.1C5.4 35.9 4 34.5 4 32.8V9.19998C4 7.49998 5.4 6.09998 7.1 6.09998H34.8C36.5 6.09998 37.9 7.49998 37.9 9.19998V32.8C38 34.5 36.6 35.9 34.9 35.9ZM7.1 8.09998C6.5 8.09998 6 8.59998 6 9.19998V32.8C6 33.4 6.5 33.9 7.1 33.9H34.8C35.4 33.9 35.9 33.4 35.9 32.8V9.19998C35.9 8.59998 35.4 8.09998 34.8 8.09998H7.1Z" fill="#221F1F"/>
<path d="M13.4996 20.5C10.7996 20.5 8.59961 18.3 8.59961 15.6C8.59961 12.9 10.7996 10.7 13.4996 10.7C16.1996 10.7 18.3996 12.9 18.3996 15.6C18.2996 18.3 16.1996 20.5 13.4996 20.5ZM13.4996 12.7C11.8996 12.7 10.5996 14 10.5996 15.6C10.5996 17.2 11.8996 18.5 13.4996 18.5C15.0996 18.5 16.3996 17.2 16.3996 15.6C16.2996 14 15.0996 12.7 13.4996 12.7Z" fill="#221F1F"/>
</svg>
