<svg width="42" height="42" viewBox="0 0 42 42" fill="none" xmlns="http://www.w3.org/2000/svg">
<path d="M5.99986 38C4.63986 38 3.38986 37.32 2.64986 36.18C1.90986 35.04 1.79986 33.62 2.34986 32.38L6.34986 23.38C6.98986 21.94 8.42986 21 10.0099 21H32.0099C33.5899 21 35.0199 21.93 35.6699 23.38L39.6699 32.38C40.2199 33.62 40.1099 35.05 39.3699 36.19C38.6299 37.33 37.3799 38.01 36.0199 38.01H5.99986V38Z" fill="white"/>
<path d="M36 23V8C36 5.79086 34.2091 4 32 4H10C7.79086 4 6 5.79086 6 8V23C6 25.2091 7.79086 27 10 27H32C34.2091 27 36 25.2091 36 23Z" fill="white"/>
<path d="M6.00021 36C5.32021 36 4.69021 35.66 4.32021 35.09C3.95021 34.52 3.89021 33.81 4.17021 33.19L8.17021 24.19C8.49021 23.47 9.21021 23 10.0002 23H32.0002C32.7902 23 33.5102 23.47 33.8302 24.19L37.8302 33.19C38.1002 33.81 38.0502 34.52 37.6802 35.09C37.3102 35.66 36.6802 36 36.0002 36H6.00021Z" fill="#221F1F"/>
<path d="M32 25H10L6 34H36L32 25Z" fill="#E4E4E4"/>
<path d="M9.08008 32L11.3001 27H30.7001L32.9201 32H9.08008Z" fill="#221F1F"/>
<path d="M33 30H9V33H33V30Z" fill="#E4E4E4"/>
<path d="M34 23V8C34 6.89543 33.1046 6 32 6H10C8.89543 6 8 6.89543 8 8V23C8 24.1046 8.89543 25 10 25H32C33.1046 25 34 24.1046 34 23Z" fill="#221F1F"/>
<path d="M16.77 32L17.56 27H24.44L25.23 32H16.77Z" fill="#221F1F"/>
<path d="M32 8H10V23H32V8Z" fill="#E4E4E4"/>
<path opacity="0.77" d="M17.43 8H10V23H24.61L17.43 8Z" fill="#9E9E9E"/>
<path d="M30 21V10H12V21H30Z" fill="#221F1F"/>
<path d="M28 17H25V19H28V17Z" fill="#9CDB9C"/>
<path d="M28 13H25V15H28V13Z" fill="#A2D6FF"/>
<path d="M23 17H20V19H23V17Z" fill="#9992F6"/>
<path d="M18 17H15V19H18V17Z" fill="#F0AA97"/>
<path d="M23 13H20V15H23V13Z" fill="#F7DF69"/>
</svg>
