<svg width="42" height="42" viewBox="0 0 42 42" fill="none" xmlns="http://www.w3.org/2000/svg">
<path d="M35.1998 19.5V16C35.1998 14.3 33.8998 13 32.1998 13H30.1998V11C30.1998 5.90005 26.0998 1.80005 20.9998 1.80005C15.8998 1.80005 11.7998 5.90005 11.7998 11V13H9.7998C8.0998 13 6.7998 14.3 6.7998 16V19.5C6.7998 24.9 9.8998 29.7 14.4998 32.1L11.0998 34.8C10.0998 35.6 9.6998 36.9 10.1998 38.1C10.5998 39.3 11.7998 40.1 12.9998 40.1H28.9998C30.2998 40.1 31.3998 39.3 31.7998 38.1C32.1998 36.9 31.7998 35.6 30.7998 34.8L27.3998 32.1C32.0998 29.7 35.1998 24.9 35.1998 19.5Z" fill="white"/>
<path d="M20.9998 31.8C14.2998 31.8 8.7998 26.3 8.7998 19.6V16C8.7998 15.4 9.1998 15 9.7998 15H32.1998C32.7998 15 33.1998 15.4 33.1998 16V19.5C33.1998 26.3 27.6998 31.8 20.9998 31.8ZM10.7998 17V19.5C10.7998 25.1 15.3998 29.7 20.9998 29.7C26.5998 29.7 31.1998 25.1 31.1998 19.5V17H10.7998Z" fill="#221F1F"/>
<path fill-rule="evenodd" clip-rule="evenodd" d="M20.9998 25.7001C17.5998 25.7001 14.7998 22.9 14.7998 19.5V11C14.7998 7.60005 17.5998 4.80005 20.9998 4.80005C24.3998 4.80005 27.1998 7.60005 27.1998 11V19.5C27.1998 23 24.3998 25.7001 20.9998 25.7001Z" fill="#C4C4C4"/>
<path d="M20.9998 26.8C16.9998 26.8 13.7998 23.6 13.7998 19.6V11C13.7998 7.00005 16.9998 3.80005 20.9998 3.80005C24.9998 3.80005 28.1998 7.00005 28.1998 11V19.5C28.1998 23.5 24.9998 26.8 20.9998 26.8ZM20.9998 5.80005C18.0998 5.80005 15.7998 8.10005 15.7998 11V19.5C15.7998 22.4 18.0998 24.7001 20.9998 24.7001C23.8998 24.7001 26.1998 22.4 26.1998 19.5V11C26.1998 8.10005 23.8998 5.80005 20.9998 5.80005Z" fill="#221F1F"/>
<path fill-rule="evenodd" clip-rule="evenodd" d="M29 37.2001L21 30.8L13 37.2001H29Z" fill="#C4C4C4"/>
<path d="M29 38.2001H13C12.6 38.2001 12.2 37.9 12.1 37.5C12 37.1 12.1 36.7001 12.4 36.4001L20.4 29.9C20.8 29.6 21.3 29.6 21.7 29.9L29.7 36.4001C30 36.7001 30.2 37.1 30 37.5C29.8 37.9 29.5 38.2001 29 38.2001ZM15.8 36.2H26.2L21 32L15.8 36.2Z" fill="#221F1F"/>
<path fill-rule="evenodd" clip-rule="evenodd" d="M16.3998 8.6001C15.9998 9.3001 15.7998 10.1001 15.7998 11.0001V19.5001C15.7998 22.4001 18.0998 24.7001 20.9998 24.7001C21.2998 24.7001 21.4998 24.7001 21.7998 24.6001V15.2001C21.7998 12.0001 19.4998 9.3001 16.3998 8.6001Z" fill="#979797"/>
</svg>
