<svg width="42" height="42" viewBox="0 0 42 42" fill="none" xmlns="http://www.w3.org/2000/svg">
<path d="M8.63136 41.1075C7.40286 41.1075 6.24786 40.866 5.19786 40.383C3.37086 39.543 2.01636 38.0625 1.40736 36.1935C0.105357 32.2245 2.61486 27.4995 7.00386 25.6725C8.21136 25.1685 9.46086 24.9165 10.7104 24.9165C11.1409 24.9165 11.5714 24.948 11.9914 25.011V8.20051C11.9914 7.80151 12.0649 7.41301 12.2224 7.03501C12.2749 6.90901 12.3589 6.74101 12.4429 6.61501C12.5164 6.48901 12.6424 6.26851 12.8524 6.05851C12.9574 5.94301 13.0939 5.82751 13.2304 5.73301C13.3144 5.65951 13.5139 5.50201 13.8079 5.36551C13.9234 5.31301 14.0494 5.26051 14.1859 5.21851C14.3014 5.17651 14.4799 5.11351 14.7109 5.08201L36.3094 1.93201C36.3829 1.93201 36.4564 1.91101 36.5299 1.91101C36.6034 1.91101 36.6769 1.90051 36.7609 1.90051C36.9184 1.90051 37.1389 1.93201 37.3174 1.97401C37.4644 1.99501 37.6219 2.02651 37.7794 2.08951C38.0314 2.18401 38.2204 2.28901 38.3674 2.37301C38.4829 2.43601 38.6509 2.53051 38.8189 2.67751C38.8819 2.73001 38.9449 2.79301 38.9974 2.85601C39.1654 3.02401 39.2914 3.21301 39.3964 3.38101C39.4699 3.47551 39.5539 3.61201 39.6274 3.78001C39.8059 4.18951 39.9004 4.62001 39.9004 5.05051V28.7385C39.9004 28.7385 39.9004 28.833 39.9004 28.8855C39.9004 32.3295 37.4854 35.721 33.9574 37.191C32.7499 37.695 31.5004 37.947 30.2509 37.947C29.0014 37.947 27.8674 37.7055 26.8174 37.2225C24.9904 36.3825 23.6359 34.902 23.0269 33.033C21.7249 29.064 24.2344 24.339 28.6234 22.512C29.8309 22.008 31.0804 21.756 32.3299 21.756C32.7604 21.756 33.1909 21.7875 33.6109 21.8505V16.632L18.3019 18.858V31.8885C18.3019 31.8885 18.3019 31.983 18.3019 32.0355C18.3019 35.469 15.8869 38.871 12.3589 40.341C11.1514 40.845 9.90186 41.097 8.65236 41.097L8.63136 41.1075Z" fill="white"/>
<path fill-rule="evenodd" clip-rule="evenodd" d="M36.7391 5.05054V12.999L15.1406 16.149V8.20054L36.7391 5.05054Z" fill="#D88C7D"/>
<path fill-rule="evenodd" clip-rule="evenodd" d="M36.551 27.657C37.3595 30.1035 35.648 33.075 32.7395 34.293C29.831 35.511 26.8175 34.5135 26.009 32.067C25.2005 29.6205 26.912 26.649 29.8205 25.431C32.729 24.213 35.7425 25.2105 36.551 27.657Z" fill="#D88C7D"/>
<path fill-rule="evenodd" clip-rule="evenodd" d="M14.9416 30.807C15.7501 33.2535 14.0386 36.225 11.1301 37.443C8.2216 38.661 5.2081 37.6635 4.3996 35.217C3.5911 32.7705 5.3026 29.799 8.2111 28.581C11.1196 27.363 14.1331 28.3605 14.9416 30.807Z" fill="#D88C7D"/>
<path fill-rule="evenodd" clip-rule="evenodd" d="M12.7994 36.435C14.6474 34.9755 15.5819 32.7285 14.9519 30.807C14.1434 28.3605 11.1299 27.363 8.22141 28.581C7.81191 28.749 7.42341 28.9695 7.06641 29.2005C9.79641 30.6915 11.8859 33.2955 12.7994 36.435Z" fill="#F0AA97"/>
<path fill-rule="evenodd" clip-rule="evenodd" d="M34.398 33.285C36.246 31.8255 37.1805 29.5785 36.5505 27.657C35.742 25.2105 32.7285 24.213 29.82 25.431C29.4105 25.599 29.022 25.8195 28.665 26.0505C31.395 27.5415 33.4845 30.1455 34.398 33.285Z" fill="#F0AA97"/>
<path d="M8.63144 39.0076C7.72845 39.0076 6.85695 38.8291 6.06945 38.4721C4.77795 37.8841 3.83295 36.834 3.40245 35.5425C2.43645 32.592 4.41045 29.0326 7.81245 27.6151C9.67095 26.8381 11.6659 26.8171 13.2724 27.5521C14.5639 28.1401 15.5089 29.1901 15.9394 30.4816C16.9054 33.4321 14.9314 36.9916 11.5294 38.4091C10.5739 38.8081 9.58695 39.0076 8.63144 39.0076ZM10.7104 29.1061C10.0279 29.1061 9.31394 29.2531 8.62094 29.5471C6.20594 30.5551 4.75695 32.9491 5.39745 34.8811C5.71245 35.8261 6.40545 36.3196 6.94095 36.5611C8.02245 37.0546 9.39794 37.0231 10.7209 36.4771C13.1359 35.4691 14.5849 33.0751 13.9444 31.1431C13.6294 30.1981 12.9364 29.7046 12.4009 29.4631C11.8864 29.2321 11.3194 29.1166 10.7104 29.1166V29.1061Z" fill="#221F1F"/>
<path d="M15.1408 32.949C14.5633 32.949 14.0908 32.4765 14.0908 31.899V8.20051C14.0908 7.62301 14.5633 7.15051 15.1408 7.15051C15.7183 7.15051 16.1908 7.62301 16.1908 8.20051V31.8885C16.1908 32.466 15.7183 32.9385 15.1408 32.9385V32.949Z" fill="#221F1F"/>
<path d="M30.2398 35.8575C29.3368 35.8575 28.4653 35.679 27.6778 35.322C26.3863 34.734 25.4413 33.684 25.0108 32.3925C24.0448 29.442 26.0188 25.8825 29.4208 24.465C31.2793 23.688 33.2743 23.667 34.8808 24.402C36.1723 24.99 37.1173 26.04 37.5478 27.3315C38.5138 30.282 36.5398 33.8415 33.1378 35.259C32.1823 35.658 31.1953 35.8575 30.2398 35.8575ZM32.3188 25.956C31.6363 25.956 30.9223 26.103 30.2293 26.397C27.8143 27.405 26.3653 29.799 27.0058 31.731C27.3208 32.676 28.0138 33.1695 28.5493 33.411C29.6308 33.9045 31.0063 33.873 32.3293 33.327C34.7443 32.319 36.1933 29.925 35.5528 27.993C35.2378 27.048 34.5448 26.5545 34.0093 26.313C33.4948 26.082 32.9278 25.9665 32.3188 25.9665V25.956Z" fill="#221F1F"/>
<path d="M36.7395 29.799C36.162 29.799 35.6895 29.3265 35.6895 28.749V5.05049C35.6895 4.47299 36.162 4.00049 36.7395 4.00049C37.317 4.00049 37.7895 4.47299 37.7895 5.05049V28.7385C37.7895 29.316 37.317 29.7885 36.7395 29.7885V29.799Z" fill="#221F1F"/>
<path d="M15.1408 17.199C14.8888 17.199 14.6473 17.115 14.4583 16.947C14.2273 16.7475 14.0908 16.4535 14.0908 16.149V8.21104C14.0908 7.68604 14.4688 7.24504 14.9938 7.17154L36.6028 4.02154C36.8968 3.97954 37.2118 4.06354 37.4428 4.26304C37.6738 4.46254 37.8103 4.75654 37.8103 5.06104V12.999C37.8103 13.524 37.4323 13.965 36.9073 14.0385L15.2983 17.1885C15.2983 17.1885 15.1933 17.199 15.1513 17.199H15.1408ZM16.1908 9.11404V14.931L35.6998 12.0855V6.26854L16.1908 9.11404Z" fill="#221F1F"/>
</svg>
