<svg width="42" height="42" viewBox="0 0 42 42" fill="none" xmlns="http://www.w3.org/2000/svg">
<path d="M32.7 2.4C32 2.2 31.3 2 30.6 2C29.6 2 28.7 2.2 27.8 2.7C26.3 3.5 25.2 4.8 24.8 6.4L22.9 11.4C22.9 11.3 22.9 11.1 22.9 11C22.9 9.4 21.7 8.2 20.2 8C21.6 7.8 22.7 6.5 22.7 5.1C22.7 3.4 21.4 2.1 19.7 2.1C9.9 2 2 9.9 2 19.7C2 21.4 3.3 22.7 5 22.7C6.5 22.7 7.7 21.6 8 20.1C8.2 21.6 9.5 22.8 11 22.8C11.2 22.8 11.4 22.8 11.6 22.7L6.5 24.7C4.9 25.2 3.5 26.3 2.8 27.7C2 29.2 1.9 31 2.5 32.6C4.5 38 9.4 39.9 13.2 39.9C13.5 39.9 13.7 39.9 14 39.9C20 39.3 26.3 36.1 31.3 31.1C36.3 26.1 39.5 19.8 40.1 13.7C40.2 10.7 38.9 4.7 32.7 2.4Z" fill="white"/>
<path fill-rule="evenodd" clip-rule="evenodd" d="M7.39995 27.6L12.8999 25.5C13.6999 25.1 14.6999 25.4 15.1999 26.2L16.2999 28.3C16.5999 28.8 17.2999 29 17.7999 28.7C19.9999 27.4 22.0999 25.9 23.9999 23.9C25.8999 22 27.4999 19.9 28.7999 17.7C29.0999 17.2 28.8999 16.5 28.3999 16.2L26.2999 15.1C25.4999 14.7 25.1999 13.6 25.5999 12.8L27.6999 7.29997C28.0999 5.49997 29.9999 4.49997 31.6999 5.09997C36.1999 6.79997 37.1999 11.1 37.0999 13.5C36.5999 18.7 33.7999 24.3 29.1999 29C24.5 33.7 18.8999 36.4 13.6999 36.9C11.3999 37.1 6.99995 36.1 5.29995 31.5C4.59995 29.9 5.59995 28 7.39995 27.6Z" fill="#B9B9FF"/>
<path d="M13.1999 37.9C10.5999 37.9 6.19987 36.7 4.39987 31.8C3.99987 30.8 3.99987 29.7 4.49987 28.7C4.99987 27.7 5.99987 26.9 7.09987 26.6L12.4999 24.5C13.6999 23.9 15.1999 24.4 15.9999 25.6L17.0999 27.8H17.1999C19.6999 26.3 21.5999 24.9 23.1999 23.2C24.9999 21.4 26.5999 19.4 27.8999 17.2C27.8999 17.2 27.8999 17.1 27.7999 17.1L25.7999 16C24.5999 15.4 23.9999 13.7 24.6999 12.4L26.6999 7.09996C26.9999 5.99996 27.6999 5.09996 28.6999 4.49996C29.6999 3.89996 30.8999 3.79996 31.9999 4.19996C36.6999 5.99996 38.1999 10.4 38.0999 13.6C37.5999 19.1 34.5999 25 29.8999 29.8C25.1999 34.5 19.3999 37.5 13.7999 38C13.5999 37.9 13.3999 37.9 13.1999 37.9ZM13.6999 26.3C13.5999 26.3 13.4999 26.3 13.3999 26.4L7.79987 28.5H7.69987C7.09987 28.6 6.59987 29 6.39987 29.5C6.19987 30 6.09987 30.5 6.29987 31C7.79987 35.2 11.7999 36 13.6999 35.8C18.8999 35.3 24.1999 32.6 28.5999 28.2C32.9999 23.8 35.6999 18.3 36.1999 13.3C36.1999 12.8 36.2999 7.79996 31.3999 5.89996C30.8999 5.69996 30.1999 5.79996 29.6999 6.09996C29.1999 6.39996 28.7999 6.89996 28.6999 7.39996V7.49996L26.5999 13C26.3999 13.4 26.4999 13.9 26.7999 14L28.8999 15.1C29.3999 15.4 29.7999 15.9 29.8999 16.4C29.9999 16.9 29.9999 17.5 29.6999 18C28.2999 20.3 26.6999 22.5 24.6999 24.4C22.9999 26.2 20.8999 27.8 18.2999 29.4C17.2999 30 15.9999 29.6 15.3999 28.7L14.2999 26.5C14.1999 26.5 13.8999 26.3 13.6999 26.3Z" fill="#221F1F"/>
<path fill-rule="evenodd" clip-rule="evenodd" d="M10.8999 27.2999L7.79993 28.4999H7.69993C7.09993 28.5999 6.59993 28.9999 6.29993 29.5999C5.99993 30.0999 5.99993 30.6999 6.19993 31.2999C7.69993 35.2999 11.4999 36.1999 13.5999 35.9999C15.1999 35.7999 16.8999 35.3999 18.5999 34.7999C15.4999 32.7999 12.8999 30.2999 10.8999 27.2999Z" fill="#9891F5"/>
<path d="M5 20.7C4.4 20.7 4 20.3 4 19.7C4 11 11 4 19.7 4C20.3 4 20.7 4.4 20.7 5C20.7 5.6 20.3 6 19.7 6C12.1 6 6 12.1 6 19.7C6 20.3 5.6 20.7 5 20.7Z" fill="#221F1F"/>
<path d="M11 20.7C10.4 20.7 10 20.3 10 19.7C10 14.4 14.4 10 19.7 10C20.3 10 20.7 10.4 20.7 11C20.7 11.6 20.3 12 19.7 12C15.5 12 12 15.5 12 19.7C12 20.3 11.6 20.7 11 20.7Z" fill="#221F1F"/>
</svg>
