<svg width="42" height="42" viewBox="0 0 42 42" fill="none" xmlns="http://www.w3.org/2000/svg">
<path d="M32 23C29.79 23 28 21.21 28 19V17C28 14.79 29.79 13 32 13C34.21 13 36 14.79 36 17V19C36 21.21 34.21 23 32 23Z" fill="white"/>
<path d="M35 27.62V14.38C35 9.75185 31.2481 6 26.62 6H15.38C10.7519 6 7 9.75185 7 14.38V27.62C7 32.2481 10.7519 36 15.38 36H26.62C31.2481 36 35 32.2481 35 27.62Z" fill="white"/>
<path d="M34 17C34 15.8954 33.1046 15 32 15C30.8954 15 30 15.8954 30 17V19C30 20.1046 30.8954 21 32 21C33.1046 21 34 20.1046 34 19V17Z" fill="#221F1F"/>
<path d="M21.0002 40.0005C13.2502 40.0005 12.0902 36.6705 12.0902 34.6805C12.0802 34.3305 11.9302 33.7105 11.8102 33.4805C10.4602 32.1105 10.0402 30.3305 10.7102 28.6805C11.4002 26.9905 13.0402 25.9805 15.1202 25.9805C15.3202 25.9805 15.5302 25.9805 15.7702 26.0105C15.8802 26.0105 15.9802 26.0005 16.0902 26.0005H25.9102C26.0202 26.0005 26.1302 26.0005 26.2302 26.0105C26.4602 25.9905 26.6702 25.9905 26.8702 25.9905C28.9402 25.9905 30.5902 27.0005 31.2802 28.6905C31.9502 30.3305 31.5402 32.1105 30.1802 33.4805C30.0602 33.7205 29.9202 34.3405 29.9002 34.7905C29.9002 35.9805 29.4002 38.2305 26.0402 39.3305C24.6902 39.7705 22.9902 40.0005 20.9902 40.0005H21.0002Z" fill="white"/>
<path d="M26.88 16.0102C26.68 16.0102 26.47 16.0102 26.23 15.9802C26.12 15.9802 26.02 15.9902 25.91 15.9902H16.09C15.98 15.9902 15.87 15.9902 15.77 15.9802C15.54 16.0002 15.33 16.0002 15.13 16.0002C13.06 16.0002 11.41 14.9902 10.72 13.3002C10.05 11.6602 10.46 9.88023 11.82 8.51023C11.94 8.27023 12.08 7.65023 12.1 7.20023C12.1 6.01023 12.6 3.76023 15.96 2.66023C17.31 2.22023 19.01 1.99023 21.01 1.99023C28.76 1.99023 29.92 5.32023 29.92 7.31023C29.93 7.66023 30.08 8.28023 30.2 8.51023C31.55 9.88023 31.97 11.6702 31.3 13.3102C30.61 15.0002 28.97 16.0102 26.89 16.0102H26.88Z" fill="white"/>
<path d="M20.9992 38.0005C18.4192 38.0005 14.0892 37.5705 14.0892 34.6805C14.0692 33.9705 13.7992 32.6205 13.2892 32.1205C12.1192 30.9805 12.3992 29.8605 12.5692 29.4305C12.7892 28.8905 13.4192 27.9805 15.1192 27.9805C15.3192 27.9805 15.5492 27.9905 15.7992 28.0105C15.8892 28.0005 15.9892 27.9905 16.0892 27.9905H25.9092C26.0092 27.9905 26.1092 27.9905 26.2092 28.0105C26.4492 27.9905 26.6792 27.9805 26.8792 27.9805C28.5892 27.9805 29.2092 28.8905 29.4292 29.4305C29.5992 29.8605 29.8792 30.9805 28.7092 32.1205C28.1992 32.6205 27.9292 33.9705 27.9092 34.7305C27.9092 37.5705 23.5792 38.0005 20.9992 38.0005Z" fill="#221F1F"/>
<path d="M26.8792 14.0102C26.6792 14.0102 26.4492 14.0002 26.1992 13.9802C26.1092 13.9902 26.0092 14.0002 25.9092 14.0002H16.0892C15.9892 14.0002 15.8892 14.0002 15.7892 13.9802C15.5492 14.0002 15.3192 14.0102 15.1192 14.0102C13.4092 14.0102 12.7892 13.1002 12.5692 12.5602C12.3992 12.1302 12.1192 11.0102 13.2892 9.87023C13.7992 9.37023 14.0692 8.02023 14.0892 7.26023C14.0892 4.42023 18.4192 3.99023 20.9992 3.99023C23.5792 3.99023 27.9092 4.42023 27.9092 7.31023C27.9292 8.02023 28.1992 9.37023 28.7092 9.87023C29.8792 11.0102 29.5992 12.1302 29.4292 12.5602C29.2092 13.1002 28.5792 14.0102 26.8792 14.0102Z" fill="#221F1F"/>
<path d="M33 27.62V14.38C33 10.8564 30.1436 8 26.62 8H15.38C11.8564 8 9 10.8564 9 14.38V27.62C9 31.1436 11.8564 34 15.38 34H26.62C30.1436 34 33 31.1436 33 27.62Z" fill="#221F1F"/>
<path d="M27.3191 30.6906C25.9691 32.0106 25.9091 34.6806 25.9091 34.6806C25.9091 35.4106 23.7091 36.0006 20.9991 36.0006C18.2891 36.0006 16.0891 35.4106 16.0891 34.6806C16.0891 34.6806 16.0391 32.0106 14.6791 30.6906C13.8691 29.9006 15.0191 29.9106 16.0891 30.0706V30.0006H25.9091V30.0706C26.9691 29.9206 28.1291 29.9006 27.3191 30.6906Z" fill="#979797"/>
<path d="M27.3191 11.31C25.9691 9.99 25.9091 7.32 25.9091 7.32C25.9091 6.59 23.7091 6 20.9991 6C18.2891 6 16.0891 6.59 16.0891 7.32C16.0891 7.32 16.0391 9.99 14.6791 11.31C13.8691 12.1 15.0191 12.09 16.0891 11.93V12H25.9091V11.93C26.9691 12.08 28.1291 12.1 27.3191 11.31Z" fill="#979797"/>
<path d="M9 20.6602V27.6302C9 31.1502 11.86 34.0102 15.38 34.0102H26.63C30.15 34.0102 33.01 31.1502 33.01 27.6302V20.6602H9Z" fill="#221F1F"/>
<path d="M31 27.62V14.38C31 11.961 29.039 10 26.62 10H15.38C12.961 10 11 11.961 11 14.38V27.62C11 30.039 12.961 32 15.38 32H26.62C29.039 32 31 30.039 31 27.62Z" fill="#979797"/>
<path d="M26.6202 10H15.3702C12.9602 10 10.9902 11.96 10.9902 14.38V16.65L30.9902 25.06V14.38C30.9902 11.97 29.0302 10 26.6102 10H26.6202Z" fill="#C4C4C4"/>
<path d="M29 27.62V14.38C29 13.0656 27.9344 12 26.62 12H15.38C14.0656 12 13 13.0656 13 14.38V27.62C13 28.9344 14.0656 30 15.38 30H26.62C27.9344 30 29 28.9344 29 27.62Z" fill="#221F1F"/>
<path d="M21.0003 25.0301C12.2203 20.2401 18.5703 14.2901 21.0003 18.3001C23.4303 14.2901 29.7803 20.2401 21.0003 25.0301Z" fill="#D88C7D"/>
</svg>
