<svg width="42" height="42" viewBox="0 0 42 42" fill="none" xmlns="http://www.w3.org/2000/svg">
<path d="M40 26.15V7.85C40 4.61913 37.3809 2 34.15 2H7.85C4.61913 2 2 4.61913 2 7.85V26.15C2 29.3809 4.61913 32 7.85 32H34.15C37.3809 32 40 29.3809 40 26.15Z" fill="white"/>
<path fill-rule="evenodd" clip-rule="evenodd" d="M22.8 40C21.47 40 20.24 39.34 19.49 38.25L17.69 35.6C17.24 34.94 17 34.16 17 33.35V26C17 24.78 17.55 23.64 18.5 22.88C19.21 22.31 20.1 22 21 22C21.29 22 21.59 22.03 21.87 22.1L29.28 23.75C32.01 24.36 34 26.9 34 29.8V34.68C34 37.62 31.67 40.01 28.8 40.01H22.8V40Z" fill="white"/>
<path fill-rule="evenodd" clip-rule="evenodd" d="M22.53 40C21.04 40 19.64 39.42 18.59 38.37L14.11 33.89C13.07 32.85 12.5 31.47 12.5 30C12.5 28.53 13.07 27.15 14.11 26.11C15.15 25.07 16.53 24.5 18 24.5C19.47 24.5 20.85 25.07 21.89 26.11L26.89 31.11C28.96 33.18 29.04 36.51 27.07 38.69C26.32 39.52 25.24 40 24.11 40H22.54H22.53Z" fill="white"/>
<path d="M38 26.15V7.85C38 5.7237 36.2763 4 34.15 4H7.85C5.72371 4 4 5.7237 4 7.85V26.15C4 28.2763 5.72371 30 7.85 30H34.15C36.2763 30 38 28.2763 38 26.15Z" fill="#221F1F"/>
<path d="M34.15 6H7.85C6.82827 6 6 6.82827 6 7.85V26.15C6 27.1717 6.82827 28 7.85 28H34.15C35.1717 28 36 27.1717 36 26.15V7.85C36 6.82827 35.1717 6 34.15 6Z" fill="#B9B9FF"/>
<path d="M35.9198 26.66L11.7098 6H7.85977C6.83977 6 6.00977 6.83 6.00977 7.85V26.14C6.00977 27.16 6.83977 27.99 7.85977 27.99H34.1498C34.9898 27.99 35.6998 27.42 35.9198 26.65V26.66Z" fill="#9992F6"/>
<path d="M25 19H22V22H25V19Z" fill="#221F1F"/>
<path fill-rule="evenodd" clip-rule="evenodd" d="M22.25 32C20.46 32 19 30.54 19 28.75V20.25C19 18.46 20.46 17 22.25 17C24.04 17 25.5 18.46 25.5 20.25V28.75C25.5 30.54 24.04 32 22.25 32Z" fill="#221F1F"/>
<path fill-rule="evenodd" clip-rule="evenodd" d="M22.8 38C22.14 38 21.52 37.67 21.15 37.12L19.35 34.47C19.12 34.14 19 33.75 19 33.35V26C19 25.39 19.28 24.82 19.75 24.44C20.11 24.15 20.55 24 21 24C21.14 24 21.29 24.02 21.43 24.05L28.85 25.7C30.68 26.11 32 27.83 32 29.8V34.68C32 36.52 30.57 38.01 28.8 38.01H22.8V38Z" fill="#221F1F"/>
<path fill-rule="evenodd" clip-rule="evenodd" d="M22.53 38.0002C21.57 38.0002 20.68 37.6302 20 36.9502L15.52 32.4702C14.16 31.1102 14.16 28.8902 15.52 27.5202C16.18 26.8602 17.06 26.4902 17.99 26.4902C18.92 26.4902 19.8 26.8502 20.46 27.5202L25.46 32.5202C26.78 33.8402 26.82 35.9502 25.57 37.3402C25.19 37.7602 24.65 38.0002 24.09 38.0002H22.52H22.53Z" fill="#221F1F"/>
<path d="M23.5 20.25C23.5 19.5596 22.9404 19 22.25 19C21.5596 19 21 19.5596 21 20.25V28.75C21 29.4404 21.5596 30 22.25 30C22.9404 30 23.5 29.4404 23.5 28.75V20.25Z" fill="#EDD286"/>
<path fill-rule="evenodd" clip-rule="evenodd" d="M28.8 36H22.8L21 33.35V26L28.42 27.65C29.34 27.85 30 28.75 30 29.8V34.67C30 35.4 29.46 36 28.8 36Z" fill="#EDD286"/>
<path fill-rule="evenodd" clip-rule="evenodd" d="M24.1007 36.0005C24.6307 35.4105 24.6307 34.5105 24.0607 33.9405L19.0607 28.9405C18.4707 28.3505 17.5207 28.3505 16.9407 28.9405C16.3607 29.5305 16.3507 30.4805 16.9407 31.0605L21.4207 35.5405C21.7207 35.8405 22.1207 36.0005 22.5407 36.0005H24.1107H24.1007Z" fill="#EDD286"/>
<path d="M21.4207 35.5405C21.7207 35.8405 22.1207 36.0005 22.5407 36.0005H28.5507L21.0007 29.5605V30.8805L19.0607 28.9405C18.4707 28.3505 17.5207 28.3505 16.9407 28.9405C16.3607 29.5305 16.3507 30.4805 16.9407 31.0605L21.4207 35.5405Z" fill="#D0B366"/>
</svg>
