<svg width="42" height="42" viewBox="0 0 42 42" fill="none" xmlns="http://www.w3.org/2000/svg">
<path d="M40 26.15V7.85C40 4.61913 37.3809 2 34.15 2H7.85C4.61913 2 2 4.61913 2 7.85V26.15C2 29.3809 4.61913 32 7.85 32H34.15C37.3809 32 40 29.3809 40 26.15Z" fill="white"/>
<path fill-rule="evenodd" clip-rule="evenodd" d="M23.8 40C22.47 40 21.24 39.34 20.49 38.25L18.69 35.6C18.24 34.94 18 34.16 18 33.35V26C18 24.78 18.55 23.64 19.5 22.88C20.21 22.31 21.1 22 22 22C22.29 22 22.59 22.03 22.87 22.1L30.28 23.75C33.01 24.36 35 26.9 35 29.8V34.68C35 37.62 32.67 40.01 29.8 40.01H23.8V40Z" fill="white"/>
<path fill-rule="evenodd" clip-rule="evenodd" d="M23.53 40C22.04 40 20.64 39.42 19.59 38.37L15.11 33.89C14.07 32.85 13.5 31.47 13.5 30C13.5 28.53 14.07 27.15 15.11 26.11C16.15 25.07 17.53 24.5 19 24.5C20.47 24.5 21.85 25.07 22.89 26.11L27.89 31.11C29.96 33.18 30.04 36.51 28.07 38.69C27.32 39.52 26.24 40 25.11 40H23.54H23.53Z" fill="white"/>
<path d="M38 26.15V7.85C38 5.7237 36.2763 4 34.15 4H7.85C5.72371 4 4 5.7237 4 7.85V26.15C4 28.2763 5.72371 30 7.85 30H34.15C36.2763 30 38 28.2763 38 26.15Z" fill="#221F1F"/>
<path d="M34.15 6H7.85C6.82827 6 6 6.82827 6 7.85V26.15C6 27.1717 6.82827 28 7.85 28H34.15C35.1717 28 36 27.1717 36 26.15V7.85C36 6.82827 35.1717 6 34.15 6Z" fill="#B9B9FF"/>
<path d="M35.9198 26.66L11.7098 6H7.85977C6.83977 6 6.00977 6.83 6.00977 7.85V26.14C6.00977 27.16 6.83977 27.99 7.85977 27.99H34.1498C34.9898 27.99 35.6998 27.42 35.9198 26.65V26.66Z" fill="#9992F6"/>
<path d="M25 19H22V22H25V19Z" fill="#221F1F"/>
<path fill-rule="evenodd" clip-rule="evenodd" d="M23.25 32C21.46 32 20 30.54 20 28.75V20.25C20 18.46 21.46 17 23.25 17C25.04 17 26.5 18.46 26.5 20.25V28.75C26.5 30.54 25.04 32 23.25 32Z" fill="#221F1F"/>
<path fill-rule="evenodd" clip-rule="evenodd" d="M23.8 38C23.14 38 22.52 37.67 22.15 37.12L20.35 34.47C20.12 34.14 20 33.75 20 33.35V26C20 25.39 20.28 24.82 20.75 24.44C21.11 24.15 21.55 24 22 24C22.14 24 22.29 24.02 22.43 24.05L29.85 25.7C31.68 26.11 33 27.83 33 29.8V34.68C33 36.52 31.57 38.01 29.8 38.01H23.8V38Z" fill="#221F1F"/>
<path fill-rule="evenodd" clip-rule="evenodd" d="M23.53 38.0002C22.57 38.0002 21.68 37.6302 21 36.9502L16.52 32.4702C15.16 31.1102 15.16 28.8902 16.52 27.5202C17.18 26.8602 18.06 26.4902 18.99 26.4902C19.92 26.4902 20.8 26.8502 21.46 27.5202L26.46 32.5202C27.78 33.8402 27.82 35.9502 26.57 37.3402C26.19 37.7602 25.65 38.0002 25.09 38.0002H23.52H23.53Z" fill="#221F1F"/>
<path d="M24.5 20.25C24.5 19.5596 23.9404 19 23.25 19C22.5596 19 22 19.5596 22 20.25V28.75C22 29.4404 22.5596 30 23.25 30C23.9404 30 24.5 29.4404 24.5 28.75V20.25Z" fill="#EDD286"/>
<path fill-rule="evenodd" clip-rule="evenodd" d="M29.8 36H23.8L22 33.35V26L29.42 27.65C30.34 27.85 31 28.75 31 29.8V34.67C31 35.4 30.46 36 29.8 36Z" fill="#EDD286"/>
<path fill-rule="evenodd" clip-rule="evenodd" d="M25.1007 36.0005C25.6307 35.4105 25.6307 34.5105 25.0607 33.9405L20.0607 28.9405C19.4707 28.3505 18.5207 28.3505 17.9407 28.9405C17.3607 29.5305 17.3507 30.4805 17.9407 31.0605L22.4207 35.5405C22.7207 35.8405 23.1207 36.0005 23.5407 36.0005H25.1107H25.1007Z" fill="#EDD286"/>
<path d="M22.4207 35.5405C22.7207 35.8405 23.1207 36.0005 23.5407 36.0005H29.5507L22.0007 29.5605V30.8805L20.0607 28.9405C19.4707 28.3505 18.5207 28.3505 17.9407 28.9405C17.3607 29.5305 17.3507 30.4805 17.9407 31.0605L22.4207 35.5405Z" fill="#D0B366"/>
<path d="M29.82 19H32.18C32.6329 19 33 18.6329 33 18.18V15.82C33 15.3671 32.6329 15 32.18 15H29.82C29.3671 15 29 15.3671 29 15.82V18.18C29 18.6329 29.3671 19 29.82 19Z" fill="#221F1F"/>
<path d="M29.82 13H32.18C32.6329 13 33 12.6329 33 12.18V9.82C33 9.36713 32.6329 9 32.18 9H29.82C29.3671 9 29 9.36713 29 9.82V12.18C29 12.6329 29.3671 13 29.82 13Z" fill="#221F1F"/>
<path d="M21.82 19H24.18C24.6329 19 25 18.6329 25 18.18V15.82C25 15.3671 24.6329 15 24.18 15H21.82C21.3671 15 21 15.3671 21 15.82V18.18C21 18.6329 21.3671 19 21.82 19Z" fill="#221F1F"/>
<path d="M21.82 13H24.18C24.6329 13 25 12.6329 25 12.18V9.82C25 9.36713 24.6329 9 24.18 9H21.82C21.3671 9 21 9.36713 21 9.82V12.18C21 12.6329 21.3671 13 21.82 13Z" fill="#221F1F"/>
<path d="M13.82 13H16.18C16.6329 13 17 12.6329 17 12.18V9.82C17 9.36713 16.6329 9 16.18 9H13.82C13.3671 9 13 9.36713 13 9.82V12.18C13 12.6329 13.3671 13 13.82 13Z" fill="#221F1F"/>
</svg>
