<svg width="42" height="42" viewBox="0 0 42 42" fill="none" xmlns="http://www.w3.org/2000/svg">
<path d="M35.0001 38.0002C34.0801 38.0002 33.2301 37.5902 32.6601 36.8802L28.6601 31.8802C27.9401 30.9802 27.8001 29.7402 28.3001 28.7102C28.8001 27.6802 29.8601 27.0102 31.0001 27.0102H33.0001C34.2301 27.0102 35.3301 27.7502 35.7901 28.8902L37.7901 33.8902C38.3401 35.2602 37.7901 36.8502 36.5201 37.6002C36.0601 37.8702 35.5401 38.0102 35.0101 38.0102L35.0001 38.0002ZM7.00011 38.0002C6.47011 38.0002 5.95011 37.8602 5.49011 37.5902C4.21011 36.8402 3.67011 35.2502 4.21011 33.8802L6.21011 28.8802C6.67011 27.7302 7.76011 26.9902 9.00011 26.9902H11.0001C12.1501 26.9902 13.2101 27.6602 13.7001 28.6902C14.2001 29.7202 14.0601 30.9702 13.3401 31.8602L9.34011 36.8602C8.77011 37.5802 7.91011 37.9902 7.00011 37.9902V38.0002Z" fill="white"/>
<path d="M40 29V8C40 5.79086 38.2091 4 36 4H6C3.79086 4 2 5.79086 2 8V29C2 31.2091 3.79086 33 6 33H36C38.2091 33 40 31.2091 40 29Z" fill="white"/>
<path d="M10.9993 29H8.99933C8.58933 29 8.21933 29.25 8.06933 29.63L6.06933 34.63C5.88933 35.09 6.06933 35.62 6.49933 35.87C6.65933 35.96 6.82933 36.01 6.99933 36.01C7.29933 36.01 7.58933 35.88 7.77933 35.63L11.7793 30.63C12.0193 30.33 12.0693 29.92 11.8993 29.57C11.7293 29.22 11.3793 29 10.9993 29ZM35.9293 34.63L33.9293 29.63C33.7793 29.25 33.4093 29 32.9993 29H30.9993C30.6193 29 30.2693 29.22 30.0993 29.57C29.9293 29.92 29.9793 30.33 30.2193 30.63L34.2193 35.63C34.4193 35.87 34.7093 36.01 34.9993 36.01C35.1693 36.01 35.3493 35.97 35.4993 35.87C35.9293 35.62 36.1093 35.09 35.9293 34.63Z" fill="#221F1F"/>
<path d="M38 29V8C38 6.89543 37.1046 6 36 6H6C4.89543 6 4 6.89543 4 8V29C4 30.1046 4.89543 31 6 31H36C37.1046 31 38 30.1046 38 29Z" fill="#221F1F"/>
<path d="M36 8H6V29H36V8Z" fill="#8EBFE2"/>
<path d="M29.1996 29H35.9996V8H16.5996L29.1996 29Z" fill="#CAE5FF"/>
<path d="M34 27V10H8V27H34Z" fill="#221F1F"/>
<path d="M14.4005 25V12H10.0005V25H14.4005Z" fill="#D88C7D"/>
<path d="M18.8009 25V12H14.4009V25H18.8009Z" fill="#F9A936"/>
<path d="M23.1993 25V12H18.7993V25H23.1993Z" fill="#FCD26E"/>
<path d="M27.5997 25V12H23.1997V25H27.5997Z" fill="#9CDB9C"/>
<path d="M32.0001 25V12H27.6001V25H32.0001Z" fill="#9891F5"/>
</svg>
