<svg width="42" height="42" viewBox="0 0 42 42" fill="none" xmlns="http://www.w3.org/2000/svg">
<path d="M15.8199 40C13.7499 40 11.8199 39.02 10.5399 37.32L3.78987 28.17C1.61986 25 0.799865 19.7 5.48987 15.01L15.0299 5.47C17.3299 3.17 19.8999 2 22.6599 2C24.7199 2 26.3699 2.68 27.3899 3.26C27.5299 3.34 27.6599 3.42 27.7899 3.52L37.2799 10.52C39.6399 12.3 40.5599 15.22 39.6399 17.97C38.7199 20.73 36.1899 22.59 33.3499 22.59C32.4199 22.59 31.5099 22.4 30.6199 22.01L27.0799 20.42C27.0099 20.39 26.9499 20.38 26.8799 20.38C26.7499 20.38 26.6299 20.43 26.5399 20.52L20.4999 26.56C20.3599 26.7 20.3199 26.92 20.3999 27.1L21.9699 30.59C22.9099 32.75 22.7299 35.06 21.4999 36.94C20.2599 38.83 18.0799 40.01 15.8199 40.01V40Z" fill="white"/>
<path d="M15.8201 38C14.3801 38 13.0401 37.31 12.1401 36.12L5.40018 26.99C3.60018 24.36 3.09018 20.25 6.90018 16.43L16.4401 6.88C18.3501 4.97 20.4401 4 22.6601 4C24.2901 4 25.6001 4.54 26.4101 5C26.4801 5.04 26.5501 5.08 26.6201 5.13L36.0901 12.13C37.7401 13.38 38.3801 15.41 37.7401 17.33C37.0901 19.27 35.3201 20.58 33.3401 20.58C32.6901 20.58 32.0401 20.44 31.4101 20.17L27.9001 18.59C27.5801 18.44 27.2301 18.37 26.8801 18.37C26.2201 18.37 25.5901 18.63 25.1201 19.1L19.0801 25.14C18.3601 25.87 18.1501 26.98 18.5701 27.92L20.1401 31.41C20.8001 32.93 20.6801 34.53 19.8201 35.84C18.9401 37.18 17.4001 38.01 15.8101 38.01L15.8201 38Z" fill="#221F1F"/>
<path d="M34.8999 13.7391C34.8999 13.7391 27.7199 8.43905 25.4299 6.73905C24.1299 6.00905 21.1599 4.98905 17.8599 8.28905L14.8299 11.3191L11.3199 14.8291L8.30982 17.8391C4.60982 21.5391 6.33982 24.8191 6.99982 25.7991C7.06982 25.8991 7.13982 25.9891 7.21982 26.0991C9.25982 28.8691 13.7299 34.9091 13.7299 34.9091C15.6399 37.4391 19.5999 35.1491 18.3299 32.2191L16.7599 28.7291C15.9899 27.0291 16.3599 25.0391 17.6799 23.7191L18.9499 22.4491L22.4599 18.9391L23.7299 17.6691C25.0499 16.3491 27.0399 15.9891 28.7399 16.7491L32.2299 18.3191C35.1599 19.5891 37.4499 15.6291 34.9199 13.7191L34.8999 13.7391Z" fill="#979797"/>
<path d="M34.8999 13.7391C34.8999 13.7391 27.7199 8.43905 25.4299 6.73905C24.1299 6.00905 21.1599 4.98905 17.8599 8.28905L14.8299 11.3191L11.3199 14.8291L10.3799 15.7691L22.2099 19.1791L22.4399 18.9491L23.7099 17.6791C25.0299 16.3591 27.0199 15.9991 28.7199 16.7591L32.2099 18.3291C35.1399 19.5991 37.4299 15.6391 34.8999 13.7291V13.7391Z" fill="#C4C4C4"/>
<path d="M20.34 11.3598C21.058 11.3598 21.64 10.7777 21.64 10.0598C21.64 9.3418 21.058 8.75977 20.34 8.75977C19.6221 8.75977 19.04 9.3418 19.04 10.0598C19.04 10.7777 19.6221 11.3598 20.34 11.3598Z" fill="#221F1F"/>
<path d="M24.2399 15.2602C24.9579 15.2602 25.5399 14.6781 25.5399 13.9602C25.5399 13.2422 24.9579 12.6602 24.2399 12.6602C23.522 12.6602 22.9399 13.2422 22.9399 13.9602C22.9399 14.6781 23.522 15.2602 24.2399 15.2602Z" fill="#221F1F"/>
<path d="M20.34 15.2602C21.058 15.2602 21.64 14.6781 21.64 13.9602C21.64 13.2422 21.058 12.6602 20.34 12.6602C19.6221 12.6602 19.04 13.2422 19.04 13.9602C19.04 14.6781 19.6221 15.2602 20.34 15.2602Z" fill="#221F1F"/>
<path d="M24.2399 11.3598C24.9579 11.3598 25.5399 10.7777 25.5399 10.0598C25.5399 9.3418 24.9579 8.75977 24.2399 8.75977C23.522 8.75977 22.9399 9.3418 22.9399 10.0598C22.9399 10.7777 23.522 11.3598 24.2399 11.3598Z" fill="#221F1F"/>
<path d="M9.70967 22.0004C10.4276 22.0004 11.0097 21.4184 11.0097 20.7004C11.0097 19.9824 10.4276 19.4004 9.70967 19.4004C8.9917 19.4004 8.40967 19.9824 8.40967 20.7004C8.40967 21.4184 8.9917 22.0004 9.70967 22.0004Z" fill="#221F1F"/>
<path d="M13.6101 25.9008C14.328 25.9008 14.9101 25.3188 14.9101 24.6008C14.9101 23.8828 14.328 23.3008 13.6101 23.3008C12.8921 23.3008 12.3101 23.8828 12.3101 24.6008C12.3101 25.3188 12.8921 25.9008 13.6101 25.9008Z" fill="#221F1F"/>
<path d="M9.70967 25.9008C10.4276 25.9008 11.0097 25.3188 11.0097 24.6008C11.0097 23.8828 10.4276 23.3008 9.70967 23.3008C8.9917 23.3008 8.40967 23.8828 8.40967 24.6008C8.40967 25.3188 8.9917 25.9008 9.70967 25.9008Z" fill="#221F1F"/>
<path d="M13.6101 22.0004C14.328 22.0004 14.9101 21.4184 14.9101 20.7004C14.9101 19.9824 14.328 19.4004 13.6101 19.4004C12.8921 19.4004 12.3101 19.9824 12.3101 20.7004C12.3101 21.4184 12.8921 22.0004 13.6101 22.0004Z" fill="#221F1F"/>
<path d="M8.72998 23.7395L12.7 19.7695L14.54 21.5995L10.61 25.5295L8.72998 23.7395Z" fill="#221F1F"/>
<path d="M10.5568 19.7383L8.73242 21.5626L12.7063 25.5365L14.5307 23.7122L10.5568 19.7383Z" fill="#221F1F"/>
</svg>
