<svg width="42" height="42" viewBox="0 0 42 42" fill="none" xmlns="http://www.w3.org/2000/svg">
<path d="M28.3 13.9C27.7 13.3 27 13 26.2 13C25.6 13 25 13.2 24.6 13.5V8.59995C24.6 6.99995 23.7 5.59995 22.3 4.99995C21.8 4.79995 21.2 4.69995 20.7 4.69995C19.7 4.69995 18.8 5.09995 18.1 5.69995L10.9 12.1H7.2C4.6 12.1 2.5 14.2 2.5 16.8V25.2999C2.5 27.9 4.6 30 7.2 30H10.8L18 36.4C18.7 37 19.6 37.4 20.6 37.4C21.2 37.4 21.7 37.2999 22.2 37.0999C23.6 36.4999 24.5 35.1 24.5 33.5V28.6C25 28.9 25.6 29.1 26.1 29.1C26.9 29.1 27.7 28.8 28.2 28.2C30.1 26.3 31.1 23.8 31.1 21.1C31.1 18.4 30.2 15.8 28.3 13.9ZM34.1 7.89995C33.5 7.29995 32.7 6.99995 31.9 6.99995C31.1 6.99995 30.3 7.29995 29.8 7.89995C29.2 8.49995 28.9 9.19995 28.9 9.99995C28.9 10.8 29.2 11.6 29.8 12.1C32.2 14.5 33.5 17.6 33.5 21C33.5 24.4 32.2 27.5 29.8 29.9C29.2 30.5 28.9 31.2 28.9 32C28.9 32.7999 29.2 33.5999 29.8 34.0999C30.4 34.6999 31.1 35 31.9 35C32.7 35 33.5 34.6999 34 34.0999C37.5 30.5999 39.4 25.9 39.4 21C39.4 16.1 37.5 11.4 34.1 7.89995Z" fill="white"/>
<path d="M31.9004 33C31.6004 33 31.4004 32.9 31.2004 32.7C30.8004 32.3 30.8004 31.7 31.2004 31.3C33.9004 28.6 35.4004 24.9 35.4004 21C35.4004 17.1 33.9004 13.4 31.2004 10.7C30.8004 10.3 30.8004 9.7 31.2004 9.3C31.6004 8.9 32.2004 8.9 32.6004 9.3C35.7004 12.4 37.4004 16.5 37.4004 21C37.4004 25.5 35.7004 29.6 32.6004 32.7C32.4004 32.9 32.2004 33 31.9004 33Z" fill="#221F1F"/>
<path d="M26.2002 27C25.9002 27 25.7002 26.9 25.5002 26.7C25.1002 26.3 25.1002 25.7 25.5002 25.3C26.7002 24.1 27.3002 22.6 27.3002 21C27.3002 19.4 26.7002 17.9 25.5002 16.7C25.1002 16.3 25.1002 15.7 25.5002 15.3C25.9002 14.9 26.5002 14.9 26.9002 15.3C28.5002 16.9 29.3002 18.8 29.3002 21C29.3002 23.2 28.5002 25.1 26.9002 26.7C26.7002 26.9 26.5002 27 26.2002 27Z" fill="#221F1F"/>
<path fill-rule="evenodd" clip-rule="evenodd" d="M11.9 15.1H7.2C6.3 15.1 5.5 15.8 5.5 16.8V25.3C5.5 26.2 6.2 27 7.2 27H11.9L19.9 34.2C20.5 34.7 21.5 34.3 21.5 33.5V8.59997C21.5 7.79997 20.6 7.39997 19.9 7.89997L11.9 15.1Z" fill="#ADED9D"/>
<path fill-rule="evenodd" clip-rule="evenodd" d="M7.2 26.4H11.9C12.1 26.4 12.4 26.5 12.6 26.7L20.5 33.3V26.5L12 22H6.5V25.7C6.5 26.1 6.8 26.4 7.2 26.4Z" fill="#6DCB82"/>
<path d="M20.5 35.4C20 35.4 19.6 35.2 19.2 34.9L11.5 27.9H7.2C5.7 27.9 4.5 26.7 4.5 25.2V16.7C4.5 15.2 5.7 14 7.2 14H11.5L19.2 7.09995C19.2 7.09995 19.3 7.09995 19.3 6.99995C20 6.49995 20.8 6.49995 21.5 6.79995C22.1 7.09995 22.5 7.79995 22.5 8.49995V33.4C22.5 34.1 22.1 34.8 21.4 35.1C21.1 35.4 20.8 35.4 20.5 35.4ZM7.2 16.1C6.9 16.1 6.5 16.3 6.5 16.8V25.3C6.5 25.6 6.7 26 7.2 26H11.9C12.1 26 12.4 26.1 12.6 26.3L20.6 33.5L20.5 8.69995L12.6 15.8C12.4 16 12.2 16.1 11.9 16.1H7.2Z" fill="#221F1F"/>
</svg>
