<svg width="42" height="42" viewBox="0 0 42 42" fill="none" xmlns="http://www.w3.org/2000/svg">
<path d="M20.9996 34.9502C19.9396 34.9502 18.8996 34.5202 18.1496 33.7602L3.14955 18.5502C2.38955 17.7802 1.96955 16.7102 1.99955 15.6202C2.02955 14.5302 2.51955 13.4902 3.32955 12.7602C8.19955 8.40023 14.4696 5.99023 20.9996 5.99023C27.5296 5.99023 33.7995 8.39023 38.6695 12.7602C39.4795 13.4902 39.9595 14.5302 39.9995 15.6202C40.0295 16.7102 39.6095 17.7802 38.8495 18.5502L23.8496 33.7502C23.0996 34.5102 22.0596 34.9402 20.9996 34.9402V34.9502Z" fill="white"/>
<path d="M21.0003 32.9502C20.4603 32.9502 19.9503 32.7402 19.5803 32.3502L4.58034 17.1502C4.20034 16.7602 3.99034 16.2302 4.00034 15.6802C4.01034 15.1302 4.26034 14.6202 4.66034 14.2502C9.16034 10.2102 14.9603 7.99023 20.9903 7.99023C27.0203 7.99023 32.8203 10.2102 37.3203 14.2502C37.7303 14.6202 37.9703 15.1302 37.9803 15.6802C37.9903 16.2302 37.7903 16.7602 37.4003 17.1502L22.4003 32.3502C22.0203 32.7302 21.5103 32.9502 20.9803 32.9502H21.0003Z" fill="#221F1F"/>
<path d="M21 30.95L36 15.75C32.02 12.18 26.76 10 21 10C15.24 10 9.99 12.18 6 15.75L21 30.95Z" fill="#221F1F"/>
<path d="M10.93 20.74L15.16 25.02C16.77 23.76 18.8 23 21 23C23.2 23 25.23 23.76 26.84 25.02L31.07 20.74C28.36 18.41 24.84 17 21 17C17.16 17 13.64 18.42 10.93 20.74ZM16.57 26.46L21 30.95L25.43 26.46C24.19 25.55 22.66 25 21 25C19.34 25 17.81 25.55 16.57 26.46ZM21 10C15.24 10 9.99 12.18 6 15.75L9.52 19.32C12.6 16.64 16.6 15 20.99 15C25.38 15 29.39 16.64 32.46 19.32L35.98 15.75C32 12.18 26.74 10 20.98 10H21Z" fill="#9891F5"/>
<path d="M21.0009 10.0002C20.2009 10.0002 19.4109 10.0502 18.6309 10.1302L21.3209 15.0102C25.5809 15.0902 29.4709 16.7002 32.4709 19.3102L35.9909 15.7402C32.0109 12.1702 26.7509 9.99023 20.9909 9.99023L21.0009 10.0002ZM26.8409 25.0202L31.0709 20.7402C28.7009 18.7102 25.7309 17.3802 22.4509 17.0702L26.8409 25.0302V25.0202Z" fill="#B9B9FF"/>
</svg>
