<svg width="42" height="42" viewBox="0 0 42 42" fill="none" xmlns="http://www.w3.org/2000/svg">
<path d="M20.9999 39.7C18.6999 39.7 16.7999 38.2 16.1999 36.1C10.7999 34.3 6.79989 29.6 5.99989 24C5.79989 22.4 6.29989 20.8 7.49989 19.7C8.29989 18.9 9.39989 18.4 10.5999 18.3C10.5999 18.1 10.4999 17.8 10.4999 17.6C10.4999 15.7 11.5999 14 13.1999 13.2C12.8999 12.4 12.7999 11.5 12.7999 10.6C12.7999 6.10003 16.4999 2.40002 20.9999 2.40002C25.4999 2.40002 29.1999 6.10003 29.1999 10.6C29.1999 11.5 29.0999 12.4 28.7999 13.2C30.3999 14 31.4999 15.7 31.4999 17.6C31.4999 17.8 31.4999 18.1 31.3999 18.3C32.5999 18.4 33.6999 18.9 34.4999 19.7C35.5999 20.8 36.1999 22.4 35.9999 24C35.1999 29.6 31.0999 34.3 25.7999 36.1C25.1999 38.2 23.2999 39.7 20.9999 39.7Z" fill="white"/>
<path d="M20.9998 13.8C22.7671 13.8 24.1998 12.3673 24.1998 10.6C24.1998 8.83271 22.7671 7.40002 20.9998 7.40002C19.2325 7.40002 17.7998 8.83271 17.7998 10.6C17.7998 12.3673 19.2325 13.8 20.9998 13.8Z" fill="#221F1F"/>
<path fill-rule="evenodd" clip-rule="evenodd" d="M20.9996 36.7001C19.8996 36.7001 18.9996 35.8001 18.9996 34.7001V33.7001C13.8996 32.8001 9.69961 28.7001 8.99961 23.5C8.89961 22.9 9.09961 22.2 9.59961 21.8C9.99961 21.4 10.4996 21.2 10.9996 21.2C11.0996 21.2 11.1996 21.2 11.3996 21.2L14.6996 21.8C15.1996 21.9 15.6996 22.2 15.9996 22.6C16.2996 23 16.3996 23.6 16.2996 24.1C16.0996 25.1 15.2996 25.7001 14.2996 25.7001C14.1996 25.7001 14.0996 25.7001 13.9996 25.7001C15.0996 27.6 16.8996 29 19.0996 29.6V19.5H15.5996C14.4996 19.5 13.5996 18.6 13.5996 17.5C13.5996 16.4 14.4996 15.5 15.5996 15.5H18.9996V15.3C17.0996 14.5 15.7996 12.6 15.7996 10.5C15.7996 7.60005 18.0996 5.30005 20.9996 5.30005C23.8996 5.30005 26.1996 7.60005 26.1996 10.5C26.1996 12.6 24.8996 14.5 22.9996 15.3V15.5H26.4996C27.5996 15.5 28.4996 16.4 28.4996 17.5C28.4996 18.6 27.5996 19.5 26.4996 19.5H22.9996V29.6C25.1996 29.1 26.9996 27.7001 28.0996 25.7001C27.9996 25.7001 27.8996 25.7001 27.7996 25.7001C26.7996 25.7001 25.9996 25 25.7996 24C25.5996 22.9 26.2996 21.9001 27.3996 21.7001L30.6996 21.1C30.7996 21.1 30.8996 21.1 31.0996 21.1C31.5996 21.1 32.0996 21.3001 32.4996 21.7001C32.9996 22.1 33.1996 22.8 33.0996 23.4C32.2996 28.6 28.1996 32.7 23.0996 33.6V34.6C22.9996 35.8 22.0996 36.7001 20.9996 36.7001ZM20.9996 9.30005C20.2996 9.30005 19.7996 9.80005 19.7996 10.5C19.7996 11.2 20.2996 11.7 20.9996 11.7C21.6996 11.7 22.1996 11.2 22.1996 10.5C22.1996 9.80005 21.6996 9.30005 20.9996 9.30005Z" fill="#C4C4C4"/>
<path d="M21.0002 6.30005C23.3002 6.30005 25.2002 8.20005 25.2002 10.5C25.2002 12.5 23.8002 14.2 22.0002 14.6V14.7V16.5H26.5002C27.1002 16.5 27.5002 16.9 27.5002 17.5C27.5002 18.1 27.1002 18.5 26.5002 18.5H22.0002V30.8C25.6002 30.4 28.7002 27.9 29.8002 24.4L28.0002 24.7001C27.9002 24.7001 27.9002 24.7001 27.8002 24.7001C27.3002 24.7001 26.9002 24.4 26.8002 23.9C26.7002 23.4 27.1002 22.8001 27.6002 22.7001L30.9002 22.1C31.0002 22.1 31.0002 22.1 31.1002 22.1C31.4002 22.1 31.6002 22.2 31.8002 22.4C32.0002 22.6 32.1002 22.9 32.1002 23.3C31.3002 28.4 27.1002 32.3 22.0002 32.8V34.7001C22.0002 35.3001 21.6002 35.7001 21.0002 35.7001C20.4002 35.7001 20.0002 35.3001 20.0002 34.7001V32.8C14.9002 32.3 10.7002 28.4 9.9002 23.3C9.9002 23 10.0002 22.7 10.2002 22.4C10.4002 22.2 10.6002 22.1 10.9002 22.1C11.0002 22.1 11.0002 22.1 11.1002 22.1L14.4002 22.7001C14.9002 22.8001 15.3002 23.3 15.2002 23.9C15.1002 24.4 14.7002 24.7001 14.2002 24.7001C14.1002 24.7001 14.1002 24.7001 14.0002 24.7001L12.2002 24.4C13.3002 27.8 16.4002 30.4 20.0002 30.8V18.5H15.5002C14.9002 18.5 14.5002 18.1 14.5002 17.5C14.5002 16.9 14.9002 16.5 15.5002 16.5H20.0002V14.7V14.6C18.1002 14.2 16.8002 12.5 16.8002 10.5C16.8002 8.20005 18.7002 6.30005 21.0002 6.30005ZM21.0002 12.7C22.2002 12.7 23.2002 11.7 23.2002 10.5C23.2002 9.30005 22.2002 8.30005 21.0002 8.30005C19.8002 8.30005 18.8002 9.30005 18.8002 10.5C18.8002 11.7 19.8002 12.7 21.0002 12.7ZM21.0002 4.30005C17.6002 4.30005 14.8002 7.10005 14.8002 10.5C14.8002 12 15.3002 13.4 16.3002 14.5H15.5002C13.8002 14.5 12.5002 15.8 12.5002 17.5C12.5002 19.2 13.8002 20.5 15.5002 20.5H18.0002V28.2001C17.1002 27.8001 16.3002 27.2001 15.6002 26.5C16.4002 26.1 17.0002 25.3 17.2002 24.4C17.3002 23.6 17.2002 22.8001 16.7002 22.2001C16.2002 21.5 15.6002 21.1 14.8002 21L11.5002 20.4C11.3002 20.4 11.2002 20.4 11.0002 20.4C10.2002 20.4 9.5002 20.7 8.90019 21.3C8.20019 22 7.9002 22.9 8.0002 23.9C8.8002 29.2 12.9002 33.5 18.0002 34.8V35C18.0002 36.7001 19.3002 38 21.0002 38C22.7002 38 24.0002 36.7001 24.0002 35V34.8C29.2002 33.6 33.2002 29.2 34.0002 23.9C34.1002 22.9 33.8002 22 33.1002 21.3C32.5002 20.8 31.8002 20.5 31.0002 20.5C30.8002 20.5 27.2002 21.2001 27.2002 21.2001C26.4002 21.3001 25.7002 21.8 25.3002 22.4C24.8002 23.1 24.7002 23.9 24.8002 24.6C25.0002 25.5 25.6002 26.3001 26.4002 26.7001C25.7002 27.4001 24.9002 28 24.0002 28.4V20.7001H26.5002C28.2002 20.7001 29.5002 19.4 29.5002 17.7C29.5002 16 28.2002 14.7 26.5002 14.7H25.7002C26.6002 13.6 27.2002 12.2 27.2002 10.7C27.2002 7.10005 24.4002 4.30005 21.0002 4.30005ZM21.0002 10.7C20.9002 10.7 20.8002 10.6 20.8002 10.5C20.8002 10.4 20.9002 10.3 21.0002 10.3C21.1002 10.3 21.2002 10.4 21.2002 10.5C21.2002 10.6 21.1002 10.7 21.0002 10.7Z" fill="#221F1F"/>
<path d="M30.5996 20.6C30.7996 20.6 31.3996 20.5 31.7996 20.7C32.1996 20.8 31.0996 20.2 31.0996 20.2L30.6996 20.4L30.5996 20.6Z" fill="white"/>
</svg>
