<svg width="42" height="42" viewBox="0 0 42 42" fill="none" xmlns="http://www.w3.org/2000/svg">
<path d="M18.7004 38.9C19.3004 39.6 20.1004 40 21.0004 40C21.9004 40 22.7004 39.6 23.3004 38.9L35.7004 24.2C36.5004 23.2 36.6004 21.9 36.0004 20.8C35.5004 19.8 34.5004 19.2 33.4004 19.2C33.3004 19.2 33.1004 19.2 33.0004 19.2L29.7004 19.6L34.2004 5.8C34.6004 4.7 34.2004 3.5 33.4004 2.7C32.9004 2.3 32.2004 2 31.4004 2C31.0004 2 30.6004 2.1 30.3004 2.2L21.0004 5.9L11.7004 2.2C11.3004 2.1 10.9004 2 10.6004 2C9.80036 2 9.10036 2.3 8.50036 2.8C7.70036 3.6 7.30036 4.8 7.70036 5.9L12.2004 19.7L8.90036 19.3C8.80036 19.3 8.60036 19.3 8.50036 19.3C7.40036 19.3 6.40036 19.9 5.90036 20.9C5.30036 22 5.40036 23.3 6.20036 24.3L18.7004 38.9Z" fill="white"/>
<path fill-rule="evenodd" clip-rule="evenodd" d="M31.3996 5L20.9996 9.2L10.5996 5L16.5996 23.3L8.59961 22.3L20.9996 37L33.3996 22.3L25.3996 23.3L31.3996 5Z" fill="#B7EDB7"/>
<path d="M20.9999 38C20.6999 38 20.3999 37.9 20.1999 37.6L7.79993 22.9C7.49993 22.6 7.49993 22.1 7.69993 21.8C7.89993 21.4 8.29993 21.2 8.69993 21.3L15.0999 22.1L9.59994 5.29997C9.49994 4.89997 9.59993 4.49997 9.89993 4.29997C10.1999 3.99997 10.5999 3.99997 10.9999 4.09997L21.0999 8.09997L31.1999 4.09997C31.5999 3.99997 31.9999 3.99997 32.2999 4.29997C32.5999 4.59997 32.6999 4.99997 32.5999 5.29997L27.0999 22.1L33.4999 21.3C33.8999 21.2 34.2999 21.5 34.4999 21.8C34.6999 22.1 34.6999 22.6 34.3999 22.9L21.7999 37.6C21.5999 37.9 21.2999 38 20.9999 38ZM10.9999 23.6L20.9999 35.5L30.9999 23.6L25.4999 24.3C25.1999 24.3 24.7999 24.2 24.5999 23.9C24.3999 23.6 24.2999 23.3 24.3999 23L29.6999 6.69997L21.2999 10.1C21.0999 10.2 20.7999 10.2 20.5999 10.1L12.1999 6.69997L17.4999 23C17.5999 23.3 17.4999 23.7 17.2999 23.9C17.0999 24.2 16.6999 24.3 16.3999 24.3L10.9999 23.6Z" fill="#221F1F"/>
<path fill-rule="evenodd" clip-rule="evenodd" d="M16.4 24.3L11 23.6L21 35.5L25.3 30.4L13 9.19995L17.5 23C17.6 23.3 17.5 23.7 17.3 23.9C17.1 24.2 16.8 24.3 16.4 24.3Z" fill="#9CDB9C"/>
</svg>
