<svg width="42" height="42" viewBox="0 0 42 42" fill="none" xmlns="http://www.w3.org/2000/svg">
<path fill-rule="evenodd" clip-rule="evenodd" d="M24.4598 40C23.2498 40 22.0698 39.73 20.9998 39.2C19.9198 39.72 18.7498 40 17.5398 40C14.5198 40 11.7998 38.3 10.4398 35.68C6.89977 34.66 4.34977 31.36 4.34977 27.58C4.34977 27.35 4.34977 27.13 4.37977 26.9C2.87977 25.31 2.00977 23.18 2.00977 21C2.00977 18.82 2.87977 16.68 4.37977 15.1C4.35977 14.87 4.34977 14.65 4.34977 14.42C4.34977 10.64 6.89977 7.35 10.4398 6.32C11.7998 3.7 14.5198 2 17.5398 2C18.7498 2 19.9298 2.27 20.9998 2.8C22.0798 2.28 23.2498 2 24.4598 2C27.4798 2 30.1998 3.7 31.5598 6.32C35.0998 7.34 37.6498 10.64 37.6498 14.42C37.6498 14.65 37.6498 14.87 37.6198 15.1C39.1198 16.69 39.9898 18.82 39.9898 21C39.9898 23.18 39.1198 25.32 37.6198 26.9C37.6398 27.13 37.6498 27.35 37.6498 27.58C37.6498 31.36 35.0998 34.65 31.5598 35.68C30.1998 38.3 27.4798 40 24.4598 40Z" fill="white"/>
<path fill-rule="evenodd" clip-rule="evenodd" d="M24.4598 38C23.1998 38 21.9898 37.6 20.9998 36.88C19.9998 37.59 18.7998 38 17.5398 38C14.9098 38 12.6798 36.3 11.8698 33.95C8.74977 33.51 6.34977 30.82 6.34977 27.59C6.34977 27.11 6.40977 26.63 6.51977 26.16C4.96977 24.93 4.00977 23.04 4.00977 21.01C4.00977 18.98 4.96977 17.08 6.51977 15.86C6.40977 15.39 6.34977 14.91 6.34977 14.43C6.34977 11.19 8.75977 8.51002 11.8698 8.07002C12.6798 5.71002 14.9098 4.02002 17.5398 4.02002C18.7998 4.02002 20.0098 4.42002 20.9998 5.14002C21.9998 4.43002 23.1998 4.02002 24.4598 4.02002C27.0898 4.02002 29.3198 5.72002 30.1298 8.07002C33.2498 8.51002 35.6498 11.2 35.6498 14.43C35.6498 14.91 35.5898 15.39 35.4798 15.86C37.0298 17.09 37.9898 18.98 37.9898 21.01C37.9898 23.04 37.0298 24.94 35.4798 26.16C35.5898 26.63 35.6498 27.11 35.6498 27.59C35.6498 30.83 33.2398 33.51 30.1298 33.95C29.3198 36.31 27.0898 38 24.4598 38Z" fill="#221F1F"/>
<path fill-rule="evenodd" clip-rule="evenodd" d="M36 21C36 19.03 34.75 17.36 33 16.71C33.41 16.04 33.66 15.26 33.66 14.42C33.66 11.98 31.68 9.99 29.23 9.99C28.96 9.99 28.7 10.02 28.45 10.07C28.45 10.04 28.45 10.02 28.45 9.99C28.45 7.79 26.66 6 24.46 6C22.97 6 21.68 6.83 21 8.04C20.32 6.83 19.03 6 17.54 6C15.34 6 13.55 7.79 13.55 9.99C13.55 10.02 13.55 10.04 13.55 10.07C13.3 10.02 13.04 9.99 12.77 9.99C10.32 9.99 8.34 11.97 8.34 14.42C8.34 15.26 8.59 16.04 9 16.71C7.25 17.36 6 19.03 6 21C6 22.97 7.25 24.64 9 25.29C8.59 25.96 8.34 26.74 8.34 27.58C8.34 30.02 10.32 32.01 12.77 32.01C13.04 32.01 13.3 31.98 13.55 31.93C13.55 31.96 13.55 31.98 13.55 32.01C13.55 34.21 15.34 36 17.54 36C19.03 36 20.32 35.17 21 33.96C21.68 35.17 22.97 36 24.46 36C26.66 36 28.45 34.21 28.45 32.01C28.45 31.98 28.45 31.96 28.45 31.93C28.7 31.98 28.96 32.01 29.23 32.01C31.67 32.01 33.66 30.03 33.66 27.58C33.66 26.74 33.41 25.96 33 25.29C34.75 24.64 36 22.97 36 21Z" fill="#FFCCBD"/>
<path fill-rule="evenodd" clip-rule="evenodd" d="M11.2698 11.38C11.2698 11.01 11.2798 10.64 11.2998 10.27C9.57977 10.88 8.34977 12.5 8.34977 14.43C8.34977 15.27 8.59977 16.05 9.00977 16.72C7.25977 17.37 6.00977 19.04 6.00977 21.01C6.00977 22.98 7.25977 24.65 9.00977 25.3C8.59977 25.97 8.34977 26.75 8.34977 27.59C8.34977 30.04 10.3298 32.02 12.7798 32.02C13.0498 32.02 13.3098 31.99 13.5598 31.94C13.5598 31.97 13.5598 31.99 13.5598 32.02C13.5598 34.22 15.3498 36.01 17.5498 36.01C19.0398 36.01 20.3298 35.18 21.0098 33.97C21.6898 35.18 22.9798 36.01 24.4698 36.01C25.8098 36.01 26.9898 35.35 27.7098 34.33C18.2698 31.74 11.2798 22.45 11.2798 11.38H11.2698Z" fill="#F0AA97"/>
<path d="M21 36.2001C20.45 36.2001 20 35.7501 20 35.2001V6.80005C20 6.25005 20.45 5.80005 21 5.80005C21.55 5.80005 22 6.25005 22 6.80005V35.2001C22 35.7501 21.55 36.2001 21 36.2001Z" fill="#221F1F"/>
<path fill-rule="evenodd" clip-rule="evenodd" d="M8.2998 24.59C8.2998 24.59 10.8698 21.3 14.0298 22.61L8.2998 24.59Z" fill="white"/>
<path d="M8.29961 25.6199C8.07961 25.6199 7.84961 25.5499 7.65961 25.3999C7.20961 25.0499 7.12961 24.3999 7.47961 23.9499C7.59961 23.7899 10.5696 20.0499 14.4196 21.6499C14.9496 21.8699 15.1996 22.4699 14.9796 22.9999C14.7596 23.5299 14.1596 23.7799 13.6296 23.5599C11.2396 22.5599 9.19961 25.1099 9.10961 25.2199C8.90961 25.4799 8.59961 25.6099 8.29961 25.6099V25.6199Z" fill="#221F1F"/>
<path d="M17.4303 29.3799C17.0103 29.3799 16.6203 29.1099 16.4803 28.6899C16.3103 28.1599 16.6003 27.5999 17.1203 27.4299L19.8203 26.5499C20.3503 26.3799 20.9103 26.6699 21.0803 27.1899C21.2503 27.7099 20.9603 28.2799 20.4403 28.4499L17.7403 29.3299C17.6403 29.3599 17.5303 29.3799 17.4303 29.3799Z" fill="#221F1F"/>
<path fill-rule="evenodd" clip-rule="evenodd" d="M33.6997 17.4099C33.6997 17.4099 31.1297 20.6999 27.9697 19.3899L33.6997 17.4099Z" fill="white"/>
<path d="M29.5095 20.74C28.8995 20.74 28.2495 20.62 27.5695 20.34C27.0395 20.12 26.7895 19.52 27.0095 18.99C27.2295 18.46 27.8295 18.21 28.3595 18.43C30.7495 19.42 32.7895 16.88 32.8795 16.77C33.2295 16.32 33.8796 16.24 34.3296 16.6C34.7796 16.95 34.8595 17.6 34.5095 18.05C34.4095 18.18 32.3695 20.74 29.4995 20.74H29.5095Z" fill="#221F1F"/>
<path d="M21.8698 15.5C21.4498 15.5 21.0598 15.23 20.9198 14.81C20.7498 14.28 21.0398 13.72 21.5598 13.55L24.2598 12.67C24.7898 12.5 25.3498 12.79 25.5198 13.31C25.6898 13.83 25.3998 14.4 24.8798 14.57L22.1798 15.45C22.0798 15.48 21.9698 15.5 21.8698 15.5Z" fill="#221F1F"/>
<path d="M24.5697 26.79C24.4697 26.79 24.3597 26.77 24.2597 26.74L21.5597 25.86C21.0297 25.69 20.7497 25.13 20.9197 24.6C21.0897 24.07 21.6497 23.79 22.1797 23.96L24.8797 24.84C25.4097 25.01 25.6897 25.57 25.5197 26.1C25.3797 26.52 24.9897 26.79 24.5697 26.79Z" fill="#221F1F"/>
<path d="M20.1303 18.0901C20.0303 18.0901 19.9203 18.0701 19.8203 18.0401L17.1203 17.1601C16.5903 16.9901 16.3103 16.4301 16.4803 15.9001C16.6503 15.3701 17.2103 15.0901 17.7403 15.2601L20.4403 16.1401C20.9703 16.3101 21.2503 16.8701 21.0803 17.4001C20.9403 17.8201 20.5503 18.0901 20.1303 18.0901Z" fill="#221F1F"/>
<path d="M12.1502 18.7601C12.0502 18.7601 11.9402 18.7401 11.8402 18.7101L7.71017 17.3601C7.19017 17.1901 6.90017 16.6201 7.07017 16.1001C7.24017 15.5801 7.81017 15.2901 8.33017 15.4601L12.4602 16.8101C12.9802 16.9801 13.2702 17.5501 13.1002 18.0701C12.9602 18.4901 12.5702 18.7601 12.1502 18.7601Z" fill="#221F1F"/>
<path d="M33.7403 26.59C33.6303 26.59 33.5203 26.57 33.4103 26.53L29.5203 25.18C29.0003 25 28.7203 24.43 28.9003 23.91C29.0803 23.39 29.6503 23.11 30.1703 23.29L34.0603 24.64C34.5803 24.82 34.8603 25.39 34.6803 25.91C34.5403 26.32 34.1503 26.58 33.7403 26.58V26.59Z" fill="#221F1F"/>
</svg>
