<svg width="42" height="42" viewBox="0 0 42 42" fill="none" xmlns="http://www.w3.org/2000/svg">
<path d="M22.1798 26.3193C22.2598 26.9893 22.6898 27.5893 23.3298 27.8893L27.3098 29.7293C27.8498 29.9793 28.4798 29.9793 29.0198 29.7193C29.5598 29.4593 29.9498 28.9693 30.0898 28.3893L30.5598 26.4493C30.6198 26.2093 30.6298 25.9693 30.5998 25.7293C30.5598 25.4193 30.4498 25.1093 30.2598 24.8493C29.9398 24.3793 29.4298 24.0693 28.8698 23.9993L24.5398 23.4493C23.4998 23.3193 22.5298 24.0093 22.3198 25.0393L22.1898 25.6993C22.1498 25.9193 22.1398 26.1293 22.1698 26.3393L22.1798 26.3193Z" fill="white"/>
<path d="M10.95 39.9983C8.55 39.9983 6.31 39.0683 4.62 37.3783C2.93 35.6883 2 33.4383 2 31.0483C2 28.6583 2.93 26.4083 4.62 24.7183L7.79 21.5483C9.48 19.8583 11.72 18.9283 14.12 18.9283C16.52 18.9283 18.76 19.8583 20.45 21.5483C22.14 23.2383 23.07 25.4883 23.07 27.8783C23.07 30.2683 22.14 32.5183 20.45 34.2083L17.28 37.3783C15.59 39.0683 13.35 39.9983 10.95 39.9983ZM27.88 23.0583C25.48 23.0583 23.24 22.1283 21.55 20.4383C19.86 18.7483 18.93 16.4983 18.93 14.1083C18.93 11.7183 19.86 9.46828 21.55 7.77828L24.72 4.60828C26.41 2.91828 28.65 1.98828 31.05 1.98828C33.45 1.98828 35.69 2.91828 37.38 4.60828C39.07 6.29828 40 8.54828 40 10.9383C40 13.3283 39.07 15.5783 37.38 17.2683L34.21 20.4383C32.52 22.1283 30.28 23.0583 27.88 23.0583Z" fill="white"/>
<path d="M15.07 31.8997C14.17 31.8997 13.28 31.6497 12.51 31.1897C11.36 30.4997 10.55 29.4097 10.23 28.1197C9.90004 26.8197 10.1 25.4797 10.79 24.3297L14.64 17.8797C15.36 16.6797 16.67 15.9297 18.07 15.9297C18.27 15.9297 18.46 15.9397 18.66 15.9697C20.26 16.1997 21.55 17.3697 21.95 18.9497L22.64 21.6897C22.9 22.7197 22.74 23.7997 22.2 24.7197L19.37 29.4497C18.69 30.5897 17.6 31.4097 16.3 31.7297C15.9 31.8297 15.49 31.8797 15.08 31.8797L15.07 31.8997Z" fill="white"/>
<path d="M23.94 26.0594C23.74 26.0594 23.55 26.0494 23.35 26.0194C21.75 25.7894 20.46 24.6194 20.06 23.0394L19.37 20.2994C19.11 19.2694 19.27 18.1894 19.81 17.2694L22.64 12.5394C23.32 11.3994 24.41 10.5794 25.71 10.2594C26.11 10.1594 26.52 10.1094 26.93 10.1094C27.83 10.1094 28.72 10.3594 29.49 10.8194C30.64 11.5094 31.45 12.5994 31.77 13.8894C32.1 15.1894 31.9 16.5294 31.21 17.6794L27.36 24.1294C26.64 25.3294 25.33 26.0794 23.93 26.0794L23.94 26.0594Z" fill="white"/>
<path d="M19.8202 15.6783C19.7402 15.0083 19.3102 14.4083 18.6702 14.1083L14.6902 12.2683C14.1502 12.0183 13.5202 12.0183 12.9802 12.2783C12.4402 12.5383 12.0502 13.0283 11.9102 13.6083L11.4402 15.5483C11.3802 15.7883 11.3702 16.0283 11.4002 16.2683C11.4402 16.5783 11.5502 16.8883 11.7402 17.1483C12.0602 17.6183 12.5702 17.9283 13.1302 17.9983L17.4602 18.5483C18.5002 18.6783 19.4702 17.9883 19.6802 16.9583L19.8102 16.2983C19.8502 16.0783 19.8602 15.8683 19.8302 15.6583L19.8202 15.6783Z" fill="white"/>
<path d="M17.5201 10.3586C17.5101 10.2686 17.4901 10.1786 17.4701 10.0886L16.7201 7.27862C16.5601 6.69862 16.1501 6.21862 15.6001 5.96862C15.0501 5.71862 14.4201 5.73862 13.8801 6.00862L12.1001 6.91862C11.5701 7.18862 11.1901 7.68862 11.0601 8.26862C11.0101 8.49862 11.0001 8.72862 11.0301 8.94862C11.0701 9.29862 11.2101 9.63862 11.4401 9.92862L13.2401 12.2486C13.8501 13.0286 14.9401 13.2486 15.8001 12.7586L16.5301 12.3486C17.2501 11.9486 17.6301 11.1586 17.5301 10.3586H17.5201Z" fill="white"/>
<path d="M14.1201 20.94C12.2601 20.94 10.5101 21.66 9.20006 22.97L6.03006 26.14C3.32006 28.85 3.32006 33.26 6.03006 35.97C7.34006 37.28 9.08006 38 10.9501 38C12.8201 38 14.5601 37.28 15.8701 35.97L19.0401 32.8C21.7501 30.09 21.7501 25.68 19.0401 22.97C17.7301 21.66 15.9901 20.94 14.1201 20.94ZM35.9701 6.03C34.6601 4.72 32.9201 4 31.0501 4C29.1801 4 27.4401 4.72 26.1301 6.03L22.9601 9.2C20.2501 11.91 20.2501 16.32 22.9601 19.03C24.2701 20.34 26.0101 21.06 27.8801 21.06C29.7501 21.06 31.4901 20.34 32.8001 19.03L35.9701 15.86C38.6801 13.15 38.6801 8.74 35.9701 6.03Z" fill="#221F1F"/>
<path d="M14.1199 24.9414C14.9099 24.9414 15.6499 25.2414 16.2099 25.8014C17.3599 26.9514 17.3599 28.8214 16.2099 29.9714L13.0399 33.1414C12.4899 33.6914 11.7499 34.0014 10.9499 34.0014C10.1499 34.0014 9.41994 33.7014 8.85994 33.1414C8.29994 32.5814 7.99994 31.8514 7.99994 31.0514C7.99994 30.2514 8.29994 29.5214 8.85994 28.9614L12.0299 25.7914C12.5799 25.2414 13.3199 24.9314 14.1199 24.9314M14.1199 22.9414C12.8499 22.9414 11.5799 23.4214 10.6199 24.3814L7.44994 27.5514C5.51994 29.4814 5.51994 32.6314 7.44994 34.5514C8.40994 35.5114 9.67994 35.9914 10.9499 35.9914C12.2199 35.9914 13.4899 35.5114 14.4499 34.5514L17.6199 31.3814C19.5499 29.4514 19.5499 26.3014 17.6199 24.3814C16.6599 23.4214 15.3899 22.9414 14.1199 22.9414Z" fill="#9E9E9E"/>
<path d="M31.0501 8C31.8401 8 32.5801 8.3 33.1401 8.86C33.6901 9.41 34.0001 10.15 34.0001 10.95C34.0001 11.75 33.7001 12.48 33.1401 13.04L29.9701 16.21C29.4201 16.76 28.6801 17.07 27.8801 17.07C27.0801 17.07 26.3501 16.77 25.7901 16.21C24.6401 15.06 24.6401 13.19 25.7901 12.04L28.9601 8.87C29.5101 8.32 30.2501 8.01 31.0501 8.01M31.0501 6C29.7801 6 28.5101 6.48 27.5501 7.44L24.3801 10.61C22.4501 12.54 22.4501 15.69 24.3801 17.61C25.3401 18.57 26.6101 19.05 27.8801 19.05C29.1501 19.05 30.4201 18.57 31.3801 17.61L34.5501 14.44C36.4801 12.51 36.4801 9.36 34.5501 7.44C33.5901 6.48 32.3201 6 31.0501 6Z" fill="#9E9E9E"/>
<path d="M26.93 12.1009C27.47 12.1009 28 12.2509 28.47 12.5209C29.16 12.9309 29.64 13.5909 29.84 14.3609C30.04 15.1409 29.92 15.9409 29.51 16.6309L25.66 23.0809C25.3 23.6909 24.64 24.0509 23.94 24.0509C23.84 24.0509 23.75 24.0509 23.65 24.0309C22.85 23.9109 22.2 23.3209 22 22.5409L21.31 19.8009C21.18 19.2909 21.26 18.7409 21.53 18.2909L25.55 12.4909C25.96 11.8009 25.76 12.3009 26.54 12.1009C26.78 12.0409 26.68 12.1009 26.93 12.1009Z" fill="#221F1F"/>
<path d="M27.4402 14.2409C27.2002 14.1009 26.9302 14.0709 26.6802 14.1309C26.4302 14.1909 26.2102 14.3509 26.0702 14.5909L23.2402 19.3209L23.9302 22.0609L27.7802 15.6109C28.0602 15.1409 27.9102 14.5209 27.4302 14.2409H27.4402Z" fill="#9E9E9E"/>
<path d="M17.7099 16.5898L17.8399 15.9298L13.8599 14.0898L13.3799 16.0298L17.7099 16.5898Z" fill="#221F1F"/>
<path d="M14.81 11.0208L15.54 10.6108L14.79 7.80078L13 8.71078L14.81 11.0208Z" fill="#221F1F"/>
<path d="M24.4799 31.6406C24.4899 31.7306 24.5099 31.8206 24.5299 31.9106L25.2799 34.7206C25.4399 35.3006 25.8499 35.7806 26.3999 36.0306C26.9499 36.2806 27.5799 36.2606 28.1199 35.9906L29.8999 35.0806C30.4299 34.8106 30.8099 34.3106 30.9399 33.7306C30.9899 33.5006 30.9999 33.2706 30.9699 33.0506C30.9299 32.7006 30.7899 32.3606 30.5599 32.0706L28.7599 29.7506C28.1499 28.9706 27.0599 28.7506 26.1999 29.2406L25.4699 29.6506C24.7499 30.0506 24.3699 30.8406 24.4699 31.6406H24.4799Z" fill="white"/>
<path d="M24.2902 25.4102L24.1602 26.0702L28.1402 27.9102L28.6202 25.9702L24.2902 25.4102Z" fill="#221F1F"/>
<path d="M27.19 30.9805L26.46 31.3905L27.21 34.2005L29 33.2905L27.19 30.9805Z" fill="#221F1F"/>
<path d="M31.0498 6C29.7798 6 28.5098 6.48 27.5498 7.44L26.0098 8.98L27.5898 10.23L28.9698 8.85C29.5198 8.3 30.2598 7.99 31.0598 7.99C31.8598 7.99 32.5898 8.29 33.1498 8.85C33.6998 9.4 34.0098 10.14 34.0098 10.94C34.0098 11.74 33.7098 12.47 33.1498 13.03L32.2698 13.91L33.8498 15.16L34.5598 14.45C36.4898 12.52 36.4898 9.37 34.5598 7.45C33.5998 6.49 32.3298 6.01 31.0598 6.01L31.0498 6Z" fill="#E4E4E4"/>
<path d="M27.4398 14.2409C27.1998 14.1009 26.9298 14.0709 26.6798 14.1309C26.4298 14.1909 26.2098 14.3509 26.0698 14.5909L24.5098 17.2009L26.3998 17.9409L27.7898 15.6209C28.0698 15.1509 27.9198 14.5309 27.4398 14.2509V14.2409Z" fill="#E4E4E4"/>
<path d="M14.1202 22.9397C12.8502 22.9397 11.5802 23.4197 10.6202 24.3797L9.49023 25.5097L10.8502 26.9797L12.0402 25.7897C12.5902 25.2397 13.3302 24.9297 14.1302 24.9297C14.8502 24.9297 15.5202 25.1897 16.0502 25.6497L17.2002 24.0197C16.3002 23.3097 15.2202 22.9297 14.1302 22.9297L14.1202 22.9397Z" fill="#E4E4E4"/>
<path d="M15.0701 29.8992C14.5301 29.8992 14.0001 29.7492 13.5301 29.4792C12.8401 29.0692 12.3601 28.4092 12.1601 27.6392C11.9601 26.8592 12.0801 26.0592 12.4901 25.3692L16.3401 18.9192C16.7001 18.3092 17.3601 17.9492 18.0601 17.9492C18.1601 17.9492 18.2501 17.9492 18.3501 17.9692C19.1501 18.0892 19.8001 18.6792 20.0001 19.4592L20.6901 22.1992C20.8201 22.7092 20.7401 23.2592 20.4701 23.7092L16.4101 29.6092C16.0001 30.2992 15.6001 29.9392 14.8201 30.1392C14.5801 30.1992 15.3101 29.8992 15.0701 29.8992Z" fill="#221F1F"/>
<path d="M14.56 27.7614C14.8 27.9014 15.07 27.9314 15.32 27.8714C15.57 27.8114 15.79 27.6514 15.93 27.4114L18.76 22.6814L18.07 19.9414L14.22 26.3914C13.94 26.8614 14.09 27.4814 14.57 27.7614H14.56Z" fill="#9E9E9E"/>
</svg>
