<svg width="42" height="42" viewBox="0 0 42 42" fill="none" xmlns="http://www.w3.org/2000/svg">
<path d="M22.5 40C12.9 40 5 32.2 5 22.5C5 20.2 5.5 18 6.3 15.9C3.8 14.8 2 12.2 2 9.2C2 5.2 5.2 2 9.2 2C12.2 2 14.8 3.8 15.9 6.4C18 5.5 20.3 5.1 22.5 5.1C32.1 5.1 40 12.9 40 22.6C40 32.3 32.2 40 22.5 40Z" fill="white"/>
<path d="M9.2 13.4C11.5196 13.4 13.4 11.5196 13.4 9.2C13.4 6.8804 11.5196 5 9.2 5C6.8804 5 5 6.8804 5 9.2C5 11.5196 6.8804 13.4 9.2 13.4Z" fill="#EDD286"/>
<path d="M9.2 14.5C6.4 14.5 4 12.1 4 9.2C4 6.3 6.4 4 9.2 4C12 4 14.4 6.4 14.4 9.2C14.4 12 12.1 14.5 9.2 14.5ZM9.2 6C7.5 6 6 7.5 6 9.2C6 11 7.5 12.4 9.2 12.4C11 12.4 12.4 10.9 12.4 9.2C12.5 7.5 11 6 9.2 6Z" fill="#221F1F"/>
<path d="M9.2 8C8.6 8 8 8.6 8 9.2C8 9.8 8.6 10.4 9.2 10.4C9.9 10.4 10.4 9.8 10.4 9.2C10.4 8.6 9.9 8 9.2 8Z" fill="#221F1F"/>
<path d="M22.5 37C30.5081 37 37 30.5081 37 22.5C37 14.4919 30.5081 8 22.5 8C14.4919 8 8 14.4919 8 22.5C8 30.5081 14.4919 37 22.5 37Z" fill="#EDD286"/>
<path d="M22.4996 38C13.9996 38 7.09961 31.1 7.09961 22.5C7.09961 13.9 13.9996 7.09998 22.4996 7.09998C30.9996 7.09998 37.9996 14 37.9996 22.5C37.9996 31 31.0996 38 22.4996 38ZM22.4996 9.09998C15.0996 9.09998 8.99961 15.1 8.99961 22.6C8.99961 30.1 15.0996 36 22.4996 36C29.8996 36 35.9996 30 35.9996 22.5C35.9996 15 29.9996 9.09998 22.4996 9.09998Z" fill="#221F1F"/>
<path d="M22.5 33C28.299 33 33 28.299 33 22.5C33 16.701 28.299 12 22.5 12C16.701 12 12 16.701 12 22.5C12 28.299 16.701 33 22.5 33Z" fill="white"/>
<path fill-rule="evenodd" clip-rule="evenodd" d="M18.8004 15.1C25.0004 15.1 30.0004 20.1 30.0004 26.3C30.0004 27.1 29.9004 27.9 29.8004 28.6C31.2004 27 32.0004 24.8 32.0004 22.5C32.0004 17.3 27.8004 13 22.5004 13C20.2004 13 18.0004 13.8 16.4004 15.2C17.2004 15.2 18.0004 15.1 18.8004 15.1Z" fill="#A2D6FF"/>
<path d="M22.5 34C16.2 34 11 28.9 11 22.5C11 16.2 16.1 11 22.5 11C28.8 11 34 16.1 34 22.5C34 28.9 28.9 34 22.5 34ZM22.5 13.1C17.3 13.1 13 17.3 13 22.6C13 27.8 17.2 32.1 22.5 32.1C27.7 32.1 32 27.9 32 22.6C32 17.3 27.8 13.1 22.5 13.1Z" fill="#221F1F"/>
<path d="M25.9004 22.2L23.4004 15.7C23.3004 15.4 22.9004 15.1 22.5004 15.1C22.1004 15.1 21.7004 15.3 21.6004 15.7L19.1004 22.2C19.0004 22.4 19.0004 22.7 19.1004 22.9L21.6004 29.4C21.7004 29.7 22.1004 30 22.5004 30C23.0004 30 23.3004 29.7 23.4004 29.4L25.9004 22.9C26.0004 22.7 26.0004 22.4 25.9004 22.2Z" fill="#221F1F"/>
<path fill-rule="evenodd" clip-rule="evenodd" d="M21.2002 22.5L22.5002 26.2L23.8002 22.5H21.2002Z" fill="#D88C7D"/>
</svg>
