<svg width="42" height="42" viewBox="0 0 42 42" fill="none" xmlns="http://www.w3.org/2000/svg">
<path d="M26.9001 40C26.0001 40 25.2001 39.6 24.6001 39L21.0001 34.9L19.1001 37.4C18.5001 38.2 17.6001 38.6 16.7001 38.6C16.4001 38.6 16.1001 38.6 15.9001 38.5C14.7001 38.2 13.8001 37.1 13.7001 35.9L13.6001 35.1L8.40014 37.5C8.00014 37.7 7.60014 37.8 7.20014 37.8C6.40014 37.8 5.60014 37.5 5.10014 36.9C4.20014 36 4.00014 34.7 4.50014 33.5L6.10014 30H4.90014C3.70014 30 2.50014 29.2 2.10014 28C1.70014 26.8 2.00014 25.5 3.00014 24.7L7.10014 21.1L4.60014 19.2C3.60014 18.5 3.20014 17.2 3.50014 16C3.80014 14.8 4.90014 13.9 6.10014 13.8L6.90014 13.7L4.60014 8.5C4.10014 7.4 4.30014 6.1 5.20014 5.2C5.80014 4.6 6.50014 4.3 7.30014 4.3C7.70014 4.3 8.20014 4.4 8.50014 4.6L12.0001 6.2V5C12.0001 3.8 12.8001 2.6 14.0001 2.2C14.3001 2.1 14.7001 2 15.0001 2C15.9001 2 16.7001 2.4 17.3001 3L20.9001 7.1L22.8001 4.6C23.4001 3.8 24.3001 3.4 25.2001 3.4C25.5001 3.4 25.8001 3.4 26.0001 3.5C27.2001 3.8 28.1001 4.9 28.2001 6.1L28.3001 6.9L33.5001 4.5C33.9001 4.3 34.3001 4.2 34.7001 4.2C35.5001 4.2 36.3001 4.5 36.8001 5.1C37.7001 6 37.9001 7.3 37.4001 8.5L35.8001 12H37.0001C38.2001 12 39.4001 12.8 39.8001 14C40.2001 15.2 39.9001 16.5 38.9001 17.3L34.8001 20.9L37.3001 22.8C38.3001 23.5 38.7001 24.8 38.4001 26C38.1001 27.2 37.0001 28.1 35.8001 28.2L35.0001 28.3L37.4001 33.5C37.9001 34.6 37.7001 36 36.8001 36.9C36.2001 37.5 35.5001 37.8 34.7001 37.8C34.3001 37.8 33.9001 37.7 33.5001 37.5L30.0001 35.9V37.1C30.0001 38.3 29.2001 39.5 28.0001 39.9C27.6001 39.9 27.3001 40 26.9001 40Z" fill="white"/>
<path fill-rule="evenodd" clip-rule="evenodd" d="M30 21.1L37 15.1L31.2 15L34.7 7.3L25.6 11.5L25.2 6.4L21.1 12L15.1 5L15 10.8L7.3 7.3L11.5 16.4L6.4 16.8L12 20.9L5 26.9L10.8 27L7.3 34.7L16.4 30.5L16.8 35.6L20.9 30L26.9 37L27 31.2L34.7 34.7L30.5 25.6L35.6 25.2L30 21.1Z" fill="#F4AB69"/>
<path d="M26.9 38C26.6 38 26.3 37.9 26.1 37.7L20.9 31.7L17.5 36.3C17.3 36.6 16.8 36.8 16.4 36.7C16 36.6 15.7 36.2 15.7 35.8L15.5 32L7.7 35.6C7.3 35.8 6.9 35.7 6.6 35.4C6.3 35.1 6.2 34.7 6.4 34.3L9.3 28H5C4.6 28 4.2 27.7 4.1 27.3C4 26.9 4.1 26.5 4.4 26.2L10.4 21L5.8 17.6C5.5 17.4 5.3 16.9 5.4 16.5C5.5 16.1 5.9 15.8 6.3 15.8L9.9 15.5L6.4 7.7C6.2 7.3 6.3 6.9 6.6 6.6C6.9 6.3 7.3 6.2 7.7 6.4L14 9.3V5C14 4.6 14.3 4.2 14.7 4.1C15.1 4 15.5 4.1 15.8 4.4L21 10.4L24.4 5.8C24.6 5.5 25.1 5.3 25.5 5.4C25.9 5.5 26.2 5.9 26.2 6.3L26.5 9.9L34.3 6.3C34.7 6.1 35.1 6.2 35.4 6.5C35.7 6.8 35.8 7.2 35.6 7.6L32.7 14H37C37.4 14 37.8 14.3 37.9 14.7C38 15.1 37.9 15.5 37.6 15.8L31.6 21L36.2 24.4C36.5 24.6 36.7 25.1 36.6 25.5C36.5 25.9 36.1 26.2 35.7 26.2L32 26.5L35.6 34.3C35.8 34.7 35.7 35.1 35.4 35.4C35.1 35.7 34.7 35.8 34.3 35.6L28 32.7V37C28 37.4 27.7 37.8 27.3 37.9C27.2 38 27.1 38 26.9 38ZM20.9 29C21.2 29 21.5 29.1 21.7 29.3L26 34.2V31C26 30.7 26.2 30.3 26.5 30.2C26.8 30 27.1 30 27.5 30.1L32.8 32.5L29.8 25.8C29.7 25.5 29.7 25.2 29.8 24.9C30 24.6 30.3 24.4 30.6 24.4L33 24.2L29.6 21.7C29.4 21.5 29.2 21.2 29.2 20.9C29.2 20.6 29.3 20.3 29.5 20.1L34.4 15.8H31.2C30.9 15.8 30.5 15.6 30.4 15.3C30.3 15 30.2 14.7 30.3 14.3L32.7 9L26 12C25.7 12.1 25.4 12.1 25.1 12C24.8 11.8 24.6 11.5 24.6 11.2L24.4 8.8L21.9 12.2C21.7 12.4 21.4 12.6 21.1 12.6C20.8 12.6 20.5 12.5 20.3 12.3L16 7.4V10.6C16 10.9 15.8 11.3 15.5 11.4C15.2 11.6 14.9 11.6 14.5 11.5L9.3 9.3L12.3 16C12.4 16.3 12.4 16.6 12.3 16.9C12.1 17.2 11.8 17.4 11.5 17.4L9.1 17.6L12.5 20.1C12.7 20.3 12.9 20.6 12.9 20.9C12.9 21.2 12.8 21.5 12.6 21.7L7.7 26H10.9C11.2 26 11.6 26.2 11.7 26.5C11.9 26.8 11.9 27.1 11.8 27.5L9.4 32.8L16.1 29.8C16.4 29.7 16.7 29.7 17 29.8C17.3 30 17.5 30.3 17.5 30.6L17.7 33L20.2 29.6C20.4 29.2 20.6 29.1 20.9 29Z" fill="#221F1F"/>
<path fill-rule="evenodd" clip-rule="evenodd" d="M27.6004 15.6L24.3004 21.3L26.4004 27.6L20.7004 24.3L14.4004 26.4L17.7004 20.7L15.6004 14.4L21.3004 17.7L27.6004 15.6Z" fill="#F7DF69"/>
<path d="M26.4003 28.6C26.2003 28.6 26.1003 28.6 25.9003 28.5L20.6003 25.4L14.8003 27.4C14.4003 27.5 14.0003 27.4 13.7003 27.1C13.4003 26.8 13.4003 26.3 13.6003 26L16.7003 20.7L14.7003 14.9C14.6003 14.5 14.7003 14.1 15.0003 13.8C15.3003 13.5 15.8003 13.5 16.1003 13.7L21.4003 16.8L27.2003 14.8C27.6003 14.7 28.0003 14.8 28.3003 15.1C28.6003 15.4 28.6003 15.9 28.4003 16.2L25.3003 21.5L27.3003 27.3C27.4003 27.7 27.3003 28.1 27.0003 28.4C26.8003 28.5 26.6003 28.6 26.4003 28.6ZM20.7003 23.3C20.9003 23.3 21.0003 23.3 21.2003 23.4L24.6003 25.4L23.3003 21.7C23.2003 21.4 23.2003 21.1 23.4003 20.9L25.4003 17.5L21.7003 18.8C21.4003 18.9 21.1003 18.9 20.9003 18.7L17.5003 16.7L18.8003 20.4C18.9003 20.7 18.9003 21 18.7003 21.2L16.7003 24.6L20.4003 23.3C20.5003 23.3 20.6003 23.3 20.7003 23.3Z" fill="#221F1F"/>
</svg>
