<svg width="42" height="42" viewBox="0 0 42 42" fill="none" xmlns="http://www.w3.org/2000/svg">
<path d="M20.0336 41.055C16.2641 41.055 13.3766 39.0075 12.6731 35.826C11.6651 31.29 14.2166 28.9905 15.5921 27.7515C15.8861 27.489 16.1591 27.237 16.3061 27.0585C16.8626 26.3865 17.5556 24.7695 17.3981 23.7615C17.3456 23.436 17.2196 23.331 17.0936 23.247C14.4581 21.588 11.4026 19.2255 11.0876 15.5925C10.9721 14.28 11.3921 12.936 12.2531 11.8335C10.6781 10.941 9.56507 9.09299 9.48107 6.91949C9.40757 5.24999 9.96407 3.65399 10.9931 2.53049C11.8436 1.60649 12.9566 1.08149 14.1431 1.02899C14.1746 1.02899 14.2796 1.02899 14.3111 1.02899C15.9176 1.02899 17.3561 1.91099 18.2591 3.29699C18.8576 2.88749 19.5611 2.64599 20.3171 2.64599C21.3881 2.67749 22.3016 3.09749 22.9946 3.84299C23.2361 4.10549 23.4566 4.39949 23.6351 4.71449C24.0761 4.51499 24.5486 4.40999 25.0316 4.40999C25.1996 4.40999 25.3571 4.42049 25.5251 4.45199C26.4071 4.58849 27.1841 5.08199 27.7301 5.83799C27.9611 6.15299 28.1396 6.49949 28.2656 6.87749C28.3706 6.87749 28.4651 6.86699 28.5701 6.86699C28.7801 6.86699 28.9901 6.88799 29.2001 6.92999C30.0401 7.09799 30.7751 7.61249 31.2581 8.35799C31.5731 8.85149 31.7726 9.41849 31.8461 10.0275C32.6966 10.2165 33.4211 10.7205 33.9041 11.4555C34.4186 12.243 34.5971 13.2405 34.3871 14.196C34.0406 15.7605 32.7386 16.905 31.2266 17.0205C32.1926 19.908 31.6046 23.2785 29.4836 27.048C27.5936 30.3975 27.4256 32.2455 27.2681 33.8625C27.1211 35.427 26.9741 37.044 25.3886 38.934C24.2861 40.257 22.2806 41.0445 20.0231 41.0445L20.0336 41.055Z" fill="white"/>
<path d="M14.5288 10.3235C16.0756 10.2525 17.2556 8.58881 17.1646 6.60765C17.0736 4.62648 15.746 3.07803 14.1993 3.14908C12.6526 3.22012 11.4725 4.88377 11.5635 6.86494C11.6546 8.84611 12.9822 10.3946 14.5288 10.3235Z" fill="#221F1F"/>
<path d="M14.4267 8.232C14.2482 8.232 13.7022 7.728 13.6602 6.762C13.6287 6.111 13.8492 5.628 14.0697 5.397C14.1537 5.313 14.2377 5.25 14.2902 5.25C14.4792 5.25 15.0147 5.754 15.0567 6.72C15.0882 7.371 14.8677 7.854 14.6472 8.085C14.5632 8.1795 14.4792 8.232 14.4267 8.232Z" fill="#9891F5"/>
<path d="M22.1632 7.42821C22.2154 5.99681 21.4074 4.8054 20.3586 4.76712C19.3096 4.72885 18.4169 5.8582 18.3647 7.28959C18.3124 8.72099 19.1204 9.91239 20.1693 9.95068C21.2183 9.98895 22.1109 8.85961 22.1632 7.42821Z" fill="#221F1F"/>
<path d="M26.3647 8.96885C26.5781 7.78758 26.0665 6.70628 25.2219 6.55371C24.3772 6.40114 23.5196 7.23506 23.3062 8.41633C23.0929 9.5976 23.6045 10.6789 24.4491 10.8315C25.2937 10.984 26.1513 10.1501 26.3647 8.96885Z" fill="#221F1F"/>
<path d="M29.7103 11.0589C29.943 10.101 29.5422 9.18127 28.8153 9.00474C28.0884 8.8282 27.3104 9.46169 27.0779 10.4197C26.8452 11.3777 27.2459 12.2974 27.9728 12.4739C28.6998 12.6504 29.4776 12.0169 29.7103 11.0589Z" fill="#221F1F"/>
<path d="M32.3117 13.8553C32.529 13.0851 32.1486 12.3038 31.4621 12.1102C30.7756 11.9166 30.043 12.384 29.8258 13.1542C29.6085 13.9244 29.9889 14.7058 30.6754 14.8994C31.3619 15.093 32.0945 14.6256 32.3117 13.8553Z" fill="#221F1F"/>
<path d="M13.1775 15.4245C12.957 12.81 16.3275 9.7125 22.8585 12.1905C29.3895 14.6685 31.542 19.1625 27.6675 26.0295C23.793 32.8965 26.3445 34.5555 23.793 37.6005C22.0185 39.7215 15.666 39.6165 14.721 35.3745C13.776 31.1325 16.7685 29.82 17.9235 28.4025C19.0785 26.985 20.685 23.0475 18.1965 21.483C15.708 19.9185 13.3875 17.997 13.167 15.4245H13.1775Z" fill="#221F1F"/>
<path d="M20.034 36.855C19.5615 36.855 17.178 36.7605 16.779 34.923C16.3065 32.781 17.1885 31.983 18.4065 30.8805C18.8055 30.5235 19.215 30.156 19.5615 29.736C20.5905 28.4865 21.966 25.683 21.546 23.1C21.3045 21.6405 20.538 20.4645 19.3305 19.7085C16.6845 18.039 15.393 16.6215 15.2775 15.246C15.2565 14.952 15.393 14.616 15.6555 14.3325C15.981 13.9755 16.7685 13.3875 18.438 13.3875C19.53 13.3875 20.769 13.65 22.113 14.1645C24.8955 15.2145 26.6175 16.6005 27.2265 18.2805C27.8565 20.0025 27.384 22.2705 25.8405 25.011C23.5095 29.1375 23.2785 31.6575 23.1105 33.495C22.9845 34.8285 22.932 35.3745 22.197 36.2565C21.987 36.5085 21.1785 36.8655 20.0445 36.8655L20.034 36.855Z" fill="#9891F5"/>
</svg>
