<svg width="42" height="42" viewBox="0 0 42 42" fill="none" xmlns="http://www.w3.org/2000/svg">
<path d="M39.9898 11.68C39.9898 11.59 39.9898 11.5 39.9698 11.4C39.9598 11.26 39.9298 11.12 39.8998 10.99C39.8898 10.92 39.8798 10.86 39.8598 10.79C39.8098 10.61 39.7498 10.43 39.6698 10.26C39.6498 10.2 39.6198 10.15 39.5898 10.09C39.5198 9.95 39.4398 9.81 39.3598 9.67C39.3298 9.63 39.3098 9.58 39.2798 9.54C39.1598 9.37 39.0298 9.2 38.8798 9.05C38.8598 9.03 38.8398 9.01 38.8098 8.99C38.6798 8.86 38.5398 8.74 38.3898 8.63C38.3598 8.61 38.3398 8.59 38.3098 8.57L30.0998 2.74C29.4198 2.26 28.6198 2 27.7898 2C27.4698 2 27.1598 2.04 26.8298 2.12L16.0498 4.78C15.2398 4.98 14.5198 5.42 13.9698 6.06L2.96977 18.85C2.96977 18.85 2.93977 18.9 2.91977 18.92C2.76977 19.1 2.63977 19.29 2.52977 19.49C2.47977 19.57 2.44977 19.66 2.40977 19.75C2.33977 19.9 2.26977 20.05 2.21977 20.21C2.18977 20.3 2.16977 20.39 2.14977 20.49C2.10977 20.65 2.07977 20.81 2.05977 20.97C2.04977 21.07 2.03977 21.16 2.02977 21.26C2.02977 21.33 2.00977 21.39 2.00977 21.46V30.17C2.00977 31.46 2.63977 32.68 3.68977 33.43L11.8998 39.26C12.5798 39.74 13.3798 40 14.2198 40C14.7698 40 15.2998 39.89 15.8098 39.67L33.8498 31.86C34.7298 31.48 35.4398 30.8 35.8598 29.95L39.5998 22.3C39.8698 21.76 40.0098 21.15 40.0098 20.54V11.83C40.0098 11.78 40.0098 11.73 40.0098 11.68H39.9898Z" fill="white"/>
<path d="M14.21 38.0003C13.8 38.0003 13.4 37.8803 13.05 37.6303L4.84 31.8003C4.31 31.4203 4 30.8203 4 30.1703V21.4603C4 20.5203 4.66 19.7003 5.58 19.5003L14.09 17.6803L15.49 16.0603C15.76 15.7403 16.12 15.5203 16.53 15.4203L27.31 12.7603C27.47 12.7203 27.63 12.7003 27.79 12.7003C28.18 12.7003 28.56 12.8103 28.89 13.0303L35.14 10.0203C35.42 9.89031 35.71 9.82031 36.01 9.82031C36.38 9.82031 36.75 9.92031 37.07 10.1303C37.65 10.5003 38.01 11.1303 38.01 11.8203V20.5303C38.01 20.8303 37.94 21.1403 37.81 21.4103L34.07 29.0603C33.86 29.4903 33.51 29.8303 33.07 30.0203L15.03 37.8303C14.78 37.9403 14.5 38.0003 14.24 38.0003H14.21Z" fill="#221F1F"/>
<path d="M28.69 15.3501L27.79 14.7101L17.01 17.3701L15.17 19.5001L6 21.4601V30.1701L14.21 36.0001L32.26 28.1901L36 20.5401V11.8301L28.69 15.3501Z" fill="#9E9E9E"/>
<path d="M14.2101 29.2902C13.8001 29.2902 13.4001 29.1702 13.0501 28.9202L4.84007 23.0902C4.38007 22.7602 4.08007 22.2602 4.01007 21.7002C3.94007 21.1402 4.11007 20.5802 4.48007 20.1502L15.4901 7.35023C15.7601 7.03023 16.1201 6.81023 16.5301 6.71023L27.3101 4.05023C27.4701 4.01023 27.6301 3.99023 27.7901 3.99023C28.2001 3.99023 28.6101 4.12023 28.9501 4.36023L37.1601 10.1902C37.9601 10.7602 38.2301 11.8202 37.8001 12.7002L34.0601 20.3502C33.8501 20.7802 33.5001 21.1202 33.0601 21.3102L15.0201 29.1202C14.7701 29.2302 14.4901 29.2902 14.2301 29.2902H14.2101Z" fill="#221F1F"/>
<path d="M32.26 19.48L36 11.83L27.79 6L17.01 8.66L6 21.46L14.21 27.29L32.26 19.48Z" fill="#9E9E9E"/>
<path d="M19.5499 18.6799C19.2399 18.6799 18.9299 18.5299 18.7299 18.2599C18.4099 17.8099 18.5199 17.1799 18.9699 16.8699L28.4099 10.1699C28.8599 9.84986 29.4799 9.95986 29.7999 10.4099C30.1199 10.8599 30.0099 11.4899 29.5599 11.7999L20.1199 18.4999C19.9399 18.6199 19.7399 18.6799 19.5399 18.6799H19.5499Z" fill="#221F1F"/>
<path d="M27.9002 15.8394C27.7002 15.8394 27.5002 15.7794 27.3202 15.6594L22.9602 12.5694C22.5102 12.2494 22.4002 11.6294 22.7202 11.1794C23.0402 10.7294 23.6602 10.6194 24.1102 10.9394L28.4702 14.0294C28.9202 14.3494 29.0302 14.9694 28.7102 15.4194C28.5202 15.6894 28.2102 15.8394 27.8902 15.8394H27.9002Z" fill="#221F1F"/>
<path d="M15 28H13V37H15V28Z" fill="#221F1F"/>
<path d="M5 22V31L13.76 36.93L14 29L5 22Z" fill="#221F1F"/>
</svg>
