<svg width="42" height="42" viewBox="0 0 42 42" fill="none" xmlns="http://www.w3.org/2000/svg">
<path d="M35.9839 17.619C37.6744 14.4375 39.2284 11.109 40.7089 7.49706C41.2444 6.20556 40.8664 4.73556 39.7744 3.85356C39.2179 3.40206 38.5144 3.15006 37.7899 3.15006C37.1599 3.15006 36.5508 3.33906 36.0154 3.69606C34.7029 4.58856 33.3589 4.99806 31.7839 4.99806C29.5789 4.99806 27.1744 4.17906 24.6229 3.30756C21.6829 2.31006 18.6484 1.28106 15.4144 1.28106C14.0494 1.28106 12.7579 1.47006 11.5084 1.83756C10.9519 1.34406 10.2378 1.03955 9.43984 1.03955H5.23984C3.50734 1.03955 2.08984 2.45706 2.08984 4.18956V37.7896C2.08984 39.522 3.50734 40.9395 5.23984 40.9395H9.43984C11.1724 40.9395 12.5899 39.522 12.5899 37.7896V27.0585C13.4824 26.6805 14.4064 26.4915 15.4459 26.4915C17.6509 26.4915 20.0554 27.3105 22.6174 28.182C25.5469 29.1795 28.5814 30.2085 31.8259 30.2085C34.6504 30.2085 37.1914 29.421 39.5749 27.804C40.3414 27.279 40.8454 26.4495 40.9399 25.5255C41.0344 24.6015 40.7194 23.6775 40.0684 23.0055C38.8084 21.714 37.4748 19.9395 35.9944 17.619H35.9839Z" fill="white"/>
<path d="M9.45 4.20001H5.25V37.8H9.45V4.20001Z" fill="#F7DF69"/>
<path d="M9.4502 38.85H5.2502C4.6727 38.85 4.2002 38.3775 4.2002 37.8V4.20002C4.2002 3.62252 4.6727 3.15002 5.2502 3.15002H9.4502C10.0277 3.15002 10.5002 3.62252 10.5002 4.20002V37.8C10.5002 38.3775 10.0277 38.85 9.4502 38.85ZM6.3002 36.75H8.4002V5.25002H6.3002V36.75Z" fill="#221F1F"/>
<path fill-rule="evenodd" clip-rule="evenodd" d="M37.8002 25.2C28.3502 31.626 18.9002 18.774 9.4502 25.2V6.29997C18.9002 -0.126028 28.3502 12.726 37.8002 6.29997C35.9837 10.731 34.1672 14.4375 32.3507 17.7135C34.1672 20.7375 35.9837 23.3205 37.8002 25.2Z" fill="#B7EDB7"/>
<path d="M26.25 7.16099V26.061C30.1035 27.237 33.9465 27.8145 37.8 25.2C35.9835 23.331 34.167 20.7375 32.3505 17.7135C34.167 14.4375 35.9835 10.7205 37.8 6.29999C33.9465 8.91449 30.1035 8.33699 26.25 7.16099Z" fill="#9CDB9C"/>
<path d="M31.8259 28.1085C28.9279 28.1085 26.0824 27.1425 23.2894 26.187C18.6799 24.6225 14.3329 23.142 10.0384 26.061C9.71289 26.2815 9.30339 26.3025 8.95689 26.124C8.61039 25.9455 8.40039 25.5885 8.40039 25.2V6.3C8.40039 5.9535 8.56839 5.628 8.86239 5.4285C14.0179 1.9215 19.0789 3.6435 23.9614 5.3025C28.5709 6.867 32.9179 8.3475 37.2124 5.4285C37.6009 5.166 38.1049 5.187 38.4619 5.481C38.8189 5.775 38.9449 6.2685 38.7769 6.699C37.1599 10.647 35.4484 14.2485 33.5689 17.6925C35.3854 20.6535 37.0234 22.8795 38.5669 24.4755C38.7874 24.696 38.8924 25.0005 38.8609 25.3155C38.8294 25.62 38.6614 25.9035 38.4094 26.082C36.2044 27.5835 34.0099 28.1295 31.8469 28.1295L31.8259 28.1085ZM15.4249 22.2915C18.3229 22.2915 21.1684 23.2575 23.9614 24.213C28.1929 25.6515 32.2039 27.0165 36.1519 24.969C34.6714 23.268 33.1279 21.063 31.4479 18.2595C31.2589 17.934 31.2484 17.535 31.4269 17.2095C32.9494 14.4585 34.3564 11.613 35.7004 8.5575C31.4689 10.08 27.3214 8.673 23.2894 7.2975C18.8479 5.7855 14.6479 4.3575 10.5004 6.8775V23.394C12.1489 22.6065 13.7974 22.2915 15.4249 22.2915Z" fill="#221F1F"/>
</svg>
