<svg width="42" height="42" viewBox="0 0 42 42" fill="none" xmlns="http://www.w3.org/2000/svg">
<path d="M27.9001 36C27.3401 33.16 24.4701 31 21.0001 31C17.5301 31 14.6601 33.16 14.1001 36H27.8901H27.9001Z" fill="#221F1F"/>
<path d="M9 8C7.35 8 6 6.65 6 5C6 3.35 7.35 2 9 2H33C34.65 2 36 3.35 36 5C36 6.65 34.65 8 33 8H9Z" fill="white"/>
<path d="M12.04 40C9.93 40 8.18 38.35 8.05 36.24C8.02 35.78 8 35.32 8 34.86C8 29.32 10.1 24.1 13.53 21C10.1 17.9 8 12.68 8 7.14C8 6.67 8.02 6.21 8.05 5.76C8.18 3.65 9.93 2 12.04 2H29.96C32.07 2 33.82 3.65 33.95 5.76C33.98 6.22 34 6.68 34 7.14C34 12.68 31.9 17.9 28.47 21C31.9 24.1 34 29.32 34 34.86C34 35.33 33.98 35.79 33.95 36.24C33.82 38.35 32.07 40 29.96 40H12.04Z" fill="white"/>
<path d="M9 40C7.35 40 6 38.65 6 37C6 35.35 7.35 34 9 34H33C34.65 34 36 35.35 36 37C36 38.65 34.65 40 33 40H9Z" fill="white"/>
<path d="M12.04 37.9983C10.98 37.9983 10.11 37.1783 10.04 36.1183C10.01 35.6983 10 35.2883 10 34.8583C10 29.5283 12.09 24.6083 15.47 21.9783C15.54 21.9183 15.61 21.8583 15.69 21.8083C16.07 21.5483 16.35 21.1183 16.37 20.9683C16.35 20.8683 16.07 20.4383 15.69 20.1783C15.61 20.1283 15.54 20.0683 15.47 20.0083C12.09 17.3683 10 12.4583 10 7.12828C10 6.70828 10.02 6.28828 10.04 5.86828C10.1 4.80828 10.98 3.98828 12.04 3.98828H29.96C31.02 3.98828 31.89 4.80828 31.96 5.86828C31.99 6.28828 32 6.69828 32 7.12828C32 12.4583 29.91 17.3783 26.53 20.0083C26.46 20.0683 26.39 20.1283 26.31 20.1783C25.93 20.4383 25.65 20.8683 25.63 21.0183C25.65 21.1183 25.93 21.5483 26.31 21.8083C26.39 21.8583 26.46 21.9183 26.53 21.9783C29.91 24.6183 32 29.5283 32 34.8583C32 35.2783 31.98 35.6983 31.96 36.1183C31.9 37.1783 31.02 37.9983 29.96 37.9983H12.04Z" fill="#221F1F"/>
<path d="M12 7.14C12 12.08 13.95 16.37 16.8 18.53C17.57 19.05 18.37 20.05 18.37 21.01C18.37 21.97 17.57 22.97 16.8 23.48C13.94 25.64 12 29.93 12 34.87C12 35.25 12.02 35.63 12.04 36.01H29.96C29.98 35.63 30 35.26 30 34.87C30 29.93 28.05 25.64 25.2 23.48C24.43 22.96 23.63 21.96 23.63 21C23.63 20.04 24.43 19.04 25.2 18.53C28.06 16.37 30 12.08 30 7.14C30 6.76 29.98 6.38 29.96 6H12.04C12.02 6.38 12 6.75 12 7.14Z" fill="white"/>
<path d="M33 36H9C8.44772 36 8 36.4477 8 37C8 37.5523 8.44772 38 9 38H33C33.5523 38 34 37.5523 34 37C34 36.4477 33.5523 36 33 36Z" fill="#221F1F"/>
<path d="M33 4H9C8.44772 4 8 4.44772 8 5C8 5.55228 8.44772 6 9 6H33C33.5523 6 34 5.55228 34 5C34 4.44772 33.5523 4 33 4Z" fill="#221F1F"/>
<path d="M13.91 6H12.14C12.08 6.5 12.04 7.01 12.02 7.53C12.12 12.3 14.03 16.42 16.81 18.52C16.97 18.63 17.14 18.77 17.3 18.92C18.43 19.61 19.69 20 21.01 20C22.33 20 23.63 19.59 24.77 18.88C24.91 18.75 25.06 18.63 25.21 18.53C26.37 17.65 27.37 16.41 28.16 14.94C27.78 14.98 27.4 15.01 27.02 15.01C21.38 15.01 16.49 11.37 13.93 6.01L13.91 6Z" fill="#A2D6FF"/>
<path d="M18.0099 16.93C18.0099 16.93 18.05 16.96 18.07 16.98C19.16 17.77 20.3701 19.25 20.3701 21.01V23.01H21.6299V21.01C21.6299 19.26 22.8399 17.78 23.9299 16.98C23.9499 16.96 23.9699 16.95 23.99 16.93C26.1399 15.31 27.6099 12.13 27.9299 8.59C27.9599 8.28 27.6999 8 27.3799 8H14.5999C14.2799 8 14.0299 8.27 14.0499 8.59C14.3699 12.13 15.85 15.31 17.99 16.93H18.0099Z" fill="#221F1F"/>
<path d="M21.4101 16.5917C21.1901 16.8417 20.8001 16.8417 20.5801 16.5917C20.1501 16.1017 19.6901 15.6817 19.2301 15.3617C17.9701 14.4017 16.9701 12.6717 16.4301 10.6217C16.3501 10.3117 16.5901 10.0117 16.9101 10.0117H25.0601C25.3801 10.0117 25.6301 10.3117 25.5401 10.6217C25.0001 12.6717 24.0101 14.4017 22.7701 15.3417C22.7701 15.3417 22.7401 15.3617 22.7201 15.3817C22.2701 15.7117 21.8201 16.1117 21.4001 16.5917H21.4101Z" fill="#E0B344"/>
<path d="M14.44 26.0898C12.93 28.3898 12 31.4598 12 34.8598C12 35.2398 12.02 35.6198 12.04 35.9998H25.03C19.74 34.3098 15.72 30.6198 14.44 26.0898Z" fill="#A2D6FF"/>
<path d="M17.9502 37.9983C17.2702 37.9983 16.6402 37.6583 16.2802 37.0883C15.9102 36.5183 15.8502 35.8083 16.1202 35.1883C16.9702 33.2483 18.8902 31.9883 21.0002 31.9883C23.1102 31.9883 25.0302 33.2383 25.8802 35.1883C26.1502 35.8083 26.0902 36.5183 25.7202 37.0883C25.3502 37.6583 24.7202 37.9983 24.0502 37.9983H17.9502Z" fill="#221F1F"/>
<path d="M21.0002 34C19.6402 34 18.4702 34.82 17.9502 36H24.0501C23.5301 34.82 22.3602 34 21.0002 34Z" fill="#E0B344"/>
<path d="M20 18H22V25C22 25.55 21.55 26 21 26C20.45 26 20 25.55 20 25V18Z" fill="#221F1F"/>
<path d="M21 30C21.5523 30 22 29.5523 22 29C22 28.4477 21.5523 28 21 28C20.4477 28 20 28.4477 20 29C20 29.5523 20.4477 30 21 30Z" fill="#221F1F"/>
</svg>
