<svg width="42" height="42" viewBox="0 0 42 42" fill="none" xmlns="http://www.w3.org/2000/svg">
<path d="M19.9998 1.04999C8.99581 1.04999 0.0498047 9.99599 0.0498047 21C0.0498047 32.004 8.99581 40.95 19.9998 40.95C31.0038 40.95 39.9498 32.004 39.9498 21C39.9498 9.99599 31.0038 1.04999 19.9998 1.04999ZM19.9998 26.25C17.1018 26.25 14.7498 23.898 14.7498 21C14.7498 18.102 17.1018 15.75 19.9998 15.75C22.8978 15.75 25.2498 18.102 25.2498 21C25.2498 23.898 22.8978 26.25 19.9998 26.25Z" fill="white"/>
<path d="M20.0004 3.15002C10.1619 3.15002 2.15039 11.1615 2.15039 21C2.15039 30.8385 10.1619 38.85 20.0004 38.85C29.8389 38.85 37.8504 30.8385 37.8504 21C37.8504 11.1615 29.8389 3.15002 20.0004 3.15002ZM20.0004 28.35C15.9474 28.35 12.6504 25.053 12.6504 21C12.6504 16.947 15.9474 13.65 20.0004 13.65C24.0534 13.65 27.3504 16.947 27.3504 21C27.3504 25.053 24.0534 28.35 20.0004 28.35Z" fill="#221F1F"/>
<path d="M20 5.25C11.306 5.25 4.25 12.306 4.25 21C4.25 29.694 11.306 36.75 20 36.75C28.694 36.75 35.75 29.694 35.75 21C35.75 12.306 28.694 5.25 20 5.25ZM20 30.45C14.792 30.45 10.55 26.208 10.55 21C10.55 15.792 14.792 11.55 20 11.55C25.208 11.55 29.45 15.792 29.45 21C29.45 26.208 25.208 30.45 20 30.45Z" fill="white"/>
<path d="M22.625 34.125C13.931 34.125 6.875 27.069 6.875 18.375C6.875 14.7 8.1455 11.319 10.2665 8.64148C6.6125 11.529 4.25 15.981 4.25 21C4.25 29.694 11.306 36.75 20 36.75C25.019 36.75 29.4815 34.398 32.3585 30.7335C29.681 32.844 26.3 34.125 22.625 34.125Z" fill="#C4C4C4"/>
<path d="M20.0007 38.85C18.1737 38.85 16.3677 38.577 14.6247 38.0205C14.0892 37.8525 13.6377 37.4745 13.3857 36.9705C13.1337 36.4665 13.0917 35.8785 13.2702 35.343L15.2967 29.3685C15.5907 28.497 16.4097 27.9405 17.2812 27.9405C17.4807 27.9405 17.6802 27.972 17.8902 28.0245C18.5832 28.2345 19.2867 28.3395 20.0007 28.3395C20.7147 28.3395 21.4182 28.2345 22.1112 28.0245C22.3107 27.9615 22.5207 27.9405 22.7202 27.9405C23.6022 27.9405 24.4107 28.497 24.7047 29.3685L26.7312 35.343C26.9097 35.8785 26.8677 36.4665 26.6157 36.9705C26.3637 37.4745 25.9122 37.8525 25.3767 38.0205C23.6442 38.5665 21.8277 38.85 20.0007 38.85ZM23.0352 14.154C22.8042 14.154 22.5837 14.112 22.3632 14.0385C21.5862 13.776 20.7987 13.6395 20.0007 13.6395C19.2027 13.6395 18.4152 13.776 17.6382 14.0385C17.4177 14.112 17.1867 14.154 16.9662 14.154C16.6512 14.154 16.3257 14.0805 16.0422 13.9335C15.5382 13.692 15.1602 13.251 14.9817 12.726L12.9552 6.76203C12.5877 5.65953 13.1757 4.47303 14.2677 4.09503C16.1367 3.46503 18.0687 3.13953 20.0007 3.13953C21.9327 3.13953 23.8647 3.46503 25.7337 4.09503C26.8362 4.46253 27.4242 5.65953 27.0462 6.76203L25.0197 12.726C24.8412 13.251 24.4632 13.692 23.9592 13.9335C23.6652 14.0805 23.3502 14.154 23.0352 14.154Z" fill="#221F1F"/>
<path d="M20.0005 30.45C19.0555 30.45 18.142 30.303 17.2915 30.051L15.265 36.0255C16.7665 36.498 18.352 36.75 20.0005 36.75C21.649 36.75 23.245 36.498 24.736 36.0255L22.7095 30.051C21.8485 30.3135 20.935 30.45 20.0005 30.45ZM20.0005 11.55C21.061 11.55 22.0795 11.739 23.035 12.054L25.0615 6.09C23.476 5.5545 21.775 5.25 20.0005 5.25C18.226 5.25 16.5355 5.5545 14.9395 6.09L16.966 12.054C17.9215 11.7285 18.94 11.55 20.0005 11.55Z" fill="#F0AA97"/>
<path d="M37.8502 21C37.8502 22.827 37.5772 24.633 37.0207 26.376C36.8527 26.9115 36.4747 27.363 35.9707 27.615C35.4667 27.867 34.8787 27.909 34.3432 27.7305L28.3687 25.704C27.4972 25.41 26.9407 24.591 26.9407 23.7195C26.9407 23.52 26.9722 23.3205 27.0247 23.1105C27.2347 22.4175 27.3397 21.714 27.3397 21C27.3397 20.286 27.2347 19.5825 27.0247 18.8895C26.9617 18.69 26.9407 18.48 26.9407 18.2805C26.9407 17.3985 27.4972 16.59 28.3687 16.296L34.3432 14.2695C34.8787 14.091 35.4667 14.133 35.9707 14.385C36.4747 14.637 36.8527 15.0885 37.0207 15.624C37.5667 17.3565 37.8502 19.173 37.8502 21ZM13.1542 17.9655C13.1542 18.1965 13.1122 18.417 13.0387 18.6375C12.7762 19.4145 12.6397 20.202 12.6397 21C12.6397 21.798 12.7762 22.5855 13.0387 23.3625C13.1122 23.583 13.1542 23.814 13.1542 24.0345C13.1542 24.3495 13.0807 24.675 12.9337 24.9585C12.6922 25.4625 12.2512 25.8405 11.7262 26.019L5.76215 28.0455C4.65965 28.413 3.47315 27.825 3.09515 26.733C2.46515 24.864 2.13965 22.932 2.13965 21C2.13965 19.068 2.46515 17.136 3.09515 15.267C3.46265 14.1645 4.65965 13.5765 5.76215 13.9545L11.7262 15.981C12.2512 16.1595 12.6922 16.5375 12.9337 17.0415C13.0807 17.3355 13.1542 17.6505 13.1542 17.9655Z" fill="#221F1F"/>
<path d="M29.45 21.0001C29.45 21.9451 29.303 22.8586 29.051 23.7091L35.0255 25.7356C35.498 24.2341 35.75 22.6486 35.75 21.0001C35.75 19.3516 35.498 17.7556 35.0255 16.2646L29.051 18.2911C29.3135 19.1521 29.45 20.0656 29.45 21.0001ZM10.55 21.0001C10.55 19.9396 10.739 18.9211 11.054 17.9656L5.09 15.9391C4.5545 17.5246 4.25 19.2256 4.25 21.0001C4.25 22.7746 4.5545 24.4651 5.09 26.0611L11.054 24.0346C10.7285 23.0791 10.55 22.0606 10.55 21.0001Z" fill="#F0AA97"/>
<path d="M6.98 16.5796L5.09 15.9391C4.5545 17.5246 4.25 19.2256 4.25 21.0001C4.25 22.7746 4.5545 24.4651 5.09 26.0611L8.324 24.9586C7.4 22.9531 6.8645 20.7271 6.8645 18.3751C6.8645 17.7661 6.9065 17.1676 6.9695 16.5796H6.98ZM24.074 34.0516C23.6015 34.0936 23.1185 34.1251 22.625 34.1251C20.3885 34.1251 18.2675 33.6526 16.346 32.8126L15.254 36.0151C16.7555 36.4876 18.341 36.7396 19.9895 36.7396C21.638 36.7396 23.234 36.4876 24.725 36.0151L24.053 34.0411L24.074 34.0516Z" fill="#D88C7D"/>
</svg>
