<svg width="42" height="42" viewBox="0 0 42 42" fill="none" xmlns="http://www.w3.org/2000/svg">
<path d="M19.152 40.8975C14.931 40.8975 11.4975 37.464 11.4975 33.243V29.3055C7.59149 26.334 5.29199 21.756 5.29199 16.8105C5.29199 12.495 7.00349 8.47348 10.122 5.48098C13.062 2.65648 16.926 1.10248 21 1.10248C21.21 1.10248 21.4305 1.10248 21.6405 1.11298C29.4525 1.41748 35.8995 7.50748 36.645 15.2775C37.17 20.748 34.839 26.019 30.513 29.3055V33.243C30.513 37.464 27.0795 40.8975 22.8585 40.8975H19.152Z" fill="white"/>
<path d="M14.6472 28.5076H27.3522V33.2431C27.3522 35.7316 25.3362 37.7476 22.8477 37.7476H19.1412C16.6527 37.7476 14.6367 35.7316 14.6367 33.2431V28.5076H14.6472Z" fill="#C4C4C4"/>
<path d="M22.8479 38.7975H19.1414C16.0754 38.7975 13.5869 36.309 13.5869 33.243V28.5075C13.5869 27.93 14.0594 27.4575 14.6369 27.4575H27.3419C27.9194 27.4575 28.3919 27.93 28.3919 28.5075V33.243C28.3919 36.309 25.9034 38.7975 22.8374 38.7975H22.8479ZM15.6974 29.5575V33.243C15.6974 35.1435 17.2409 36.6975 19.1519 36.6975H22.8584C24.7589 36.6975 26.3129 35.154 26.3129 33.243V29.5575H15.7079H15.6974Z" fill="#221F1F"/>
<path fill-rule="evenodd" clip-rule="evenodd" d="M19.9708 29.5575H15.6973V33.243C15.6973 35.1435 17.2408 36.6975 19.1518 36.6975H21.9763C20.8213 34.8495 20.0863 32.34 19.9813 29.5575H19.9708Z" fill="#9E9E9E"/>
<path fill-rule="evenodd" clip-rule="evenodd" d="M27.2791 27.678V30.975H14.7211V27.678C10.6366 25.3155 8.01159 20.7375 8.49459 15.582C9.08259 9.41851 14.3011 4.50451 20.4856 4.26301C27.6571 3.97951 33.5581 9.7125 33.5581 16.8105C33.5581 21.462 31.0276 25.5045 27.2791 27.678Z" fill="#F7DF69"/>
<path d="M20.9997 23.1C20.7267 23.1 20.4642 22.995 20.2542 22.7955L16.0542 18.5955C15.6447 18.186 15.6447 17.5245 16.0542 17.115C16.4637 16.7055 17.1252 16.7055 17.5347 17.115L21.7347 21.315C22.1442 21.7245 22.1442 22.386 21.7347 22.7955C21.5247 23.0055 21.2622 23.1 20.9892 23.1H20.9997Z" fill="#F9A936"/>
<path d="M21.0002 31.5C20.4227 31.5 19.9502 31.0275 19.9502 30.45V22.05C19.9502 21.7665 20.0657 21.504 20.2547 21.3045L24.4547 17.1045C24.8642 16.695 25.5257 16.695 25.9352 17.1045C26.3447 17.514 26.3447 18.1755 25.9352 18.585L22.0397 22.4805V30.45C22.0397 31.0275 21.5672 31.5 20.9897 31.5H21.0002Z" fill="#F9A936"/>
<path d="M27.2786 32.025H14.7206C14.1431 32.025 13.6706 31.5525 13.6706 30.975V28.266C9.7856 25.767 7.3916 21.441 7.3916 16.8105C7.3916 13.0725 8.8721 9.58649 11.5706 6.99299C14.2691 4.39949 17.8076 3.05549 21.5561 3.21299C28.3181 3.47549 33.9041 8.75699 34.5551 15.477C35.0486 20.6535 32.6756 25.494 28.3391 28.266V30.975C28.3391 31.5525 27.8666 32.025 27.2891 32.025H27.2786ZM15.7706 29.925H26.2286V27.678C26.2286 27.3 26.4281 26.9535 26.7536 26.7645C30.7016 24.4755 32.8961 20.223 32.4551 15.6765C31.9196 10.08 27.1001 5.53349 21.4721 5.30249C18.3011 5.17649 15.3086 6.31049 13.0301 8.50499C10.7516 10.6995 9.4916 13.6395 9.4916 16.8105C9.4916 20.895 11.6966 24.717 15.2456 26.775C15.5711 26.964 15.7706 27.3105 15.7706 27.6885V29.9355V29.925Z" fill="#221F1F"/>
</svg>
