<svg width="42" height="42" viewBox="0 0 42 42" fill="none" xmlns="http://www.w3.org/2000/svg">
<path d="M32.1 17.1V13.1C32.1 7 27.1 2 21 2C14.9 2 9.9 7 9.9 13.1V17.1C7.1 17.6 5 20 5 23V34C5 37.3 7.7 40 11 40H31C34.3 40 37 37.3 37 34V23C37 20 34.9 17.6 32.1 17.1Z" fill="white"/>
<path fill-rule="evenodd" clip-rule="evenodd" d="M21.0004 5C16.6004 5 12.9004 8.6 12.9004 13.1V26C12.9004 30.4 16.5004 34.1 21.0004 34.1C25.4004 34.1 29.1004 30.5 29.1004 26V13.1C29.1004 8.6 25.4004 5 21.0004 5ZM24.1004 25.9C24.1004 27.6 22.7004 29 21.0004 29C19.3004 29 17.9004 27.6 17.9004 25.9V13.1C17.9004 11.4 19.3004 10 21.0004 10C22.7004 10 24.1004 11.4 24.1004 13.1V25.9Z" fill="white"/>
<path d="M21.0004 35C16.0004 35 11.9004 30.9 11.9004 25.9V13.1C11.9004 8.1 16.0004 4 21.0004 4C26.0004 4 30.1004 8.1 30.1004 13.1V26C30.1004 30.9 26.0004 35 21.0004 35ZM21.0004 6C17.1004 6 13.9004 9.2 13.9004 13.1V26C13.9004 29.9 17.1004 33.1 21.0004 33.1C24.9004 33.1 28.1004 29.9 28.1004 26V13.1C28.1004 9.2 24.9004 6 21.0004 6ZM21.0004 30C18.8004 30 16.9004 28.1 16.9004 25.9V13.1C16.9004 10.9 18.8004 9 21.0004 9C23.2004 9 25.1004 10.9 25.1004 13.1V26C25.1004 28.1 23.2004 30 21.0004 30ZM21.0004 11C19.9004 11 18.9004 12 18.9004 13.1V26C18.9004 27.1 19.9004 28.1 21.0004 28.1C22.1004 28.1 23.1004 27.1 23.1004 26V13.1C23.1004 12 22.1004 11 21.0004 11Z" fill="#221F1F"/>
<path fill-rule="evenodd" clip-rule="evenodd" d="M31 20H11C9.4 20 8 21.3 8 23V34C8 35.6 9.3 37 11 37H31C32.6 37 34 35.7 34 34V23C34 21.3 32.7 20 31 20Z" fill="#C4C4C4"/>
<path d="M31 38H11C8.8 38 7 36.2 7 34V23C7 20.8 8.8 19 11 19H31C33.2 19 35 20.8 35 23V34C35 36.2 33.2 38 31 38ZM11 21C9.9 21 9 21.9 9 23V34C9 35.1 9.9 36 11 36H31C32.1 36 33 35.1 33 34V23C33 21.9 32.1 21 31 21H11Z" fill="#221F1F"/>
<path fill-rule="evenodd" clip-rule="evenodd" d="M18 21H11C9.9 21 9 21.9 9 23V34C9 35.1 9.9 36 11 36H18V21Z" fill="#9E9E9E"/>
</svg>
