<svg width="42" height="42" viewBox="0 0 42 42" fill="none" xmlns="http://www.w3.org/2000/svg">
<path d="M35 40C33.7 40 32.4 39.5 31.5 38.5L24.3 31.3L24.2 31.2C22.1 32.2 19.8 32.8 17.4 32.8C8.9 32.8 2 25.9 2 17.4C2 8.9 8.9 2 17.4 2C25.9 2 32.8 8.9 32.8 17.4C32.8 19.8 32.3 22.1 31.2 24.2C31.3 24.2 31.3 24.3 31.3 24.3L38.5 31.5C40.4 33.4 40.4 36.6 38.5 38.6C37.6 39.5 36.3 40 35 40Z" fill="white"/>
<path fill-rule="evenodd" clip-rule="evenodd" d="M17.4 29.8C10.6 29.8 5 24.2 5 17.4C5 10.6 10.6 5 17.4 5C24.2 5 29.8 10.6 29.8 17.4C29.8 24.2 24.2 29.8 17.4 29.8Z" fill="#EDD286"/>
<path d="M17.4 30.8C10 30.8 4 24.8 4 17.4C4 10 10 4 17.4 4C24.8 4 30.8 10 30.8 17.4C30.8 24.8 24.8 30.8 17.4 30.8ZM17.4 6C11.1 6 6 11.1 6 17.4C6 23.7 11.1 28.8 17.4 28.8C23.7 28.8 28.8 23.7 28.8 17.4C28.8 11.1 23.7 6 17.4 6Z" fill="#221F1F"/>
<path fill-rule="evenodd" clip-rule="evenodd" d="M17.4 25.8C12.8 25.8 9 22 9 17.4C9 12.8 12.8 9 17.4 9C22 9 25.8 12.8 25.8 17.4C25.8 22 22 25.8 17.4 25.8Z" fill="white"/>
<path fill-rule="evenodd" clip-rule="evenodd" d="M34.9998 37C34.4998 37 33.9998 36.8 33.5998 36.4L26.3998 29.2C25.5998 28.4 25.5998 27.2 26.3998 26.4C27.1998 25.6 28.3998 25.6 29.1998 26.4L36.3998 33.6C37.1998 34.4 37.1998 35.6 36.3998 36.4C35.9998 36.8 35.4998 37 34.9998 37Z" fill="#D88C7D"/>
<path d="M34.9998 38C34.1998 38 33.3998 37.7 32.8998 37.1L25.6998 30C24.4998 28.8 24.4998 26.9 25.6998 25.8C26.7998 24.7 28.7998 24.7 29.8998 25.8L37.0998 33C38.2998 34.2 38.2998 36.1 37.0998 37.2C36.5998 37.7 35.7998 38 34.9998 38ZM27.7998 26.8C27.4998 26.8 27.2998 26.9 27.0998 27.1C26.6998 27.5 26.6998 28.1 27.0998 28.5L34.2998 35.7C34.6998 36.1 35.2998 36.1 35.6998 35.7C36.0998 35.3 36.0998 34.7 35.6998 34.3L28.4998 27.1C28.2998 26.9 28.0998 26.8 27.7998 26.8Z" fill="#221F1F"/>
<path fill-rule="evenodd" clip-rule="evenodd" d="M17.2998 9.79999C14.4998 9.79999 11.9998 11.3 10.7998 13.6C11.7998 13.1 12.9998 12.8 14.2998 12.8C18.8998 12.8 22.4998 16.4 22.4998 21C22.4998 21.6 22.3998 22.3 22.2998 22.9C23.7998 21.5 24.7998 19.6 24.7998 17.2C24.7998 13.2 21.4998 9.79999 17.2998 9.79999Z" fill="#A2D6FF"/>
<path d="M17.4 26.8C12.2 26.8 8 22.6 8 17.4C8 12.2 12.2 8 17.4 8C22.6 8 26.8 12.2 26.8 17.4C26.8 22.6 22.6 26.8 17.4 26.8ZM17.4 10C13.3 10 10 13.3 10 17.4C10 21.5 13.3 24.8 17.4 24.8C21.5 24.8 24.8 21.5 24.8 17.4C24.8 13.3 21.5 10 17.4 10Z" fill="#221F1F"/>
</svg>
