<svg width="42" height="42" viewBox="0 0 42 42" fill="none" xmlns="http://www.w3.org/2000/svg">
<path d="M20.9998 40.95C9.99581 40.95 1.0498 32.004 1.0498 21C1.0498 9.99599 9.99581 1.04999 20.9998 1.04999C32.0038 1.04999 40.9498 9.99599 40.9498 21C40.9498 32.004 32.0038 40.95 20.9998 40.95Z" fill="white"/>
<path fill-rule="evenodd" clip-rule="evenodd" d="M21.0002 4.20001C11.7182 4.20001 4.2002 11.718 4.2002 21C4.2002 30.282 11.7182 37.8 21.0002 37.8C30.2822 37.8 37.8002 30.282 37.8002 21C37.8002 11.718 30.2822 4.20001 21.0002 4.20001ZM32.5502 21C32.5502 23.2365 31.8992 25.3155 30.7967 27.09L14.9102 11.2035C16.6847 10.101 18.7637 9.45001 21.0002 9.45001C27.3737 9.45001 32.5502 14.6265 32.5502 21ZM9.4502 21C9.4502 18.7635 10.1012 16.6845 11.2037 14.91L27.0902 30.7965C25.3157 31.899 23.2367 32.55 21.0002 32.55C14.6267 32.55 9.4502 27.3735 9.4502 21Z" fill="#F0AA97"/>
<path d="M20.9999 38.85C11.1614 38.85 3.1499 30.8385 3.1499 21C3.1499 11.1615 11.1614 3.15002 20.9999 3.15002C30.8384 3.15002 38.8499 11.1615 38.8499 21C38.8499 30.8385 30.8384 38.85 20.9999 38.85ZM20.9999 5.25002C12.3164 5.25002 5.2499 12.3165 5.2499 21C5.2499 29.6835 12.3164 36.75 20.9999 36.75C29.6834 36.75 36.7499 29.6835 36.7499 21C36.7499 12.3165 29.6834 5.25002 20.9999 5.25002ZM20.9999 33.6C14.0489 33.6 8.3999 27.951 8.3999 21C8.3999 18.6585 9.0614 16.359 10.3109 14.3535C10.4789 14.0805 10.7624 13.902 11.0774 13.8705C11.4029 13.8285 11.7179 13.944 11.9384 14.175L27.8249 30.0615C28.0559 30.2925 28.1609 30.6075 28.1294 30.9225C28.0979 31.2375 27.9089 31.521 27.6464 31.6995C25.6409 32.949 23.3414 33.6105 20.9999 33.6105V33.6ZM11.4554 16.653C10.8254 18.018 10.4999 19.4985 10.4999 21C10.4999 26.7855 15.2144 31.5 20.9999 31.5C22.5014 31.5 23.9819 31.1745 25.3469 30.5445L11.4554 16.653ZM30.7964 28.14C30.5234 28.14 30.2504 28.035 30.0509 27.8355L14.1644 11.949C13.9334 11.718 13.8284 11.403 13.8599 11.088C13.8914 10.773 14.0804 10.4895 14.3429 10.311C16.3484 9.06152 18.6479 8.40002 20.9789 8.40002C27.9299 8.40002 33.5789 14.049 33.5789 21C33.5789 23.3415 32.9174 25.641 31.6679 27.6465C31.4999 27.9195 31.2164 28.098 30.9014 28.1295C30.8594 28.1295 30.8174 28.1295 30.7859 28.1295L30.7964 28.14ZM16.6529 11.4555L30.5444 25.347C31.1744 23.982 31.4999 22.5015 31.4999 21C31.4999 15.2145 26.7854 10.5 20.9999 10.5C19.4984 10.5 18.0179 10.8255 16.6529 11.4555Z" fill="#221F1F"/>
</svg>
