<svg width="42" height="42" viewBox="0 0 42 42" fill="none" xmlns="http://www.w3.org/2000/svg">
<path d="M18 35C9.18 35 2 27.6 2 18.5C2 9.4 9.18 2 18 2C26.82 2 34 9.4 34 18.5C34 27.6 26.82 35 18 35Z" fill="white"/>
<path d="M21 40C19.35 40 18 38.65 18 37V33.16C18 30.22 19.48 27.49 21.84 25.85C21.53 24.96 21.37 24.02 21.37 23.05C21.37 18.61 24.79 15 29 15C33.21 15 36.63 18.61 36.63 23.05C36.63 24.02 36.47 24.96 36.16 25.85C38.52 27.49 40 30.21 40 33.15V36.99C40 38.64 38.65 39.99 37 39.99H21V40Z" fill="white"/>
<path d="M18 33C10.28 33 4 26.5 4 18.5C4 10.5 10.28 4 18 4C25.72 4 32 10.5 32 18.5C32 26.5 25.72 33 18 33Z" fill="#221F1F"/>
<path d="M18 31C24.6274 31 30 25.4036 30 18.5C30 11.5964 24.6274 6 18 6C11.3726 6 6 11.5964 6 18.5C6 25.4036 11.3726 31 18 31Z" fill="#A2D6FF"/>
<path d="M6.6498 22.5399L29.3998 14.6299C29.0898 13.6599 28.6698 12.7399 28.1598 11.8799L6.0498 19.5699C6.1298 20.5999 6.3398 21.5899 6.6498 22.5399Z" fill="white"/>
<path d="M19.5301 23.28C20.8001 22.38 21.6401 20.82 21.6401 19.05C21.6401 16.26 19.5701 14 17.0101 14C14.4501 14 12.3801 16.26 12.3801 19.05C12.3801 20.82 13.2201 22.38 14.4901 23.28C12.1301 23.45 10.1501 25.02 9.37012 27.15C11.5501 29.51 14.6101 30.99 18.0101 30.99C20.6101 30.99 23.0201 30.12 24.9901 28.65C24.7501 25.78 22.4201 23.48 19.5401 23.28H19.5301Z" fill="#B7EDB7"/>
<path d="M17.8701 30.99C17.3001 27.62 14.8701 24.94 11.7501 24.21C10.6701 24.91 9.81012 25.93 9.37012 27.16C11.5201 29.49 14.5401 30.95 17.8801 30.99H17.8701Z" fill="#9CDB9C"/>
<path d="M25.9998 29.12C25.9798 26.2 24.1198 23.67 21.4998 22.7C22.2298 21.66 22.6398 20.39 22.6398 19.05C22.6398 15.71 20.1098 13 17.0098 13C13.9098 13 11.3798 15.71 11.3798 19.05C11.3798 20.39 11.7898 21.66 12.5198 22.7C10.4298 23.48 8.83977 25.24 8.25977 27.4C8.78977 28.03 9.37977 28.61 10.0098 29.12C10.0298 26.58 12.0198 24.46 14.5498 24.28C14.9698 24.25 15.3298 23.96 15.4398 23.55C15.5498 23.14 15.3998 22.71 15.0598 22.47C13.9998 21.72 13.3698 20.44 13.3698 19.05C13.3698 16.82 14.9998 15 16.9998 15C18.9998 15 20.6298 16.82 20.6298 19.05C20.6298 20.44 19.9998 21.72 18.9398 22.47C18.5998 22.71 18.4398 23.15 18.5598 23.55C18.6698 23.96 19.0298 24.25 19.4498 24.28C21.9998 24.46 23.9998 26.6 23.9998 29.16V30.47C24.7098 30.09 25.3698 29.63 25.9998 29.13V29.12Z" fill="#221F1F"/>
<path d="M36.9995 36.9998V33.1598C36.9995 30.0598 34.5695 27.5098 31.5295 27.2898C32.7995 26.3898 33.6395 24.8298 33.6395 23.0598C33.6395 20.2698 31.5695 18.0098 29.0095 18.0098C26.4495 18.0098 24.3795 20.2698 24.3795 23.0598C24.3795 24.8298 25.2195 26.3898 26.4895 27.2898C23.4395 27.5098 21.0195 30.0598 21.0195 33.1598V36.9998H37.0195H36.9995Z" fill="#B7EDB7"/>
<path d="M37 38H21C20.45 38 20 37.55 20 37V33.16C20 30.23 21.87 27.68 24.51 26.7C23.78 25.66 23.37 24.39 23.37 23.05C23.37 19.71 25.9 17 29 17C32.1 17 34.63 19.71 34.63 23.05C34.63 24.39 34.22 25.66 33.49 26.7C36.13 27.68 38 30.23 38 33.16V37C38 37.55 37.55 38 37 38ZM22 36H36V33.16C36 30.61 34 28.47 31.45 28.28C31.03 28.25 30.67 27.96 30.56 27.55C30.45 27.14 30.6 26.71 30.94 26.47C32 25.72 32.63 24.44 32.63 23.05C32.63 20.82 31 19 29 19C27 19 25.37 20.82 25.37 23.05C25.37 24.44 26 25.72 27.06 26.47C27.4 26.71 27.56 27.15 27.44 27.55C27.33 27.96 26.97 28.25 26.55 28.28C24 28.46 22 30.6 22 33.16V36Z" fill="#221F1F"/>
<path d="M23.94 29.2695C22.76 30.1695 22 31.5795 22 33.1595V35.9995H29.78C29.78 35.9995 29.84 35.9995 29.87 35.9995C29.31 32.7095 26.97 30.0795 23.95 29.2795L23.94 29.2695Z" fill="#9CDB9C"/>
</svg>
