<svg width="42" height="42" viewBox="0 0 42 42" fill="none" xmlns="http://www.w3.org/2000/svg">
<path d="M2.20047 17.7C2.00047 18.7 2.30047 19.7 3.00047 20.4C3.20047 20.6 3.30047 20.7 3.50047 20.8C3.30047 21.2 3.20047 21.7 3.20047 22.3C3.80047 32 11.9005 39.6 21.5005 39.6C31.6005 39.6 39.8005 31.3 39.8005 21.1C39.8005 10.9 31.6005 2.60002 21.5005 2.60002C18.1005 2.60002 14.7005 3.60002 11.8005 5.40002L9.90047 3.40002C9.30047 2.80002 8.50047 2.40002 7.70047 2.40002C7.40047 2.40002 7.20047 2.40002 6.90047 2.50002C5.90047 2.90002 5.10047 3.70002 4.80047 4.80002L2.20047 17.7ZM18.6005 19.6C19.7005 19.5 20.7005 18.7 21.0005 17.6C21.4005 16.5 21.1005 15.4 20.4005 14.5L19.7005 13.7C20.3005 13.5 20.9005 13.5 21.5005 13.5C25.5005 13.5 28.8005 16.9 28.8005 21C28.8005 25.1 25.5005 28.5 21.5005 28.5C17.7005 28.5 14.4005 25.4 14.2005 21.5C14.2005 21 14.0005 20.6 13.8005 20.2L18.6005 19.6Z" fill="white"/>
<path fill-rule="evenodd" clip-rule="evenodd" d="M21.5002 5.60002C17.7002 5.60002 14.2002 7.00002 11.5002 9.40002L7.8002 5.40002L5.2002 18.3L18.3002 16.6L14.9002 13C16.7002 11.5 19.0002 10.5 21.5002 10.5C27.2002 10.5 31.8002 15.2 31.8002 21C31.8002 26.8 27.2002 31.5 21.5002 31.5C16.0002 31.5 11.5002 27.2 11.2002 21.7L6.2002 22C6.7002 30.1 13.4002 36.5 21.5002 36.5C30.0002 36.5 36.8002 29.6 36.8002 21C36.8002 12.5 30.0002 5.60002 21.5002 5.60002Z" fill="#9CDB9C"/>
<path d="M21.5004 37.5C12.9004 37.5 5.70036 30.7001 5.20036 22.1C5.20036 21.8001 5.30036 21.6 5.40036 21.4C5.60036 21.1 5.90036 21 6.10036 21L11.1004 20.7001C11.4004 20.7001 11.6004 20.8 11.8004 21C12.0004 21.2001 12.1004 21.4001 12.1004 21.7001C12.4004 26.7001 16.5004 30.6 21.4004 30.6C26.5004 30.6 30.7004 26.3 30.7004 21.1C30.7004 15.9001 26.5004 11.6 21.4004 11.6C19.6004 11.6 17.9004 12.2 16.3004 13.2L18.9004 16C19.2004 16.3 19.2004 16.7 19.1004 17C19.0004 17.4 18.7004 17.6 18.3004 17.7L5.30036 19.3C5.00036 19.3 4.70036 19.2 4.40036 19C4.20036 18.8 4.10036 18.4 4.20036 18.1L6.80036 5.20005C6.90036 4.80005 7.10036 4.50005 7.50036 4.40005C7.90036 4.30005 8.30036 4.40005 8.50036 4.70005L11.6004 8.00005C14.4004 5.80005 17.9004 4.60005 21.5004 4.60005C30.5004 4.60005 37.8004 12 37.8004 21C37.8004 30.1 30.5004 37.5 21.5004 37.5ZM7.30036 22.9C8.20036 30 14.3004 35.5 21.5004 35.5C29.4004 35.5 35.8004 29 35.8004 21C35.8004 13.1 29.4004 6.60005 21.5004 6.60005C18.1004 6.60005 14.7004 7.90005 12.2004 10.1C11.8004 10.5 11.2004 10.4 10.8004 10L8.40036 7.50005L6.50036 17.1L16.3004 15.8L14.2004 13.6C14.0004 13.4 13.9004 13.1 13.9004 12.9C13.9004 12.6 14.0004 12.4 14.3004 12.2C16.4004 10.4 19.0004 9.50005 21.5004 9.50005C27.7004 9.50005 32.8004 14.7 32.8004 21C32.8004 27.3 27.7004 32.5 21.5004 32.5C15.8004 32.5 11.1004 28.3 10.3004 22.8L7.30036 22.9Z" fill="#221F1F"/>
</svg>
