<svg width="42" height="42" viewBox="0 0 42 42" fill="none" xmlns="http://www.w3.org/2000/svg">
<path d="M20.9997 40.95C20.7477 40.95 20.4852 40.9185 20.2437 40.8555C20.0442 40.803 -0.0422924 35.5845 3.59071 8.11649C3.80071 6.56249 5.14471 5.37599 6.73021 5.37599C6.73021 5.37599 6.96121 5.37599 6.97171 5.37599C7.00321 5.37599 7.21321 5.37599 7.52821 5.37599C9.35521 5.37599 15.5502 5.12399 18.7947 1.93199C19.3827 1.34399 20.1702 1.02899 21.0102 1.02899C21.8502 1.02899 22.6272 1.35449 23.2257 1.94249C26.4702 5.13449 32.6757 5.38649 34.5027 5.38649C34.8597 5.38649 35.0802 5.38649 35.1222 5.37599H35.2692C36.8547 5.37599 38.2092 6.55199 38.4192 8.10599C42.0522 35.5635 21.9552 40.7925 21.7557 40.845C21.5142 40.908 21.2622 40.9395 21.0102 40.9395L20.9997 40.95Z" fill="white"/>
<path fill-rule="evenodd" clip-rule="evenodd" d="M35.2906 8.53651C35.2906 8.53651 25.9456 9.08251 21.0001 4.20001C16.0546 9.08251 6.70957 8.53651 6.70957 8.53651C3.41257 33.4635 21.0001 37.8 21.0001 37.8C21.0001 37.8 38.5876 33.4635 35.2906 8.53651Z" fill="#BB604E"/>
<path fill-rule="evenodd" clip-rule="evenodd" d="M15.0994 7.48651C16.1809 16.2015 19.4149 23.8875 24.0244 29.4735C30.2719 27.0375 34.9234 20.2755 35.6059 12.075C35.5429 10.941 35.4484 9.77551 35.2804 8.53651C35.2804 8.53651 25.9354 9.08251 20.9899 4.20001C19.3414 5.82751 17.2099 6.83551 15.0889 7.48651H15.0994Z" fill="#EA8E75"/>
<path d="M21.0002 38.85C20.9162 38.85 20.8322 38.85 20.7482 38.8185C20.5592 38.7765 2.28921 33.9675 5.67021 8.40002C5.74371 7.85402 6.22671 7.47602 6.77271 7.48652C6.85671 7.48652 15.7187 7.93802 20.2652 3.45452C20.6747 3.05552 21.3257 3.05552 21.7352 3.45452C26.2817 7.93802 35.1332 7.48652 35.2277 7.48652C35.7737 7.47602 36.2567 7.85402 36.3302 8.40002C39.7112 33.9675 21.4412 38.7765 21.2522 38.8185C21.1682 38.8395 21.0842 38.85 21.0002 38.85ZM7.63371 9.60752C5.18721 31.1325 18.8687 36.078 21.0002 36.708C23.1212 36.078 36.8027 31.1325 34.3667 9.60752C31.8887 9.60752 25.3472 9.22952 21.0002 5.61752C16.6637 9.22952 10.1222 9.60752 7.63371 9.60752Z" fill="#221F1F"/>
</svg>
