<svg width="42" height="42" viewBox="0 0 42 42" fill="none" xmlns="http://www.w3.org/2000/svg">
<path d="M37.6002 21.5C32.5002 20 28.4002 15.9 27.0002 10.8C26.6002 9.49999 25.4002 8.59999 24.1002 8.59999C23.0002 8.59999 22.0002 9.19999 21.5002 10.2C21.1002 9.49999 20.5002 8.99999 19.7002 8.79999C17.4002 8.09999 15.6002 6.29999 14.9002 3.99999C14.5002 2.69999 13.3002 1.79999 12.0002 1.79999C10.7002 1.79999 9.5002 2.79999 9.1002 4.09999C8.5002 6.29999 6.6002 8.19999 4.4002 8.79999C3.1002 9.19999 2.2002 10.4 2.2002 11.7C2.2002 13 3.1002 14.2 4.4002 14.6C6.7002 15.3 8.5002 17.1 9.2002 19.4C9.5002 20.4 10.2002 21.1 11.1002 21.4C10.9002 21.5 10.8002 21.5 10.6002 21.6C9.3002 22 8.4002 23.2 8.4002 24.5C8.4002 25.8 9.3002 27 10.6002 27.4C15.7002 28.9 19.8002 33 21.3002 38.1C21.7002 39.4 22.9002 40.3 24.2002 40.3C25.5002 40.3 26.7002 39.4 27.1002 38.1C28.6002 33 32.7002 28.9 37.8002 27.4C39.1002 27 40.0002 25.8 40.0002 24.5C40.0002 23.2 38.9002 21.9 37.6002 21.5Z" fill="white"/>
<path fill-rule="evenodd" clip-rule="evenodd" d="M11.4004 24.4C17.5004 26.2 22.3004 31 24.1004 37.1C25.9004 31 30.7004 26.2 36.8004 24.4C30.7004 22.6 25.9004 17.8 24.1004 11.7C22.3004 17.8 17.5004 22.6 11.4004 24.4Z" fill="#A2D6FF"/>
<path d="M24.1004 38.1C23.7004 38.1 23.3004 37.8 23.1004 37.4C21.4004 31.6 16.8004 27 11.1004 25.4C10.7004 25.3 10.4004 24.9 10.4004 24.4C10.4004 23.9 10.7004 23.6 11.1004 23.4C16.9004 21.7 21.5004 17.1 23.1004 11.4C23.2004 11 23.6004 10.7 24.1004 10.7C24.6004 10.7 24.9004 11 25.1004 11.4C26.8004 17.2 31.4004 21.8 37.1004 23.4C37.5004 23.5 37.8004 23.9 37.8004 24.4C37.8004 24.9 37.5004 25.2 37.1004 25.4C31.3004 27.1 26.7004 31.7 25.1004 37.4C24.9004 37.8 24.5004 38.1 24.1004 38.1ZM14.2004 24.4C18.5004 26.4 22.1004 29.9 24.0004 34.2C26.0004 29.9 29.5004 26.3 33.8004 24.4C29.5004 22.4 25.9004 18.9 24.0004 14.6C22.1004 18.9 18.6004 22.4 14.2004 24.4Z" fill="#221F1F"/>
<path fill-rule="evenodd" clip-rule="evenodd" d="M5.2002 11.7C8.5002 12.6 11.1002 15.2 12.0002 18.5C12.9002 15.2 15.5002 12.6 18.8002 11.7C15.5002 10.7 13.0002 8.19996 12.0002 4.89996C11.1002 8.19996 8.5002 10.7 5.2002 11.7Z" fill="#A2D6FF"/>
<path d="M12.0002 19.5C11.6002 19.5 11.2002 19.2 11.0002 18.8C10.2002 15.9 7.8002 13.5 4.9002 12.7C4.5002 12.6 4.2002 12.2 4.2002 11.7C4.2002 11.2 4.5002 10.9 4.9002 10.7C7.8002 9.89996 10.2002 7.49996 11.0002 4.59996C11.1002 4.19996 11.5002 3.89996 12.0002 3.89996C12.4002 3.89996 12.8002 4.19996 13.0002 4.59996C13.8002 7.49996 16.2002 9.89996 19.1002 10.7C19.5002 10.8 19.8002 11.2 19.8002 11.7C19.8002 12.2 19.5002 12.5 19.1002 12.7C16.2002 13.5 13.8002 15.9 13.0002 18.8C12.8002 19.2 12.5002 19.5 12.0002 19.5ZM7.8002 11.7C9.6002 12.7 11.0002 14.2 12.0002 15.9C13.0002 14.1 14.5002 12.7 16.2002 11.7C14.4002 10.7 13.0002 9.19996 12.0002 7.49996C11.0002 9.19996 9.5002 10.7 7.8002 11.7Z" fill="#221F1F"/>
<path fill-rule="evenodd" clip-rule="evenodd" d="M26.8002 29.9C24.6002 26.6 21.7002 23.9 18.2002 22C17.0002 23 15.6002 23.8 14.2002 24.4C18.5002 26.4 22.1002 29.9 24.0002 34.2C24.8002 32.7 25.7002 31.2 26.8002 29.9Z" fill="#8EBFE2"/>
<path fill-rule="evenodd" clip-rule="evenodd" d="M13.4998 13.9C12.4998 12.5 11.3998 11.1 10.0998 9.90002C9.3998 10.6 8.5998 11.2 7.7998 11.6C9.5998 12.6 10.9998 14.1 11.9998 15.8C12.3998 15.2 12.8998 14.5 13.4998 13.9Z" fill="#8EBFE2"/>
</svg>
