<svg width="42" height="42" viewBox="0 0 42 42" fill="none" xmlns="http://www.w3.org/2000/svg">
<path fill-rule="evenodd" clip-rule="evenodd" d="M22.5748 40.95C12.4423 40.95 4.1998 32.7075 4.1998 22.575C4.1998 20.034 4.7143 17.5665 5.7118 15.288C5.4283 15.141 5.1763 14.952 4.9453 14.721L1.9738 11.7495C1.3753 11.151 1.0498 10.3635 1.0498 9.52349C1.0498 8.68349 1.3753 7.89599 1.9738 7.29749L7.2973 1.97399C7.8958 1.37549 8.6833 1.04999 9.5233 1.04999C10.3633 1.04999 11.1508 1.37549 11.7493 1.97399L14.7208 4.94549C14.9518 5.17649 15.1408 5.43899 15.2878 5.72249C16.4428 5.21849 17.6608 4.82999 18.8998 4.57799V4.04249C18.8998 2.39399 20.2438 1.06049 21.8818 1.06049H23.2573C24.9058 1.06049 26.2393 2.40449 26.2393 4.04249V4.57799C34.7443 6.28949 40.9393 13.713 40.9393 22.5855C40.9393 32.718 32.6968 40.9605 22.5643 40.9605L22.5748 40.95Z" fill="white"/>
<path d="M9.27064 7.35681L7.34766 9.27979L11.8024 13.7346L13.7254 11.8116L9.27064 7.35681Z" fill="#221F1F"/>
<path d="M22.5746 37.8C30.9831 37.8 37.7996 30.9835 37.7996 22.575C37.7996 14.1665 30.9831 7.34998 22.5746 7.34998C14.1661 7.34998 7.34961 14.1665 7.34961 22.575C7.34961 30.9835 14.1661 37.8 22.5746 37.8Z" fill="#C4C4C4"/>
<path d="M22.5748 38.85C13.5973 38.85 6.2998 31.5525 6.2998 22.575C6.2998 13.5975 13.5973 6.29999 22.5748 6.29999C31.5523 6.29999 38.8498 13.5975 38.8498 22.575C38.8498 31.5525 31.5523 38.85 22.5748 38.85ZM22.5748 8.39999C14.7628 8.39999 8.3998 14.763 8.3998 22.575C8.3998 30.387 14.7628 36.75 22.5748 36.75C30.3868 36.75 36.7498 30.387 36.7498 22.575C36.7498 14.763 30.3868 8.39999 22.5748 8.39999Z" fill="#221F1F"/>
<path d="M9.52365 4.20459L4.2002 9.52804L7.17005 12.4978L12.4935 7.17443L9.52365 4.20459Z" fill="#C4C4C4"/>
<path d="M7.17189 13.545C6.89889 13.545 6.63639 13.44 6.42639 13.2405L3.45489 10.269C3.25539 10.0695 3.15039 9.80696 3.15039 9.52346C3.15039 9.23996 3.26589 8.97746 3.45489 8.77796L8.77839 3.45446C9.18789 3.04496 9.84939 3.04496 10.2589 3.45446L13.2304 6.42596C13.6399 6.83546 13.6399 7.49696 13.2304 7.90646L7.90689 13.23C7.69689 13.44 7.43439 13.5345 7.16139 13.5345L7.17189 13.545ZM5.68089 9.52346L7.16139 11.004L11.0044 7.16096L9.52389 5.68046L5.68089 9.52346Z" fill="#221F1F"/>
<path d="M21.8818 3.15002H23.2573C23.7508 3.15002 24.1393 3.54902 24.1393 4.03202V7.35002H20.9893V4.03202C20.9893 3.53852 21.3883 3.15002 21.8713 3.15002H21.8818Z" fill="#221F1F"/>
<path fill-rule="evenodd" clip-rule="evenodd" d="M22.5748 33.6C16.4953 33.6 11.5498 28.6545 11.5498 22.575C11.5498 16.4955 16.4953 11.55 22.5748 11.55C28.6543 11.55 33.5998 16.4955 33.5998 22.575C33.5998 28.6545 28.6543 33.6 22.5748 33.6Z" fill="#FFCCBD"/>
<path fill-rule="evenodd" clip-rule="evenodd" d="M18.4172 14.4375C25.2422 14.4375 30.7967 19.992 30.7967 26.817C30.7967 27.699 30.7022 28.56 30.5237 29.3895C32.0672 27.573 33.0017 25.221 33.0017 22.659C33.0017 16.905 28.3292 12.2325 22.5752 12.2325C20.0132 12.2325 17.6612 13.167 15.8447 14.7105C16.6742 14.532 17.5352 14.4375 18.4172 14.4375Z" fill="#D88C7D"/>
<path d="M22.575 34.65C15.918 34.65 10.5 29.232 10.5 22.575C10.5 15.918 15.918 10.5 22.575 10.5C29.232 10.5 34.65 15.918 34.65 22.575C34.65 29.232 29.232 34.65 22.575 34.65ZM22.575 12.6C17.073 12.6 12.6 17.073 12.6 22.575C12.6 28.077 17.073 32.55 22.575 32.55C28.077 32.55 32.55 28.077 32.55 22.575C32.55 17.073 28.077 12.6 22.575 12.6Z" fill="#221F1F"/>
<path d="M22.5752 23.625C22.3547 23.625 22.1342 23.5515 21.9452 23.415C21.4832 23.0685 21.3887 22.407 21.7352 21.945L26.2397 15.9705C26.5862 15.5085 27.2477 15.414 27.7097 15.7605C28.1717 16.107 28.2662 16.7685 27.9197 17.2305L23.4152 23.205C23.2052 23.478 22.8902 23.625 22.5752 23.625Z" fill="#221F1F"/>
</svg>
