<svg width="42" height="42" viewBox="0 0 42 42" fill="none" xmlns="http://www.w3.org/2000/svg">
<path d="M36.4 14.6C35.8 13.9 36.2 13.3 36.8 13.2C38 12.8 38.9 11.8 39.1 10.6C39.4 9.2 38.8 7.8 37.6 7C33.9 3.8 28.8 2 23.5 2C17.8 2 12.7 4 9.00003 7.6C3.10003 13.1 1.30003 21.1 4.20003 28.3C7.10003 35.5 13.8 40 21.7 40C22.4 40 23.1 40 23.8 39.9C31.1 39.1 36.8 34.1 38.6 27C39.7 22.5 38.8 18.2 36.4 14.6Z" fill="white"/>
<path d="M10.4003 9.10001C-1.2997 20.1 6.9003 39.5 23.6003 37.9C36.7003 36.5 42.2003 19.6 30.9003 12.2C22.4003 6.50001 10.3003 12.3 11.1003 22.6C11.4003 29.1 18.9003 34 25.2003 31.4C31.8003 29 33.1003 19.5 26.3003 16.5C23.4003 15.2 19.4003 16.1 17.9003 19C16.0003 22.2 18.2003 26.7 22.2003 26.2C23.3003 26.1 24.4003 25.3 24.7003 24.2C25.0003 23.1 23.8003 22.1 22.8003 22.4C22.5003 22.5 22.1003 22.7 22.0003 23C21.9003 23.2 21.8003 23.2 21.6003 23.2C19.6003 22.8 20.2003 20.1 21.6003 19.4C23.2003 18.4 25.4003 19 26.6003 20.3C28.0003 21.9 28.0003 24.2 27.0003 25.9C25.4003 28.9 21.3003 29.8 18.3003 28.2C10.3003 24.1 14.7003 12.6 23.2003 12.8C31.1003 12.7 36.1003 20.9 32.9003 27.7C29.6003 35.6 18.6003 37.1 12.4003 31.6C3.1003 23.4 9.4003 8.00001 21.8003 7.00001C25.7003 6.60001 29.8003 7.60001 33.1003 9.80001C34.0003 10.3 34.7003 11.5 35.9003 11.3C37.4003 11 37.6003 9.20001 36.4003 8.50001C29.2003 2.40001 17.1003 2.40001 10.4003 9.10001Z" fill="#221F1F"/>
</svg>
