<svg width="42" height="42" viewBox="0 0 42 42" fill="none" xmlns="http://www.w3.org/2000/svg">
<path d="M20.9998 40.95C9.99581 40.95 1.0498 32.004 1.0498 21C1.0498 9.99599 9.99581 1.04999 20.9998 1.04999C32.0038 1.04999 40.9498 9.99599 40.9498 21C40.9498 32.004 32.0038 40.95 20.9998 40.95Z" fill="white"/>
<path d="M21.0002 37.8C30.2786 37.8 37.8002 30.2784 37.8002 21C37.8002 11.7216 30.2786 4.20001 21.0002 4.20001C11.7218 4.20001 4.2002 11.7216 4.2002 21C4.2002 30.2784 11.7218 37.8 21.0002 37.8Z" fill="white"/>
<path d="M21.0004 38.85C11.1619 38.85 3.15039 30.8385 3.15039 21C3.15039 11.1615 11.1619 3.15002 21.0004 3.15002C30.8389 3.15002 38.8504 11.1615 38.8504 21C38.8504 30.8385 30.8389 38.85 21.0004 38.85ZM21.0004 5.25002C12.3169 5.25002 5.25039 12.3165 5.25039 21C5.25039 29.6835 12.3169 36.75 21.0004 36.75C29.6839 36.75 36.7504 29.6835 36.7504 21C36.7504 12.3165 29.6839 5.25002 21.0004 5.25002Z" fill="#221F1F"/>
<path fill-rule="evenodd" clip-rule="evenodd" d="M21.0002 21C16.5272 19.7925 12.6002 17.241 12.6002 12.6C12.6002 7.95901 16.3592 4.20001 21.0002 4.20001C11.7182 4.20001 4.2002 11.718 4.2002 21C4.2002 30.282 11.7182 37.8 21.0002 37.8C25.6412 37.8 29.4002 34.041 29.4002 29.4C29.4002 24.759 25.6517 22.26 21.0002 21Z" fill="#676D82"/>
<path d="M21.0004 38.85C11.1619 38.85 3.15039 30.8385 3.15039 21C3.15039 11.1615 11.1619 3.15002 21.0004 3.15002C21.5779 3.15002 22.0504 3.62252 22.0504 4.20002C22.0504 4.77752 21.5779 5.25002 21.0004 5.25002C16.9474 5.25002 13.6504 8.54702 13.6504 12.6C13.6504 16.9995 17.7979 19.047 21.2734 19.992C28.8544 22.0395 30.4504 26.2395 30.4504 29.4C30.4504 34.608 26.2084 38.85 21.0004 38.85ZM13.1464 7.35002C8.43189 10.0695 5.25039 15.1725 5.25039 21C5.25039 29.6835 12.3169 36.75 21.0004 36.75C25.0534 36.75 28.3504 33.453 28.3504 29.4C28.3504 25.872 25.7884 23.3835 20.7274 22.008C14.8054 20.412 11.5504 17.0625 11.5504 12.6C11.5504 10.6575 12.1384 8.85152 13.1464 7.35002Z" fill="#221F1F"/>
<path d="M21.0004 14.7C22.1602 14.7 23.1004 13.7598 23.1004 12.6C23.1004 11.4402 22.1602 10.5 21.0004 10.5C19.8406 10.5 18.9004 11.4402 18.9004 12.6C18.9004 13.7598 19.8406 14.7 21.0004 14.7Z" fill="#221F1F"/>
<path d="M21.0004 31.5C22.1602 31.5 23.1004 30.5598 23.1004 29.4C23.1004 28.2402 22.1602 27.3 21.0004 27.3C19.8406 27.3 18.9004 28.2402 18.9004 29.4C18.9004 30.5598 19.8406 31.5 21.0004 31.5Z" fill="white"/>
</svg>
