<svg width="42" height="42" viewBox="0 0 42 42" fill="none" xmlns="http://www.w3.org/2000/svg">
<path d="M35.3996 14.1C35.6996 13.1 35.8996 12.1 35.8996 11C35.8996 6 32.1996 2 27.5996 2C24.0996 2 21.0996 4.4 19.8996 7.7C18.3996 6.1 16.2996 5 13.9996 5C9.49961 5 5.89961 9 5.89961 13.8C5.89961 14.8 6.09961 15.8 6.39961 16.7C3.79961 18.3 2.09961 21.2 2.09961 24.4V36.9C2.09961 38.6 3.39961 39.9 5.09961 39.9H36.9996C38.6996 39.9 39.9996 38.6 39.9996 36.9V22.1C39.8996 18.8 38.1996 15.8 35.3996 14.1Z" fill="white"/>
<path fill-rule="evenodd" clip-rule="evenodd" d="M30.8994 15.8001C32.1994 14.7001 32.9994 13.0001 32.9994 11.1001C32.9994 7.8001 30.5994 5.1001 27.6994 5.1001C24.7994 5.1001 22.3994 7.8001 22.3994 11.1001C22.3994 13.0001 23.1994 14.7001 24.4994 15.8001C21.0994 15.9001 18.3994 18.7001 18.3994 22.1001V36.9001H36.9994V22.1001C36.8994 18.7001 34.1994 15.9001 30.8994 15.8001Z" fill="#B7EDB7"/>
<path d="M36.8998 37.9H18.2998C17.6998 37.9 17.2998 37.5 17.2998 36.9V22.1C17.2998 18.8 19.4998 16 22.4998 15.1C21.6998 13.9 21.2998 12.5 21.2998 11C21.2998 7.1 24.0998 4 27.5998 4C31.0998 4 33.8998 7.1 33.8998 11C33.8998 12.5 33.4998 13.9 32.6998 15.1C35.6998 16 37.8998 18.8 37.8998 22.1V36.9C37.8998 37.5 37.4998 37.9 36.8998 37.9ZM19.2998 35.9H35.8998V22.1C35.8998 19.3 33.5998 16.9 30.7998 16.8C30.3998 16.8 29.9998 16.5 29.8998 16.1C29.7998 15.7 29.8998 15.3 30.1998 15C31.2998 14 31.8998 12.6 31.8998 11C31.8998 8.2 29.9998 6 27.5998 6C25.1998 6 23.2998 8.2 23.2998 11C23.2998 12.6 23.8998 14 24.9998 15C25.2998 15.3 25.3998 15.7 25.2998 16.1C25.1998 16.5 24.7998 16.8 24.3998 16.8C21.5998 16.9 19.2998 19.3 19.2998 22.1V35.9Z" fill="#221F1F"/>
<path fill-rule="evenodd" clip-rule="evenodd" d="M17.0996 18.4C18.2996 17.3 19.0996 15.7 19.0996 13.8C19.0996 10.6 16.7996 8 13.9996 8C11.1996 8 8.89961 10.6 8.89961 13.8C8.89961 15.7 9.69961 17.3 10.8996 18.4C7.69961 18.5 5.09961 21.2 5.09961 24.5V37H22.9996V24.4C22.9996 21.2 20.3996 18.5 17.0996 18.4Z" fill="#B9B9FF"/>
<path d="M22.9996 37.9H5.09961C4.49961 37.9 4.09961 37.5 4.09961 36.9V24.4C4.09961 21.2 6.19961 18.5 9.09961 17.6C8.39961 16.5 7.99961 15.1 7.99961 13.7C7.89961 10.1 10.6996 7 13.9996 7C17.2996 7 20.0996 10 20.0996 13.8C20.0996 15.2 19.6996 16.6 18.9996 17.7C21.8996 18.6 23.9996 21.3 23.9996 24.5V37C23.9996 37.5 23.4996 37.9 22.9996 37.9ZM6.09961 35.9H21.9996V24.4C21.9996 21.7 19.7996 19.4 17.0996 19.3C16.6996 19.3 16.2996 19 16.1996 18.6C16.0996 18.2 16.1996 17.8 16.4996 17.5C17.4996 16.6 18.0996 15.2 18.0996 13.7C18.0996 11.1 16.2996 8.9 13.9996 8.9C11.6996 8.9 9.89961 11 9.89961 13.7C9.89961 15.2 10.4996 16.6 11.4996 17.5C11.7996 17.8 11.8996 18.2 11.7996 18.6C11.6996 19 11.2996 19.3 10.8996 19.3C8.19961 19.4 5.99961 21.7 5.99961 24.4V35.9H6.09961Z" fill="#221F1F"/>
<path fill-rule="evenodd" clip-rule="evenodd" d="M23.0998 29.7C23.8998 29 24.3998 27.9 24.3998 26.7C24.3998 24.6 22.8998 23 21.0998 23C19.2998 23 17.7998 24.7 17.7998 26.7C17.7998 27.9 18.2998 29 19.0998 29.7C16.9998 29.8 15.2998 31.5 15.2998 33.6V36.9H26.8998V33.6C26.8998 31.5 25.1998 29.8 23.0998 29.7Z" fill="#EDD286"/>
<path d="M26.8998 37.9H15.2998C14.6998 37.9 14.2998 37.5 14.2998 36.9V33.6C14.2998 31.5 15.4998 29.8 17.2998 29C16.8998 28.3 16.6998 27.5 16.6998 26.7C16.6998 24.1 18.5998 22 20.9998 22C23.3998 22 25.2998 24.1 25.2998 26.7C25.2998 27.5 25.0998 28.3 24.6998 29C26.4998 29.7 27.6998 31.5 27.6998 33.6V36.9C27.8998 37.5 27.3998 37.9 26.8998 37.9ZM16.2998 35.9H25.8998V33.6C25.8998 32 24.5998 30.7 23.0998 30.7C22.6998 30.7 22.2998 30.4 22.1998 30C22.0998 29.6 22.1998 29.2 22.4998 28.9C23.0998 28.4 23.3998 27.6 23.3998 26.7C23.3998 25.2 22.3998 24 21.0998 24C19.7998 24 18.7998 25.2 18.7998 26.7C18.7998 27.6 19.0998 28.4 19.6998 28.9C19.9998 29.2 20.0998 29.6 19.9998 30C19.8998 30.4 19.4998 30.7 19.0998 30.7C17.4998 30.8 16.2998 32.1 16.2998 33.6V35.9Z" fill="#221F1F"/>
<path fill-rule="evenodd" clip-rule="evenodd" d="M8.79961 25.0999C8.89961 22.1999 10.2996 20.1999 10.9996 19.3999C8.29961 19.4999 6.09961 21.6999 6.09961 24.4999V35.9999H11.3996C9.19961 32.2999 8.69961 27.5999 8.79961 25.0999Z" fill="#9891F5"/>
<path fill-rule="evenodd" clip-rule="evenodd" d="M19.3998 30.6001C19.2998 30.6001 19.1998 30.7001 19.0998 30.7001C17.4998 30.8001 16.2998 32.1001 16.2998 33.6001V35.9001H18.8998C17.9998 32.7001 19.0998 30.9001 19.3998 30.6001Z" fill="#D0B366"/>
</svg>
