<svg width="42" height="42" viewBox="0 0 42 42" fill="none" xmlns="http://www.w3.org/2000/svg">
<path fill-rule="evenodd" clip-rule="evenodd" d="M37.49 6.29L27.48 2.29C27.01 2.1 26.51 2 26 2C25.2 2 24.42 2.24 23.76 2.69C22.66 3.44 22 4.67 22 6V17.97L21.83 18.23C21.05 14.11 17.61 11 13.5 11C8.81 11 5 15.04 5 20C5 21.05 5.18 22.05 5.49 22.98C3.35 24.99 2 27.83 2 31V36C2 38.21 3.79 40 6 40H21C23.21 40 25 38.21 25 36V32.68C29.28 30.48 32.06 26.76 32.9 22.08C33.2 20.52 32.87 18.98 32 17.71V15.9L37.49 13.71C39.02 13.1 40 11.64 40 10C40 8.36 39.01 6.9 37.49 6.29Z" fill="white"/>
<path fill-rule="evenodd" clip-rule="evenodd" d="M24 8V20C24 22.21 25.35 24 27 24C28.65 24 30 22.21 30 20V8H24Z" fill="#221F1F"/>
<path d="M13.5 27C17.0899 27 20 23.866 20 20C20 16.134 17.0899 13 13.5 13C9.91015 13 7 16.134 7 20C7 23.866 9.91015 27 13.5 27Z" fill="#221F1F"/>
<path d="M6 37.9994C4.9 37.9994 4 37.0994 4 35.9994V30.9994C4 26.0394 8.04 21.9994 13 21.9994H14C14.94 21.9994 15.88 22.1494 16.79 22.4494C17.14 22.5394 17.98 22.7294 18.88 22.7294C19.23 22.7294 19.56 22.6994 19.87 22.6494C20.84 22.4094 22.5 21.7394 23.16 19.9694C23.21 19.8294 23.28 19.6994 23.35 19.5794L23.79 18.8994C24.51 17.7594 25.7 17.1094 27.03 17.1094C28.22 17.1094 29.38 17.6494 30.13 18.5594C30.87 19.4494 31.15 20.5694 30.94 21.7294C30.14 26.1994 27.34 29.5994 23 31.4194V36.0094C23 37.1094 22.1 38.0094 21 38.0094H6V37.9994Z" fill="#221F1F"/>
<path fill-rule="evenodd" clip-rule="evenodd" d="M26 16C25.61 16 25.21 15.88 24.88 15.66C24.33 15.29 24 14.67 24 14V6C24 5.34 24.33 4.72 24.88 4.34C25.22 4.11 25.61 4 26 4C26.25 4 26.5 4.05 26.74 4.14L36.74 8.14C37.5 8.44 38 9.18 38 10C38 10.82 37.5 11.55 36.74 11.86L26.74 15.86C26.5 15.96 26.25 16 26 16Z" fill="#221F1F"/>
<path d="M13.5 25C15.9853 25 18 22.7614 18 20C18 17.2386 15.9853 15 13.5 15C11.0147 15 9 17.2386 9 20C9 22.7614 11.0147 25 13.5 25Z" fill="#B7EDB7"/>
<path fill-rule="evenodd" clip-rule="evenodd" d="M26 14L36 10L26 6V14Z" fill="#D88C7D"/>
<path d="M20.9998 36V31C20.9998 30.67 20.9698 30.36 20.9298 30.04C24.8898 28.79 28.1298 26.03 28.9698 21.34C29.3498 19.32 26.5898 18.21 25.4698 19.96L25.0298 20.64C24.2398 22.78 22.3898 24.08 20.2898 24.59C18.6698 24.9 17.0898 24.57 16.2398 24.36C15.5398 24.12 14.7898 23.99 14.0098 23.99H13.0098C9.15977 23.99 6.00977 27.14 6.00977 30.99V35.99H21.0098L20.9998 36Z" fill="#B7EDB7"/>
<path fill-rule="evenodd" clip-rule="evenodd" d="M26 8V17C26 17.55 26.45 18 27 18C27.55 18 28 17.55 28 17V8H26Z" fill="#D88C7D"/>
<path d="M9.38 25.0195C7.36 26.2495 6 28.4695 6 30.9995V35.9995H16.53C13.03 34.1995 10.33 30.1095 9.38 25.0195Z" fill="#9CDB9C"/>
<path d="M28.6799 22.4807C28.6799 22.4807 28.6399 22.5507 28.6199 22.5807C26.2199 27.2707 18.1699 28.3307 18.1699 28.3307C19.6199 29.7107 20.9199 30.0307 20.9199 30.0307C24.5499 28.8807 27.5399 26.4607 28.6699 22.4707L28.6799 22.4807Z" fill="#9CDB9C"/>
</svg>
