<svg width="42" height="42" viewBox="0 0 42 42" fill="none" xmlns="http://www.w3.org/2000/svg">
<path d="M18.8474 37.7054C14.5634 37.7054 10.4999 33.9464 10.0484 33.5264C9.56535 33.0854 4.94535 28.9274 2.13135 26.4809C1.32285 25.7774 0.934351 24.7274 1.08135 23.6669L3.18135 8.8409C3.40185 7.2974 4.73535 6.1319 6.27885 6.1319C6.31035 6.1319 16.7894 6.3839 16.7894 6.3839C18.3854 5.9534 19.5929 5.9324 19.7399 5.9324L35.6684 5.8064C37.2749 5.8064 38.6189 6.9929 38.8184 8.5574L40.9184 24.9794C41.0864 26.3129 40.3934 27.6149 39.1859 28.2134L36.8969 29.3369C36.7919 30.1664 36.4874 30.7859 36.1829 31.2059C35.3009 32.4554 34.1144 33.2534 32.7704 33.5264C31.6154 35.0489 29.7569 35.9414 27.5729 35.9939C26.4809 36.7919 25.1159 37.2119 23.5724 37.2119C22.9319 37.2119 22.3229 37.1384 21.8084 37.0439C20.9054 37.4849 19.9079 37.7159 18.8474 37.7159V37.7054Z" fill="white"/>
<path fill-rule="evenodd" clip-rule="evenodd" d="M35.7002 8.94605L19.7717 9.07205C19.7717 9.07205 14.2907 9.14555 12.2117 13.7445C10.1327 18.3435 12.9572 19.53 14.5847 19.3725C16.2122 19.215 18.0707 16.8525 18.2912 15.813C18.2912 15.813 19.2782 15.876 20.5172 15.834L24.8852 23.814L31.6262 28.3815L37.7897 25.3575L35.6897 8.92505L35.7002 8.94605Z" fill="#F4AB69"/>
<path fill-rule="evenodd" clip-rule="evenodd" d="M33.6 25.725C33.6 26.3235 33.5685 26.901 33.5055 27.489L37.8 25.389L35.7 8.95654L19.8975 9.08254C27.804 11.151 33.6 17.8185 33.6 25.725Z" fill="#F7DF69"/>
<path d="M31.6363 29.4525C31.4263 29.4525 31.2268 29.3895 31.0483 29.274L24.3073 24.7065C24.1708 24.612 24.0553 24.486 23.9713 24.339L19.9078 16.9155C19.5613 16.9155 19.2568 16.9155 18.9943 16.9155C18.2488 18.3645 16.4743 20.2755 14.6893 20.4435C13.6078 20.538 12.0328 20.1915 11.1193 18.9105C10.4578 17.976 9.94329 16.254 11.2663 13.335C13.5868 8.18999 19.5193 8.05349 19.7713 8.04299L35.6998 7.91699C36.2248 7.91699 36.6763 8.30549 36.7393 8.83049L38.8393 25.263C38.8918 25.704 38.6608 26.145 38.2618 26.3445L32.0983 29.3685C31.9513 29.442 31.7938 29.4735 31.6363 29.4735V29.4525ZM25.6933 23.1L31.7203 27.1845L36.6658 24.759L34.7758 9.99599L19.7818 10.122C19.5928 10.122 14.9413 10.2585 13.1668 14.175C12.4528 15.75 12.3373 16.989 12.8203 17.6715C13.1983 18.1965 13.9228 18.3855 14.4898 18.333C15.5293 18.2385 17.1043 16.338 17.2618 15.603C17.3668 15.099 17.8498 14.7525 18.3538 14.7735C18.3538 14.7735 19.3093 14.8365 20.4853 14.7945C20.8738 14.7945 21.2413 14.994 21.4303 15.3405L25.6828 23.1H25.6933Z" fill="#221F1F"/>
<path fill-rule="evenodd" clip-rule="evenodd" d="M21.2619 14.763L20.4744 9.62848L6.30996 9.28198L4.20996 24.108C7.22346 26.733 12.2215 31.248 12.2215 31.248C12.2215 31.248 17.9334 36.6555 21.2619 33.642C21.2619 33.642 24.8214 35.028 26.3964 32.7495C26.3964 32.7495 30.1554 33.537 30.8484 30.282C30.8484 30.282 32.434 31.0695 33.6204 29.3895C34.8069 27.7095 30.166 20.202 21.2724 14.763H21.2619Z" fill="#9891F5"/>
<path d="M26.3969 33.7996C26.1239 33.7996 25.8509 33.6946 25.6409 33.4846L19.6874 27.3841C19.2779 26.9641 19.2884 26.3026 19.7084 25.9036C20.1284 25.5046 20.7899 25.5046 21.1889 25.9246L27.1424 32.0251C27.5519 32.4451 27.5414 33.1066 27.1214 33.5056C26.9219 33.7051 26.6489 33.7996 26.3864 33.7996H26.3969Z" fill="#221F1F"/>
<path d="M21.2623 34.6919C20.9998 34.6919 20.7373 34.5974 20.5378 34.3979L15.7918 29.8514C15.3718 29.4524 15.3613 28.7909 15.7603 28.3709C16.1593 27.9509 16.8313 27.9404 17.2408 28.3394L21.9868 32.8859C22.4068 33.2849 22.4173 33.9464 22.0183 34.3664C21.8083 34.5869 21.5353 34.6919 21.2623 34.6919Z" fill="#221F1F"/>
<path d="M21 19.9499L32.1615 30.4184C32.6235 30.3239 33.1485 30.0509 33.6105 29.3894C34.608 27.9824 31.4895 22.4699 25.2105 17.5244H25.0215L21.0105 19.9499H21Z" fill="#B9B9FF"/>
<path d="M18.8474 35.6055C15.3404 35.6055 11.6969 32.193 11.4974 32.004C11.4659 31.9725 6.48886 27.489 3.51736 24.8955C3.24436 24.6645 3.11836 24.3075 3.17086 23.961L5.27086 9.13499C5.34436 8.60999 5.81686 8.21099 6.33136 8.23199L20.4959 8.57849C20.9999 8.58899 21.4304 8.96699 21.5039 9.47099L22.2179 14.133C29.1899 18.5115 34.0513 24.528 34.7549 27.909C34.9333 28.7805 34.8389 29.484 34.4714 30.009C33.5789 31.269 32.4554 31.5945 31.5419 31.521C30.5864 33.621 28.3604 34.02 26.8274 33.8835C25.1789 35.574 22.6169 35.133 21.4724 34.818C20.6534 35.385 19.7504 35.616 18.8474 35.616V35.6055ZM5.32336 23.688C8.32636 26.3235 12.8729 30.4185 12.9254 30.4605C12.9989 30.5235 18.0284 35.154 20.5589 32.8545C20.8529 32.592 21.2729 32.508 21.6404 32.655C21.6614 32.655 24.4544 33.705 25.5359 32.1405C25.7774 31.794 26.2079 31.626 26.6174 31.71C26.8904 31.7625 29.3684 32.193 29.8199 30.051C29.8829 29.736 30.1034 29.463 30.3869 29.3265C30.6809 29.19 31.0169 29.19 31.3109 29.3265C31.5419 29.4315 32.1719 29.589 32.7494 28.77C33.1169 27.6465 29.3684 20.937 20.7059 15.645C20.4434 15.4875 20.2649 15.2145 20.2124 14.91L19.5509 10.6365L7.19236 10.3425L5.30236 23.6775L5.32336 23.688Z" fill="#221F1F"/>
<path fill-rule="evenodd" clip-rule="evenodd" d="M21.6512 9.11402L19.7717 9.07202C19.7717 9.07202 14.2907 9.14552 12.2117 13.7445C10.1327 18.3435 12.9572 19.53 14.5847 19.3725C16.2122 19.215 18.0707 16.8525 18.2912 15.813C18.2912 15.813 23.2577 16.107 24.9587 14.994L21.6512 9.10352V9.11402Z" fill="#F4AB69"/>
<path d="M14.332 20.4435C13.282 20.4435 11.938 20.0445 11.1085 18.8895C10.4471 17.9655 9.93255 16.233 11.2555 13.314C13.576 8.16899 19.5085 8.03249 19.7605 8.02199L29.7985 7.94849C30.376 7.94849 30.8485 8.41049 30.8485 8.98799C30.8485 9.56549 30.3865 10.038 29.809 10.0485L19.7815 10.122C19.5925 10.122 14.941 10.2585 13.1665 14.175C12.4525 15.75 12.337 16.989 12.82 17.6715C13.198 18.1965 13.933 18.3855 14.4895 18.333C15.529 18.2385 17.104 16.338 17.2615 15.603C17.3665 15.099 17.839 14.7525 18.3535 14.7735C20.275 14.8785 23.4145 14.763 24.391 14.1225C24.874 13.8075 25.525 13.944 25.84 14.427C26.155 14.91 26.0185 15.561 25.5355 15.876C23.971 16.8945 20.611 16.947 18.9835 16.8945C18.238 18.3435 16.4635 20.2545 14.6785 20.4225C14.563 20.4225 14.4475 20.433 14.332 20.433V20.4435Z" fill="#221F1F"/>
<path d="M30.8486 31.3214C30.5861 31.3214 30.3236 31.2269 30.1241 31.0274L23.5721 24.7274C23.1521 24.3284 23.1416 23.6564 23.5406 23.2469C23.9396 22.8269 24.6116 22.8164 25.0211 23.2154L31.5731 29.5154C31.9931 29.9144 32.0036 30.5864 31.6046 30.9959C31.3946 31.2059 31.1216 31.3214 30.8486 31.3214Z" fill="#221F1F"/>
</svg>
