<svg width="42" height="42" viewBox="0 0 42 42" fill="none" xmlns="http://www.w3.org/2000/svg">
<path d="M28.6002 3.19995C25.8002 3.19995 23.1002 4.19995 21.0002 5.99995C18.9002 4.19995 16.2002 3.19995 13.4002 3.19995C10.3002 3.19995 7.30022 4.39995 5.10022 6.59995C0.600221 11.1 0.500221 18.5 5.00022 23.1C4.90022 23.6 4.80022 24.1 4.80022 24.6C4.80022 26 5.30022 27.3 6.30022 28.2C6.80022 28.7 7.50022 29.1 8.20022 29.4C8.50022 30.1 8.90022 30.6999 9.40022 31.2999C9.90022 31.7999 10.6002 32.2 11.3002 32.5C11.6002 33.2 12.0002 33.8 12.5002 34.4C13.0002 35 13.7002 35.2999 14.4002 35.5999C14.7002 36.2999 15.1002 36.9 15.6002 37.5C16.6002 38.5 17.9002 39 19.2002 39C20.1002 39 21.0002 38.7 21.8002 38.2999C22.0002 38.2 22.3002 38.1 22.5002 37.9L24.9002 35.5C25.0002 35.4 25.2002 35.2999 25.3002 35.2C25.4002 35.1 25.5002 35.1 25.5002 35C26.8002 34.9 28.0002 34.4 28.9002 33.5C29.4002 33 29.8002 32.3 30.1002 31.7C30.8002 31.4 31.4002 31 32.0002 30.5C32.5002 30 32.9002 29.3 33.2002 28.6C33.9002 28.3 34.5002 27.9 35.1002 27.4C36.0002 26.5 36.6002 25.1999 36.6002 23.9L37.0002 23.5C41.6002 18.9 41.6002 11.5 37.0002 6.89995C34.6002 4.39995 31.7002 3.19995 28.6002 3.19995Z" fill="white"/>
<path fill-rule="evenodd" clip-rule="evenodd" d="M21.0002 34.7999L34.7002 20.9999C38.1002 17.5999 38.1002 12.0999 34.7002 8.6999C31.3002 5.2999 25.8002 5.2999 22.4002 8.6999L8.7002 22.4999L21.0002 34.7999Z" fill="#B7EDB7"/>
<path d="M21.0003 36.2L7.30029 22.5L21.7003 7.99995C23.5003 6.19995 26.0003 5.19995 28.6003 5.19995C31.2003 5.19995 33.6003 6.19995 35.5003 7.99995C39.3003 11.8 39.3003 17.9 35.5003 21.7L21.0003 36.2ZM10.1003 22.5L21.0003 33.4L34.0003 20.4C37.0003 17.4 37.0003 12.5 34.0003 9.49995C32.6003 8.09995 30.6003 7.29995 28.6003 7.29995C26.5003 7.29995 24.6003 8.09995 23.2003 9.49995L10.1003 22.5Z" fill="#221F1F"/>
<path fill-rule="evenodd" clip-rule="evenodd" d="M19.6 8.6999C16.2 5.2999 10.7 5.2999 7.3 8.6999C3.9 12.0999 3.9 17.5999 7.3 20.9999L18.7 32.3999L18.9 32.1999L19.7 32.9999C20.5 33.7999 21.9 33.7999 22.7 32.9999C23.5 32.1999 24.5 31.7999 23.7 30.9999C24.5 31.7999 25.9 31.7999 26.7 30.9999C27.5 30.1999 27.5 28.7999 26.7 27.9999C27.5 28.7999 28.9 28.7999 29.7 27.9999C30.5 27.1999 30.5 25.7999 29.7 24.9999C30.5 25.7999 31.9 25.7999 32.7 24.9999C33.5 24.1999 33.5 22.7999 32.7 21.9999L19.6 8.6999Z" fill="#EDD286"/>
<path d="M21.2 34.7C20.4 34.7 19.6 34.4 19 33.7999L18.7 33.5C18.5 33.5 18.3 33.4 18.1 33.2L6.6 21.7999C2.8 17.9999 2.8 11.8 6.6 7.99995C8.4 6.19995 10.9 5.19995 13.5 5.19995C16.1 5.19995 18.5 6.19995 20.4 7.99995L33.6 21.2C34.2 21.8 34.5 22.6 34.5 23.4C34.5 24.2 34.2 25 33.6 25.6C33 26.2 32.3 26.5 31.5 26.5C31.5 27.2999 31.1 28.1 30.6 28.6C30 29.2 29.3 29.5 28.5 29.5C28.5 30.2999 28.1 31.1 27.6 31.6C27 32.2 26.2 32.5 25.4 32.5C25.2 32.5 25 32.5 24.8 32.5C24.6 32.7999 24.3 33 24.1 33.2C23.9 33.3 23.8 33.5 23.6 33.7C22.8 34.4 22 34.7 21.2 34.7ZM19 31.2999C19.2 31.2999 19.4 31.4 19.6 31.6L20.4 32.4C20.8 32.8 21.6 32.8 22 32.4C22.2 32.2 22.4 32 22.7 31.7999C22.8 31.6999 22.9 31.7 22.9 31.6C22.8 31.4 22.7 31.2 22.7 31C22.7 30.7 22.8 30.5 23 30.2999C23.4 29.9 24 29.9 24.4 30.2999C24.8 30.6999 25.6 30.6999 26 30.2999C26.4 29.9 26.4 29.1 26 28.7C25.8 28.5 25.7 28.2 25.7 28C25.7 27.7999 25.8 27.5 26 27.2999C26.4 26.9 27 26.9 27.4 27.2999C27.8 27.6999 28.6 27.6999 29 27.2999C29.2 27.0999 29.3 26.7999 29.3 26.5C29.3 26.2 29.2 25.9 29 25.7C28.8 25.5 28.7 25.2 28.7 25C28.7 24.7999 28.8 24.5 29 24.2999C29.4 23.9 30 23.9 30.4 24.2999C30.8 24.6999 31.6 24.6999 32 24.2999C32.2 24.0999 32.3 23.7999 32.3 23.5C32.3 23.2 32.2 22.9 32 22.7L18.9 9.39995C17.5 7.99995 15.5 7.19995 13.5 7.19995C11.4 7.19995 9.5 7.99995 8.1 9.39995C5.1 12.4 5.1 17.3 8.1 20.3L19 31.2999Z" fill="#221F1F"/>
<path fill-rule="evenodd" clip-rule="evenodd" d="M25.5001 13.3999L21.6001 17.2999C20.5001 18.3999 18.8001 18.3999 17.8001 17.2999C16.7001 16.1999 16.7001 14.4999 17.8001 13.4999L21.7001 9.5999C22.8001 8.4999 24.5001 8.4999 25.5001 9.5999C26.5001 10.5999 26.5001 12.2999 25.5001 13.3999Z" fill="#F0AA97"/>
<path d="M19.6002 19.0999C18.7002 19.0999 17.7002 18.6999 17.0002 17.9999C15.6002 16.5999 15.6002 14.1999 17.0002 12.7999L20.9002 8.89985C22.3002 7.49985 24.7002 7.49985 26.1002 8.89985C27.5002 10.2999 27.5002 12.6999 26.1002 14.0999L22.2002 17.9999C21.5002 18.6999 20.6002 19.0999 19.6002 19.0999ZM23.5002 9.69985C23.1002 9.69985 22.6002 9.89985 22.3002 10.1999L18.4002 14.0999C17.7002 14.7999 17.7002 15.7999 18.4002 16.4999C19.1002 17.1999 20.1002 17.1999 20.8002 16.4999L24.7002 12.5999C25.4002 11.8999 25.4002 10.8999 24.7002 10.1999C24.4002 9.89985 24.0002 9.69985 23.5002 9.69985Z" fill="#221F1F"/>
<path fill-rule="evenodd" clip-rule="evenodd" d="M28.6 7.19995C26.5 7.19995 24.6 7.99995 23.2 9.39995L22.5 10.1L33.4 21L34.1 20.3C37.1 17.3 37.1 12.4 34.1 9.39995C32.6 7.99995 30.6 7.19995 28.6 7.19995Z" fill="#F0AA97"/>
<path fill-rule="evenodd" clip-rule="evenodd" d="M19.8999 29.8L17.4999 32.2C16.6999 33 16.6999 34.4 17.4999 35.2C18.2999 36 19.6999 36 20.4999 35.2L22.8999 32.8C23.6999 32 23.6999 30.6 22.8999 29.8C22.0999 28.9 20.7999 28.9 19.8999 29.8Z" fill="#F0AA97"/>
<path d="M19.1 36.7999C18.3 36.7999 17.5 36.5 16.9 35.9C16.3 35.3 16 34.5 16 33.7C16 32.9 16.3 32.1 16.9 31.5L19.3 29.1C20.5 27.9 22.5 27.9 23.8 29.1C24.4 29.7 24.7 30.5 24.7 31.3C24.7 32.1 24.4 32.9 23.8 33.5L21.4 35.9C20.7 36.5 19.9 36.7999 19.1 36.7999ZM20.7 30.5L18.3 32.9C18.1 33.1 18 33.4 18 33.7C18 34 18.1 34.3 18.3 34.5C18.7 34.9 19.5 34.9 19.9 34.5L22.3 32.0999C22.5 31.8999 22.6 31.6 22.6 31.3C22.6 31 22.5 30.7 22.3 30.5C21.8 30 21.1 30 20.7 30.5Z" fill="#221F1F"/>
<path fill-rule="evenodd" clip-rule="evenodd" d="M19.8999 29.8L17.4999 32.2C16.6999 33 15.2999 33 14.4999 32.2C13.6999 31.4 13.6999 30 14.4999 29.2L16.8999 26.8C17.6999 26 19.0999 26 19.8999 26.8C20.7999 27.6 20.7999 28.9 19.8999 29.8Z" fill="#F0AA97"/>
<path d="M16.1 33.7999C15.3 33.7999 14.5 33.4999 13.9 32.8999C12.7 31.6999 12.7 29.6999 13.9 28.3999L16.3 25.9999C17.5 24.7999 19.6 24.7999 20.8 25.9999C21.4 26.5999 21.7 27.3999 21.7 28.1999C21.7 28.9999 21.4 29.7999 20.8 30.3999L18.4 32.7999C17.7 33.4999 16.9 33.7999 16.1 33.7999ZM18.4 27.0999C18.1 27.0999 17.8 27.1999 17.6 27.3999L15.2 29.7999C14.8 30.1999 14.8 30.9999 15.2 31.3999C15.6 31.7999 16.4 31.7999 16.8 31.3999L19.2 28.9999C19.4 28.7999 19.5 28.4999 19.5 28.1999C19.5 27.8999 19.4 27.5999 19.2 27.3999C19 27.1999 18.7 27.0999 18.4 27.0999Z" fill="#221F1F"/>
<path fill-rule="evenodd" clip-rule="evenodd" d="M13.9004 23.7001L11.5004 26.1001C10.7004 26.9001 10.7004 28.3001 11.5004 29.1001C12.3004 29.9001 13.7004 29.9001 14.5004 29.1001L16.9004 26.7001C17.7004 25.9001 17.7004 24.5001 16.9004 23.7001C16.1004 22.9001 14.7004 22.9001 13.9004 23.7001Z" fill="#F0AA97"/>
<path d="M13.0004 30.7C12.2004 30.7 11.4004 30.4 10.8004 29.8C9.60039 28.6 9.60039 26.6 10.8004 25.3L13.2004 22.9C14.4004 21.7 16.4004 21.7 17.7004 22.9C18.9004 24.1 18.9004 26.1 17.7004 27.4L15.3004 29.8C14.7004 30.4 13.9004 30.7 13.0004 30.7ZM14.6004 24.4L12.2004 26.8C11.8004 27.2 11.8004 28 12.2004 28.4C12.6004 28.8 13.4004 28.8 13.8004 28.4L16.2004 26C16.6004 25.6 16.6004 24.8 16.2004 24.4C15.8004 23.9 15.0004 23.9 14.6004 24.4Z" fill="#221F1F"/>
<path fill-rule="evenodd" clip-rule="evenodd" d="M13.9004 23.6999L11.5004 26.0999C10.7004 26.8999 9.30039 26.8999 8.50039 26.0999C7.70039 25.2999 7.70039 23.8999 8.50039 23.0999L10.9004 20.6999C11.7004 19.8999 13.1004 19.8999 13.9004 20.6999C14.7004 21.4999 14.7004 22.8999 13.9004 23.6999Z" fill="#F0AA97"/>
<path d="M10.0004 27.6999C9.20039 27.6999 8.40039 27.3999 7.80039 26.7999C7.20039 26.1999 6.90039 25.3999 6.90039 24.5999C6.90039 23.7999 7.20039 22.9999 7.80039 22.3999L10.2004 19.9999C11.4004 18.7999 13.4004 18.7999 14.7004 19.9999C15.3004 20.5999 15.6004 21.3999 15.6004 22.1999C15.6004 22.9999 15.3004 23.7999 14.7004 24.3999L12.3004 26.7999C11.6004 27.3999 10.8004 27.6999 10.0004 27.6999ZM12.4004 20.9999C12.1004 20.9999 11.8004 21.0999 11.6004 21.2999L9.20039 23.6999C9.00039 23.8999 8.90039 24.1999 8.90039 24.4999C8.90039 24.7999 9.00039 25.0999 9.20039 25.2999C9.60039 25.6999 10.4004 25.6999 10.8004 25.2999L13.2004 22.8999C13.4004 22.6999 13.5004 22.3999 13.5004 22.0999C13.5004 21.7999 13.4004 21.4999 13.2004 21.2999C12.9004 21.0999 12.6004 20.9999 12.4004 20.9999Z" fill="#221F1F"/>
</svg>
