<svg width="42" height="42" viewBox="0 0 42 42" fill="none" xmlns="http://www.w3.org/2000/svg">
<path d="M38.4095 24.14C38.5495 23.54 38.5995 22.91 38.5695 22.26C38.4395 20.08 37.3295 18.27 35.6395 17.21C35.8495 16.6 36.0095 15.96 36.1295 15.3C36.6395 12.4 36.1595 9.48003 34.7795 7.06003C33.2595 4.41003 30.8595 2.67003 28.0195 2.17003C27.4895 2.08003 26.9495 2.03003 26.4095 2.03003C24.4595 2.03003 22.6095 2.63003 21.0095 3.69003C19.4095 2.63003 17.5595 2.03003 15.6095 2.03003C15.0695 2.03003 14.5295 2.08003 13.9995 2.17003C11.1595 2.67003 8.75953 4.41003 7.23953 7.06003C5.85953 9.48003 5.37953 12.4 5.88953 15.3C6.14953 16.76 6.63953 18.11 7.30953 19.31C4.07953 21.97 2.01953 26 2.01953 30.5V34.64C2.01953 37.6 4.42953 40 7.37953 40H34.6495C37.6095 40 40.0095 37.59 40.0095 34.64V30.83C40.0095 28.44 39.4295 26.16 38.4195 24.14H38.4095Z" fill="white"/>
<path d="M15 38C13.9 38 13 37.1 13 36V30.5C13 23.61 18.61 18 25.5 18C25.91 18 26.32 18.02 26.74 18.06C33.05 18.68 38 24.29 38 30.83V34.64C38 36.49 36.49 38 34.64 38H15Z" fill="#221F1F"/>
<path d="M36 34.6401V30.8301C36 25.3701 31.98 20.5901 26.55 20.0501C20.31 19.4401 15 24.3801 15 30.5001V36.0001H34.64C35.39 36.0001 36 35.3901 36 34.6401Z" fill="#B7EDB7"/>
<path d="M16.3704 23C12.2504 23 8.66037 19.61 7.84037 14.95C7.41037 12.51 7.81037 10.06 8.96037 8.05003C10.1804 5.92003 12.0904 4.53003 14.3304 4.14003C14.7504 4.07003 15.1704 4.03003 15.6004 4.03003C19.7204 4.03003 23.3104 7.42003 24.1304 12.08C25.0404 17.25 22.1304 22.1 17.6404 22.89C17.2204 22.96 16.8004 23 16.3704 23Z" fill="#221F1F"/>
<path d="M17.2903 20.9126C20.7005 20.3113 22.8804 16.5082 22.1592 12.4181C21.438 8.328 18.0889 5.49979 14.6787 6.10111C11.2684 6.70242 9.08854 10.5055 9.80973 14.5956C10.5309 18.6857 13.8801 21.5139 17.2903 20.9126Z" fill="#B9B9FF"/>
<path d="M11.3595 8.1001C10.0195 9.7201 9.36955 12.1101 9.80955 14.6101C10.5295 18.7001 13.8795 21.5301 17.2895 20.9301C18.5795 20.7001 19.6895 20.0201 20.5395 19.0301C14.6295 16.4001 12.2595 11.0501 11.3595 8.1001Z" fill="#9891F5"/>
<path d="M7.36 38C5.51 38 4 36.49 4 34.64V30.5C4 23.61 9.61 18 16.51 18C23.41 18 25 19.59 25 28.62V36C25 37.1 24.1 38 23 38H7.36Z" fill="#221F1F"/>
<path d="M25.6297 23C25.2097 23 24.7797 22.96 24.3597 22.89C19.8697 22.1 16.9597 17.25 17.8697 12.08C18.6897 7.42003 22.2797 4.03003 26.3997 4.03003C26.8197 4.03003 27.2497 4.07003 27.6697 4.14003C29.9097 4.54003 31.8197 5.93003 33.0397 8.05003C34.1897 10.06 34.5897 12.51 34.1597 14.95C33.3397 19.62 29.7497 23 25.6297 23Z" fill="#221F1F"/>
<path d="M32.1876 14.601C32.9087 10.5109 30.7289 6.70779 27.3186 6.10648C23.9084 5.50517 20.5593 8.33338 19.8381 12.4234C19.1169 16.5135 21.2968 20.3166 24.707 20.918C28.1172 21.5193 31.4664 18.6911 32.1876 14.601Z" fill="#B7EDB7"/>
<path d="M21.8496 8.21997C20.8596 9.31997 20.1296 10.77 19.8396 12.43C19.1196 16.52 21.2996 20.32 24.7096 20.92C26.4796 21.23 28.2296 20.61 29.6096 19.38C25.1496 16.08 22.9296 11.49 21.8596 8.21997H21.8496Z" fill="#9CDB9C"/>
<path d="M23 36V28.62C23 20.29 22.28 20 16.51 20C10.74 20 6 24.73 6 30.5V34.64C6 35.39 6.61 36 7.36 36H23Z" fill="#B9B9FF"/>
<path d="M30.6097 22.6701L30.4697 22.5201C30.0397 22.4101 29.5897 22.3501 29.1397 22.3501C28.1997 22.3501 27.2597 22.5901 26.4397 23.0501L21.5997 25.7401L17.5897 22.3901C16.7497 21.7001 15.7697 21.3301 14.7397 21.3301C12.9997 21.3301 11.3297 22.4301 10.5897 24.0601C9.85967 25.6701 10.1297 27.4501 11.3297 28.8301L17.2897 35.5901C18.2097 36.6301 19.5397 37.2301 20.9397 37.2301C21.6197 37.2301 22.2897 37.0901 22.9197 36.8101L29.4797 33.8801C31.3497 32.9601 31.2297 30.7101 31.2297 30.7101L32.3697 28.6301L30.6297 22.6501L30.6097 22.6701Z" fill="#221F1F"/>
<path d="M32.2597 26.1899C31.2997 24.4599 29.1197 23.8399 27.3997 24.7999L21.3597 28.1599L16.3097 23.9399C13.9597 21.9999 10.8097 25.1999 12.8197 27.5199L18.7797 34.2799C19.5797 35.1899 20.9197 35.5199 22.0897 34.9999L22.4297 34.8499L30.5997 31.1999C32.4997 30.3599 33.2897 28.0199 32.2697 26.1999L32.2597 26.1899Z" fill="#B7EDB7"/>
<path d="M32.3205 18.18C29.2405 18.07 26.1805 18.01 23.2205 18.01C20.7005 18.01 18.1805 18.05 15.7305 18.14L16.5005 20.01L16.6205 22.92L16.3005 23.8L21.8105 26.67C21.8105 26.67 22.2305 27.74 23.8205 28.34C26.8405 27.97 29.8705 27.55 32.9005 27.06C35.1605 26.65 36.7005 24.69 36.5705 22.4C36.4305 20.07 34.7005 18.35 32.3205 18.2V18.18Z" fill="#221F1F"/>
<path d="M32.5504 25.07C27.1104 25.94 21.6504 26.63 16.1704 27.12C11.5504 27.35 11.5704 20.53 16.1704 20.01C21.7204 19.82 26.6904 19.97 32.2504 20.18C35.1804 20.36 35.4204 24.55 32.5504 25.07Z" fill="#B9B9FF"/>
<path d="M21.3604 28.1601C21.3604 28.1601 22.0004 28.6801 23.8304 28.3101C25.6604 27.9401 22.6604 26.8601 22.6604 26.8601L21.1504 27.2101L21.3604 28.1601Z" fill="#221F1F"/>
<path d="M17.8299 26.8101L22.0199 27.2801L22.8599 27.1201C22.8599 26.9401 22.8099 26.7901 22.5599 26.5801L17.5799 22.4001C16.7399 21.7101 15.7599 21.3401 14.7299 21.3401C12.9899 21.3401 11.3199 22.4401 10.5799 24.0701C9.8499 25.6801 10.1199 27.4601 11.3199 28.8401L14.2999 32.2201L14.6599 28.6201L17.8399 26.8101H17.8299Z" fill="#221F1F"/>
<path d="M20.7797 27.6799L16.3097 23.9399C13.9597 21.9999 10.8097 25.1999 12.8197 27.5199L15.7997 30.8999L20.7897 27.6799H20.7797Z" fill="#B7EDB7"/>
<path d="M22.4096 32.5499C21.7296 32.5499 21.0696 32.2699 20.6096 31.7799L13.2096 23.8999C12.1796 24.6999 11.7096 26.2499 12.8196 27.5299L18.7796 34.2899C19.5796 35.1999 20.9196 35.5299 22.0896 35.0099L22.4296 34.8599L27.6396 32.5299L22.4096 32.5599V32.5499Z" fill="#9CDB9C"/>
<path d="M8 24.3799C6.75 26.1099 6 28.2199 6 30.4999V34.6399C6 35.3899 6.61 35.9999 7.36 35.9999H15.65C8.34 32.0099 7.86 26.5599 7.99 24.3799H8Z" fill="#9891F5"/>
</svg>
