<svg width="42" height="42" viewBox="0 0 42 42" fill="none" xmlns="http://www.w3.org/2000/svg">
<path d="M33.9001 4.6001C32.9001 4.2001 31.8001 4.0001 30.7001 4.0001C29.2001 4.0001 27.7001 4.4001 26.3001 5.2001C24.6001 3.2001 22.2001 2.1001 19.6001 2.1001H19.4001C15.4001 2.2001 11.7001 5.0001 10.3001 9.0001C9.90008 10.0001 9.60008 11.6001 9.70008 13.5001C9.20008 13.6001 8.60008 13.7001 8.10008 14.0001C4.30008 15.5001 1.90008 19.3001 2.00008 23.6001C2.10008 26.8001 3.90008 34.8001 18.7001 39.8001L19.2001 40.0001C19.4001 40.1001 19.6001 40.1001 19.8001 40.1001C20.2001 40.1001 20.7001 39.9001 21.0001 39.7001L21.4001 39.4001C26.5001 35.3001 29.9001 31.1001 31.3001 26.8001C38.6001 22.3001 39.8001 17.0001 39.8001 14.3001C40.1001 9.9001 37.6001 6.0001 33.9001 4.6001Z" fill="white"/>
<path fill-rule="evenodd" clip-rule="evenodd" d="M22.2998 27.6C1.0998 10.7 20.8998 -2.20004 25.4998 9.59996C33.8998 -4.19617e-05 47.9998 18.9 22.2998 27.6Z" fill="#F0AA97"/>
<path d="M22.0998 28.7L21.6998 28.4C10.3998 19.4 11.2998 12.3 12.1998 9.6C13.2998 6.3 16.1998 4.1 19.3998 4C19.4998 4 19.4998 4 19.5998 4C22.1998 4 24.3998 5.4 25.7998 7.9C27.9998 6 30.6998 5.5 33.0998 6.4C36.0998 7.6 37.9998 10.7 37.9998 14.1C37.8998 16.9 36.2998 23.9 22.6998 28.5L22.0998 28.7ZM19.5998 6H19.4998C17.0998 6.1 14.9998 7.7 14.0998 10.2C13.2998 12.4 12.6998 18.4 22.4998 26.4C34.4998 22.2 35.8998 16.4 35.9998 14C36.0998 11.4 34.5998 9.1 32.3998 8.2C30.2998 7.4 28.0998 8.1 26.1998 10.2L25.0998 11.4L24.5998 10C23.5998 7.4 21.7998 6 19.5998 6Z" fill="#221F1F"/>
<path fill-rule="evenodd" clip-rule="evenodd" d="M19.6999 36.9C-6.00014 28.2 8.09986 9.30001 16.4999 18.9C21.0999 7.10001 40.8999 20 19.6999 36.9Z" fill="#D88C7D"/>
<path d="M19.8997 38L19.3997 37.8C5.69968 33.2 4.09968 26.2 3.99968 23.4C3.89968 20 5.89968 16.9 8.89968 15.7C11.3997 14.7 13.9997 15.3 16.1997 17.2C17.5997 14.7 19.7997 13.3 22.3997 13.3C22.4997 13.3 22.4997 13.3 22.5997 13.3C25.7997 13.4 28.6997 15.6 29.7997 18.9C30.6997 21.6 31.5997 28.7001 20.2997 37.7001L19.8997 38ZM11.2997 17.3C10.6997 17.3 10.0997 17.4 9.59968 17.6C7.39968 18.5 5.89968 20.8 5.99968 23.4C6.09968 25.7 7.49968 31.6 19.4997 35.8C29.2997 27.8 28.6997 21.8 27.8997 19.6C27.0997 17.1 24.8997 15.4 22.4997 15.4C20.2997 15.3 18.3997 16.8 17.3997 19.4L16.7997 20.9L15.6997 19.7C14.3997 18.1 12.8997 17.3 11.2997 17.3Z" fill="#221F1F"/>
<path fill-rule="evenodd" clip-rule="evenodd" d="M22.5 15.3C20.3 15.3 18.4 16.7 17.4 19.3L16.8 20.8L15.7 19.6C14.4 18.1 12.8 17.3 11.3 17.3C10.7 17.3 10.1 17.4 9.6 17.6C8.2 18.2 7.1 19.4 6.5 20.8C9.6 26.4 15.4 30.8001 22.7 32.9001C29.2 26.3001 28.6 21.5 28 19.5C27.1 17.1 24.9 15.4 22.5 15.3Z" fill="#F0AA97"/>
</svg>
