<svg width="624" height="624" viewBox="0 0 624 624" fill="none" xmlns="http://www.w3.org/2000/svg">
<path d="M312.117 606C445.835 606 554.234 497.6 554.234 363.883C312.117 363.883 312.117 156.354 70 156.354V363.883C70 497.6 178.399 606 312.117 606Z" fill="#E31665"/>
<path d="M127.602 520.669C172.012 572.875 238.188 605.993 312.099 605.993C338.621 605.993 364.146 601.728 388.028 593.848C364.147 601.729 338.622 605.996 312.1 605.996C269.484 605.996 229.439 594.986 194.656 575.655C194.647 575.65 194.638 575.645 194.628 575.64C192.687 574.561 190.763 573.456 188.855 572.325C188.806 572.296 188.757 572.267 188.708 572.238C184.901 569.979 181.162 567.618 177.493 565.159C177.428 565.116 177.362 565.072 177.297 565.028C174.898 563.417 172.529 561.763 170.191 560.069C170.116 560.015 170.04 559.961 169.964 559.906C166.998 557.752 164.083 555.531 161.22 553.247C161.155 553.195 161.089 553.142 161.024 553.09C159.922 552.209 158.828 551.32 157.742 550.42C157.687 550.375 157.633 550.329 157.579 550.284C156.488 549.379 155.406 548.465 154.332 547.541C154.284 547.5 154.237 547.46 154.19 547.419C151.982 545.518 149.809 543.577 147.671 541.599C147.059 541.032 146.45 540.462 145.844 539.89C143.76 537.92 141.71 535.914 139.697 533.872C138.606 532.766 137.526 531.65 136.457 530.523C136.436 530.502 136.416 530.48 136.396 530.459C135.327 529.332 134.27 528.195 133.223 527.048C132.313 526.051 131.411 525.046 130.517 524.034C129.535 522.922 128.564 521.8 127.602 520.669ZM393.843 591.846V591.847V591.846ZM112.584 501.082C117.207 507.791 122.159 514.255 127.417 520.451C127.393 520.422 127.368 520.393 127.343 520.364C126.456 519.317 125.577 518.263 124.707 517.201C122.76 514.824 120.857 512.41 119 509.959C117.743 508.3 116.507 506.624 115.292 504.933C115.167 504.757 115.041 504.582 114.916 504.406C114.163 503.352 113.418 502.291 112.682 501.224C112.65 501.176 112.617 501.129 112.584 501.082ZM109.992 497.241C110.804 498.47 111.627 499.691 112.461 500.903C112.432 500.86 112.401 500.817 112.372 500.773C111.648 499.72 110.932 498.66 110.225 497.594C110.147 497.476 110.069 497.359 109.992 497.241ZM107.572 493.507C108.364 494.753 109.166 495.993 109.98 497.224C109.166 495.993 108.364 494.754 107.572 493.507ZM106.445 491.716C106.803 492.291 107.164 492.864 107.527 493.436C107.164 492.864 106.803 492.291 106.445 491.716ZM105.106 489.541C104.784 489.011 104.463 488.481 104.145 487.948C104.132 487.926 104.119 487.904 104.106 487.882C104.437 488.436 104.77 488.989 105.106 489.541ZM102.892 485.829C103.228 486.404 103.566 486.976 103.907 487.548C103.885 487.511 103.863 487.475 103.841 487.438L102.892 485.829ZM97.5103 476.108C97.537 476.159 97.5635 476.211 97.5903 476.262C97.5635 476.211 97.537 476.159 97.5103 476.108ZM96.1333 473.435C95.9363 473.047 95.7394 472.659 95.5444 472.271C95.5304 472.243 95.5165 472.215 95.5024 472.187C95.7113 472.603 95.9221 473.019 96.1333 473.435ZM551.766 398.46C551.09 403.185 550.276 407.867 549.332 412.5C550.315 407.678 551.153 402.803 551.845 397.881C551.818 398.074 551.794 398.267 551.766 398.46ZM554.218 329.291H554.216C446.368 329.291 394.099 284.844 334.609 233.853L334.042 233.366C323.507 224.337 312.756 215.122 301.498 206.051C365.775 114.849 426.1 18.0001 554.218 18V329.291Z" fill="#E31665"/>
<path opacity="0.6" d="M123.006 184.166C123.006 176.024 123.319 167.881 123.789 159.739C107.348 157.077 89.4974 155.511 70.0813 155.198V362.826C70.0813 496.86 179.219 605.997 313.409 605.997C358.192 605.997 400.156 593.784 436.169 572.645C257.196 533.969 123.006 374.726 123.006 184.166Z" fill="#B81457"/>
</svg>
