<svg width="42" height="42" viewBox="0 0 42 42" fill="none" xmlns="http://www.w3.org/2000/svg">
<path d="M25.0791 40C23.6091 40 22.2491 39.77 20.9991 39.3C19.7591 39.76 18.3891 40 16.9191 40C11.9691 40 7.30914 34.24 5.24914 28.55C2.83914 21.86 3.95914 15.75 8.23914 12.19C10.3891 10.41 12.8091 9.5 15.4291 9.5C17.2491 9.5 19.1191 9.95 20.9891 10.84C22.8591 9.95 24.7291 9.5 26.5491 9.5C29.1691 9.5 31.5891 10.41 33.7391 12.19C38.0291 15.75 39.1391 21.86 36.7291 28.55C34.6791 34.24 30.0091 40 25.0591 40H25.0791Z" fill="white"/>
<path d="M19.3395 16.2402C16.9395 16.2402 14.5495 15.2302 12.7795 13.4602C10.5795 11.2602 9.58949 8.22023 10.1395 5.33023C10.4495 3.70023 11.6995 2.45023 13.3295 2.14023C13.8395 2.04023 14.3695 1.99023 14.8995 1.99023C17.2995 1.99023 19.6895 3.00023 21.4595 4.77023C23.6595 6.97023 24.6495 10.0102 24.0995 12.8902C23.7895 14.5202 22.5395 15.7702 20.9095 16.0802C20.3995 16.1802 19.8695 16.2302 19.3395 16.2302V16.2402Z" fill="white"/>
<path d="M20.9996 20.0002C19.5196 20.0002 18.2396 18.8902 18.0296 17.4202C17.9796 17.0702 16.8496 8.67023 23.1296 3.65023C23.6596 3.23023 24.3196 2.99023 24.9996 2.99023C25.9196 2.99023 26.7696 3.40023 27.3396 4.12023C28.3696 5.41023 28.1596 7.30023 26.8696 8.34023C23.3296 11.1702 23.9596 16.5402 23.9696 16.6002C24.1996 18.2202 23.0496 19.7402 21.4196 19.9702C21.2796 19.9902 21.1396 20.0002 20.9996 20.0002Z" fill="white"/>
<path d="M21.0003 18.0003C20.5103 18.0003 20.0803 17.6403 20.0103 17.1403C19.9703 16.8303 18.9903 9.52026 24.3803 5.22026C24.8103 4.88026 25.4403 4.94026 25.7903 5.38026C26.1403 5.81026 26.0703 6.44026 25.6303 6.79026C21.1503 10.3703 21.9903 16.8003 22.0003 16.8703C22.0803 17.4203 21.7003 17.9203 21.1503 18.0003C21.1003 18.0003 21.0603 18.0003 21.0103 18.0003H21.0003Z" fill="#221F1F"/>
<path d="M25.0792 38C23.5592 38 22.1892 37.71 20.9992 37.13C19.8092 37.71 18.4392 38 16.9192 38C12.9392 38 8.90918 32.78 7.13918 27.87C5.02918 22.01 5.91918 16.73 9.52918 13.73C11.3092 12.25 13.2992 11.5 15.4392 11.5C17.2392 11.5 19.1092 12.04 20.9992 13.09C22.8992 12.03 24.7592 11.5 26.5592 11.5C28.6992 11.5 30.6892 12.25 32.4692 13.73C36.0792 16.73 36.9692 22.01 34.8592 27.87C33.0892 32.78 29.0592 38 25.0792 38Z" fill="#221F1F"/>
<path d="M19.3397 14.24C17.4697 14.24 15.5997 13.44 14.1997 12.04C12.4697 10.31 11.6897 7.94 12.1097 5.7C12.2597 4.89 12.8997 4.26 13.6997 4.11C14.0897 4.04 14.4897 4 14.8997 4C16.7697 4 18.6497 4.8 20.0397 6.2C21.7697 7.93 22.5497 10.3 22.1297 12.54C21.9797 13.35 21.3397 13.98 20.5397 14.13C20.1497 14.2 19.7497 14.24 19.3397 14.24Z" fill="#221F1F"/>
<path d="M14.0799 6.08023C13.7899 7.59023 14.3099 9.33023 15.6199 10.6302C16.9299 11.9402 18.6599 12.4502 20.1699 12.1702C20.4599 10.6602 19.9399 8.92023 18.6299 7.62023C17.3199 6.31023 15.5899 5.80023 14.0799 6.08023Z" fill="#9CDB9C"/>
<path d="M31.2001 15.271C27.6801 12.351 23.9201 13.511 21.0001 15.431C18.0801 13.501 14.3201 12.351 10.8001 15.271C3.66014 21.191 11.8201 36.001 16.9201 36.001C18.7701 36.001 20.0801 35.481 21.0001 34.821C21.9201 35.481 23.2301 36.001 25.0801 36.001C30.1801 36.001 38.3401 21.191 31.2001 15.271Z" fill="#D63838"/>
<path d="M11 15.1197C13.6 25.3897 20.98 32.8297 29.72 32.9897C33.57 28.3397 36.32 19.5197 31.2 15.2697C27.68 12.3497 23.92 13.5097 21 15.4297C18.14 13.5397 14.46 12.3997 11 15.1197Z" fill="#EF615E"/>
</svg>
