<svg width="42" height="42" viewBox="0 0 42 42" fill="none" xmlns="http://www.w3.org/2000/svg">
<path d="M20.9998 37.0002C21.2798 37.0002 21.5598 36.9702 21.8298 36.9102L30.8298 34.9802C32.1398 34.7002 33.2198 33.7902 33.7098 32.5402C34.0598 31.6602 34.0798 30.6902 33.7898 29.8202L37.7298 27.9202C39.0298 27.2902 39.8998 26.0002 39.9798 24.5602C40.0498 23.3902 39.5998 22.2602 38.7798 21.4502L39.1398 20.9802C40.0698 19.7802 40.2398 18.1302 39.5798 16.7702C38.9098 15.4102 37.4998 14.5302 35.9898 14.5302H34.9898C34.9398 12.9802 33.9898 11.6002 32.5598 10.9902C32.3398 10.9002 32.1198 10.8202 31.8898 10.7702L31.9098 10.6602C32.2198 9.16023 31.6598 7.64023 30.4498 6.70023C29.7498 6.15023 28.8798 5.85023 27.9898 5.85023C27.3898 5.85023 26.7898 5.99023 26.2598 6.25023L25.7598 6.49023L24.5498 4.15023C23.8598 2.82023 22.4998 1.99023 20.9998 1.99023C19.4998 1.99023 18.1398 2.82023 17.4498 4.15023L16.2398 6.49023L15.7398 6.25023C15.1998 5.99023 14.5998 5.85023 13.9998 5.85023C13.1098 5.85023 12.2398 6.15023 11.5398 6.70023C10.3298 7.64023 9.76981 9.16023 10.0898 10.6602L10.1098 10.7702C9.87981 10.8202 9.65981 10.8902 9.43981 10.9902C8.00981 11.6002 7.05981 12.9802 7.00981 14.5302H6.00981C4.48981 14.5302 3.07981 15.4102 2.41981 16.7702C1.74981 18.1402 1.91981 19.7902 2.85981 20.9802L3.21981 21.4502C2.39981 22.2502 1.94981 23.3902 2.01981 24.5602C2.10981 26.0002 2.96981 27.2902 4.26981 27.9202L8.20981 29.8202C7.91981 30.7002 7.93981 31.6602 8.28981 32.5402C8.77981 33.7902 9.85981 34.7002 11.1698 34.9802L20.1698 36.9102C20.4498 36.9702 20.7298 37.0002 21.0098 37.0002H20.9998Z" fill="white"/>
<path d="M21 40C22.65 40 24 38.65 24 37V32C24 30.35 22.65 29 21 29C19.35 29 18 30.35 18 32V37C18 38.65 19.35 40 21 40Z" fill="white"/>
<path d="M21.0002 35C21.1402 35 21.2802 34.99 21.4202 34.96L30.4202 33.03C31.0702 32.89 31.6102 32.43 31.8602 31.81C32.1102 31.19 32.0302 30.48 31.6502 29.93L30.9802 28.96L36.8702 26.12C37.5202 25.81 37.9502 25.16 38.0002 24.44C38.0402 23.72 37.6902 23.03 37.0902 22.64L35.9302 21.89L37.5902 19.76C38.0602 19.16 38.1402 18.34 37.8102 17.65C37.4702 16.96 36.7802 16.53 36.0102 16.53H33.0102V14.67C33.0102 13.87 32.5302 13.14 31.7902 12.83C31.5402 12.72 31.2702 12.67 31.0102 12.67C30.5002 12.67 30.0002 12.86 29.6202 13.23L29.2802 13.56L29.9702 10.26C30.1202 9.51 29.8402 8.75 29.2402 8.28C28.8802 8 28.4502 7.86 28.0102 7.86C27.7102 7.86 27.4202 7.93 27.1402 8.06L24.8902 9.14L22.7802 5.08C22.4402 4.42 21.7502 4 21.0002 4C20.2502 4 19.5702 4.42 19.2202 5.08L17.1102 9.14L14.8602 8.06C14.5802 7.93 14.2902 7.86 13.9902 7.86C13.5502 7.86 13.1202 8 12.7602 8.28C12.1602 8.75 11.8802 9.52 12.0302 10.26L12.7202 13.56L12.3802 13.23C12.0002 12.86 11.5002 12.67 10.9902 12.67C10.7302 12.67 10.4602 12.72 10.2102 12.83C9.47018 13.14 8.99018 13.87 8.99018 14.67V16.53H5.99018C5.23018 16.53 4.53018 16.97 4.19018 17.65C3.85018 18.34 3.94018 19.15 4.41018 19.76L6.07018 21.89L4.91018 22.64C4.30018 23.03 3.95018 23.72 4.00018 24.44C4.04018 25.16 4.48018 25.81 5.13018 26.12L11.0202 28.96L10.3502 29.93C9.97018 30.48 9.89018 31.18 10.1402 31.81C10.3902 32.43 10.9302 32.89 11.5802 33.03L20.5802 34.96C20.7202 34.99 20.8602 35 21.0002 35Z" fill="#221F1F"/>
<path d="M20 37C20 37.5523 20.4477 38 21 38C21.5523 38 22 37.5523 22 37V32C22 31.4477 21.5523 31 21 31C20.4477 31 20 31.4477 20 32V37Z" fill="#221F1F"/>
<path d="M9 22.39L6 18.54H11V14.68L16 19.5L14 9.86L18 11.79L21 6L24 11.79L28 9.86L26 19.5L31 14.68V18.54H36L33 22.39L36 24.32L28 28.18L30 31.07L21 33L12 31.07L14 28.18L6 24.32L9 22.39Z" fill="#FAC15E"/>
<path d="M12 31.07L14 28.18L6 24.32L9 22.39L6 18.54H11V14.68L16 19.5L14 9.86L18 11.79L21 6V33L12 31.07Z" fill="#FF8C24"/>
<path d="M20 34C20 34.5523 20.4477 35 21 35C21.5523 35 22 34.5523 22 34V15C22 14.4477 21.5523 14 21 14C20.4477 14 20 14.4477 20 15V34Z" fill="#221F1F"/>
<path d="M21.0002 23.9597L15.8602 21.5097C15.3602 21.2697 14.7602 21.4897 14.5302 21.9797C14.2902 22.4797 14.5102 23.0797 15.0002 23.3097L21.0002 26.1797V23.9597Z" fill="#221F1F"/>
<path d="M21 26.9597L26.14 24.5097C26.64 24.2697 27.24 24.4897 27.47 24.9797C27.71 25.4797 27.49 26.0797 27 26.3097L21 29.1797V26.9597Z" fill="#221F1F"/>
</svg>
