<svg width="42" height="42" viewBox="0 0 42 42" fill="none" xmlns="http://www.w3.org/2000/svg">
<path d="M39.9792 32.4402L39.8192 30.9602C39.6092 29.0102 38.1892 27.4002 36.2792 26.9502C26.9692 24.7602 18.9692 19.0102 14.2892 11.3202C14.5192 10.6702 14.8492 10.0502 15.1892 9.53023C15.9592 8.35023 16.1292 6.85023 15.6392 5.52023C15.1492 4.19023 14.0392 3.16023 12.6792 2.76023L10.6492 2.17023C10.2392 2.05023 9.81921 1.99023 9.39921 1.99023C7.83921 1.99023 6.36922 2.82023 5.55922 4.15023C4.23922 6.33023 3.42922 8.57023 3.12922 10.7902C1.93921 14.3502 1.68921 18.1402 2.42922 21.8602C4.49921 32.2102 14.0892 39.8402 25.2292 40.0002H25.5992C29.7892 40.0002 33.9292 38.9602 37.5692 37.0002C39.2192 36.1102 40.1692 34.3202 39.9692 32.4402H39.9792Z" fill="white"/>
<path d="M25.6005 38.0005C29.4605 38.0005 33.2705 37.0405 36.6205 35.2405C37.5605 34.7405 38.1005 33.7205 37.9805 32.6505L37.8205 31.1705C37.7005 30.0605 36.9005 29.1505 35.8105 28.8905C24.8005 26.3005 15.5005 18.9905 10.9305 9.34047C10.4605 8.34047 9.4805 7.73047 8.3705 7.73047C7.2605 7.73047 6.2605 8.38047 5.8005 9.37047C4.0505 13.1805 3.5505 17.3705 4.3705 21.4705C6.2505 30.9005 15.0305 37.8505 25.2405 38.0005H25.5905H25.6005Z" fill="#221F1F"/>
<path d="M8.03063 19.1302C8.34063 19.1302 8.64063 19.0602 8.92063 18.9202L11.6106 17.5802C12.6006 17.0902 13.0006 15.8902 12.5106 14.9002C11.3606 12.5802 12.4206 10.1002 13.5106 8.43023C13.9406 7.77023 14.0306 6.94023 13.7606 6.21023C13.4906 5.47023 12.8706 4.90023 12.1206 4.68023L10.0906 4.09023C9.86063 4.03023 9.63063 3.99023 9.39063 3.99023C8.53063 3.99023 7.71063 4.45023 7.27063 5.18023C4.65063 9.51023 4.28063 14.0602 6.24063 18.0002C6.48063 18.4802 6.89063 18.8402 7.39063 19.0102C7.60063 19.0802 7.81063 19.1102 8.03063 19.1102V19.1302Z" fill="#221F1F"/>
<path d="M9.13028 10.2006C14.0103 20.4906 23.7203 28.0906 35.3603 30.8406C35.6203 30.9006 35.8103 31.1106 35.8403 31.3806L36.0003 32.8606C36.0303 33.1106 35.9003 33.3606 35.6803 33.4806C32.6503 35.1106 29.1203 36.0506 25.2903 36.0006C16.0403 35.8706 8.05028 29.5706 6.35028 21.0806C5.58028 17.2506 6.12028 13.5106 7.64028 10.2106C7.93028 9.58063 8.84028 9.57063 9.14028 10.2106L9.13028 10.2006Z" fill="#F7DF69"/>
<path d="M7.09031 11.5293C7.05031 12.0393 7.01031 12.5593 7.01031 13.0893C7.01031 22.9993 17.6503 32.2193 27.3003 32.2193C29.7803 32.2193 32.6803 31.7993 35.7003 31.0293C35.7803 31.1193 35.8403 31.2393 35.8503 31.3693L36.0103 32.8493C36.0403 33.0993 35.9103 33.3493 35.6903 33.4693C32.6603 35.0993 29.1303 36.0393 25.3003 35.9893C16.0503 35.8593 8.06031 29.5593 6.36031 21.0693C5.70031 17.7393 6.01031 14.4793 7.10031 11.5293H7.09031Z" fill="#F4AB69"/>
<path d="M11.5598 6.60959L9.52977 6.01959C9.31977 5.95959 9.08977 6.03959 8.96977 6.22959C8.08977 7.68959 7.18977 9.67959 7.00977 11.9296C7.78977 11.8796 8.87977 11.8496 10.0498 11.9496C10.2498 10.1096 11.0898 8.46959 11.8298 7.33959C12.0098 7.05959 11.8698 6.69959 11.5498 6.60959H11.5598Z" fill="#F4AB69"/>
</svg>
