<svg width="42" height="42" viewBox="0 0 42 42" fill="none" xmlns="http://www.w3.org/2000/svg">
<path d="M24.42 32.2201C22.37 32.2201 20.19 31.7801 17.92 30.9301L5.69 29.9901C3.62 29.8301 2 28.0801 2 26.0001V19.0001C2 17.7701 2.55 16.6301 3.51 15.8701C4.22 15.3101 5.1 15.0001 6 15.0001C6.3 15.0001 6.6 15.0301 6.9 15.1001L12.39 16.3701C15 11.7101 19.96 5.31006 27.5 5.31006C28 5.31006 28.5 5.34006 29 5.40006C31.3 5.67006 33.36 6.83006 34.88 8.70006L36.56 8.94006C38.08 9.15006 39.36 10.2401 39.82 11.7101C40.28 13.1801 39.84 14.8001 38.71 15.8401L37.67 16.8001C37.84 20.8501 36.55 24.8901 34.15 27.7601C31.7 30.6901 28.34 32.2301 24.41 32.2301L24.42 32.2201Z" fill="white"/>
<path d="M25 24H23C22.63 24 22.3 24.11 22 24.28C21.7 24.11 21.37 24 21 24H19C17.9 24 17 24.9 17 26V36C17 37.1 17.9 38 19 38H25C26.1 38 27 37.1 27 36V26C27 24.9 26.1 24 25 24Z" fill="white"/>
<path d="M24.42 30.2201C22.54 30.2201 20.5 29.7901 18.37 28.9501L5.85 27.9901C4.81 27.9101 4 27.0401 4 26.0001V19.0001C4 18.3901 4.28 17.8101 4.75 17.4301C5.11 17.1501 5.55 17.0001 6 17.0001C6.15 17.0001 6.3 17.0201 6.45 17.0501L13.43 18.6601C15.41 14.7301 20.14 7.31006 27.49 7.31006C27.91 7.31006 28.34 7.34006 28.76 7.39006C30.79 7.63006 32.54 8.75006 33.78 10.5701L36.28 10.9201C37.05 11.0301 37.68 11.5701 37.91 12.3001C38.14 13.0401 37.92 13.8401 37.36 14.3701L35.62 15.9801C36.01 19.8201 34.91 23.7501 32.63 26.4801C30.58 28.9401 27.74 30.2401 24.43 30.2401L24.42 30.2201Z" fill="#221F1F"/>
<path d="M21 26H19V36H21V26Z" fill="#221F1F"/>
<path d="M25 26H23V36H25V26Z" fill="#221F1F"/>
<path d="M36 12.89L31.68 12.28L31 13.2L31.71 15.62L32.74 15.89L36 12.89Z" fill="#9891F5"/>
<path d="M14.3301 21.49C14.3301 21.49 19.4801 8.29998 28.5301 9.36998C37.5801 10.44 35.2601 35.14 17.3801 26.34L14.3301 21.49Z" fill="#9891F5"/>
<path d="M19 27L6 26V19L19 22V27Z" fill="#9891F5"/>
<path d="M36 12.89L32.56 12.41C31.69 10.76 30.35 9.58997 28.53 9.36997C20.56 8.42997 15.62 18.54 14.55 20.97L6 19V26L18.83 26.99C30.25 31.68 34.71 22 33.49 15.21L36 12.89Z" fill="#B9B9FF"/>
<path d="M27.5 16C28.3284 16 29 15.3284 29 14.5C29 13.6716 28.3284 13 27.5 13C26.6716 13 26 13.6716 26 14.5C26 15.3284 26.6716 16 27.5 16Z" fill="#221F1F"/>
<path d="M18.8295 26.99C23.7895 29.03 27.4295 28.35 29.8695 26.38C20.7395 23.98 18.5895 18.62 18.3695 14.6C16.3395 17.13 15.0395 19.86 14.5495 20.97L13.2695 20.67C13.0395 22.75 12.4495 24.73 11.7695 26.44L18.8295 26.98V26.99Z" fill="#9891F5"/>
</svg>
