<svg width="42" height="42" viewBox="0 0 42 42" fill="none" xmlns="http://www.w3.org/2000/svg">
<path d="M38.8498 9.62852V9.27152C40.0678 8.84102 40.9498 7.66502 40.9498 6.30002C40.9498 4.56752 39.5323 3.15002 37.7998 3.15002H4.1998C2.4673 3.15002 1.0498 4.56752 1.0498 6.30002C1.0498 7.66502 1.9318 8.84102 3.1498 9.27152V9.62852C1.9318 10.059 1.0498 11.235 1.0498 12.6V36.75C1.0498 38.4825 2.4673 39.9 4.1998 39.9H7.89581C9.59681 39.9 11.0038 38.514 11.0458 36.8235C11.2138 29.3265 15.7708 22.9845 20.9998 22.9845C26.2288 22.9845 30.7858 29.316 30.9538 36.8235C30.9958 38.5245 32.4028 39.9 34.1038 39.9H37.7998C39.5323 39.9 40.9498 38.4825 40.9498 36.75V12.6C40.9498 11.235 40.0678 10.059 38.8498 9.62852Z" fill="white"/>
<path fill-rule="evenodd" clip-rule="evenodd" d="M4.2002 12.6V36.75H7.8962C8.1062 27.363 13.8812 19.8345 21.0002 19.8345C28.1192 19.8345 33.8942 27.363 34.1042 36.75H37.8002V12.6H4.2002Z" fill="#BF9E6F"/>
<path fill-rule="evenodd" clip-rule="evenodd" d="M4.2002 13.566V36.75H7.8962C8.0747 28.665 12.3902 21.9765 18.1337 20.265C14.4377 16.464 9.57619 13.986 4.2002 13.566Z" fill="#AA8557"/>
<path d="M37.8004 7.35H4.20039C3.62289 7.35 3.15039 6.8775 3.15039 6.3C3.15039 5.7225 3.62289 5.25 4.20039 5.25H37.8004C38.3779 5.25 38.8504 5.7225 38.8504 6.3C38.8504 6.8775 38.3779 7.35 37.8004 7.35Z" fill="#221F1F"/>
<path d="M21.0002 13.65C20.4227 13.65 19.9502 13.1775 19.9502 12.6V6.3105C19.9502 5.733 20.4227 5.2605 21.0002 5.2605C21.5777 5.2605 22.0502 5.733 22.0502 6.3105V12.6C22.0502 13.1775 21.5777 13.65 21.0002 13.65Z" fill="#221F1F"/>
<path d="M13.6496 13.65C13.0721 13.65 12.5996 13.1775 12.5996 12.6V6.3105C12.5996 5.733 13.0721 5.2605 13.6496 5.2605C14.2271 5.2605 14.6996 5.733 14.6996 6.3105V12.6C14.6996 13.1775 14.2271 13.65 13.6496 13.65Z" fill="#221F1F"/>
<path d="M6.3 13.65C5.7225 13.65 5.25 13.1775 5.25 12.6V6.3105C5.25 5.733 5.7225 5.2605 6.3 5.2605C6.8775 5.2605 7.35 5.733 7.35 6.3105V12.6C7.35 13.1775 6.8775 13.65 6.3 13.65Z" fill="#221F1F"/>
<path d="M28.3498 13.65C27.7723 13.65 27.2998 13.1775 27.2998 12.6V6.3105C27.2998 5.733 27.7723 5.2605 28.3498 5.2605C28.9273 5.2605 29.3998 5.733 29.3998 6.3105V12.6C29.3998 13.1775 28.9273 13.65 28.3498 13.65Z" fill="#221F1F"/>
<path d="M35.7004 13.65C35.1229 13.65 34.6504 13.1775 34.6504 12.6V6.3105C34.6504 5.733 35.1229 5.2605 35.7004 5.2605C36.2779 5.2605 36.7504 5.733 36.7504 6.3105V12.6C36.7504 13.1775 36.2779 13.65 35.7004 13.65Z" fill="#221F1F"/>
<path d="M37.8004 37.8H34.1044C33.5374 37.8 33.0649 37.3485 33.0544 36.771C32.8549 28.014 27.4474 20.8845 21.0004 20.8845C14.5534 20.8845 9.14589 28.014 8.94639 36.771C8.93589 37.338 8.46339 37.8 7.89639 37.8H4.20039C3.62289 37.8 3.15039 37.3275 3.15039 36.75V12.6C3.15039 12.0225 3.62289 11.55 4.20039 11.55H37.8004C38.3779 11.55 38.8504 12.0225 38.8504 12.6V36.75C38.8504 37.3275 38.3779 37.8 37.8004 37.8ZM35.1124 35.7H36.7504V13.65H5.25039V35.7H6.88839C7.49739 26.1345 13.5559 18.7845 21.0004 18.7845C28.4449 18.7845 34.5034 26.1345 35.1124 35.7Z" fill="#221F1F"/>
</svg>
