<svg width="42" height="42" viewBox="0 0 42 42" fill="none" xmlns="http://www.w3.org/2000/svg">
<path d="M38.8904 32.74C38.7304 32.74 38.5704 32.7 38.4204 32.62L31.2004 28.71C30.7104 28.45 30.5304 27.84 30.8004 27.35C31.0604 26.86 31.6704 26.69 32.1504 26.95L39.3704 30.86C39.8604 31.12 40.0404 31.73 39.7704 32.22C39.5904 32.55 39.2504 32.74 38.8904 32.74Z" fill="white"/>
<path d="M35.4301 37.05C35.2001 37.05 34.9601 36.97 34.7701 36.8L28.7501 31.55C28.3301 31.19 28.2901 30.56 28.6501 30.14C29.0101 29.72 29.6401 29.68 30.0601 30.04L36.0801 35.29C36.5001 35.65 36.5401 36.28 36.1801 36.7C35.9801 36.93 35.7001 37.04 35.4301 37.04V37.05Z" fill="white"/>
<path d="M3.11045 32.7399C2.75045 32.7399 2.41045 32.5499 2.23045 32.2199C1.97045 31.7299 2.15045 31.1299 2.63045 30.8599L9.85045 26.9499C10.3304 26.6899 10.9404 26.8699 11.2004 27.3499C11.4604 27.8399 11.2804 28.4399 10.8004 28.7099L3.58045 32.6199C3.43045 32.6999 3.27045 32.7399 3.11045 32.7399Z" fill="white"/>
<path d="M6.57005 37.05C6.29005 37.05 6.01005 36.93 5.82005 36.71C5.46005 36.29 5.50005 35.66 5.92005 35.3L11.94 30.05C12.36 29.69 12.99 29.73 13.35 30.15C13.71 30.57 13.67 31.2 13.25 31.56L7.23005 36.81C7.04005 36.98 6.81005 37.06 6.57005 37.06V37.05Z" fill="white"/>
<path d="M21 40C10.52 40 2 31.48 2 21C2 14.95 3.75 9.08998 7.05 4.03998C7.72 3.01998 8.8 2.36998 10.02 2.24998C10.15 2.23998 10.27 2.22998 10.4 2.22998C11.48 2.22998 12.53 2.66998 13.28 3.44998C14.72 4.93998 16.01 6.57998 17.13 8.31998C18.41 8.10998 19.71 7.99998 21 7.99998C22.29 7.99998 23.59 8.10998 24.87 8.31998C25.99 6.56998 27.28 4.93998 28.72 3.44998C29.47 2.67998 30.52 2.22998 31.6 2.22998C31.72 2.22998 31.85 2.22998 31.97 2.24998C33.19 2.36998 34.27 3.01998 34.94 4.03998C38.25 9.08998 39.99 14.95 39.99 21C39.99 31.48 31.47 40 20.99 40H21Z" fill="white"/>
<path d="M21 38C11.63 38 4 30.37 4 21C4 15.34 5.63 9.85999 8.73 5.13999C9.06 4.62999 9.61 4.29999 10.21 4.23999C10.27 4.23999 10.34 4.23999 10.4 4.23999C10.94 4.23999 11.46 4.45999 11.84 4.84999C13.51 6.57999 14.95 8.48999 16.15 10.57C17.74 10.2 19.37 10.01 21 10.01C22.63 10.01 24.26 10.2 25.85 10.57C27.04 8.49999 28.49 6.57999 30.16 4.84999C30.54 4.45999 31.06 4.23999 31.6 4.23999C31.66 4.23999 31.73 4.23999 31.79 4.23999C32.39 4.29999 32.94 4.62999 33.27 5.13999C36.36 9.85999 38 15.35 38 21C38 30.37 30.37 38 21 38Z" fill="#221F1F"/>
<path d="M10.4 6.22998C7.62 10.47 6 15.55 6 21H17.7C16.85 15.3 14.22 10.19 10.4 6.22998Z" fill="#F7DF69"/>
<path d="M8.08008 19C8.34008 15.73 9.24008 12.56 10.7301 9.65002C12.9001 12.42 14.4401 15.6 15.2801 19H8.08008Z" fill="#221F1F"/>
<path d="M31.5998 6.22998C34.3798 10.47 35.9998 15.55 35.9998 21H24.2998C25.1498 15.3 27.7798 10.19 31.5998 6.22998Z" fill="#F7DF69"/>
<path d="M26.7197 19C27.5597 15.59 29.0997 12.42 31.2697 9.65002C32.7597 12.56 33.6597 15.73 33.9197 19H26.7197Z" fill="#221F1F"/>
<path d="M6.17 18.86C9.75 14.67 15.06 12 21 12C26.94 12 32.25 14.67 35.83 18.86C35.93 19.56 36 20.27 36 21C36 29.28 29.28 36 21 36C12.72 36 6 29.28 6 21C6 20.27 6.07 19.56 6.17 18.86Z" fill="#F7DF69"/>
<path d="M7.31 12.72C6.47 15.33 6 18.11 6 21C6 29.28 12.72 36 21 36C23.4 36 25.66 35.42 27.68 34.42C16.48 32.29 7.96 23.47 7.31 12.72Z" fill="#F9A936"/>
<path d="M17.4402 25.81L16.8502 26.65L22.2902 28.13L20.9702 34.06L10.3502 29.15L8.16016 25.23L11.8402 21.45C11.8402 21.45 13.6802 21.38 13.7802 21.38C13.8802 21.38 15.1202 22.09 15.1202 22.09L16.5202 23.22L17.4402 25.81Z" fill="#F9A936"/>
<path d="M20.96 33.7601C20.41 33.7601 19.96 33.3101 19.96 32.7601V29.6201C19.96 29.0701 20.41 28.6201 20.96 28.6201C21.51 28.6201 21.96 29.0701 21.96 29.6201V32.7601C21.96 33.3101 21.51 33.7601 20.96 33.7601Z" fill="#221F1F"/>
<path d="M11.7903 20.5899C10.5903 20.8399 9.63027 21.6499 9.03027 22.7599C11.3803 24.7699 14.2503 26.1999 17.4403 26.8199C17.4903 26.2199 17.4703 25.6099 17.3303 24.9799C16.7103 22.0399 14.2203 20.0799 11.7803 20.5999L11.7903 20.5899Z" fill="#221F1F"/>
<path d="M30.21 20.5899C31.41 20.8399 32.37 21.6499 32.97 22.7599C30.62 24.7699 27.75 26.1999 24.56 26.8199C24.51 26.2199 24.53 25.6099 24.67 24.9799C25.29 22.0399 27.78 20.0799 30.22 20.5999L30.21 20.5899Z" fill="#221F1F"/>
<path d="M13.6201 27.16C13.0701 27.16 12.6201 26.71 12.6201 26.16V23.1C12.6201 22.55 13.0701 22.1 13.6201 22.1C14.1701 22.1 14.6201 22.55 14.6201 23.1V26.16C14.6201 26.71 14.1701 27.16 13.6201 27.16Z" fill="#F9A936"/>
<path d="M28.3799 28.34C27.8299 28.34 27.3799 27.89 27.3799 27.34V23.1C27.3799 22.55 27.8299 22.1 28.3799 22.1C28.9299 22.1 29.3799 22.55 29.3799 23.1V27.34C29.3799 27.89 28.9299 28.34 28.3799 28.34Z" fill="#F7DF69"/>
<path d="M11.04 29.3601C11.5923 29.3601 12.04 28.9124 12.04 28.3601C12.04 27.8078 11.5923 27.3601 11.04 27.3601C10.4877 27.3601 10.04 27.8078 10.04 28.3601C10.04 28.9124 10.4877 29.3601 11.04 29.3601Z" fill="#221F1F"/>
<path d="M13.4697 32.01C14.022 32.01 14.4697 31.5623 14.4697 31.01C14.4697 30.4577 14.022 30.01 13.4697 30.01C12.9174 30.01 12.4697 30.4577 12.4697 31.01C12.4697 31.5623 12.9174 32.01 13.4697 32.01Z" fill="#221F1F"/>
<path d="M30.96 29.3601C31.5122 29.3601 31.96 28.9124 31.96 28.3601C31.96 27.8078 31.5122 27.3601 30.96 27.3601C30.4077 27.3601 29.96 27.8078 29.96 28.3601C29.96 28.9124 30.4077 29.3601 30.96 29.3601Z" fill="#221F1F"/>
<path d="M28.5303 32.01C29.0826 32.01 29.5303 31.5623 29.5303 31.01C29.5303 30.4577 29.0826 30.01 28.5303 30.01C27.978 30.01 27.5303 30.4577 27.5303 31.01C27.5303 31.5623 27.978 32.01 28.5303 32.01Z" fill="#221F1F"/>
<path d="M17.4404 26.81L17.9604 28L20.8204 29.21L22.9204 28.27L21.4604 25L17.4404 26.81Z" fill="#F7DF69"/>
<path d="M20.9997 31.04C22.6797 31.04 24.0397 29.68 24.0397 28H17.9697C17.9697 29.68 19.3297 31.04 21.0097 31.04H20.9997Z" fill="#221F1F"/>
</svg>
