<svg width="42" height="42" viewBox="0 0 42 42" fill="none" xmlns="http://www.w3.org/2000/svg">
<path d="M11.5498 37.7999C5.7643 37.7999 1.0498 33.0854 1.0498 27.2999C1.0498 24.3075 2.3203 21.4935 4.5043 19.5195C4.3048 18.627 4.1998 17.7135 4.1998 16.8C4.1998 9.84895 9.84881 4.19995 16.7998 4.19995C20.8633 4.19995 24.6643 6.18445 27.0163 9.44995C34.7233 9.58645 40.9498 15.8865 40.9498 23.625C40.9498 25.8195 40.4458 27.9615 39.4693 29.9144C40.3093 31.2689 40.8133 32.802 40.9393 34.4085C41.0023 35.28 40.6978 36.1515 40.1098 36.792C39.5218 37.4324 38.6713 37.7999 37.7998 37.7999H11.5498Z" fill="white"/>
<path fill-rule="evenodd" clip-rule="evenodd" d="M37.8002 23.625C37.8002 17.535 32.8652 12.6 26.7752 12.6C26.2817 12.6 25.7882 12.642 25.3052 12.705C23.7827 9.53398 20.5487 7.34998 16.8002 7.34998C11.5817 7.34998 7.3502 11.5815 7.3502 16.8C7.3502 18.2175 7.66519 19.551 8.22169 20.748C5.8382 21.966 4.2002 24.4335 4.2002 27.3C4.2002 31.3635 7.4867 34.65 11.5502 34.65H37.8002C37.6637 32.886 36.8552 31.3005 35.6372 30.1665C36.9917 28.3395 37.8002 26.0715 37.8002 23.625Z" fill="#C4C4C4"/>
<path fill-rule="evenodd" clip-rule="evenodd" d="M11.5496 21C12.9251 21 14.2271 21.441 15.3401 22.2705L16.6736 23.2785L16.9991 21.6405C17.3876 19.698 18.3431 17.9865 19.6556 16.653C17.7656 13.083 14.0486 10.626 9.75411 10.521C8.26311 12.1905 7.34961 14.385 7.34961 16.8105C7.34961 18.5955 7.85361 20.265 8.71461 21.693C9.56511 21.2625 10.5311 21.0105 11.5496 21.0105V21Z" fill="#9E9E9E"/>
<path d="M37.8004 35.7001H11.5504C6.91989 35.7001 3.15039 31.9305 3.15039 27.3001C3.15039 24.4545 4.56789 21.8505 6.90939 20.307C6.51039 19.173 6.30039 18.0075 6.30039 16.8C6.30039 11.0145 11.0149 6.30005 16.8004 6.30005C20.5489 6.30005 24.0454 8.35805 25.9039 11.592C26.2084 11.571 26.4919 11.55 26.7754 11.55C33.4324 11.55 38.8504 16.968 38.8504 23.625C38.8504 25.9141 38.2099 28.1295 36.9814 30.0616C38.0629 31.3321 38.7139 32.8966 38.8504 34.5766C38.8714 34.8706 38.7769 35.154 38.5774 35.3745C38.3779 35.5845 38.0944 35.7105 37.8109 35.7105L37.8004 35.7001ZM16.8004 8.40005C12.1699 8.40005 8.40039 12.1695 8.40039 16.8C8.40039 18.0075 8.66289 19.194 9.17739 20.307C9.41889 20.8216 9.19839 21.4305 8.70489 21.6825C6.57339 22.764 5.25039 24.9165 5.25039 27.3001C5.25039 30.7756 8.07489 33.6 11.5504 33.6H36.5509C36.2674 32.5921 35.7004 31.668 34.9234 30.9331C34.5349 30.5655 34.4719 29.967 34.7974 29.5365C36.0784 27.804 36.7609 25.7565 36.7609 23.6145C36.7609 18.1125 32.2879 13.6395 26.7859 13.6395C26.3869 13.6395 25.9564 13.671 25.4629 13.734C25.0114 13.797 24.5704 13.5555 24.3814 13.146C22.9639 10.206 20.0659 8.37905 16.8214 8.37905L16.8004 8.40005Z" fill="#221F1F"/>
<path fill-rule="evenodd" clip-rule="evenodd" d="M17.493 19.9709C17.283 20.5064 17.115 21.0629 16.9995 21.6404L16.674 23.2784L15.3405 22.2704C14.238 21.4409 12.9255 20.9999 11.55 20.9999C8.0745 20.9999 5.25 23.8244 5.25 27.2999C5.25 30.7754 8.0745 33.5999 11.55 33.5999H24.1185C23.961 28.1189 21.4305 23.2364 17.4825 19.9709H17.493Z" fill="#9E9E9E"/>
</svg>
