<svg width="42" height="42" viewBox="0 0 42 42" fill="none" xmlns="http://www.w3.org/2000/svg">
<path d="M21.0002 40C18.0902 40 15.6602 37.92 15.1102 35.17C13.2802 34.65 11.5902 33.88 10.0402 32.88C9.56023 33.09 9.03023 33.21 8.49023 33.21C7.10023 33.21 5.85023 32.54 5.11023 31.41C3.07023 28.31 1.99023 24.7 1.99023 21C1.99023 14.7 5.11023 8.82 10.3302 5.27C10.4802 5.17 10.6102 5.1 10.7102 5.06C13.8002 3.06 17.3502 2 20.9902 2C24.6302 2 28.1802 3.06 31.2802 5.07C31.3502 5.1 31.5002 5.17 31.6602 5.28C36.8802 8.82 39.9902 14.7 39.9902 21C39.9902 24.71 38.9102 28.31 36.8702 31.41C36.1302 32.54 34.8802 33.21 33.5302 33.21C32.9702 33.21 32.4302 33.09 31.9502 32.88C30.4102 33.88 28.7102 34.64 26.8802 35.17C26.3302 37.92 23.9002 40 20.9902 40H21.0002Z" fill="white"/>
<path d="M21 38C18.79 38 17 36.21 17 34V27C17 24.79 18.79 23 21 23C23.21 23 25 24.79 25 27V34C25 36.21 23.21 38 21 38Z" fill="#221F1F"/>
<path d="M23 27C23 25.8954 22.1046 25 21 25C19.8954 25 19 25.8954 19 27V34C19 35.1046 19.8954 36 21 36C22.1046 36 23 35.1046 23 34V27Z" fill="#F0AA97"/>
<path d="M37.8303 18.74C36.7103 10.34 29.4703 4 21.0003 4C12.5303 4 5.29027 10.33 4.17027 18.74C4.15027 18.92 4.15027 19.09 4.17027 19.27C4.18027 19.35 4.20027 19.43 4.21027 19.5C4.20027 19.58 4.18027 19.66 4.17027 19.74C4.15027 19.92 4.15027 20.09 4.17027 20.27C5.25027 28.36 12.1703 34.01 21.0003 34.01C29.8303 34.01 36.7503 28.36 37.8303 20.27C37.8503 20.09 37.8503 19.92 37.8303 19.74C37.8203 19.66 37.8003 19.58 37.7903 19.5C37.8003 19.42 37.8203 19.35 37.8303 19.27C37.8503 19.09 37.8503 18.92 37.8303 18.74Z" fill="#221F1F"/>
<path d="M21.0004 7C28.6004 7 34.8704 12.66 35.8504 20C34.8704 27.34 28.6004 32 21.0004 32C13.4004 32 7.13039 27.34 6.15039 20C7.13039 12.66 13.4004 7 21.0004 7Z" fill="white"/>
<path d="M21.0004 6C28.6004 6 34.8704 11.66 35.8504 19C34.8704 26.34 28.6004 31 21.0004 31C13.4004 31 7.13039 26.34 6.15039 19C7.13039 11.66 13.4004 6 21.0004 6Z" fill="white"/>
<path d="M14.8404 20H6.15039C7.13039 27.34 13.4004 32 21.0004 32C24.0204 32 26.8204 31.25 29.1704 29.91C22.4404 29.29 16.8804 25.33 14.8404 20Z" fill="#CAE5FF"/>
<path d="M8.46 31.2201C7.79 31.2201 7.16 30.8801 6.79 30.3201C4.97 27.5401 4 24.3201 4 21.0001C4 15.3601 6.79 10.1001 11.46 6.93008C11.8 6.70008 12.19 6.58008 12.58 6.58008C12.85 6.58008 13.11 6.63008 13.37 6.74008C14 7.01008 14.44 7.58008 14.56 8.25008C14.85 10.0001 15 11.7701 15 13.5001C15 19.4501 13.32 25.2601 10.15 30.2901C9.79 30.8701 9.16 31.2201 8.48 31.2201H8.46Z" fill="#221F1F"/>
<path d="M6 21.0001C6 24.0401 6.91 26.8601 8.46 29.2201C11.33 24.6701 13 19.2801 13 13.5001C13 11.8201 12.85 10.1801 12.58 8.58008C8.61 11.2801 6 15.8301 6 21.0001Z" fill="#BF9E6F"/>
<path d="M33.54 31.2201C34.21 31.2201 34.84 30.8801 35.21 30.3201C37.03 27.5401 38 24.3201 38 21.0001C38 15.3601 35.21 10.1001 30.54 6.93008C30.2 6.70008 29.81 6.58008 29.42 6.58008C29.15 6.58008 28.89 6.63008 28.63 6.74008C28 7.01008 27.56 7.58008 27.44 8.25008C27.15 10.0001 27 11.7701 27 13.5001C27 19.4501 28.68 25.2601 31.85 30.2901C32.21 30.8701 32.84 31.2201 33.52 31.2201H33.54Z" fill="#221F1F"/>
<path d="M36 21.0001C36 24.0401 35.09 26.8601 33.54 29.2201C30.67 24.6701 29 19.2801 29 13.5001C29 11.8201 29.15 10.1801 29.42 8.58008C33.39 11.2801 36 15.8301 36 21.0001Z" fill="#BF9E6F"/>
<path d="M22 25H20C18.8954 25 18 25.8954 18 27C18 28.1046 18.8954 29 20 29H22C23.1046 29 24 28.1046 24 27C24 25.8954 23.1046 25 22 25Z" fill="#221F1F"/>
<path d="M22 28H20V32.5H22V28Z" fill="#221F1F"/>
<path d="M16.96 23C16.98 22.84 17 22.67 17 22.5C17 20.57 15.88 19 14.5 19C13.12 19 12 20.57 12 22.5C12 22.67 12.02 22.84 12.04 23H16.97H16.96Z" fill="#221F1F"/>
<path d="M25.04 23C25.02 22.84 25 22.67 25 22.5C25 20.57 26.12 19 27.5 19C28.88 19 30 20.57 30 22.5C30 22.67 29.98 22.84 29.96 23H25.03H25.04Z" fill="#221F1F"/>
<path d="M6.86 16.01C6.31 17.57 6 19.25 6 21C6 24.04 6.91 26.86 8.46 29.22C10.13 26.57 11.38 23.62 12.15 20.49C10.14 19.33 8.36 17.81 6.86 16.01Z" fill="#997142"/>
</svg>
