<svg width="42" height="42" viewBox="0 0 42 42" fill="none" xmlns="http://www.w3.org/2000/svg">
<path fill-rule="evenodd" clip-rule="evenodd" d="M36.7998 18.1C36.5998 17.3 35.9998 16.6 35.1998 16.2C34.7998 16 34.3998 15.9 33.8998 15.9C33.4998 15.9 33.0998 16 32.6998 16.1L30.6998 17C30.0998 8 21.1998 2.5 21.0998 2.4C20.5998 2.1 20.0998 2 19.4998 2C18.7998 2 18.0998 2.2 17.5998 2.7C16.5998 3.5 16.1998 4.8 16.6998 6C17.6998 8.6 16.0998 10.4 11.8998 13.9C8.29976 17 4.19976 20.5 4.19976 26.1C3.99976 37.5 15.8998 39.9 15.9998 39.9C16.1998 39.9 16.3998 40 16.5998 40C17.6998 40 18.6998 39.4 19.1998 38.5C19.6998 37.6 19.6998 36.4 19.1998 35.5C18.9998 35.2 18.7998 34.8 18.7998 34.3C18.7998 33.2 19.6998 32.3 20.7998 32.3C21.8998 32.3 22.7998 33.2 22.7998 34.3C22.7998 34.7 22.6998 35.1 22.3998 35.5C21.9998 36.4 21.9998 37.4 22.4998 38.3C22.9998 39.2 23.9998 39.8 25.0998 39.8C25.2998 39.8 25.4998 39.8 25.6998 39.7C26.3998 39.6 32.1998 38.2 35.4998 32.6C38.0998 28.8 38.4998 23.9 36.7998 18.1Z" fill="white"/>
<path fill-rule="evenodd" clip-rule="evenodd" d="M25.2996 36.9C25.2996 36.9 38.2996 34.1 33.8996 19L27.1996 21.9C30.2996 11.5 19.4996 5 19.4996 5C22.7996 14.1 7.29961 17.1 7.09961 26.1C7.09961 35.2 16.5996 37 16.5996 37C16.5996 37 7.79961 26.8 20.9996 20.3C20.9996 20.3 18.1996 26.4 23.3996 28.6C30.2996 31.5 25.2996 36.9 25.2996 36.9Z" fill="#F9A936"/>
<path d="M16.5999 38.0001C16.4999 38.0001 16.4999 38.0001 16.3999 38.0001C16.2999 38.0001 6.09995 35.9001 6.19995 26.2001C6.29995 21.5001 9.79995 18.5001 13.2999 15.5001C16.9999 12.3001 20.2 9.60006 18.7 5.40006C18.5999 5.00006 18.6999 4.60006 18.9999 4.30006C19.2999 4.00006 19.8 4.00006 20.2 4.20006C20.3 4.30006 30.2999 10.4001 28.6999 20.2001L33.5999 18.1001C33.8999 18.0001 34.1999 18.0001 34.4 18.1001C34.6999 18.2001 34.9 18.5001 34.9 18.7001C36.4 23.9001 36.0999 28.2001 33.9999 31.7001C31.0999 36.6001 25.6999 37.8001 25.4999 37.8001C25.0999 37.9001 24.5999 37.7001 24.3999 37.3001C24.1999 36.9001 24.1999 36.4001 24.4999 36.1001C24.4999 36.1001 26.2999 34.1001 25.8999 32.2001C25.6999 31.1001 24.6999 30.2001 22.8999 29.4001C21.1999 28.7001 20.0999 27.6001 19.4999 26.1001C18.9999 24.8001 19 23.4001 19.2 22.2001C16.7 23.8001 15.1999 25.8001 14.6999 28.0001C13.7999 32.2001 17.0999 36.2001 17.2 36.2001C17.5 36.5001 17.4999 37.0001 17.2999 37.4001C17.1999 37.8001 16.9 38.0001 16.5999 38.0001ZM20.9999 7.30006C21.0999 11.3001 17.7999 14.2001 14.4999 16.9001C11.2999 19.7001 8.19995 22.3001 8.09995 26.1001C7.99995 31.4001 11.4999 33.9001 14.0999 35.1001C13.0999 33.3001 12.1999 30.6001 12.7999 27.7001C13.4999 24.3001 16.0999 21.5001 20.3999 19.4001C20.7999 19.2001 21.1999 19.3001 21.4999 19.6001C21.7999 19.9001 21.9 20.3001 21.7 20.7001C21.7 20.7001 20.4999 23.4001 21.2999 25.5001C21.6999 26.5001 22.3999 27.2001 23.5999 27.7001C25.9999 28.7001 27.3999 30.1001 27.7999 31.9001C27.9999 33.0001 27.7999 34.0001 27.4999 34.9001C28.9999 34.1001 30.9 32.8001 32.1999 30.7001C33.7999 28.0001 34.0999 24.5001 33.0999 20.4001L27.3999 22.8001C26.9999 23.0001 26.5999 22.9001 26.2999 22.6001C25.9999 22.3001 25.8999 21.9001 25.9999 21.6001C27.1999 17.7001 26.3999 13.8001 23.5999 10.2001C22.8999 9.00006 21.7999 8.10006 20.9999 7.30006Z" fill="#221F1F"/>
</svg>
