<svg width="42" height="42" viewBox="0 0 42 42" fill="none" xmlns="http://www.w3.org/2000/svg">
<path d="M18.2002 40C17.0702 40 15.9902 39.52 15.2402 38.69C14.4802 37.86 14.1102 36.74 14.2202 35.61L14.2602 35.15C14.0602 35.19 13.8602 35.21 13.6402 35.22C13.5302 35.22 13.4002 35.23 13.2802 35.23C11.8502 35.23 10.5702 34.73 9.6602 34.23C5.6002 33.72 3.2002 30.78 3.2002 26.28C3.2002 24.49 4.0802 23.11 5.0902 21.52C5.9502 20.17 7.1102 18.34 8.1302 15.7C7.6402 15.53 7.2302 15.35 6.9002 15.19C6.4002 14.94 6.0202 14.49 5.8602 13.95C5.7002 13.41 5.7802 12.83 6.0702 12.35C6.7502 11.23 7.5202 10.23 8.35019 9.38C8.62019 9.1 8.91019 8.84 9.2302 8.56C9.47019 6.89 9.95019 5.4 10.2502 4.6C10.7302 3.32 11.8102 2.38 13.1502 2.09C13.4202 2.03 13.7102 2 14.0002 2C15.1502 2 16.2202 2.48 16.9902 3.35C17.5402 2.72 18.2902 2.28 19.1402 2.09C19.4102 2.03 19.7002 2 19.9902 2C21.0602 2 22.0602 2.42 22.8202 3.17C23.4202 3.76 24.2402 4.65 25.0102 5.67C31.4902 7.6 36.3602 12.24 39.4902 19.47C39.8402 20.27 39.9902 21.14 39.9902 22.01V36.13C39.9902 38.27 38.2602 40 36.1202 40H18.1802H18.2002Z" fill="white"/>
<path d="M14.9999 15.0002C13.6899 15.0002 12.5899 14.4502 11.8899 13.4502C10.1999 11.0102 11.6399 6.60023 12.1199 5.30023C12.3599 4.66023 12.8999 4.19023 13.5699 4.04023C13.7099 4.01023 13.8499 3.99023 13.9999 3.99023C14.5199 3.99023 15.0399 4.20023 15.4099 4.58023C17.2999 6.47023 20.3099 10.0602 19.1699 12.8002C18.7599 13.8002 17.6899 14.9902 14.9899 14.9902L14.9999 15.0002Z" fill="#221F1F"/>
<path d="M15 13C11.39 13 14 6 14 6C14 6 21 13 15 13Z" fill="#E0B344"/>
<path d="M37.9998 21.9903C37.9998 21.3903 37.8898 20.7803 37.6498 20.2303C35.0598 14.2803 30.5598 8.75031 22.6998 7.14031C21.6798 6.93031 20.6398 6.82031 19.6098 6.82031C15.7998 6.82031 12.2198 8.26031 9.78978 10.7703C9.02978 11.5603 8.36979 12.4403 7.77979 13.4003C9.20979 14.1003 12.6298 15.2703 16.6698 13.0003C21.9998 10.0003 37.9998 36.0003 37.9998 36.0003V21.9903Z" fill="#221F1F"/>
<path d="M20.9999 15.0002C19.6899 15.0002 18.5899 14.4502 17.8899 13.4502C16.1999 11.0102 17.6399 6.60023 18.1199 5.30023C18.3599 4.66023 18.8999 4.19023 19.5699 4.04023C19.7099 4.01023 19.8499 3.99023 19.9999 3.99023C20.5199 3.99023 21.0399 4.20023 21.4099 4.58023C23.2999 6.47023 26.3099 10.0602 25.1699 12.8002C24.7599 13.8002 23.6899 14.9902 20.9899 14.9902L20.9999 15.0002Z" fill="#221F1F"/>
<path d="M18.2 38.0008C17.64 38.0008 17.1 37.7608 16.72 37.3408C16.34 36.9208 16.16 36.3608 16.21 35.8008L16.9 28.7408C16.81 29.0008 16.73 29.2708 16.66 29.4808C16.16 31.0908 15.53 33.1008 13.53 33.2208C13.45 33.2208 13.37 33.2208 13.29 33.2208C12.07 33.2208 10.96 32.6808 10.3 32.2708C8.14996 32.1008 5.20996 31.0108 5.20996 26.2708C5.20996 25.0608 5.86996 24.0208 6.78996 22.5808C7.70996 21.1408 8.96996 19.1608 10.07 16.2408C10.68 14.6308 11.5 13.2308 12.51 12.0608C14.3 9.99078 16.95 8.80078 19.77 8.80078C20.54 8.80078 21.33 8.89078 22.09 9.06078C34.53 11.9208 36.63 28.7708 36.96 35.8808C36.98 36.4308 36.79 36.9608 36.41 37.3508C36.03 37.7508 35.51 37.9708 34.96 37.9708H18.2V38.0008Z" fill="#221F1F"/>
<path d="M16.02 26.4394C17.22 25.9494 17.22 26.2994 19.27 25.0294L18.2 36.0094H34.96C34.69 30.2194 32.94 13.6394 21.64 11.0494C18.84 10.4093 15.9 11.2294 14.02 13.4094C13.26 14.2894 12.52 15.4594 11.94 16.9894C9.81996 22.5694 7.20996 24.8994 7.20996 26.3094C7.20996 27.7194 7.34996 30.3294 10.95 30.3294C10.95 30.3294 12.22 31.3194 13.42 31.2494C14.62 31.1794 14.83 26.9394 16.03 26.4494L16.02 26.4394Z" fill="#FCD26E"/>
<path d="M21 13C17.39 13 20 6 20 6C20 6 27 13 21 13Z" fill="#FCD26E"/>
<path d="M34.9502 38.0007H36.1302C37.1602 38.0007 38.0002 37.1607 38.0002 36.1307V32.4707L36.0002 33.0007V36.0007L34.9502 38.0007Z" fill="#221F1F"/>
<path d="M23.46 11.6597C26.67 12.8497 27.61 16.6597 27.89 18.6897C27.96 19.1797 28.59 19.3397 28.88 18.9297C29.68 17.7897 30.64 15.8997 30.01 13.9997C29.01 10.9997 24.88 9.67969 24.88 9.67969L23.47 11.6597H23.46Z" fill="#221F1F"/>
<path d="M29.7202 16.8402C29.7202 16.8402 31.5802 25.1402 28.9902 28.9502C28.7102 29.3602 29.0602 29.9102 29.5502 29.8002C31.4702 29.3802 34.6502 28.0602 36.0002 24.0002C38.0002 18.0002 29.9302 13.2402 29.9302 13.2402L29.7202 16.8402Z" fill="#221F1F"/>
<path d="M29 36.9998C29 36.9998 35 30.9998 34 23.9998C33 16.9998 36.35 31.2398 36.35 31.2398L36.4 37.3898L29 37.0098V36.9998Z" fill="#221F1F"/>
<path d="M15.98 20.5603C15.43 20.5603 14.98 20.1103 14.98 19.5603V18.5703C14.98 18.0203 15.43 17.5703 15.98 17.5703C16.53 17.5703 16.98 18.0203 16.98 18.5703V19.5603C16.98 20.1103 16.53 20.5603 15.98 20.5603Z" fill="#221F1F"/>
<path d="M23.1402 35.9996L23.2002 21.3496C18.3902 25.8796 10.3602 26.1596 7.2202 26.0796C7.2102 26.1496 7.2002 26.2296 7.2002 26.2996C7.2002 27.7096 7.3402 30.3196 10.9402 30.3196C10.9402 30.3196 12.2102 31.3096 13.4102 31.2396C14.6102 31.1696 14.8202 26.9296 16.0202 26.4396C17.2202 25.9496 17.2202 26.2996 19.2702 25.0296L18.2002 36.0096H23.1402V35.9996Z" fill="#E0B344"/>
<path d="M10.5899 32.0898C10.3799 32.0898 10.1599 32.0198 9.97995 31.8798C9.53995 31.5398 9.45995 30.9198 9.79995 30.4798L11.4499 28.3398C11.7899 27.8998 12.4199 27.8198 12.8499 28.1598C13.2899 28.4998 13.3699 29.1198 13.0299 29.5598L11.3799 31.6998C11.1799 31.9598 10.8899 32.0898 10.5899 32.0898Z" fill="#221F1F"/>
<path d="M16.2999 28.379C15.8699 28.379 15.4699 28.099 15.3399 27.669C15.1799 27.139 15.4799 26.579 16.0099 26.429C16.0699 26.409 21.7699 24.669 23.2799 21.199C23.4999 20.689 24.0899 20.459 24.5999 20.679C25.1099 20.899 25.3399 21.489 25.1199 21.999C23.2399 26.329 16.8499 28.269 16.5799 28.349C16.4899 28.379 16.3899 28.389 16.2999 28.389V28.379Z" fill="#221F1F"/>
<path d="M14.0102 13.3895C13.2502 14.2695 12.5102 15.4395 11.9302 16.9695C9.8102 22.5495 7.2002 24.8795 7.2002 26.2895C7.2002 26.7595 7.2202 27.3695 7.3802 27.9695C7.9402 28.0695 8.3102 28.1295 8.3102 28.1295C8.3102 28.1295 13.0602 21.4495 12.8702 18.9495C12.7102 16.8495 13.8502 14.0395 14.2102 13.1895C14.1402 13.2595 14.0702 13.3195 14.0102 13.3895Z" fill="#E0B344"/>
</svg>
