<svg width="42" height="42" viewBox="0 0 42 42" fill="none" xmlns="http://www.w3.org/2000/svg">
<path d="M22.1003 2.29995C21.9003 2.19995 21.6003 2.19995 21.4003 2.19995C20.2003 2.19995 19.0003 2.89995 18.4003 3.89995C17.6003 5.19995 17.8003 6.79995 18.8003 7.99995C19.9003 9.19995 20.8003 10.7 21.3003 12.2C23.7003 18.9 20.3003 26.4 13.5003 28.7999C12.1003 29.2999 10.6003 29.6 9.00029 29.6C8.90029 29.6 8.50029 29.6 8.50029 29.6C7.00029 29.6 5.70029 30.5 5.20029 31.9C4.70029 33.2999 5.20029 34.8999 6.40029 35.7999C9.70029 38.2999 13.8003 39.7 17.9003 39.7C20.0003 39.7 22.1003 39.2999 24.1003 38.7C29.0003 37.1 32.8003 33.6 35.0003 29C37.2003 24.4 37.5003 19.2 35.8003 14.4C33.6003 8.19995 28.5003 3.69995 22.1003 2.29995Z" fill="white"/>
<path fill-rule="evenodd" clip-rule="evenodd" d="M21.0007 5.99995C22.3007 7.49995 23.4007 9.19995 24.1007 11.2C27.1007 19.5 22.8007 28.7 14.6007 31.7C12.6007 32.4 10.6007 32.7 8.60068 32.7C8.10068 32.7 7.90068 33.3 8.30068 33.6C12.4007 36.8 18.0007 37.8 23.2007 36C31.5007 33 36.0007 23.7 33.0007 15.4C31.1007 10.1 26.6007 6.39995 21.4007 5.19995C21.0007 5.09995 20.7007 5.69995 21.0007 5.99995Z" fill="#CAE5FF"/>
<path fill-rule="evenodd" clip-rule="evenodd" d="M21.4002 32C20.0002 32 18.5002 31.9 17.2002 31.6C16.5002 32 15.7002 32.4 14.9002 32.7C13.4002 33.3 11.8002 33.6 10.2002 33.7C14.0002 36 18.6002 36.5 22.9002 35.1C25.5002 34.2 27.7002 32.6 29.5002 30.5C27.0002 31.4 24.3002 32 21.4002 32Z" fill="#8EBFE2"/>
<path d="M26.3998 28.8C27.0073 28.8 27.4998 28.3075 27.4998 27.7C27.4998 27.0925 27.0073 26.6 26.3998 26.6C25.7923 26.6 25.2998 27.0925 25.2998 27.7C25.2998 28.3075 25.7923 28.8 26.3998 28.8Z" fill="#8EBFE2"/>
<path d="M28.9998 24.1C29.9387 24.1 30.6998 23.3388 30.6998 22.4C30.6998 21.4611 29.9387 20.7 28.9998 20.7C28.0609 20.7 27.2998 21.4611 27.2998 22.4C27.2998 23.3388 28.0609 24.1 28.9998 24.1Z" fill="#8EBFE2"/>
<path d="M18.0007 37.7999C14.3007 37.7999 10.7007 36.5999 7.70066 34.2999C7.20066 33.8999 7.00066 33.1999 7.20066 32.5999C7.40066 31.9999 8.00066 31.5999 8.60066 31.5999C10.5007 31.6999 12.4007 31.3999 14.2007 30.6999C18.0007 29.2999 21.0007 26.5999 22.6007 22.9999C24.3007 19.3999 24.5007 15.2999 23.1007 11.5999C22.4007 9.79995 21.5007 8.09995 20.2007 6.69995C19.8007 6.19995 19.7007 5.49995 20.0007 4.99995C20.3007 4.39995 21.0007 4.19995 21.6007 4.29995C27.3007 5.59995 31.9007 9.59995 33.9007 15.0999C35.4007 19.3999 35.2007 23.9999 33.2007 28.1999C31.2007 32.3999 27.8007 35.4999 23.5007 36.8999C21.7007 37.4999 19.8007 37.7999 18.0007 37.7999ZM10.2007 33.5999C14.0007 35.8999 18.6007 36.3999 22.9007 34.9999C26.7007 33.6999 29.7007 30.9999 31.5007 27.2999C33.3007 23.5999 33.5007 19.4999 32.1007 15.7999C30.5007 11.4999 27.1007 8.19995 22.8007 6.69995C23.7007 7.99995 24.5007 9.39995 25.1007 10.8999C26.6007 15.1999 26.4007 19.7999 24.5007 23.8999C22.6007 27.9999 19.2007 31.0999 14.9007 32.6999C13.4007 33.1999 11.8007 33.4999 10.2007 33.5999Z" fill="#221F1F"/>
</svg>
