<svg width="42" height="42" viewBox="0 0 42 42" fill="none" xmlns="http://www.w3.org/2000/svg">
<path d="M4.20039 39.9C3.09789 39.9 2.06889 39.312 1.50189 38.367C0.934883 37.422 0.903383 36.225 1.42839 35.259L18.2179 3.76947C18.7534 2.77197 19.8139 2.14197 21.0004 2.14197C22.1869 2.14197 23.2474 2.76147 23.7829 3.76947L40.5829 35.2695C41.0974 36.2355 41.0659 37.422 40.5094 38.367C39.9424 39.312 38.9029 39.9 37.8109 39.9H4.20039Z" fill="white"/>
<path fill-rule="evenodd" clip-rule="evenodd" d="M4.2002 36.75L21.0002 5.25L37.8002 36.75H4.2002Z" fill="#B9B9FF"/>
<path fill-rule="evenodd" clip-rule="evenodd" d="M30.3347 36.75L21.0002 23.1L18.9002 28.35L13.5242 19.2675L4.2002 36.75H30.3347Z" fill="#7A72EB"/>
<path d="M37.8 37.8H4.2C3.8325 37.8 3.486 37.611 3.297 37.2855C3.108 36.9705 3.0975 36.5715 3.276 36.246L20.076 4.7565C20.4435 4.074 21.567 4.074 21.924 4.7565L38.724 36.2565C38.9025 36.582 38.892 36.9705 38.703 37.296C38.514 37.611 38.1675 37.8105 37.8 37.8105V37.8ZM5.9535 35.7H36.057L21 7.476L5.9535 35.7Z" fill="#221F1F"/>
<path fill-rule="evenodd" clip-rule="evenodd" d="M20.9999 5.25L16.1279 14.385L18.8999 17.85L20.9999 15.75L29.2529 20.727L20.9999 5.25Z" fill="white"/>
<path d="M29.253 21.777C29.064 21.777 28.875 21.7245 28.707 21.63L21.1575 17.0835L19.635 18.606C19.425 18.816 19.1415 18.9315 18.837 18.9105C18.543 18.8895 18.2595 18.753 18.0705 18.522L15.2985 15.057C15.036 14.7315 14.994 14.28 15.1935 13.902L20.0655 4.767C20.433 4.0845 21.5565 4.0845 21.9135 4.767L30.1665 20.244C30.387 20.664 30.303 21.1785 29.967 21.504C29.7675 21.693 29.505 21.7875 29.2425 21.7875L29.253 21.777ZM21 14.7C21.189 14.7 21.378 14.7525 21.546 14.847L26.544 17.8605L21.0105 7.476L17.388 14.2695L18.9945 16.275L20.265 15.0045C20.4645 14.805 20.7375 14.7 21.0105 14.7H21Z" fill="#221F1F"/>
</svg>
