<svg width="42" height="42" viewBox="0 0 42 42" fill="none" xmlns="http://www.w3.org/2000/svg">
<path d="M21 16C19.35 16 18 14.65 18 13V4.5C18 2.85 19.35 1.5 21 1.5C22.65 1.5 24 2.85 24 4.5V13C24 14.65 22.65 16 21 16Z" fill="white"/>
<path d="M27.4191 16.1498C25.8191 16.1498 24.2191 15.7298 22.7891 14.9398C20.0691 13.4298 18.2891 10.7898 18.0091 7.85977C17.8591 6.20977 18.7191 4.65977 20.1991 3.91977C20.6591 3.68977 21.1591 3.48977 21.6691 3.34977C22.4591 3.12977 23.2791 3.00977 24.1091 3.00977C25.7091 3.00977 27.3091 3.42977 28.7391 4.21977C31.4591 5.72977 33.2391 8.37977 33.5191 11.2998C33.6691 12.9498 32.8091 14.4998 31.3391 15.2398C30.8691 15.4798 30.3791 15.6698 29.8691 15.8098C29.0891 16.0298 28.2591 16.1498 27.4291 16.1498H27.4191Z" fill="white"/>
<path d="M21 40C11.07 40 3 31.92 3 22C3 12.08 11.07 4 21 4C30.93 4 39 12.08 39 22C39 31.92 30.93 40 21 40Z" fill="white"/>
<path d="M21 38C12.18 38 5 30.82 5 22C5 13.18 12.18 6 21 6C29.82 6 37 13.18 37 22C37 30.82 29.82 38 21 38Z" fill="#221F1F"/>
<path d="M21 36C28.732 36 35 29.732 35 22C35 14.268 28.732 8 21 8C13.268 8 7 14.268 7 22C7 29.732 13.268 36 21 36Z" fill="#F9A936"/>
<path d="M20.9995 8C16.5395 8 12.5795 10.09 10.0195 13.34C10.1995 23.12 18.1795 31 27.9995 31C29.4095 31 30.7795 30.82 32.0995 30.51C33.9095 28.15 34.9995 25.2 34.9995 22C34.9995 14.27 28.7295 8 20.9995 8Z" fill="#FAC15E"/>
<path d="M21 14C20.45 14 20 13.55 20 13V4.5C20 3.95 20.45 3.5 21 3.5C21.55 3.5 22 3.95 22 4.5V13C22 13.55 21.55 14 21 14Z" fill="#221F1F"/>
<path d="M21 14C20.45 14 20 13.55 20 13V4.5C20 3.95 20.45 3.5 21 3.5C21.55 3.5 22 3.95 22 4.5V13C22 13.55 21.55 14 21 14Z" fill="#221F1F"/>
<path d="M29.3093 13.8794C27.5093 14.3994 25.4893 14.1394 23.7593 13.1794C21.6193 11.9894 20.2193 9.92937 20.0093 7.65937C19.9293 6.83937 20.3693 6.05937 21.0993 5.68937C21.4493 5.50937 21.8293 5.35937 22.2193 5.24937C24.0193 4.72937 26.0393 4.98937 27.7693 5.94937C29.9093 7.13937 31.3093 9.19937 31.5193 11.4694C31.5993 12.2894 31.1593 13.0694 30.4293 13.4394C30.0793 13.6194 29.6993 13.7694 29.3093 13.8794Z" fill="#221F1F"/>
<path d="M22 7.48938C22.14 9.01938 23.12 10.5494 24.73 11.4394C26.34 12.3394 28.16 12.3494 29.53 11.6594C29.39 10.1294 28.41 8.59938 26.8 7.70938C25.19 6.80938 23.37 6.79938 22 7.48938Z" fill="#9CDB9C"/>
<path d="M29 28C29.5523 28 30 27.5523 30 27C30 26.4477 29.5523 26 29 26C28.4477 26 28 26.4477 28 27C28 27.5523 28.4477 28 29 28Z" fill="#221F1F"/>
<path d="M30 23C30.5523 23 31 22.5523 31 22C31 21.4477 30.5523 21 30 21C29.4477 21 29 21.4477 29 22C29 22.5523 29.4477 23 30 23Z" fill="#221F1F"/>
<path d="M22.7305 33.4902C23.2828 33.4902 23.7305 33.0425 23.7305 32.4902C23.7305 31.9379 23.2828 31.4902 22.7305 31.4902C22.1782 31.4902 21.7305 31.9379 21.7305 32.4902C21.7305 33.0425 22.1782 33.4902 22.7305 33.4902Z" fill="#221F1F"/>
<path d="M24 28C24.5523 28 25 27.5523 25 27C25 26.4477 24.5523 26 24 26C23.4477 26 23 26.4477 23 27C23 27.5523 23.4477 28 24 28Z" fill="#221F1F"/>
</svg>
