<svg width="42" height="42" viewBox="0 0 42 42" fill="none" xmlns="http://www.w3.org/2000/svg">
<path d="M18.9998 39.9998C17.8898 39.9998 16.8298 39.5398 16.0698 38.7298C15.3198 37.9198 14.9298 36.8198 15.0098 35.7198L16.5098 14.7198C16.6598 12.6398 18.4098 11.0098 20.4998 11.0098H21.4998C23.5898 11.0098 25.3398 12.6398 25.4898 14.7198L26.9898 35.7198C27.0698 36.8198 26.6798 37.9198 25.9298 38.7298C25.1798 39.5398 24.1098 39.9998 22.9998 39.9998H18.9998Z" fill="white"/>
<path d="M30.7398 26.9998C29.7798 26.9998 28.8598 26.6598 28.1298 26.0398L20.9998 19.9798L13.8698 26.0398C13.1498 26.6598 12.2198 26.9998 11.2598 26.9998C10.7198 26.9998 10.1898 26.8898 9.68976 26.6798C8.26976 26.0798 7.31976 24.7098 7.25976 23.1998C7.19976 21.6698 7.43976 20.1398 7.94976 18.7198H5.99976C4.47976 18.7198 3.05976 17.8398 2.39976 16.4898C1.72976 15.1198 1.91976 13.4598 2.88976 12.2698C4.19976 10.6798 5.83976 9.40977 7.67976 8.55977C6.88976 7.57977 6.60976 6.26977 6.95976 5.03977C7.36976 3.57977 8.60976 2.46977 10.1098 2.20977C10.8498 2.07977 11.6098 2.00977 12.3698 2.00977C15.4098 2.00977 18.3498 3.08977 20.6398 5.03977C20.7598 5.13977 20.8798 5.24977 20.9998 5.35977C21.1198 5.24977 21.2398 5.14977 21.3598 5.03977C23.6598 3.08977 26.5998 2.00977 29.6398 2.00977C30.3998 2.00977 31.1598 2.07977 31.8998 2.20977C33.3998 2.47977 34.6398 3.58977 35.0498 5.04977C35.3898 6.27977 35.1098 7.58977 34.3298 8.56977C36.1698 9.42977 37.8098 10.6898 39.1198 12.2798C40.0898 13.4698 40.2898 15.1298 39.6098 16.4998C38.9498 17.8498 37.5298 18.7298 36.0098 18.7298H34.0598C34.5698 20.1598 34.8098 21.6798 34.7498 23.2098C34.6898 24.7198 33.7398 26.0898 32.3298 26.6898C31.8198 26.8998 31.2998 27.0098 30.7598 27.0098L30.7398 26.9998Z" fill="white"/>
<path d="M18.9999 38.0002C18.4399 38.0002 17.9099 37.7702 17.5399 37.3602C17.1699 36.9502 16.9699 36.4102 17.0099 35.8502L18.5099 14.8502C18.5899 13.8002 19.4599 12.9902 20.5099 12.9902H21.5099C22.5599 12.9902 23.4299 13.8002 23.5099 14.8502L25.0099 35.8502C25.0499 36.4002 24.8599 36.9502 24.4799 37.3602C24.0999 37.7702 23.5699 38.0002 23.0199 38.0002H19.0199H18.9999Z" fill="#221F1F"/>
<path d="M21.5 15H20.5L19 36H23L21.5 15Z" fill="#FCD26E"/>
<path d="M30.74 25.0002C30.27 25.0002 29.8 24.8402 29.43 24.5202L21.01 17.3602L12.59 24.5202C12.22 24.8402 11.75 25.0002 11.28 25.0002C11.01 25.0002 10.74 24.9502 10.49 24.8402C9.77999 24.5402 9.31999 23.8702 9.27999 23.1202C9.18999 20.7802 9.90999 18.5402 11.3 16.7202H6.00999C5.23999 16.7202 4.53999 16.2902 4.20999 15.6102C3.87999 14.9302 3.96999 14.1302 4.44999 13.5402C6.27999 11.3102 8.84999 9.86023 11.68 9.42023L9.50999 7.57023C8.92999 7.08023 8.68999 6.30023 8.88999 5.57023C9.08999 4.84023 9.69999 4.30023 10.46 4.16023C11.09 4.05023 11.73 3.99023 12.37 3.99023C14.93 3.99023 17.41 4.90023 19.35 6.54023C19.97 7.07023 20.53 7.67023 21.01 8.32023C21.49 7.67023 22.04 7.07023 22.67 6.54023C24.61 4.90023 27.08 3.99023 29.65 3.99023C30.29 3.99023 30.93 4.05023 31.56 4.16023C32.32 4.29023 32.93 4.84023 33.13 5.57023C33.33 6.30023 33.09 7.07023 32.51 7.57023L30.34 9.42023C33.17 9.86023 35.74 11.3002 37.57 13.5402C38.05 14.1302 38.15 14.9302 37.81 15.6102C37.48 16.2902 36.78 16.7202 36.01 16.7202H30.72C32.11 18.5402 32.83 20.7902 32.74 23.1202C32.71 23.8702 32.24 24.5402 31.53 24.8402C31.27 24.9502 31.01 25.0002 30.74 25.0002Z" fill="#221F1F"/>
<path d="M6 15.0006H21C19.24 12.8006 16.54 11.3906 13.5 11.3906C10.46 11.3906 7.76 12.8006 6 15.0006Z" fill="#78C478"/>
<path d="M10.8101 6.14076L21.0001 15.0008C21.1001 12.4708 20.1001 9.92076 18.0401 8.12076C15.9801 6.33076 13.3101 5.69076 10.8201 6.14076H10.8101Z" fill="#78C478"/>
<path d="M11.2598 23.4698L20.9998 15.0098C18.6198 14.5798 16.0698 15.1898 14.0998 16.8998C12.1298 18.6098 11.1698 21.0498 11.2698 23.4698H11.2598Z" fill="#78C478"/>
<path d="M30.74 23.4698L21 15.0098C23.38 14.5798 25.93 15.1898 27.9 16.8998C29.87 18.6098 30.83 21.0498 30.73 23.4698H30.74Z" fill="#B7EDB7"/>
<path d="M31.19 6.14076L21 15.0008C20.9 12.4708 21.9 9.92076 23.96 8.12076C26.02 6.33076 28.69 5.69076 31.18 6.14076H31.19Z" fill="#78C478"/>
<path d="M22.4998 29H19.4998L19.3598 31H22.6498L22.5098 29H22.4998ZM22.7898 33H19.2198L19.0098 36H23.0098L22.7998 33H22.7898Z" fill="#E0B344"/>
<path d="M19.6401 27H22.3601L22.2101 25H19.7901L19.6401 27Z" fill="#E0B344"/>
<path d="M36 15.0006H21C22.76 12.8006 25.46 11.3906 28.5 11.3906C31.54 11.3906 34.24 12.8006 36 15.0006Z" fill="#B7EDB7"/>
</svg>
