<svg width="42" height="42" viewBox="0 0 42 42" fill="none" xmlns="http://www.w3.org/2000/svg">
<path d="M4.19974 40.9501C3.31774 40.9501 2.46724 40.5721 1.87924 39.9316C1.28074 39.2806 0.986745 38.3986 1.07074 37.5271C1.87924 28.4971 10.2267 23.5201 16.3167 19.8871C18.5847 18.5326 22.7952 16.0231 22.8897 14.9206C22.8897 12.3376 16.0122 8.82005 9.83824 7.26605C8.30524 6.88805 7.29724 5.41805 7.47574 3.84305C7.65424 2.27855 8.98774 1.08155 10.5627 1.06055H10.9722C15.2982 1.06055 37.0437 1.66955 40.4982 13.7236C42.4722 20.6116 37.7157 23.9296 34.5657 26.1241C32.4132 27.6151 31.0272 28.6441 30.6807 30.0616C31.2372 31.0486 33.5472 33.5476 36.5082 34.9546C37.8522 35.5951 38.5557 37.0441 38.2302 38.4931C37.9047 39.9421 36.6447 40.9501 35.1537 40.9501H4.19974Z" fill="white"/>
<path fill-rule="evenodd" clip-rule="evenodd" d="M4.2002 37.8H35.1542C31.2587 35.952 27.2477 31.9095 27.4892 29.9985C28.3607 23.0475 39.8897 23.0475 37.4642 14.5845C34.3877 3.86402 10.6052 4.20002 10.6052 4.20002C10.6052 4.20002 26.0402 8.06402 26.0402 14.91C26.0402 21.756 5.3657 24.8955 4.2002 37.8Z" fill="#9E9E9E"/>
<path d="M35.1543 38.85H4.20033C3.90633 38.85 3.62283 38.724 3.42333 38.5035C3.22383 38.283 3.12933 37.9995 3.15033 37.7055C3.86433 29.7465 11.3613 25.2735 17.3883 21.6825C21.2943 19.3515 24.9903 17.1465 24.9903 14.9205C24.9903 9.97502 14.4273 6.24752 10.3533 5.22902C9.83883 5.10302 9.50283 4.60952 9.56583 4.09502C9.62883 3.58052 10.0698 3.17102 10.5948 3.17102C11.6028 3.15002 35.2174 2.95052 38.4828 14.3115C40.0473 19.761 36.4983 22.2285 33.3693 24.402C31.0488 26.0085 28.8648 27.531 28.5393 30.1455C28.4133 31.185 31.6053 34.9545 35.6163 36.8655C36.0573 37.0755 36.2988 37.569 36.1938 38.0415C36.0888 38.5245 35.6583 38.8605 35.1648 38.8605L35.1543 38.85ZM5.40783 36.75H31.4373C28.5813 34.608 26.1978 31.7625 26.4393 29.8725C26.8803 26.334 29.6838 24.3915 32.1513 22.6695C35.5323 20.3175 37.5378 18.69 36.4458 14.8785C34.6713 8.69402 24.9798 6.47852 17.9868 5.69102C18.2388 5.80652 18.5013 5.92202 18.7533 6.04802C24.2763 8.65202 27.0693 11.634 27.0693 14.9205C27.0693 18.207 23.0793 20.727 18.4488 23.4885C12.8733 26.817 6.60483 30.555 5.38683 36.7605L5.40783 36.75Z" fill="#221F1F"/>
</svg>
