<svg width="42" height="42" viewBox="0 0 42 42" fill="none" xmlns="http://www.w3.org/2000/svg">
<path d="M34.28 7.86016C33.94 5.89016 32.42 4.39016 30.22 3.85016C29.71 3.72016 29.2 3.66016 28.7 3.66016C27.51 3.66016 26.36 4.02016 25.37 4.70016C22.18 6.89016 21.41 11.8402 21.29 12.8102C21.08 14.4502 22.25 15.9502 23.87 16.1602C24 16.1802 24.14 16.1902 24.27 16.1902C25.78 16.1902 27.05 15.0602 27.25 13.5702C27.29 13.2702 27.35 12.9502 27.43 12.6202C28.18 13.0502 29.01 13.2702 29.83 13.2702C30.7 13.2702 31.55 13.0202 32.28 12.5402C33.8 11.5402 34.61 9.67016 34.3 7.87016L34.28 7.86016Z" fill="white"/>
<path d="M19.6402 21.2905C17.8002 21.2905 16.0102 20.4605 14.8602 19.0705C13.7002 17.6705 13.2502 15.8805 13.6002 14.0205C13.7602 13.1405 14.1602 12.3705 14.6202 11.5305C14.7002 11.3805 14.7502 11.3105 14.7802 11.2405C14.8202 11.1405 14.8602 11.0505 14.8902 10.9705C14.8702 10.9705 14.8402 10.9605 14.8102 10.9505C12.5902 10.5905 10.9902 8.58047 11.1202 6.26047C11.2502 3.95047 13.0802 2.12047 15.3702 2.01047C15.6202 1.99047 15.9302 1.98047 16.2402 1.98047C20.5002 1.98047 22.8902 3.95047 24.1402 5.60047C26.2202 8.35047 26.7202 12.3905 25.5102 16.6905C24.8802 19.3505 22.4502 21.2605 19.6302 21.2605L19.6402 21.2905Z" fill="white"/>
<path d="M14 40C7.61 40 2 32.06 2 23C2 13.94 7.52 10 13 10C18.48 10 24 14.02 24 23C24 31.19 20.87 40 14 40Z" fill="white"/>
<path d="M28 40C21.13 40 18 31.19 18 23C18 14.02 23.52 10 29 10C34.48 10 40 14.02 40 23C40 31.98 34.39 40 28 40Z" fill="white"/>
<path d="M21 40C13.93 40 9 31.04 9 23C9 14.96 13.82 10 21 10C28.18 10 33 15.22 33 23C33 30.78 28.07 40 21 40Z" fill="white"/>
<path d="M19.6399 19.2898C18.3899 19.2898 17.1699 18.7298 16.3999 17.7898C15.6299 16.8598 15.3299 15.6498 15.5699 14.3798C15.6799 13.7798 15.9899 13.1998 16.3699 12.4898C16.4499 12.3398 16.5299 12.2098 16.5799 12.1098C17.1599 10.8498 17.1199 10.2598 17.0899 10.1198C17.0299 9.72977 16.1699 9.17977 15.1699 8.99977C13.9499 8.79977 13.0499 7.67977 13.1299 6.39977C13.1999 5.10977 14.2099 4.09977 15.4799 4.03977C15.7199 4.01977 15.9899 4.00977 16.2499 4.00977C19.6899 4.00977 21.5799 5.54977 22.5499 6.83977C24.2499 9.08977 24.6299 12.4898 23.5899 16.1798C23.1499 18.0098 21.5599 19.2898 19.6399 19.2898Z" fill="#221F1F"/>
<path d="M15.5701 6.01979C21.6301 5.60979 23.0901 10.5898 21.6701 15.6298C21.0201 18.3398 17.0201 17.4898 17.5301 14.7498C17.6201 14.2798 18.1701 13.4098 18.3801 12.9798C18.8201 12.0098 19.2401 10.7898 19.0501 9.76979C18.7901 8.22979 17.0101 7.29979 15.5101 7.02979C14.9401 6.93979 15.0001 6.05979 15.5601 6.02979L15.5701 6.01979Z" fill="#78C478"/>
<path d="M14 38C8.77 38 4 30.85 4 23C4 15.15 8.85 12 13 12C17.15 12 22 14.88 22 23C22 30.45 19.25 38 14 38Z" fill="#221F1F"/>
<path d="M28 38C22.75 38 20 30.45 20 23C20 14.88 24.85 12 29 12C33.15 12 38 14.88 38 23C38 31.12 33.23 38 28 38Z" fill="#221F1F"/>
<path d="M20 23C20 29.08 17.87 36 14 36C10.13 36 6 30 6 23C6 16.92 9.13 14 13 14C16.87 14 20 16.92 20 23Z" fill="#E07F00"/>
<path d="M36 23C36 30 31.87 36 28 36C24.13 36 22 29.08 22 23C22 16.92 25.13 14 29 14C32.87 14 36 16.92 36 23Z" fill="#F9A936"/>
<path d="M21 38C15.28 38 11 30.08 11 23C11 16.32 14.93 12 21 12C27.07 12 31 16.32 31 23C31 30.08 26.72 38 21 38Z" fill="#221F1F"/>
<path d="M29 23C29 29.08 25.42 36 21 36C16.58 36 13 29.08 13 23C13 16.92 16.58 14 21 14C25.42 14 29 16.92 29 23Z" fill="#F9A936"/>
<path d="M24.2601 14.1897C24.2601 14.1897 24.1801 14.1897 24.1301 14.1897C23.5801 14.1197 23.1901 13.6197 23.2601 13.0697C23.3201 12.5697 23.9501 8.1097 26.4901 6.3597C27.4401 5.7097 28.5601 5.5097 29.7301 5.7997C31.1601 6.1497 32.1001 7.0297 32.3001 8.1997C32.4801 9.2297 32.0201 10.2897 31.1501 10.8597C30.2701 11.4397 29.1701 11.3997 28.1901 10.7597C27.7301 10.4597 27.6001 9.8397 27.9001 9.3797C28.2001 8.9197 28.8201 8.7897 29.2801 9.0897C29.5901 9.2897 29.8501 9.3297 30.0501 9.1997C30.2501 9.0697 30.3601 8.7997 30.3201 8.5497C30.2601 8.1897 29.8701 7.8997 29.2401 7.7497C28.6101 7.5997 28.1001 7.6797 27.6101 8.0097C26.0801 9.0597 25.3701 12.1997 25.2301 13.3197C25.1701 13.8197 24.7301 14.1897 24.2401 14.1897H24.2601Z" fill="#221F1F"/>
<path d="M13.02 22.4004C13.02 22.6004 13 22.7904 13 23.0004C13 29.0804 16.58 36.0004 21 36.0004C23.87 36.0004 26.39 33.0604 27.8 29.3404C21.74 28.9904 16.42 26.3404 13.02 22.4004Z" fill="#E07F00"/>
</svg>
