<svg width="42" height="42" viewBox="0 0 42 42" fill="none" xmlns="http://www.w3.org/2000/svg">
<path d="M17.2399 30.5806C17.8999 30.5706 19.4199 30.7106 20.3399 31.2906C21.2599 31.8706 20.4599 33.5106 20.4599 33.5106L17.8099 33.4606L17.1699 32.2106L17.2299 30.5806H17.2399Z" fill="#221F1F"/>
<path d="M33 38C36.866 38 40 34.866 40 31C40 27.134 36.866 24 33 24C29.134 24 26 27.134 26 31C26 34.866 29.134 38 33 38Z" fill="white"/>
<path d="M13.4302 40.02C13.2502 40.02 13.0902 40.02 12.9402 40H10.1902C7.43023 40 5.19023 37.76 5.19023 35C5.19023 33.27 6.08023 31.73 7.42023 30.84C6.29023 29.13 4.85023 26.5 5.02023 23.08C3.17023 21.79 2.11023 20.14 2.01023 18.34C1.84023 15.31 4.18023 13.3 5.89023 11.83C6.12023 11.64 6.34023 11.45 6.54023 11.26C6.96023 10.88 7.44023 10.56 7.97023 10.29C7.97023 10.27 7.97023 10.25 7.97023 10.23C8.65023 5 10.8702 2 14.0902 2C14.2402 2 14.5102 2.02 14.6602 2.04C15.2202 2.11 15.7402 2.27 16.2202 2.53C16.9202 2.18 17.6502 2.01 18.4002 2.01C19.0402 2.01 19.6502 2.14 20.2302 2.39C21.3002 2.86 23.1102 4.13 23.0902 7.38C23.0802 9.4 22.3602 11.46 21.7602 12.84C21.5002 13.43 21.2202 14 20.9202 14.53C28.5502 15.34 33.7202 19.12 35.6002 25.39C37.4702 31.59 35.6502 35.37 34.4002 37.07C33.0502 38.9 31.1102 40 29.2202 40.02H18.1902C17.3802 40.02 16.5902 39.82 15.8802 39.45C15.1202 39.83 14.2802 40.04 13.4302 40.04V40.02Z" fill="white"/>
<path d="M33 36C35.7614 36 38 33.7614 38 31C38 28.2386 35.7614 26 33 26C30.2386 26 28 28.2386 28 31C28 33.7614 30.2386 36 33 36Z" fill="#221F1F"/>
<path d="M33 34C34.6569 34 36 32.6569 36 31C36 29.3431 34.6569 28 33 28C31.3431 28 30 29.3431 30 31C30 32.6569 31.3431 34 33 34Z" fill="white"/>
<path d="M13.4301 38.0198C13.2801 38.0198 13.1501 38.0198 13.0401 37.9998H10.1901C8.54007 37.9998 7.19007 36.6498 7.19007 34.9998C7.19007 33.3498 8.54007 31.9998 10.1901 31.9998H10.4601C10.4601 31.9998 10.4601 31.9098 10.4601 31.8698C10.4101 31.6398 9.94007 30.9598 9.60007 30.4698C8.39007 28.7098 6.48007 25.9298 7.16007 22.0298C5.51007 21.1698 4.11007 19.8698 4.02007 18.2198C3.91007 16.1698 5.66007 14.6598 7.21007 13.3298C7.44007 13.1298 7.67007 12.9298 7.89007 12.7398C8.41007 12.2698 9.08007 11.9198 9.87007 11.6898C9.89007 11.2898 9.93007 10.8798 9.98007 10.4798C10.1701 8.95976 11.0401 4.00977 14.1001 4.00977C14.1801 4.00977 14.3401 4.00977 14.4201 4.02977C14.9301 4.08977 15.5901 4.31977 16.1401 4.99977C16.8101 4.40977 17.5801 4.00977 18.4101 4.00977C18.7701 4.00977 19.1101 4.07977 19.4301 4.21977C21.8601 5.27977 21.2801 8.94977 19.9301 12.0398C19.3601 13.3398 18.6901 14.4798 17.9701 15.3398C17.9901 15.6598 18.0001 15.9998 18.0101 16.3698C26.2801 16.4398 31.8501 19.8398 33.7001 25.9598C35.3201 31.3298 33.8301 34.4798 32.8001 35.8798C31.8201 37.2098 30.4801 37.9998 29.2101 38.0098H18.1901C17.2801 38.0098 16.4701 37.6098 15.9201 36.9698C15.1801 37.7298 14.2401 38.0298 13.4301 38.0298V38.0198Z" fill="#221F1F"/>
<path d="M15.1028 11.1287C15.4494 8.41138 15.0243 6.11848 14.1532 6.00736C13.2822 5.89624 12.295 8.00897 11.9484 10.7263C11.6017 13.4436 12.0268 15.7365 12.8979 15.8476C13.769 15.9587 14.7561 13.846 15.1028 11.1287Z" fill="#CAE5FF"/>
<path d="M14.88 17.19C14.52 17.19 14.18 17.12 13.86 16.98C11.43 15.92 12.01 12.25 13.36 9.16C14.04 7.61 15.88 4 18.41 4C18.77 4 19.11 4.07 19.43 4.21C20.15 4.53 21.33 5.44 21.07 8.03C20.95 9.21 20.55 10.63 19.94 12.03C19.26 13.58 17.41 17.19 14.89 17.19H14.88Z" fill="#221F1F"/>
<path d="M18.0945 11.2311C19.1907 8.72067 19.427 6.40069 18.6223 6.04928C17.8176 5.69786 16.2765 7.44807 15.1802 9.95848C14.084 12.4689 13.8477 14.7889 14.6524 15.1403C15.4572 15.4917 16.9982 13.7415 18.0945 11.2311Z" fill="#CAE5FF"/>
<path d="M13.1899 34H10.1899C9.63766 34 9.18994 34.4477 9.18994 35C9.18994 35.5523 9.63766 36 10.1899 36H13.1899C13.7422 36 14.1899 35.5523 14.1899 35C14.1899 34.4477 13.7422 34 13.1899 34Z" fill="#8EBFE2"/>
<path d="M29.1899 34H18.1899C17.6376 34 17.1899 34.4477 17.1899 35C17.1899 35.5523 17.6376 36 18.1899 36H29.1899C29.7422 36 30.1899 35.5523 30.1899 35C30.1899 34.4477 29.7422 34 29.1899 34Z" fill="#CAE5FF"/>
<path d="M10.7401 34.8598C10.7401 34.8598 12.6702 33.8698 12.4302 31.6598C12.1902 29.4498 7.21014 26.4398 9.65014 20.4598C12.1002 14.4798 14.8302 18.4798 14.8302 18.4798C23.3002 17.7298 29.8402 20.1298 31.7702 26.5298C33.7002 32.9298 30.6902 35.9898 29.1802 35.9998C27.6702 36.0098 21.7402 35.5198 20.4702 34.9098C19.2002 34.2998 18.6302 30.6698 17.2202 30.5798C15.8102 30.4898 15.5302 32.8398 15.0102 34.5798C14.4902 36.3198 13.1802 35.9998 13.1802 35.9998L10.7301 34.8598H10.7401Z" fill="#CAE5FF"/>
<path d="M10.7401 34.8598C10.7401 34.8598 12.6702 33.8698 12.4302 31.6598C12.1902 29.4498 7.21014 26.4398 9.65014 20.4598C12.1002 14.4798 14.8302 18.4798 14.8302 18.4798C23.3002 17.7298 29.8402 20.1298 31.7702 26.5298C33.7002 32.9298 30.6902 35.9898 29.1802 35.9998C27.6702 36.0098 21.7402 35.5198 20.4702 34.9098C19.2002 34.2998 18.6302 30.6698 17.2202 30.5798C15.8102 30.4898 15.5302 32.8398 15.0102 34.5798C14.4902 36.3198 13.1802 35.9998 13.1802 35.9998L10.7301 34.8598H10.7401Z" fill="#CAE5FF"/>
<path d="M13.7002 13.4506C13.7002 13.4506 10.5902 12.9906 9.22017 14.2306C7.85017 15.4706 5.94017 16.8406 6.01017 18.1106C6.08017 19.3806 8.62017 20.9306 11.4102 21.2906C14.2002 21.6406 15.8602 19.8806 15.8602 19.8806C15.8602 19.8806 16.2702 15.6206 15.7702 14.0806C15.0702 13.8106 14.2502 13.5206 13.7102 13.4506H13.7002Z" fill="#CAE5FF"/>
<path d="M14.2102 19.3105C14.2102 19.3105 10.6402 17.9505 8.84019 14.5605C7.52019 15.7105 5.94019 16.9605 6.00019 18.1105C6.05019 19.1005 7.61019 20.2605 9.61019 20.8905C11.5202 21.2705 13.1802 20.4805 14.2102 19.3105Z" fill="#8EBFE2"/>
<path d="M20.9598 29.9602C20.2998 28.6402 15.5998 27.9802 13.3798 26.2402C11.1698 24.5002 10.5598 20.1202 10.5598 20.1202L9.9698 19.7402C9.8598 19.9602 9.7598 20.1902 9.6598 20.4502C7.2098 26.4302 12.1998 29.4402 12.4398 31.6502C12.6798 33.8602 10.7498 34.8502 10.7498 34.8502L13.1998 35.9902C13.1998 35.9902 14.5198 36.3102 15.0298 34.5702C15.5498 32.8302 15.8298 30.4802 17.2398 30.5702C18.1698 30.6302 18.7298 32.2202 19.3698 33.4702L20.3598 33.4402C20.3598 33.4402 21.6298 31.2802 20.9698 29.9602H20.9598Z" fill="#8EBFE2"/>
<path d="M23.8102 27.5901L22.3002 27.9401L20.7202 29.6801L20.3402 33.4401L19.3602 33.4901C19.4502 33.6701 19.5402 33.8401 19.6402 33.9901H18.1802C17.6302 33.9901 17.1802 34.4401 17.1802 34.9901C17.1802 35.5401 17.6302 35.9901 18.1802 35.9901H26.2802C23.4402 33.3501 23.8002 27.5801 23.8002 27.5801L23.8102 27.5901Z" fill="#8EBFE2"/>
<path d="M20.1599 35.7598C19.6499 35.7598 19.2099 35.3698 19.1699 34.8498C19.1399 34.5798 18.5899 28.0998 23.4199 26.1998C23.9399 25.9998 24.5099 26.2498 24.7199 26.7598C24.9299 27.2698 24.6699 27.8498 24.1599 28.0598C20.7299 29.4098 21.1599 34.6098 21.1699 34.6598C21.2199 35.2098 20.8199 35.6998 20.2699 35.7498C20.2399 35.7498 20.2099 35.7498 20.1799 35.7498L20.1599 35.7598Z" fill="#221F1F"/>
<path d="M23.0001 34H18.6001V36H23.0001V34Z" fill="#8EBFE2"/>
<path d="M19.1802 33.0904C19.1802 33.0904 16.1302 30.8304 15.2702 33.7104C14.3402 36.7804 14.5002 29.1604 14.5002 29.1604L17.8402 28.9004L19.3502 29.7904L19.1902 31.4404V33.0904H19.1802Z" fill="#8EBFE2"/>
</svg>
