<svg width="42" height="42" viewBox="0 0 42 42" fill="none" xmlns="http://www.w3.org/2000/svg">
<path d="M40 19C40 16.67 38.85 14.53 36.98 13.24C36.59 6.98 31.37 2 25 2C21.46 2 18.15 3.55 15.89 6.2C15.27 6.07 14.64 6 14 6C9.74 6 6.07 9.05 5.2 13.12C3.23 14.4 2 16.6 2 19C2 22.86 5.14 26 9 26H10.41L10.22 26.36C10.15 26.5 10.08 26.64 10.02 26.78C9.64 27.63 9.44 28.52 9.44 29.44C9.44 33.06 12.38 36 16 36C17.74 36 19.32 35.31 20.49 34.21C20.87 37.47 23.64 40 27 40C30.61 40 33.56 37.06 33.56 33.44C33.56 32.52 33.37 31.63 32.99 30.78C32.93 30.64 32.87 30.5 32.8 30.36L30.54 26.12C30.54 26.12 30.49 26.04 30.46 26H33C36.86 26 40 22.86 40 19Z" fill="white"/>
<path d="M9 24C6.24 24 4 21.76 4 19C4 16.94 5.25 15.17 7.02 14.41C7.32 10.83 10.33 8 14 8C14.92 8 15.81 8.18 16.64 8.52C18.46 5.75 21.58 4 25 4C30.51 4 35 8.49 35 14C35 14.14 35 14.28 35 14.41C36.77 15.18 38.01 16.95 38.01 19C38.01 21.76 35.77 24 33.01 24H9Z" fill="#221F1F"/>
<path d="M26.9999 38C24.4899 38 22.4399 35.96 22.4399 33.44C22.4399 32.79 22.5799 32.15 22.8599 31.55C22.8899 31.47 22.9299 31.38 22.9699 31.3L25.2299 27.06C25.5799 26.41 26.2599 26 26.9999 26C27.7399 26 28.4199 26.41 28.7699 27.06L31.0299 31.3C31.0699 31.38 31.1099 31.47 31.1399 31.55C31.4199 32.15 31.5599 32.79 31.5599 33.44C31.5599 35.95 29.5199 38 26.9999 38Z" fill="#221F1F"/>
<path d="M15.9999 34C13.4899 34 11.4399 31.96 11.4399 29.44C11.4399 28.79 11.5799 28.15 11.8599 27.55C11.8899 27.47 11.9299 27.38 11.9699 27.3L14.2299 23.06C14.5799 22.41 15.2599 22 15.9999 22C16.7399 22 17.4199 22.41 17.7699 23.06L20.0299 27.3C20.0699 27.38 20.1099 27.47 20.1399 27.55C20.4199 28.15 20.5599 28.79 20.5599 29.44C20.5599 31.95 18.5199 34 15.9999 34Z" fill="#221F1F"/>
<path d="M33 16H32.74C32.91 15.36 33 14.69 33 14C33 9.58 29.42 6 25 6C21.5 6 18.53 8.25 17.44 11.39C16.54 10.53 15.33 10 14 10C11.24 10 9 12.24 9 15C9 15.34 9.04 15.68 9.1 16H9C7.35 16 6 17.35 6 19C6 20.65 7.35 22 9 22H33C34.65 22 36 20.65 36 19C36 17.35 34.65 16 33 16Z" fill="#C4C4C4"/>
<path d="M33 16H32.74C32.91 15.36 33 14.69 33 14C33 9.58 29.42 6 25 6C21.5 6 18.53 8.25 17.44 11.39C16.54 10.53 15.33 10 14 10C11.24 10 9 12.24 9 15C9 15.34 9.04 15.68 9.1 16H9C7.35 16 6 17.35 6 19C6 20.65 7.35 22 9 22H33C34.65 22 36 20.65 36 19C36 17.35 34.65 16 33 16Z" fill="#C4C4C4"/>
<path d="M29.2499 32.25L26.9899 28L24.7299 32.24C24.5399 32.61 24.4199 33.01 24.4199 33.44C24.4199 34.85 25.5599 36 26.9799 36C28.3999 36 29.5399 34.86 29.5399 33.44C29.5399 33.01 29.4199 32.61 29.2299 32.25H29.2499Z" fill="#A2D6FF"/>
<path d="M18.2499 28.25L15.9899 24L13.7299 28.24C13.5399 28.61 13.4199 29.01 13.4199 29.44C13.4199 30.85 14.5599 32 15.9799 32C17.3999 32 18.5399 30.86 18.5399 29.44C18.5399 29.01 18.4199 28.61 18.2299 28.25H18.2499Z" fill="#A2D6FF"/>
<path d="M21.5898 21.9992H31.7298C31.4398 19.4392 29.2898 17.4492 26.6598 17.4492C24.0298 17.4492 21.8798 19.4492 21.5898 21.9992Z" fill="#9E9E9E"/>
<path d="M10.21 12.3301C10.06 12.3301 9.92 12.3501 9.77 12.3501C9.29 13.1201 9 14.0201 9 15.0001C9 15.3401 9.04 15.6801 9.1 16.0001H9C7.35 16.0001 6 17.3501 6 19.0001C6 20.6501 7.35 22.0001 9 22.0001H22.66C21.23 16.4401 16.21 12.3301 10.2 12.3301H10.21Z" fill="#9E9E9E"/>
</svg>
