<svg width="42" height="42" viewBox="0 0 42 42" fill="none" xmlns="http://www.w3.org/2000/svg">
<path d="M20.0002 40C18.4602 40 17.1102 39.12 16.4502 37.82C15.9902 37.62 15.5602 37.33 15.1902 36.97L13.7802 35.56C13.5102 35.29 13.2902 35 13.1102 34.68H13.0502C12.7002 34.68 12.3502 34.63 12.0102 34.54L10.0802 34.02C9.58021 33.89 9.12021 33.66 8.72021 33.37C8.65021 33.37 8.58021 33.37 8.51021 33.37C8.16021 33.37 7.81021 33.32 7.47021 33.23C6.46021 32.96 5.57021 32.28 5.04021 31.37L4.04021 29.64C3.27021 28.31 3.36021 26.7 4.15021 25.47C4.09021 24.97 4.12021 24.46 4.26021 23.95L4.78021 22.02C4.88021 21.65 5.02021 21.31 5.21021 21C5.02021 20.69 4.88021 20.35 4.78021 19.98L4.26021 18.05C4.13021 17.55 4.09021 17.04 4.15021 16.53C3.36021 15.3 3.27021 13.69 4.04021 12.36L5.04021 10.63C5.57021 9.72 6.45021 9.04 7.47021 8.77C7.80021 8.68 8.15021 8.63 8.50021 8.63C8.57021 8.63 8.64021 8.63 8.71021 8.63C9.11021 8.33 9.57021 8.11 10.0602 7.98L11.9902 7.46C12.3302 7.37 12.6802 7.32 13.0302 7.32H13.0902C13.2702 7 13.4902 6.7 13.7602 6.44L15.1702 5.03C15.5402 4.66 15.9602 4.38 16.4302 4.18C17.1002 2.88 18.4502 2 19.9802 2H21.9802C23.5202 2 24.8702 2.88 25.5302 4.18C25.9902 4.38 26.4202 4.67 26.7902 5.03L28.2002 6.44C28.4702 6.71 28.6902 7 28.8702 7.32H28.9302C29.2802 7.32 29.6302 7.37 29.9702 7.46L31.9002 7.98C32.4002 8.11 32.8602 8.34 33.2602 8.63C33.3302 8.63 33.4002 8.63 33.4702 8.63C33.8202 8.63 34.1702 8.68 34.5102 8.77C35.5202 9.04 36.4102 9.72 36.9402 10.63L37.9402 12.36C38.7102 13.69 38.6202 15.3 37.8302 16.53C37.8902 17.03 37.8602 17.54 37.7202 18.05L37.2002 19.98C37.1002 20.35 36.9602 20.69 36.7702 21C36.9602 21.31 37.1002 21.65 37.2002 22.02L37.7202 23.95C37.8502 24.45 37.8902 24.96 37.8302 25.47C38.6202 26.7 38.7102 28.31 37.9402 29.64L36.9402 31.37C36.4102 32.28 35.5302 32.96 34.5102 33.23C34.1802 33.32 33.8302 33.37 33.4802 33.37C33.4102 33.37 33.3402 33.37 33.2702 33.37C32.8702 33.67 32.4102 33.89 31.9202 34.02L29.9902 34.54C29.6502 34.63 29.3002 34.68 28.9502 34.68H28.8902C28.7102 35 28.4902 35.3 28.2202 35.56L26.8102 36.97C26.4402 37.34 26.0202 37.62 25.5502 37.82C24.8802 39.12 23.5302 40 22.0002 40H20.0002Z" fill="white"/>
<path d="M21.0002 33.5502C27.9314 33.5502 33.5502 27.9314 33.5502 21.0002C33.5502 14.069 27.9314 8.4502 21.0002 8.4502C14.069 8.4502 8.4502 14.069 8.4502 21.0002C8.4502 27.9314 14.069 33.5502 21.0002 33.5502Z" fill="#221F1F"/>
<path d="M35.6002 25.9803C35.8602 25.5203 35.9302 24.9803 35.8002 24.4703L35.2802 22.5403C35.0402 21.6503 34.2302 21.0603 33.3502 21.0603C33.1802 21.0603 33.0002 21.0803 32.8302 21.1303L31.6802 21.4403C31.7402 21.1603 31.7402 20.8603 31.6802 20.5803L32.8302 20.8903C33.0002 20.9403 33.1802 20.9603 33.3502 20.9603C34.2302 20.9603 35.0402 20.3703 35.2802 19.4803L35.8002 17.5503C35.9402 17.0403 35.8702 16.4903 35.6002 16.0403C36.4602 15.4603 36.7502 14.3003 36.2202 13.3903L35.2202 11.6603C34.9502 11.2003 34.5202 10.8703 34.0102 10.7303C33.8402 10.6803 33.6702 10.6603 33.4902 10.6603C33.1902 10.6603 32.8902 10.7403 32.6202 10.8703C32.3602 10.4303 31.9402 10.0803 31.4102 9.94027L29.4802 9.42027C29.3102 9.37027 29.1302 9.35027 28.9602 9.35027C28.0802 9.35027 27.2702 9.94027 27.0302 10.8303L26.7202 11.9803C26.5102 11.7803 26.2502 11.6403 25.9702 11.5503L26.8102 10.7103C27.1902 10.3303 27.4002 9.83027 27.4002 9.30027C27.4002 8.77027 27.1902 8.26027 26.8102 7.89027L25.4002 6.48027C25.0102 6.09027 24.5002 5.90027 23.9902 5.89027C23.9202 4.85027 23.0602 4.03027 22.0002 4.03027H20.0002C18.9402 4.03027 18.0802 4.85027 18.0102 5.89027C17.5002 5.89027 16.9902 6.09027 16.6002 6.48027L15.1902 7.89027C14.8102 8.27027 14.6002 8.77027 14.6002 9.30027C14.6002 9.83027 14.8102 10.3403 15.1902 10.7103L16.0302 11.5503C15.7502 11.6403 15.5002 11.7803 15.2802 11.9803L14.9702 10.8303C14.7302 9.94027 13.9202 9.35027 13.0402 9.35027C12.8702 9.35027 12.6902 9.37027 12.5202 9.42027L10.5902 9.94027C10.0602 10.0803 9.63021 10.4303 9.38021 10.8703C9.11021 10.7403 8.81021 10.6603 8.51021 10.6603C8.34021 10.6603 8.16021 10.6803 7.99021 10.7303C7.48021 10.8703 7.04021 11.2003 6.78021 11.6603L5.78021 13.3903C5.25021 14.3103 5.54021 15.4603 6.40021 16.0403C6.14021 16.5003 6.07021 17.0403 6.20021 17.5503L6.72021 19.4803C6.96021 20.3703 7.77021 20.9603 8.65021 20.9603C8.82021 20.9603 9.00021 20.9403 9.17021 20.8903L10.3202 20.5803C10.2602 20.8603 10.2602 21.1603 10.3202 21.4403L9.17021 21.1303C9.00021 21.0803 8.82021 21.0603 8.65021 21.0603C7.77021 21.0603 6.96021 21.6503 6.72021 22.5403L6.20021 24.4703C6.06021 24.9803 6.13021 25.5303 6.40021 25.9803C5.54021 26.5603 5.25021 27.7203 5.78021 28.6303L6.78021 30.3603C7.05021 30.8203 7.48021 31.1503 7.99021 31.2903C8.16021 31.3403 8.33021 31.3603 8.51021 31.3603C8.81021 31.3603 9.11021 31.2803 9.38021 31.1503C9.64021 31.5903 10.0602 31.9403 10.5902 32.0803L12.5202 32.6003C12.6902 32.6503 12.8702 32.6703 13.0402 32.6703C13.9202 32.6703 14.7302 32.0803 14.9702 31.1903L15.2802 30.0403C15.4902 30.2403 15.7502 30.3803 16.0302 30.4703L15.1902 31.3103C14.8102 31.6903 14.6002 32.1903 14.6002 32.7203C14.6002 33.2503 14.8102 33.7603 15.1902 34.1303L16.6002 35.5403C16.9902 35.9303 17.5002 36.1203 18.0102 36.1303C18.0802 37.1703 18.9402 37.9903 20.0002 37.9903H22.0002C23.0602 37.9903 23.9202 37.1703 23.9902 36.1303C24.5002 36.1303 25.0102 35.9303 25.4002 35.5403L26.8102 34.1303C27.1902 33.7503 27.4002 33.2503 27.4002 32.7203C27.4002 32.1903 27.1902 31.6803 26.8102 31.3103L25.9702 30.4703C26.2502 30.3803 26.5002 30.2403 26.7202 30.0403L27.0302 31.1903C27.2702 32.0803 28.0802 32.6703 28.9602 32.6703C29.1302 32.6703 29.3102 32.6503 29.4802 32.6003L31.4102 32.0803C31.9402 31.9403 32.3702 31.5903 32.6202 31.1503C32.8902 31.2803 33.1902 31.3603 33.4902 31.3603C33.6602 31.3603 33.8402 31.3403 34.0102 31.2903C34.5202 31.1503 34.9602 30.8203 35.2202 30.3603L36.2202 28.6303C36.7502 27.7103 36.4602 26.5603 35.6002 25.9803Z" fill="#221F1F"/>
<path d="M22 6H20V36H22V6Z" fill="white"/>
<path d="M7.51025 27.6333L8.51025 29.3653L34.491 14.3653L33.491 12.6333L7.51025 27.6333Z" fill="white"/>
<path d="M33.4895 29.3668L34.4895 27.6348L8.50879 12.6348L7.50879 14.3668L33.4895 29.3668Z" fill="white"/>
<path d="M21.0001 10.8404L18.0201 7.86035L16.6001 9.28035L21.0001 13.6704V10.8404Z" fill="white"/>
<path d="M21 10.8404L23.98 7.86035L25.4 9.28035L21 13.6704V10.8404Z" fill="white"/>
<path d="M21.0001 31.1601L18.0201 34.1401L16.6001 32.7201L21.0001 28.3301V31.1601Z" fill="white"/>
<path d="M21 31.1601L23.98 34.1401L25.4 32.7201L21 28.3301V31.1601Z" fill="white"/>
<path d="M12.1999 26.0799L11.1099 30.1499L13.0499 30.6699L14.6499 24.6699L12.1999 26.0799Z" fill="white"/>
<path d="M12.1999 26.0798L8.12988 24.9898L8.64988 23.0498L14.6499 24.6598L12.1999 26.0798Z" fill="white"/>
<path d="M29.8001 15.9199L33.8701 17.0099L33.3501 18.9499L27.3501 17.3399L29.8001 15.9199Z" fill="white"/>
<path d="M29.8001 15.9201L30.8901 11.8501L28.9501 11.3301L27.3501 17.3301L29.8001 15.9201Z" fill="white"/>
<path d="M29.8001 26.0798L33.8701 24.9898L33.3501 23.0498L27.3501 24.6598L29.8001 26.0798Z" fill="white"/>
<path d="M29.8001 26.0799L30.8901 30.1499L28.9501 30.6699L27.3501 24.6699L29.8001 26.0799Z" fill="white"/>
<path d="M12.1999 15.9201L11.1099 11.8501L13.0499 11.3301L14.6499 17.3301L12.1999 15.9201Z" fill="white"/>
<path d="M12.1999 15.9199L8.12988 17.0099L8.64988 18.9499L14.6499 17.3399L12.1999 15.9199Z" fill="white"/>
<path d="M25.3698 28.5697H16.6298L12.2598 20.9997L16.6298 13.4297H25.3698L29.7398 20.9997L25.3698 28.5697ZM17.7798 26.5697H24.2098L27.4298 20.9997L24.2098 15.4297H17.7798L14.5598 20.9997L17.7798 26.5697Z" fill="white"/>
<path d="M25.37 28.5701L24.22 26.5701H22V22.7301L20 19.2701L16.68 17.3501L17.79 15.4301L16.64 13.4301L14.95 16.3501L14.29 15.9701L13.05 11.3301L11.12 11.8501L11.85 14.5601L8.52002 12.6401L7.52002 14.3701L10.85 16.2901L8.14002 17.0201L8.66002 18.9501L13.3 17.7101L13.96 18.0901L12.27 21.0101L13.96 23.9301L13.3 24.3101L8.66002 23.0701L8.14002 25.0001L10.85 25.7301L7.52002 27.6501L8.52002 29.3801L11.85 27.4601L11.12 30.1701L13.05 30.6901L14.29 26.0501L14.95 25.6701L16.64 28.5901H20.01V29.3501L16.61 32.7501L18.02 34.1601L20 32.1801V36.0201H22V32.1801L23.98 34.1601L25.39 32.7501L21.99 29.3501V28.5901H25.36L25.37 28.5701ZM15.68 22.9201L14.57 21.0001L15.68 19.0801L19 21.0001L15.68 22.9201ZM20 26.5701H17.78L16.67 24.6501L19.99 22.7301V26.5701H20Z" fill="#A2D6FF"/>
</svg>
