<svg width="42" height="42" viewBox="0 0 42 42" fill="none" xmlns="http://www.w3.org/2000/svg">
<path d="M19.9999 40.0005C18.1899 40.0005 16.6499 38.7905 16.1599 37.1305C15.2799 36.8105 14.5199 36.1805 14.0399 35.3605L13.3699 34.2005H12.0299C11.0699 34.2005 10.1599 33.8705 9.43994 33.2505C9.12994 33.3205 8.81994 33.3605 8.49994 33.3605C8.14994 33.3605 7.79994 33.3105 7.45994 33.2205C6.44994 32.9505 5.55994 32.2705 5.02994 31.3605L4.02994 29.6305C3.11994 28.0605 3.40994 26.1305 4.58994 24.8705C4.41994 23.9405 4.58994 22.9805 5.05994 22.1505L5.72994 20.9905L5.05994 19.8305C4.57994 19.0005 4.41994 18.0405 4.58994 17.1105C3.39994 15.8605 3.11994 13.9205 4.02994 12.3505L5.02994 10.6205C5.55994 9.71047 6.43994 9.03047 7.45994 8.76047C7.78994 8.67047 8.13994 8.62047 8.48994 8.62047C8.80994 8.62047 9.11994 8.66047 9.42994 8.73047C10.1499 8.11047 11.0599 7.78047 12.0199 7.78047H13.3599L14.0299 6.62047C14.4999 5.80047 15.2599 5.17047 16.1499 4.85047C16.6399 3.19047 18.1699 1.98047 19.9899 1.98047H21.9899C23.7999 1.98047 25.3399 3.19047 25.8299 4.85047C26.7099 5.17047 27.4699 5.80047 27.9499 6.62047L28.6199 7.78047H29.9599C30.9199 7.78047 31.8299 8.11047 32.5499 8.73047C32.8599 8.66047 33.1699 8.62047 33.4899 8.62047C33.8399 8.62047 34.1899 8.67047 34.5299 8.76047C35.5399 9.03047 36.4299 9.71047 36.9599 10.6205L37.9599 12.3505C38.8699 13.9205 38.5799 15.8505 37.3999 17.1105C37.5699 18.0405 37.3999 19.0005 36.9299 19.8305L36.2599 20.9905L36.9299 22.1505C37.4099 22.9805 37.5699 23.9405 37.3999 24.8705C38.5899 26.1205 38.8699 28.0605 37.9599 29.6305L36.9599 31.3605C36.4299 32.2705 35.5499 32.9505 34.5299 33.2205C34.1999 33.3105 33.8499 33.3605 33.4999 33.3605C33.1799 33.3605 32.8699 33.3205 32.5599 33.2505C31.8399 33.8705 30.9299 34.2005 29.9699 34.2005H28.6299L27.9599 35.3605C27.4899 36.1805 26.7299 36.8105 25.8399 37.1305C25.3499 38.7905 23.8199 40.0005 21.9999 40.0005H19.9999Z" fill="white"/>
<path d="M35.4898 25.9L34.8898 25.55C35.1298 25.31 35.2998 25.01 35.3898 24.67C35.5298 24.16 35.4598 23.61 35.1898 23.15L34.1898 21.42C34.0998 21.26 33.9898 21.12 33.8598 20.99C33.9898 20.87 34.0998 20.72 34.1898 20.56L35.1898 18.83C35.4598 18.37 35.5298 17.83 35.3898 17.31C35.2998 16.98 35.1298 16.68 34.8898 16.43L35.4898 16.08C36.4498 15.53 36.7698 14.3 36.2198 13.35L35.2198 11.62C34.9498 11.16 34.5198 10.83 34.0098 10.69C33.8398 10.64 33.6698 10.62 33.4898 10.62C33.1398 10.62 32.7998 10.71 32.4898 10.89L31.8898 11.24C31.7998 10.91 31.6198 10.61 31.3798 10.37C30.9998 10 30.4998 9.79 29.9698 9.79H27.9698C27.7798 9.79 27.5998 9.82 27.4298 9.86C27.3898 9.69 27.3198 9.52 27.2198 9.36L26.2198 7.63C25.9498 7.17 25.5198 6.84 25.0098 6.7C24.8398 6.65 24.6698 6.63 24.4898 6.63C24.3098 6.63 24.1598 6.65 23.9998 6.69V6C23.9998 4.9 23.0998 4 21.9998 4H19.9998C18.8998 4 17.9998 4.9 17.9998 6V6.69C17.8398 6.65 17.6798 6.63 17.5098 6.63C17.3398 6.63 17.1598 6.65 16.9898 6.7C16.4798 6.84 16.0398 7.17 15.7798 7.63L14.7798 9.36C14.6898 9.52 14.6198 9.69 14.5698 9.86C14.3998 9.81 14.2198 9.79 14.0298 9.79H12.0298C11.4998 9.79 10.9898 10 10.6198 10.37C10.3798 10.61 10.1998 10.91 10.1098 11.24L9.50977 10.89C9.19977 10.71 8.85977 10.62 8.50977 10.62C8.33977 10.62 8.15977 10.64 7.98977 10.69C7.47977 10.83 7.03977 11.16 6.77977 11.62L5.77977 13.35C5.22977 14.31 5.55977 15.53 6.50977 16.08L7.10977 16.43C6.86977 16.67 6.69977 16.97 6.60977 17.31C6.46977 17.82 6.53977 18.37 6.80977 18.83L7.80977 20.56C7.89977 20.72 8.00977 20.86 8.13977 20.99C8.00977 21.11 7.89977 21.26 7.80977 21.42L6.80977 23.15C6.53977 23.61 6.46977 24.15 6.60977 24.67C6.69977 25 6.86977 25.3 7.10977 25.55L6.50977 25.9C5.54977 26.45 5.22977 27.68 5.77977 28.63L6.77977 30.36C7.04977 30.82 7.47977 31.15 7.98977 31.29C8.15977 31.34 8.32977 31.36 8.50977 31.36C8.85977 31.36 9.19977 31.27 9.50977 31.09L10.1098 30.74C10.1998 31.07 10.3798 31.37 10.6198 31.61C10.9998 31.98 11.4998 32.19 12.0298 32.19H14.0298C14.2198 32.19 14.3998 32.16 14.5698 32.12C14.6098 32.29 14.6798 32.46 14.7798 32.62L15.7798 34.35C16.0498 34.81 16.4798 35.14 16.9898 35.28C17.1598 35.33 17.3298 35.35 17.5098 35.35C17.6898 35.35 17.8398 35.33 17.9998 35.29V35.98C17.9998 37.08 18.8998 37.98 19.9998 37.98H21.9998C23.0998 37.98 23.9998 37.08 23.9998 35.98V35.29C24.1598 35.33 24.3198 35.35 24.4898 35.35C24.6598 35.35 24.8398 35.33 25.0098 35.28C25.5198 35.14 25.9598 34.81 26.2198 34.35L27.2198 32.62C27.3098 32.46 27.3798 32.29 27.4298 32.12C27.5998 32.17 27.7798 32.19 27.9698 32.19H29.9698C30.4998 32.19 31.0098 31.98 31.3798 31.61C31.6198 31.37 31.7998 31.07 31.8898 30.74L32.4898 31.09C32.7998 31.27 33.1398 31.36 33.4898 31.36C33.6598 31.36 33.8398 31.34 34.0098 31.29C34.5198 31.15 34.9598 30.82 35.2198 30.36L36.2198 28.63C36.7698 27.67 36.4398 26.45 35.4898 25.9Z" fill="#221F1F"/>
<path d="M22 6H20V36H22V6Z" fill="#DEEEFC"/>
<path d="M7.50977 27.6333L8.50977 29.3653L34.4906 14.3653L33.4906 12.6333L7.50977 27.6333Z" fill="#DEEEFC"/>
<path d="M33.49 29.3668L34.49 27.6348L8.50928 12.6348L7.50928 14.3668L33.49 29.3668Z" fill="#DEEEFC"/>
<path d="M20.9998 10.6509L17.5098 8.63086L16.5098 10.3709L20.9998 12.9609V10.6509Z" fill="#DEEEFC"/>
<path d="M21 10.6509L24.49 8.63086L25.49 10.3709L21 12.9609V10.6509Z" fill="#DEEEFC"/>
<path d="M20.9998 31.3491L17.5098 33.3691L16.5098 31.6291L20.9998 29.0391V31.3491Z" fill="white"/>
<path d="M21 31.3491L24.49 33.3691L25.49 31.6291L21 29.0391V31.3491Z" fill="white"/>
<path d="M12.04 26.1795V30.2095H14.04V25.0195L12.04 26.1795Z" fill="white"/>
<path d="M12.0402 26.1797L8.55029 24.1597L9.55029 22.4297L14.0402 25.0197L12.0402 26.1797Z" fill="white"/>
<path d="M29.96 15.8203L33.45 17.8403L32.45 19.5703L27.96 16.9803L29.96 15.8203Z" fill="#DEEEFC"/>
<path d="M29.96 15.8191V11.7891H27.96V16.9791L29.96 15.8191Z" fill="#DEEEFC"/>
<path d="M29.96 26.1797L33.45 24.1597L32.45 22.4297L27.96 25.0197L29.96 26.1797Z" fill="#DEEEFC"/>
<path d="M29.96 26.1795V30.2095H27.96V25.0195L29.96 26.1795Z" fill="#DEEEFC"/>
<path d="M12.04 15.8191V11.7891H14.04V16.9791L12.04 15.8191Z" fill="#DEEEFC"/>
<path d="M12.0402 15.8203L8.55029 17.8403L9.55029 19.5703L14.0402 16.9803L12.0402 15.8203Z" fill="#DEEEFC"/>
<path d="M18.9998 21L13.0398 24.44L9.54977 22.43L8.54977 24.16L11.0398 25.6L7.50977 27.63L8.50977 29.37L12.0398 27.33V30.21H14.0398V26.18L19.9998 22.73V29.62L16.5098 31.63L17.5098 33.37L19.9998 31.93V36H21.9998V31.93L24.4898 33.37L25.4898 31.63L21.9998 29.62V22.73L18.9998 21Z" fill="#A2D6FF"/>
</svg>
