<svg width="42" height="42" viewBox="0 0 42 42" fill="none" xmlns="http://www.w3.org/2000/svg">
<path d="M14.0001 39.9995C9.59012 39.9995 6.00012 36.4095 6.00012 31.9995C6.00012 30.5795 6.74012 29.3295 7.86012 28.6195C7.62012 28.0095 7.45012 27.3795 7.35012 26.7295C7.17012 25.6195 7.20012 24.4895 7.43012 23.3995C4.78012 20.9995 3.73012 17.2295 4.86012 13.7495C5.99012 10.2695 9.04012 7.82953 12.6101 7.44953C14.0701 4.18953 17.3301 2.01953 21.0001 2.01953C24.6701 2.01953 27.9301 4.18953 29.3901 7.44953C32.9701 7.82953 36.0101 10.2695 37.1501 13.7495C38.2801 17.2395 37.2301 21.0095 34.5801 23.3995C34.8101 24.4895 34.8401 25.6095 34.6601 26.7295C34.5601 27.3795 34.3901 28.0095 34.1501 28.6195C35.2701 29.3295 36.0101 30.5795 36.0101 31.9995C36.0101 36.4095 32.4201 39.9995 28.0101 39.9995H14.0101H14.0001Z" fill="white"/>
<path d="M21 38C22.1 38 20 37.1 20 36C20 32.69 17.31 30 14 30H10C8.9 30 8 30.9 8 32C8 35.31 10.69 38 14 38H21Z" fill="#221F1F"/>
<path d="M20.9999 38C19.8999 38 21.9999 37.1 21.9999 36C21.9999 32.69 24.6899 30 27.9999 30H31.9999C33.0999 30 33.9999 30.9 33.9999 32C33.9999 35.31 31.3099 38 27.9999 38H20.9999Z" fill="#221F1F"/>
<path d="M24 36V27C24 25.8954 23.1046 25 22 25H20C18.8954 25 18 25.8954 18 27V36C18 37.1046 18.8954 38 20 38H22C23.1046 38 24 37.1046 24 36Z" fill="#221F1F"/>
<path d="M22 27H20V36H22V27Z" fill="#9CDB9C"/>
<path d="M25.5799 32.4891C23.8999 32.4891 22.2799 31.8891 20.9999 30.8391C19.7199 31.8891 18.1099 32.4891 16.4199 32.4891C14.8899 32.4891 13.4299 32.0191 12.1999 31.1191C10.6499 29.9891 9.62994 28.3291 9.32994 26.4291C9.12994 25.1391 9.26994 23.8491 9.73994 22.6691C7.03994 20.9491 5.72994 17.5591 6.76994 14.3891C7.73994 11.4191 10.4799 9.41906 13.6099 9.41906C13.7599 9.41906 13.8999 9.41906 14.0499 9.42906C14.8499 6.32906 17.6699 4.03906 21.0099 4.03906C24.3499 4.03906 27.1699 6.32906 27.9699 9.42906C28.1199 9.42906 28.2599 9.41906 28.4099 9.41906C31.5299 9.41906 34.2799 11.4191 35.2499 14.3891C36.2799 17.5691 34.9699 20.9591 32.2799 22.6791C32.7499 23.8591 32.8899 25.1491 32.6899 26.4391C32.3899 28.3391 31.3699 29.9991 29.8099 31.1291C28.5699 32.0291 27.1099 32.4991 25.5899 32.4991L25.5799 32.4891ZM20.2899 19.2291C20.4099 19.3091 20.5399 19.3891 20.6499 19.4791C20.7699 19.5691 20.8899 19.6591 20.9999 19.7491C21.1099 19.6591 21.2299 19.5691 21.3499 19.4791C21.4699 19.3891 21.5899 19.3091 21.7099 19.2291C21.6599 19.0891 21.6099 18.9491 21.5599 18.8091C21.5099 18.6691 21.4699 18.5291 21.4399 18.3791C21.2899 18.3791 21.1499 18.3891 20.9999 18.3891C20.8499 18.3891 20.7099 18.3891 20.5599 18.3791C20.5199 18.5191 20.4799 18.6591 20.4399 18.7991C20.3899 18.9391 20.3399 19.0791 20.2899 19.2191V19.2291Z" fill="#221F1F"/>
<path d="M33.34 14.9895C32.45 12.2595 29.53 10.7695 26.8 11.6595C26.57 11.7395 26.35 11.8295 26.13 11.9295C26.16 11.6895 26.19 11.4595 26.19 11.2095C26.19 8.33953 23.87 6.01953 21 6.01953C18.13 6.01953 15.81 8.33953 15.81 11.2095C15.81 11.4495 15.83 11.6895 15.87 11.9295C15.66 11.8295 15.44 11.7295 15.2 11.6595C12.47 10.7695 9.55001 12.2695 8.66001 14.9895C7.77001 17.7195 9.27001 20.6395 11.99 21.5295C12.22 21.6095 12.46 21.6595 12.69 21.6995C12.53 21.8695 12.37 22.0495 12.22 22.2495C10.54 24.5695 11.05 27.8095 13.37 29.4995C15.69 31.1795 18.93 30.6695 20.62 28.3495C20.76 28.1495 20.89 27.9495 21 27.7395C21.11 27.9495 21.23 28.1595 21.38 28.3495C23.06 30.6695 26.31 31.1795 28.63 29.4995C30.95 27.8195 31.46 24.5695 29.78 22.2495C29.64 22.0495 29.48 21.8695 29.31 21.6995C29.54 21.6595 29.78 21.6095 30.01 21.5295C32.74 20.6395 34.23 17.7195 33.34 14.9895ZM21 22.8595C20.64 22.1895 20.13 21.5795 19.47 21.0995C18.81 20.6195 18.08 20.3295 17.33 20.1895C17.86 19.6395 18.28 18.9695 18.53 18.1995C18.78 17.4295 18.84 16.6395 18.73 15.8795C19.42 16.2095 20.18 16.4095 21 16.4095C21.82 16.4095 22.58 16.2195 23.27 15.8795C23.16 16.6395 23.22 17.4295 23.47 18.1995C23.72 18.9695 24.14 19.6495 24.67 20.1895C23.92 20.3195 23.18 20.6195 22.52 21.0995C21.86 21.5795 21.35 22.1895 20.99 22.8595H21Z" fill="#F0AA97"/>
<path d="M18 36H14C11.79 36 10 34.21 10 32H14C16.21 32 18 33.79 18 36Z" fill="#9CDB9C"/>
<path d="M28 32H32C32 34.21 30.21 36 28 36H24C24 33.79 25.79 32 28 32Z" fill="#78C478"/>
<path d="M22.8998 20.8605C22.7798 20.9405 22.6498 21.0105 22.5298 21.1005C21.8698 21.5805 21.3598 22.1905 21.0098 22.8605C20.6498 22.1905 20.1398 21.5805 19.4898 21.1005C18.8298 20.6205 18.0998 20.3305 17.3398 20.1905C17.8698 19.6405 18.2898 18.9705 18.5398 18.2005C18.7898 17.4305 18.8498 16.6405 18.7398 15.8805C19.4298 16.2105 20.1898 16.4105 21.0098 16.4105C21.2098 16.4105 21.4098 16.4005 21.5998 16.3705L18.7498 6.56055C17.0198 7.40055 15.8198 9.16055 15.8198 11.2105C15.8198 11.4505 15.8398 11.6905 15.8798 11.9305C15.6698 11.8305 15.4498 11.7305 15.2098 11.6605C12.4798 10.7705 9.55977 12.2705 8.66977 14.9905C7.77977 17.7205 9.27977 20.6405 11.9998 21.5305C12.2298 21.6105 12.4698 21.6605 12.6998 21.7005C12.5398 21.8705 12.3798 22.0505 12.2298 22.2505C10.5498 24.5705 11.0598 27.8105 13.3798 29.5005C15.6998 31.1905 18.9398 30.6705 20.6298 28.3505C20.7698 28.1505 20.8998 27.9505 21.0098 27.7405C21.1198 27.9505 21.2398 28.1605 21.3898 28.3505C22.4298 29.7805 24.0598 30.5205 25.6998 30.4805L22.9098 20.8605H22.8998Z" fill="#D88C7D"/>
<path d="M21 25C24.3137 25 27 22.3137 27 19C27 15.6863 24.3137 13 21 13C17.6863 13 15 15.6863 15 19C15 22.3137 17.6863 25 21 25Z" fill="#221F1F"/>
<path d="M21 23C23.2091 23 25 21.2091 25 19C25 16.7909 23.2091 15 21 15C18.7909 15 17 16.7909 17 19C17 21.2091 18.7909 23 21 23Z" fill="#F7DF69"/>
<path d="M18.1 16.25C17.42 16.97 17 17.93 17 19C17 21.21 18.79 23 21 23C22.35 23 23.55 22.32 24.27 21.29C21.55 20.35 19.34 18.54 18.1 16.25Z" fill="#F4AB69"/>
</svg>
