<svg width="42" height="42" viewBox="0 0 42 42" fill="none" xmlns="http://www.w3.org/2000/svg">
<path d="M39.0999 5.30005C39.0999 4.50005 38.7999 3.70005 38.1999 3.20005C37.5999 2.60005 36.8999 2.30005 36.0999 2.30005C29.0999 2.30005 22.8999 6.00005 19.4999 11.8C16.7999 8.70005 12.7999 6.70005 8.59986 6.70005C7.79986 6.70005 7.09986 7.00005 6.49986 7.50005C5.89986 8.10005 5.59986 8.90005 5.59986 9.70005C5.59986 16.4 10.4999 22.3001 16.8999 23.7001V24.2001C10.6999 25.4001 5.49986 29.7001 3.09986 35.7001C2.69986 36.6001 2.79986 37.7001 3.39986 38.5C3.99986 39.3 4.89986 39.8 5.89986 39.8H35.5999C36.5999 39.8 37.4999 39.3 38.0999 38.5C38.6999 37.7001 38.7999 36.6001 38.3999 35.7001C35.7999 29.2001 29.8999 24.8 22.9999 24V23.9C32.0999 22.3 39.0999 14.5 39.0999 5.30005Z" fill="white"/>
<path fill-rule="evenodd" clip-rule="evenodd" d="M5.89941 36.7001H35.5994C33.1994 30.8001 27.4994 26.7001 20.7994 26.7001C14.0994 26.7001 8.29941 30.9001 5.89941 36.7001Z" fill="#BF9E6F"/>
<path d="M35.5996 37.7001H5.89964C5.59964 37.7001 5.29964 37.5 5.09964 37.3C4.89964 37 4.79964 36.7001 4.99964 36.4001C7.59964 29.9001 13.7996 25.8 20.7996 25.8C27.7996 25.8 33.8996 30.0001 36.5996 36.4001C36.6996 36.7001 36.6996 37.1 36.4996 37.3C36.1996 37.6 35.8996 37.7001 35.5996 37.7001ZM7.49964 35.7001H33.9996C31.3996 30.8001 26.3996 27.7001 20.6996 27.7001C14.9996 27.7001 9.99964 30.8001 7.49964 35.7001Z" fill="#221F1F"/>
<path fill-rule="evenodd" clip-rule="evenodd" d="M19.9992 21.0001C19.9992 14.7001 14.8992 9.70007 8.69922 9.70007C8.69922 15.9001 13.6992 21.0001 19.9992 21.0001Z" fill="#9CDB9C"/>
<path d="M19.9996 22.0001C13.1996 22.0001 7.69961 16.4001 7.59961 9.70007C7.59961 9.40007 7.69961 9.20007 7.89961 9.00007C8.09961 8.80007 8.29961 8.70007 8.59961 8.70007C15.3996 8.70007 20.8996 14.3001 20.8996 21.0001C20.8996 21.3001 20.7996 21.5001 20.5996 21.7001C20.4996 21.9001 20.1996 22.0001 19.9996 22.0001ZM9.69961 10.7001C10.1996 15.5001 14.0996 19.4001 18.8996 19.9001C18.3996 15.1001 14.4996 11.2001 9.69961 10.7001Z" fill="#221F1F"/>
<path fill-rule="evenodd" clip-rule="evenodd" d="M20 21.0001C20 12.3001 27.2 5.30007 36.1 5.20007C36.1 13.9001 28.9 21.0001 20 21.0001Z" fill="#9CDB9C"/>
<path d="M20 22C19.7 22 19.5 21.9001 19.3 21.7001C19.1 21.5 19 21.3 19 21C19 11.8 26.7 4.30005 36.1 4.30005C36.4 4.30005 36.6 4.40005 36.8 4.60005C37 4.70005 37.1 5.00005 37.1 5.30005C37.1 14.4 29.4 22 20 22ZM35.1 6.30005C27.6 6.80005 21.6 12.7 21 20C28.5 19.4 34.5 13.6 35.1 6.30005Z" fill="#221F1F"/>
<path d="M20 27.7C19.4 27.7 19 27.3 19 26.7V21C19 20.4 19.4 20 20 20C20.6 20 21 20.4 21 21V26.7C21 27.3 20.5 27.7 20 27.7Z" fill="#221F1F"/>
<path fill-rule="evenodd" clip-rule="evenodd" d="M22 35.7001C20.7 32.7001 17.8 30.4001 14.1 29.2001C11.3 30.6001 9 32.8001 7.5 35.7001H22Z" fill="#AD8657"/>
</svg>
