<svg width="42" height="42" viewBox="0 0 42 42" fill="none" xmlns="http://www.w3.org/2000/svg">
<path d="M31.5002 40.2001C31.0002 40.2001 30.6002 40.2001 30.1002 39.9001L21.0002 35.2001L11.9002 39.9001C11.5002 40.1001 11.0002 40.2001 10.5002 40.2001C10.0002 40.2001 9.30023 40 8.70023 39.6C7.80023 38.9 7.30023 37.8 7.50023 36.7001L9.10023 26.5L1.80023 19.2001C1.00023 18.4001 0.700233 17.2 1.10023 16.2C1.50023 15.1 2.40023 14.3 3.50023 14.2L13.6002 12.6L18.3002 3.40005C18.8002 2.40005 19.8002 1.80005 21.0002 1.80005C22.2002 1.80005 23.2002 2.40005 23.7002 3.40005L28.4002 12.6L38.5002 14.2C39.6002 14.4 40.5002 15.2 40.9002 16.2C41.3002 17.3 40.9002 18.5 40.2002 19.3L32.9002 26.6L34.5002 36.8C34.7002 37.9 34.2002 39 33.3002 39.7001C32.8002 40.1001 32.2002 40.3 31.5002 40.3V40.2001Z" fill="white"/>
<path fill-rule="evenodd" clip-rule="evenodd" d="M21 4.80005L26.3 15.3L38 17.2L29.7 25.5L31.5 37.2001L21 31.8L10.5 37.2001L12.3 25.5L4 17.2L15.7 15.3L21 4.80005Z" fill="#F7DF69"/>
<path fill-rule="evenodd" clip-rule="evenodd" d="M11.3 16L4 17.1L12.3 25.4L10.4 37.1L20.9 31.7L31.4 37.1L30.4 31.1C21.4 30.3 13.9 24.2 11.1 16H11.3Z" fill="#F4AB69"/>
<path d="M31.4998 38.2C31.2998 38.2 31.1998 38.2 30.9998 38.1L20.9998 32.9L10.9998 38.1C10.6998 38.3 10.2998 38.2 9.99975 38.1C9.69975 37.9 9.49976 37.5 9.59976 37.1L11.2998 25.9L3.39976 18C3.09975 17.7 2.99975 17.3 3.19975 17C3.29975 16.6 3.59975 16.4 3.99975 16.3L15.1998 14.5L20.2998 4.49998C20.5998 3.79998 21.6998 3.79998 22.0998 4.49998L27.1998 14.5L38.3998 16.3C38.7998 16.3 39.0998 16.6 39.1998 17C39.2998 17.4 39.1998 17.7 38.9998 18L31.0998 25.9L32.7998 37.1C32.7998 37.5 32.7998 37.8 32.3998 38.1C32.1998 38.2 31.9998 38.3 31.7998 38.3L31.4998 38.2ZM20.9998 30.8C21.1998 30.8 21.2998 30.8 21.4998 30.9L30.2998 35.4L28.7998 25.6C28.7998 25.3 28.7998 25 29.0998 24.7L35.9998 17.8L26.1998 16.2C25.8998 16.2 25.5998 15.9 25.4998 15.7L21.0998 6.99998L16.6998 15.7C16.5998 16 16.2998 16.2 15.9998 16.2L6.19975 17.8L13.0998 24.7C13.2998 24.9 13.3998 25.2 13.3998 25.6L11.8998 35.4L20.6998 30.9C20.7998 30.9 20.9998 30.8 21.1998 30.8H20.9998Z" fill="#221F1F"/>
</svg>
