<svg width="42" height="42" viewBox="0 0 42 42" fill="none" xmlns="http://www.w3.org/2000/svg">
<path d="M37.1998 24C38.8998 24 40.1998 22.7001 40.1998 21C40.1998 19.3 38.8998 18 37.1998 18H35.0998C34.9998 17.5 34.8998 17 34.6998 16.5L36.4998 15.5C37.8998 14.7 38.3998 12.8 37.5998 11.4C37.0998 10.5 36.0998 9.90005 34.9998 9.90005C34.4998 9.90005 33.9998 10 33.4998 10.3L31.6998 11.3C31.3998 10.9 30.9998 10.6 30.5998 10.2L31.6998 8.40005C32.4998 7.00005 31.9998 5.20005 30.5998 4.40005C30.0998 4.10005 29.5998 4.00005 29.0998 4.00005C27.9998 4.00005 26.9998 4.60005 26.4998 5.50005L25.3998 7.40005C24.9998 7.20005 24.4998 7.00005 23.9998 6.90005V4.80005C23.9998 3.10005 22.6998 1.80005 20.9998 1.80005C19.2998 1.80005 17.9998 3.10005 17.9998 4.80005V6.90005C17.4998 7.00005 16.9998 7.10005 16.5998 7.30005L15.4998 5.40005C14.9998 4.50005 13.9998 3.90005 12.8998 3.90005C12.3998 3.90005 11.8998 4.00005 11.3998 4.30005C9.9998 5.20005 9.4998 7.00005 10.2998 8.40005L11.3998 10.2C10.9998 10.5 10.6998 10.9 10.2998 11.3L8.4998 10.3C7.9998 10 7.4998 9.90005 6.89981 9.90005C5.79981 9.90005 4.7998 10.5 4.2998 11.4C3.4998 12.8 3.9998 14.7 5.3998 15.5L7.1998 16.5C6.9998 17 6.8998 17.5 6.7998 18H4.7998C3.0998 18 1.7998 19.3 1.7998 21C1.7998 22.7001 3.0998 24 4.7998 24H6.89981C6.9998 24.5 7.0998 25 7.2998 25.5L5.4998 26.5C4.0998 27.3 3.5998 29.2001 4.3998 30.6C4.8998 31.5 5.8998 32.1 6.9998 32.1C7.4998 32.1 7.9998 32 8.4998 31.7001L10.2998 30.7001C10.5998 31.1 10.9998 31.4 11.3998 31.8L10.2998 33.6C9.4998 35 9.9998 36.9001 11.3998 37.7001C11.8998 38 12.3998 38.1 12.8998 38.1C13.9998 38.1 14.9998 37.5 15.4998 36.6L16.5998 34.7001C17.0998 34.9001 17.5998 35 17.9998 35.1V37.2001C17.9998 38.9001 19.2998 40.2001 20.9998 40.2001C22.6998 40.2001 23.9998 38.9001 23.9998 37.2001V35.1C24.4998 35 24.9998 34.9001 25.3998 34.7001L26.4998 36.6C26.9998 37.5 27.9998 38.1 29.0998 38.1C29.5998 38.1 30.0998 38 30.5998 37.7001C31.9998 36.9001 32.4998 35 31.6998 33.6L30.5998 31.8C30.9998 31.5 31.2998 31.1 31.6998 30.7001L33.4998 31.8C33.9998 32.1 34.4998 32.2001 34.9998 32.2001C36.0998 32.2001 37.0998 31.6 37.5998 30.7001C38.3998 29.3001 37.8998 27.4 36.4998 26.6L34.6998 25.6C34.8998 25.1 34.9998 24.6 35.0998 24.1H37.1998V24Z" fill="white"/>
<path d="M21 13.8C20.4 13.8 20 13.4 20 12.8V4.80005C20 4.20005 20.4 3.80005 21 3.80005C21.6 3.80005 22 4.20005 22 4.80005V12.8C22 13.3 21.6 13.8 21 13.8Z" fill="#221F1F"/>
<path d="M21 38.2001C20.4 38.2001 20 37.8001 20 37.2001V29.2001C20 28.6001 20.4 28.2001 21 28.2001C21.6 28.2001 22 28.6001 22 29.2001V37.2001C22 37.8001 21.6 38.2001 21 38.2001Z" fill="#221F1F"/>
<path d="M16.8994 14.9001C16.5994 14.9001 16.1994 14.7001 15.9994 14.4001L11.9994 7.50006C11.6994 7.00006 11.8994 6.40006 12.3994 6.10006C12.8994 5.80006 13.4994 6.00006 13.7994 6.50006L17.7994 13.4001C18.0994 13.9001 17.8994 14.5001 17.3994 14.8001C17.1994 14.9001 17.0994 14.9001 16.8994 14.9001Z" fill="#221F1F"/>
<path d="M29.0995 36.1C28.7995 36.1 28.3995 35.9 28.1995 35.6L24.1995 28.7C23.8995 28.2 24.0995 27.6 24.5995 27.3C25.0995 27 25.6995 27.2 25.9995 27.7L29.9995 34.6C30.2995 35.1 30.0995 35.7 29.5995 36C29.4995 36 29.2995 36.1 29.0995 36.1Z" fill="#221F1F"/>
<path d="M13.8995 17.9001C13.6995 17.9001 13.5995 17.9001 13.3995 17.8001L6.4995 13.8001C5.9995 13.5001 5.8995 12.9001 6.0995 12.4001C6.3995 11.9001 6.9995 11.7001 7.3995 12.0001L14.2995 16.0001C14.7995 16.3001 14.8995 16.9001 14.6995 17.4001C14.5995 17.7001 14.1995 17.9001 13.8995 17.9001Z" fill="#221F1F"/>
<path d="M35.0997 30.1001C34.8997 30.1001 34.7997 30.1001 34.5997 30.0001L27.6997 26.0001C27.1997 25.7001 27.0997 25.1001 27.2997 24.6001C27.5997 24.1001 28.1997 24.0001 28.6997 24.2001L35.5997 28.2001C36.0997 28.5001 36.1997 29.1001 35.9997 29.6001C35.6997 29.9001 35.3997 30.1001 35.0997 30.1001Z" fill="#221F1F"/>
<path d="M12.7998 22H4.7998C4.1998 22 3.7998 21.6 3.7998 21C3.7998 20.4 4.1998 20 4.7998 20H12.7998C13.3998 20 13.7998 20.4 13.7998 21C13.7998 21.6 13.2998 22 12.7998 22Z" fill="#221F1F"/>
<path d="M37.2002 22H29.2002C28.6002 22 28.2002 21.6 28.2002 21C28.2002 20.4 28.6002 20 29.2002 20H37.2002C37.8002 20 38.2002 20.4 38.2002 21C38.2002 21.6 37.8002 22 37.2002 22Z" fill="#221F1F"/>
<path d="M6.89935 30.1C6.59935 30.1 6.19935 29.9 5.99935 29.6C5.69935 29.1 5.89935 28.5 6.39935 28.2L13.2994 24.2C13.7994 23.9 14.3994 24.1 14.6994 24.6C14.9994 25.1 14.7994 25.7 14.2994 26L7.39935 30C7.29935 30.1 7.09935 30.1 6.89935 30.1Z" fill="#221F1F"/>
<path d="M28.0995 17.9001C27.7995 17.9001 27.3995 17.7001 27.1995 17.4001C26.8995 16.9001 27.0995 16.3001 27.5995 16.0001L34.4995 12.0001C34.9995 11.7001 35.5995 11.9001 35.8995 12.4001C36.1995 12.9001 35.9995 13.5001 35.4995 13.8001L28.5995 17.8001C28.3995 17.9001 28.2995 17.9001 28.0995 17.9001Z" fill="#221F1F"/>
<path d="M12.8999 36.1001C12.6999 36.1001 12.5999 36.1001 12.3999 36.0001C11.8999 35.7001 11.7999 35.1001 11.9999 34.6001L15.9999 27.7001C16.2999 27.2001 16.8999 27.1001 17.3999 27.3001C17.8999 27.6001 17.9999 28.2001 17.7999 28.7001L13.7999 35.6001C13.5999 35.9001 13.1999 36.1001 12.8999 36.1001Z" fill="#221F1F"/>
<path d="M25.1001 14.9C24.9001 14.9 24.8001 14.9 24.6001 14.8C24.1001 14.5 24.0001 13.9 24.2001 13.4L28.2001 6.49999C28.5001 5.99999 29.1001 5.89999 29.6001 6.09999C30.1001 6.39999 30.3001 6.99999 30.0001 7.39999L26.0001 14.3C25.8001 14.7 25.4001 14.9 25.1001 14.9Z" fill="#221F1F"/>
<path d="M21 32.4001C27.3513 32.4001 32.5 27.2961 32.5 21.0001C32.5 14.7041 27.3513 9.6001 21 9.6001C14.6487 9.6001 9.5 14.7041 9.5 21.0001C9.5 27.2961 14.6487 32.4001 21 32.4001Z" fill="#FCD26E"/>
<path d="M24.2996 28.0001C17.8996 28.0001 12.4996 23.6001 11.0996 17.7001C10.7996 18.7001 10.5996 19.8001 10.5996 21.0001C10.5996 26.7001 15.2996 31.4001 21.0996 31.4001C24.6996 31.4001 27.7996 29.6001 29.6996 26.9001C27.9996 27.6001 26.1996 28.0001 24.2996 28.0001Z" fill="#E0B344"/>
<path d="M21 33.4001C14.1 33.4001 8.5 27.8001 8.5 21.0001C8.5 14.2001 14.1 8.6001 21 8.6001C27.9 8.6001 33.5 14.2001 33.5 21.0001C33.5 27.8001 27.9 33.4001 21 33.4001ZM21 10.6001C15.2 10.6001 10.5 15.3001 10.5 21.0001C10.5 26.7001 15.2 31.4001 21 31.4001C26.8 31.4001 31.5 26.7001 31.5 21.0001C31.5 15.3001 26.8 10.6001 21 10.6001Z" fill="#221F1F"/>
</svg>
