<svg width="42" height="42" viewBox="0 0 42 42" fill="none" xmlns="http://www.w3.org/2000/svg">
<path d="M17.38 17.9499C17.06 18.7599 16.69 19.4999 16.29 20.1999C22.07 19.0499 26.99 19.2899 27.06 19.2899L27.17 17.2899C26.88 17.2699 22.65 17.0599 17.38 17.9399V17.9499Z" fill="#E4E4E4"/>
<path d="M17 40C16.07 40 15.17 39.67 14.45 39.08C14.25 38.92 9.52 34.96 9.25 29.14C9.04 24.64 10.78 21.69 12.17 19.33C12.9 18.1 13.53 17.03 13.91 15.78C13.33 15.16 11.31 13.9 7.47 12.96C7.33 12.93 7.05 12.87 6.78 12.81C6.62 12.78 6.47 12.74 6.33 12.69C2.56 11.64 2 9.3 2 7.99C2 2.98 8.97 2 21 2C33.03 2 40 2.98 40 8C40 9.51 39.21 10.88 37.84 11.77C37.63 12.27 37.32 13.7 37.6 16.32C38.41 24.06 32.07 26.74 27.45 28.69C25.38 29.57 23.25 30.47 21.49 31.72C21.18 32.18 20.85 33.98 20.98 35.68C21.11 37.29 20.27 38.81 18.85 39.55C18.28 39.85 17.64 40.01 17 40.01V40Z" fill="white"/>
<path d="M16.9998 38.0002C16.5398 38.0002 16.0898 37.8402 15.7298 37.5402C15.5598 37.4002 11.4798 33.9802 11.2498 29.0502C11.0698 25.1402 12.5698 22.6002 13.8998 20.3502C14.7198 18.9602 15.4898 17.6502 15.9298 16.0102C16.0298 15.6202 15.9798 15.2902 15.7598 14.9202C14.9098 13.5002 11.8398 11.9602 7.94977 11.0202C7.73977 10.9802 7.46977 10.9202 7.22977 10.8602C7.12977 10.8402 7.02977 10.8102 6.93977 10.7802C5.97977 10.5202 4.00977 9.87023 4.00977 7.99023C4.00977 6.69023 4.00977 3.99023 21.0098 3.99023C38.0098 3.99023 38.0098 6.69023 38.0098 7.99023C38.0098 8.49023 37.8398 9.41023 36.7298 10.1002C36.6498 10.1602 36.5498 10.2202 36.4598 10.2702C36.0598 10.6102 35.1798 12.3102 35.6198 16.5202C36.2698 22.7902 31.1798 24.9402 26.6798 26.8502C24.4898 27.7802 22.2198 28.7402 20.2598 30.1502C19.1498 30.9502 18.8498 34.0202 18.9998 35.8402C19.0698 36.6402 18.6498 37.4102 17.9298 37.7802C17.6398 37.9302 17.3198 38.0102 16.9998 38.0102V38.0002Z" fill="#221F1F"/>
<path d="M36 8C36 6.9 29.28 6 21 6C12.72 6 6 6.9 6 8C6 8.33 6.6 8.63 7.63 8.9C7.63 8.9 7.66 8.91 7.71 8.92C7.92 8.97 8.16 9.03 8.41 9.08C10.99 9.7 19.04 12.03 17.85 16.53C16.59 21.3 12.98 23.45 13.24 28.96C13.43 33.06 16.99 36 16.99 36C16.99 36 16.51 30.37 19.07 28.52C25.47 23.91 34.36 23.93 33.61 16.73C32.86 9.53 35.54 8.49 35.54 8.49C35.83 8.33 35.99 8.17 35.99 8H36Z" fill="#E4E4E4"/>
<path d="M6.00023 8C6.00023 8.33 6.60023 8.63 7.63023 8.9C7.63023 8.9 7.66023 8.91 7.71023 8.92C7.92023 8.97 8.16023 9.03 8.41023 9.08C10.9902 9.7 19.0402 12.03 17.8502 16.53C16.5902 21.3 12.9802 23.45 13.2402 28.96C13.4302 33.06 16.9902 36 16.9902 36C13.3102 25.94 23.8702 23.56 25.2802 17.45C26.1002 13.9 24.5302 9.29 23.0602 6.02C22.3802 6.01 21.6902 6 20.9902 6C12.7102 6 5.99023 6.9 5.99023 8H6.00023Z" fill="#9E9E9E"/>
<path d="M33.6199 16.8004C33.6199 16.8004 33.6199 16.7504 33.6199 16.7304C33.5399 15.9904 33.5099 15.3404 33.4999 14.7204C26.3599 13.2904 19.7999 13.7104 19.4399 13.7404L19.5799 15.7404C19.6699 15.7404 26.4899 15.3004 33.6299 16.8004H33.6199Z" fill="#9E9E9E"/>
<path d="M33.56 18.611C26.2 17.651 20.09 19.061 19.77 19.131L20.24 21.081C20.31 21.061 26.01 19.751 32.84 20.541C33.19 19.981 33.44 19.341 33.56 18.611Z" fill="#9E9E9E"/>
<path d="M13.0498 10.6199C13.9798 11.0299 14.8998 11.5199 15.6898 12.0899C19.1798 11.3799 23.7498 10.8799 28.8098 11.4599L29.0398 9.46986C22.5298 8.70986 16.8498 9.62986 13.0498 10.6199Z" fill="#E4E4E4"/>
<path d="M34 32C35.1046 32 36 31.1046 36 30C36 28.8954 35.1046 28 34 28C32.8954 28 32 28.8954 32 30C32 31.1046 32.8954 32 34 32Z" fill="white"/>
<path d="M9 19C9.55228 19 10 18.5523 10 18C10 17.4477 9.55228 17 9 17C8.44772 17 8 17.4477 8 18C8 18.5523 8.44772 19 9 19Z" fill="white"/>
<path d="M29 33C29.5523 33 30 32.5523 30 32C30 31.4477 29.5523 31 29 31C28.4477 31 28 31.4477 28 32C28 32.5523 28.4477 33 29 33Z" fill="white"/>
</svg>
