<svg width="42" height="42" viewBox="0 0 42 42" fill="none" xmlns="http://www.w3.org/2000/svg">
<path d="M37.8593 22.96C37.9193 22.52 37.9493 22.08 37.9393 21.63C40.0593 19.16 40.6093 15.93 39.3193 13.16C38.8393 12.13 38.1293 11.23 37.2393 10.53C37.3493 6.87 35.3693 3.6 32.1993 2.44C31.3993 2.15 30.5593 2 29.7093 2C27.2093 2 24.7893 3.27 23.1293 5.4C23.0593 5.4 22.9893 5.4 22.9193 5.4C21.8493 5.4 20.8193 5.63 19.8593 6.07C19.4293 6.27 19.0493 6.51 18.6793 6.78C17.8293 5.18 16.6393 4.11 15.7093 3.6C15.2593 3.35 14.7593 3.22 14.2493 3.22C13.1793 3.22 12.1793 3.8 11.6493 4.73C10.9193 6.01 11.2393 7.61 12.3293 8.52C11.1993 8.84 10.1493 9.29 9.2793 9.86C8.1993 10.56 7.5393 11.72 7.4693 12.99C4.1593 15.47 2.0293 19.26 2.0293 23.52C2.0293 26.48 3.0693 29.2 4.7993 31.43L4.7093 31.48C2.8293 32.53 1.91929 34.61 2.4493 36.64C2.9693 38.63 4.7893 40.02 6.8793 40.02C7.1893 40.02 7.4893 39.99 7.7893 39.93L34.7193 34.83C36.5293 34.49 38.1393 33.36 39.0193 31.81C39.8293 30.38 39.9793 28.71 39.4393 27.21L37.8993 22.98L37.8593 22.96Z" fill="white"/>
<path d="M28.2902 28.8002C26.2702 28.8002 24.4902 27.9802 23.4002 26.5902C23.0402 26.6602 22.6802 26.7002 22.3002 26.7002C19.7802 26.7002 17.3702 25.0102 16.1502 22.4002C15.3902 20.7802 15.1902 19.0002 15.5902 17.3802C15.9002 16.1002 16.5802 15.0002 17.5002 14.2302C17.1802 11.4702 18.3902 8.94023 20.6802 7.87023C21.3802 7.55023 22.1202 7.38023 22.9002 7.38023C23.3002 7.38023 23.6902 7.42023 24.0902 7.51023C25.3402 5.36023 27.4602 3.99023 29.7002 3.99023C30.3202 3.99023 30.9302 4.10023 31.5102 4.31023C34.2202 5.29023 35.6702 8.36023 35.1302 11.5202C36.1902 12.0802 37.0102 12.9202 37.5102 13.9902C38.5802 16.2902 37.8802 19.0002 35.8602 20.9002C36.3502 23.6202 34.6602 26.6102 31.6502 28.0202C30.5902 28.5202 29.4302 28.7802 28.3002 28.7802L28.2902 28.8002Z" fill="#221F1F"/>
<path d="M33.4795 20.2298C35.5495 18.9498 36.5395 16.6698 35.6895 14.8498C35.1495 13.6898 33.9795 12.9898 32.6095 12.8198C32.6995 12.6398 32.7895 12.4598 32.8695 12.2598C33.8095 9.66983 32.8995 6.94983 30.8195 6.18983C28.7395 5.42983 26.2995 6.92983 25.3495 9.51983C25.2795 9.71983 25.2395 9.90983 25.1895 10.1098C24.0295 9.35983 22.6895 9.13983 21.5295 9.67983C19.7095 10.5298 18.9995 12.9198 19.7695 15.2298C19.6695 15.2598 19.5695 15.2798 19.4795 15.3198C17.4795 16.2498 16.7995 19.0398 17.9695 21.5398C19.1395 24.0398 21.7095 25.3098 23.7095 24.3798C23.9395 24.2698 24.1495 24.1298 24.3495 23.9798C24.3995 24.2298 24.4695 24.4698 24.5795 24.6998C25.5095 26.6998 28.2995 27.3798 30.7995 26.2098C33.2995 25.0398 34.5695 22.4698 33.6395 20.4698C33.5995 20.3798 33.5295 20.2998 33.4795 20.2098V20.2298Z" fill="#9CDB9C"/>
<path d="M30.2592 6.07055C28.3192 5.74055 26.2192 7.17055 25.3592 9.53055C25.2892 9.73055 25.2492 9.92055 25.1992 10.1206C24.0392 9.37055 22.6992 9.15055 21.5392 9.69055C19.7192 10.5406 19.0092 12.9306 19.7792 15.2406C19.6792 15.2706 19.5792 15.2906 19.4892 15.3306C17.4892 16.2606 16.8092 19.0506 17.9792 21.5506C18.2592 22.1606 18.6292 22.6906 19.0492 23.1306C22.2692 23.4506 25.5592 23.7406 25.5592 23.7406L30.2692 6.05055L30.2592 6.07055Z" fill="#9CDB9C"/>
<path d="M16.66 13.7107C16.66 13.7107 16.56 13.7107 16.51 13.7007C15.96 13.6207 15.59 13.1107 15.67 12.5607C16.26 8.62065 13.83 7.14065 13.73 7.08065C13.26 6.80065 13.09 6.19065 13.37 5.72065C13.64 5.24065 14.24 5.08065 14.72 5.34065C14.87 5.43065 18.45 7.50065 17.66 12.8507C17.59 13.3507 17.16 13.7007 16.67 13.7007L16.66 13.7107Z" fill="#221F1F"/>
<path d="M16.5 35C9.61 35 4 29.84 4 23.5C4 17.16 9.61 12 16.5 12C23.39 12 29 17.16 29 23.5C29 29.84 23.39 35 16.5 35Z" fill="#221F1F"/>
<path d="M16.5 33C22.299 33 27 28.7467 27 23.5C27 18.2533 22.299 14 16.5 14C10.701 14 6 18.2533 6 23.5C6 28.7467 10.701 33 16.5 33Z" fill="#D63838"/>
<path d="M16.4996 14C13.7396 14 11.2296 14.97 9.34961 16.55C10.7896 23.14 16.7296 28.08 23.8296 28.08C24.4896 28.08 25.1396 28.02 25.7696 27.94C26.5496 26.61 26.9896 25.1 26.9896 23.5C26.9896 18.25 22.2896 14 16.4896 14H16.4996Z" fill="#EF615E"/>
<path d="M6.85047 38.0002C5.67047 38.0002 4.65047 37.2302 4.36047 36.1202C4.06047 34.9802 4.59047 33.8102 5.66047 33.2102L29.5705 19.8102C30.2305 19.4402 30.9705 19.2402 31.7205 19.2402C33.3405 19.2402 34.7205 20.1502 35.2305 21.5602L37.5305 27.8802C37.8705 28.8302 37.7705 29.8902 37.2505 30.8102C36.6505 31.8602 35.5605 32.6202 34.3205 32.8602L7.39047 37.9602C7.20047 38.0002 7.02047 38.0102 6.86047 38.0102L6.85047 38.0002Z" fill="#221F1F"/>
<path d="M7.01025 35.9804L33.9402 30.8804C35.1702 30.6504 36.0002 29.5204 35.6402 28.5504L33.3403 22.2304C32.9903 21.2604 31.6303 20.9304 30.5403 21.5404L6.63025 34.9404C5.98025 35.3004 6.27025 36.1105 7.01025 35.9705V35.9804Z" fill="#FFD781"/>
<path d="M35.6399 28.5598L34.7399 26.0898L6.41992 35.8398C6.54992 35.9698 6.74992 36.0398 7.00992 35.9898L33.9399 30.8898C35.1699 30.6598 35.9999 29.5298 35.6399 28.5598Z" fill="#F9A936"/>
<path d="M14.9104 30.3109L16.3304 34.2209L18.3204 33.8409L16.6704 29.3209L14.9004 30.3109H14.9104ZM19.2804 27.8609L21.2504 33.2909L23.2404 32.9109L21.0404 26.8709L19.2704 27.8609H19.2804ZM23.6604 25.4109L26.1904 32.3609L28.1804 31.9809L25.4304 24.4209L23.6604 25.4109ZM29.8004 21.9609L28.0304 22.9509L31.1104 31.4209L33.1004 31.0409L29.8004 21.9609Z" fill="#F9A936"/>
<path d="M16.4995 18.9997C15.9995 18.9997 15.4995 18.8097 15.1095 18.4397C14.4595 17.8097 13.9395 17.0397 13.5895 16.1597C12.3495 15.8897 11.2395 15.4597 10.3495 14.8797C9.77945 14.5097 9.43945 13.8797 9.43945 13.1997C9.43945 12.5197 9.77945 11.8897 10.3495 11.5197C11.9095 10.5097 14.1495 9.92969 16.5095 9.92969C18.8695 9.92969 21.1095 10.5097 22.6695 11.5197C23.2395 11.8897 23.5795 12.5197 23.5795 13.1997C23.5795 13.8797 23.2395 14.5097 22.6695 14.8797C21.7695 15.4597 20.6695 15.8997 19.4295 16.1597C19.0695 17.0397 18.5595 17.8097 17.9095 18.4397C17.5195 18.8097 17.0195 18.9997 16.5195 18.9997H16.4995Z" fill="#221F1F"/>
<path d="M17.8697 14.3897C19.3597 14.2197 20.6597 13.7997 21.5697 13.1997C20.3797 12.4297 18.5497 11.9297 16.4997 11.9297C14.4497 11.9297 12.6197 12.4297 11.4297 13.1997C12.3497 13.7997 13.6497 14.2197 15.1297 14.3897C15.3397 15.4297 15.8197 16.3497 16.4997 16.9997C17.1797 16.3497 17.6497 15.4297 17.8697 14.3897Z" fill="#9CDB9C"/>
</svg>
