<svg width="42" height="42" viewBox="0 0 42 42" fill="none" xmlns="http://www.w3.org/2000/svg">
<path d="M21.0002 40.95C15.7397 40.95 11.3297 38.997 8.58921 35.4375C6.18471 32.319 5.38671 28.287 6.40521 24.402C8.11671 17.871 17.3357 4.01104 18.3857 2.44654C18.9632 1.58554 19.9397 1.08154 21.0002 1.08154C22.0607 1.08154 23.0372 1.58554 23.6147 2.44654C24.6647 4.01104 33.8837 17.8815 35.5952 24.402C36.6137 28.2975 35.8157 32.319 33.4112 35.4375C30.6707 38.9865 26.2607 40.95 21.0002 40.95Z" fill="white"/>
<path fill-rule="evenodd" clip-rule="evenodd" d="M32.5502 25.2C30.9227 18.984 21.0002 4.19995 21.0002 4.19995C21.0002 4.19995 11.0777 18.984 9.45022 25.2C7.83322 31.374 12.2117 37.7999 21.0002 37.7999C29.7887 37.7999 34.1672 31.374 32.5502 25.2Z" fill="#8FD2FF"/>
<path fill-rule="evenodd" clip-rule="evenodd" d="M20.9996 4.19995C20.9996 4.19995 16.2536 11.277 12.7886 17.6925C13.9751 25.0844 20.3696 30.7334 28.0976 30.7334C29.6516 30.7334 31.1636 30.5024 32.5811 30.0719C32.9801 28.5075 32.9906 26.8484 32.5496 25.2C30.9221 18.984 20.9996 4.19995 20.9996 4.19995Z" fill="#CAE5FF"/>
<path d="M21 38.8499C16.401 38.8499 12.5895 37.1804 10.248 34.1564C8.24248 31.5524 7.58098 28.1924 8.43148 24.9374C10.0905 18.6269 19.719 4.23146 20.1285 3.62246C20.517 3.04496 21.483 3.04496 21.8715 3.62246C22.281 4.23146 31.9095 18.6269 33.5685 24.9374C34.419 28.1924 33.7575 31.5524 31.752 34.1564C29.421 37.1804 25.599 38.8499 21 38.8499ZM21 6.11096C18.5535 9.85946 11.7495 20.5589 10.4685 25.4729C9.78598 28.0979 10.311 30.7964 11.9175 32.8754C13.8495 35.3744 17.073 36.7499 21 36.7499C24.927 36.7499 28.161 35.3744 30.0825 32.8754C31.689 30.7859 32.214 28.0874 31.5315 25.4729C30.24 20.5694 23.436 9.85946 21 6.11096Z" fill="#221F1F"/>
</svg>
