<svg width="42" height="42" viewBox="0 0 42 42" fill="none" xmlns="http://www.w3.org/2000/svg">
<path d="M24 38C19.38 38 15.55 34.49 15.06 30H7C4.24 30 2 27.76 2 25C2 24.31 2.15 23.63 2.42 23C2.14 22.37 2 21.69 2 21C2 20.31 2.15 19.63 2.42 19C2.14 18.37 2 17.69 2 17C2 14.24 4.24 12 7 12H11.06C11.56 7.51 15.38 4 20 4C23.33 4 26.28 5.79 27.84 8.58C28.84 8.2 29.91 8 31 8C35.96 8 40 12.04 40 17C40 21.47 36.72 25.19 32.45 25.88C32.81 26.86 33 27.92 33 29C33 33.96 28.96 38 24 38Z" fill="white"/>
<path d="M31 10C29.43 10 27.98 10.53 26.81 11.41C26.09 8.32 23.31 6 20 6C16.14 6 13 9.14 13 13C13 13.35 13.06 13.69 13.17 14H7C5.35 14 4 15.35 4 17C4 17.77 4.3 18.47 4.78 19C4.3 19.53 4 20.23 4 21C4 21.77 4.3 22.47 4.78 23C4.3 23.53 4 24.23 4 25C4 26.65 5.35 28 7 28H17.17C17.06 28.31 17 28.65 17 29C17 32.86 20.14 36 24 36C27.86 36 31 32.86 31 29C31 27.04 30.19 25.27 28.89 24H31C34.86 24 38 20.86 38 17C38 13.14 34.86 10 31 10Z" fill="#221F1F"/>
<path d="M31 22H7C6.45 22 6 21.55 6 21C6 20.45 6.45 20 7 20H31C32.65 20 34 18.65 34 17C34 15.35 32.65 14 31 14C29.35 14 28 15.35 28 17C28 17.55 27.55 18 27 18C26.45 18 26 17.55 26 17C26 14.24 28.24 12 31 12C33.76 12 36 14.24 36 17C36 19.76 33.76 22 31 22Z" fill="#CAE5FF"/>
<path d="M20 18H7C6.45 18 6 17.55 6 17C6 16.45 6.45 16 7 16H20C21.65 16 23 14.65 23 13C23 11.35 21.65 10 20 10C18.35 10 17 11.35 17 13C17 13.55 16.55 14 16 14C15.45 14 15 13.55 15 13C15 10.24 17.24 8 20 8C22.76 8 25 10.24 25 13C25 15.76 22.76 18 20 18Z" fill="#CAE5FF"/>
<path d="M24 34C21.24 34 19 31.76 19 29C19 28.45 19.45 28 20 28C20.55 28 21 28.45 21 29C21 30.65 22.35 32 24 32C25.65 32 27 30.65 27 29C27 27.35 25.65 26 24 26H7C6.45 26 6 25.55 6 25C6 24.45 6.45 24 7 24H24C26.76 24 29 26.24 29 29C29 31.76 26.76 34 24 34Z" fill="#CAE5FF"/>
</svg>
