<svg width="42" height="42" viewBox="0 0 42 42" fill="none" xmlns="http://www.w3.org/2000/svg">
<path d="M20.9696 36.4206C21.7696 36.4206 22.4896 35.9506 22.7996 35.2206C24.0196 32.4106 25.5596 30.8606 27.1396 30.8606C27.7696 30.8606 28.2296 31.1006 28.2296 31.1006C28.5296 31.2606 28.8596 31.3406 29.1996 31.3406C29.5896 31.3406 29.9696 31.2306 30.2996 31.0206C30.9096 30.6206 31.2796 29.9206 31.2096 29.1906C31.0896 27.8406 31.3396 26.8506 31.9696 26.1706C33.1296 24.9106 35.3396 24.8706 35.5796 24.8706C35.6096 24.8706 35.6296 24.8706 35.6596 24.8706C36.2396 24.8706 36.8196 24.6206 37.1996 24.1706C37.5996 23.7106 37.7796 23.0906 37.6696 22.4906C35.7896 12.8106 39.0996 10.1306 39.1296 10.1006C39.8196 9.64063 40.1296 8.83063 39.9496 8.02063C39.7696 7.21063 39.0796 6.62062 38.2696 6.49062C38.1996 6.48062 37.5796 6.39062 36.6196 6.39062C34.7096 6.39062 29.4596 6.82062 25.7996 11.2006C25.5296 10.5906 24.9696 10.1406 24.2896 10.0306C24.1796 10.0106 24.0796 10.0006 23.9696 10.0006C23.2196 10.0006 22.5196 10.4206 22.1796 11.1106L21.2296 13.0106C21.1396 13.0106 21.0596 13.0106 20.9696 13.0106C20.8796 13.0106 20.7996 13.0106 20.7096 13.0106L19.7596 11.1106C19.4196 10.4306 18.7196 10.0006 17.9696 10.0006C17.8596 10.0006 17.7596 10.0006 17.6496 10.0306C16.9696 10.1406 16.4096 10.5906 16.1396 11.2006C12.4796 6.82062 7.22957 6.39062 5.31957 6.39062C4.35957 6.39062 3.73957 6.48062 3.66957 6.49062C2.84957 6.61062 2.18957 7.23063 2.00957 8.04063C1.82956 8.85063 2.16957 9.68063 2.85957 10.1406C2.85957 10.1406 6.13957 12.8306 4.26957 22.4906C4.14957 23.0906 4.31957 23.7106 4.71957 24.1706C5.09957 24.6106 5.65957 24.8706 6.23957 24.8706C6.26957 24.8706 6.31957 24.8706 6.31957 24.8706C6.60957 24.8706 8.81957 24.9106 9.96957 26.1706C10.5996 26.8606 10.8496 27.8506 10.7296 29.1906C10.6696 29.9406 11.0196 30.6606 11.6596 31.0606C11.9896 31.2606 12.3496 31.3706 12.7196 31.3706C13.0896 31.3706 13.4196 31.2806 13.7396 31.0906C13.7396 31.0906 14.1896 30.8706 14.7996 30.8706C16.3796 30.8706 17.9196 32.4206 19.1396 35.2306C19.4596 35.9606 20.1796 36.4306 20.9696 36.4306V36.4206Z" fill="white"/>
<path d="M38 8.45986C38 8.45986 27.71 6.91986 24.8 17.6099L24 11.9999L22.36 15.2799C21.95 15.1099 21.49 14.9999 21 14.9999C20.51 14.9999 20.05 15.1099 19.64 15.2799L18 11.9999L17.2 17.6099C14.29 6.91986 4 8.45986 4 8.45986C4 8.45986 8.49 11.4199 6.27 22.8599C6.27 22.8599 13.35 22.5799 12.76 29.3499C12.76 29.3499 17.57 26.4999 21.01 34.4199C24.45 26.4999 29.26 29.3499 29.26 29.3499C28.67 22.5699 35.75 22.8599 35.75 22.8599C33.53 11.4199 38.02 8.45986 38.02 8.45986H38Z" fill="#221F1F"/>
<path d="M18 12L16 18L19 20L18 12Z" fill="#221F1F"/>
<path d="M23.9697 12L25.9697 18L22.9697 20L23.9697 12Z" fill="#221F1F"/>
<path d="M18.5 20C19.0523 20 19.5 19.5523 19.5 19C19.5 18.4477 19.0523 18 18.5 18C17.9477 18 17.5 18.4477 17.5 19C17.5 19.5523 17.9477 20 18.5 20Z" fill="#FCD26E"/>
<path d="M23.5 20C24.0523 20 24.5 19.5523 24.5 19C24.5 18.4477 24.0523 18 23.5 18C22.9477 18 22.5 18.4477 22.5 19C22.5 19.5523 22.9477 20 23.5 20Z" fill="#FCD26E"/>
</svg>
