<svg width="42" height="42" viewBox="0 0 42 42" fill="none" xmlns="http://www.w3.org/2000/svg">
<path d="M20.9997 32.04C22.6797 32.04 24.0397 30.68 24.0397 29H17.9697C17.9697 30.68 19.3297 32.04 21.0097 32.04H20.9997Z" fill="#979797"/>
<path d="M20.96 34.7591C20.41 34.7591 19.96 34.3091 19.96 33.7591V30.6191C19.96 30.0691 20.41 29.6191 20.96 29.6191C21.51 29.6191 21.96 30.0691 21.96 30.6191V33.7591C21.96 34.3091 21.51 34.7591 20.96 34.7591Z" fill="#979797"/>
<path d="M38.8904 32.7393C38.7304 32.7393 38.5704 32.6993 38.4204 32.6193L31.2004 28.7093C30.7104 28.4493 30.5304 27.8393 30.8004 27.3493C31.0604 26.8593 31.6704 26.6893 32.1504 26.9493L39.3704 30.8593C39.8604 31.1193 40.0404 31.7293 39.7704 32.2193C39.5904 32.5493 39.2504 32.7393 38.8904 32.7393Z" fill="white"/>
<path d="M35.4301 37.0498C35.2001 37.0498 34.9601 36.9698 34.7701 36.7998L28.7501 31.5498C28.3301 31.1898 28.2901 30.5598 28.6501 30.1398C29.0101 29.7198 29.6401 29.6798 30.0601 30.0398L36.0801 35.2898C36.5001 35.6498 36.5401 36.2798 36.1801 36.6998C35.9801 36.9298 35.7001 37.0398 35.4301 37.0398V37.0498Z" fill="white"/>
<path d="M3.11045 32.7392C2.75045 32.7392 2.41045 32.5492 2.23045 32.2192C1.97045 31.7292 2.15045 31.1292 2.63045 30.8592L9.85045 26.9492C10.3304 26.6892 10.9404 26.8692 11.2004 27.3492C11.4604 27.8392 11.2804 28.4392 10.8004 28.7092L3.58045 32.6192C3.43045 32.6992 3.27045 32.7392 3.11045 32.7392Z" fill="white"/>
<path d="M6.57005 37.0495C6.29005 37.0495 6.01005 36.9295 5.82005 36.7095C5.46005 36.2895 5.50005 35.6595 5.92005 35.2995L11.94 30.0495C12.36 29.6895 12.99 29.7295 13.35 30.1495C13.71 30.5695 13.67 31.1995 13.25 31.5595L7.23005 36.8095C7.04005 36.9795 6.81005 37.0595 6.57005 37.0595V37.0495Z" fill="white"/>
<path d="M21 40.0005C10.52 40.0005 2 31.4805 2 21.0005C2 14.9505 3.75 9.09047 7.05 4.04047C7.72 3.02047 8.8 2.37047 10.02 2.25047C10.15 2.24047 10.27 2.23047 10.4 2.23047C11.48 2.23047 12.53 2.67047 13.28 3.45047C14.72 4.94047 16.01 6.58047 17.13 8.32047C18.41 8.11047 19.71 8.00047 21 8.00047C22.29 8.00047 23.59 8.11047 24.87 8.32047C25.99 6.57047 27.28 4.94047 28.72 3.45047C29.47 2.68047 30.52 2.23047 31.6 2.23047C31.72 2.23047 31.85 2.23047 31.97 2.25047C33.19 2.37047 34.27 3.02047 34.94 4.04047C38.25 9.09047 39.99 14.9505 39.99 21.0005C39.99 31.4805 31.47 40.0005 20.99 40.0005H21Z" fill="white"/>
<path d="M21 38.0002C11.63 38.0002 4 30.3702 4 21.0002C4 15.3402 5.63 9.86023 8.73 5.14023C9.06 4.63023 9.61 4.30023 10.21 4.24023C10.27 4.24023 10.34 4.24023 10.4 4.24023C10.94 4.24023 11.46 4.46023 11.84 4.85023C13.51 6.58023 14.95 8.49023 16.15 10.5702C17.74 10.2002 19.37 10.0102 21 10.0102C22.63 10.0102 24.26 10.2002 25.85 10.5702C27.04 8.50023 28.49 6.58023 30.16 4.85023C30.54 4.46023 31.06 4.24023 31.6 4.24023C31.66 4.24023 31.73 4.24023 31.79 4.24023C32.39 4.30023 32.94 4.63023 33.27 5.14023C36.36 9.86023 38 15.3502 38 21.0002C38 30.3702 30.37 38.0002 21 38.0002Z" fill="#221F1F"/>
<path d="M10.4 6.23047C7.62 10.4705 6 15.5505 6 21.0005H17.7C16.85 15.3005 14.22 10.1905 10.4 6.23047Z" fill="#221F1F"/>
<path d="M7 19.9991L7.09 18.9191C7.36 15.5091 8.29 12.2391 9.84 9.18906L10.55 7.78906L11.51 9.01906C13.78 11.9191 15.37 15.1891 16.24 18.7491L16.54 19.9891H7V19.9991Z" fill="#D88C7D"/>
<path d="M8.08008 19.0004C8.34008 15.7304 9.24008 12.5604 10.7301 9.65039C12.9001 12.4204 14.4401 15.6004 15.2801 19.0004H8.08008Z" fill="#D88C7D"/>
<path d="M31.5998 6.23047C34.3798 10.4705 35.9998 15.5505 35.9998 21.0005H24.2998C25.1498 15.3005 27.7798 10.1905 31.5998 6.23047Z" fill="#221F1F"/>
<path d="M25.4504 20.0008L25.7504 18.7608C26.6204 15.2008 28.2204 11.9308 30.4804 9.03078L31.4404 7.80078L32.1504 9.20078C33.7104 12.2408 34.6304 15.5208 34.9004 18.9308L34.9904 20.0108H25.4404L25.4504 20.0008Z" fill="#D88C7D"/>
<path d="M26.7197 19.0004C27.5597 15.5904 29.0997 12.4204 31.2697 9.65039C32.7597 12.5604 33.6597 15.7304 33.9197 19.0004H26.7197Z" fill="#D88C7D"/>
<path d="M6.17 18.86C9.75 14.67 15.06 12 21 12C26.94 12 32.25 14.67 35.83 18.86C35.93 19.56 36 20.27 36 21C36 29.28 29.28 36 21 36C12.72 36 6 29.28 6 21C6 20.27 6.07 19.56 6.17 18.86Z" fill="#221F1F"/>
<path d="M20.96 33.7591C20.41 33.7591 19.96 33.3091 19.96 32.7591V29.6191C19.96 29.0691 20.41 28.6191 20.96 28.6191C21.51 28.6191 21.96 29.0691 21.96 29.6191V32.7591C21.96 33.3091 21.51 33.7591 20.96 33.7591Z" fill="#221F1F"/>
<path d="M11.7903 20.5892C10.5903 20.8392 9.63027 21.6492 9.03027 22.7592C11.3803 24.7692 14.2503 26.1992 17.4403 26.8192C17.4903 26.2192 17.4703 25.6092 17.3303 24.9792C16.7103 22.0392 14.2203 20.0792 11.7803 20.5992L11.7903 20.5892Z" fill="#9CDB9C"/>
<path d="M30.21 20.5892C31.41 20.8392 32.37 21.6492 32.97 22.7592C30.62 24.7692 27.75 26.1992 24.56 26.8192C24.51 26.2192 24.53 25.6092 24.67 24.9792C25.29 22.0392 27.78 20.0792 30.22 20.5992L30.21 20.5892Z" fill="#9CDB9C"/>
<path d="M13.6201 27.1596C13.0701 27.1596 12.6201 26.7096 12.6201 26.1596V20.0996C12.6201 19.5496 13.0701 19.0996 13.6201 19.0996C14.1701 19.0996 14.6201 19.5496 14.6201 20.0996V26.1596C14.6201 26.7096 14.1701 27.1596 13.6201 27.1596Z" fill="#221F1F"/>
<path d="M28.3799 28.3396C27.8299 28.3396 27.3799 27.8896 27.3799 27.3396V20.0996C27.3799 19.5496 27.8299 19.0996 28.3799 19.0996C28.9299 19.0996 29.3799 19.5496 29.3799 20.0996V27.3396C29.3799 27.8896 28.9299 28.3396 28.3799 28.3396Z" fill="#221F1F"/>
</svg>
