<svg width="42" height="42" viewBox="0 0 42 42" fill="none" xmlns="http://www.w3.org/2000/svg">
<path d="M17.3801 40C14.6901 40 8.24009 38.89 6.48009 28.57C4.18009 15.06 6.57009 4.55 12.4301 2.41C13.1801 2.14 13.9901 2 14.8301 2C20.4501 2 27.9001 8.52 33.8101 18.62C36.3501 22.95 37.0101 26.85 35.7901 30.2C34.7001 33.19 32.1901 35.46 28.5301 36.76C21.7701 39.22 21.7501 39.23 21.6901 39.24C20.2401 39.73 18.7801 39.99 17.3901 39.99L17.3801 40Z" fill="white"/>
<path d="M17.3805 38C14.6705 38 9.90046 36.73 8.45046 28.23C6.38046 16.09 8.35046 6.03 13.1205 4.29C13.6505 4.1 14.2205 4 14.8305 4C19.6805 4 26.6105 10.28 32.0805 19.63C34.3005 23.42 34.9205 26.75 33.9105 29.51C33.0305 31.92 30.9405 33.78 27.8505 34.87C27.8505 34.87 21.1205 37.32 21.0805 37.33C19.7905 37.77 18.5405 37.99 17.3705 37.99L17.3805 38Z" fill="#221F1F"/>
<path d="M30.35 20.6404C24.25 10.2204 17.1 4.97044 13.8 6.17044C10.5 7.37044 8.39001 15.9904 10.42 27.9004C12.02 37.3104 17.71 36.4004 20.51 35.4204L27.18 33.0004C29.88 32.0404 35.34 29.1704 30.35 20.6504V20.6404Z" fill="#F9A936"/>
<path d="M30.3496 20.6404C24.2496 10.2204 17.0996 4.97044 13.7996 6.17044C12.8596 6.51044 12.0296 7.47044 11.3496 8.91044C13.0296 16.0304 17.1396 27.0404 26.9996 33.0604L27.1796 33.0004C29.8796 32.0404 35.3396 29.1704 30.3496 20.6504V20.6404Z" fill="#F7DF69"/>
<path d="M9.76006 22.4308L27.3401 16.0308C22.0401 8.71082 16.5601 5.16082 13.7901 6.17082C11.0201 7.18082 9.10006 13.4208 9.75006 22.4308H9.76006Z" fill="#F7DF69"/>
<path d="M13.7996 6.17082C12.8596 6.51082 12.0296 7.46082 11.3496 8.91082C12.1196 12.1808 13.4096 16.2708 15.5296 20.3308L27.3396 16.0308C22.0396 8.71082 16.5596 5.16082 13.7896 6.17082H13.7996Z" fill="white"/>
<path d="M31.2102 20.1308C29.0802 16.4808 26.6902 13.3008 24.3102 10.8008C24.2302 10.8208 24.1402 10.8408 24.0602 10.8708L8.95021 16.3708C8.86021 16.4008 8.79021 16.4608 8.71021 16.5008C8.50021 19.9208 8.71021 23.8808 9.43021 28.0608C9.73021 29.8108 10.1702 31.2308 10.7102 32.3808C10.8202 32.4008 10.9302 32.4208 11.0302 32.4208C11.2602 32.4208 11.4902 32.3808 11.7102 32.3008L32.1802 24.8508C32.5002 24.7308 32.7802 24.5308 33.0002 24.2708C32.6502 22.9808 32.0702 21.6008 31.2102 20.1308Z" fill="#221F1F"/>
<path d="M10.4204 27.8902C10.5804 28.8402 10.8004 29.6602 11.0304 30.4102L31.5004 22.9602C31.2004 22.2302 30.8404 21.4702 30.3504 20.6302C28.5304 17.5202 26.6204 14.8902 24.7504 12.7402L9.64042 18.2402C9.59042 21.0902 9.82042 24.3402 10.4204 27.8902Z" fill="#EF615E"/>
<path d="M20.0896 27.12L31.4996 22.97C31.1996 22.24 30.8396 21.48 30.3496 20.64C28.5296 17.53 26.6196 14.9 24.7496 12.75L13.8496 16.72C15.2896 20.22 17.3096 23.87 20.0896 27.13V27.12Z" fill="#F9A936"/>
</svg>
