<svg width="42" height="42" viewBox="0 0 42 42" fill="none" xmlns="http://www.w3.org/2000/svg">
<path d="M30.3998 39.99C28.7898 39.99 27.2798 39.37 26.1398 38.23L8.82982 20.99C6.72982 18.89 5.56982 16.1 5.56982 13.12C5.56982 10.14 6.72982 7.35 8.82982 5.25C10.9298 3.16 13.7298 2 16.6998 2C19.6698 2 22.4598 3.15 24.5598 5.24L25.6798 6.36C28.0298 8.71 28.0398 12.54 25.6898 14.89C24.5898 15.99 23.1398 16.62 21.5998 16.66L34.6498 29.66C37.0098 32.01 37.0098 35.84 34.6698 38.2C33.5298 39.35 32.0098 39.98 30.3898 39.98L30.3998 39.99Z" fill="white"/>
<path d="M30.3998 37.9898C29.3298 37.9898 28.3098 37.5698 27.5498 36.8098L10.2398 19.5698C8.51982 17.8498 7.56982 15.5598 7.56982 13.1198C7.56982 10.6798 8.51982 8.38977 10.2398 6.66977C11.9598 4.94977 14.2598 4.00977 16.6998 4.00977C19.1398 4.00977 21.4298 4.95977 23.1498 6.66977L24.2698 7.78977C25.8398 9.35977 25.8498 11.9198 24.2698 13.4998C23.4998 14.2698 22.4898 14.6898 21.4098 14.6898C20.3298 14.6898 19.3198 14.2698 18.5598 13.5098L17.4398 12.3898C17.1698 12.1198 16.8498 12.0798 16.6898 12.0798C16.5298 12.0798 16.1998 12.1198 15.9298 12.3898C15.7298 12.5898 15.6298 12.8398 15.6298 13.1198C15.6298 13.3998 15.7298 13.6598 15.9298 13.8498L33.2398 31.0998C34.8198 32.6698 34.8198 35.2298 33.2498 36.8098C32.4898 37.5798 31.4698 37.9998 30.3898 37.9998L30.3998 37.9898Z" fill="#221F1F"/>
<path d="M30.4001 35.9904C29.8801 35.9904 29.3601 35.7904 28.9601 35.4004L11.6501 18.1504C10.3101 16.8104 9.56006 15.0204 9.56006 13.1204C9.56006 11.2104 10.3001 9.43043 11.6501 8.08043C14.4301 5.31043 18.9601 5.31043 21.7301 8.08043L22.8501 9.20043C23.6501 9.99043 23.6501 11.2804 22.8501 12.0804C22.0601 12.8704 20.7701 12.8804 19.9701 12.0804L18.8501 10.9604C17.6601 9.77043 15.7101 9.77043 14.5101 10.9604C13.9401 11.5304 13.6201 12.2904 13.6201 13.1104C13.6201 13.9304 13.9401 14.6904 14.5101 15.2604L31.8101 32.5104C32.6101 33.3004 32.6101 34.5904 31.8101 35.3904C31.4101 35.7904 30.8901 35.9904 30.3701 35.9904H30.4001Z" fill="#221F1F"/>
<path d="M30.4001 35.9904C29.8801 35.9904 29.3601 35.7904 28.9601 35.4004L11.6501 18.1504C10.3101 16.8104 9.56006 15.0204 9.56006 13.1204C9.56006 11.2104 10.3001 9.43043 11.6501 8.08043C14.4301 5.31043 18.9601 5.31043 21.7301 8.08043L22.8501 9.20043C23.6501 9.99043 23.6501 11.2804 22.8501 12.0804C22.0601 12.8704 20.7701 12.8804 19.9701 12.0804L18.8501 10.9604C17.6601 9.77043 15.7101 9.77043 14.5101 10.9604C13.9401 11.5304 13.6201 12.2904 13.6201 13.1104C13.6201 13.9304 13.9401 14.6904 14.5101 15.2604L31.8101 32.5104C32.6101 33.3004 32.6101 34.5904 31.8101 35.3904C31.4101 35.7904 30.8901 35.9904 30.3701 35.9904H30.4001Z" fill="#9992F6"/>
<path d="M28.3901 35.5003L26.9501 34.0603L30.4801 30.5203L31.9201 31.9603L28.3901 35.5003ZM24.4201 31.5403L22.9801 30.1003L26.5101 26.5603L27.9501 28.0003L24.4201 31.5403ZM20.4501 27.5803L19.0101 26.1403L22.5401 22.6003L23.9801 24.0403L20.4501 27.5803ZM16.4801 23.6203L15.0401 22.1803L18.5701 18.6403L20.0101 20.0803L16.4801 23.6203ZM12.5001 19.6503L11.3201 18.4803C11.1901 18.3503 11.0601 18.2103 10.9401 18.0703L14.7201 14.8003C14.7201 14.8003 14.8101 14.9003 14.8501 14.9403L16.0301 16.1103L12.5001 19.6503ZM9.5701 13.1603H9.1001C9.1001 12.1203 9.2901 11.1403 9.6701 10.2203L14.2901 12.1303C14.1601 12.4503 14.0901 12.7803 14.0901 13.1203L9.5601 13.1603H9.5701ZM19.4001 12.1603L18.5301 11.2903C18.4301 11.1903 18.3301 11.1003 18.2201 11.0303L21.1401 6.97031C21.4701 7.21031 21.7801 7.47031 22.0701 7.76031L22.9401 8.63031L19.4101 12.1703L19.4001 12.1603ZM15.5001 10.8303L13.2301 6.38031C14.1401 5.92031 15.1101 5.64031 16.1301 5.57031L16.5001 10.5603C16.1501 10.5903 15.8101 10.6803 15.5001 10.8403V10.8303Z" fill="#221F1F"/>
</svg>
