<svg width="42" height="42" viewBox="0 0 42 42" fill="none" xmlns="http://www.w3.org/2000/svg">
<path d="M30.3998 39.99C28.7898 39.99 27.2798 39.37 26.1398 38.23L8.82982 20.99C6.72982 18.89 5.56982 16.1 5.56982 13.12C5.56982 10.14 6.72982 7.35 8.82982 5.25C10.9298 3.16 13.7298 2 16.6998 2C19.6698 2 22.4598 3.15 24.5598 5.24L25.6798 6.36C28.0298 8.71 28.0398 12.54 25.6898 14.89C24.5898 15.99 23.1398 16.62 21.5998 16.66L34.6498 29.66C37.0098 32.01 37.0098 35.84 34.6698 38.2C33.5298 39.35 32.0098 39.98 30.3898 39.98L30.3998 39.99Z" fill="white"/>
<path d="M30.3998 37.9898C29.3298 37.9898 28.3098 37.5698 27.5498 36.8098L10.2398 19.5698C8.51982 17.8498 7.56982 15.5598 7.56982 13.1198C7.56982 10.6798 8.51982 8.38977 10.2398 6.66977C11.9598 4.94977 14.2598 4.00977 16.6998 4.00977C19.1398 4.00977 21.4298 4.95977 23.1498 6.66977L24.2698 7.78977C25.8398 9.35977 25.8498 11.9198 24.2698 13.4998C23.4998 14.2698 22.4898 14.6898 21.4098 14.6898C20.3298 14.6898 19.3198 14.2698 18.5598 13.5098L17.4398 12.3898C17.1698 12.1198 16.8498 12.0798 16.6898 12.0798C16.5298 12.0798 16.1998 12.1198 15.9298 12.3898C15.7298 12.5898 15.6298 12.8398 15.6298 13.1198C15.6298 13.3998 15.7298 13.6598 15.9298 13.8498L33.2398 31.0998C34.8198 32.6698 34.8198 35.2298 33.2498 36.8098C32.4898 37.5798 31.4698 37.9998 30.3898 37.9998L30.3998 37.9898Z" fill="#221F1F"/>
<path d="M30.4001 35.9904C29.8801 35.9904 29.3601 35.7904 28.9601 35.4004L11.6501 18.1504C10.3101 16.8104 9.56006 15.0204 9.56006 13.1204C9.56006 11.2104 10.3001 9.43043 11.6501 8.08043C14.4301 5.31043 18.9601 5.31043 21.7301 8.08043L22.8501 9.20043C23.6501 9.99043 23.6501 11.2804 22.8501 12.0804C22.0601 12.8704 20.7701 12.8804 19.9701 12.0804L18.8501 10.9604C17.6601 9.77043 15.7101 9.77043 14.5101 10.9604C13.9401 11.5304 13.6201 12.2904 13.6201 13.1104C13.6201 13.9304 13.9401 14.6904 14.5101 15.2604L31.8101 32.5104C32.6101 33.3004 32.6101 34.5904 31.8101 35.3904C31.4101 35.7904 30.8901 35.9904 30.3701 35.9904H30.4001Z" fill="#221F1F"/>
<path d="M30.4001 35.9904C29.8801 35.9904 29.3601 35.7904 28.9601 35.4004L11.6501 18.1504C10.3101 16.8104 9.56006 15.0204 9.56006 13.1204C9.56006 11.2104 10.3001 9.43043 11.6501 8.08043C14.4301 5.31043 18.9601 5.31043 21.7301 8.08043L22.8501 9.20043C23.6501 9.99043 23.6501 11.2804 22.8501 12.0804C22.0601 12.8704 20.7701 12.8804 19.9701 12.0804L18.8501 10.9604C17.6601 9.77043 15.7101 9.77043 14.5101 10.9604C13.9401 11.5304 13.6201 12.2904 13.6201 13.1104C13.6201 13.9304 13.9401 14.6904 14.5101 15.2604L31.8101 32.5104C32.6101 33.3004 32.6101 34.5904 31.8101 35.3904C31.4101 35.7904 30.8901 35.9904 30.3701 35.9904H30.4001Z" fill="white"/>
<path d="M14.5301 10.9699C14.7901 10.7099 15.1001 10.4999 15.4301 10.3499L13.7701 6.62988C12.9801 6.97988 12.2701 7.46988 11.6601 8.07988C11.0101 8.72988 10.5001 9.48988 10.1401 10.3299L13.8901 11.9199C14.0401 11.5599 14.2601 11.2399 14.5401 10.9599L14.5301 10.9699Z" fill="#D63838"/>
<path d="M19.8702 11.9704L22.7502 9.09035L21.7402 8.08035C20.9602 7.30035 19.9902 6.70035 18.9302 6.36035L17.6602 10.2304C18.1202 10.3804 18.5202 10.6304 18.8602 10.9604L19.8602 11.9604L19.8702 11.9704Z" fill="#D63838"/>
<path d="M14.5302 15.2704C14.2102 14.9504 13.9702 14.5704 13.8202 14.1504L9.99023 15.5204C10.3502 16.5204 10.9102 17.4004 11.6602 18.1504L12.7602 19.2504L15.6402 16.3704L14.5402 15.2704H14.5302Z" fill="#D63838"/>
<path d="M29.0472 29.7471L26.1733 32.629L28.857 35.3052L31.7309 32.4233L29.0472 29.7471Z" fill="#D63838"/>
<path d="M23.6771 24.3916L20.8032 27.2735L23.4869 29.9497L26.3608 27.0678L23.6771 24.3916Z" fill="#D63838"/>
<path d="M18.3168 19.0459L15.4429 21.9278L18.1265 24.604L21.0004 21.7221L18.3168 19.0459Z" fill="#D63838"/>
</svg>
