<svg width="42" height="42" viewBox="0 0 42 42" fill="none" xmlns="http://www.w3.org/2000/svg">
<path d="M26.0404 25.37C25.1004 25.37 24.2204 24.92 23.6704 24.18C23.1404 23.45 22.9904 22.53 23.2604 21.65L28.6804 4.44C29.1904 2.94 30.4704 2 31.9704 2C33.1404 2 34.2704 2.58 34.9304 3.52C35.5804 4.44 35.7104 5.61 35.3004 6.72L28.6904 23.55C28.2604 24.65 27.2204 25.36 26.0504 25.36L26.0404 25.37Z" fill="white"/>
<path d="M18 19C21.3137 19 24 16.3137 24 13C24 9.68629 21.3137 7 18 7C14.6863 7 12 9.68629 12 13C12 16.3137 14.6863 19 18 19Z" fill="white"/>
<path d="M28 23C31.866 23 35 19.866 35 16C35 12.134 31.866 9 28 9C24.134 9 21 12.134 21 16C21 19.866 24.134 23 28 23Z" fill="white"/>
<path d="M14 23C17.866 23 21 19.866 21 16C21 12.134 17.866 9 14 9C10.134 9 7 12.134 7 16C7 19.866 10.134 23 14 23Z" fill="white"/>
<path d="M23 21C26.3137 21 29 18.3137 29 15C29 11.6863 26.3137 9 23 9C19.6863 9 17 11.6863 17 15C17 18.3137 19.6863 21 23 21Z" fill="white"/>
<path d="M11.1101 40.0008C10.5301 40.0008 9.98007 39.8408 9.52007 39.5308C8.12007 38.6008 7.83007 36.7908 8.66007 34.1708C9.23007 32.3708 10.3001 30.2408 11.6901 28.1608C12.7601 26.5508 16.5101 21.3008 19.7601 21.3008C20.3401 21.3008 20.8901 21.4608 21.3501 21.7708C24.8301 24.0808 20.5701 31.0608 19.1901 33.1508C18.1201 34.7608 14.3701 40.0108 11.1201 40.0108L11.1101 40.0008Z" fill="white"/>
<path d="M30.8899 39.9991C27.6399 39.9991 23.8899 34.7491 22.8199 33.1391C21.4299 31.0591 17.1799 24.0791 20.6599 21.7591C21.1199 21.4491 21.6699 21.2891 22.2499 21.2891C25.4999 21.2891 29.2499 26.5391 30.3199 28.1491C31.6999 30.2291 32.7799 32.3591 33.3499 34.1591C34.1799 36.7791 33.8899 38.5891 32.4799 39.5191C32.0199 39.8291 31.4699 39.9891 30.8899 39.9891V39.9991Z" fill="white"/>
<path d="M9.99962 22C9.29962 22 8.64962 21.63 8.28962 21.03L5.65962 16.65C5.20962 15.91 5.19962 14.98 5.62962 14.22C6.05962 13.47 6.85962 13 7.72962 13H34.2796C35.1496 13 35.9496 13.47 36.3796 14.22C36.8096 14.97 36.7996 15.9 36.3496 16.65L33.7196 21.03C33.3596 21.63 32.7096 22 32.0096 22H9.99962Z" fill="white"/>
<path d="M21 39.0002C12.18 39.0002 5 32.3502 5 24.1702C5 21.6502 5.7 19.1602 7.02 16.9602C7.38 16.3602 8.03 15.9902 8.73 15.9902H33.27C33.97 15.9902 34.62 16.3602 34.98 16.9602C36.3 19.1502 37 21.6502 37 24.1702C37 32.3402 29.82 39.0002 21 39.0002Z" fill="white"/>
<path d="M24 12C25.6569 12 27 10.6568 27 9C27 7.34315 25.6569 6 24 6C22.3431 6 21 7.34315 21 9C21 10.6568 22.3431 12 24 12Z" fill="white"/>
<path d="M20 9C21.6569 9 23 7.65685 23 6C23 4.34315 21.6569 3 20 3C18.3431 3 17 4.34315 17 6C17 7.65685 18.3431 9 20 9Z" fill="white"/>
<path d="M18 17C20.2091 17 22 15.2091 22 13C22 10.7909 20.2091 9 18 9C15.7909 9 14 10.7909 14 13C14 15.2091 15.7909 17 18 17Z" fill="#221F1F"/>
<path d="M28 21C30.7614 21 33 18.7614 33 16C33 13.2386 30.7614 11 28 11C25.2386 11 23 13.2386 23 16C23 18.7614 25.2386 21 28 21Z" fill="#221F1F"/>
<path d="M33.41 6.03998L26.82 22.83C26.42 23.85 24.84 23.3 25.17 22.25L30.58 5.03998C31.23 3.10998 34.11 4.11998 33.41 6.03998Z" fill="#221F1F"/>
<path d="M14 21C16.7614 21 19 18.7614 19 16C19 13.2386 16.7614 11 14 11C11.2386 11 9 13.2386 9 16C9 18.7614 11.2386 21 14 21Z" fill="#221F1F"/>
<path d="M23 19C25.2091 19 27 17.2091 27 15C27 12.7909 25.2091 11 23 11C20.7909 11 19 12.7909 19 15C19 17.2091 20.7909 19 23 19Z" fill="#221F1F"/>
<path d="M17.5096 32.0362C20.1622 28.0497 21.3807 24.198 20.2312 23.4332C19.0817 22.6683 15.9995 25.2799 13.3469 29.2663C10.6943 33.2527 9.4758 37.1044 10.6253 37.8693C11.7748 38.6342 14.857 36.0226 17.5096 32.0362Z" fill="#221F1F"/>
<path d="M31.3757 37.8676C32.5252 37.1027 31.3067 33.2511 28.6541 29.2646C26.0015 25.2782 22.9193 22.6666 21.7698 23.4315C20.6203 24.1964 21.8388 28.048 24.4914 32.0345C27.144 36.0209 30.2262 38.6325 31.3757 37.8676Z" fill="#221F1F"/>
<path d="M14 19C15.6569 19 17 17.6569 17 16C17 14.3431 15.6569 13 14 13C12.3431 13 11 14.3431 11 16C11 17.6569 12.3431 19 14 19Z" fill="#9CDB9C"/>
<path d="M28 19C29.6569 19 31 17.6569 31 16C31 14.3431 29.6569 13 28 13C26.3431 13 25 14.3431 25 16C25 17.6569 26.3431 19 28 19Z" fill="#9CDB9C"/>
<path d="M18 15C19.1046 15 20 14.1046 20 13C20 11.8954 19.1046 11 18 11C16.8954 11 16 11.8954 16 13C16 14.1046 16.8954 15 18 15Z" fill="#9CDB9C"/>
<path d="M18.5 19C19.8807 19 21 17.8807 21 16.5C21 15.1193 19.8807 14 18.5 14C17.1193 14 16 15.1193 16 16.5C16 17.8807 17.1193 19 18.5 19Z" fill="#9CDB9C"/>
<path d="M17.5 19C18.8807 19 20 17.8807 20 16.5C20 15.1193 18.8807 14 17.5 14C16.1193 14 15 15.1193 15 16.5C15 17.8807 16.1193 19 17.5 19Z" fill="#9CDB9C"/>
<path d="M23 17C24.1046 17 25 16.1046 25 15C25 13.8954 24.1046 13 23 13C21.8954 13 21 13.8954 21 15C21 16.1046 21.8954 17 23 17Z" fill="#9CDB9C"/>
<path d="M32.0003 20H10.0003L7.37032 15.62C7.21032 15.35 7.40032 15 7.72032 15H34.2703C34.5903 15 34.7903 15.35 34.6203 15.62L31.9903 20H32.0003Z" fill="#221F1F"/>
<path d="M8.73 18C7.63 19.83 7 21.94 7 24.17C7 31.25 13.27 37 21 37C28.73 37 35 31.26 35 24.17C35 21.93 34.37 19.83 33.27 18H8.73Z" fill="#221F1F"/>
<path d="M24 10C24.5523 10 25 9.55228 25 9C25 8.44772 24.5523 8 24 8C23.4477 8 23 8.44772 23 9C23 9.55228 23.4477 10 24 10Z" fill="#221F1F"/>
<path d="M20 7C20.5523 7 21 6.55228 21 6C21 5.44772 20.5523 5 20 5C19.4477 5 19 5.44772 19 6C19 6.55228 19.4477 7 20 7Z" fill="#221F1F"/>
<path d="M30.7224 24.1003C31.7221 23.1005 31.4531 21.2105 30.1214 19.8788C28.7897 18.5471 26.8997 18.2781 25.8999 19.2778C24.9002 20.2775 25.1693 22.1675 26.501 23.4992C27.8327 24.8309 29.7227 25.1 30.7224 24.1003Z" fill="#979797"/>
</svg>
