<svg width="42" height="42" viewBox="0 0 42 42" fill="none" xmlns="http://www.w3.org/2000/svg">
<path fill-rule="evenodd" clip-rule="evenodd" d="M29 18C28.38 18 27.77 17.85 27.21 17.58L19.21 13.58C17.85 12.9 17 11.53 17 10C17 8.47 17.85 7.1 19.21 6.42L27.21 2.42C27.77 2.14 28.38 2 29 2C29.74 2 30.47 2.21 31.1 2.6C32.29 3.33 33 4.61 33 6V14C33 15.4 32.29 16.67 31.1 17.4C30.47 17.79 29.74 18 29 18Z" fill="white"/>
<path fill-rule="evenodd" clip-rule="evenodd" d="M13 18C12.26 18 11.53 17.79 10.9 17.4C9.71 16.67 9 15.39 9 14V6C9 4.6 9.71 3.33 10.9 2.6C11.53 2.21 12.26 2 13 2C13.62 2 14.23 2.15 14.79 2.42L22.79 6.42C24.15 7.1 25 8.47 25 10C25 11.53 24.15 12.9 22.79 13.58L14.79 17.58C14.23 17.86 13.62 18 13 18Z" fill="white"/>
<path d="M21 16C24.3137 16 27 13.3137 27 10C27 6.68629 24.3137 4 21 4C17.6863 4 15 6.68629 15 10C15 13.3137 17.6863 16 21 16Z" fill="white"/>
<path d="M17.7302 39.9698C18.7002 39.9698 19.5502 39.7898 20.2302 39.6398C20.4902 39.5798 20.8802 39.4998 21.0102 39.4998C21.1402 39.4998 21.5602 39.5898 21.8402 39.6498C22.5202 39.7898 23.3602 39.9698 24.3002 39.9698C25.0502 39.9698 25.7402 39.8598 26.4002 39.6498C28.2002 39.0698 29.3402 37.7998 30.1002 36.9698C30.2902 36.7598 30.5702 36.4498 30.6802 36.3598C30.7902 36.2898 31.1602 36.1198 31.4102 36.0098C32.4502 35.5498 34.0202 34.8398 35.1402 33.2998C36.2302 31.7898 36.4202 30.1098 36.5402 28.9998C36.5702 28.6998 36.6202 28.2498 36.6702 28.1098C36.7202 27.9698 36.9402 27.5798 37.0902 27.3198C37.6502 26.3498 38.4802 24.8798 38.4802 23.0098C38.4802 21.0998 37.6202 19.6098 37.0602 18.6298C36.9202 18.3898 36.7202 18.0298 36.6702 17.9098C36.6302 17.7898 36.5902 17.3698 36.5602 17.0898C36.4402 15.9698 36.2502 14.2698 35.1402 12.7398C34.0302 11.2098 32.4802 10.5098 31.4602 10.0498C31.1902 9.9298 30.8002 9.7498 30.6802 9.6698C30.5902 9.5998 30.3302 9.29981 30.1502 9.10981C29.3802 8.2498 28.2202 6.9698 26.3802 6.3798C25.7002 6.1598 25.0002 6.0498 24.2402 6.0498C23.2702 6.0498 22.4202 6.2298 21.7402 6.3798C21.4802 6.4398 21.0902 6.5198 20.9602 6.5198C20.8302 6.5198 20.4102 6.4298 20.1302 6.3698C19.4502 6.2298 18.6102 6.0498 17.6702 6.0498C16.9202 6.0498 16.2302 6.1598 15.5702 6.3698C13.7702 6.9498 12.6302 8.2198 11.8702 9.0498C11.6802 9.2598 11.4002 9.5698 11.2902 9.6598C11.1802 9.7298 10.8102 9.8998 10.5602 10.0098C9.52024 10.4698 7.95023 11.1798 6.83023 12.7198C5.74023 14.2298 5.55023 15.9098 5.43023 17.0198C5.40023 17.3198 5.35023 17.7698 5.30023 17.9098C5.25023 18.0498 5.03023 18.4398 4.88023 18.6998C4.32023 19.6698 3.49023 21.1398 3.49023 23.0098C3.49023 24.9198 4.35023 26.4098 4.91023 27.3898C5.05023 27.6298 5.25023 27.9898 5.30023 28.1098C5.34023 28.2298 5.38023 28.6498 5.41023 28.9298C5.53023 30.0498 5.72023 31.7498 6.83023 33.2798C7.94023 34.8098 9.49023 35.5098 10.5102 35.9698C10.7802 36.0898 11.1702 36.2698 11.2902 36.3498C11.3802 36.4198 11.6402 36.7198 11.8202 36.9098C12.5902 37.7698 13.7502 39.0498 15.5902 39.6398C16.2702 39.8598 16.9702 39.9698 17.7302 39.9698Z" fill="white"/>
<path d="M24.27 37.9698C23.51 37.9698 22.81 37.8198 22.18 37.6898C21.73 37.5898 21.3 37.4998 21 37.4998C20.66 37.4998 20.21 37.5898 19.74 37.6898C19.12 37.8198 18.43 37.9598 17.69 37.9598C17.16 37.9598 16.67 37.8898 16.2 37.7298C14.91 37.3098 14.05 36.3598 13.36 35.5998C13.04 35.2498 12.74 34.9098 12.47 34.7198C12.21 34.5298 11.81 34.3498 11.38 34.1598C10.44 33.7398 9.26 33.2198 8.45 32.0998C7.67 31.0198 7.53 29.7598 7.42 28.7498C7.37 28.2598 7.32 27.7998 7.21 27.4598C7.1 27.1298 6.87 26.7198 6.63 26.2898C6.13 25.4098 5.5 24.3098 5.5 22.9698C5.5 21.5898 6.14 20.4798 6.66 19.5798C6.9 19.1698 7.12 18.7898 7.22 18.4898C7.32 18.1798 7.37 17.7298 7.42 17.2598C7.53 16.2398 7.67 14.9698 8.47 13.8698C9.26 12.7798 10.43 12.2498 11.36 11.8298C11.8 11.6298 12.22 11.4398 12.49 11.2498C12.74 11.0698 13.03 10.7498 13.34 10.3998C14.03 9.62977 14.9 8.66977 16.23 8.23977C16.71 8.08977 17.2 8.00977 17.75 8.00977C18.51 8.00977 19.21 8.15977 19.84 8.28977C20.29 8.38977 20.72 8.47977 21.02 8.47977C21.36 8.47977 21.81 8.38977 22.28 8.28977C22.9 8.15977 23.59 8.01977 24.33 8.01977C24.86 8.01977 25.35 8.08977 25.82 8.24977C27.11 8.66977 27.97 9.61977 28.66 10.3798C28.98 10.7298 29.28 11.0698 29.55 11.2598C29.81 11.4498 30.21 11.6298 30.64 11.8198C31.58 12.2398 32.76 12.7598 33.57 13.8798C34.35 14.9598 34.49 16.2198 34.6 17.2298C34.65 17.7198 34.7 18.1798 34.81 18.5198C34.92 18.8498 35.15 19.2598 35.39 19.6898C35.89 20.5698 36.52 21.6698 36.52 23.0098C36.52 24.3898 35.88 25.4998 35.36 26.3998C35.12 26.8098 34.9 27.1898 34.8 27.4898C34.7 27.7998 34.65 28.2498 34.6 28.7198C34.49 29.7398 34.35 31.0098 33.55 32.1098C32.76 33.1998 31.59 33.7298 30.66 34.1498C30.22 34.3498 29.8 34.5398 29.53 34.7298C29.28 34.9098 28.99 35.2298 28.68 35.5798C27.99 36.3498 27.12 37.3098 25.79 37.7398C25.31 37.8898 24.82 37.9698 24.27 37.9698Z" fill="#221F1F"/>
<path d="M32.89 19.1398C32.46 17.8098 32.71 16.1398 31.93 15.0698C31.12 13.9498 29.45 13.6898 28.35 12.8898C27.25 12.0898 26.47 10.5898 25.17 10.1598C23.87 9.72984 22.38 10.4998 21 10.4998C19.67 10.4998 18.16 9.72984 16.83 10.1598C15.5 10.5898 14.73 12.0998 13.65 12.8798C12.57 13.6598 10.87 13.9698 10.08 15.0598C9.28 16.1598 9.54 17.8398 9.11 19.1298C8.68 20.4198 7.5 21.6098 7.5 22.9898C7.5 24.3698 8.68 25.5198 9.12 26.8498C9.56 28.1798 9.3 29.8498 10.08 30.9198C10.86 31.9898 12.56 32.2998 13.66 33.0998C14.76 33.8998 15.54 35.3998 16.84 35.8298C18.14 36.2598 19.63 35.4898 21.01 35.4898C22.39 35.4898 23.85 36.2598 25.18 35.8298C26.51 35.3998 27.28 33.8898 28.36 33.1098C29.44 32.3298 31.14 32.0198 31.93 30.9298C32.72 29.8398 32.47 28.1498 32.9 26.8598C33.32 25.5798 34.51 24.3798 34.51 22.9998C34.51 21.6198 33.33 20.4698 32.89 19.1398Z" fill="#65AA65"/>
<path d="M32.89 19.1402C32.46 17.8102 32.71 16.1402 31.93 15.0702C31.12 13.9502 29.45 13.6902 28.35 12.8902C27.54 12.3002 26.91 11.3402 26.12 10.7002L23.87 11.7102L22 25.0002L29.49 32.4902C30.41 32.0702 31.38 31.7002 31.93 30.9402C32.73 29.8402 32.47 28.1602 32.9 26.8702C33.32 25.5902 34.51 24.3902 34.51 23.0102C34.51 21.6802 33.33 20.4802 32.89 19.1502V19.1402Z" fill="#9CDB9C"/>
<path fill-rule="evenodd" clip-rule="evenodd" d="M24.0599 28.3002C23.1699 28.8102 21.9599 28.1802 20.9999 28.1802C20.0099 28.1802 18.7999 28.8002 17.9399 28.3002C17.1099 27.8202 17.0299 26.4802 16.5099 25.5902C15.9999 24.7002 14.8699 23.9602 14.8799 23.0002C14.8799 22.0102 16.0199 21.2702 16.5199 20.4102C16.9999 19.5802 17.0499 18.2102 17.9399 17.7002C18.8299 17.1902 20.0399 17.8202 20.9999 17.8202C21.9899 17.8202 23.1999 17.2002 24.0599 17.7002C24.8899 18.1802 24.9699 19.5202 25.4899 20.4102C25.9999 21.3002 27.1299 22.0402 27.1199 23.0002C27.1199 23.9902 25.9799 24.7302 25.4799 25.5902C24.9999 26.4202 24.9499 27.7902 24.0599 28.3002Z" fill="#221F1F"/>
<path fill-rule="evenodd" clip-rule="evenodd" d="M23.0102 26.4803C22.8602 26.4603 22.6702 26.4203 22.4902 26.3803C22.0502 26.2903 21.5502 26.1803 21.0002 26.1803C20.4402 26.1803 19.9302 26.2803 19.4802 26.3803C19.3202 26.4103 19.1502 26.4503 19.0002 26.4703C18.9502 26.3303 18.8902 26.1603 18.8402 26.0303C18.6902 25.5903 18.5202 25.0903 18.2402 24.6003C17.9602 24.1103 17.6102 23.7103 17.3002 23.3603C17.2102 23.2603 17.0902 23.1203 16.9902 23.0003C17.0902 22.8803 17.2102 22.7403 17.3102 22.6303C17.6102 22.2903 17.9602 21.9003 18.2402 21.4203C18.5102 20.9503 18.6702 20.4603 18.8102 20.0303C18.8602 19.8803 18.9202 19.6903 18.9802 19.5303C19.1402 19.5503 19.3302 19.5903 19.5002 19.6303C19.9402 19.7203 20.4402 19.8303 20.9902 19.8303C21.5502 19.8303 22.0602 19.7303 22.5102 19.6303C22.6702 19.6003 22.8402 19.5603 22.9902 19.5403C23.0402 19.6803 23.1002 19.8503 23.1502 19.9803C23.3002 20.4203 23.4702 20.9203 23.7502 21.4103C24.0302 21.9003 24.3802 22.3003 24.6902 22.6503C24.7802 22.7503 24.9002 22.8903 25.0002 23.0103C24.9002 23.1303 24.7802 23.2703 24.6802 23.3803C24.3802 23.7203 24.0302 24.1103 23.7502 24.5903C23.4802 25.0603 23.3202 25.5503 23.1802 25.9803C23.1302 26.1303 23.0702 26.3203 23.0102 26.4803Z" fill="white"/>
<path fill-rule="evenodd" clip-rule="evenodd" d="M24.72 23.4696C25.08 23.4696 25.44 23.3696 25.75 23.1796L28.96 21.2496C29.45 20.9596 29.79 20.4696 29.9 19.9096C30.01 19.3496 29.87 18.7696 29.52 18.3196L22.44 9.16965C22.07 8.68965 21.49 8.39965 20.88 8.38965H20.86C20.26 8.38965 19.69 8.65965 19.31 9.12965L18.62 9.97965C18.15 10.5596 18.04 11.3696 18.35 12.0496L22.91 22.2796C23.14 22.7996 23.59 23.1996 24.14 23.3696C24.34 23.4296 24.54 23.4596 24.74 23.4596L24.72 23.4696Z" fill="#221F1F"/>
<path fill-rule="evenodd" clip-rule="evenodd" d="M24.7202 21.4704L27.9302 19.5404L20.8502 10.4004L20.1602 11.2404L24.7202 21.4704Z" fill="#EF615E"/>
<path fill-rule="evenodd" clip-rule="evenodd" d="M17.2802 23.4696C16.9202 23.4696 16.5602 23.3696 16.2502 23.1796L13.0402 21.2496C12.5502 20.9596 12.2102 20.4696 12.1002 19.9096C11.9902 19.3496 12.1302 18.7696 12.4802 18.3196L19.5602 9.16965C19.9302 8.68965 20.5102 8.39965 21.1202 8.38965H21.1402C21.7402 8.38965 22.3102 8.65965 22.6902 9.12965L23.3802 9.97965C23.8502 10.5596 23.9602 11.3696 23.6502 12.0496L19.0902 22.2796C18.8602 22.7996 18.4102 23.1996 17.8602 23.3696C17.6602 23.4296 17.4602 23.4596 17.2602 23.4596L17.2802 23.4696Z" fill="#221F1F"/>
<path fill-rule="evenodd" clip-rule="evenodd" d="M17.2798 21.4704L14.0698 19.5404L21.1498 10.4004L21.8398 11.2404L17.2798 21.4704Z" fill="#EF615E"/>
<path fill-rule="evenodd" clip-rule="evenodd" d="M29 16C29.37 16 29.73 15.9 30.05 15.7C30.64 15.34 31 14.69 31 14V6C31 5.31 30.64 4.66 30.05 4.3C29.73 4.1 29.36 4 29 4C28.69 4 28.39 4.07 28.11 4.21L20.11 8.21C19.43 8.55 19 9.24 19 10C19 10.76 19.43 11.45 20.11 11.79L28.11 15.79C28.39 15.93 28.7 16 29 16Z" fill="#221F1F"/>
<path fill-rule="evenodd" clip-rule="evenodd" d="M29 14L21 10L29 6V14Z" fill="#EF615E"/>
<path fill-rule="evenodd" clip-rule="evenodd" d="M13 16C12.63 16 12.27 15.9 11.95 15.7C11.36 15.34 11 14.69 11 14V6C11 5.31 11.36 4.66 11.95 4.3C12.27 4.1 12.64 4 13 4C13.31 4 13.61 4.07 13.89 4.21L21.89 8.21C22.57 8.55 23 9.24 23 10C23 10.76 22.57 11.45 21.89 11.79L13.89 15.79C13.61 15.93 13.3 16 13 16Z" fill="#221F1F"/>
<path fill-rule="evenodd" clip-rule="evenodd" d="M13 14L21 10L13 6V14Z" fill="#EF615E"/>
<path d="M21 14C23.2091 14 25 12.2091 25 10C25 7.79086 23.2091 6 21 6C18.7909 6 17 7.79086 17 10C17 12.2091 18.7909 14 21 14Z" fill="#221F1F"/>
<path d="M21 12C22.1046 12 23 11.1046 23 10C23 8.89543 22.1046 8 21 8C19.8954 8 19 8.89543 19 10C19 11.1046 19.8954 12 21 12Z" fill="#EF615E"/>
<path d="M20.1099 8.22L21.8899 11.78C22.5499 11.45 22.9999 10.78 22.9999 10C22.9999 8.9 22.0999 8 20.9999 8C20.6799 8 20.3799 8.08 20.1099 8.22Z" fill="#F0AA97"/>
<path d="M27 13L29 14V6L27 7V13Z" fill="#F0AA97"/>
</svg>
