<svg width="42" height="42" viewBox="0 0 42 42" fill="none" xmlns="http://www.w3.org/2000/svg">
<path fill-rule="evenodd" clip-rule="evenodd" d="M23 40C13.63 40 6 32.37 6 23C6 13.63 13.63 6 23 6C32.37 6 40 13.63 40 23C40 32.37 32.37 40 23 40Z" fill="white"/>
<path fill-rule="evenodd" clip-rule="evenodd" d="M10.86 19.1C9.79 19.1 8.79 18.68 8.03 17.93L5.58 15.48C4.72 14.62 4.25 13.49 4.25 12.27C4.25 11.05 4.72 9.92 5.58 9.06L9.07 5.57C9.93 4.71 11.07 4.25 12.27 4.25C13.47 4.25 14.62 4.72 15.47 5.58L17.92 8.03C19.48 9.59 19.48 12.13 17.92 13.69L13.68 17.93C12.92 18.69 11.92 19.1 10.85 19.1H10.86Z" fill="white"/>
<path d="M7.5 13C10.5376 13 13 10.5376 13 7.5C13 4.46243 10.5376 2 7.5 2C4.46243 2 2 4.46243 2 7.5C2 10.5376 4.46243 13 7.5 13Z" fill="white"/>
<path fill-rule="evenodd" clip-rule="evenodd" d="M23 8C14.73 8 8 14.73 8 23C8 31.27 14.73 38 23 38C31.27 38 38 31.27 38 23C38 14.73 31.27 8 23 8Z" fill="#221F1F"/>
<path fill-rule="evenodd" clip-rule="evenodd" d="M10.8601 17.1C11.3901 17.1 11.9001 16.89 12.2701 16.51L16.5101 12.27C17.2901 11.49 17.2901 10.22 16.5101 9.44L14.0601 6.99C13.5801 6.51 12.9401 6.25 12.2701 6.25C11.6001 6.25 10.9601 6.51 10.4801 6.99L6.99006 10.48C6.00006 11.47 6.00006 13.08 6.99006 14.06L9.44006 16.51C9.82006 16.89 10.3201 17.1 10.8501 17.1H10.8601Z" fill="#221F1F"/>
<path d="M23 36C30.1797 36 36 30.1797 36 23C36 15.8203 30.1797 10 23 10C15.8203 10 10 15.8203 10 23C10 30.1797 15.8203 36 23 36Z" fill="#EF615E"/>
<path d="M17.5 18C15.17 18 12.91 18.26 10.73 18.74C10.27 20.08 10 21.51 10 23C10 30.18 15.82 36 23 36C30.18 36 35.45 30.7 35.95 23.98C30.76 20.22 24.39 18 17.5 18Z" fill="#D63838"/>
<path d="M7.5 6C8.33 6 9 6.67 9 7.5C9 8.33 8.33 9 7.5 9C6.67 9 6 8.33 6 7.5C6 6.67 6.67 6 7.5 6ZM7.5 4C5.57 4 4 5.57 4 7.5C4 9.43 5.57 11 7.5 11C9.43 11 11 9.43 11 7.5C11 5.57 9.43 4 7.5 4Z" fill="#221F1F"/>
<path d="M14.6992 10.4483L10.4566 14.6909L8.40597 12.6403C8.19384 12.4281 8.20091 12.0958 8.40597 11.8907L11.892 8.40475C12.1041 8.19262 12.4365 8.19969 12.6415 8.40475L14.6921 10.4554L14.6992 10.4483Z" fill="#F7DF69"/>
<path d="M36.1198 18.1603C35.9198 18.2403 35.6998 18.3003 35.4698 18.3103L31.2398 18.5603L30.9998 22.7903C30.9698 23.3003 30.7498 23.7503 30.4198 24.0903C30.0798 24.4303 29.6298 24.6403 29.1198 24.6703L24.8998 24.9103L24.6598 29.1403C24.6298 29.6503 24.4098 30.1003 24.0798 30.4403C23.7398 30.7803 23.2898 30.9903 22.7798 31.0203L18.5498 31.2603L18.3098 35.4903C18.2998 35.7103 18.2398 35.9203 18.1598 36.1203C15.3298 35.0703 12.9298 33.1403 11.2998 30.6503L11.5798 30.6303L11.8198 26.4103C11.8498 25.9003 12.0698 25.4503 12.3998 25.1103C12.7398 24.7703 13.1898 24.5603 13.6998 24.5303L17.9298 24.2803L18.1698 20.0503C18.1998 19.5403 18.4198 19.0903 18.7498 18.7503C19.0798 18.4103 19.5398 18.2003 20.0498 18.1703L24.2698 17.9303L24.5098 13.7103C24.5398 13.2003 24.7598 12.7503 25.0898 12.4103C25.4298 12.0703 25.8798 11.8603 26.3898 11.8303L30.6198 11.5803L30.6398 11.2803C33.1298 12.9103 35.0698 15.3203 36.1198 18.1503V18.1603Z" fill="#221F1F"/>
<path d="M29.35 16.6598L29 22.6598L23 23.0098L22.65 29.0098L16.65 29.3598L16.37 34.1598C15.3 33.5298 14.34 32.7498 13.5 31.8498L13.81 26.5198L19.81 26.1698L20.16 20.1698L26.16 19.8198L26.51 13.8198L31.87 13.5098C32.77 14.3498 33.55 15.3198 34.18 16.3798L29.35 16.6598Z" fill="#F7DF69"/>
<path d="M26.1998 19.2297L26.1698 19.8297L20.1698 20.1797L19.8198 26.1797L13.8198 26.5297L13.5098 31.8597C14.3498 32.7597 15.3198 33.5397 16.3798 34.1697L16.6598 29.3697L22.6598 29.0197L23.0098 23.0197L29.0098 22.6697L29.1498 20.2297C28.1898 19.8497 27.2098 19.5097 26.1998 19.2197V19.2297Z" fill="#F9A936"/>
</svg>
