<svg width="42" height="42" viewBox="0 0 42 42" fill="none" xmlns="http://www.w3.org/2000/svg">
<path d="M10.1198 38.0004C8.61976 38.0004 7.26976 37.1803 6.56976 35.8503C5.87976 34.5203 5.97976 32.9403 6.83976 31.7104L17.7598 16.0704C18.5098 15.0004 19.7298 14.3604 21.0398 14.3604C22.3498 14.3604 23.5698 15.0004 24.3198 16.0704L35.2398 31.7104C36.0998 32.9403 36.1998 34.5203 35.5098 35.8503C34.8198 37.1803 33.4598 38.0004 31.9598 38.0004H10.1198Z" fill="white"/>
<path d="M14.59 25.1802C13.09 25.1802 11.74 24.3602 11.04 23.0302C10.35 21.7002 10.45 20.1202 11.31 18.8902L17.76 9.6602C18.51 8.5902 19.73 7.9502 21.04 7.9502C22.35 7.9502 23.57 8.5902 24.32 9.6602L30.77 18.9002C31.63 20.1302 31.73 21.7102 31.04 23.0402C30.35 24.3702 28.99 25.1902 27.49 25.1902H14.6L14.59 25.1802Z" fill="white"/>
<path d="M12.5001 30.8404C11.0001 30.8404 9.65013 30.0204 8.95013 28.6904C8.26013 27.3604 8.36013 25.7804 9.22013 24.5504L17.7601 12.3204C18.5101 11.2504 19.7301 10.6104 21.0401 10.6104C22.3501 10.6104 23.5701 11.2504 24.3201 12.3204L32.8501 24.5504C33.7101 25.7804 33.8101 27.3604 33.1201 28.6904C32.4301 30.0204 31.0701 30.8404 29.5701 30.8404H12.5001Z" fill="white"/>
<path d="M18.3499 16.6098C17.7999 16.6098 17.2499 16.3698 16.8699 15.9798C16.8499 15.9598 16.8299 15.9398 16.8099 15.9198C16.3099 15.6398 15.9399 15.1798 15.7599 14.5698C15.0699 13.6698 14.7699 12.5198 14.9399 11.3898C13.8399 10.2698 13.4499 8.63977 13.9399 7.12977C14.4299 5.61977 15.6899 4.52977 17.2499 4.26977C17.9799 2.86977 19.4099 2.00977 20.9899 2.00977C22.5699 2.00977 23.9999 2.87977 24.7299 4.27977C26.2899 4.53977 27.5499 5.62977 28.0399 7.13977C28.5299 8.64977 28.1499 10.2698 27.0399 11.3998C27.1999 12.5298 26.9099 13.6698 26.2199 14.5798C25.9199 15.5498 25.1899 16.1298 24.1699 16.2298C23.9999 16.2798 23.8299 16.2998 23.6499 16.2998C23.3199 16.2998 22.9199 16.1798 22.6299 16.0198L21.1099 15.2898L19.4899 16.2898C19.4899 16.2898 19.4099 16.3398 19.3699 16.3598C19.0399 16.5398 18.6899 16.6298 18.3399 16.6298L18.3499 16.6098Z" fill="white"/>
<path d="M10.12 35.9996C9.36997 35.9996 8.68997 35.5896 8.34997 34.9196C8.00997 34.2496 8.05997 33.4596 8.47997 32.8496L19.4 17.2096C19.77 16.6696 20.39 16.3496 21.04 16.3496C21.69 16.3496 22.31 16.6696 22.68 17.2096L33.6 32.8496C34.03 33.4596 34.08 34.2596 33.73 34.9196C33.38 35.5796 32.7 35.9996 31.96 35.9996H10.12Z" fill="#221F1F"/>
<path d="M14.5902 23.1797C13.8402 23.1797 13.1602 22.7697 12.8202 22.0997C12.4802 21.4297 12.5302 20.6397 12.9502 20.0297L19.4002 10.7897C19.7702 10.2497 20.3902 9.92969 21.0402 9.92969C21.6902 9.92969 22.3102 10.2497 22.6802 10.7897L29.1302 20.0297C29.5602 20.6397 29.6102 21.4397 29.2602 22.0997C28.9102 22.7597 28.2302 23.1797 27.4902 23.1797H14.6002H14.5902Z" fill="#221F1F"/>
<path d="M12.4999 28.8396C11.7499 28.8396 11.0699 28.4296 10.7299 27.7596C10.3899 27.0896 10.4399 26.2996 10.8599 25.6896L19.3999 13.4596C19.7699 12.9196 20.3899 12.5996 21.0399 12.5996C21.6899 12.5996 22.3099 12.9196 22.6799 13.4596L31.2099 25.6896C31.6399 26.2996 31.6899 27.0996 31.3399 27.7596C30.9899 28.4196 30.3099 28.8396 29.5699 28.8396H12.4999Z" fill="#221F1F"/>
<path d="M20 32H22V39.6C22 39.82 21.82 40 21.6 40H20.4C20.18 40 20 39.82 20 39.6V32Z" fill="#221F1F"/>
<path d="M21.0298 11.9404L27.4798 21.1804H14.5898L21.0298 11.9404Z" fill="#9CDB9C"/>
<path d="M21.03 14.6201L29.57 26.8401H12.5L21.03 14.6201Z" fill="#9CDB9C"/>
<path d="M21.0301 18.3604L31.9501 34.0004H10.1201L21.0301 18.3604Z" fill="#9CDB9C"/>
<path d="M25.0501 34.0004L19.4101 23.6104L23.7401 22.6704L20.3301 12.9404L14.5901 21.1804H16.4501L12.5001 26.8404H15.1101L10.1201 34.0004H25.0501Z" fill="#65AA65"/>
<path d="M23.8799 14.2302C23.5199 14.2302 23.8299 14.3702 23.5099 14.2002L21.0099 13.0002L18.4599 14.5802C18.1399 14.7502 18.4999 14.2302 18.1399 14.2302C17.4799 14.2302 17.8599 13.9402 17.4399 13.4402C17.0199 12.9402 16.8399 12.2802 16.9499 11.6302L17.1099 10.6902L16.4299 10.0302C15.8199 9.44023 15.5999 8.56023 15.8599 7.74023C16.1199 6.92023 16.8199 6.34023 17.6599 6.22023L18.5899 6.09023L19.0099 5.24023C19.3899 4.47023 20.1499 3.99023 21.0099 3.99023C21.8699 3.99023 22.6299 4.47023 23.0099 5.24023L23.4299 6.09023L24.3699 6.22023C25.2099 6.34023 25.9099 6.92023 26.1699 7.74023C26.4299 8.56023 26.2199 9.43023 25.5999 10.0302L24.9199 10.6902L25.0799 11.6202C25.1899 12.2702 25.0099 12.9302 24.5899 13.4402C24.1699 13.9402 24.5399 14.2302 23.8899 14.2302H23.8799Z" fill="#221F1F"/>
<path d="M21.2001 6.13043L22.0801 7.93043L24.0601 8.21043C24.2501 8.24043 24.3201 8.47043 24.1901 8.60043L22.7501 9.99043L23.0901 11.9604C23.1201 12.1504 22.9301 12.2904 22.7601 12.2004L20.9901 11.2704L19.2201 12.2004C19.0501 12.2904 18.8601 12.1504 18.8901 11.9604L19.2301 9.99043L17.7901 8.60043C17.6501 8.47043 17.7301 8.24043 17.9201 8.21043L19.9001 7.93043L20.7801 6.13043C20.8601 5.96043 21.1001 5.96043 21.1901 6.13043H21.2001Z" fill="#F7DF69"/>
</svg>
