<svg width="42" height="42" viewBox="0 0 42 42" fill="none" xmlns="http://www.w3.org/2000/svg">
<path fill-rule="evenodd" clip-rule="evenodd" d="M28.1799 33C27.4599 33 26.7399 32.82 26.0999 32.48L20.9999 29.79L15.8999 32.48C15.2599 32.82 14.5399 33 13.8199 33C12.4999 33 11.2599 32.42 10.4099 31.41C9.55994 30.4 9.20994 29.08 9.42994 27.79L10.4199 22.1L6.27994 18.08C5.05994 16.89 4.61994 15.14 5.14994 13.52C5.67994 11.9 7.04994 10.73 8.73994 10.49L14.4599 9.67L17.0099 4.49C17.7699 2.96 19.2999 2 20.9999 2C22.6999 2 24.2399 2.95 24.9899 4.48L27.5399 9.66L33.2499 10.48C34.9499 10.73 36.3199 11.89 36.8499 13.51C37.3799 15.13 36.9399 16.88 35.7199 18.07L31.5799 22.09L32.5699 27.78C32.7899 29.08 32.4399 30.4 31.5899 31.4C30.7399 32.41 29.4999 32.99 28.1799 32.99V33Z" fill="white"/>
<path fill-rule="evenodd" clip-rule="evenodd" d="M16.58 40C15.19 40 13.92 39.3 13.18 38.12C12.44 36.94 12.37 35.49 12.99 34.24L17.41 25.24C18.09 23.86 19.46 23 21 23C22.54 23 23.91 23.86 24.59 25.24L29.01 34.24C29.62 35.49 29.55 36.94 28.82 38.12C28.08 39.3 26.81 40.01 25.42 40.01H16.57L16.58 40Z" fill="white"/>
<path fill-rule="evenodd" clip-rule="evenodd" d="M28.1799 31C27.7799 31 27.3899 30.9 27.0399 30.72L20.9999 27.53L14.9599 30.72C14.6099 30.91 14.2099 31 13.8199 31C13.0999 31 12.4099 30.68 11.9399 30.13C11.4699 29.58 11.2799 28.85 11.3999 28.14L12.5699 21.41L7.66985 16.65C6.99985 16 6.75985 15.03 7.04985 14.14C7.33985 13.25 8.09985 12.61 9.02985 12.47L15.7899 11.5L18.7999 5.37C19.2199 4.53 20.0599 4 20.9999 4C21.9399 4 22.7799 4.52 23.1999 5.37L26.2099 11.5L32.9699 12.47C33.8999 12.61 34.6599 13.25 34.9499 14.14C35.2399 15.03 34.9999 16 34.3299 16.65L29.4299 21.41L30.5999 28.14C30.7199 28.85 30.5299 29.58 30.0599 30.13C29.5899 30.69 28.9099 31 28.1799 31Z" fill="#221F1F"/>
<path fill-rule="evenodd" clip-rule="evenodd" d="M16.5798 38C15.8898 38 15.2498 37.64 14.8798 37.06C14.5098 36.47 14.4798 35.74 14.7798 35.12L19.1998 26.12C19.5398 25.44 20.2298 25 20.9898 25C21.7498 25 22.4498 25.43 22.7798 26.12L27.1998 35.12C27.4998 35.74 27.4698 36.47 27.0998 37.06C26.7298 37.65 26.0898 38 25.3998 38H16.5498H16.5798Z" fill="#221F1F"/>
<path fill-rule="evenodd" clip-rule="evenodd" d="M21.3999 6.25043L24.8799 13.3204L32.6799 14.4404C33.0499 14.4904 33.1999 14.9504 32.9299 15.2104L27.2799 20.7004L28.6299 28.4704C28.6899 28.8404 28.3099 29.1204 27.9799 28.9404L21.0099 25.2604L14.0399 28.9404C13.7099 29.1104 13.3199 28.8304 13.3899 28.4704L14.7399 20.7004L9.08987 15.2104C8.81987 14.9504 8.96987 14.5004 9.33987 14.4404L17.1399 13.3204L20.6199 6.25043C20.7799 5.92043 21.2599 5.92043 21.4299 6.25043H21.3999Z" fill="#F9A936"/>
<path fill-rule="evenodd" clip-rule="evenodd" d="M25.4201 36L21.0001 27L16.5801 36H25.4201Z" fill="#F9A936"/>
<path fill-rule="evenodd" clip-rule="evenodd" d="M25.42 36L21 27V36H25.42Z" fill="#F7DF69"/>
<path fill-rule="evenodd" clip-rule="evenodd" d="M27.3 20.6798L22.16 19.0598L22.09 19.9398L28.62 28.4698L27.27 20.6998L27.3 20.6798ZM32.68 14.4498L24.88 13.3298L21.4 6.25977C21.32 6.08977 21.16 6.00977 21 6.00977V18.0098L32.96 14.6298C32.89 14.5398 32.81 14.4698 32.68 14.4598V14.4498ZM9.32 14.4498C9.17 14.4698 9.06 14.5698 9 14.6898L20.51 18.0398L17.13 13.3298L9.33 14.4498H9.32Z" fill="#F7DF69"/>
<path d="M21.0001 19.6696C20.8901 19.6696 20.7801 19.6496 20.6801 19.6196L8.61015 15.4796C8.09015 15.2996 7.81015 14.7296 7.99015 14.2096C8.17015 13.6896 8.74015 13.4096 9.26015 13.5896L20.0001 17.2696V5.34961C20.0001 4.79961 20.4501 4.34961 21.0001 4.34961C21.5501 4.34961 22.0001 4.79961 22.0001 5.34961V18.6596C22.0001 18.9796 21.8401 19.2896 21.5801 19.4696C21.4101 19.5896 21.2001 19.6596 21.0001 19.6596V19.6696Z" fill="#221F1F"/>
<path d="M21.2902 19.6699C20.8802 19.6699 20.5002 19.4199 20.3502 19.0199C20.1602 18.4999 20.4202 17.9299 20.9402 17.7299L32.6502 13.3599C33.1702 13.1699 33.7402 13.4299 33.9402 13.9499C34.1402 14.4699 33.8702 15.0399 33.3502 15.2399L21.6402 19.6099C21.5202 19.6499 21.4102 19.6699 21.2902 19.6699Z" fill="#221F1F"/>
<path d="M13.2001 29.9999C12.9901 29.9999 12.7801 29.9299 12.6001 29.7999C12.1601 29.4699 12.0701 28.8399 12.4001 28.3999L20.2001 18.0699C20.3901 17.8199 20.6801 17.6699 20.9901 17.6699C21.3001 17.6699 21.5901 17.8099 21.7801 18.0599L29.7801 28.3899C30.1201 28.8299 30.0401 29.4599 29.6001 29.7899C29.1601 30.1299 28.5301 30.0499 28.2001 29.6099L21.0001 20.3099L13.9901 29.5999C13.7901 29.8599 13.4901 29.9999 13.1901 29.9999H13.2001Z" fill="#221F1F"/>
</svg>
