<svg width="42" height="42" viewBox="0 0 42 42" fill="none" xmlns="http://www.w3.org/2000/svg">
<path d="M14.1199 21.8698C12.1699 21.8698 10.4099 20.6398 9.73988 18.8098L7.96988 13.9398C7.08988 11.5298 8.33988 8.85977 10.7499 7.97977L23.6299 3.28977C24.1499 3.09977 24.6799 3.00977 25.2199 3.00977C27.1699 3.00977 28.9299 4.23977 29.5899 6.06977L31.3599 10.9398C32.2399 13.3498 30.9899 16.0298 28.5799 16.9098L15.6999 21.5998C15.1899 21.7898 14.6499 21.8798 14.1099 21.8798L14.1199 21.8698Z" fill="white"/>
<path d="M18.5298 39.9999C16.4098 39.9999 14.3598 39.2299 12.7598 37.8399L12.5298 37.6399C9.13977 34.6799 8.52977 29.6699 11.1198 25.9799L13.1798 23.0399C13.1798 23.0399 13.2098 22.9599 13.1998 22.9299L10.8698 16.5399C10.1198 14.4899 11.1798 12.1999 13.2198 11.4299L23.9298 7.38988C24.3798 7.21988 24.8598 7.12988 25.3398 7.12988C25.9198 7.12988 26.4898 7.24988 27.0098 7.49988C27.9698 7.93988 28.7298 8.76988 29.0998 9.75988L33.2898 21.2699C34.5798 24.8299 33.6598 28.8199 30.9398 31.4499L24.6298 37.5399C22.9798 39.1299 20.8198 39.9999 18.5298 39.9999Z" fill="white"/>
<path d="M18.5299 38.0004C16.8899 38.0004 15.3099 37.4104 14.0699 36.3304L13.8399 36.1304C11.2199 33.8404 10.7499 29.9704 12.7499 27.1304L14.8099 24.1904C15.2099 23.6204 15.3099 22.9004 15.0699 22.2404L12.7399 15.8404C12.3699 14.8104 12.8899 13.6704 13.9099 13.2804L24.6199 9.24035C24.8499 9.15035 25.0899 9.11035 25.3299 9.11035C25.6199 9.11035 25.8999 9.17035 26.1599 9.29035C26.6499 9.51035 27.0199 9.92035 27.1999 10.4204L31.3899 21.9304C32.4099 24.7404 31.6799 27.9104 29.5299 29.9804L23.2199 36.0704C21.9499 37.3004 20.2799 37.9704 18.5099 37.9704L18.5299 38.0004Z" fill="#221F1F"/>
<path d="M14.12 19.87C13.01 19.87 12 19.17 11.62 18.12L9.85003 13.25C9.35003 11.87 10.06 10.35 11.44 9.85L24.32 5.16C24.61 5.05 24.92 5 25.23 5C26.34 5 27.34 5.7 27.72 6.75L29.49 11.62C29.99 13 29.28 14.52 27.9 15.02L15.02 19.71C14.73 19.82 14.42 19.87 14.11 19.87H14.12Z" fill="#221F1F"/>
<path d="M25.34 11.1201L14.63 15.1601L16.96 21.5601C17.42 22.8301 17.23 24.2401 16.46 25.3401L14.4 28.2801C13 30.2801 13.33 33.0201 15.17 34.6301L15.4 34.8301C16.3 35.6201 17.42 36.0101 18.54 36.0101C19.74 36.0101 20.94 35.5601 21.86 34.6701L28.17 28.5801C29.76 27.0501 30.29 24.7201 29.54 22.6501L25.35 11.1401L25.34 11.1201Z" fill="#EF615E"/>
<path d="M23.3298 2H24.6798C24.8598 2 25.0098 2.15 25.0098 2.33V6H23.0098V2.33C23.0098 2.15 23.1598 2 23.3398 2H23.3298Z" fill="#221F1F"/>
<path d="M19.69 15.4697L15.21 16.7597L16.96 21.5597C17.42 22.8297 17.23 24.2397 16.46 25.3397L14.4 28.2797C13 30.2797 13.33 33.0197 15.17 34.6297L15.4 34.8297C16.3 35.6197 17.42 36.0097 18.54 36.0097C19.74 36.0097 20.94 35.5597 21.86 34.6697L25.16 31.4797C26.09 24.5697 19.7 15.4797 19.7 15.4797L19.69 15.4697Z" fill="#D63838"/>
<path d="M14.12 19.87C13.01 19.87 12 19.17 11.62 18.12L9.85003 13.25C9.35003 11.87 10.06 10.35 11.44 9.85L24.32 5.16C24.61 5.05 24.92 5 25.23 5C26.34 5 27.34 5.7 27.72 6.75L29.49 11.62C29.99 13 29.28 14.52 27.9 15.02L15.02 19.71C14.73 19.82 14.42 19.87 14.11 19.87H14.12Z" fill="#221F1F"/>
<path d="M25.002 7.04804L12.1376 11.7303C11.795 11.855 11.6184 12.2337 11.7431 12.5763L13.5114 17.4345C13.636 17.777 14.0148 17.9536 14.3573 17.8289L27.2217 13.1467C27.5642 13.022 27.7408 12.6433 27.6161 12.3007L25.8479 7.4425C25.7232 7.09997 25.3445 6.92337 25.002 7.04804Z" fill="white"/>
<path d="M17.4801 9.78027L12.1301 11.7303C11.7901 11.8503 11.6101 12.2303 11.7401 12.5703L13.5101 17.4403C13.6301 17.7803 14.0101 17.9603 14.3501 17.8303L21.7801 15.1303L17.4801 9.78027Z" fill="#A2D6FF"/>
</svg>
