<svg width="42" height="42" viewBox="0 0 42 42" fill="none" xmlns="http://www.w3.org/2000/svg">
<path d="M18.9598 29.43C17.2498 29.43 15.6498 28.77 14.4398 27.56C11.9498 25.07 11.9498 21.01 14.4398 18.52L29.0898 3.87C30.2898 2.66 31.8998 2 33.6098 2C35.3198 2 36.9198 2.66 38.1298 3.87C39.3398 5.07 39.9998 6.68 39.9998 8.39C39.9998 10.1 39.3398 11.7 38.1298 12.91L23.4798 27.56C22.2698 28.77 20.6698 29.43 18.9598 29.43Z" fill="white"/>
<path d="M10.46 39.9998C5.8 39.9998 2 36.2098 2 31.5398V20.4498C2 19.2498 2.48 18.0798 3.33 17.2298L15.17 5.3898C16.03 4.5298 17.18 4.0498 18.4 4.0498C19.62 4.0498 20.77 4.5298 21.63 5.3898L36.61 20.3698C37.47 21.2298 37.95 22.3798 37.95 23.5998C37.95 24.8198 37.48 25.9698 36.61 26.8298L24.77 38.6598C23.93 39.5098 22.75 39.9998 21.54 39.9998H10.45H10.46Z" fill="white"/>
<path d="M18.9601 27.4298C17.7901 27.4298 16.6801 26.9698 15.8601 26.1498C14.1501 24.4398 14.1501 21.6498 15.8601 19.9398L30.5101 5.28977C31.3401 4.45977 32.4401 4.00977 33.6101 4.00977C34.7801 4.00977 35.8901 4.46977 36.7101 5.28977C37.5401 6.11977 37.9901 7.21977 37.9901 8.38977C37.9901 9.55977 37.5301 10.6698 36.7101 11.4898L22.0601 26.1398C21.2301 26.9698 20.1301 27.4198 18.9601 27.4198V27.4298Z" fill="#221F1F"/>
<path d="M35.3069 10.0788C36.2402 9.14541 36.2402 7.63215 35.3069 6.6988C34.3735 5.76544 32.8603 5.76544 31.9269 6.69879L17.2757 21.35C16.3423 22.2834 16.3423 23.7966 17.2757 24.73C18.209 25.6634 19.7223 25.6634 20.6556 24.73L35.3069 10.0788Z" fill="#FFD781"/>
<path d="M10.46 37.9996C6.9 37.9996 4 35.0996 4 31.5396V20.4496C4 19.7796 4.27 19.1196 4.75 18.6396L16.59 6.80957C17.07 6.32957 17.72 6.05957 18.4 6.05957C19.08 6.05957 19.73 6.32957 20.21 6.80957L35.19 21.7896C36.19 22.7896 36.19 24.4096 35.19 25.4096L23.35 37.2396C22.88 37.7196 22.22 37.9896 21.54 37.9896H10.45L10.46 37.9996Z" fill="#221F1F"/>
<path d="M21.55 35.9999H10.46C8 35.9999 6 33.9999 6 31.5399V20.4499C6 20.2999 6.06 20.1599 6.16 20.0499L18 8.20992C18.22 7.98992 18.57 7.98992 18.79 8.20992L33.77 23.1899C33.99 23.4099 33.99 23.7599 33.77 23.9799L21.93 35.8199C21.82 35.9299 21.68 35.9799 21.53 35.9799L21.55 35.9999Z" fill="#FFD781"/>
<path d="M12.59 29.4098C9.78 26.5998 7.6 23.4798 6.06 20.2998C6.04 20.3498 6 20.3898 6 20.4498V31.5398C6 33.9998 8 35.9998 10.46 35.9998H21.55C21.61 35.9998 21.65 35.9498 21.7 35.9398C18.53 34.3998 15.41 32.2298 12.59 29.4098Z" fill="#F9A936"/>
<path d="M26.24 21.5298L22.54 17.8298C21.49 16.7798 20.71 15.4798 20.27 14.0698L20.19 13.7998L19.35 14.6398L18.43 15.5598L18.26 15.7298C17.66 16.3298 17.68 17.3198 18.3 17.9398L24.07 23.7098C24.69 24.3298 25.68 24.3498 26.28 23.7498C26.88 23.1498 26.86 22.1598 26.24 21.5398V21.5298Z" fill="#221F1F"/>
<path d="M25.2098 24.4304H25.1798C24.6998 24.4304 24.2398 24.2203 23.8898 23.8803L18.1198 18.1104C17.7698 17.7604 17.5798 17.3103 17.5698 16.8203C17.5698 16.3303 17.7398 15.8804 18.0798 15.5404L20.0098 13.6103C20.0698 13.5503 20.1598 13.5204 20.2498 13.5404C20.3298 13.5604 20.3998 13.6204 20.4298 13.7104L20.5098 13.9803C20.9298 15.3503 21.6898 16.6203 22.7198 17.6403L26.4198 21.3404C26.7698 21.6904 26.9598 22.1403 26.9698 22.6303C26.9698 23.1203 26.7998 23.5703 26.4598 23.9103C26.1298 24.2403 25.6898 24.4204 25.2098 24.4204V24.4304ZM20.0698 14.2604L18.4298 15.9003C18.1898 16.1403 18.0598 16.4703 18.0598 16.8203C18.0598 17.1703 18.2098 17.5104 18.4698 17.7604L24.2398 23.5304C24.4998 23.7804 24.8298 23.9304 25.1798 23.9404C25.5298 23.9404 25.8498 23.8203 26.0998 23.5703C26.3398 23.3303 26.4698 23.0003 26.4698 22.6503C26.4698 22.3003 26.3198 21.9603 26.0598 21.7103L22.3598 18.0104C21.3098 16.9604 20.5198 15.6704 20.0698 14.2604Z" fill="#221F1F"/>
<path d="M23.5998 22.4404L16.5698 29.4704C16.5698 29.4704 22.0598 30.9804 24.1298 23.1104L23.5998 22.4504V22.4404Z" fill="#221F1F"/>
<path d="M17.65 29.8297C16.98 29.8297 16.54 29.7097 16.5 29.6997C16.41 29.6797 16.35 29.6097 16.32 29.5197C16.3 29.4297 16.32 29.3397 16.38 29.2797L23.41 22.2497C23.46 22.1997 23.53 22.1797 23.6 22.1797C23.67 22.1797 23.74 22.2197 23.78 22.2697L24.31 22.9297C24.36 22.9897 24.38 23.0697 24.36 23.1497C23.6 26.0297 22.31 28.0197 20.52 29.0497C19.44 29.6697 18.4 29.8197 17.64 29.8197L17.65 29.8297ZM17.09 29.2997C17.74 29.3697 19 29.3697 20.29 28.6297C21.93 27.6797 23.13 25.8397 23.86 23.1597L23.58 22.8097L17.09 29.2997Z" fill="#221F1F"/>
<path d="M18 19.44L13.16 24.28L10.79 23.69L14.82 19.66C15.34 19.14 16.11 18.94 16.84 19.13L18 19.44Z" fill="#221F1F"/>
<path d="M13.16 24.5296C13.16 24.5296 13.12 24.5296 13.1 24.5296L10.73 23.9396C10.64 23.9196 10.57 23.8496 10.55 23.7596C10.53 23.6696 10.55 23.5796 10.61 23.5196L14.64 19.4896C15.22 18.9096 16.09 18.6796 16.91 18.8996L18.07 19.2096C18.16 19.2296 18.22 19.2996 18.25 19.3896C18.27 19.4796 18.25 19.5696 18.19 19.6296L13.35 24.4696C13.35 24.4696 13.24 24.5396 13.17 24.5396L13.16 24.5296ZM11.28 23.5496L13.09 23.9996L17.52 19.5696L16.78 19.3696C16.13 19.1996 15.45 19.3696 15 19.8296L11.29 23.5396L11.28 23.5496Z" fill="#221F1F"/>
</svg>
