<svg width="42" height="42" viewBox="0 0 42 42" fill="none" xmlns="http://www.w3.org/2000/svg">
<path d="M39 35V8C39 5.79086 37.2091 4 35 4H7C4.79086 4 3 5.79086 3 8V35C3 37.2091 4.79086 39 7 39H35C37.2091 39 39 37.2091 39 35Z" fill="white"/>
<path d="M40 9V6C40 3.79086 38.2091 2 36 2H6C3.79086 2 2 3.79086 2 6V9C2 11.2091 3.79086 13 6 13H36C38.2091 13 40 11.2091 40 9Z" fill="white"/>
<path d="M40 36V33C40 30.7909 38.2091 29 36 29H6C3.79086 29 2 30.7909 2 33V36C2 38.2091 3.79086 40 6 40H36C38.2091 40 40 38.2091 40 36Z" fill="white"/>
<path d="M37 35V8C37 6.89543 36.1046 6 35 6H7C5.89543 6 5 6.89543 5 8V35C5 36.1046 5.89543 37 7 37H35C36.1046 37 37 36.1046 37 35Z" fill="#221F1F"/>
<path d="M35 8H7V35H35V8Z" fill="#D63838"/>
<path d="M34.9998 35V8H29.5798L23.9998 21L23.2998 35H34.9998Z" fill="#EF615E"/>
<path d="M38 9V6C38 4.89543 37.1046 4 36 4H6C4.89543 4 4 4.89543 4 6V9C4 10.1046 4.89543 11 6 11H36C37.1046 11 38 10.1046 38 9Z" fill="#221F1F"/>
<path d="M36 6H6V9H36V6Z" fill="#C4C4C4"/>
<path d="M9.76976 35H32.2198V18.56C28.8898 16.93 25.0598 16 20.9898 16C16.9198 16 13.0898 16.93 9.75977 18.56V35H9.76976Z" fill="#221F1F"/>
<path d="M38 36V33C38 31.8954 37.1046 31 36 31H6C4.89543 31 4 31.8954 4 33V36C4 37.1046 4.89543 38 6 38H36C37.1046 38 38 37.1046 38 36Z" fill="#221F1F"/>
<path d="M36 33H6V36H36V33Z" fill="#C4C4C4"/>
<path d="M25.1299 30.8804C25.1299 30.8804 27.1999 26.7804 23.4699 24.5804C19.7399 22.3904 22.2999 19.6904 22.2999 19.6904C22.2999 19.6904 14.7399 22.5104 16.5899 31.0804C16.5899 31.0804 19.1999 27.8904 20.7699 27.1004C20.7699 27.1004 24.4999 28.8004 25.1299 30.8704V30.8804Z" fill="#F9A936"/>
</svg>
