<svg width="42" height="42" viewBox="0 0 42 42" fill="none" xmlns="http://www.w3.org/2000/svg">
<path d="M20.9998 40C18.9798 40 17.2498 38.7 16.6898 36.76C16.4198 35.81 16.1598 35.08 15.9398 34.54C15.3498 34.73 14.6198 34.89 13.7898 34.89C13.0898 34.89 12.3898 34.78 11.7098 34.55C8.07984 33.37 7.68984 29.65 7.53984 27.49C7.25984 27.54 6.95984 27.57 6.66984 27.57C4.77984 27.57 3.08984 26.44 2.35984 24.68C1.63983 22.94 2.02984 20.95 3.36984 19.62C4.57984 18.41 5.92984 17.41 7.38984 16.67C7.41984 16.66 7.43984 16.64 7.46984 16.63C7.74984 16.48 8.03984 16.35 8.34984 16.22C8.64984 16.09 9.18984 15.85 9.55984 13.54C10.2898 7 15.2098 2 21.0098 2C26.8098 2 31.7298 7.04 32.4798 13.73C32.8198 15.85 33.3498 16.09 33.6298 16.21C33.8998 16.33 34.2098 16.46 34.5198 16.63C34.5498 16.64 34.5798 16.66 34.6198 16.68C36.0798 17.43 37.4298 18.42 38.6498 19.64C39.9798 20.97 40.3798 22.96 39.6598 24.7C38.9298 26.45 37.2398 27.59 35.3498 27.59C35.0598 27.59 34.7698 27.56 34.4798 27.51C34.3198 29.67 33.9398 33.38 30.2998 34.56C29.6198 34.78 28.9198 34.9 28.2198 34.9C27.3898 34.9 26.6598 34.74 26.0698 34.55C25.8498 35.09 25.5998 35.83 25.3198 36.78C24.7598 38.72 23.0298 40.02 21.0098 40.02L20.9998 40Z" fill="white"/>
<path d="M21.0003 38C19.8803 38 18.9203 37.28 18.6103 36.21C17.8703 33.67 17.2203 32.44 16.9003 32.04C16.7103 32.06 16.4503 32.18 16.2403 32.27C15.6403 32.53 14.8303 32.89 13.7903 32.89C13.3003 32.89 12.8103 32.81 12.3303 32.65C9.85027 31.84 9.66027 29.12 9.51027 27.13C9.47027 26.6 9.41027 25.79 9.30027 25.34C9.20027 25.33 9.07027 25.32 8.89027 25.32C8.43027 25.32 7.84027 25.39 7.18027 25.52C7.00027 25.56 6.82027 25.57 6.65027 25.57C5.57027 25.57 4.60027 24.92 4.19027 23.92C3.78027 22.93 4.00027 21.8 4.77027 21.04C5.83027 19.97 7.02027 19.1 8.29027 18.45C8.55027 18.31 8.83027 18.18 9.12027 18.06C9.84027 17.74 10.9703 17.24 11.5103 13.86C12.1303 8.28 16.2103 4 20.9803 4C25.7503 4 29.8303 8.28 30.4603 13.95C30.9803 17.24 32.1103 17.74 32.7903 18.04C33.1003 18.17 33.4003 18.3 33.6703 18.46C34.9403 19.11 36.1303 19.98 37.1903 21.04C37.9503 21.8 38.1703 22.93 37.7603 23.92C37.3403 24.92 36.3803 25.57 35.3003 25.57C35.1303 25.57 34.9503 25.55 34.7703 25.52C34.1103 25.39 33.5203 25.32 33.0603 25.32C32.8803 25.32 32.7503 25.33 32.6503 25.34C32.5403 25.78 32.4803 26.6 32.4503 27.13C32.3103 29.12 32.1103 31.84 29.6303 32.65C29.1503 32.81 28.6503 32.89 28.1703 32.89C27.1303 32.89 26.3103 32.53 25.7203 32.27C25.4903 32.17 25.2103 32.05 25.0703 32.02C24.7603 32.4 24.1003 33.62 23.3503 36.2C23.0403 37.27 22.0803 37.99 20.9603 37.99L21.0003 38Z" fill="#221F1F"/>
<path d="M35.8103 22.46C35.0803 21.73 34.0603 20.89 32.7903 20.24C32.7903 20.24 32.3403 20.02 32.0703 19.9C32.0503 19.9 32.0303 19.88 32.0103 19.87C30.8003 19.33 29.1603 18.33 28.5003 14.17C27.9803 9.55 24.8303 6 21.0003 6C17.1703 6 14.0203 9.56 13.5003 14.17C12.8403 18.33 11.2003 19.33 9.99029 19.87C9.97029 19.87 9.95029 19.89 9.93029 19.9C9.66029 20.02 9.21029 20.24 9.21029 20.24C7.94029 20.89 6.92029 21.73 6.19029 22.46C5.73029 22.92 6.16029 23.7 6.80029 23.57C8.35029 23.26 10.3403 23.09 10.9303 24.08C11.9503 25.77 10.9303 30.1 12.9403 30.76C14.9503 31.42 15.8903 29.51 17.6803 30.16C18.8703 30.59 19.9303 33.64 20.5203 35.65C20.5903 35.88 20.7903 36 20.9903 36C21.1903 36 21.3903 35.88 21.4603 35.65C22.0403 33.64 23.1103 30.59 24.3003 30.16C26.1003 29.5 27.0303 31.41 29.0403 30.76C31.0503 30.1 30.0303 25.77 31.0503 24.08C31.6503 23.09 33.6303 23.26 35.1803 23.57C35.8203 23.7 36.2603 22.92 35.7903 22.46H35.8103Z" fill="white"/>
<path d="M17.8904 17.2595C18.8514 17.2595 19.6304 15.9746 19.6304 14.3895C19.6304 12.8045 18.8514 11.5195 17.8904 11.5195C16.9294 11.5195 16.1504 12.8045 16.1504 14.3895C16.1504 15.9746 16.9294 17.2595 17.8904 17.2595Z" fill="#221F1F"/>
<path d="M24.1101 17.2595C25.0711 17.2595 25.8501 15.9746 25.8501 14.3895C25.8501 12.8045 25.0711 11.5195 24.1101 11.5195C23.1491 11.5195 22.3701 12.8045 22.3701 14.3895C22.3701 15.9746 23.1491 17.2595 24.1101 17.2595Z" fill="#221F1F"/>
<path d="M20.5303 35.6502C20.6003 35.8802 20.8003 36.0002 21.0003 36.0002C21.2003 36.0002 21.4003 35.8802 21.4703 35.6502C22.0503 33.6402 23.1203 30.5902 24.3103 30.1602C26.1103 29.5002 27.0403 31.4102 29.0503 30.7602C29.3203 30.6702 29.5403 30.5102 29.7103 30.3002C25.6603 24.9402 18.8003 28.7502 16.3003 26.5902C13.8103 24.4302 15.2603 20.9402 13.9503 20.4702C13.0303 20.1402 9.64029 20.7802 7.69029 21.1902C7.11029 21.6202 6.60029 22.0602 6.19029 22.4702C5.73029 22.9302 6.16029 23.7102 6.80029 23.5802C8.35029 23.2702 10.3403 23.1002 10.9303 24.0902C11.9503 25.7802 10.9303 30.1102 12.9403 30.7702C14.9503 31.4302 15.8903 29.5202 17.6803 30.1702C18.8703 30.6002 19.9303 33.6502 20.5203 35.6602L20.5303 35.6502Z" fill="#CAE5FF"/>
</svg>
