<svg width="42" height="42" viewBox="0 0 42 42" fill="none" xmlns="http://www.w3.org/2000/svg">
<path d="M20.1403 17.4895C18.9203 17.4895 17.7303 16.9395 16.9703 16.0295C16.2103 15.1195 15.9203 13.9295 16.1503 12.6995C16.1703 12.6195 16.1903 12.5295 16.2103 12.4495C16.3203 12.0995 16.4503 11.7395 16.5703 11.3895C16.8203 10.6595 17.0603 9.96953 17.2003 9.33953C17.2003 9.33953 17.2803 8.92953 17.3003 8.82953C16.8603 8.98953 16.4103 9.19953 16.0803 9.34953C15.7103 9.53953 15.2603 9.64953 14.7903 9.64953C13.5003 9.64953 12.3303 8.75953 11.9403 7.48953C11.5603 6.23953 12.0003 4.95953 13.0603 4.20953C13.7903 3.65953 16.1803 2.01953 18.9503 2.01953C21.2303 2.01953 23.0603 3.20953 23.9703 5.27953C25.1903 8.27953 24.6303 11.1695 24.1503 13.7195C24.1503 13.7195 24.0303 14.3495 24.0203 14.3895C23.5703 16.2595 22.0103 17.5095 20.1403 17.5095V17.4895Z" fill="white"/>
<path d="M14 40C7.27 40 2 32.75 2 23.5C2 14.25 7.27 7 14 7C20.73 7 26 14.25 26 23.5C26 32.75 20.73 40 14 40Z" fill="white"/>
<path d="M28 40C21.27 40 16 32.75 16 23.5C16 14.25 21.27 7 28 7C34.73 7 40 14.25 40 23.5C40 32.75 34.73 40 28 40Z" fill="white"/>
<path d="M21 40C13.83 40 8 32.6 8 23.5C8 14.4 13.83 7 21 7C28.17 7 34 14.4 34 23.5C34 32.6 28.17 40 21 40Z" fill="white"/>
<path d="M14.2296 5.80031C16.4296 4.11031 20.6296 2.66031 22.1396 6.07031C23.1896 8.65031 22.5496 11.3403 22.0696 13.9003C21.4496 16.5003 17.6196 15.6903 18.1096 13.0603C18.4696 11.9503 18.9196 10.8403 19.1496 9.76031C19.3596 8.63031 19.6596 7.39031 19.0896 6.74031C17.9796 6.27031 16.3796 6.99031 15.2396 7.52031C14.1496 8.07031 13.2296 6.48031 14.2296 5.80031Z" fill="#221F1F"/>
<path d="M14 38C8.39 38 4 31.63 4 23.5C4 15.37 8.39 9 14 9C19.61 9 24 15.37 24 23.5C24 31.63 19.61 38 14 38Z" fill="#221F1F"/>
<path d="M28 38C22.39 38 18 31.63 18 23.5C18 15.37 22.39 9 28 9C33.61 9 38 15.37 38 23.5C38 31.63 33.61 38 28 38Z" fill="#221F1F"/>
<path d="M21 38C14.93 38 10 31.5 10 23.5C10 15.5 14.93 9 21 9C27.07 9 32 15.5 32 23.5C32 31.5 27.07 38 21 38Z" fill="#221F1F"/>
<path d="M14 36C18.4183 36 22 30.4036 22 23.5C22 16.5964 18.4183 11 14 11C9.58172 11 6 16.5964 6 23.5C6 30.4036 9.58172 36 14 36Z" fill="#F9A936"/>
<path d="M28 36C32.4183 36 36 30.4036 36 23.5C36 16.5964 32.4183 11 28 11C23.5817 11 20 16.5964 20 23.5C20 30.4036 23.5817 36 28 36Z" fill="#F9A936"/>
<path d="M21 36C25.9706 36 30 30.4036 30 23.5C30 16.5964 25.9706 11 21 11C16.0294 11 12 16.5964 12 23.5C12 30.4036 16.0294 36 21 36Z" fill="#F9A936"/>
<path d="M7.4 16.4395C6.52 18.4495 6 20.8795 6 23.4995C6 30.3995 9.58 35.9995 14 35.9995C15.18 35.9995 16.29 35.5895 17.29 34.8795C18.42 35.5895 19.67 35.9995 21 35.9995C22.33 35.9995 23.57 35.5895 24.71 34.8795C25.72 35.5895 26.83 35.9995 28 35.9995C29.04 35.9995 30.03 35.6795 30.94 35.1195C26.86 26.8995 18.33 20.1795 7.4 16.4395Z" fill="#E58200"/>
<path d="M23.5 24H18.5L19.5 20H22.5L23.5 24Z" fill="#221F1F"/>
<path d="M15 16.7598L17 22.9998L11 21.7498L15 16.7598Z" fill="#221F1F"/>
<path d="M27 16.7598L25 22.9998L31 21.7498L27 16.7598Z" fill="#221F1F"/>
<path d="M21.0004 26.0002C17.5904 26.0002 14.2904 25.8202 11.1504 25.4902C11.9404 29.7502 16.0504 33.0002 21.0004 33.0002C25.9504 33.0002 30.0604 29.7502 30.8504 25.4902C27.7104 25.8202 24.4104 26.0002 21.0004 26.0002Z" fill="#221F1F"/>
<path d="M21.0004 26.0002C17.5904 26.0002 14.2904 25.8202 11.1504 25.4902C11.9404 29.7502 16.0504 33.0002 21.0004 33.0002C25.9504 33.0002 30.0604 29.7502 30.8504 25.4902C27.7104 25.8202 24.4104 26.0002 21.0004 26.0002Z" fill="#221F1F"/>
<path d="M17.09 28.0602L15.09 27.9602L14.25 24.9102L18.25 25.1202L17.09 28.0602Z" fill="#E58200"/>
<path d="M23.9304 30.2109L21.7504 30.4009L20.9404 33.7709L25.3104 33.3909L23.9304 30.2109Z" fill="#E58200"/>
</svg>
