<svg width="42" height="42" viewBox="0 0 42 42" fill="none" xmlns="http://www.w3.org/2000/svg">
<path d="M26 20V6C26 3.79086 24.2091 2 22 2H20C17.7909 2 16 3.79086 16 6V20C16 22.2091 17.7909 24 20 24H22C24.2091 24 26 22.2091 26 20Z" fill="white"/>
<path d="M21 32C14.66 32 8.53 30.72 4.18 28.5C2.84 27.81 2 26.45 2 24.94V22C2 19.79 3.79 18 6 18H36C38.21 18 40 19.79 40 22V24.94C40 26.45 39.16 27.82 37.82 28.5C33.47 30.72 27.34 32 21 32Z" fill="white"/>
<path d="M13 40C10.79 40 9 38.21 9 36C9 32.04 15.06 28 21 28C26.94 28 33 32.04 33 36C33 38.21 31.21 40 29 40H13Z" fill="white"/>
<path d="M36 28C35.72 28 35.44 27.94 35.2 27.83C34.86 27.92 34.45 28 34 28H8C7.55 28 7.14 27.92 6.8 27.83C6.55 27.94 6.28 28 6 28C4.9 28 4 27.1 4 26V11C4 5.78 6.51 5 8 5H34C35.49 5 38 5.78 38 11V26C38 27.1 37.1 28 36 28Z" fill="white"/>
<path d="M24 20V6C24 4.89543 23.1046 4 22 4H20C18.8954 4 18 4.89543 18 6V20C18 21.1046 18.8954 22 20 22H22C23.1046 22 24 21.1046 24 20Z" fill="#221F1F"/>
<path d="M21 30C14.97 30 9.17 28.8 5.09 26.72C4.42 26.38 4 25.69 4 24.94V22C4 20.9 4.9 20 6 20H36C37.1 20 38 20.9 38 22V24.94C38 25.69 37.58 26.38 36.91 26.72C32.83 28.8 27.03 30 21 30Z" fill="#221F1F"/>
<path d="M13 38C11.9 38 11 37.1 11 36C11 33.44 15.94 30 21 30C26.06 30 31 33.44 31 36C31 37.1 30.1 38 29 38H13Z" fill="#221F1F"/>
<path d="M25 34V25C25 23.8954 24.1046 23 23 23H19C17.8954 23 17 23.8954 17 25V34C17 35.1046 17.8954 36 19 36H23C24.1046 36 25 35.1046 25 34Z" fill="#221F1F"/>
<path d="M8 26C6.9 26 6 25.1 6 26V11C6 7.9 6.9 7 8 7H34C35.1 7 36 7.9 36 11V26C36 25.1 35.1 26 34 26H8Z" fill="#221F1F"/>
<path d="M22 6H20V20H22V6Z" fill="#9E9E9E"/>
<path d="M18 9H16V20H18V9Z" fill="#EF615E"/>
<path d="M14 9H12V20H14V9Z" fill="#EF615E"/>
<path d="M10 9H8V20H10V9Z" fill="#EF615E"/>
<path d="M30 9H28V20H30V9Z" fill="#9CDB9C"/>
<path d="M26 9H24V20H26V9Z" fill="#9CDB9C"/>
<path d="M34 9H32V20H34V9Z" fill="#9CDB9C"/>
<path d="M6 24.94C9.67 26.81 15.02 28 21 28C26.98 28 32.33 26.81 36 24.94V22H6V24.94Z" fill="#BF9E6F"/>
<path d="M23 25H19V34H23V25Z" fill="#B27A38"/>
<path d="M23.18 22H6V24.94C9.67 26.81 15.02 28 21 28C23.17 28 25.26 27.84 27.22 27.55L23.18 22Z" fill="#B27A38"/>
<path d="M21 32C16.58 32 13 35 13 36H29C29 35 25.42 32 21 32Z" fill="#B27A38"/>
</svg>
