<svg width="42" height="42" viewBox="0 0 42 42" fill="none" xmlns="http://www.w3.org/2000/svg">
<path d="M32.3204 39.9797C30.9704 39.9797 29.6904 39.3997 28.8104 38.3797L11.8404 17.5897C10.5405 15.9997 10.6505 13.6897 12.1104 12.2397L12.2404 12.1097C13.0004 11.3497 14.0004 10.9297 15.0704 10.9297C15.9904 10.9297 16.8904 11.2497 17.6004 11.8297L38.3105 28.7397C39.3505 29.6297 39.9304 30.8297 39.9804 32.1297C40.0304 33.4697 39.5105 34.7897 38.5405 35.7597L35.7705 38.5297C34.8505 39.4497 33.5904 39.9797 32.3204 39.9797Z" fill="white"/>
<path d="M13.6501 23.8193C12.1701 23.8193 10.7901 23.0893 9.96011 21.8593L8.75011 20.0693C7.78011 20.0993 6.53011 20.1493 6.53011 20.1493C4.76011 20.1493 3.20011 19.1893 2.45011 17.6493C1.70011 16.1093 1.89011 14.3093 2.94011 12.9593L4.26011 11.2693L3.52011 9.2493C3.02011 7.8793 3.23011 6.3593 4.06011 5.1793C4.89011 3.9893 6.26011 3.2793 7.70011 3.2793C8.22011 3.2793 8.73011 3.3693 9.22011 3.5493L11.2401 4.2893L12.9401 2.9693C13.7201 2.3593 14.6901 2.0293 15.6801 2.0293C16.8801 2.0293 18.0501 2.5293 18.8901 3.3893C19.7301 4.2593 20.1801 5.4093 20.1301 6.6293L20.0501 8.7793L21.8301 9.9793C23.2601 10.9493 24.0101 12.6693 23.7401 14.3693C23.4701 16.0693 22.2301 17.4693 20.5801 17.9493L18.5001 18.5493L17.9101 20.6193C17.3601 22.5493 15.6401 23.8393 13.6301 23.8393L13.6501 23.8193Z" fill="white"/>
<path d="M32.3197 37.9797C31.5497 37.9797 30.8197 37.6497 30.3297 37.0797L13.3897 16.3297C12.7397 15.5397 12.7997 14.3797 13.5197 13.6497L13.6497 13.5197C14.0397 13.1297 14.5497 12.9297 15.0697 12.9297C15.5197 12.9297 15.9597 13.0797 16.3297 13.3797L37.0397 30.2897C37.6197 30.7897 37.9497 31.4797 37.9797 32.2097C38.0097 32.9997 37.6997 33.7797 37.1197 34.3497L34.3497 37.1197C33.7997 37.6697 33.0597 37.9797 32.3097 37.9797H32.3197Z" fill="#221F1F"/>
<path d="M14.9404 15.0597L31.8504 35.7697C32.1104 36.0697 32.6104 36.0397 32.9504 35.6997L35.7104 32.9397C36.0504 32.5997 36.0804 32.0997 35.7804 31.8397L15.0704 14.9297L14.9404 15.0597Z" fill="#BF9E6F"/>
<path d="M31.8398 35.7696C32.0998 36.0696 32.5998 36.0396 32.9398 35.6996L34.3098 34.3296L16.3498 16.5996L16.2598 16.6896L31.8398 35.7696Z" fill="#AF7837"/>
<path d="M13.6499 21.82C12.8399 21.82 12.0799 21.42 11.6199 20.74L9.79993 18.04L6.53993 18.15C5.50993 18.15 4.66993 17.62 4.25993 16.77C3.84993 15.92 3.94993 14.93 4.52993 14.19L6.53993 11.62L5.42993 8.56C5.15993 7.81 5.26993 6.97 5.71993 6.32C6.17993 5.66 6.92993 5.27 7.72993 5.27C8.01993 5.27 8.29993 5.32 8.56993 5.42L11.6299 6.53L14.1999 4.52C14.6299 4.18 15.1599 4 15.7099 4C16.3699 4 17.0199 4.27 17.4799 4.75C17.9399 5.23 18.1899 5.87 18.1699 6.54L18.0599 9.8L20.7599 11.62C21.5499 12.15 21.9599 13.1 21.8099 14.04C21.6599 14.98 20.9799 15.75 20.0699 16.01L16.9299 16.91L16.0299 20.04C15.7299 21.1 14.7799 21.81 13.6699 21.82H13.6499Z" fill="#221F1F"/>
<path d="M7.87026 7.29026L11.9703 8.78028L15.4103 6.09028C15.7103 5.85028 16.1503 6.08028 16.1403 6.46028L15.9903 10.8303L19.6103 13.2703C19.9303 13.4803 19.8503 13.9703 19.4803 14.0803L15.2803 15.2803L14.0803 19.4803C13.9703 19.8503 13.4903 19.9303 13.2703 19.6103L10.8303 15.9903L6.46028 16.1403C6.08028 16.1503 5.85028 15.7103 6.09028 15.4103L8.78028 11.9703L7.29026 7.87026C7.16026 7.51026 7.51026 7.16026 7.87026 7.29026Z" fill="#F7DF69"/>
<path d="M15.29 15.2893L18.75 14.2993L8.08004 10.0293L8.79004 11.9693L6.10004 15.4093C5.86004 15.7093 6.09004 16.1493 6.47004 16.1393L10.84 15.9893L13.28 19.6093C13.49 19.9293 13.98 19.8493 14.09 19.4793L15.29 15.2793V15.2893Z" fill="#F9A936"/>
</svg>
