<svg width="42" height="42" viewBox="0 0 42 42" fill="none" xmlns="http://www.w3.org/2000/svg">
<path d="M20.4899 40.0005C19.0199 40.0005 17.6399 39.3705 16.6099 38.2105C15.3399 36.7905 14.7699 34.8005 15.0199 32.6205C15.0399 32.4005 15.0799 32.1605 15.1199 31.9005C14.6599 31.7805 14.2199 31.6105 13.8099 31.3705C12.8899 30.8405 12.1799 30.0605 11.7199 29.1005C9.08986 28.5505 7.10986 26.2205 7.10986 23.4305C7.10986 21.3905 8.18986 19.5405 9.85986 18.5005C9.93986 17.5905 10.2099 16.6805 10.6699 15.8205C9.76986 14.9505 9.31986 13.7105 9.47986 12.4505L10.3299 5.50047C10.4899 4.16047 11.3199 3.00047 12.5299 2.40047C13.0799 2.13047 13.6899 1.98047 14.2999 1.98047C15.0099 1.98047 15.7099 2.17047 16.3199 2.53047L20.9899 5.26047L25.6599 2.53047C26.2699 2.17047 26.9699 1.98047 27.6799 1.98047C28.2899 1.98047 28.9099 2.12047 29.4499 2.40047C30.6599 3.00047 31.4799 4.16047 31.6499 5.50047L32.4999 12.4505C32.6599 13.7205 32.1999 14.9805 31.2699 15.8505C31.1799 16.6605 30.9299 17.4405 30.5199 18.1305C31.2599 19.2205 31.6999 20.4005 31.7999 21.5905C33.5599 22.6005 34.7199 24.5105 34.7199 26.6105C34.7199 29.2005 32.9999 31.4105 30.6399 32.1405C30.2099 33.3405 29.4199 34.3205 28.3399 34.9405C27.5599 35.3905 26.6699 35.6305 25.7399 35.6305H25.6999C25.4199 36.6405 24.9399 37.5305 24.2799 38.2605C23.2599 39.3705 21.9099 39.9905 20.4599 39.9905L20.4899 40.0005Z" fill="white"/>
<path d="M20.4899 38.0002C19.5999 38.0002 18.7499 37.6002 18.0999 36.8802C17.2099 35.8902 16.8299 34.4602 16.9999 32.8402C17.0799 32.1602 17.2699 31.1702 17.5999 29.8502C17.2099 29.9802 16.7999 30.0602 16.3899 30.0602C15.8199 30.0602 15.2699 29.9202 14.7999 29.6402C14.0099 29.1802 13.4599 28.4102 13.2499 27.4502C13.2299 27.3702 13.2199 27.2902 13.2099 27.2102C13.1099 27.2102 13.0099 27.2202 12.8999 27.2202C10.8099 27.2202 9.10986 25.5202 9.10986 23.4302C9.10986 21.6802 10.2999 20.2002 11.9199 19.7702C11.8599 19.4702 11.8399 19.1502 11.8499 18.8302C11.9099 17.4502 12.6399 16.0602 13.9299 14.8902C13.7699 14.9302 13.6199 14.9502 13.4599 14.9502C12.9899 14.9502 12.5299 14.7802 12.1699 14.4702C11.6599 14.0302 11.3999 13.3702 11.4799 12.7002L12.3299 5.75023C12.4099 5.08023 12.8199 4.50023 13.4299 4.20023C13.7099 4.06023 14.0099 3.99023 14.3199 3.99023C14.6699 3.99023 15.0199 4.08023 15.3299 4.26023L21.0099 7.58023L26.6899 4.26023C26.9999 4.08023 27.3499 3.99023 27.6999 3.99023C27.9999 3.99023 28.3099 4.06023 28.5899 4.20023C29.1899 4.50023 29.6099 5.08023 29.6899 5.75023L30.5399 12.7002C30.6199 13.3702 30.3599 14.0302 29.8499 14.4702C29.6799 14.6102 29.4999 14.7202 29.2999 14.8002C29.3199 14.9402 29.3299 15.0902 29.3299 15.2402C29.3299 16.4102 28.7999 17.4602 27.9599 18.1602C29.1299 19.2902 29.7899 20.6102 29.8499 21.9302C29.8699 22.2802 29.8399 22.6102 29.7699 22.9302C31.4799 23.3002 32.7599 24.8202 32.7599 26.6302C32.7599 28.7102 31.0799 30.4002 29.0099 30.4202C28.9999 30.6302 28.9699 30.8302 28.9199 31.0402C28.7099 32.0002 28.1599 32.7802 27.3699 33.2302C26.8999 33.5002 26.3399 33.6502 25.7799 33.6502C25.1699 33.6502 24.5699 33.5002 24.0199 33.2102C24.0899 34.7102 23.6799 36.0302 22.8499 36.9302C22.2099 37.6202 21.3799 38.0102 20.5099 38.0102L20.4899 38.0002Z" fill="#221F1F"/>
<path d="M21.05 28.86L20.49 26.79L19.93 28.86C19.76 29.49 19.13 31.84 18.99 33.06C18.79 34.9 19.66 36 20.49 36C21.32 36 22.15 34.91 21.99 33.06C21.88 31.84 21.22 29.49 21.05 28.86Z" fill="#9CDB9C"/>
<path d="M21.6999 16.4196L19.3999 15.0996L20.7199 17.3996C21.1199 18.0996 22.6199 20.7096 23.5699 21.8896C24.9999 23.6796 26.7299 23.8796 27.4499 23.1496C28.1699 22.4196 27.9499 20.7396 26.1899 19.2696C25.0299 18.2996 22.3999 16.8196 21.6999 16.4196Z" fill="#9CDB9C"/>
<path d="M19.9899 13.32L22.2899 12L20.9699 14.3C20.5699 15 19.0699 17.61 18.1199 18.79C16.6899 20.58 14.9599 20.78 14.2399 20.05C13.5199 19.32 13.7399 17.64 15.4999 16.17C16.6599 15.2 19.2899 13.72 19.9899 13.32Z" fill="#65AA65"/>
<path d="M22.9302 24.3304L21.2402 22.6504L21.8502 24.9504C22.0402 25.6504 22.7302 28.2604 23.2802 29.5004C24.1102 31.3804 25.5502 31.9504 26.3502 31.4904C27.1502 31.0304 27.3402 29.5204 26.1602 27.8404C25.3802 26.7304 23.4402 24.8404 22.9302 24.3304Z" fill="#9CDB9C"/>
<path d="M19.2301 20.7396L20.9201 19.0596L20.3101 21.3596C20.1201 22.0596 19.4301 24.6696 18.8801 25.9096C18.0501 27.7896 16.6101 28.3596 15.8101 27.8996C15.0101 27.4396 14.8201 25.9296 16.0001 24.2496C16.7801 23.1396 18.7201 21.2496 19.2301 20.7396Z" fill="#65AA65"/>
<path d="M25.5302 17.0302C26.5188 17.0302 27.3202 16.2288 27.3202 15.2402C27.3202 14.2516 26.5188 13.4502 25.5302 13.4502C24.5416 13.4502 23.7402 14.2516 23.7402 15.2402C23.7402 16.2288 24.5416 17.0302 25.5302 17.0302Z" fill="#EF615E"/>
<path d="M28.9502 28.4198C29.9387 28.4198 30.7402 27.6184 30.7402 26.6298C30.7402 25.6413 29.9387 24.8398 28.9502 24.8398C27.9616 24.8398 27.1602 25.6413 27.1602 26.6298C27.1602 27.6184 27.9616 28.4198 28.9502 28.4198Z" fill="#EF615E"/>
<path d="M12.9101 25.2196C13.8987 25.2196 14.7001 24.4182 14.7001 23.4296C14.7001 22.4411 13.8987 21.6396 12.9101 21.6396C11.9215 21.6396 11.1201 22.4411 11.1201 23.4296C11.1201 24.4182 11.9215 25.2196 12.9101 25.2196Z" fill="#EF615E"/>
<path d="M13.46 12.95L21.94 10.46L14.31 6L13.46 12.95Z" fill="#EF615E"/>
<path d="M28.5402 12.95L21.0902 10.77C20.7002 10.66 20.6302 10.13 20.9902 9.92L27.6902 6L28.5402 12.95Z" fill="#EF615E"/>
</svg>
