<svg width="42" height="42" viewBox="0 0 42 42" fill="none" xmlns="http://www.w3.org/2000/svg">
<path d="M14 29C12.68 29 11.44 28.35 10.7 27.26C9.94997 26.17 9.78997 24.78 10.27 23.55L11.65 20H9.99997C8.92997 20 7.92997 19.58 7.16997 18.83L6.16997 17.83C5.27997 16.94 4.85997 15.67 5.03997 14.43C5.21997 13.19 5.97997 12.09 7.07997 11.49L15.5 6.89C16.57 6.31 17.78 6 19 6H27.67C30.74 6 33.46 8.07 34.28 11.03L37.86 23.94C38.19 25.14 37.94 26.44 37.19 27.43C36.44 28.42 35.25 29.01 34.01 29.01H14V29Z" fill="white"/>
<path d="M8 29.81V27.2C8 23.78 10.78 21.01 14.19 21.01H33.8C37.22 21.01 39.99 23.79 39.99 27.2V29.81C39.99 33.23 37.21 36 33.8 36H14.19C10.77 36 8 33.22 8 29.81Z" fill="white"/>
<path d="M9 22C12.866 22 16 18.866 16 15C16 11.134 12.866 8 9 8C5.13401 8 2 11.134 2 15C2 18.866 5.13401 22 9 22Z" fill="white"/>
<path d="M14.0002 27.0002C13.3402 27.0002 12.7202 26.6702 12.3502 26.1302C11.9802 25.5902 11.9002 24.8902 12.1402 24.2802L14.5802 18.0002H10.0102C9.48022 18.0002 8.97022 17.7902 8.60022 17.4102L7.60022 16.4102C7.15022 15.9602 6.94022 15.3302 7.03022 14.7102C7.12022 14.0902 7.50022 13.5402 8.05022 13.2402L16.4702 8.64023C17.2502 8.22023 18.1202 7.99023 19.0102 7.99023H27.6802C29.8602 7.99023 31.7802 9.45023 32.3602 11.5502L35.9402 24.4602C36.1102 25.0602 35.9802 25.7102 35.6002 26.2102C35.2202 26.7102 34.6302 27.0002 34.0102 27.0002H14.0002Z" fill="#221F1F"/>
<path d="M34 25L30.42 12.09C30.08 10.85 28.95 10 27.67 10H19C18.45 10 17.91 10.14 17.42 10.4L9 15L10 16H17.49L14 25H34Z" fill="#EF615E"/>
<path d="M25.45 24.9996L18.24 10.0996C17.96 10.1696 17.68 10.2696 17.42 10.4096L9 15.0096L10 16.0096H17.49L14 25.0096H25.45V24.9996Z" fill="#D63838"/>
<path d="M10 29.81V27.2C10 24.89 11.88 23.01 14.19 23.01H33.8C36.11 23.01 37.99 24.89 37.99 27.2V29.81C37.99 32.12 36.11 34 33.8 34H14.19C11.88 34 10 32.12 10 29.81Z" fill="#221F1F"/>
<path d="M33.81 25H14.19C12.9805 25 12 25.9805 12 27.19V29.81C12 31.0195 12.9805 32 14.19 32H33.81C35.0195 32 36 31.0195 36 29.81V27.19C36 25.9805 35.0195 25 33.81 25Z" fill="white"/>
<path d="M9 20C11.7614 20 14 17.7614 14 15C14 12.2386 11.7614 10 9 10C6.23858 10 4 12.2386 4 15C4 17.7614 6.23858 20 9 20Z" fill="#221F1F"/>
<path d="M9 18C10.6568 18 12 16.6569 12 15C12 13.3431 10.6568 12 9 12C7.34315 12 6 13.3431 6 15C6 16.6569 7.34315 18 9 18Z" fill="white"/>
<path d="M15.6898 18.8202C15.5698 18.8202 15.4398 18.8002 15.3198 18.7502C14.8098 18.5502 14.5598 17.9602 14.7598 17.4502L15.9398 14.4902C16.1398 13.9802 16.7298 13.7302 17.2398 13.9302C17.7498 14.1302 17.9998 14.7202 17.7998 15.2302L16.6198 18.1902C16.4598 18.5802 16.0898 18.8202 15.6898 18.8202Z" fill="#221F1F"/>
<path d="M7.89 12.2197C6.79 12.6597 6 13.7397 6 14.9997C6 16.6597 7.34 17.9997 9 17.9997C9.54 17.9997 10.05 17.8397 10.49 17.5897L7.89 12.2197Z" fill="#A2D6FF"/>
<path d="M20.83 25.0002H14.19C12.98 25.0002 12 25.9802 12 27.1902V29.8002C12 31.0102 12.98 31.9902 14.19 31.9902H24.21L20.82 24.9902L20.83 25.0002Z" fill="#A2D6FF"/>
</svg>
