<svg width="42" height="42" viewBox="0 0 42 42" fill="none" xmlns="http://www.w3.org/2000/svg">
<path d="M19.5 23.5C19.5 25.43 17.82 27 15.75 27C13.68 27 12 25.43 12 23.5C12 21 12.94 20 15.75 20C18.56 20 19.5 21 19.5 23.5Z" fill="#221F1F"/>
<path d="M22.5 23.5C22.5 25.43 24.18 27 26.25 27C28.32 27 30 25.43 30 23.5C30 21 29.06 20 26.25 20C23.44 20 22.5 21 22.5 23.5Z" fill="#221F1F"/>
<path d="M21 30C21.69 30 22.34 30.1 22.95 30.26C22.98 30.01 23 29.76 23 29.5C23 27.57 22.1 26 21 26C19.9 26 19 27.57 19 29.5C19 29.76 19.02 30.02 19.05 30.26C19.66 30.09 20.31 30 21 30Z" fill="#221F1F"/>
<path d="M18.3701 30C10.6501 30 4.37012 23.72 4.37012 16C4.37012 8.28 10.6501 2 18.3701 2H23.6301C31.3501 2 37.6301 8.28 37.6301 16C37.6301 23.72 31.3501 30 23.6301 30H18.3701Z" fill="white"/>
<path d="M29 35C33.96 35 38 30.96 38 26C38 21.04 33.96 17 29 17H13C8.04 17 4 21.04 4 26C4 30.96 8.04 35 13 35H29Z" fill="white"/>
<path d="M21 40C13.71 40 9 37.25 9 33V27C9 24.79 10.79 23 13 23H25C25.89 23 26.75 23.3 27.44 23.83L29.38 24.02C31.44 24.22 33 25.93 33 28V33C33 37.25 28.29 40 21 40Z" fill="white"/>
<path d="M18.3701 28C11.7501 28 6.37012 22.62 6.37012 16C6.37012 9.38 11.7501 4 18.3701 4H23.6301C30.2501 4 35.6301 9.38 35.6301 16C35.6301 22.62 30.2501 28 23.6301 28H18.3701Z" fill="#221F1F"/>
<path d="M13 33C9.14 33 6 29.86 6 26C6 22.14 9.14 19 13 19H29C32.86 19 36 22.14 36 26C36 29.86 32.86 33 29 33H13Z" fill="#221F1F"/>
<path d="M21 38C16.02 38 11 36.45 11 33V27C11 25.9 11.9 25 13 25H25C25.58 25 26.13 25.25 26.51 25.69C26.53 25.71 26.55 25.73 26.56 25.76L29.19 26.01C30.22 26.11 31 26.97 31 28V33C31 36.45 25.98 38 21 38Z" fill="#221F1F"/>
<path d="M23.6301 6H18.3701C12.8473 6 8.37012 10.4771 8.37012 16C8.37012 21.5228 12.8473 26 18.3701 26H23.6301C29.153 26 33.6301 21.5228 33.6301 16C33.6301 10.4771 29.153 6 23.6301 6Z" fill="white"/>
<path d="M29 21H13C10.2386 21 8 23.2386 8 26C8 28.7614 10.2386 31 13 31H29C31.7614 31 34 28.7614 34 26C34 23.2386 31.7614 21 29 21Z" fill="white"/>
<path d="M24.91 27.61L25 27H13V33C13 34.66 16.58 36 21 36C25.42 36 29 34.66 29 33V28L24.91 27.61Z" fill="white"/>
<path d="M21 28.7592V22.3492C21 16.5592 18.85 10.9192 14.8 6.77922L14.73 6.69922C11.02 8.16922 8.37 11.7792 8.37 15.9992C8.37 18.1692 9.08 20.1792 10.27 21.8292C8.91 22.7292 8 24.2592 8 25.9992C8 28.7492 10.25 30.9992 13 30.9992V32.9992C13 34.6592 16.58 35.9992 21 35.9992C22.87 35.9992 24.59 35.7592 25.95 35.3492C25.95 35.3492 24.52 30.7292 21 28.7492V28.7592Z" fill="#C4C4C4"/>
<path d="M19.3896 23.75C19.3896 25.82 17.5896 27.5 15.3696 27.5C13.1496 27.5 11.3496 25.82 11.3496 23.75C11.3496 21.07 12.3496 20 15.3696 20C18.3896 20 19.3896 21.07 19.3896 23.75Z" fill="#221F1F"/>
<path d="M22.6104 23.75C22.6104 25.82 24.4104 27.5 26.6304 27.5C28.8504 27.5 30.6504 25.82 30.6504 23.75C30.6504 21.07 29.6504 20 26.6304 20C23.6104 20 22.6104 21.07 22.6104 23.75Z" fill="#221F1F"/>
<path d="M21.0004 30.7197C21.7404 30.7197 22.4404 30.8197 23.0904 30.9997C23.1204 30.7397 23.1404 30.4597 23.1404 30.1797C23.1404 28.1097 22.1804 26.4297 21.0004 26.4297C19.8204 26.4297 18.8604 28.1097 18.8604 30.1797C18.8604 30.4597 18.8804 30.7297 18.9104 30.9997C19.5604 30.8197 20.2604 30.7197 21.0004 30.7197Z" fill="#221F1F"/>
<path d="M25 33.1992C24.45 33.1992 24 33.6492 24 34.1992V36.8492C24.7 36.7792 25.37 36.6892 26 36.5792V34.1992C26 33.6492 25.55 33.1992 25 33.1992ZM17 33.1992C16.45 33.1992 16 33.6492 16 34.1992V36.5792C16.63 36.6892 17.3 36.7892 18 36.8492V34.1992C18 33.6492 17.55 33.1992 17 33.1992ZM21 33.5992C20.45 33.5992 20 34.0492 20 34.5992V36.9792C20.33 36.9892 20.66 36.9992 21 36.9992C21.34 36.9992 21.67 36.9992 22 36.9792V34.5992C22 34.0492 21.55 33.5992 21 33.5992Z" fill="#221F1F"/>
</svg>
