<svg width="42" height="42" viewBox="0 0 42 42" fill="none" xmlns="http://www.w3.org/2000/svg">
<path d="M36.3402 28.48C35.9702 28.32 35.5702 28.24 35.1602 28.24C34.9202 28.24 34.6902 28.27 34.4702 28.32L35.4402 23.97C36.8902 23.76 38.0002 22.51 38.0002 21C38.0002 19.35 36.6502 18 35.0002 18H32.0002C30.7502 18 29.7902 18.36 29.0502 18.85C28.2602 15.71 26.4602 12.42 23.8902 10.29L23.9602 10.18C24.7602 8.95 24.8202 7.38 24.1202 6.09C23.4202 4.8 22.0702 4 20.6002 4H15.4002C13.9302 4 12.5802 4.8 11.8802 6.09C11.1802 7.38 11.2402 8.95 12.0402 10.18L12.1102 10.29C11.2102 11.03 10.3802 11.95 9.64023 13H4.99023C3.34023 13 1.99023 14.35 1.99023 16C1.99023 17.34 2.87023 18.47 4.08023 18.86L5.81023 29.25C6.25023 31.86 8.39023 33.79 10.9902 33.99V34.01H5.06023C3.41023 34.01 2.06023 35.36 2.06023 37.01C2.06023 38.66 3.41023 40.01 5.06023 40.01H33.9902C37.3002 40.01 39.9902 37.32 39.9902 34.01C39.9902 31.6 38.5502 29.43 36.3302 28.49L36.3402 28.48Z" fill="white"/>
<path d="M18.0002 14C17.3202 14 16.6902 13.66 16.3202 13.09L13.7202 9.09C13.3202 8.47 13.2902 7.69 13.6402 7.05C13.9902 6.41 14.6602 6 15.4002 6H20.6002C21.3302 6 22.0102 6.4 22.3602 7.05C22.7102 7.69 22.6802 8.48 22.2802 9.09L19.6802 13.09C19.3102 13.66 18.6802 14 18.0002 14Z" fill="#221F1F"/>
<path d="M18 28.0002H16.09C14.4 28.0002 12.62 27.9502 11.19 27.2202C9.96 26.6002 8.5 25.2402 8.5 22.2602C8.5 17.3202 12.49 9.99023 18 9.99023C23.51 9.99023 27.5 17.3202 27.5 22.2602C27.5 28.0002 22.37 28.0002 19.91 28.0002H18Z" fill="#221F1F"/>
<path d="M25.5 22.27C25.5 26.39 22.14 26 18 26C13.86 26 10.5 26.39 10.5 22.27C10.5 18.15 13.86 12 18 12C22.14 12 25.5 18.14 25.5 22.27Z" fill="#BF9E6F"/>
<path d="M32.0002 21C29.0002 21 30.0002 25 25.0002 25C20.0002 25 19.0002 16 15.0002 16H5.68018C5.68018 16.11 5.68018 16.22 5.70018 16.33L7.80018 28.92C8.10018 30.71 9.63018 32 11.4402 32H28.6502C30.3902 32 31.8802 30.81 32.2502 29.11L33.9602 21.44C33.9902 21.3 34.0102 21.15 34.0102 21.01H32.0102L32.0002 21Z" fill="#221F1F"/>
<path d="M24.9999 25C19.9999 25 18.9999 16 14.9999 16H7.66992L9.76992 28.59C9.90992 29.41 10.6099 30 11.4399 30H28.6499C29.4399 30 30.1299 29.45 30.2999 28.67L32.0099 21C29.0099 21 30.0099 25 25.0099 25H24.9999Z" fill="#EF615E"/>
<path d="M14.9999 22.55H20.5399V21.93C18.7599 19.32 17.4299 16 14.9999 16H7.66992L9.76992 28.59C9.90992 29.41 10.6099 30 11.4399 30H16.4299L14.9999 22.55Z" fill="#D63838"/>
<path d="M25 26C21.8 26 20.07 23.15 18.54 20.64C17.4 18.77 16.32 17 15 17H5C4.45 17 4 16.55 4 16C4 15.45 4.45 15 5 15H15C17.45 15 18.87 17.34 20.25 19.6C21.62 21.86 22.92 24 25 24C27.3 24 27.96 23.09 28.71 22.04C29.36 21.13 30.17 20 32 20H35C35.55 20 36 20.45 36 21C36 21.55 35.55 22 35 22H32C31.23 22 30.95 22.35 30.34 23.2C29.49 24.38 28.33 26 25 26Z" fill="#221F1F"/>
<path d="M33.9998 38H5.06982C4.51982 38 4.06982 37.55 4.06982 37C4.06982 36.45 4.51982 36 5.06982 36H33.9998C35.0998 36 35.9998 35.1 35.9998 34C35.9998 33.2 35.5198 32.47 34.7698 32.16C34.2598 31.94 34.0198 31.36 34.2398 30.85C34.4598 30.34 35.0398 30.1 35.5498 30.32C37.0298 30.95 37.9898 32.4 37.9898 34C37.9898 36.21 36.1998 38 33.9898 38H33.9998Z" fill="#221F1F"/>
<path d="M14 38C13.45 38 13 37.55 13 37V31C13 30.45 13.45 30 14 30C14.55 30 15 30.45 15 31V37C15 37.55 14.55 38 14 38Z" fill="#221F1F"/>
<path d="M25 38C24.45 38 24 37.55 24 37V31C24 30.45 24.45 30 25 30C25.55 30 26 30.45 26 31V37C26 37.55 25.55 38 25 38Z" fill="#221F1F"/>
<path d="M20.5999 8L17.9999 12L15.3999 8H20.5999Z" fill="#BF9E6F"/>
</svg>
