<svg width="42" height="42" viewBox="0 0 42 42" fill="none" xmlns="http://www.w3.org/2000/svg">
<path d="M22.5 40C14.5 40 8 33.5 8 25.5C8 17.5 14.5 11 22.5 11C30.5 11 37 17.5 37 25.5C37 33.5 30.5 40 22.5 40Z" fill="white"/>
<path d="M15.5 18C14.46 18 13.59 17.2 13.51 16.17L12.52 4.34C12.47 3.74 12.68 3.14 13.08 2.7C13.49 2.26 14.07 2 14.67 2H30.32C30.92 2 31.5 2.25 31.91 2.7C32.32 3.14 32.52 3.74 32.47 4.34L31.48 16.17C31.39 17.21 30.53 18 29.49 18H15.49H15.5Z" fill="white"/>
<path d="M35.5 16.58V15.42C35.5 14.0835 34.4165 13 33.08 13H11.92C10.5835 13 9.5 14.0835 9.5 15.42V16.58C9.5 17.9165 10.5835 19 11.92 19H33.08C34.4165 19 35.5 17.9165 35.5 16.58Z" fill="white"/>
<path fill-rule="evenodd" clip-rule="evenodd" d="M17.4998 32C14.8798 32 8.45984 31.8 5.30984 29.94C4.09984 29.23 3.33984 27.91 3.33984 26.5C3.33984 25.09 4.08984 23.77 5.29984 23.06C8.44984 21.2 14.8698 21 17.4898 21C20.5298 21 22.9898 23.47 22.9898 26.5C22.9898 29.53 20.5198 32 17.4898 32H17.4998Z" fill="white"/>
<path d="M22.5 38C15.61 38 10 32.39 10 25.5C10 18.61 15.61 13 22.5 13C29.39 13 35 18.61 35 25.5C35 32.39 29.39 38 22.5 38Z" fill="#221F1F"/>
<path d="M22.5 36C28.299 36 33 31.299 33 25.5C33 19.701 28.299 15 22.5 15C16.701 15 12 19.701 12 25.5C12 31.299 16.701 36 22.5 36Z" fill="white"/>
<path d="M15.73 17.4805C13.45 19.4105 12 22.2805 12 25.5005C12 31.3005 16.7 36.0005 22.5 36.0005C23.06 36.0005 23.6 35.9405 24.14 35.8605C24.2 35.2205 24.24 34.5705 24.24 33.9205C24.24 27.1305 20.88 21.1405 15.74 17.4805H15.73Z" fill="#A2D6FF"/>
<path d="M29.4998 16H15.4998L14.5098 4.17C14.5098 4.08 14.5798 4 14.6698 4H30.3198C30.4098 4 30.4898 4.08 30.4798 4.17L29.4898 16H29.4998Z" fill="#221F1F"/>
<path d="M17.5299 16.13L16.6699 6H28.3299L27.5299 15.78L17.5299 16.13Z" fill="#7A72EB"/>
<path d="M33.08 15H11.92C11.688 15 11.5 15.188 11.5 15.42V16.58C11.5 16.812 11.688 17 11.92 17H33.08C33.312 17 33.5 16.812 33.5 16.58V15.42C33.5 15.188 33.312 15 33.08 15Z" fill="#221F1F"/>
<path d="M26 22.5C26 21.6716 25.3284 21 24.5 21C23.6716 21 23 21.6716 23 22.5V23.5C23 24.3284 23.6716 25 24.5 25C25.3284 25 26 24.3284 26 23.5V22.5Z" fill="#221F1F"/>
<path d="M17 22.5C17 21.6716 16.3284 21 15.5 21C14.6716 21 14 21.6716 14 22.5V23.5C14 24.3284 14.6716 25 15.5 25C16.3284 25 17 24.3284 17 23.5V22.5Z" fill="#221F1F"/>
<path d="M20 33C20.5523 33 21 32.5523 21 32C21 31.4477 20.5523 31 20 31C19.4477 31 19 31.4477 19 32C19 32.5523 19.4477 33 20 33Z" fill="#221F1F"/>
<path d="M24 32C24.5523 32 25 31.5523 25 31C25 30.4477 24.5523 30 24 30C23.4477 30 23 30.4477 23 31C23 31.5523 23.4477 32 24 32Z" fill="#221F1F"/>
<path d="M27 29C27.5523 29 28 28.5523 28 28C28 27.4477 27.5523 27 27 27C26.4477 27 26 27.4477 26 28C26 28.5523 26.4477 29 27 29Z" fill="#221F1F"/>
<path fill-rule="evenodd" clip-rule="evenodd" d="M17.5001 30C13.5601 30 8.5501 29.53 6.3301 28.22C5.7201 27.86 5.3501 27.21 5.3501 26.5C5.3501 25.79 5.7201 25.14 6.3301 24.78C8.5501 23.47 13.5601 23 17.5001 23C19.4301 23 21.0001 24.57 21.0001 26.5C21.0001 28.43 19.4301 30 17.5001 30Z" fill="#221F1F"/>
<path fill-rule="evenodd" clip-rule="evenodd" d="M17.5001 24.9902C12.8101 24.9902 8.8301 25.6202 7.3501 26.4902C8.8301 27.3702 12.8101 27.9902 17.5001 27.9902C18.3301 27.9902 19.0001 27.3202 19.0001 26.4902C19.0001 25.6602 18.3301 24.9902 17.5001 24.9902Z" fill="#F9A936"/>
<path d="M23.44 5.20996H16V15.89H23.44V5.20996Z" fill="#221F1F"/>
</svg>
