<svg width="42" height="42" viewBox="0 0 42 42" fill="none" xmlns="http://www.w3.org/2000/svg">
<path d="M36.3602 26.4L35.0702 25.66C34.3102 24.86 33.6002 23.19 33.6002 21C33.6002 18.81 34.3202 17.14 35.0702 16.34L36.3602 15.6C37.7902 14.77 38.2802 12.94 37.4602 11.5C36.9302 10.57 35.9302 10 34.8602 10C34.3302 10 33.8102 10.14 33.3602 10.4L32.0802 11.14C31.8102 11.21 31.5102 11.25 31.1702 11.25C29.9902 11.25 28.5802 10.83 27.3002 10.09C25.4002 8.99 24.3102 7.54 24.0002 6.48V5C24.0002 3.35 22.6502 2 21.0002 2C19.3502 2 18.0002 3.35 18.0002 5V6.48C17.6902 7.53 16.6002 8.99 14.7002 10.09C13.4202 10.83 12.0102 11.25 10.8302 11.25C10.4902 11.25 10.1902 11.21 9.91025 11.14L8.64025 10.41C8.18025 10.15 7.66025 10.01 7.14025 10.01C6.07025 10.01 5.08025 10.59 4.54025 11.51C3.71025 12.94 4.21025 14.78 5.64025 15.61L6.93025 16.35C7.69025 17.15 8.40025 18.82 8.40025 21.01C8.40025 23.2 7.68025 24.87 6.93025 25.67L5.64025 26.41C4.21025 27.24 3.72025 29.07 4.54025 30.51C5.07025 31.44 6.07025 32.01 7.14025 32.01C7.67025 32.01 8.18025 31.87 8.64025 31.61L9.92025 30.87C10.1902 30.8 10.4902 30.76 10.8302 30.76C12.0102 30.76 13.4202 31.18 14.7002 31.92C16.6002 33.01 17.6902 34.47 18.0002 35.53V37.01C18.0002 38.66 19.3502 40.01 21.0002 40.01C22.6502 40.01 24.0002 38.66 24.0002 37.01V35.53C24.3102 34.48 25.4002 33.02 27.3002 31.92C28.5802 31.18 29.9902 30.76 31.1702 30.76C31.5102 30.76 31.8102 30.8 32.0902 30.88L33.3702 31.62C33.8302 31.88 34.3402 32.02 34.8702 32.02C35.9402 32.02 36.9302 31.45 37.4702 30.52C38.3002 29.09 37.8002 27.25 36.3702 26.42L36.3602 26.4Z" fill="white"/>
<path d="M34.8604 30.0008C34.6904 30.0008 34.5204 29.9608 34.3604 29.8708L6.64043 13.8708C6.16043 13.5908 6.00043 12.9808 6.27043 12.5008C6.55043 12.0208 7.16043 11.8608 7.64043 12.1308L35.3504 28.1308C35.8304 28.4108 35.9904 29.0208 35.7204 29.5008C35.5304 29.8208 35.2004 30.0008 34.8504 30.0008H34.8604Z" fill="#221F1F"/>
<path d="M7.13999 29.9994C6.78999 29.9994 6.45999 29.8194 6.26999 29.4994C5.98999 29.0194 6.15999 28.4094 6.63999 28.1294L34.35 12.1294C34.83 11.8494 35.44 12.0194 35.72 12.4994C36 12.9794 35.83 13.5894 35.35 13.8694L7.63999 29.8694C7.47999 29.9594 7.30999 29.9994 7.13999 29.9994Z" fill="#221F1F"/>
<path d="M21 38C20.45 38 20 37.55 20 37V5C20 4.45 20.45 4 21 4C21.55 4 22 4.45 22 5V37C22 37.55 21.55 38 21 38Z" fill="#221F1F"/>
<path d="M10.8102 15.2391C9.95019 15.2391 9.14019 15.1191 8.40019 14.8691C7.88019 14.6891 7.60019 14.1191 7.78019 13.5991C7.96019 13.0791 8.53019 12.7991 9.05019 12.9791C10.8502 13.5891 13.4002 13.1491 15.7002 11.8191C18.0002 10.4891 19.6602 8.50907 20.0302 6.63907C20.1402 6.09907 20.6602 5.74907 21.2002 5.84907C21.7402 5.95907 22.1002 6.47907 21.9902 7.01907C21.5102 9.46907 19.5302 11.9091 16.7002 13.5491C14.7902 14.6491 12.6902 15.2391 10.8102 15.2391Z" fill="#221F1F"/>
<path d="M14.8899 18.29C14.3699 18.29 13.9399 17.89 13.8899 17.37C13.8399 16.82 14.2499 16.34 14.7999 16.29C15.7599 16.21 16.7599 15.88 17.7199 15.33C18.6599 14.79 19.4399 14.09 19.9899 13.32C20.3099 12.87 20.9299 12.76 21.3799 13.08C21.8299 13.4 21.9399 14.02 21.6199 14.47C20.9099 15.48 19.8999 16.38 18.7199 17.07C17.5099 17.77 16.2199 18.19 14.9699 18.29C14.9399 18.29 14.9099 18.29 14.8899 18.29Z" fill="#221F1F"/>
<path d="M8.73997 29.0891C8.45997 29.0891 8.17997 28.9692 7.98997 28.7492C7.62997 28.3292 7.66997 27.6991 8.08997 27.3391C9.51997 26.0891 10.42 23.6592 10.42 20.9992C10.42 18.3392 9.52997 15.9092 8.09997 14.6592C7.67997 14.2992 7.63997 13.6692 7.99997 13.2492C8.35997 12.8292 8.99997 12.7892 9.40997 13.1492C11.27 14.7692 12.42 17.7692 12.42 20.9892C12.42 24.2092 11.3 27.1891 9.40997 28.8391C9.21997 29.0091 8.98997 29.0891 8.74997 29.0891H8.73997Z" fill="#221F1F"/>
<path d="M14.7296 25.4303C14.5896 25.4303 14.4396 25.4003 14.2996 25.3303C13.7996 25.0903 13.5896 24.5003 13.8196 24.0003C14.2296 23.1303 14.4496 22.1003 14.4496 21.0003C14.4496 19.9003 14.2396 18.8903 13.8396 18.0303C13.6096 17.5303 13.8196 16.9403 14.3296 16.7003C14.8296 16.4703 15.4296 16.6803 15.6596 17.1903C16.1796 18.3103 16.4596 19.6303 16.4596 21.0003C16.4596 22.3703 16.1796 23.7303 15.6396 24.8603C15.4696 25.2203 15.1096 25.4303 14.7396 25.4303H14.7296Z" fill="#221F1F"/>
<path d="M21.0102 36.1693C20.5402 36.1693 20.1202 35.8393 20.0302 35.3593C19.6602 33.4893 18.0102 31.5093 15.7002 30.1793C13.4002 28.8493 10.8502 28.4093 9.05019 29.0193C8.53019 29.1893 7.96019 28.9193 7.78019 28.3993C7.60019 27.8793 7.88019 27.3093 8.40019 27.1293C10.7702 26.3193 13.8702 26.8093 16.7002 28.4493C19.5302 30.0793 21.5102 32.5293 21.9902 34.9793C22.1002 35.5193 21.7402 36.0493 21.2002 36.1493C21.1302 36.1593 21.0702 36.1693 21.0102 36.1693Z" fill="#221F1F"/>
<path d="M20.8397 29.1409C20.5197 29.1409 20.2097 28.9909 20.0197 28.7109C19.4697 27.9209 18.6797 27.2109 17.7297 26.6709C16.7897 26.1309 15.7897 25.8009 14.8497 25.7109C14.2997 25.6609 13.8897 25.1809 13.9397 24.6309C13.9897 24.0809 14.4597 23.6709 15.0197 23.7209C16.2497 23.8309 17.5297 24.2509 18.7197 24.9409C19.9297 25.6409 20.9397 26.5509 21.6497 27.5809C21.9597 28.0309 21.8497 28.6609 21.3997 28.9709C21.2297 29.0909 21.0297 29.1509 20.8297 29.1509L20.8397 29.1409Z" fill="#221F1F"/>
<path d="M20.99 36.1692C20.93 36.1692 20.86 36.1692 20.8 36.1492C20.26 36.0392 19.9 35.5192 20.01 34.9792C20.49 32.5292 22.47 30.0892 25.3 28.4492C28.13 26.8192 31.23 26.3192 33.6 27.1292C34.12 27.3092 34.4 27.8792 34.22 28.3992C34.04 28.9192 33.47 29.1992 32.95 29.0192C31.15 28.3992 28.6 28.8492 26.3 30.1792C24 31.5092 22.34 33.4892 21.97 35.3592C21.88 35.8392 21.46 36.1692 20.99 36.1692Z" fill="#221F1F"/>
<path d="M21.1898 29.1104C20.9898 29.1104 20.7898 29.0504 20.6198 28.9304C20.1698 28.6104 20.0598 27.9904 20.3798 27.5404C21.0898 26.5304 22.0998 25.6304 23.2798 24.9404C24.4898 24.2404 25.7798 23.8204 27.0298 23.7204C27.5798 23.6904 28.0598 24.0804 28.1098 24.6404C28.1598 25.2004 27.7498 25.6704 27.1998 25.7204C26.2398 25.8004 25.2398 26.1304 24.2798 26.6804C23.3398 27.2204 22.5598 27.9204 22.0098 28.6904C21.8198 28.9704 21.5098 29.1204 21.1898 29.1204V29.1104Z" fill="#221F1F"/>
<path d="M33.2598 29.0901C33.0298 29.0901 32.7898 29.0101 32.5998 28.8401C30.7398 27.2201 29.5898 24.2201 29.5898 21.0001C29.5898 17.7301 30.7098 14.8001 32.5998 13.1501C33.0198 12.7901 33.6498 12.8301 34.0098 13.2401C34.3698 13.6601 34.3298 14.2901 33.9098 14.6501C32.4798 15.9001 31.5798 18.3301 31.5798 20.9901C31.5798 23.6501 32.4698 26.0801 33.8998 27.3301C34.3198 27.6901 34.3598 28.3201 33.9998 28.7401C33.7998 28.9701 33.5198 29.0801 33.2498 29.0801L33.2598 29.0901Z" fill="#221F1F"/>
<path d="M27.25 25.3895C26.87 25.3895 26.51 25.1795 26.34 24.8095C25.82 23.6895 25.54 22.3695 25.54 20.9995C25.54 19.6295 25.82 18.2695 26.36 17.1395C26.6 16.6395 27.19 16.4295 27.69 16.6595C28.19 16.8995 28.4 17.4895 28.17 17.9895C27.76 18.8595 27.54 19.8895 27.54 20.9895C27.54 22.0895 27.75 23.0995 28.15 23.9595C28.38 24.4595 28.17 25.0495 27.66 25.2895C27.52 25.3495 27.38 25.3795 27.24 25.3795L27.25 25.3895Z" fill="#221F1F"/>
<path d="M31.16 15.2499C29.29 15.2499 27.23 14.6699 25.3 13.5499C22.47 11.9199 20.49 9.46988 20.01 7.01988C19.9 6.47988 20.26 5.94988 20.8 5.84988C21.34 5.73988 21.87 6.09988 21.97 6.63988C22.34 8.50988 23.99 10.4899 26.3 11.8199C28.6 13.1499 31.15 13.5899 32.95 12.9799C33.47 12.7999 34.04 13.0799 34.22 13.5999C34.4 14.1199 34.12 14.6899 33.6 14.8699C32.85 15.1299 32.03 15.2499 31.16 15.2499Z" fill="#221F1F"/>
<path d="M27.0599 18.2794C27.0599 18.2794 26.9999 18.2794 26.9699 18.2794C25.7399 18.1694 24.4599 17.7494 23.2699 17.0594C22.0599 16.3594 21.0499 15.4494 20.3399 14.4194C20.0299 13.9694 20.1399 13.3394 20.5899 13.0294C21.0399 12.7194 21.6699 12.8294 21.9799 13.2794C22.5299 14.0694 23.3199 14.7794 24.2699 15.3194C25.2099 15.8594 26.2099 16.1894 27.1499 16.2794C27.6999 16.3294 28.1099 16.8094 28.0599 17.3594C28.0099 17.8794 27.5799 18.2694 27.0599 18.2694V18.2794Z" fill="#221F1F"/>
</svg>
