<svg width="42" height="42" viewBox="0 0 42 42" fill="none" xmlns="http://www.w3.org/2000/svg">
<path d="M21 39C23.7614 39 26 36.7614 26 34C26 31.2386 23.7614 29 21 29C18.2386 29 16 31.2386 16 34C16 36.7614 18.2386 39 21 39Z" fill="white"/>
<path d="M21 35C24.5899 35 27.5 32.0899 27.5 28.5C27.5 24.9101 24.5899 22 21 22C17.4101 22 14.5 24.9101 14.5 28.5C14.5 32.0899 17.4101 35 21 35Z" fill="white"/>
<path d="M13.8505 39.8896C12.1605 39.7696 10.9105 38.3496 11.0105 36.7196C11.1505 34.3896 12.9505 30.0296 18.8505 28.4496C19.1005 28.3796 19.3705 28.3496 19.6305 28.3496C20.9805 28.3496 22.1805 29.2596 22.5305 30.5696C22.7405 31.3396 22.6305 32.1496 22.2305 32.8496C21.8305 33.5396 21.1805 34.0396 20.4105 34.2496C17.3305 35.0796 17.0205 36.9496 17.0005 37.1596C16.8805 38.6896 15.5705 39.8996 14.0105 39.8996H13.8605L13.8505 39.8896Z" fill="white"/>
<path d="M18.62 31.0009C18.36 31.0009 18.09 30.9609 17.84 30.9009C11.95 29.3209 10.14 24.9509 10 22.6309C9.95003 21.8309 10.22 21.0609 10.75 20.4609C11.28 19.8609 12.02 19.5009 12.82 19.4609H12.99C14.57 19.4609 15.88 20.6809 15.99 22.2509C16.01 22.4109 16.32 24.2809 19.4 25.1109C21 25.5409 21.95 27.1909 21.52 28.7909C21.17 30.1009 19.98 31.0109 18.62 31.0109V31.0009Z" fill="white"/>
<path d="M11.0001 34.4998C9.99012 34.4998 9.05012 33.9998 8.49012 33.1498C7.59012 31.7798 7.96012 29.9198 9.33012 29.0098C9.70012 28.7698 13.1601 26.5898 21.6201 25.5298C21.7501 25.5098 21.8701 25.5098 21.9901 25.5098C23.5001 25.5098 24.7801 26.6398 24.9701 28.1398C25.0701 28.9298 24.8501 29.7198 24.3601 30.3498C23.8701 30.9798 23.1601 31.3898 22.3601 31.4798C15.4201 32.3498 12.6301 34.0198 12.6001 34.0298C12.1501 34.3298 11.5801 34.4998 10.9901 34.4998H11.0001Z" fill="white"/>
<path d="M28.0004 39.8998C26.4304 39.8998 25.1104 38.6698 25.0104 37.0998C24.9904 36.9398 24.6804 35.0698 21.6004 34.2398C20.8304 34.0298 20.1804 33.5298 19.7804 32.8398C19.3804 32.1398 19.2704 31.3398 19.4804 30.5598C19.8304 29.2498 21.0204 28.3398 22.3804 28.3398C22.6404 28.3398 22.9004 28.3698 23.1604 28.4398C29.0504 30.0298 30.8604 34.3898 31.0004 36.7098C31.0504 37.5098 30.7804 38.2798 30.2504 38.8798C29.7204 39.4798 28.9804 39.8398 28.1804 39.8798H28.0004V39.8998Z" fill="white"/>
<path d="M23.3804 30.9992C22.0304 30.9992 20.8404 30.0892 20.4804 28.7792C20.0504 27.1792 21.0004 25.5292 22.6004 25.0992C25.6804 24.2692 25.9904 22.3992 26.0104 22.1892C26.1304 20.6392 27.4204 19.4492 29.0104 19.4492H29.1604C30.8304 19.5692 32.0904 20.9892 31.9904 22.6192C31.8504 24.9492 30.0504 29.3092 24.1504 30.8892C23.9004 30.9592 23.6304 30.9892 23.3704 30.9892L23.3804 30.9992Z" fill="white"/>
<path d="M30.9997 34.4998C30.4097 34.4998 29.8397 34.3298 29.3497 34.0098C29.3497 34.0098 26.5497 32.3498 19.6297 31.4798C18.8397 31.3798 18.1297 30.9798 17.6297 30.3498C17.1397 29.7198 16.9197 28.9298 17.0197 28.1398C17.2097 26.6398 18.4897 25.5098 19.9997 25.5098C20.1197 25.5098 20.2397 25.5098 20.3497 25.5298C28.8197 26.5898 32.2897 28.7698 32.6597 29.0098C34.0397 29.9298 34.4097 31.7898 33.4897 33.1698C32.9297 34.0098 31.9997 34.5098 30.9897 34.5098L30.9997 34.4998Z" fill="white"/>
<path d="M21 33C19.35 33 18 31.65 18 30V5C18 3.35 19.35 2 21 2C22.65 2 24 3.35 24 5V30C24 31.65 22.65 33 21 33Z" fill="white"/>
<path d="M21 37C22.6569 37 24 35.6569 24 34C24 32.3431 22.6569 31 21 31C19.3431 31 18 32.3431 18 34C18 35.6569 19.3431 37 21 37Z" fill="#221F1F"/>
<path d="M21 33C23.4853 33 25.5 30.9853 25.5 28.5C25.5 26.0147 23.4853 24 21 24C18.5147 24 16.5 26.0147 16.5 28.5C16.5 30.9853 18.5147 33 21 33Z" fill="#221F1F"/>
<path d="M13.9996 37.901C13.9996 37.901 13.9496 37.901 13.9296 37.901C13.3796 37.861 12.9696 37.401 12.9996 36.851C13.0096 36.651 13.3596 32.011 19.3596 30.391C19.8896 30.251 20.4396 30.561 20.5896 31.101C20.7296 31.631 20.4196 32.181 19.8796 32.331C15.3096 33.561 15.0096 36.851 14.9996 36.991C14.9596 37.511 14.5196 37.921 13.9996 37.921V37.901Z" fill="#221F1F"/>
<path d="M18.6196 29.0008C18.5296 29.0008 18.4496 28.9908 18.3596 28.9708C12.3596 27.3508 12.0096 22.7108 11.9996 22.5108C11.9696 21.9608 12.3896 21.4808 12.9396 21.4508C13.4896 21.4208 13.9596 21.8308 13.9996 22.3808C14.0096 22.5308 14.3196 25.8108 18.8796 27.0408C19.4096 27.1808 19.7296 27.7308 19.5896 28.2708C19.4696 28.7208 19.0696 29.0108 18.6196 29.0108V29.0008Z" fill="#221F1F"/>
<path d="M10.9997 32.5001C10.6697 32.5001 10.3597 32.3401 10.1597 32.0501C9.85968 31.5901 9.97968 30.9701 10.4397 30.6701C10.5697 30.5801 13.7297 28.5301 21.8697 27.5101C22.4097 27.4501 22.9197 27.8301 22.9897 28.3801C23.0597 28.9301 22.6697 29.4301 22.1197 29.5001C14.5297 30.4501 11.5697 32.3201 11.5497 32.3401C11.3797 32.4501 11.1897 32.5001 10.9997 32.5001Z" fill="#221F1F"/>
<path d="M27.9999 37.9006C27.4799 37.9006 27.0399 37.4906 26.9999 36.9706C26.9899 36.8106 26.6698 33.5406 22.1198 32.3206C21.5898 32.1806 21.2699 31.6306 21.4099 31.0906C21.5499 30.5606 22.0997 30.2406 22.6397 30.3806C28.6397 32.0006 28.9899 36.6406 28.9999 36.8406C29.0299 37.3906 28.6097 37.8706 28.0597 37.9006C28.0397 37.9006 28.0199 37.9006 27.9999 37.9006Z" fill="#221F1F"/>
<path d="M23.3795 29.0008C22.9395 29.0008 22.5295 28.7108 22.4095 28.2608C22.2695 27.7308 22.5795 27.1808 23.1195 27.0308C27.6895 25.8008 27.9895 22.5108 27.9995 22.3708C28.0395 21.8208 28.5095 21.4208 29.0695 21.4508C29.6195 21.4908 30.0295 21.9508 29.9995 22.5008C29.9895 22.7008 29.6395 27.3408 23.6395 28.9608C23.5495 28.9808 23.4695 28.9908 23.3795 28.9908V29.0008Z" fill="#221F1F"/>
<path d="M31.0001 32.5004C30.8101 32.5004 30.6201 32.4504 30.4501 32.3304C30.4101 32.3004 27.4501 30.4304 19.8801 29.4904C19.3301 29.4204 18.9401 28.9204 19.0101 28.3704C19.0801 27.8204 19.5801 27.4404 20.1301 27.5004C28.2701 28.5204 31.4301 30.5704 31.5601 30.6604C32.0201 30.9704 32.1401 31.5904 31.8401 32.0504C31.6501 32.3404 31.3301 32.5004 31.0101 32.5004H31.0001Z" fill="#221F1F"/>
<path d="M21 31C20.45 31 20 30.55 20 30V5C20 4.45 20.45 4 21 4C21.55 4 22 4.45 22 5V30C22 30.55 21.55 31 21 31Z" fill="#221F1F"/>
</svg>
