<svg width="42" height="42" viewBox="0 0 42 42" fill="none" xmlns="http://www.w3.org/2000/svg">
<path d="M9 40C6.79 40 5 38.21 5 36V18C5 9.18 12.18 2 21 2C29.82 2 37 9.18 37 18V36C37 38.21 35.21 40 33 40H9Z" fill="white"/>
<path d="M39 35.38V33.62C39 31.0684 36.9316 29 34.38 29H7.62C5.06844 29 3 31.0684 3 33.62V35.38C3 37.9316 5.06844 40 7.62 40H34.38C36.9316 40 39 37.9316 39 35.38Z" fill="white"/>
<path d="M9 38C7.9 38 7 37.1 7 36V18C7 10.28 13.28 4 21 4C28.72 4 35 10.28 35 18V36C35 37.1 34.1 38 33 38H9Z" fill="#221F1F"/>
<path d="M33 36V18C33 11.4 27.6 6 21 6C14.4 6 9 11.4 9 18V36H33Z" fill="#9E9E9E"/>
<path d="M33 36V18C33 11.4 27.6 6 21 6C14.4 6 9 11.4 9 18V36H33Z" fill="#9E9E9E"/>
<path d="M20.9998 6C14.4398 6 9.07977 11.33 9.00977 17.87L32.9998 24.27V18C32.9998 11.4 27.5998 6 20.9998 6Z" fill="#C4C4C4"/>
<path d="M15 23H13C12.45 23 12 22.55 12 22V18C12 17.45 12.45 17 13 17H15C16.65 17 18 18.35 18 20C18 21.65 16.65 23 15 23ZM14 21H15C15.55 21 16 20.55 16 20C16 19.45 15.55 19 15 19H14V21Z" fill="#221F1F"/>
<path d="M27 23H25C24.45 23 24 22.55 24 22V18C24 17.45 24.45 17 25 17H27C28.65 17 30 18.35 30 20C30 21.65 28.65 23 27 23ZM26 21H27C27.55 21 28 20.55 28 20C28 19.45 27.55 19 27 19H26V21Z" fill="#221F1F"/>
<path d="M25 25.5C24.45 25.5 24 25.05 24 24.5V18C24 17.45 24.45 17 25 17C25.55 17 26 17.45 26 18V24.5C26 25.05 25.55 25.5 25 25.5Z" fill="#221F1F"/>
<path d="M21 25.5C20.45 25.5 20 25.05 20 24.5V18C20 17.45 20.45 17 21 17C21.55 17 22 17.45 22 18V24.5C22 25.05 21.55 25.5 21 25.5Z" fill="#221F1F"/>
<path d="M13 25.5C12.45 25.5 12 25.05 12 24.5V18C12 17.45 12.45 17 13 17C13.55 17 14 17.45 14 18V24.5C14 25.05 13.55 25.5 13 25.5Z" fill="#221F1F"/>
<path d="M16.9998 25.5008C16.6698 25.5008 16.3398 25.3308 16.1498 25.0308L14.6498 22.6108C14.3598 22.1408 14.4998 21.5208 14.9698 21.2308C15.4398 20.9408 16.0598 21.0808 16.3498 21.5508L17.8498 23.9708C18.1398 24.4408 17.9998 25.0608 17.5298 25.3508C17.3698 25.4508 17.1798 25.5008 17.0098 25.5008H16.9998Z" fill="#221F1F"/>
<path d="M37 35.38V33.62C37 32.173 35.827 31 34.38 31H7.62C6.17301 31 5 32.173 5 33.62V35.38C5 36.827 6.17301 38 7.62 38H34.38C35.827 38 37 36.827 37 35.38Z" fill="#221F1F"/>
<path d="M34.38 33H7.62C7.27758 33 7 33.2776 7 33.62V35.38C7 35.7224 7.27758 36 7.62 36H34.38C34.7224 36 35 35.7224 35 35.38V33.62C35 33.2776 34.7224 33 34.38 33Z" fill="#9E9E9E"/>
<path d="M17.75 36H34.38C34.72 36 35 35.72 35 35.38V33.62C35 33.28 34.72 33 34.38 33H13L17.75 36Z" fill="#C4C4C4"/>
<path d="M21.9996 14.0002C21.7896 14.0002 21.5696 13.9302 21.3896 13.7902C20.9496 13.4502 20.8696 12.8302 21.2096 12.3902L22.7696 10.3602L21.1696 7.96017C20.9996 7.70017 20.9596 7.38017 21.0496 7.09017L21.7496 4.99017C21.9196 4.47017 22.4896 4.18017 23.0196 4.36017C23.5396 4.53017 23.8296 5.10017 23.6496 5.62017L23.0996 7.26017L24.8296 9.85017C25.0696 10.2102 25.0496 10.6802 24.7896 11.0102L22.7896 13.6102C22.5896 13.8702 22.2996 14.0002 21.9996 14.0002Z" fill="#221F1F"/>
<path d="M25.3099 13.0293C24.9999 13.0293 24.6899 12.8793 24.4999 12.6093L21.1899 7.97927C20.8699 7.52927 20.9699 6.90927 21.4199 6.58927C21.8699 6.26927 22.4899 6.36927 22.8099 6.81927L26.1199 11.4493C26.4399 11.8993 26.3399 12.5193 25.8899 12.8393C25.7099 12.9693 25.5099 13.0293 25.3099 13.0293Z" fill="#221F1F"/>
</svg>
