<svg width="42" height="42" viewBox="0 0 42 42" fill="none" xmlns="http://www.w3.org/2000/svg">
<path d="M40 21.51V20.49C40 11.9351 33.0649 5 24.51 5H17.49C8.93511 5 2 11.9351 2 20.49V21.51C2 30.0649 8.93511 37 17.49 37H24.51C33.0649 37 40 30.0649 40 21.51Z" fill="white"/>
<path d="M38 21.51V20.49C38 13.0397 31.9603 7 24.51 7H17.49C10.0397 7 4 13.0397 4 20.49V21.51C4 28.9603 10.0397 35 17.49 35H24.51C31.9603 35 38 28.9603 38 21.51Z" fill="#221F1F"/>
<path d="M17.49 33H24.51C30.8558 33 36 27.8558 36 21.51V20.49C36 14.1442 30.8558 9 24.51 9H17.49C11.1442 9 6 14.1442 6 20.49V21.51C6 27.8558 11.1442 33 17.49 33Z" fill="#D63838"/>
<path d="M36 20.49C36 14.17 30.83 9 24.51 9H17.49C16.88 9 16.29 9.06 15.71 9.15L24.93 32.97C31.06 32.75 36 27.68 36 21.5V20.48V20.49Z" fill="#EF615E"/>
<path d="M17 29C12.04 29 8 25.41 8 21C8 16.59 12.04 13 17 13H25C29.96 13 34 16.59 34 21C34 25.41 29.96 29 25 29H17Z" fill="#221F1F"/>
<path d="M13.4802 26.18C14.2402 26.56 15.0902 26.82 16.0002 26.93V23.04C14.9302 23.27 14.0102 24.47 13.4802 26.17V26.18ZM17.0002 15C16.6602 15 16.3302 15.03 16.0102 15.07C16.0502 16.69 17.3802 18 19.0002 18H23.0002C24.6302 18 25.9602 16.69 25.9902 15.07C25.6602 15.03 25.3302 15 25.0002 15H17.0002ZM15.0002 20.96V15.26C13.9402 15.53 12.9802 16.02 12.2002 16.65C12.6202 18.96 13.7002 20.68 15.0002 20.96ZM26.0002 23.04V26.93C26.9102 26.82 27.7602 26.56 28.5202 26.18C27.9902 24.48 27.0702 23.27 26.0002 23.05V23.04ZM23.0002 25H19.0002C17.9002 25 17.0002 25.9 17.0002 27H25.0002C25.0002 25.9 24.1002 25 23.0002 25ZM29.8002 16.65C29.0102 16.01 28.0602 15.53 27.0002 15.26V20.96C28.3102 20.68 29.3802 18.96 29.8002 16.65Z" fill="white"/>
</svg>
