<svg width="42" height="42" viewBox="0 0 42 42" fill="none" xmlns="http://www.w3.org/2000/svg">
<path d="M21 39C14.67 39 8.51 37.73 3.18 35.32C2.46 35 2 34.28 2 33.5C2 32.72 2.46 32 3.18 31.68C5.42 30.67 7.83 29.85 10.33 29.25L13.42 17.84C13.5 17.53 13.66 17.25 13.88 17.01L17.47 13.1L14.32 13.6C14.22 13.62 14.11 13.62 14.01 13.62C13.14 13.62 12.36 13.05 12.1 12.2L10.1 5.58C9.86 4.8 10.12 3.96 10.76 3.45C11.12 3.16 11.57 3 12.02 3C12.35 3 12.68 3.08 12.99 3.25L16.28 5.06L23.5 3.07C23.68 3.02 23.85 3 24.03 3C24.7 3 25.33 3.33 25.71 3.91L30.71 11.63C31.14 12.29 31.14 13.14 30.71 13.8L28.17 17.72L31.61 29.21C34.15 29.82 36.58 30.64 38.85 31.66C39.57 31.98 40.03 32.7 40.03 33.48C40.03 34.26 39.57 34.98 38.85 35.3C33.52 37.71 27.35 38.98 21.03 38.98L21 39Z" fill="white"/>
<path d="M4 33.5C8.9 35.71 14.73 37 21 37C27.27 37 33.1 35.71 38 33.5C33.1 31.29 27.27 30 21 30C14.73 30 8.9 31.29 4 33.5Z" fill="#221F1F"/>
<path d="M23.56 9.41016L15.35 18.3602L11.5 32.5902H30.5L23.56 9.41016Z" fill="#221F1F"/>
<path d="M25.5 26H16.5V35H25.5V26Z" fill="#221F1F"/>
<path d="M24.5 27V34H17.5V27H24.5ZM26.5 25H15.5V36H26.5V25Z" fill="#221F1F"/>
<path d="M24 20.45L29 12.72L24 5L16 7.21L12 5L14 11.62L21 10.52V18.24L24 20.45Z" fill="#221F1F"/>
<path d="M24.5 34H17.5V27H24.5V34ZM19.5 32H22.5V29H19.5V32Z" fill="#FCD26E"/>
</svg>
