<svg width="42" height="42" viewBox="0 0 42 42" fill="none" xmlns="http://www.w3.org/2000/svg">
<path d="M2 11.29V30.71C2 33.6316 4.36841 36 7.29 36H34.71C37.6316 36 40 33.6316 40 30.71V11.29C40 8.36841 37.6316 6 34.71 6H7.29C4.36841 6 2 8.36841 2 11.29Z" fill="white"/>
<path d="M38 30.71V11.29C38 9.47298 36.527 8 34.71 8H7.29C5.47298 8 4 9.47298 4 11.29V30.71C4 32.527 5.47298 34 7.29 34H34.71C36.527 34 38 32.527 38 30.71Z" fill="#221F1F"/>
<path d="M34.71 10H7.29C6.57755 10 6 10.5775 6 11.29V30.71C6 31.4224 6.57755 32 7.29 32H34.71C35.4224 32 36 31.4224 36 30.71V11.29C36 10.5775 35.4224 10 34.71 10Z" fill="#CAE5FF"/>
<path fill-rule="evenodd" clip-rule="evenodd" d="M7.29 32.0001H28.74L6.45 10.3301C6.18 10.5701 6 10.9001 6 11.2901V30.7101C6 31.4201 6.58 32.0001 7.29 32.0001Z" fill="#A2D6FF"/>
<path d="M20.9996 26.22C20.2396 26.22 19.5296 25.92 18.9996 25.37L4.7896 10.7C4.4096 10.3 4.4196 9.67002 4.8096 9.29002C5.2096 8.91002 5.8396 8.92002 6.2196 9.31002L20.4296 23.99C20.7296 24.3 21.2596 24.3 21.5596 23.99L35.7696 9.31002C36.1496 8.91002 36.7896 8.90002 37.1796 9.29002C37.5796 9.67002 37.5896 10.31 37.1996 10.7L22.9896 25.38C22.4596 25.93 21.7496 26.23 20.9896 26.23L20.9996 26.22Z" fill="#221F1F"/>
<path d="M5.49957 33.0001C5.23957 33.0001 4.98957 32.9001 4.78957 32.7101C4.39957 32.3201 4.39957 31.6901 4.78957 31.2901L15.4796 20.5901C15.8696 20.2001 16.4996 20.2001 16.8896 20.5901C17.2796 20.9801 17.2796 21.6101 16.8896 22.0101L6.19957 32.7101C5.99957 32.9101 5.74957 33.0001 5.48957 33.0001H5.49957Z" fill="#221F1F"/>
<path d="M36.5001 33.0001C36.2401 33.0001 35.9901 32.9001 35.7901 32.7101L25.1001 22.0101C24.7101 21.6201 24.7101 20.9901 25.1001 20.5901C25.4901 20.2001 26.1201 20.2001 26.5101 20.5901L37.2001 31.2901C37.5901 31.6801 37.5901 32.3101 37.2001 32.7101C37.0001 32.9001 36.7501 33.0001 36.4901 33.0001H36.5001Z" fill="#221F1F"/>
</svg>
