<svg width="42" height="42" viewBox="0 0 42 42" fill="none" xmlns="http://www.w3.org/2000/svg">
<path d="M40.0004 18.4C40.0004 18.2 39.9004 18 39.9004 17.8C39.9004 17.7 39.8004 17.6 39.8004 17.5C39.7004 17.4 39.7004 17.2 39.6004 17.1C39.5004 17 39.4004 16.9 39.3004 16.8C39.2004 16.7 39.1004 16.6 39.1004 16.6L34.8004 13V9.3C34.8004 7.6 33.5004 6.3 31.8004 6.3H26.9004L22.7004 2.7C22.1004 2.3 21.4004 2 20.7004 2C20.0004 2 19.3004 2.3 18.7004 2.7L14.7004 6.2H10.3004C8.60039 6.2 7.30039 7.5 7.30039 9.2V12.7L3.00039 16.6C2.90039 16.7 2.80039 16.7 2.80039 16.8C2.70039 16.9 2.70039 17 2.60039 17C2.50039 17.2 2.40039 17.3 2.30039 17.4C2.20039 17.5 2.20039 17.6 2.10039 17.8C2.10039 18 2.00039 18.2 2.00039 18.4C2.00039 18.6 1.90039 18.7 1.90039 18.9V37C1.90039 38.7 3.20039 40 4.90039 40H37.0004C38.7004 40 40.0004 38.7 40.0004 37V18.9C40.1004 18.7 40.0004 18.6 40.0004 18.4Z" fill="white"/>
<path fill-rule="evenodd" clip-rule="evenodd" d="M37.1004 37H4.90039V18.9L20.7004 5L37.1004 18.9V37Z" fill="#A2D6FF"/>
<path fill-rule="evenodd" clip-rule="evenodd" d="M37.1 19.3999L17 32.7999C17 32.7999 17.2 34.7999 17.4 36.9999H37.1V19.3999Z" fill="#CAE5FF"/>
<path d="M37.1004 38.0001H4.90039C4.30039 38.0001 3.90039 37.6001 3.90039 37.0001V18.9001C3.90039 18.6001 4.00039 18.3001 4.20039 18.1001L20.0004 4.2001C20.4004 3.9001 20.9004 3.9001 21.3004 4.2001L37.7004 18.1001C37.9004 18.3001 38.1004 18.6001 38.1004 18.9001V37.0001C38.1004 37.6001 37.6004 38.0001 37.1004 38.0001ZM5.90039 36.0001H36.0004V19.3001L20.6004 6.3001L5.80039 19.3001V36.0001H5.90039Z" fill="#221F1F"/>
<path d="M20.7002 31.6C20.5002 31.6 20.3002 31.5 20.1002 31.4L4.30021 19.7C3.90021 19.4 3.80021 18.7 4.10021 18.3C4.40021 17.9 5.10021 17.8 5.50021 18.1L20.7002 29.4L36.5002 18.1C36.9002 17.8 37.6002 17.9 37.9002 18.3C38.2002 18.7 38.1002 19.4 37.7002 19.7L21.3002 31.4C21.1002 31.5 20.9002 31.6 20.7002 31.6Z" fill="#221F1F"/>
<path fill-rule="evenodd" clip-rule="evenodd" d="M5.90039 20.8V36H26.3004L5.90039 20.8Z" fill="#A2D6FF"/>
<path fill-rule="evenodd" clip-rule="evenodd" d="M31.7008 9.30005H10.3008V22.9L20.7008 30.6L31.7008 22.7V9.30005Z" fill="white"/>
<path fill-rule="evenodd" clip-rule="evenodd" d="M21 24.1069C11.2432 18.7739 18.3032 12.1684 21 16.6226C23.6968 12.1684 30.7568 18.7739 21 24.1069Z" fill="#DB8080"/>
<path d="M20.7008 31.6C20.5008 31.6 20.3008 31.5 20.1008 31.4L9.70078 23.7C9.40078 23.5 9.30078 23.2 9.30078 22.9V9.30005C9.30078 8.70005 9.70078 8.30005 10.3008 8.30005H31.7008C32.3008 8.30005 32.7008 8.70005 32.7008 9.30005V22.7C32.7008 23 32.5008 23.3 32.3008 23.5L21.3008 31.4C21.1008 31.5 20.9008 31.6 20.7008 31.6ZM11.3008 22.4L20.7008 29.4L30.7008 22.2V10.3H11.3008V22.4Z" fill="#221F1F"/>
</svg>
