<svg width="42" height="42" viewBox="0 0 42 42" fill="none" xmlns="http://www.w3.org/2000/svg">
<path d="M29.6004 39.7C26.3004 39.7 23.6004 37 23.6004 33.7C23.6004 33.6 23.6004 33.5 23.6004 33.4C22.7004 33.6 21.9004 33.7999 21.0004 33.7999C18.2004 33.7999 15.6004 32.6 13.8004 30.6C13.8004 30.6 13.8004 30.6 13.7004 30.6C8.60039 30.6 4.40039 26.5999 4.40039 21.7999C4.40039 20.5 4.70039 19.2 5.30039 18C4.70039 16.8 4.40039 15.5 4.40039 14.2C4.40039 9.29995 8.60039 5.39995 13.7004 5.39995C13.7004 5.39995 13.7004 5.39995 13.8004 5.39995C15.6004 3.39995 18.2004 2.19995 21.0004 2.19995C23.8004 2.19995 26.4004 3.39995 28.2004 5.39995C28.2004 5.39995 28.2004 5.39995 28.3004 5.39995C33.4004 5.39995 37.6004 9.39995 37.6004 14.2C37.6004 15.5 37.3004 16.8 36.7004 18C37.3004 19.2 37.6004 20.5 37.6004 21.7999C37.6004 24.7999 36.0004 27.5 33.5004 29.1C34.8004 30.2 35.6004 31.8 35.6004 33.7C35.6004 37 32.9004 39.7 29.6004 39.7Z" fill="white"/>
<path fill-rule="evenodd" clip-rule="evenodd" d="M34.5 14.2999C34.5 11.0999 31.7 8.4999 28.2 8.4999C27.7 8.4999 27.2 8.5999 26.7 8.6999C25.7 6.6999 23.5 5.3999 21 5.3999C18.5 5.3999 16.3 6.7999 15.3 8.6999C14.8 8.5999 14.3 8.4999 13.8 8.4999C10.3 8.4999 7.5 11.0999 7.5 14.2999C7.5 15.6999 8 16.9999 9 18.0999C8.1 19.0999 7.5 20.3999 7.5 21.8999C7.5 25.0999 10.3 27.6999 13.8 27.6999C14.3 27.6999 14.8 27.5999 15.3 27.4999C16.3 29.4999 18.5 30.7999 21 30.7999C23.5 30.7999 25.7 29.3999 26.7 27.4999C27.2 27.5999 27.7 27.6999 28.2 27.6999C31.7 27.6999 34.5 25.0999 34.5 21.8999C34.5 20.4999 33.9 19.0999 33 18.0999C34 16.9999 34.5 15.6999 34.5 14.2999Z" fill="#F0AA97"/>
<path d="M18.5 25.3C18 25.4 17.6 25.5 17.1 25.5C13.7 25.5 11 23 11 19.9C11 18.5 11.6 17.2 12.5 16.3C11.6 15.3 11 14.1 11 12.7C11 11.6 11.3 10.6 11.9 9.80005C9.9 10.5 8.5 12.3 8.5 14.3C8.5 15.4 8.9 16.5 9.8 17.4C10.2 17.8 10.2 18.4 9.8 18.8C9 19.7 8.5 20.8 8.5 21.9C8.5 24.9 11.6 27.4 15.1 26.6C15.2 26.6 15.2 26.6 15.3 26.6C15.7 26.6 16 26.8 16.2 27.1C17.1 28.8 19 29.9 21 29.9C22.3 29.9 23.6 29.4 24.6 28.6C24.4 28.6 24.2 28.6 24 28.6C21.5 28.5 19.5 27.2 18.5 25.3Z" fill="#D88C7D"/>
<path d="M29.5996 36.7C31.2565 36.7 32.5996 35.3568 32.5996 33.7C32.5996 32.0431 31.2565 30.7 29.5996 30.7C27.9428 30.7 26.5996 32.0431 26.5996 33.7C26.5996 35.3568 27.9428 36.7 29.5996 36.7Z" fill="#F0AA97"/>
<path d="M29.5996 37.7C27.3996 37.7 25.5996 35.9 25.5996 33.7C25.5996 31.5 27.3996 29.7 29.5996 29.7C31.7996 29.7 33.5996 31.5 33.5996 33.7C33.5996 35.9 31.7996 37.7 29.5996 37.7ZM29.5996 31.7999C28.4996 31.7999 27.5996 32.6999 27.5996 33.7999C27.5996 34.8999 28.4996 35.7999 29.5996 35.7999C30.6996 35.7999 31.5996 34.8999 31.5996 33.7999C31.5996 32.6999 30.6996 31.7999 29.5996 31.7999Z" fill="#221F1F"/>
<path fill-rule="evenodd" clip-rule="evenodd" d="M22.1998 11.1001H19.7998L20.2998 19.1001H21.6998L22.1998 11.1001Z" fill="#221F1F"/>
<path d="M20.9998 26.4C22.2148 26.4 23.1998 25.415 23.1998 24.2C23.1998 22.985 22.2148 22 20.9998 22C19.7848 22 18.7998 22.985 18.7998 24.2C18.7998 25.415 19.7848 26.4 20.9998 26.4Z" fill="#221F1F"/>
<path d="M21.6998 20.1001H20.2998C19.7998 20.1001 19.2998 19.7001 19.2998 19.2001L18.7998 11.1001C18.7998 10.8001 18.8998 10.6001 19.0998 10.4001C19.2998 10.2001 19.5998 10.1001 19.7998 10.1001H22.1998C22.4998 10.1001 22.6998 10.2001 22.8998 10.4001C23.0998 10.6001 23.1998 10.9001 23.1998 11.1001L22.6998 19.2001C22.6998 19.7001 22.1998 20.1001 21.6998 20.1001ZM20.7998 12.1001L20.9998 14.5001L21.1998 12.1001H20.7998Z" fill="#221F1F"/>
<path d="M35.5 14.2C35.5 10.1 31.7 6.79995 27.2 7.39995C25.9 5.39995 23.6 4.19995 21 4.19995C18.5 4.19995 16.1 5.39995 14.8 7.39995C10.3 6.89995 6.5 10.1 6.5 14.2C6.5 15.6 6.9 16.9 7.7 18C6.9 19.1 6.5 20.4 6.5 21.7999C6.5 25.9 10.3 29.2 14.8 28.6C16.1 30.6 18.4 31.7999 21 31.7999C23.6 31.7999 25.9 30.6 27.2 28.6C31.7 29.1 35.5 25.9 35.5 21.7999C35.5 20.4 35.1 19.1 34.3 18C35.1 16.9 35.5 15.6 35.5 14.2ZM32.2 18.7C33.1 19.6 33.5 20.6999 33.5 21.7999C33.5 24.4 31.1 26.6 28.2 26.6C27.7 26.6 27.3 26.6 26.9 26.5C26.5 26.4 26 26.6 25.8 27C25 28.7 23.1 29.7999 21 29.7999C19 29.7999 17.1 28.7 16.2 27C16.1 26.9 16 26.8 15.9 26.7C15.6 26.5 15.3 26.6 15.1 26.6C14.6 26.7 14.2 26.7 13.8 26.7C10.9 26.7 8.5 24.6 8.5 21.9C8.5 20.8 9 19.7 9.8 18.8C10.2 18.4 10.2 17.8 9.8 17.4C8.9 16.5 8.5 15.4 8.5 14.3C8.5 11.3 11.6 8.79995 15.1 9.59995C15.5 9.69995 16 9.49995 16.2 9.09995C17 7.39995 18.9 6.29995 21 6.29995C23.1 6.29995 25 7.39995 25.8 8.99995C26 9.39995 26.5 9.59995 26.9 9.49995C27.4 9.39995 27.8 9.39995 28.2 9.39995C31.1 9.39995 33.5 11.5 33.5 14.2C33.5 15.3 33 16.4 32.2 17.3C31.8 17.7 31.8 18.3 32.2 18.7Z" fill="#221F1F"/>
</svg>
