<svg width="42" height="42" viewBox="0 0 42 42" fill="none" xmlns="http://www.w3.org/2000/svg">
<path d="M20.9 1C32 1 41 9.2 41 19.2C41 23 39.7 26.6 37.3 29.7L40.5 36.8C41 38 40.7 39.4 39.8 40.3C39.2 40.8 38.5 41.1 37.8 41.1C37.3 41.1 36.8 41 36.3 40.7L28.4 36.2C26 37.1 23.5 37.5 21 37.5C9.9 37.5 0.900002 29.3 0.900002 19.3C0.900002 9.3 9.8 1 20.9 1Z" fill="white"/>
<path fill-rule="evenodd" clip-rule="evenodd" d="M20.9 4C30.3 4 38 10.8 38 19.2C38 23 36.4 26.5 33.8 29.2L37.7 38L28.5 32.8C26.2 33.8 23.6 34.4 20.8 34.4C11.4 34.4 3.7 27.6 3.7 19.2C3.7 10.8 11.5 4 20.9 4Z" fill="#F0AA97"/>
<path d="M20.2 27.2999C21.415 27.2999 22.4 26.3149 22.4 25.0999C22.4 23.8849 21.415 22.8999 20.2 22.8999C18.985 22.8999 18 23.8849 18 25.0999C18 26.3149 18.985 27.2999 20.2 27.2999Z" fill="#221F1F"/>
<path fill-rule="evenodd" clip-rule="evenodd" d="M21.4 12H19L19.5 20H20.9L21.4 12Z" fill="#221F1F"/>
<path d="M20.9 21H19.5C19 21 18.5 20.6 18.5 20.1L18 12C18 11.7 18.1 11.5 18.3 11.3C18.5 11.1 18.8 11 19 11H21.4C21.7 11 21.9 11.1 22.1 11.3C22.3 11.5 22.4 11.8 22.4 12L21.9 20.1C21.9 20.6 21.4 21 20.9 21ZM20 13L20.2 15.4L20.4 13H20Z" fill="#221F1F"/>
<path d="M37.7 39C37.9 39 38.2 38.9 38.4 38.7C38.7 38.4 38.8 37.9 38.6 37.6L35 29.4C37.6 26.5 39 22.9 39 19.2C39 10.3 30.9 3 20.9 3C10.9 3 2.7 10.3 2.7 19.2C2.7 28.1 10.8 35.4 20.8 35.4C23.4 35.4 26 34.9 28.4 33.9L37.2 38.9C37.4 39 37.5 39 37.7 39ZM20.9 5C29.8 5 37 11.4 37 19.2C37 22.6 35.6 25.9 33.1 28.5C32.8 28.8 32.7 29.2 32.9 29.6L35.6 35.6L29 31.9C28.7 31.7 28.4 31.7 28.1 31.9C25.8 32.9 23.3 33.4 20.8 33.4C11.9 33.4 4.7 27 4.7 19.2C4.7 11.4 12 5 20.9 5Z" fill="#221F1F"/>
<path fill-rule="evenodd" clip-rule="evenodd" d="M36.3 15.1001C36.7 16.4001 37 17.8001 37 19.2001C37 22.6001 35.6 25.9001 33.1 28.5001C32.8 28.8001 32.7 29.2001 32.9 29.6001L35.6 35.6001L29.1 31.9001C28.8 31.7001 28.5 31.7001 28.2 31.9001C25.9 32.9001 23.5 33.4001 20.9 33.4001C19.4 33.4001 18 33.2001 16.6 32.9001C26.2 30.3001 33.7 23.6001 36.3 15.1001Z" fill="#D88C7D"/>
</svg>
