<svg width="42" height="42" viewBox="0 0 42 42" fill="none" xmlns="http://www.w3.org/2000/svg">
<path d="M21.0004 1C9.90039 1 0.900391 9.2 0.900391 19.2C0.900391 23 2.20039 26.6 4.60039 29.7L1.40039 36.8C0.900391 38 1.20039 39.4 2.10039 40.3C2.70039 40.8 3.40039 41.1 4.10039 41.1C4.60039 41.1 5.10039 41 5.60039 40.7L13.5004 36.2C15.9004 37.1 18.4004 37.5 20.9004 37.5C32.0004 37.5 41.0004 29.3 41.0004 19.3C41.0004 9.3 32.1004 1 21.0004 1Z" fill="white"/>
<path fill-rule="evenodd" clip-rule="evenodd" d="M21.0004 4C11.6004 4 3.90039 10.8 3.90039 19.2C3.90039 23 5.50039 26.5 8.10039 29.2L4.20039 38L13.4004 32.8C15.7004 33.8 18.3004 34.4 21.1004 34.4C30.5004 34.4 38.2004 27.6 38.2004 19.2C38.2004 10.8 30.4004 4 21.0004 4Z" fill="#B7EDB7"/>
<path d="M4.20039 39C4.00039 39 3.70039 38.9 3.50039 38.7C3.20039 38.4 3.10039 37.9 3.30039 37.6L6.90039 29.4C4.30039 26.5 2.90039 22.9 2.90039 19.2C2.90039 10.3 11.0004 3 21.0004 3C31.0004 3 39.2004 10.3 39.2004 19.2C39.2004 28.1 31.1004 35.4 21.1004 35.4C18.5004 35.4 15.9004 34.9 13.5004 33.9L4.70039 38.9C4.50039 39 4.40039 39 4.20039 39ZM21.0004 5C12.1004 5 4.90039 11.4 4.90039 19.2C4.90039 22.6 6.30039 25.9 8.80039 28.5C9.10039 28.8 9.20039 29.2 9.00039 29.6L6.30039 35.6L12.9004 31.9C13.2004 31.7 13.5004 31.7 13.8004 31.9C16.1004 32.9 18.6004 33.4 21.1004 33.4C30.0004 33.4 37.2004 27 37.2004 19.2C37.2004 11.4 29.9004 5 21.0004 5Z" fill="#221F1F"/>
<path d="M20.4009 23.3C19.7009 23.3 19.2009 22.7 19.3009 22.1C19.4009 20.7 20.0009 18.9 21.1009 17.6C22.4009 16.1 23.1009 14.9 23.1009 13.6C23.1009 12.1 22.2009 11.1 20.3009 11.1C19.6009 11.1 18.9009 11.3 18.2009 11.5C17.7009 11.7 17.1009 11.5 16.9009 10.9C16.7009 10.4 16.9009 9.9 17.4009 9.7C18.4009 9.3 19.6009 9 20.8009 9C24.1009 9 25.7009 11.1 25.7009 13.3C25.7009 15.3 24.6009 16.7 23.2009 18.4C22.2009 19.6 21.7009 21 21.6009 22.3C21.6009 22.8 21.1009 23.3 20.4009 23.3ZM18.7009 27.4C18.7009 26.3 19.4009 25.6 20.4009 25.6C21.4009 25.6 22.1009 26.4 22.1009 27.4C22.1009 28.4 21.4009 29.2 20.4009 29.2C19.4009 29.2 18.7009 28.5 18.7009 27.4Z" fill="#221F1F"/>
<path fill-rule="evenodd" clip-rule="evenodd" d="M5.60039 15.1001C5.20039 16.4001 4.90039 17.8001 4.90039 19.2001C4.90039 22.6001 6.30039 25.9001 8.80039 28.5001C9.10039 28.8001 9.20039 29.2001 9.00039 29.6001L6.30039 35.6001L12.8004 31.9001C13.1004 31.7001 13.4004 31.7001 13.7004 31.9001C16.0004 32.9001 18.4004 33.4001 21.0004 33.4001C22.5004 33.4001 23.9004 33.2001 25.3004 32.9001C15.7004 30.3001 8.20039 23.6001 5.60039 15.1001Z" fill="#9CDB9C"/>
</svg>
