<svg width="42" height="42" viewBox="0 0 42 42" fill="none" xmlns="http://www.w3.org/2000/svg">
<path d="M28.6543 37.128C26.8063 37.128 25.1368 36.099 24.2968 34.4505L24.0448 33.9465C23.0368 34.062 22.0183 34.1145 20.9998 34.1145C19.9813 34.1145 18.9628 34.062 17.9548 33.9465L17.7028 34.4505C16.8628 36.099 15.1933 37.1175 13.3453 37.1175C12.8413 37.1175 12.3373 37.044 11.8543 36.8865C8.44181 35.784 5.33381 34.0935 2.5933 31.857C1.6168 31.059 1.0498 29.8725 1.0498 28.602V28.329C1.0498 27.888 1.1233 17.598 6.08981 8.75693C6.58331 7.88543 7.37081 7.21343 8.31581 6.86693C10.8463 5.95343 13.5238 5.32343 16.2958 4.98743C16.4428 4.96643 16.6948 4.95593 16.8523 4.95593C18.3118 4.95593 19.6348 5.61743 20.5063 6.70943C20.6743 6.70943 20.8318 6.70943 20.9998 6.70943C21.1678 6.70943 21.3253 6.70943 21.4933 6.70943C22.3543 5.61743 23.6878 4.95593 25.1473 4.95593C25.2943 4.95593 25.5358 4.96643 25.6828 4.98743C28.4653 5.32343 31.1533 5.95343 33.6838 6.86693C34.6288 7.21343 35.4268 7.88543 35.9098 8.75693C40.8973 17.619 40.9498 27.8985 40.9498 28.329V28.602C40.9498 29.8725 40.3828 31.0485 39.4063 31.857C36.6658 34.0935 33.5578 35.784 30.1558 36.876C29.6728 37.0335 29.1688 37.107 28.6648 37.107L28.6543 37.128Z" fill="white"/>
<path d="M28.6547 35.028C27.6047 35.028 26.6492 34.44 26.1662 33.5055L25.2317 31.6785C23.8457 31.9095 22.4282 32.025 20.9897 32.025C19.5512 32.025 18.1337 31.9095 16.7477 31.6785L15.8132 33.516C15.3302 34.461 14.3852 35.0385 13.3247 35.0385C13.0412 35.0385 12.7472 34.9965 12.4742 34.902C9.31365 33.8835 6.43665 32.319 3.90615 30.2505C3.42315 29.8515 3.13965 29.253 3.13965 28.623V28.35C3.13965 27.9405 3.20265 18.186 7.91715 9.80703C8.15865 9.36603 8.55765 9.03003 9.03015 8.86203C11.4032 8.00103 13.9337 7.41303 16.5482 7.09803C16.6322 7.09803 16.7687 7.07703 16.8527 7.07703C18.0077 7.07703 18.9737 7.83303 19.2992 8.88303C19.8662 8.84103 20.4332 8.83053 20.9897 8.83053C21.5462 8.83053 22.1132 8.85153 22.6802 8.88303C23.0057 7.84353 23.9822 7.07703 25.1267 7.07703C25.2107 7.07703 25.3472 7.07703 25.4312 7.09803C28.0457 7.41303 30.5762 8.00103 32.9492 8.86203C33.4217 9.03003 33.8207 9.36603 34.0622 9.80703C38.7767 18.186 38.8397 27.9405 38.8397 28.35V28.623C38.8397 29.253 38.5562 29.8515 38.0732 30.2505C35.5427 32.319 32.6552 33.8835 29.5052 34.902C29.2322 34.986 28.9487 35.0385 28.6547 35.0385V35.028Z" fill="#221F1F"/>
<path d="M36.75 28.35C36.75 28.35 36.75 18.8265 32.2455 10.836C30.072 10.0486 27.7095 9.48158 25.2 9.17708C24.927 9.14558 24.675 9.36608 24.675 9.63908V11.214C23.499 11.025 22.2705 10.92 21 10.92C19.7295 10.92 18.501 11.025 17.325 11.214V9.63908C17.325 9.36608 17.0835 9.14558 16.8 9.17708C14.2905 9.48158 11.9175 10.0486 9.7545 10.836C5.25 18.837 5.25 28.35 5.25 28.35V28.623C7.5285 30.4815 10.1955 31.9515 13.1355 32.8965C13.4505 33.0015 13.8075 32.844 13.9545 32.55L15.6135 29.295C17.283 29.694 19.0995 29.925 21 29.925C22.9005 29.925 24.717 29.694 26.3865 29.295L28.0455 32.55C28.1925 32.844 28.5495 33.0015 28.8645 32.8965C31.8045 31.9515 34.4715 30.4815 36.75 28.623V28.35Z" fill="#B9B9FF"/>
<path d="M27.3004 25.2C29.0401 25.2 30.4504 23.7898 30.4504 22.05C30.4504 20.3103 29.0401 18.9 27.3004 18.9C25.5606 18.9 24.1504 20.3103 24.1504 22.05C24.1504 23.7898 25.5606 25.2 27.3004 25.2Z" fill="#221F1F"/>
<path d="M25.8506 30.534C25.8506 30.534 28.0766 29.9355 29.2211 29.379" stroke="#221F1F" stroke-width="2" stroke-linecap="round" stroke-linejoin="round"/>
<path d="M12.978 9.87C11.865 10.143 10.7835 10.458 9.7545 10.836C5.25 18.837 5.25 28.35 5.25 28.35V28.623C7.5285 30.4815 10.1955 31.9515 13.1355 32.8965C13.4505 33.0015 13.8075 32.844 13.9545 32.55L15.6135 29.295C17.283 29.694 19.0995 29.925 21 29.925C21.084 29.925 21.1575 29.925 21.2415 29.925C16.275 24.6645 13.1775 17.6295 12.978 9.8805V9.87Z" fill="#9891F5"/>
<path d="M14.6998 25.2C16.4395 25.2 17.8498 23.7898 17.8498 22.05C17.8498 20.3103 16.4395 18.9 14.6998 18.9C12.9601 18.9 11.5498 20.3103 11.5498 22.05C11.5498 23.7898 12.9601 25.2 14.6998 25.2Z" fill="#221F1F"/>
<path d="M16.1488 30.534C16.1488 30.534 13.9228 29.9355 12.7783 29.379" stroke="#221F1F" stroke-width="2" stroke-linecap="round" stroke-linejoin="round"/>
</svg>
