<svg width="42" height="42" viewBox="0 0 42 42" fill="none" xmlns="http://www.w3.org/2000/svg">
<path d="M40.9498 29.0536V12.9465C40.9498 6.37629 35.6236 1.05005 29.0533 1.05005H12.9463C6.37605 1.05005 1.0498 6.37629 1.0498 12.9465V29.0536C1.0498 35.6238 6.37605 40.9501 12.9463 40.9501H29.0533C35.6236 40.9501 40.9498 35.6238 40.9498 29.0536Z" fill="white"/>
<path d="M38.8504 29.0535V12.9465C38.8504 7.53606 34.4643 3.15002 29.0539 3.15002H12.9469C7.53643 3.15002 3.15039 7.53606 3.15039 12.9465V29.0535C3.15039 34.464 7.53643 38.85 12.9469 38.85H29.0539C34.4643 38.85 38.8504 34.464 38.8504 29.0535Z" fill="#221F1F"/>
<path d="M29.0535 5.25H12.9465C8.69584 5.25 5.25 8.69584 5.25 12.9465V29.0535C5.25 33.3041 8.69584 36.75 12.9465 36.75H29.0535C33.3041 36.75 36.75 33.3041 36.75 29.0535V12.9465C36.75 8.69584 33.3041 5.25 29.0535 5.25Z" fill="#8EBFE2"/>
<path d="M30.975 35.7001C17.346 35.7001 6.3 24.6541 6.3 11.0251C6.3 10.3111 6.342 9.61805 6.3945 8.91455C5.67 10.0906 5.25 11.4661 5.25 12.9361V29.0536C5.25 33.3061 8.694 36.7501 12.9465 36.7501H29.064C30.5445 36.7501 31.92 36.3301 33.0855 35.6056C32.3925 35.6686 31.689 35.7001 30.975 35.7001Z" fill="#4A9DD1"/>
<path d="M18.3752 38.85C17.2202 38.85 16.2752 37.905 16.2752 36.75V27.825H14.1752C13.0202 27.825 12.0752 26.88 12.0752 25.725V21.525C12.0752 20.37 13.0202 19.425 14.1752 19.425H16.2752V17.199C16.2752 12.642 19.9817 8.92505 24.5492 8.92505H28.3502C29.5052 8.92505 30.4502 9.87005 30.4502 11.025V16.275C30.4502 17.43 29.5052 18.375 28.3502 18.375H25.7252V19.425H27.8252C28.9802 19.425 29.9252 20.37 29.9252 21.525V25.725C29.9252 26.88 28.9802 27.825 27.8252 27.825H25.7252V36.75C25.7252 37.905 24.7802 38.85 23.6252 38.85H18.3752Z" fill="#221F1F"/>
<path d="M23.6248 17.199C23.6248 16.695 24.0343 16.275 24.5488 16.275H28.3498V11.025H24.5488C21.1468 11.025 18.3748 13.797 18.3748 17.199V21.525H14.1748V25.725H18.3748V36.75H23.6248V25.725H27.8248V21.525H23.6248V17.199Z" fill="#C4C4C4"/>
<path d="M18.3748 17.199V21.525H14.1748V25.725H18.3748V32.235C20.0128 33.2115 21.7663 33.999 23.6248 34.5765V25.7145H27.8248V21.5145H23.6248V17.1885C23.6248 16.6845 24.0343 16.2645 24.5488 16.2645H28.3498V11.0145H24.5488C21.1468 11.0145 18.3748 13.7865 18.3748 17.1885V17.199Z" fill="white"/>
</svg>
