<svg width="42" height="42" viewBox="0 0 42 42" fill="none" xmlns="http://www.w3.org/2000/svg">
<path d="M40.9498 28.3921V13.608C40.9498 6.67245 35.3274 1.05005 28.3918 1.05005H13.6078C6.67222 1.05005 1.0498 6.67245 1.0498 13.608V28.3921C1.0498 35.3276 6.67222 40.9501 13.6078 40.9501H28.3918C35.3274 40.9501 40.9498 35.3276 40.9498 28.3921Z" fill="white"/>
<path d="M38.8504 28.392V13.608C38.8504 7.83223 34.1682 3.15002 28.3924 3.15002H13.6084C7.83259 3.15002 3.15039 7.83223 3.15039 13.608V28.392C3.15039 34.1679 7.83259 38.85 13.6084 38.85H28.3924C34.1682 38.85 38.8504 34.1679 38.8504 28.392Z" fill="#221F1F"/>
<path d="M28.392 5.25H13.608C8.992 5.25 5.25 8.992 5.25 13.608V28.392C5.25 33.008 8.992 36.75 13.608 36.75H28.392C33.008 36.75 36.75 33.008 36.75 28.392V13.608C36.75 8.992 33.008 5.25 28.392 5.25Z" fill="#F08CBC"/>
<path d="M6.6465 8.98804C5.7645 10.311 5.25 11.8966 5.25 13.5976V28.3816C5.25 33.0016 8.988 36.7396 13.608 36.7396H26.103C15.603 30.6391 8.2425 20.6116 6.6465 8.98804Z" fill="#D572A3"/>
<path d="M20.9998 14.175C24.7588 14.175 27.8248 17.241 27.8248 21C27.8248 24.759 24.7588 27.825 20.9998 27.825C17.2408 27.825 14.1748 24.759 14.1748 21C14.1748 17.241 17.2408 14.175 20.9998 14.175ZM20.9998 11.55C15.7813 11.55 11.5498 15.7815 11.5498 21C11.5498 26.2185 15.7813 30.45 20.9998 30.45C26.2183 30.45 30.4498 26.2185 30.4498 21C30.4498 15.7815 26.2183 11.55 20.9998 11.55Z" fill="#221F1F"/>
<path d="M30.975 8.92505C29.82 8.92505 28.875 9.87005 28.875 11.025C28.875 12.18 29.82 13.125 30.975 13.125C32.13 13.125 33.075 12.18 33.075 11.025C33.075 9.87005 32.13 8.92505 30.975 8.92505Z" fill="#221F1F"/>
</svg>
