<svg width="42" height="42" viewBox="0 0 42 42" fill="none" xmlns="http://www.w3.org/2000/svg">
<path d="M20.9998 40.9501C9.99581 40.9501 1.0498 32.0041 1.0498 21C1.0498 9.99605 9.99581 1.05005 20.9998 1.05005C32.0038 1.05005 40.9498 9.99605 40.9498 21C40.9498 32.0041 32.0038 40.9501 20.9998 40.9501Z" fill="white"/>
<path d="M21.0004 38.85C11.1619 38.85 3.15039 30.8385 3.15039 21C3.15039 11.1615 11.1619 3.15002 21.0004 3.15002C30.8389 3.15002 38.8504 11.1615 38.8504 21C38.8504 30.8385 30.8389 38.85 21.0004 38.85Z" fill="#221F1F"/>
<path d="M21 36.75C29.6985 36.75 36.75 29.6985 36.75 21C36.75 12.3015 29.6985 5.25 21 5.25C12.3015 5.25 5.25 12.3015 5.25 21C5.25 29.6985 12.3015 36.75 21 36.75Z" fill="#221F1F"/>
<path d="M25.641 9.44995H21V24.5385H25.641V9.44995Z" fill="white"/>
<path d="M30.282 14.028C30.093 14.0595 29.904 14.091 29.7045 14.091C27.468 14.091 25.641 12.264 25.641 10.0275C25.641 9.82795 25.6725 9.63895 25.704 9.44995H21.0315C21.021 9.63895 21 9.83845 21 10.0275C21 14.8365 24.8955 18.732 29.7045 18.732C29.904 18.732 30.093 18.711 30.282 18.7005V14.028Z" fill="white"/>
<path d="M20.9998 17.976V24.5385C20.9998 25.8195 19.9603 26.859 18.6793 26.859C17.3983 26.859 16.3588 25.8195 16.3588 24.5385C16.3588 23.2575 17.3983 22.218 18.6793 22.218V17.577C14.8363 17.577 11.7178 20.6955 11.7178 24.5385C11.7178 28.3815 14.8363 31.5 18.6793 31.5C22.5223 31.5 25.6408 28.3815 25.6408 24.5385C25.6408 21.504 23.6983 18.942 20.9998 17.976Z" fill="white"/>
</svg>
