<svg width="42" height="42" viewBox="0 0 42 42" fill="none" xmlns="http://www.w3.org/2000/svg">
<path d="M7.82234 38.955C6.36704 38.955 5.01569 38.1045 4.40144 36.7815C3.77774 35.4585 3.98564 33.8804 4.92119 32.7558L28.5462 4.40584C29.2644 3.53644 30.3228 3.04504 31.4474 3.04504H35.2274C36.6827 3.04504 38.0339 3.89554 38.6482 5.21854C39.2719 6.54154 39.0641 8.11969 38.1285 9.24424L14.5035 37.5942C13.7853 38.4636 12.7269 38.955 11.6023 38.955H7.82234Z" fill="white"/>
<path d="M27.6674 38.955C26.4389 38.955 25.2765 38.3502 24.5678 37.3391L4.72276 8.98909C3.91006 7.83619 3.81556 6.33364 4.46761 5.07679C5.11966 3.81994 6.40486 3.04504 7.82236 3.04504H15.3824C16.6109 3.04504 17.7732 3.64984 18.482 4.66099L38.327 33.011C39.1397 34.1639 39.2341 35.6664 38.5821 36.9233C37.93 38.1801 36.6449 38.955 35.2274 38.955H27.6674Z" fill="white"/>
<path d="M7.82257 37.0651C7.08547 37.0651 6.42397 36.6398 6.11212 35.9783C5.80027 35.3168 5.90422 34.5325 6.36727 33.9655L29.9923 5.61546C30.3514 5.18076 30.8806 4.93506 31.4476 4.93506H35.2276C35.9647 4.93506 36.6262 5.36031 36.938 6.02181C37.2499 6.68331 37.1459 7.46766 36.6829 8.03466L13.0579 36.3847C12.6988 36.8194 12.1696 37.0651 11.6026 37.0651H7.82257Z" fill="#221F1F"/>
<path d="M27.6677 37.0651C27.0534 37.0651 26.477 36.7627 26.1179 36.2618L6.27286 7.91181C5.86651 7.33536 5.81926 6.57936 6.14056 5.95566C6.46186 5.33196 7.11391 4.93506 7.81321 4.93506H15.3732C15.9875 4.93506 16.5639 5.23746 16.923 5.73831L36.768 34.0883C37.1744 34.6648 37.2216 35.4208 36.9003 36.0445C36.579 36.6682 35.927 37.0651 35.2277 37.0651H27.6677Z" fill="#221F1F"/>
<path d="M11.6023 35.1751H7.82227L31.4473 6.82507H35.2273L11.6023 35.1751Z" fill="#9E9E9E"/>
<path d="M27.6673 35.1751H35.2273L15.3823 6.82507H7.82227L27.6673 35.1751Z" fill="#9E9E9E"/>
<path d="M28.6502 33.2851L11.4512 8.71509H14.3996L31.5986 33.2851H28.6502Z" fill="#221F1F"/>
</svg>
