<svg width="428" height="128" viewBox="0 0 428 128" fill="none" xmlns="http://www.w3.org/2000/svg">
<g clip-path="url(#clip0_5600_6198)">
<g filter="url(#filter0_d_5600_6198)">
<rect width="428" height="86" transform="translate(0 42)" fill="white"/>
<g clip-path="url(#clip1_5600_6198)">
<path d="M39.3999 64C39.3999 63.6765 39.3999 63.3529 39.4646 63.0294H36.6176C36.0999 63.0294 35.647 63.4824 35.647 64C35.647 64.5177 36.0999 64.9706 36.6176 64.9706H39.5293C39.4646 64.6471 39.3999 64.3235 39.3999 64ZM41.9234 58.8235C42.4411 58.4353 43.0234 58.1118 43.6058 57.8529L42.1176 55.3941C41.8587 54.9412 41.2764 54.7471 40.8234 55.0706C40.3705 55.3294 40.1764 55.9118 40.4999 56.3647L41.9234 58.8235ZM37.394 60.1177L39.9176 61.5412C40.1764 60.9588 40.4999 60.3765 40.8881 59.8588L38.3646 58.5C37.9117 58.1765 37.3293 58.3706 37.0058 58.8235C36.747 59.2765 36.9411 59.8588 37.394 60.1177ZM45.9999 53.6471C45.4823 53.6471 45.0293 54.1 45.0293 54.6177V57.4647C45.3529 57.4 45.6764 57.4 45.9999 57.4C46.3234 57.4 46.647 57.4647 46.9705 57.4647V54.6177C46.9705 54.1 46.5176 53.6471 45.9999 53.6471ZM51.4999 56.3647C51.7587 55.9118 51.6293 55.3294 51.1764 55.0706C50.7234 54.8118 50.1411 54.9412 49.8823 55.3941L48.4587 57.8529C49.0411 58.1118 49.6234 58.4353 50.1411 58.8235L51.4999 56.3647ZM52.0823 61.6059L54.6058 60.1824C55.0587 59.9235 55.2529 59.3412 54.9293 58.8882C54.6705 58.4353 54.0882 58.2412 53.6352 58.5647L51.1764 59.9235C51.5646 60.4412 51.8881 60.9588 52.0823 61.6059ZM45.0293 70.5353V73.3824C45.0293 73.9 45.4823 74.3529 45.9999 74.3529C46.5176 74.3529 46.9705 73.9 46.9705 73.3824V70.5353C46.647 70.6 46.3234 70.6 45.9999 70.6C45.6764 70.6 45.3529 70.5353 45.0293 70.5353ZM39.9176 66.3941L37.394 67.8824C36.9411 68.1412 36.747 68.7235 37.0705 69.1765C37.2646 69.5 37.5881 69.6941 37.9117 69.6941C38.1058 69.6941 38.2352 69.6294 38.3646 69.5647L40.8234 68.0765C40.4352 67.5588 40.1117 67.0412 39.9176 66.3941ZM55.3823 63.0294H52.4705C52.5352 63.3529 52.5352 63.6765 52.5352 64C52.5352 64.3235 52.5352 64.6471 52.4705 64.9706H55.3823C55.8999 64.9706 56.3529 64.5177 56.3529 64C56.3529 63.4824 55.8999 63.0294 55.3823 63.0294ZM54.6058 67.8824L52.0823 66.4588C51.8234 67.0412 51.4999 67.6235 51.1117 68.1412L53.6352 69.5647C53.7646 69.6294 53.9587 69.6941 54.0882 69.6941C54.4117 69.6941 54.7352 69.5 54.9293 69.1765C55.2529 68.7235 55.0587 68.1412 54.6058 67.8824ZM40.4999 71.6353C40.2411 72.0882 40.3705 72.6706 40.8234 72.9294C40.9529 72.9941 41.147 73.0588 41.2764 73.0588C41.5999 73.0588 41.9234 72.8647 42.1176 72.5412L43.5411 70.0824C42.9587 69.8235 42.3764 69.5 41.8587 69.1118L40.4999 71.6353ZM50.0764 69.1765C49.5587 69.5647 48.9764 69.8882 48.394 70.1471L49.8176 72.6059C50.0117 72.9294 50.3352 73.1235 50.6587 73.1235C50.8529 73.1235 50.9823 73.0588 51.1117 72.9941C51.5646 72.7353 51.7587 72.1529 51.4352 71.7L50.0764 69.1765Z" fill="black"/>
<path d="M45.9998 71.5706C41.8586 71.5706 38.4292 68.2059 38.4292 64C38.4292 59.7941 41.8586 56.4294 45.9998 56.4294C50.141 56.4294 53.5704 59.8588 53.5704 64C53.5704 68.1412 50.141 71.5706 45.9998 71.5706ZM45.9998 58.3706C42.8939 58.3706 40.3704 60.8941 40.3704 64C40.3704 67.1059 42.8939 69.6294 45.9998 69.6294C49.1057 69.6294 51.6292 67.1059 51.6292 64C51.6292 60.8941 49.1057 58.3706 45.9998 58.3706Z" fill="black"/>
</g>
<path d="M36.794 83.584H33.95V91H32.774V83.584H29.93V82.492H36.794V83.584ZM39.2188 90.172C40.1788 90.172 41.0188 89.452 41.0188 88.108C41.0188 86.776 40.1788 86.056 39.2188 86.056C38.2588 86.056 37.4188 86.776 37.4188 88.108C37.4188 89.452 38.2588 90.172 39.2188 90.172ZM39.2188 85.048C40.9468 85.048 42.1708 86.356 42.1708 88.108C42.1708 89.872 40.9468 91.18 39.2188 91.18C37.4908 91.18 36.2668 89.872 36.2668 88.108C36.2668 86.356 37.4908 85.048 39.2188 85.048ZM44.298 88.096C44.298 89.284 44.91 90.16 45.99 90.16C47.022 90.16 47.658 89.26 47.658 88.072C47.658 86.884 47.034 86.068 46.002 86.068C44.97 86.068 44.298 86.908 44.298 88.096ZM47.67 90.22V90.124C47.394 90.676 46.782 91.156 45.882 91.156C44.19 91.156 43.146 89.812 43.146 88.096C43.146 86.464 44.25 85.072 45.882 85.072C46.902 85.072 47.454 85.576 47.646 86.044V82.312H48.762V89.932C48.762 90.484 48.81 90.904 48.822 91H47.73C47.706 90.868 47.67 90.568 47.67 90.22ZM50.3327 89.452C50.3327 88.42 51.0887 87.844 52.0847 87.7L53.6447 87.472C53.9927 87.424 54.0887 87.244 54.0887 87.04C54.0887 86.476 53.7167 86.008 52.8407 86.008C52.0487 86.008 51.6047 86.5 51.5327 87.172L50.4527 86.92C50.5727 85.816 51.5687 85.048 52.8167 85.048C54.5447 85.048 55.2167 86.032 55.2167 87.16V90.052C55.2167 90.556 55.2647 90.856 55.2887 91H54.1847C54.1607 90.856 54.1247 90.64 54.1247 90.22C53.8727 90.628 53.2967 91.18 52.2647 91.18C51.0887 91.18 50.3327 90.364 50.3327 89.452ZM52.4207 90.232C53.3447 90.232 54.0887 89.788 54.0887 88.528V88.264L52.3247 88.528C51.8447 88.6 51.4847 88.876 51.4847 89.392C51.4847 89.824 51.8447 90.232 52.4207 90.232ZM58.3088 93.412H57.0728L58.5128 90.364L56.0288 85.228H57.3248L59.1248 89.212L60.8528 85.228H62.0648L58.3088 93.412Z" fill="black"/>
<g clip-path="url(#clip2_5600_6198)">
<path fill-rule="evenodd" clip-rule="evenodd" d="M129.071 64.7765L125.253 69.6294C125.059 69.8236 124.735 69.6942 124.735 69.4353L124.929 63.2883L128.747 58.4353C128.941 58.1765 129.265 58.3059 129.265 58.5647L129.071 64.7765Z" fill="#C0C0BF"/>
<path d="M127 53.6475C132.718 53.6475 137.353 58.2822 137.353 64C137.353 69.7178 132.718 74.3525 127 74.3525C121.282 74.3525 116.647 69.7178 116.647 64C116.647 58.2822 121.282 53.6475 127 53.6475ZM127 55.5879C122.354 55.5879 118.588 59.3543 118.588 64C118.588 68.6457 122.354 72.4121 127 72.4121C131.646 72.4121 135.412 68.6457 135.412 64C135.412 59.3543 131.646 55.5879 127 55.5879Z" fill="#C0C0BF"/>
</g>
<path d="M112.843 91H107.671V82.492H112.843V83.584H108.847V86.2H112.471V87.304H108.847V89.908H112.843V91ZM113.696 91L115.844 88.06L113.768 85.228H115.136L116.552 87.256L117.944 85.228H119.276L117.224 88.06C117.572 88.528 119 90.532 119.348 91H117.992L116.504 88.876L115.04 91H113.696ZM121.558 93.28H120.442V85.228H121.534V86.128C121.846 85.552 122.53 85.096 123.466 85.096C125.194 85.096 126.118 86.428 126.118 88.108C126.118 89.824 125.122 91.156 123.43 91.156C122.542 91.156 121.87 90.736 121.558 90.22V93.28ZM124.966 88.108C124.966 86.956 124.318 86.092 123.262 86.092C122.23 86.092 121.546 86.956 121.546 88.108C121.546 89.296 122.23 90.148 123.262 90.148C124.306 90.148 124.966 89.296 124.966 88.108ZM128.695 91H127.567V82.312H128.695V91ZM133.098 90.172C134.058 90.172 134.898 89.452 134.898 88.108C134.898 86.776 134.058 86.056 133.098 86.056C132.138 86.056 131.298 86.776 131.298 88.108C131.298 89.452 132.138 90.172 133.098 90.172ZM133.098 85.048C134.826 85.048 136.05 86.356 136.05 88.108C136.05 89.872 134.826 91.18 133.098 91.18C131.37 91.18 130.146 89.872 130.146 88.108C130.146 86.356 131.37 85.048 133.098 85.048ZM140.709 85.168V86.368C140.541 86.344 140.373 86.332 140.217 86.332C139.269 86.332 138.633 86.836 138.633 88.108V91H137.505V85.228H138.609V86.236C139.029 85.348 139.749 85.132 140.337 85.132C140.493 85.132 140.649 85.156 140.709 85.168ZM142.597 87.52H145.753C145.729 86.692 145.189 86.044 144.169 86.044C143.221 86.044 142.645 86.776 142.597 87.52ZM145.921 89.02L146.893 89.356C146.569 90.376 145.645 91.18 144.301 91.18C142.753 91.18 141.397 90.052 141.397 88.096C141.397 86.284 142.705 85.048 144.157 85.048C145.933 85.048 146.929 86.272 146.929 88.072C146.929 88.216 146.917 88.36 146.905 88.432H142.561C142.585 89.464 143.329 90.184 144.301 90.184C145.237 90.184 145.705 89.668 145.921 89.02Z" fill="#C0C0BF"/>
<path d="M186 62C186 48.7452 196.745 38 210 38H218C231.255 38 242 48.7452 242 62V70C242 83.2548 231.255 94 218 94H210C196.745 94 186 83.2548 186 70V62Z" fill="black"/>
<rect x="202.706" y="64.1176" width="22.5882" height="3.76471" rx="1.88235" fill="#FAFAFA"/>
<rect x="215.882" y="54.7059" width="22.5882" height="3.76471" rx="1.88235" transform="rotate(90 215.882 54.7059)" fill="#FAFAFA"/>
<path d="M303.588 73.0588H298.412L298.088 70.4706H303.912L303.588 73.0588Z" fill="#C0C0BF"/>
<path d="M302.035 74.3529H299.965C298.023 74.3529 296.47 72.8 296.47 70.8588V68.2706C294.335 66.7823 292.976 64.3235 292.976 61.6706C292.976 59.4706 293.882 57.4 295.435 55.9118C297.053 54.3588 299.123 53.5823 301.323 53.7118C305.335 53.8412 308.57 56.9471 308.959 60.9588C309.217 63.9353 307.923 66.7176 305.529 68.3353V70.9235C305.529 72.8 303.976 74.3529 302.035 74.3529ZM301 55.5882C299.447 55.5882 297.959 56.1706 296.794 57.2706C295.565 58.4353 294.917 59.9882 294.917 61.6706C294.917 63.8059 296.082 65.8118 297.894 66.9118C298.217 67.1059 298.347 67.4294 298.347 67.7529V70.9235C298.347 71.7647 299.059 72.4765 299.9 72.4765H301.97C302.812 72.4765 303.523 71.7647 303.523 70.9235V67.7529C303.523 67.4294 303.717 67.1059 303.976 66.9118C306.047 65.6823 307.147 63.4823 306.953 61.0882C306.759 58.1118 304.235 55.7176 301.259 55.5882C301.194 55.5882 301.065 55.5882 301 55.5882Z" fill="#C0C0BF"/>
<path d="M282.244 91H281.044V82.492H282.244V91ZM285.427 87.664V91H284.299V85.228H285.403V86.056C285.823 85.336 286.507 85.06 287.179 85.06C288.559 85.06 289.243 86.056 289.243 87.34V91H288.115V87.532C288.115 86.728 287.779 86.08 286.771 86.08C285.883 86.08 285.427 86.788 285.427 87.664ZM290.509 89.5L291.529 89.14C291.601 89.74 292.057 90.22 292.873 90.22C293.509 90.22 293.857 89.86 293.857 89.452C293.857 89.092 293.593 88.816 293.113 88.708L292.129 88.492C291.229 88.3 290.689 87.688 290.689 86.872C290.689 85.888 291.613 85.048 292.741 85.048C294.325 85.048 294.817 86.08 294.937 86.596L293.941 86.968C293.893 86.668 293.653 86.008 292.741 86.008C292.165 86.008 291.781 86.38 291.781 86.776C291.781 87.124 291.997 87.376 292.441 87.472L293.377 87.676C294.421 87.904 294.973 88.54 294.973 89.392C294.973 90.208 294.289 91.18 292.861 91.18C291.277 91.18 290.605 90.16 290.509 89.5ZM297.603 91H296.487V85.228H297.603V91ZM296.235 83.044C296.235 82.588 296.595 82.228 297.039 82.228C297.495 82.228 297.855 82.588 297.855 83.044C297.855 83.488 297.495 83.848 297.039 83.848C296.595 83.848 296.235 83.488 296.235 83.044ZM299.114 91.312L300.206 91.06C300.29 91.864 300.902 92.476 301.778 92.476C302.99 92.476 303.542 91.852 303.542 90.604V89.776C303.266 90.304 302.642 90.724 301.778 90.724C300.242 90.724 299.126 89.56 299.126 87.928C299.126 86.368 300.194 85.12 301.778 85.12C302.666 85.12 303.266 85.456 303.554 86.032V85.228H304.67V90.568C304.67 92.032 303.95 93.46 301.778 93.46C300.338 93.46 299.258 92.548 299.114 91.312ZM301.946 89.776C302.918 89.776 303.59 89.044 303.59 87.928C303.59 86.812 302.918 86.08 301.946 86.08C300.95 86.08 300.278 86.812 300.278 87.928C300.278 89.056 300.926 89.776 301.946 89.776ZM307.612 87.604V91H306.484V82.312H307.612V85.9C308.032 85.288 308.704 85.06 309.364 85.06C310.744 85.06 311.428 86.056 311.428 87.34V91H310.3V87.532C310.3 86.728 309.964 86.08 308.956 86.08C308.092 86.08 307.636 86.752 307.612 87.604ZM314.746 83.404V85.228H315.994V86.248H314.746V89.248C314.746 89.776 314.962 90.04 315.55 90.04C315.694 90.04 315.898 90.016 315.994 89.992V90.952C315.898 90.988 315.61 91.06 315.226 91.06C314.242 91.06 313.618 90.46 313.618 89.416V86.248H312.514V85.228H312.826C313.45 85.228 313.714 84.844 313.714 84.34V83.404H314.746ZM317.03 89.5L318.05 89.14C318.122 89.74 318.578 90.22 319.394 90.22C320.03 90.22 320.378 89.86 320.378 89.452C320.378 89.092 320.114 88.816 319.634 88.708L318.65 88.492C317.75 88.3 317.21 87.688 317.21 86.872C317.21 85.888 318.134 85.048 319.262 85.048C320.846 85.048 321.338 86.08 321.458 86.596L320.462 86.968C320.414 86.668 320.174 86.008 319.262 86.008C318.686 86.008 318.302 86.38 318.302 86.776C318.302 87.124 318.518 87.376 318.962 87.472L319.898 87.676C320.942 87.904 321.494 88.54 321.494 89.392C321.494 90.208 320.81 91.18 319.382 91.18C317.798 91.18 317.126 90.16 317.03 89.5Z" fill="#C0C0BF"/>
<rect x="306" y="49" width="18" height="18" rx="9" fill="black"/>
<path d="M316.509 62H314.865V56.792H312.993V55.676C314.133 55.664 314.925 55.028 315.081 54.212H316.509V62Z" fill="#FAFAFA"/>
<g clip-path="url(#clip3_5600_6198)">
<path d="M378.494 55.042C379.869 55.0421 381.175 55.7297 382 56.7607C382.825 55.7297 384.131 55.0421 385.506 55.042H391.969C392.519 55.042 393 55.5234 393 56.0732V71.1982C393 71.7482 392.519 72.2295 391.969 72.2295H384.818C384.062 72.2296 383.375 72.5737 382.894 73.1924H382.893C382.675 73.4435 382.347 73.6045 382 73.6045C381.633 73.6044 381.307 73.4493 381.107 73.1924H381.106C380.625 72.5737 379.938 72.2296 379.182 72.2295H372.031C371.481 72.2295 371 71.7482 371 71.1982V56.0732C371 55.5234 371.481 55.042 372.031 55.042H378.494ZM373.062 57.0361V70.0986H379.182C379.8 70.0987 380.419 70.2358 380.969 70.5107V59.6484C380.969 58.2049 379.869 57.0364 378.494 57.0361H373.062ZM385.506 57.0361C384.131 57.0364 383.031 58.2049 383.031 59.6484V70.5107C383.581 70.2358 384.2 70.0987 384.818 70.0986H390.938V57.0361H385.506Z" fill="#C0C0BF"/>
</g>
<path d="M370.111 91H368.935V87.22H364.591V91H363.415V82.492H364.591V86.128H368.935V82.492H370.111V91ZM373.282 91H372.166V85.228H373.282V91ZM371.914 83.044C371.914 82.588 372.274 82.228 372.718 82.228C373.174 82.228 373.534 82.588 373.534 83.044C373.534 83.488 373.174 83.848 372.718 83.848C372.274 83.848 371.914 83.488 371.914 83.044ZM374.674 89.5L375.694 89.14C375.766 89.74 376.222 90.22 377.038 90.22C377.674 90.22 378.022 89.86 378.022 89.452C378.022 89.092 377.758 88.816 377.278 88.708L376.294 88.492C375.394 88.3 374.854 87.688 374.854 86.872C374.854 85.888 375.778 85.048 376.906 85.048C378.49 85.048 378.982 86.08 379.102 86.596L378.106 86.968C378.058 86.668 377.818 86.008 376.906 86.008C376.33 86.008 375.946 86.38 375.946 86.776C375.946 87.124 376.162 87.376 376.606 87.472L377.542 87.676C378.586 87.904 379.138 88.54 379.138 89.392C379.138 90.208 378.454 91.18 377.026 91.18C375.442 91.18 374.77 90.16 374.674 89.5ZM382.163 83.404V85.228H383.411V86.248H382.163V89.248C382.163 89.776 382.379 90.04 382.967 90.04C383.111 90.04 383.315 90.016 383.411 89.992V90.952C383.315 90.988 383.027 91.06 382.643 91.06C381.659 91.06 381.035 90.46 381.035 89.416V86.248H379.931V85.228H380.243C380.867 85.228 381.131 84.844 381.131 84.34V83.404H382.163ZM387.342 90.172C388.302 90.172 389.142 89.452 389.142 88.108C389.142 86.776 388.302 86.056 387.342 86.056C386.382 86.056 385.542 86.776 385.542 88.108C385.542 89.452 386.382 90.172 387.342 90.172ZM387.342 85.048C389.07 85.048 390.294 86.356 390.294 88.108C390.294 89.872 389.07 91.18 387.342 91.18C385.614 91.18 384.39 89.872 384.39 88.108C384.39 86.356 385.614 85.048 387.342 85.048ZM394.954 85.168V86.368C394.786 86.344 394.618 86.332 394.462 86.332C393.514 86.332 392.878 86.836 392.878 88.108V91H391.75V85.228H392.854V86.236C393.274 85.348 393.994 85.132 394.582 85.132C394.738 85.132 394.894 85.156 394.954 85.168ZM397.784 93.412H396.548L397.988 90.364L395.504 85.228H396.8L398.6 89.212L400.328 85.228H401.54L397.784 93.412Z" fill="#C0C0BF"/>
</g>
</g>
<defs>
<filter id="filter0_d_5600_6198" x="-32" y="-2" width="492" height="154" filterUnits="userSpaceOnUse" color-interpolation-filters="sRGB">
<feFlood flood-opacity="0" result="BackgroundImageFix"/>
<feColorMatrix in="SourceAlpha" type="matrix" values="0 0 0 0 0 0 0 0 0 0 0 0 0 0 0 0 0 0 127 0" result="hardAlpha"/>
<feOffset dy="-8"/>
<feGaussianBlur stdDeviation="16"/>
<feComposite in2="hardAlpha" operator="out"/>
<feColorMatrix type="matrix" values="0 0 0 0 0 0 0 0 0 0 0 0 0 0 0 0 0 0 0.08 0"/>
<feBlend mode="normal" in2="BackgroundImageFix" result="effect1_dropShadow_5600_6198"/>
<feBlend mode="normal" in="SourceGraphic" in2="effect1_dropShadow_5600_6198" result="shape"/>
</filter>
<clipPath id="clip0_5600_6198">
<rect width="428" height="128" fill="white"/>
</clipPath>
<clipPath id="clip1_5600_6198">
<rect width="22" height="22" fill="white" transform="translate(35 53)"/>
</clipPath>
<clipPath id="clip2_5600_6198">
<rect width="22" height="22" fill="white" transform="translate(116 53)"/>
</clipPath>
<clipPath id="clip3_5600_6198">
<rect width="22" height="22" fill="white" transform="translate(371 53)"/>
</clipPath>
</defs>
</svg>
