<svg width="42" height="42" viewBox="0 0 42 42" fill="none" xmlns="http://www.w3.org/2000/svg">
<path d="M9.45039 40.9501C5.97489 40.9501 3.15039 38.1256 3.15039 34.6501V7.35005C3.15039 3.87455 5.97489 1.05005 9.45039 1.05005H35.7004C37.4329 1.05005 38.8504 2.46755 38.8504 4.20005V37.8001C38.8504 39.5326 37.4329 40.9501 35.7004 40.9501H9.45039Z" fill="white"/>
<path fill-rule="evenodd" clip-rule="evenodd" d="M35.6998 4.2H9.4498C7.7173 4.2 6.2998 5.6175 6.2998 7.35V34.65H35.6998V4.2Z" fill="#9992F6"/>
<path d="M13.6498 4.2H11.5498V31.5H13.6498V4.2Z" fill="#7A72EB"/>
<path d="M35.7 35.7H6.3C5.7225 35.7 5.25 35.2275 5.25 34.65V7.35C5.25 5.0295 7.1295 3.15 9.45 3.15H35.7C36.2775 3.15 36.75 3.6225 36.75 4.2V34.65C36.75 35.2275 36.2775 35.7 35.7 35.7ZM7.35 33.6H34.65V5.25H9.45C8.295 5.25 7.35 6.195 7.35 7.35V33.6Z" fill="#221F1F"/>
<path fill-rule="evenodd" clip-rule="evenodd" d="M35.6998 31.5H9.4498C7.7173 31.5 6.2998 32.9175 6.2998 34.65C6.2998 36.3825 7.7173 37.8 9.4498 37.8H35.6998V31.5Z" fill="white"/>
<path d="M35.7 38.85H9.45C7.1295 38.85 5.25 36.9705 5.25 34.65C5.25 32.3295 7.1295 30.45 9.45 30.45H35.7C36.2775 30.45 36.75 30.9225 36.75 31.5V37.8C36.75 38.3775 36.2775 38.85 35.7 38.85ZM9.45 32.55C8.295 32.55 7.35 33.495 7.35 34.65C7.35 35.805 8.295 36.75 9.45 36.75H34.65V32.55H9.45Z" fill="#221F1F"/>
</svg>
