<svg width="42" height="42" viewBox="0 0 42 42" fill="none" xmlns="http://www.w3.org/2000/svg">
<path d="M21 40C31.4934 40 40 31.4934 40 21C40 10.5066 31.4934 2 21 2C10.5066 2 2 10.5066 2 21C2 31.4934 10.5066 40 21 40Z" fill="white"/>
<path d="M21 37C29.8366 37 37 29.8366 37 21C37 12.1634 29.8366 5 21 5C12.1634 5 5 12.1634 5 21C5 29.8366 12.1634 37 21 37Z" fill="#EDD286"/>
<path d="M21 38C11.6 38 4 30.4 4 21C4 11.6 11.6 4 21 4C30.4 4 38 11.6 38 21C38 30.4 30.4 38 21 38ZM21 6C12.7 6 6 12.7 6 21C6 29.3 12.7 36 21 36C29.3 36 36 29.3 36 21C36 12.7 29.3 6 21 6Z" fill="#221F1F"/>
<path d="M21 36C29.2843 36 36 29.2843 36 21C36 12.7157 29.2843 6 21 6C12.7157 6 6 12.7157 6 21C6 29.2843 12.7157 36 21 36Z" fill="#EDD286"/>
<path fill-rule="evenodd" clip-rule="evenodd" d="M36 21C36 12.7 29.3 6 21 6V36C29.3 36 36 29.3 36 21Z" fill="#D88C7D"/>
<path fill-rule="evenodd" clip-rule="evenodd" d="M6 21C6 29.3 12.7 36 21 36C29.3 36 36 29.3 36 21V20.9H6V21Z" fill="#9891F5"/>
<path fill-rule="evenodd" clip-rule="evenodd" d="M21 36C29.3 36 36 29.3 36 21V20.9H21V36Z" fill="#9CDB9C"/>
<path d="M36.5 22H5.5C4.9 22 4.5 21.6 4.5 21C4.5 20.4 4.9 20 5.5 20H36.5C37.1 20 37.5 20.4 37.5 21C37.5 21.6 37.1 22 36.5 22Z" fill="#221F1F"/>
<path d="M21 37.5C20.4 37.5 20 37.1 20 36.5V5.5C20 4.9 20.4 4.5 21 4.5C21.6 4.5 22 4.9 22 5.5V36.5C22 37.1 21.6 37.5 21 37.5Z" fill="#221F1F"/>
</svg>
