<svg width="42" height="42" viewBox="0 0 42 42" fill="none" xmlns="http://www.w3.org/2000/svg">
<path d="M33.9004 21C37.0004 19.4 39.1004 16.2 39.1004 12.5C39.1004 7.19999 34.8004 2.89999 29.5004 2.89999C25.8004 2.89999 22.6004 4.99999 21.0004 7.99999C19.4004 4.89999 16.2004 2.79999 12.5004 2.79999C7.20039 2.79999 2.90039 7.09999 2.90039 12.4C2.90039 16.1 5.00039 19.3 8.10039 20.9C5.00039 22.5 2.90039 25.7 2.90039 29.4C2.90039 34.7 7.20039 39 12.5004 39C16.2004 39 19.4004 36.9 21.0004 33.8C22.6004 36.9 25.8004 39 29.5004 39C34.8004 39 39.1004 34.7 39.1004 29.4C39.1004 25.8 37.0004 22.6 33.9004 21Z" fill="white"/>
<path d="M12.5004 19.1C16.1455 19.1 19.1004 16.1451 19.1004 12.5C19.1004 8.85491 16.1455 5.89999 12.5004 5.89999C8.85531 5.89999 5.90039 8.85491 5.90039 12.5C5.90039 16.1451 8.85531 19.1 12.5004 19.1Z" fill="#FCD26E"/>
<path d="M12.5004 20.1C8.30039 20.1 4.90039 16.7 4.90039 12.5C4.90039 8.29999 8.30039 4.89999 12.5004 4.89999C16.7004 4.89999 20.1004 8.29999 20.1004 12.5C20.1004 16.7 16.7004 20.1 12.5004 20.1ZM12.5004 6.89999C9.40039 6.89999 6.90039 9.39999 6.90039 12.5C6.90039 15.6 9.40039 18.1 12.5004 18.1C15.6004 18.1 18.1004 15.6 18.1004 12.5C18.1004 9.39999 15.6004 6.89999 12.5004 6.89999Z" fill="#221F1F"/>
<path d="M29.5004 19.1C33.1455 19.1 36.1004 16.1451 36.1004 12.5C36.1004 8.85491 33.1455 5.89999 29.5004 5.89999C25.8553 5.89999 22.9004 8.85491 22.9004 12.5C22.9004 16.1451 25.8553 19.1 29.5004 19.1Z" fill="#9891F5"/>
<path d="M29.5004 20.1C25.3004 20.1 21.9004 16.7 21.9004 12.5C21.9004 8.29999 25.3004 4.89999 29.5004 4.89999C33.7004 4.89999 37.1004 8.29999 37.1004 12.5C37.1004 16.7 33.7004 20.1 29.5004 20.1ZM29.5004 6.89999C26.4004 6.89999 23.9004 9.39999 23.9004 12.5C23.9004 15.6 26.4004 18.1 29.5004 18.1C32.6004 18.1 35.1004 15.6 35.1004 12.5C35.1004 9.39999 32.6004 6.89999 29.5004 6.89999Z" fill="#221F1F"/>
<path d="M12.5004 36.1C16.1455 36.1 19.1004 33.1451 19.1004 29.5C19.1004 25.8549 16.1455 22.9 12.5004 22.9C8.85531 22.9 5.90039 25.8549 5.90039 29.5C5.90039 33.1451 8.85531 36.1 12.5004 36.1Z" fill="#F0AA97"/>
<path d="M12.5004 37.1C8.30039 37.1 4.90039 33.7 4.90039 29.5C4.90039 25.3 8.30039 21.9 12.5004 21.9C16.7004 21.9 20.1004 25.3 20.1004 29.5C20.1004 33.7 16.7004 37.1 12.5004 37.1ZM12.5004 23.9C9.40039 23.9 6.90039 26.4 6.90039 29.5C6.90039 32.6 9.40039 35.1 12.5004 35.1C15.6004 35.1 18.1004 32.6 18.1004 29.5C18.1004 26.4 15.6004 23.9 12.5004 23.9Z" fill="#221F1F"/>
<path d="M29.5004 36.1C33.1455 36.1 36.1004 33.1451 36.1004 29.5C36.1004 25.8549 33.1455 22.9 29.5004 22.9C25.8553 22.9 22.9004 25.8549 22.9004 29.5C22.9004 33.1451 25.8553 36.1 29.5004 36.1Z" fill="#9CDB9C"/>
<path d="M29.5004 37.1C25.3004 37.1 21.9004 33.7 21.9004 29.5C21.9004 25.3 25.3004 21.9 29.5004 21.9C33.7004 21.9 37.1004 25.3 37.1004 29.5C37.1004 33.7 33.7004 37.1 29.5004 37.1ZM29.5004 23.9C26.4004 23.9 23.9004 26.4 23.9004 29.5C23.9004 32.6 26.4004 35.1 29.5004 35.1C32.6004 35.1 35.1004 32.6 35.1004 29.5C35.1004 26.4 32.6004 23.9 29.5004 23.9Z" fill="#221F1F"/>
</svg>
