<svg width="42" height="42" viewBox="0 0 42 42" fill="none" xmlns="http://www.w3.org/2000/svg">
<path d="M7.7002 40C5.5002 40 3.5002 38.7 2.6002 36.6C2.3002 35.9 2.2002 35.2 2.2002 34.5V8.8C2.2002 5.1 5.2002 2 9.0002 2H30.2002C31.9002 2 33.2002 3.3 33.2002 5V8.3C33.5002 8.3 33.8002 8.2 34.1002 8.2C34.8002 8.2 35.6002 8.3 36.3002 8.6C38.4002 9.4 39.8002 11.4 39.9002 13.6C40.0002 15.6 39.1002 17.5 37.5002 18.7L33.2002 21.8V37C33.2002 38.7 31.9002 40 30.2002 40H7.7002Z" fill="white"/>
<path fill-rule="evenodd" clip-rule="evenodd" d="M7.7002 37H30.2002V5H9.0002C6.9002 5 5.2002 6.7 5.2002 8.8V34.5C5.2002 35.9 6.3002 37 7.7002 37Z" fill="#B9B9FF"/>
<path d="M30.2002 38H7.7002C5.8002 38 4.2002 36.4 4.2002 34.5V8.8C4.2002 6.2 6.3002 4 9.0002 4H30.2002C30.8002 4 31.2002 4.4 31.2002 5V37C31.2002 37.6 30.7002 38 30.2002 38ZM9.0002 6C7.4002 6 6.2002 7.3 6.2002 8.8V34.5C6.2002 35.3 6.9002 36 7.7002 36H29.2002V6H9.0002Z" fill="#221F1F"/>
<path fill-rule="evenodd" clip-rule="evenodd" d="M10.2002 5H9.0002C6.9002 5 5.2002 6.7 5.2002 8.8V34.5C5.2002 35.9 6.3002 37 7.7002 37H10.2002V5Z" fill="#9891F5"/>
<path d="M10.2002 38H7.7002C5.8002 38 4.2002 36.4 4.2002 34.5V8.8C4.2002 6.2 6.3002 4 9.0002 4H10.2002C10.8002 4 11.2002 4.4 11.2002 5V37C11.2002 37.6 10.7002 38 10.2002 38ZM9.0002 6C7.4002 6 6.2002 7.3 6.2002 8.8V34.5C6.2002 35.3 6.9002 36 7.7002 36H9.2002V6H9.0002Z" fill="#221F1F"/>
<path fill-rule="evenodd" clip-rule="evenodd" d="M30.2002 32H7.7002C6.3002 32 5.2002 33.1 5.2002 34.5C5.2002 35.9 6.3002 37 7.7002 37H30.2002V32Z" fill="white"/>
<path d="M30.2002 38H7.7002C5.8002 38 4.2002 36.4 4.2002 34.5C4.2002 32.6 5.7002 31 7.7002 31H30.2002C30.8002 31 31.2002 31.4 31.2002 32V37C31.2002 37.6 30.7002 38 30.2002 38ZM7.7002 33C6.9002 33 6.2002 33.7 6.2002 34.5C6.2002 35.3 6.8002 36 7.7002 36H29.2002V33H7.7002Z" fill="#221F1F"/>
<path fill-rule="evenodd" clip-rule="evenodd" d="M36.8 13.8C36.7 12.8 36.1 11.8 35.1 11.4C34.1 11 33.1 11.2 32.4 11.7L20.3 20.5C20 20.8 19.7 21.1 19.5 21.5L18 25.5L22.3 25.4C22.7 25.4 23.1 25.2 23.5 25L35.6 16.2C36.4 15.8 36.9 14.9 36.8 13.8Z" fill="#F0AA97"/>
<path d="M18.1005 26.6C17.8005 26.6 17.5005 26.4 17.3005 26.2C17.1005 25.9 17.1005 25.6 17.2005 25.3L18.7005 21.3C18.9005 20.7 19.3005 20.2 19.8005 19.8L31.8005 11C32.9005 10.2 34.2005 10.1 35.4005 10.6C36.7005 11.1 37.7004 12.4 37.8004 13.8C37.9004 15.1 37.3005 16.4 36.2005 17.1L24.1005 25.9C23.6005 26.3 23.0005 26.5 22.4005 26.5L18.1005 26.6C18.2005 26.6 18.2005 26.6 18.1005 26.6ZM34.1004 12.3C33.7004 12.3 33.4004 12.4 33.1004 12.6L21.0005 21.4C20.8005 21.5 20.7005 21.7 20.6005 21.9L19.6005 24.6L22.4005 24.5C22.6005 24.5 22.9005 24.4 23.0005 24.3L35.1004 15.5C35.6004 15.1 35.9004 14.6 35.8004 13.9C35.8004 13.2 35.3005 12.6 34.7005 12.4C34.5005 12.3 34.3004 12.3 34.1004 12.3Z" fill="#221F1F"/>
</svg>
