<svg width="42" height="42" viewBox="0 0 42 42" fill="none" xmlns="http://www.w3.org/2000/svg">
<path d="M11.7002 40C9.5002 40 7.5002 38.7 6.6002 36.6C6.3002 35.9 6.2002 35.2 6.2002 34.5V8.8C6.2002 5.1 9.2002 2 13.0002 2H34.2002C35.9002 2 37.2002 3.3 37.2002 5C37.2002 15.7772 37.2002 23.7227 37.2002 37C37.2002 38.7 35.9002 40 34.2002 40H11.7002Z" fill="white"/>
<path fill-rule="evenodd" clip-rule="evenodd" d="M11.7002 37H34.2002V5H13.0002C10.9002 5 9.2002 6.7 9.2002 8.8V34.5C9.2002 35.9 10.3002 37 11.7002 37Z" fill="#B9B9FF"/>
<path d="M34.2002 38H11.7002C9.8002 38 8.2002 36.4 8.2002 34.5V8.8C8.2002 6.2 10.3002 4 13.0002 4H34.2002C34.8002 4 35.2002 4.4 35.2002 5V37C35.2002 37.6 34.7002 38 34.2002 38ZM13.0002 6C11.4002 6 10.2002 7.3 10.2002 8.8V34.5C10.2002 35.3 10.9002 36 11.7002 36H33.2002V6H13.0002Z" fill="#221F1F"/>
<path fill-rule="evenodd" clip-rule="evenodd" d="M14.2002 5H13.0002C10.9002 5 9.2002 6.7 9.2002 8.8V34.5C9.2002 35.9 10.3002 37 11.7002 37H14.2002V5Z" fill="#9891F5"/>
<path d="M14.2002 38H11.7002C9.8002 38 8.2002 36.4 8.2002 34.5V8.8C8.2002 6.2 10.3002 4 13.0002 4H14.2002C14.8002 4 15.2002 4.4 15.2002 5V37C15.2002 37.6 14.7002 38 14.2002 38ZM13.0002 6C11.4002 6 10.2002 7.3 10.2002 8.8V34.5C10.2002 35.3 10.9002 36 11.7002 36H13.2002V6H13.0002Z" fill="#221F1F"/>
<path fill-rule="evenodd" clip-rule="evenodd" d="M34.2002 32H11.7002C10.3002 32 9.2002 33.1 9.2002 34.5C9.2002 35.9 10.3002 37 11.7002 37H34.2002V32Z" fill="white"/>
<path d="M34.2002 38H11.7002C9.8002 38 8.2002 36.4 8.2002 34.5C8.2002 32.6 9.7002 31 11.7002 31H34.2002C34.8002 31 35.2002 31.4 35.2002 32V37C35.2002 37.6 34.7002 38 34.2002 38ZM11.7002 33C10.9002 33 10.2002 33.7 10.2002 34.5C10.2002 35.3 10.8002 36 11.7002 36H33.2002V33H11.7002Z" fill="#221F1F"/>
</svg>
