<svg width="42" height="42" viewBox="0 0 42 42" fill="none" xmlns="http://www.w3.org/2000/svg">
<path d="M38.2001 28C38.0001 26.5 37.2001 25.2 36.0001 24.3C35.1001 23.6 34.0001 23.2 32.9001 23.2C33.4001 22.4 33.9001 21.6 34.3001 20.8C36.2001 17 36.6001 13.5 35.4001 10.4C33.7001 6 29.6001 4 28.3001 3.5H28.2001C26.2001 2.8 24.2001 2.5 22.2001 2.5C16.4001 2.5 10.9001 5.3 7.40011 9.9C4.40011 13.9 3.20011 18.8 3.90011 23.7C4.60011 28.6 7.20011 33 11.1001 36C14.3001 38.4 18.2001 39.7 22.2001 39.7C23.1001 39.7 24.0001 39.6 24.8001 39.5C29.7001 38.8 34.1001 36.2 37.1001 32.3C38.1001 31 38.5001 29.5 38.2001 28Z" fill="white"/>
<path fill-rule="evenodd" clip-rule="evenodd" d="M34.1999 26.6C33.6999 26.2 33.0999 26 32.4999 26.1C31.6999 26.1 28.0999 25.3 30.0999 22C30.6999 21.1 31.1999 20.2 31.6999 19.4C36.0999 10.9 29.4999 7.10002 27.3999 6.30002C21.0999 4.10002 13.9999 6.10002 9.79986 11.6C4.69986 18.5 5.99986 28.3 12.8999 33.5C19.7999 38.7 29.5999 37.3 34.6999 30.4C35.5999 29.2 35.3999 27.5 34.1999 26.6Z" fill="#EDD286"/>
<path d="M22.2998 37.6C18.7998 37.6 15.2998 36.5 12.3998 34.3C8.89979 31.6 6.59979 27.8 5.89979 23.4C5.19979 18.9 6.39979 14.6 8.99979 11C13.3998 5.30002 20.7998 3.00002 27.6998 5.30002C28.7998 5.70002 32.2998 7.40002 33.5998 11C34.5998 13.6 34.1998 16.6 32.5998 19.8C32.0998 20.7 31.5998 21.6 30.9998 22.5C30.5998 23.2 30.4998 23.8 30.6998 24.2C31.0998 24.8 32.1998 25.1 32.4998 25.1C32.5998 25.1 32.6998 25.1 32.6998 25.1C33.4998 25.1 34.1998 25.4 34.7998 25.8C36.3998 27 36.6998 29.3 35.4998 30.9C32.2998 35.3 27.2998 37.6 22.2998 37.6ZM22.2998 6.40002C17.7998 6.40002 13.4998 8.50002 10.5998 12.2C8.29979 15.3 7.29979 19.2 7.79979 23C8.29979 26.9 10.3998 30.3 13.4998 32.6C19.8998 37.4 29.0998 36.1 33.8998 29.7C34.3998 29 34.2998 27.9 33.5998 27.4C33.2998 27.2 32.8998 27.1 32.4998 27.1C32.3998 27.1 32.2998 27.1 32.1998 27.1C31.2998 27 29.5998 26.6 28.7998 25.3C28.3998 24.6 28.0998 23.3 29.0998 21.5C29.6998 20.6 30.1998 19.7 30.5998 18.9C31.9998 16.2 32.2998 13.8 31.4998 11.7C30.3998 8.70002 27.2998 7.40002 26.6998 7.10002C25.3998 6.70002 23.7998 6.40002 22.2998 6.40002Z" fill="#221F1F"/>
<path fill-rule="evenodd" clip-rule="evenodd" d="M27.4001 33C18.2001 33 10.3001 27.4 7.80006 19.7C7.70006 20.8 7.70006 21.9 7.90006 23C8.40006 26.9 10.5001 30.3 13.6001 32.6C18.9001 36.6 26.0001 36.4 31.1001 32.6C29.8001 32.9 28.6001 33 27.4001 33Z" fill="#D0B366"/>
<path d="M23.7006 24.4C25.1365 24.4 26.3006 23.236 26.3006 21.8C26.3006 20.3641 25.1365 19.2 23.7006 19.2C22.2646 19.2 21.1006 20.3641 21.1006 21.8C21.1006 23.236 22.2646 24.4 23.7006 24.4Z" fill="#221F1F"/>
<path d="M21.2004 14.8C22.7468 14.8 24.0004 13.5464 24.0004 12C24.0004 10.4536 22.7468 9.20001 21.2004 9.20001C19.654 9.20001 18.4004 10.4536 18.4004 12C18.4004 13.5464 19.654 14.8 21.2004 14.8Z" fill="#ACA6FF"/>
<path d="M21.2004 15.9C19.1004 15.9 17.4004 14.2 17.4004 12.1C17.4004 9.99999 19.1004 8.29999 21.2004 8.29999C23.3004 8.29999 25.0004 9.99999 25.0004 12.1C25.0004 14.2 23.3004 15.9 21.2004 15.9ZM21.2004 10.2C20.2004 10.2 19.4004 11 19.4004 12C19.4004 13 20.2004 13.8 21.2004 13.8C22.2004 13.8 23.0004 13 23.0004 12C23.0004 11 22.2004 10.2 21.2004 10.2Z" fill="#221F1F"/>
<path d="M14.0002 21.3C15.5466 21.3 16.8002 20.0464 16.8002 18.5C16.8002 16.9536 15.5466 15.7 14.0002 15.7C12.4538 15.7 11.2002 16.9536 11.2002 18.5C11.2002 20.0464 12.4538 21.3 14.0002 21.3Z" fill="#F0AA97"/>
<path d="M14.0002 22.3C11.9002 22.3 10.2002 20.6 10.2002 18.5C10.2002 16.4 11.9002 14.7 14.0002 14.7C16.1002 14.7 17.8002 16.4 17.8002 18.5C17.8002 20.6 16.1002 22.3 14.0002 22.3ZM14.0002 16.7C13.0002 16.7 12.2002 17.5 12.2002 18.5C12.2002 19.5 13.0002 20.3 14.0002 20.3C15.0002 20.3 15.8002 19.5 15.8002 18.5C15.8002 17.5 15.0002 16.7 14.0002 16.7Z" fill="#221F1F"/>
<path d="M16.5002 30.4C18.0466 30.4 19.3002 29.1464 19.3002 27.6C19.3002 26.0536 18.0466 24.8 16.5002 24.8C14.9538 24.8 13.7002 26.0536 13.7002 27.6C13.7002 29.1464 14.9538 30.4 16.5002 30.4Z" fill="#9CDB9C"/>
<path d="M16.5002 31.5C14.4002 31.5 12.7002 29.8 12.7002 27.7C12.7002 25.6 14.4002 23.9 16.5002 23.9C18.6002 23.9 20.3002 25.6 20.3002 27.7C20.3002 29.8 18.6002 31.5 16.5002 31.5ZM16.5002 25.8C15.5002 25.8 14.7002 26.6 14.7002 27.6C14.7002 28.6 15.5002 29.4 16.5002 29.4C17.5002 29.4 18.3002 28.6 18.3002 27.6C18.3002 26.6 17.5002 25.8 16.5002 25.8Z" fill="#221F1F"/>
</svg>
