<svg width="42" height="42" viewBox="0 0 42 42" fill="none" xmlns="http://www.w3.org/2000/svg">
<path d="M5.83763 38.9946C5.08932 38.9946 4.35996 38.6915 3.82951 38.161C3.17593 37.498 2.88229 36.5602 3.04331 35.6414L4.93777 25.2219C5.04196 24.6441 5.31666 24.1231 5.72396 23.7158L24.6874 4.76184C25.8241 3.62517 27.3397 3 28.9499 3C30.5602 3 32.0758 3.62517 33.2125 4.76184L37.2287 8.77808C38.3654 9.91475 39 11.4303 39 13.0406C39 14.6509 38.3748 16.1664 37.2287 17.3031L18.2652 36.2666C17.8579 36.6739 17.3369 36.9486 16.7591 37.0528L6.33966 38.9472C6.1881 38.9756 6.00813 38.9946 5.82816 38.9946H5.83763Z" fill="white"/>
<path fill-rule="evenodd" clip-rule="evenodd" d="M26.6953 6.76995L7.73185 25.7334L5.8374 36.1529L16.2569 34.2584L35.2203 15.295C36.4612 14.0541 36.4612 12.0271 35.2203 10.7862L31.2041 6.76995C29.9632 5.52909 27.9362 5.52909 26.6953 6.76995Z" fill="#F7DF69"/>
<path fill-rule="evenodd" clip-rule="evenodd" d="M10.9426 30.7253L10.0996 35.3762L16.2566 34.2584L35.22 15.295C35.7315 14.7835 36.0252 14.1299 36.1104 13.4574L34.4149 11.7618C33.174 10.521 31.147 10.521 29.9061 11.7618L10.9426 30.7253Z" fill="#F4AB69"/>
<path d="M8.01602 25.4492L7.73185 25.7334L5.8374 36.1529L16.2569 34.2584L16.5411 33.9743L8.01602 25.4492Z" fill="#FFE6CB"/>
<path fill-rule="evenodd" clip-rule="evenodd" d="M21.1357 12.3301L29.0072 21.5087L33.7717 16.7442L25.8435 7.62241L21.1357 12.3301Z" fill="#DEDEDE"/>
<path fill-rule="evenodd" clip-rule="evenodd" d="M31.8859 18.6292L35.2201 15.295C36.461 14.0541 36.461 12.0271 35.2201 10.7862L31.2039 6.76995C29.963 5.52909 27.9359 5.52909 26.6951 6.76995L23.3608 10.1042L31.8859 18.6292Z" fill="#F0AA97"/>
<path d="M28.5709 21.9445C28.3246 21.9445 28.0878 21.8498 27.8983 21.6698L20.3205 14.092C19.9511 13.7226 19.9511 13.1258 20.3205 12.7564C20.6899 12.387 21.2867 12.387 21.6561 12.7564L29.2339 20.3342C29.6033 20.7036 29.6033 21.3004 29.2339 21.6698C29.0445 21.8592 28.8077 21.9445 28.5614 21.9445H28.5709Z" fill="#221F1F"/>
<path fill-rule="evenodd" clip-rule="evenodd" d="M35.0209 10.5873C31.8383 10.6252 28.9492 11.7429 26.7896 13.5331L31.8856 18.6292L35.2199 15.295C36.4607 14.0541 36.4607 12.0271 35.2199 10.7862L35.0209 10.5873Z" fill="#D88C7D"/>
<path d="M5.16482 36.8254C4.94695 36.6076 4.84276 36.295 4.89959 35.9824L6.79404 25.5629C6.83193 25.3735 6.91718 25.203 7.05927 25.0609L26.0227 6.09742C27.633 4.48714 30.2568 4.48714 31.8766 6.09742L35.8928 10.1137C36.679 10.8999 37.1053 11.9323 37.1053 13.0406C37.1053 14.1488 36.679 15.1813 35.8928 15.9675L16.9294 34.931C16.7967 35.0636 16.6168 35.1583 16.4273 35.1962L6.00785 37.0907C5.70893 37.1405 5.38384 37.0445 5.16482 36.8254ZM8.61272 26.1976L7.01191 34.9783L15.7927 33.3775L34.5478 14.6225C34.974 14.1962 35.2013 13.6373 35.2013 13.0406C35.2013 12.4438 34.9645 11.8755 34.5478 11.4587L30.5315 7.44248C29.6601 6.57104 28.2392 6.57104 27.3583 7.44248L8.61272 26.1976Z" fill="#221F1F"/>
<path d="M31.4117 19.1028C31.1654 19.1028 30.9286 19.0081 30.7391 18.8281L23.1613 11.2504C22.7919 10.8809 22.7919 10.2842 23.1613 9.91476C23.5308 9.54534 24.1275 9.54534 24.4969 9.91476L32.0747 17.4926C32.4442 17.862 32.4442 18.4587 32.0747 18.8281C31.8853 19.0176 31.6485 19.1028 31.4022 19.1028H31.4117Z" fill="#221F1F"/>
</svg>
