<svg width="42" height="42" viewBox="0 0 42 42" fill="none" xmlns="http://www.w3.org/2000/svg">
<path d="M35.2859 14.8286C34.943 7.17143 28.6573 1 21.0002 1C13.343 1 7.05731 7.17143 6.71445 14.8286C2.71445 17.4571 0.314453 21.9143 0.314453 26.7143C0.314453 34.6 6.71445 41 14.6002 41C16.8859 41 19.0573 40.4286 21.0002 39.4C22.943 40.4286 25.2287 41 27.4002 41C35.2859 41 41.6859 34.6 41.6859 26.7143C41.6859 21.9143 39.2859 17.4571 35.2859 14.8286Z" fill="white"/>
<path d="M14.6003 37.5714C20.5965 37.5714 25.4574 32.7105 25.4574 26.7143C25.4574 20.7181 20.5965 15.8571 14.6003 15.8571C8.60407 15.8571 3.74316 20.7181 3.74316 26.7143C3.74316 32.7105 8.60407 37.5714 14.6003 37.5714Z" fill="#EDD286"/>
<path d="M14.6006 38.7143C7.97201 38.7143 2.60059 33.3429 2.60059 26.7143C2.60059 20.0857 7.97201 14.7143 14.6006 14.7143C21.2292 14.7143 26.4863 20.0857 26.4863 26.7143C26.4863 33.3429 21.2292 38.7143 14.6006 38.7143ZM14.6006 17C9.22916 17 4.8863 21.3429 4.8863 26.7143C4.8863 32.0857 9.22916 36.4286 14.6006 36.4286C19.972 36.4286 24.3149 32.0857 24.3149 26.7143C24.3149 21.3429 19.8577 17 14.6006 17Z" fill="#221F1F"/>
<path d="M27.3996 37.5714C33.3959 37.5714 38.2568 32.7105 38.2568 26.7143C38.2568 20.7181 33.3959 15.8571 27.3996 15.8571C21.4034 15.8571 16.5425 20.7181 16.5425 26.7143C16.5425 32.7105 21.4034 37.5714 27.3996 37.5714Z" fill="#8EBFE2"/>
<path d="M27.3994 38.7143C20.7708 38.7143 15.3994 33.3429 15.3994 26.7143C15.3994 20.0857 20.7708 14.7143 27.3994 14.7143C34.028 14.7143 39.3994 20.0857 39.3994 26.7143C39.3994 33.3429 34.028 38.7143 27.3994 38.7143ZM27.3994 17C22.028 17 17.6851 21.3429 17.6851 26.7143C17.6851 32.0857 22.028 36.4286 27.3994 36.4286C32.7708 36.4286 37.1137 32.0857 37.1137 26.7143C37.1137 21.3429 32.7708 17 27.3994 17Z" fill="#221F1F"/>
<path fill-rule="evenodd" clip-rule="evenodd" d="M16.6582 26.7143C16.6582 30.2572 18.3725 33.4572 21.0011 35.4C23.6296 33.4572 25.3439 30.2572 25.3439 26.7143C25.3439 23.1715 23.6296 19.9715 21.0011 18.0286C18.3725 19.9715 16.6582 23.1715 16.6582 26.7143Z" fill="#9CDB9C"/>
<path d="M20.9994 36.5429C20.7708 36.5429 20.5423 36.4286 20.3137 36.3143C17.228 34.0286 15.3994 30.4857 15.3994 26.7143C15.3994 22.9429 17.228 19.4 20.3137 17.1143C20.7708 16.7714 21.228 16.7714 21.6851 17.1143C24.7708 19.4 26.5994 22.9429 26.5994 26.7143C26.5994 30.4857 24.8851 34.0286 21.6851 36.3143C21.4566 36.4286 21.228 36.5429 20.9994 36.5429ZM20.9994 19.5143C18.9423 21.3429 17.7994 23.9714 17.7994 26.7143C17.7994 29.4571 18.9423 32.0857 20.9994 33.9143C23.0566 32.0857 24.1994 29.4571 24.1994 26.7143C24.1994 23.9714 23.0566 21.3429 20.9994 19.5143Z" fill="#221F1F"/>
<path d="M20.9997 26.1429C26.996 26.1429 31.8569 21.2819 31.8569 15.2857C31.8569 9.28948 26.996 4.42857 20.9997 4.42857C15.0035 4.42857 10.1426 9.28948 10.1426 15.2857C10.1426 21.2819 15.0035 26.1429 20.9997 26.1429Z" fill="#F0AA97"/>
<path d="M21 27.2857C14.3714 27.2857 9 21.9143 9 15.2857C9 8.65715 14.3714 3.28572 21 3.28572C27.6286 3.28572 33 8.65715 33 15.2857C33 21.9143 27.6286 27.2857 21 27.2857ZM21 5.57144C15.6286 5.57144 11.2857 9.91429 11.2857 15.2857C11.2857 20.6572 15.6286 25 21 25C26.3714 25 30.7143 20.6572 30.7143 15.2857C30.7143 9.91429 26.3714 5.57144 21 5.57144Z" fill="#221F1F"/>
<path fill-rule="evenodd" clip-rule="evenodd" d="M10.2568 16.7714C10.9426 22.0286 15.514 26.1429 20.9997 26.1429C22.4854 26.1429 23.9711 25.8 25.2283 25.2286C24.5426 19.9714 19.9711 15.8571 14.4854 15.8571C12.9997 15.8571 11.6283 16.2 10.2568 16.7714Z" fill="#F9A936"/>
<path d="M20.9992 27.2857C15.0563 27.2857 10.0277 22.8286 9.11346 17C8.99917 16.5429 9.34203 15.9714 9.79917 15.7429C11.2849 15.0571 12.8849 14.7143 14.4849 14.7143C20.4277 14.7143 25.4563 19.1714 26.3706 25C26.4849 25.4571 26.142 26.0286 25.6849 26.2571C24.1992 26.9429 22.5992 27.2857 20.9992 27.2857ZM11.6277 17.4571C12.6563 21.8 16.542 24.8857 20.9992 24.8857C22.0277 24.8857 23.0563 24.7714 23.9706 24.4286C22.942 20.0857 19.0563 17 14.5992 17C13.5706 17 12.542 17.2286 11.6277 17.4571Z" fill="#221F1F"/>
<path fill-rule="evenodd" clip-rule="evenodd" d="M16.7725 25.2286C18.0296 25.8 19.5153 26.1429 21.001 26.1429C26.4867 26.1429 30.9439 22.0286 31.7439 16.7714C30.4867 16.2 29.001 15.8571 27.5153 15.8571C21.9153 15.8571 17.4582 19.9714 16.7725 25.2286Z" fill="#9891F5"/>
<path d="M21.0005 27.2857C19.4005 27.2857 17.8005 26.9429 16.3148 26.2571C15.8577 26.0286 15.5148 25.5714 15.6291 25C16.4291 19.1714 21.5719 14.7143 27.5148 14.7143C29.1148 14.7143 30.7148 15.0571 32.2005 15.7429C32.6577 15.9714 33.0005 16.4286 32.8862 17C31.9719 22.8286 26.9434 27.2857 21.0005 27.2857ZM18.0291 24.5429C18.9434 24.8857 19.9719 25 21.0005 25C25.4577 25 29.3434 21.8 30.3719 17.5714C29.4577 17.2286 28.4291 17.1143 27.4005 17.1143C22.9434 17 19.0577 20.2 18.0291 24.5429Z" fill="#221F1F"/>
<path fill-rule="evenodd" clip-rule="evenodd" d="M22.3719 26.0286C22.6005 26.0286 22.8291 25.9143 23.1719 25.9143C23.2862 25.9143 23.4005 25.9143 23.5148 25.8C23.7434 25.8 23.9719 25.6857 24.2005 25.5714C24.3148 25.5714 24.4291 25.4571 24.5434 25.4571C24.7719 25.3428 25.0005 25.3428 25.2291 25.2286C25.2291 25.2286 25.3434 25.2286 25.3434 25.1143C24.8862 22.1428 23.2862 19.6286 21.1148 17.9143C18.8291 19.6286 17.2291 22.1428 16.8862 25.1143C16.8862 25.1143 17.0005 25.1143 17.0005 25.2286C17.2291 25.3428 17.4577 25.3428 17.6862 25.4571C17.8005 25.4571 17.9148 25.5714 18.0291 25.5714C18.2577 25.6857 18.4862 25.6857 18.7148 25.8C18.8291 25.8 18.9434 25.8 19.0577 25.9143C19.2862 25.9143 19.5148 26.0286 19.8577 26.0286C19.9719 26.0286 20.0862 26.0286 20.2005 26.0286C20.5434 26.0286 20.8862 26.0286 21.2291 26.0286C21.5719 26.0286 21.9148 26.0286 22.2577 26.0286C22.1434 26.0286 22.2577 26.0286 22.3719 26.0286Z" fill="white"/>
<path d="M21 27.2857C20.5429 27.2857 20.2 27.2857 19.8571 27.1715C19.7429 27.1715 19.7429 27.1715 19.6286 27.1715C19.2857 27.1715 18.9429 27.0572 18.7143 27.0572L18.4857 26.9429C18.1429 26.8286 17.9143 26.8286 17.5714 26.7143L17.3429 26.6C17 26.4857 16.7714 26.3715 16.5429 26.2572H16.4286C15.9714 26.0286 15.6286 25.5715 15.7429 25C16.2 21.8 17.9143 18.9429 20.4286 17C20.8857 16.6572 21.3429 16.6572 21.8 17C24.3143 18.9429 26.1429 21.8 26.4857 25C26.6 25.4572 26.2571 26.0286 25.8 26.2572L25.6857 26.3715C25.4571 26.4857 25.2286 26.6 25 26.6L24.5429 26.7143C24.3143 26.8286 23.9714 26.8286 23.7429 26.9429L23.4 27.0572C23.1714 27.0572 22.8286 27.1715 22.6 27.1715H22.4857C22.3714 27.1715 22.3714 27.1715 22.2571 27.1715C21.8 27.1715 21.4571 27.2857 21 27.2857ZM18.0286 24.4286H18.1429C18.3714 24.5429 18.6 24.5429 18.7143 24.5429H18.8286H18.9429C19.1714 24.5429 19.4 24.6572 19.6286 24.6572H19.8571C20.5429 24.7715 21.1143 24.7715 21.8 24.6572H22.0286C22.2571 24.6572 22.4857 24.5429 22.7143 24.5429H22.8286H22.9429C23.1714 24.5429 23.4 24.4286 23.5143 24.4286H23.6286C23.1714 22.4857 22.1429 20.7715 20.6571 19.4C19.5143 20.7715 18.4857 22.6 18.0286 24.4286Z" fill="#221F1F"/>
</svg>
