<svg width="42" height="42" viewBox="0 0 42 42" fill="none" xmlns="http://www.w3.org/2000/svg">
<path d="M34.5 6.89995H32.6C32.5 4.29995 30.3 2.19995 27.6 2.19995H14.3C11.6 2.19995 9.4 4.29995 9.3 6.89995H7.5C5 6.89995 3 8.79995 2.9 11.2L2 35.2C2 36.4 2.4 37.5999 3.3 38.5C4.2 39.4 5.3 39.9 6.6 39.9H35.4C36.6 39.9 37.8 39.4 38.7 38.5C39.6 37.5999 40 36.4 40 35.2L39.1 11.3C39 8.79995 37 6.89995 34.5 6.89995Z" fill="white"/>
<path d="M27.6998 18.6999H14.2998C12.5998 18.6999 11.2998 17.3999 11.2998 15.6999V7.09985C11.2998 5.39985 12.5998 4.09985 14.2998 4.09985H27.5998C29.2998 4.09985 30.5998 5.39985 30.5998 7.09985V15.6999C30.6998 17.2999 29.2998 18.6999 27.6998 18.6999ZM14.2998 6.09985C13.6998 6.09985 13.2998 6.49985 13.2998 7.09985V15.6999C13.2998 16.2999 13.6998 16.6999 14.2998 16.6999H27.5998C28.1998 16.6999 28.5998 16.2999 28.5998 15.6999V7.09985C28.5998 6.49985 28.1998 6.09985 27.5998 6.09985H14.2998Z" fill="#221F1F"/>
<path fill-rule="evenodd" clip-rule="evenodd" d="M6.59986 36.8999H35.3999C36.2999 36.8999 36.9999 36.1999 36.8999 35.2999L35.9999 11.3999C35.9999 10.5999 35.2999 9.8999 34.4999 9.8999H7.49986C6.69986 9.8999 5.99986 10.4999 5.99986 11.3999L5.09986 35.2999C4.99986 36.1999 5.69986 36.8999 6.59986 36.8999Z" fill="#BF9E6F"/>
<path d="M35.4001 37.8999H6.6001C5.9001 37.8999 5.3001 37.5999 4.8001 37.0999C4.3001 36.5999 4.1001 35.8999 4.1001 35.2999L5.0001 11.3999C5.0001 9.8999 6.1001 8.8999 7.5001 8.8999H34.6001C36.0001 8.8999 37.1001 9.9999 37.1001 11.2999L38.0001 35.1999C38.0001 35.8999 37.8001 36.4999 37.3001 36.9999C36.8001 37.5999 36.1001 37.8999 35.4001 37.8999ZM7.5001 10.8999C7.2001 10.8999 7.0001 11.0999 7.0001 11.3999L6.1001 35.2999C6.1001 35.4999 6.2001 35.5999 6.2001 35.6999C6.3001 35.7999 6.4001 35.8999 6.6001 35.8999H35.4001C35.6001 35.8999 35.7001 35.7999 35.8001 35.6999C35.9001 35.5999 36.0001 35.4999 35.9001 35.2999L35.0001 11.3999C35.0001 11.0999 34.8001 10.8999 34.5001 10.8999H7.5001Z" fill="#221F1F"/>
<path fill-rule="evenodd" clip-rule="evenodd" d="M11.1001 32.6999C10.1001 32.6999 9.2001 31.8999 9.2001 30.8999L8.5001 10.8999H7.5001C7.2001 10.8999 7.0001 11.0999 7.0001 11.3999L6.1001 35.2999C6.1001 35.4999 6.2001 35.5999 6.2001 35.6999C6.3001 35.7999 6.4001 35.8999 6.6001 35.8999H35.4001C35.6001 35.8999 35.7001 35.7999 35.8001 35.6999C35.9001 35.5999 36.0001 35.4999 35.9001 35.2999L35.8001 32.6999H11.1001Z" fill="#AD8657"/>
<path d="M25.6998 25.8999H16.2998C12.1998 25.8999 8.19976 24.3999 5.09976 21.6999C4.69976 21.2999 4.59976 20.6999 4.99976 20.2999C5.39976 19.8999 5.99976 19.7999 6.39976 20.1999C9.19976 22.5999 12.6998 23.8999 16.2998 23.8999H25.6998C29.3998 23.8999 32.9998 22.4999 35.6998 20.0999C36.0998 19.6999 36.6998 19.7999 37.0998 20.1999C37.4998 20.5999 37.3998 21.1999 36.9998 21.5999C33.8998 24.2999 29.8998 25.8999 25.6998 25.8999Z" fill="#221F1F"/>
<path d="M23.0999 21.0999H18.8999V28.6999H23.0999V21.0999Z" fill="#EDD286"/>
<path d="M23.0999 29.6999H18.8999C18.2999 29.6999 17.8999 29.2999 17.8999 28.6999V21.0999C17.8999 20.4999 18.2999 20.0999 18.8999 20.0999H23.0999C23.6999 20.0999 24.0999 20.4999 24.0999 21.0999V28.6999C24.0999 29.1999 23.5999 29.6999 23.0999 29.6999ZM19.8999 27.6999H22.0999V22.0999H19.8999V27.6999Z" fill="#221F1F"/>
</svg>
