<svg width="42" height="42" viewBox="0 0 42 42" fill="none" xmlns="http://www.w3.org/2000/svg">
<path d="M18.8 40C28.1 40 35.6 32.5 35.6 23.2C35.6 20.5 34.9 17.8 33.7 15.4H34C35.7 15.4 37 14.1 37 12.4C38.7 12.4 40 11.1 40 9.4C40 8.5 39.6 7.7 39 7.2L39.1 7.1C40.3 5.9 40.3 4 39.1 2.9C38.6 2.3 37.8 2 37 2C36.2 2 35.4 2.3 34.9 2.9L34.8 3C34.3 2.4 33.5 2 32.6 2C30.9 2 29.6 3.3 29.6 5C27.9 5 26.6 6.3 26.6 8V8.4C24.2 7.1 21.5 6.5 18.8 6.5C9.5 6.4 2 14 2 23.2C2 32.4 9.5 40 18.8 40Z" fill="white"/>
<path d="M18.8 36.9999C26.4215 36.9999 32.6 30.8214 32.6 23.1999C32.6 15.5784 26.4215 9.3999 18.8 9.3999C11.1785 9.3999 5 15.5784 5 23.1999C5 30.8214 11.1785 36.9999 18.8 36.9999Z" fill="#F0AA97"/>
<path d="M18.8 37.9999C10.6 37.9999 4 31.3999 4 23.1999C4 14.9999 10.6 8.3999 18.8 8.3999C27 8.3999 33.6 14.9999 33.6 23.1999C33.6 31.3999 26.9 37.9999 18.8 37.9999ZM18.8 10.3999C11.7 10.3999 6 16.1999 6 23.1999C6 30.1999 11.7 35.9999 18.8 35.9999C25.9 35.9999 31.6 30.2999 31.6 23.1999C31.6 16.0999 25.8 10.3999 18.8 10.3999Z" fill="#221F1F"/>
<path fill-rule="evenodd" clip-rule="evenodd" d="M18.8 31.9999C14 31.9999 10 28.0999 10 23.1999C10 18.2999 13.9 14.3999 18.8 14.3999C23.6 14.3999 27.6 18.2999 27.6 23.1999C27.6 28.0999 23.6 31.9999 18.8 31.9999Z" fill="white"/>
<path d="M18.8 32.9999C13.4 32.9999 9 28.5999 9 23.1999C9 17.7999 13.4 13.3999 18.8 13.3999C24.2 13.3999 28.6 17.7999 28.6 23.1999C28.6 28.5999 24.2 32.9999 18.8 32.9999ZM18.8 15.3999C14.5 15.3999 11 18.8999 11 23.1999C11 27.4999 14.5 30.9999 18.8 30.9999C23.1 30.9999 26.6 27.4999 26.6 23.1999C26.6 18.8999 23.1 15.3999 18.8 15.3999Z" fill="#221F1F"/>
<path fill-rule="evenodd" clip-rule="evenodd" d="M18.8 26.9999C16.7 26.9999 15 25.2999 15 23.1999C15 21.0999 16.7 19.3999 18.8 19.3999C20.9 19.3999 22.6 21.0999 22.6 23.1999C22.6 25.2999 20.9 26.9999 18.8 26.9999Z" fill="#F0AA97"/>
<path d="M18.8 27.9999C16.2 27.9999 14 25.8999 14 23.1999C14 20.4999 16.1 18.3999 18.8 18.3999C21.4 18.3999 23.6 20.4999 23.6 23.1999C23.6 25.8999 21.4 27.9999 18.8 27.9999ZM18.8 20.3999C17.3 20.3999 16 21.6999 16 23.1999C16 24.6999 17.3 25.9999 18.8 25.9999C20.3 25.9999 21.6 24.6999 21.6 23.1999C21.6 21.6999 20.3 20.3999 18.8 20.3999Z" fill="#221F1F"/>
<path d="M18.7998 24.2C18.4998 24.2 18.2998 24.1 18.0998 23.9C17.6998 23.5 17.6998 22.9 18.0998 22.5L36.2998 4.3C36.6998 3.9 37.2998 3.9 37.6998 4.3C38.0998 4.7 38.0998 5.3 37.6998 5.7L19.4998 23.9C19.2998 24.1 18.9998 24.2 18.7998 24.2Z" fill="#221F1F"/>
<path d="M32.5996 10C31.9996 10 31.5996 9.6 31.5996 9V5C31.5996 4.4 31.9996 4 32.5996 4C33.1996 4 33.5996 4.4 33.5996 5V9C33.5996 9.6 33.0996 10 32.5996 10Z" fill="#221F1F"/>
<path d="M29.5996 13C28.9996 13 28.5996 12.6 28.5996 12V8C28.5996 7.4 28.9996 7 29.5996 7C30.1996 7 30.5996 7.4 30.5996 8V12C30.5996 12.6 30.0996 13 29.5996 13Z" fill="#221F1F"/>
<path d="M37 10.3999H33C32.4 10.3999 32 9.9999 32 9.3999C32 8.7999 32.4 8.3999 33 8.3999H37C37.6 8.3999 38 8.7999 38 9.3999C38 9.9999 37.6 10.3999 37 10.3999Z" fill="#221F1F"/>
<path d="M34 13.3999H30C29.4 13.3999 29 12.9999 29 12.3999C29 11.7999 29.4 11.3999 30 11.3999H34C34.6 11.3999 35 11.7999 35 12.3999C35 12.9999 34.6 13.3999 34 13.3999Z" fill="#221F1F"/>
</svg>
