<svg width="42" height="42" viewBox="0 0 42 42" fill="none" xmlns="http://www.w3.org/2000/svg">
<path d="M37 13.2H36C36.3 12.9 36.5 12.4 36.6 12L38.2 5.60005C38.4 4.70005 38.2 3.70005 37.6 2.90005C37 2.20005 36.2 1.80005 35.3 1.80005H35.1C30.9 2.10005 28.6 2.30005 28.4 2.30005C27.3 2.30005 26.2 3.00005 25.7 4.10005C25.2 5.20005 25.4 6.40005 26.2 7.30005L27 8.20005L20.8 13.8L17.4 9.40005C16.9 8.80005 16.2 8.40005 15.4 8.30005C15.3 8.30005 15.2 8.30005 15 8.30005C14.3 8.30005 13.7 8.50005 13.2 8.90005L10.6 10.9L7.9 7.70005C7.3 7.10005 6.5 6.70005 5.7 6.70005C4.9 6.70005 4.2 7.00005 3.7 7.50005C2.5 8.60005 2.4 10.5 3.5 11.7L8.2 16.8C8.3 16.9 8.4 17 8.5 17.1H5C3.3 17.1 2 18.4 2 20.1V37.1C2 38.8 3.3 40.1 5 40.1H12C13.2 40.1 14.3 39.4 14.8 38.3C15.3 39.4 16.3 40.1 17.6 40.1H24.6C25.8 40.1 26.9 39.4 27.4 38.3C27.9 39.4 28.9 40.1 30.2 40.1H37.2C38.9 40.1 40.2 38.8 40.2 37.1V16.1C40 14.5 38.7 13.2 37 13.2Z" fill="white"/>
<path d="M24.5 26.2H17.5V37.2H24.5V26.2Z" fill="#9CDB9C"/>
<path d="M24.5 38.2H17.5C16.9 38.2 16.5 37.8 16.5 37.2V26.2C16.5 25.6 16.9 25.2 17.5 25.2H24.5C25.1 25.2 25.5 25.6 25.5 26.2V37.2C25.5 37.7 25.1 38.2 24.5 38.2ZM18.5 36.2H23.5V27.2H18.5V36.2Z" fill="#221F1F"/>
<path d="M37 16.2H30V37.2H37V16.2Z" fill="#9CDB9C"/>
<path d="M37 38.2H30C29.4 38.2 29 37.8 29 37.2V16.2C29 15.6 29.4 15.2 30 15.2H37C37.6 15.2 38 15.6 38 16.2V37.2C38 37.7 37.6 38.2 37 38.2ZM31 36.2H36V17.2H31V36.2Z" fill="#221F1F"/>
<path d="M12 20.2H5V37.2H12V20.2Z" fill="#9CDB9C"/>
<path d="M12 38.2H5C4.4 38.2 4 37.8 4 37.2V20.2C4 19.6 4.4 19.2 5 19.2H12C12.6 19.2 13 19.6 13 20.2V37.2C13 37.7 12.6 38.2 12 38.2ZM6 36.2H11V21.2H6V36.2Z" fill="#221F1F"/>
<path fill-rule="evenodd" clip-rule="evenodd" d="M28.5 5.30005C28.7 5.30005 35.3 4.80005 35.3 4.80005L33.7 11.2L28.5 5.30005Z" fill="#221F1F"/>
<path d="M33.6998 12.2C33.3998 12.2 33.0998 12.1 32.9998 11.9L27.7998 6.00005C27.4998 5.70005 27.4998 5.30005 27.5998 4.90005C27.7998 4.50005 28.0998 4.30005 28.4998 4.30005C28.7998 4.30005 32.6998 4.00005 35.2998 3.80005C35.5998 3.80005 35.8998 3.90005 36.0998 4.20005C36.2998 4.40005 36.3998 4.80005 36.2998 5.10005L34.6998 11.5C34.5998 11.9 34.2998 12.1 33.9998 12.2C33.8998 12.2 33.7998 12.2 33.6998 12.2ZM30.5998 6.20005L33.1998 9.20005L33.9998 6.00005C32.6998 6.00005 31.4998 6.10005 30.5998 6.20005Z" fill="#221F1F"/>
<path d="M20.4999 19.1001C20.0999 19.1001 19.8999 18.9001 19.6999 18.7001L14.8999 12.5001L10.8999 15.6001C10.4999 15.9001 9.89992 15.9001 9.49992 15.5001L4.79992 10.4001C4.49992 10.0001 4.59992 9.4001 4.99992 9.0001C5.39992 8.6001 5.99992 8.7001 6.39992 9.1001L10.3999 13.5001L14.3999 10.4001C14.5999 10.2001 14.8999 10.2001 15.0999 10.2001C15.3999 10.2001 15.5999 10.4001 15.7999 10.6001L20.5999 16.7001L32.4999 6.1001C32.8999 5.7001 33.4999 5.8001 33.8999 6.2001C34.2999 6.6001 34.1999 7.2001 33.7999 7.6001L21.1999 18.9001C20.9999 19.1001 20.6999 19.1001 20.4999 19.1001Z" fill="#221F1F"/>
</svg>
