<svg width="42" height="42" viewBox="0 0 42 42" fill="none" xmlns="http://www.w3.org/2000/svg">
<path d="M16 34C17.1046 34 18 33.1046 18 32C18 30.8954 17.1046 30 16 30C14.8954 30 14 30.8954 14 32C14 33.1046 14.8954 34 16 34Z" fill="#221F1F"/>
<path d="M40 17.16V27.84C40 31.24 37.24 34 33.84 34H16.16C12.76 34 10 31.24 10 27.84V17.16C10 13.76 12.76 11 16.16 11H33.84C37.24 11 40 13.76 40 17.16Z" fill="white"/>
<path d="M29 34V8C29 4.68629 26.3137 2 23 2H9C5.68629 2 3 4.68629 3 8V34C3 37.3137 5.68629 40 9 40H23C26.3137 40 29 37.3137 29 34Z" fill="white"/>
<path d="M27 34V8C27 5.79086 25.2091 4 23 4H9C6.79086 4 5 5.79086 5 8V34C5 36.2091 6.79086 38 9 38H23C25.2091 38 27 36.2091 27 34Z" fill="#221F1F"/>
<path d="M23 6H9C7.89543 6 7 6.89543 7 8V34C7 35.1046 7.89543 36 9 36H23C24.1046 36 25 35.1046 25 34V8C25 6.89543 24.1046 6 23 6Z" fill="#9891F5"/>
<path d="M23.0006 6H9.64062L22.1406 36H23.0006C24.1006 36 25.0006 35.1 25.0006 34V8C25.0006 6.9 24.1006 6 23.0006 6Z" fill="#B9B9FF"/>
<path d="M18 8H14C13.4477 8 13 8.44772 13 9C13 9.55228 13.4477 10 14 10H18C18.5523 10 19 9.55228 19 9C19 8.44772 18.5523 8 18 8Z" fill="#221F1F"/>
<path d="M37 17.16V27.84C37 30.14 35.14 32 32.84 32H15.16C12.86 32 11 30.14 11 27.84V17.16C11 14.86 12.86 13 15.16 13H32.84C35.14 13 37 14.86 37 17.16Z" fill="#221F1F"/>
<path d="M38 17.16V27.84C38 30.14 36.14 32 33.84 32H16.16C13.86 32 12 30.14 12 27.84V17.16C12 14.86 13.86 13 16.16 13H33.84C36.14 13 38 14.86 38 17.16Z" fill="#221F1F"/>
<path d="M33.84 15H15.16C13.97 15 13 15.97 13 17.16V27.84C13 29.03 13.97 30 15.16 30H33.84C35.03 30 36 29.03 36 27.84V17.16C36 15.97 35.03 15 33.84 15Z" fill="#8EBFE2"/>
<path d="M29.9199 30H33.8399C35.0299 30 35.9999 29.03 35.9999 27.84V17.16C35.9999 15.97 35.0299 15 33.8399 15H23.6699L29.9199 30Z" fill="#CAE5FF"/>
<path d="M37 18H12V21H37V18Z" fill="#221F1F"/>
<path d="M32 28C33.1046 28 34 27.1046 34 26C34 24.8954 33.1046 24 32 24C30.8954 24 30 24.8954 30 26C30 27.1046 30.8954 28 32 28Z" fill="#221F1F"/>
<path d="M28 28C29.1046 28 30 27.1046 30 26C30 24.8954 29.1046 24 28 24C26.8954 24 26 24.8954 26 26C26 27.1046 26.8954 28 28 28Z" fill="#221F1F"/>
</svg>
