<svg width="42" height="42" viewBox="0 0 42 42" fill="none" xmlns="http://www.w3.org/2000/svg">
<path d="M39.7902 28.73L35.7902 16.73C35.2402 15.09 33.7202 14 32.0002 14H29.6602C29.3002 12.87 28.6702 11.87 27.8402 11.06C27.9402 10.56 27.9902 10.04 27.9902 9.5C27.9902 5.36 24.8502 2 20.9902 2C17.1302 2 13.9902 5.36 13.9902 9.5C13.9902 10.03 14.0402 10.55 14.1402 11.06C13.3102 11.87 12.6802 12.88 12.3202 14H9.98024C8.26024 14 6.73024 15.1 6.19024 16.73L2.21024 28.74C1.80024 29.96 2.01024 31.3 2.76024 32.34C3.51024 33.38 4.72024 34 6.01024 34H12.0102V36C12.0102 38.21 13.8002 40 16.0102 40H26.0102C28.2202 40 30.0102 38.21 30.0102 36V34H36.0102C37.2902 34 38.5102 33.38 39.2602 32.34C40.0102 31.3 40.2202 29.95 39.8102 28.74L39.7902 28.73Z" fill="white"/>
<path d="M21 15C23.7614 15 26 12.5376 26 9.5C26 6.46243 23.7614 4 21 4C18.2386 4 16 6.46243 16 9.5C16 12.5376 18.2386 15 21 15Z" fill="#221F1F"/>
<path d="M28 16.17V20C28 21.1 27.1 22 26 22H16C14.9 22 14 21.1 14 20V16.17C14 13.32 16.32 11 19.17 11H22.83C25.68 11 28 13.32 28 16.17Z" fill="#221F1F"/>
<path d="M21 13C22.6569 13 24 11.433 24 9.5C24 7.567 22.6569 6 21 6C19.3431 6 18 7.567 18 9.5C18 11.433 19.3431 13 21 13Z" fill="#A2D6FF"/>
<path d="M19.17 13H22.83C24.58 13 26 14.42 26 16.17V20H16V16.17C16 14.42 17.42 13 19.17 13Z" fill="#A2D6FF"/>
<path d="M16 16.1709V17.1009C18.45 17.3209 24.41 17.8109 22 17.0109C19.47 16.1709 18.36 13.9009 18.08 13.2109C16.87 13.6609 16 14.8109 16 16.1709Z" fill="#8EBFE2"/>
<path d="M5.99984 32C5.35984 32 4.74984 31.69 4.37984 31.17C3.99984 30.65 3.89984 29.98 4.10984 29.37L8.10984 17.37C8.37984 16.55 9.14984 16 10.0098 16H32.0098C32.8698 16 33.6298 16.55 33.9098 17.37L37.9098 29.37C38.1098 29.98 38.0098 30.65 37.6398 31.17C37.2598 31.69 36.6598 32 36.0198 32H5.99984Z" fill="#221F1F"/>
<path d="M36 30H6L10 18H32L36 30Z" fill="#C4C4C4"/>
<path d="M28 31.17V36C28 37.1 27.1 38 26 38H16C14.9 38 14 37.1 14 36V31.17C14 28.32 16.32 26 19.17 26H22.83C25.68 26 28 28.32 28 31.17Z" fill="#221F1F"/>
<path d="M21 30C23.7614 30 26 27.5376 26 24.5C26 21.4624 23.7614 19 21 19C18.2386 19 16 21.4624 16 24.5C16 27.5376 18.2386 30 21 30Z" fill="#221F1F"/>
<path d="M21 28C22.6569 28 24 26.433 24 24.5C24 22.567 22.6569 21 21 21C19.3431 21 18 22.567 18 24.5C18 26.433 19.3431 28 21 28Z" fill="#B7EDB7"/>
<path d="M19.17 28H22.83C24.58 28 26 29.42 26 31.17V36H16V31.17C16 29.42 17.42 28 19.17 28Z" fill="#B7EDB7"/>
<path d="M17.99 28.2305C16.82 28.7005 16 29.8305 16 31.1705V36.0005H26C19.36 34.5205 18.16 30.3305 17.99 28.2305Z" fill="#9CDB9C"/>
</svg>
