<svg width="42" height="42" viewBox="0 0 42 42" fill="none" xmlns="http://www.w3.org/2000/svg">
<path d="M39.5 4.4C39 4.1 38.5 4 38 4C37.5 4 37 4.1 36.5 4.4C33 6.4 29 7.7 24.6 8.2H24.5C23.9 8.3 23.4 8.3 22.8 8.3C22.2 8.3 21.6 8.4 21 8.4C20.4 8.4 19.8 8.4 19.2 8.3C18.6 8.3 18.1 8.2 17.6 8.2C17.5 8.2 17.4 8.2 17.4 8.2C13 7.7 9 6.4 5.5 4.4C5 4.1 4.5 4 4 4C3.5 4 3 4.1 2.5 4.4C1.6 4.9 1 5.9 1 7V35C1 36.7 2.3 38 4 38H38C39.7 38 41 36.7 41 35V7C41 5.9 40.4 4.9 39.5 4.4Z" fill="white"/>
<path d="M38 12.2H4V35H38V12.2Z" fill="#9CDB9C"/>
<path d="M38 36H4C3.4 36 3 35.6 3 35V12.2C3 11.6 3.4 11.2 4 11.2H38C38.6 11.2 39 11.6 39 12.2V35C39 35.6 38.6 36 38 36ZM5 34H37V13.2H5V34Z" fill="#221F1F"/>
<path fill-rule="evenodd" clip-rule="evenodd" d="M4 29.4002C8.8 30.4002 14.7 31.0002 21 31.0002C27.3 31.0002 33.2 30.4002 38 29.4002V14.8002C33.2 13.8002 27.3 13.2002 21 13.2002C14.7 13.2002 8.8 13.8002 4 14.8002V29.4002Z" fill="#9CDB9C"/>
<path d="M21 32.0001C14.8 32.0001 8.9 31.4001 3.8 30.3001C3.3 30.2001 3 29.8001 3 29.3001V14.8001C3 14.3001 3.3 13.9001 3.8 13.8001C8.9 12.7001 14.8 12.1001 21 12.1001C27.2 12.1001 33.1 12.7001 38.2 13.8001C38.7 13.9001 39 14.3001 39 14.8001V29.4001C39 29.9001 38.7 30.3001 38.2 30.4001C33.1 31.4001 27.2 32.0001 21 32.0001ZM5 28.5001C9.8 29.5001 15.3 30.0001 21 30.0001C26.7 30.0001 32.2 29.5001 37 28.5001V15.6001C32.2 14.6001 26.7 14.1001 21 14.1001C15.3 14.1001 9.8 14.7001 5 15.6001V28.5001Z" fill="#221F1F"/>
<path fill-rule="evenodd" clip-rule="evenodd" d="M38 7V22.6C33.2 25.4 27.3 27 21 27C14.7 27 8.8 25.4 4 22.6V7C8.8 9.8 14.7 11.4 21 11.4C27.3 11.4 33.2 9.8 38 7Z" fill="#B7EDB7"/>
<path d="M21 28C14.7 28 8.6 26.4 3.5 23.5C3.2 23.2999 3 23 3 22.6V6.99995C3 6.59995 3.2 6.29995 3.5 6.09995C3.8 5.89995 4.2 5.89995 4.5 6.09995C9.3 8.89995 15 10.4 21 10.4C27 10.4 32.7 8.89995 37.5 6.09995C37.8 5.89995 38.2 5.89995 38.5 6.09995C38.8 6.29995 39 6.59995 39 6.99995V22.6C39 23 38.8 23.2999 38.5 23.5C33.4 26.4 27.3 28 21 28ZM5 22C9.7 24.6 15.3 26 21 26C26.7 26 32.3 24.6 37 22V8.69995C32.2 11.1 26.7 12.4 21 12.4C15.3 12.4 9.8 11.1 5 8.69995V22Z" fill="#221F1F"/>
<path fill-rule="evenodd" clip-rule="evenodd" d="M17.2002 35H24.8002V11.2C23.5002 11.3 22.3002 11.4 21.0002 11.4C19.7002 11.4 18.4002 11.3 17.2002 11.2V35Z" fill="#CE9921"/>
<path d="M24.8002 36H17.2002C16.6002 36 16.2002 35.6 16.2002 35V11.2C16.2002 10.9 16.3002 10.6 16.5002 10.5C16.7002 10.3 17.0002 10.2 17.3002 10.2C20.0002 10.5 22.0002 10.5 24.7002 10.2C25.0002 10.2 25.3002 10.3 25.5002 10.5C25.7002 10.7 25.8002 11 25.8002 11.2V35C25.8002 35.6 25.4002 36 24.8002 36ZM18.2002 34H23.8002V12.3C21.8002 12.5 20.1002 12.5 18.2002 12.3V34Z" fill="#221F1F"/>
<path fill-rule="evenodd" clip-rule="evenodd" d="M17.2002 11.2V26.8C18.5002 26.9 19.7002 27 21.0002 27C22.3002 27 23.6002 26.9 24.8002 26.8V11.2C24.2002 11.3 23.6002 11.3 23.0002 11.4C22.3002 11.4 21.7002 11.5 21.0002 11.5C20.3002 11.5 19.7002 11.5 19.0002 11.4C18.4002 11.3 17.8002 11.3 17.2002 11.2Z" fill="#FCD26E"/>
<path d="M21.0002 28C19.8002 28 18.5002 27.9 17.1002 27.7999C16.6002 27.6999 16.2002 27.2999 16.2002 26.7999V11.2C16.2002 10.9 16.3002 10.6 16.6002 10.4C16.8002 10.2 17.1002 10.2 17.3002 10.2C17.9002 10.3 18.5002 10.3 19.1002 10.3C20.4002 10.4 21.7002 10.4 22.9002 10.3C23.5002 10.3 24.1002 10.2 24.7002 10.2C24.9002 10.2 25.2002 10.3 25.4002 10.4C25.6002 10.6 25.8002 10.9 25.8002 11.2V26.7999C25.8002 27.2999 25.4002 27.6999 24.9002 27.7999C23.5002 27.9 22.2002 28 21.0002 28ZM18.2002 25.9C20.2002 26.1 21.8002 26.1 23.8002 25.9V12.3C23.5002 12.3 23.3002 12.3 23.0002 12.4C21.7002 12.5 20.3002 12.5 18.9002 12.4C18.6002 12.4 18.4002 12.4 18.1002 12.3V25.9H18.2002Z" fill="#221F1F"/>
<path d="M8.2002 14.6999C7.6002 14.6999 7.2002 14.2999 7.2002 13.6999V12.8999C7.2002 12.2999 7.6002 11.8999 8.2002 11.8999C8.8002 11.8999 9.2002 12.2999 9.2002 12.8999V13.6999C9.2002 14.1999 8.8002 14.6999 8.2002 14.6999Z" fill="#221F1F"/>
<path d="M8.2002 21.4001C7.6002 21.4001 7.2002 21.0001 7.2002 20.4001V19.6001C7.2002 19.0001 7.6002 18.6001 8.2002 18.6001C8.8002 18.6001 9.2002 19.0001 9.2002 19.6001V20.4001C9.2002 21.0001 8.8002 21.4001 8.2002 21.4001Z" fill="#221F1F"/>
<path d="M33.7998 14.6999C33.1998 14.6999 32.7998 14.2999 32.7998 13.6999V12.8999C32.7998 12.2999 33.1998 11.8999 33.7998 11.8999C34.3998 11.8999 34.7998 12.2999 34.7998 12.8999V13.6999C34.7998 14.1999 34.2998 14.6999 33.7998 14.6999Z" fill="#221F1F"/>
<path d="M33.7998 21.4001C33.1998 21.4001 32.7998 21.0001 32.7998 20.4001V19.6001C32.7998 19.0001 33.1998 18.6001 33.7998 18.6001C34.3998 18.6001 34.7998 19.0001 34.7998 19.6001V20.4001C34.7998 21.0001 34.2998 21.4001 33.7998 21.4001Z" fill="#221F1F"/>
</svg>
