<svg width="42" height="42" viewBox="0 0 42 42" fill="none" xmlns="http://www.w3.org/2000/svg">
<path d="M6 40C3.79 40 2 38.21 2 36V25C2 23.51 2.82 22.16 4.13 21.46L9.56 18.59V14C9.56 12.6 10.31 11.28 11.51 10.56L24.95 2.56C25.57 2.19 26.28 2 27 2C27.72 2 28.38 2.18 28.98 2.52C30.23 3.23 31 4.56 31 6V36C31 38.21 29.21 40 27 40H6Z" fill="white"/>
<path d="M40 36V19C40 16.7909 38.2091 15 36 15H24C21.7909 15 20 16.7909 20 19V36C20 38.2091 21.7909 40 24 40H36C38.2091 40 40 38.2091 40 36Z" fill="white"/>
<path d="M6 38C4.9 38 4 37.1 4 36V25C4 24.26 4.41 23.58 5.06 23.23L11.56 19.79V13.99C11.56 13.28 11.93 12.63 12.54 12.27L25.98 4.28C26.29 4.09 26.65 4 27 4C27.35 4 27.68 4.09 27.99 4.26C28.62 4.62 29 5.28 29 6V36C29 37.1 28.1 38 27 38H6Z" fill="#221F1F"/>
<path d="M13.56 14V21L6 25V36H13.56H21.12H27V6L13.56 14Z" fill="#B9B9FF"/>
<path d="M25.87 35.8299L8.51 23.6699L6 24.9999V35.9999H13.56H21.12H25.89L25.87 35.8299Z" fill="#9891F5"/>
<path d="M38 36V19C38 17.8954 37.1046 17 36 17H24C22.8954 17 22 17.8954 22 19V36C22 37.1046 22.8954 38 24 38H36C37.1046 38 38 37.1046 38 36Z" fill="#221F1F"/>
<path d="M36 19H24V36H36V19Z" fill="#CAE5FF"/>
<path d="M36 32.0992L24 23.6992V35.9992H36V32.0992Z" fill="#A2D6FF"/>
<path d="M20 32H18V34H20V32Z" fill="#221F1F"/>
<path d="M20 28H18V30H20V28Z" fill="#221F1F"/>
<path d="M20 24H18V26H20V24Z" fill="#221F1F"/>
<path d="M16 32H14V34H16V32Z" fill="#221F1F"/>
<path d="M16 28H14V30H16V28Z" fill="#221F1F"/>
<path d="M16 24H14V26H16V24Z" fill="#221F1F"/>
<path d="M12 32H10V34H12V32Z" fill="#221F1F"/>
<path d="M12 28H10V30H12V28Z" fill="#221F1F"/>
<path d="M20 20H18V22H20V20Z" fill="#221F1F"/>
<path d="M20 16H18V18H20V16Z" fill="#221F1F"/>
<path d="M34 30H26V32H34V30Z" fill="#221F1F"/>
<path d="M34 26H26V28H34V26Z" fill="#221F1F"/>
<path d="M34 22H26V24H34V22Z" fill="#221F1F"/>
</svg>
