<svg width="42" height="42" viewBox="0 0 42 42" fill="none" xmlns="http://www.w3.org/2000/svg">
<path d="M21 2C10.5 2 2 9.3 2 18.3V23.7C2 32.7 10.5 39.9 21 39.9C31.5 39.9 40 32.6 40 23.7V18.3C40 9.3 31.5 2 21 2Z" fill="white"/>
<path fill-rule="evenodd" clip-rule="evenodd" d="M35.6 18.3C33.1 13.7 27.5 10.5 21 10.5C14.5 10.5 8.9 13.7 6.4 18.3H5V23.7C5 31 12.2 37 21 37C29.8 37 37 31 37 23.7V18.3H35.6Z" fill="#D0B366"/>
<path d="M21 38.0001C11.6 38.0001 4 31.6001 4 23.8001V18.4001C4 17.8001 4.4 17.4001 5 17.4001H5.8C8.7 12.6001 14.6 9.6001 21 9.6001C27.4 9.6001 33.3 12.6001 36.2 17.4001H37C37.6 17.4001 38 17.8001 38 18.4001V23.8001C38 31.6001 30.4 38.0001 21 38.0001ZM6 19.3001V23.7001C6 30.5001 12.7 36.0001 21 36.0001C29.3 36.0001 36 30.5001 36 23.8001V19.4001H35.6C35.2 19.4001 34.9 19.2001 34.7 18.9001C32.3 14.5001 26.9 11.6001 21 11.6001C15.1 11.6001 9.7 14.3001 7.3 18.8001C7.1 19.1001 6.8 19.3001 6.4 19.3001H6Z" fill="#221F1F"/>
<path fill-rule="evenodd" clip-rule="evenodd" d="M21.0996 21V36C29.2996 36 35.9996 30.5 35.9996 23.8V21H21.0996Z" fill="#D88C7D"/>
<path d="M21 31.5001C29.8366 31.5001 37 25.5903 37 18.3001C37 11.0099 29.8366 5.1001 21 5.1001C12.1634 5.1001 5 11.0099 5 18.3001C5 25.5903 12.1634 31.5001 21 31.5001Z" fill="#EDD286"/>
<path d="M21 32.5C11.6 32.5 4 26.1 4 18.3C4 10.5 11.6 4 21 4C30.4 4 38 10.4 38 18.2C38 26 30.4 32.5 21 32.5ZM21 6C12.7 6 6 11.5 6 18.3C6 25.1 12.7 30.5 21 30.5C29.3 30.5 36 25 36 18.3C36 11.6 29.3 6 21 6Z" fill="#221F1F"/>
<path fill-rule="evenodd" clip-rule="evenodd" d="M21.0002 30.5C29.3002 30.5 36.0002 25 36.0002 18.3C36.0002 11.6 29.3002 6 21.0002 6C17.0002 6 13.4002 7.3 10.7002 9.4L21.2002 18.4C21.2002 18.4 20.9002 25.8 20.7002 30.5C20.8002 30.5 20.9002 30.5 21.0002 30.5Z" fill="#F39200"/>
<path d="M21.0001 19.3C20.8001 19.3 20.6001 19.2 20.4001 19.1L9.50015 10.2C9.10015 9.79995 9.00015 9.19995 9.40015 8.79995C9.70015 8.39995 10.4001 8.29995 10.8001 8.69995L21.7001 17.6C22.1001 18 22.2001 18.6 21.8001 19C21.6001 19.2 21.3001 19.3 21.0001 19.3Z" fill="#221F1F"/>
<path d="M21 38C20.4 38 20 37.6 20 37V18.3C20 17.7 20.4 17.3 21 17.3C21.6 17.3 22 17.7 22 18.3V37C22 37.5 21.6 38 21 38Z" fill="#221F1F"/>
</svg>
