<svg width="42" height="42" viewBox="0 0 42 42" fill="none" xmlns="http://www.w3.org/2000/svg">
<path d="M40.9501 23.2996L40.9081 23.1421C40.8871 23.0266 40.8661 22.9321 40.8451 22.8586C40.8346 22.8061 40.8136 22.7116 40.7716 22.5961L40.7401 22.4281L34.8286 11.1406C34.6921 10.8676 34.5031 10.6156 34.3351 10.4581C33.7366 9.8176 32.8966 9.4396 32.0251 9.4396H24.1501V5.2396C24.1501 3.5071 22.7326 2.0896 21.0001 2.0896C19.2676 2.0896 17.8501 3.5071 17.8501 5.2396V9.4396H9.97505C9.10355 9.4396 8.26355 9.8071 7.72805 10.3951C7.50755 10.6156 7.31855 10.8676 7.19255 11.1301L1.39655 22.1971L1.26005 22.4806L1.23905 22.6171C1.20755 22.7326 1.18655 22.8271 1.16555 22.8901C1.15505 22.9426 1.12355 23.0371 1.11305 23.1421L1.06055 23.3101V23.6146C1.06055 28.5391 5.06105 32.5396 9.98555 32.5396C13.3876 32.5396 16.3591 30.6181 17.8606 27.8146V33.5896H15.2356C13.5031 33.5896 12.0856 35.0071 12.0856 36.7396C12.0856 38.4721 13.5031 39.8896 15.2356 39.8896H26.7856C28.5181 39.8896 29.9356 38.4721 29.9356 36.7396C29.9356 35.0071 28.5181 33.5896 26.7856 33.5896H24.1606V27.8146C25.6621 30.6286 28.6336 32.5396 32.0356 32.5396C36.9601 32.5396 40.9606 28.5391 40.9606 23.6146V23.2891L40.9501 23.2996Z" fill="white"/>
<path fill-rule="evenodd" clip-rule="evenodd" d="M32.025 29.4C28.833 29.4 26.25 26.817 26.25 23.625H37.8C37.8 26.817 35.217 29.4 32.025 29.4Z" fill="white"/>
<path d="M32.0252 30.45C28.2662 30.45 25.2002 27.384 25.2002 23.625C25.2002 23.0475 25.6727 22.575 26.2502 22.575H37.8002C38.3777 22.575 38.8502 23.0475 38.8502 23.625C38.8502 27.384 35.7842 30.45 32.0252 30.45ZM27.4157 24.675C27.8987 26.775 29.7782 28.35 32.0252 28.35C34.2722 28.35 36.1517 26.775 36.6347 24.675H27.4157Z" fill="#221F1F"/>
<path d="M26.7748 37.8H15.2248C14.6473 37.8 14.1748 37.3275 14.1748 36.75C14.1748 36.1725 14.6473 35.7 15.2248 35.7H26.7748C27.3523 35.7 27.8248 36.1725 27.8248 36.75C27.8248 37.3275 27.3523 37.8 26.7748 37.8Z" fill="#221F1F"/>
<path d="M21.0002 37.527C20.4227 37.527 19.9502 37.0545 19.9502 36.477V5.24995C19.9502 4.67245 20.4227 4.19995 21.0002 4.19995C21.5777 4.19995 22.0502 4.67245 22.0502 5.24995V36.477C22.0502 37.0545 21.5777 37.527 21.0002 37.527Z" fill="#221F1F"/>
<path d="M15.7497 24.6749C15.3717 24.6749 15.0042 24.4649 14.8152 24.1079L9.97472 14.8574L5.13422 24.1079C4.86122 24.6224 4.23122 24.8219 3.71672 24.5489C3.20222 24.2759 3.00272 23.6459 3.27572 23.1314L9.05072 12.1064C9.40772 11.4134 10.5522 11.4134 10.9092 12.1064L16.6842 23.1314C16.9572 23.6459 16.7577 24.2759 16.2432 24.5489C16.0857 24.6329 15.9177 24.6644 15.7602 24.6644L15.7497 24.6749Z" fill="#221F1F"/>
<path d="M37.7995 24.6749C37.4215 24.6749 37.054 24.4649 36.865 24.1079L32.0245 14.8574L27.184 24.1079C26.911 24.6224 26.281 24.8219 25.7665 24.5489C25.252 24.2759 25.0525 23.6459 25.3255 23.1314L31.1005 12.1064C31.4575 11.4134 32.602 11.4134 32.959 12.1064L38.734 23.1314C39.007 23.6459 38.8075 24.2759 38.293 24.5489C38.1355 24.6329 37.9675 24.6644 37.81 24.6644L37.7995 24.6749Z" fill="#221F1F"/>
<path d="M32.0248 13.65H9.9748C9.3973 13.65 8.9248 13.1775 8.9248 12.6C8.9248 12.0225 9.3973 11.55 9.9748 11.55H32.0248C32.6023 11.55 33.0748 12.0225 33.0748 12.6C33.0748 13.1775 32.6023 13.65 32.0248 13.65Z" fill="#221F1F"/>
<path fill-rule="evenodd" clip-rule="evenodd" d="M9.97519 29.4C13.1672 29.4 15.7502 26.817 15.7502 23.625H4.2002C4.2002 26.817 6.7832 29.4 9.97519 29.4Z" fill="#E0B344"/>
<path fill-rule="evenodd" clip-rule="evenodd" d="M32.025 29.4C28.833 29.4 26.25 26.817 26.25 23.625H37.8C37.8 26.817 35.217 29.4 32.025 29.4Z" fill="#E0B344"/>
<path fill-rule="evenodd" clip-rule="evenodd" d="M11.6549 29.148C11.9909 29.043 12.3059 28.917 12.6104 28.7595L13.4819 28.203C13.9124 27.867 14.3009 27.4785 14.6159 27.048L15.7394 23.625H9.52344L11.6444 29.148H11.6549Z" fill="#FCD26E"/>
<path fill-rule="evenodd" clip-rule="evenodd" d="M33.7047 29.148C34.0407 29.043 34.3557 28.917 34.6602 28.7595L35.5317 28.203C35.9622 27.867 36.3507 27.4785 36.6657 27.048L37.7892 23.625H31.5732L33.6942 29.148H33.7047Z" fill="#FCD26E"/>
<path d="M32.0252 30.45C28.2662 30.45 25.2002 27.384 25.2002 23.625C25.2002 23.0475 25.6727 22.575 26.2502 22.575H37.8002C38.3777 22.575 38.8502 23.0475 38.8502 23.625C38.8502 27.384 35.7842 30.45 32.0252 30.45ZM27.4157 24.675C27.8987 26.775 29.7782 28.35 32.0252 28.35C34.2722 28.35 36.1517 26.775 36.6347 24.675H27.4157Z" fill="#221F1F"/>
<path d="M9.97539 30.45C6.21639 30.45 3.15039 27.384 3.15039 23.625C3.15039 23.0475 3.62289 22.575 4.20039 22.575H15.7504C16.3279 22.575 16.8004 23.0475 16.8004 23.625C16.8004 27.384 13.7344 30.45 9.97539 30.45ZM5.36589 24.675C5.84889 26.775 7.72839 28.35 9.97539 28.35C12.2224 28.35 14.1019 26.775 14.5849 24.675H5.36589Z" fill="#221F1F"/>
</svg>
