<svg width="42" height="42" viewBox="0 0 42 42" fill="none" xmlns="http://www.w3.org/2000/svg">
<path d="M37 2H17.1C15.4 2 14.1 3.3 14.1 5V12.7H11C9.3 12.7 8 14 8 15.7V23.4H5C3.3 23.4 2 24.7 2 26.4V37C2 38.7 3.3 40 5 40H37C38.7 40 40 38.7 40 37V5C40 3.3 38.7 2 37 2Z" fill="white"/>
<path fill-rule="evenodd" clip-rule="evenodd" d="M17.1 5V15.7H11.1V26.3H5V37H34.1V5H17.1Z" fill="#8EBFE2"/>
<path d="M34.1 38H5C4.4 38 4 37.6 4 37V26.3C4 25.7 4.4 25.3 5 25.3H10.1V15.6C10.1 15 10.5 14.6 11.1 14.6H16.2V5C16.2 4.4 16.6 4 17.2 4H34.2C34.8 4 35.2 4.4 35.2 5V37C35.1 37.6 34.6 38 34.1 38ZM6 36H33.1V6H18.1V15.7C18.1 16.3 17.7 16.7 17.1 16.7H12V26.4C12 27 11.6 27.4 11 27.4H6V36Z" fill="#221F1F"/>
<path fill-rule="evenodd" clip-rule="evenodd" d="M27.6996 5V15.7H21.5996V26.3H15.5996V37H36.9996V5H27.6996Z" fill="#A2D6FF"/>
<path d="M36.9996 38H15.5996C14.9996 38 14.5996 37.6 14.5996 37V26.3C14.5996 25.7 14.9996 25.3 15.5996 25.3H20.6996V15.6C20.6996 15 21.0996 14.6 21.6996 14.6H26.7996V5C26.7996 4.4 27.1996 4 27.7996 4H36.9996C37.5996 4 37.9996 4.4 37.9996 5V37C37.9996 37.6 37.5996 38 36.9996 38ZM16.5996 36H35.9996V6H28.6996V15.7C28.6996 16.3 28.2996 16.7 27.6996 16.7H22.5996V26.4C22.5996 27 22.1996 27.4 21.5996 27.4H16.4996V36H16.5996Z" fill="#221F1F"/>
<path d="M21.6 27.3H5C4.4 27.3 4 26.9 4 26.3C4 25.7 4.4 25.3 5 25.3H21.6C22.2 25.3 22.6 25.7 22.6 26.3C22.6 26.9 22.2 27.3 21.6 27.3Z" fill="#221F1F"/>
<path d="M27.6996 16.7H11.0996C10.4996 16.7 10.0996 16.3 10.0996 15.7C10.0996 15.1 10.4996 14.7 11.0996 14.7H27.6996C28.2996 14.7 28.6996 15.1 28.6996 15.7C28.6996 16.3 28.2996 16.7 27.6996 16.7Z" fill="#221F1F"/>
</svg>
