<svg width="42" height="42" viewBox="0 0 42 42" fill="none" xmlns="http://www.w3.org/2000/svg">
<path d="M40 28.02V9.98C40 6.12505 36.8749 3 33.02 3H8.98C5.12505 3 2 6.12505 2 9.98V28.02C2 31.8749 5.12505 35 8.98 35H33.02C36.8749 35 40 31.8749 40 28.02Z" fill="white"/>
<path d="M8.98 39.0002C5.13 39.0002 2 35.8702 2 32.0202V23.0002C2 20.7902 3.79 19.0002 6 19.0002H13.87C15.86 19.0002 17.74 19.7802 19.14 21.1802L20.99 23.0302L22.84 21.1802C24.25 19.7702 26.12 18.9902 28.12 18.9902H35.99C38.2 18.9902 39.99 20.7802 39.99 22.9902V32.0102C39.99 35.8602 36.86 38.9902 33.01 38.9902H8.98V39.0002Z" fill="white"/>
<path d="M38 28.02V9.98C38 7.22962 35.7704 5 33.02 5H8.98C6.22962 5 4 7.22962 4 9.98V28.02C4 30.7704 6.22962 33 8.98 33H33.02C35.7704 33 38 30.7704 38 28.02Z" fill="#221F1F"/>
<path d="M33.02 7H8.98C7.33419 7 6 8.33419 6 9.98V28.02C6 29.6658 7.33419 31 8.98 31H33.02C34.6658 31 36 29.6658 36 28.02V9.98C36 8.33419 34.6658 7 33.02 7Z" fill="#E4E4E4"/>
<path d="M8.98 31H33.02C33.83 31 34.56 30.68 35.09 30.16C28.24 20.73 21.72 12.24 17.65 7H8.98C7.33 7 6 8.33 6 9.98V28.02C6 29.67 7.33 31 8.98 31Z" fill="#C4C4C4"/>
<path d="M34 25.59V13.41C34 10.9744 32.0256 9 29.59 9H12.41C9.97442 9 8 10.9744 8 13.41V25.59C8 28.0256 9.97442 30 12.41 30H29.59C32.0256 30 34 28.0256 34 25.59Z" fill="#221F1F"/>
<path d="M29.59 11H12.41C11.079 11 10 12.079 10 13.41V25.59C10 26.921 11.079 28 12.41 28H29.59C30.921 28 32 26.921 32 25.59V13.41C32 12.079 30.921 11 29.59 11Z" fill="#9891F5"/>
<path d="M34 29.59V17.41C34 14.9744 32.0256 13 29.59 13H12.41C9.97442 13 8 14.9744 8 17.41V29.59C8 32.0256 9.97442 34 12.41 34H29.59C32.0256 34 34 32.0256 34 29.59Z" fill="#221F1F"/>
<path d="M29.59 15H12.41C11.079 15 10 16.079 10 17.41V29.59C10 30.921 11.079 32 12.41 32H29.59C30.921 32 32 30.921 32 29.59V17.41C32 16.079 30.921 15 29.59 15Z" fill="#9CDB9C"/>
<path d="M34 28.59V21.41C34 18.9744 32.0256 17 29.59 17H12.41C9.97442 17 8 18.9744 8 21.41V28.59C8 31.0256 9.97442 33 12.41 33H29.59C32.0256 33 34 31.0256 34 28.59Z" fill="#221F1F"/>
<path d="M29.59 19H12.41C11.079 19 10 20.079 10 21.41V33.59C10 34.921 11.079 36 12.41 36H29.59C30.921 36 32 34.921 32 33.59V21.41C32 20.079 30.921 19 29.59 19Z" fill="#F0AA97"/>
<path d="M8.98 37C6.23 37 4 34.77 4 32.02V23C4 21.9 4.9 21 6 21H13.87C15.33 21 16.7 21.57 17.73 22.6L20.6 25.47C20.73 25.6 20.89 25.63 20.99 25.63C21.09 25.63 21.25 25.6 21.38 25.47L24.25 22.6C25.28 21.57 26.65 21 28.11 21H35.98C37.08 21 37.98 21.9 37.98 23V32.02C37.98 34.77 35.75 37 33 37H8.98Z" fill="#221F1F"/>
<path d="M28.1298 23C27.2098 23 26.3298 23.36 25.6798 24.01L22.8098 26.88C21.8098 27.88 20.1998 27.88 19.1998 26.88L16.3298 24.01C15.6798 23.36 14.7998 23 13.8798 23H6.00977V32.02C6.00977 33.67 7.33977 35 8.98977 35H33.0298C34.6798 35 36.0098 33.67 36.0098 32.02V23H28.1398H28.1298Z" fill="#E4E4E4"/>
<path d="M12.79 23H6V32.02C6 33.67 7.33 35 8.98 35H21.77C18.14 29.87 14.38 25.02 12.79 23Z" fill="#C4C4C4"/>
</svg>
