<svg width="42" height="42" viewBox="0 0 42 42" fill="none" xmlns="http://www.w3.org/2000/svg">
<path d="M14.57 32.31C12.5 32.31 10.58 31.2 9.54004 29.41L4.34004 20.41C3.57004 19.07 3.36004 17.5 3.76004 16.01C4.16004 14.51 5.12004 13.26 6.47004 12.49L21.53 3.78C22.41 3.27 23.42 3 24.43 3C26.5 3 28.42 4.11 29.46 5.9L34.66 14.9C35.43 16.24 35.64 17.81 35.24 19.3C34.84 20.8 33.88 22.05 32.54 22.82L17.48 31.52C16.6 32.03 15.6 32.3 14.58 32.3L14.57 32.31Z" fill="white"/>
<path d="M37 17.45V32.54C37 36.1 34.11 38.99 30.55 38.99H6.96C4.22 38.99 2 36.77 2 34.03V15.96C2 13.22 4.22 11 6.96 11H30.55C34.11 11 37 13.89 37 17.45Z" fill="white"/>
<path d="M29 33C24.59 33 21 29.41 21 25C21 20.59 24.59 17 29 17H34.84C37.69 17 40 19.31 40 22.16V27.84C40 30.69 37.69 33 34.84 33H29Z" fill="white"/>
<path d="M14.5697 30.31C13.2197 30.31 11.9497 29.58 11.2797 28.41L6.07971 19.41C5.56971 18.53 5.43971 17.51 5.69971 16.52C5.95971 15.54 6.58971 14.72 7.46971 14.21L22.5297 5.51C23.1097 5.18 23.7597 5 24.4297 5C25.7797 5 27.0497 5.73 27.7197 6.9L32.9197 15.9C33.4297 16.78 33.5597 17.8 33.2997 18.79C33.0397 19.77 32.4097 20.59 31.5297 21.1L16.4697 29.8C15.8897 30.13 15.2397 30.31 14.5697 30.31Z" fill="#221F1F"/>
<path d="M23.5311 7.23681L8.46232 15.9368C7.60139 16.4339 7.30641 17.5347 7.80347 18.3957L13.0034 27.4023C13.5005 28.2633 14.6013 28.5582 15.4623 28.0612L30.5311 19.3612C31.392 18.8641 31.687 17.7633 31.19 16.9023L25.99 7.89566C25.4929 7.03473 24.392 6.73976 23.5311 7.23681Z" fill="#9CDB9C"/>
<path d="M26.5977 7.93848L8.41113 18.4385L9.91113 21.0366L28.0977 10.5365L26.5977 7.93848Z" fill="#221F1F"/>
<path d="M35 17.45V32.54C35 35 33 36.99 30.55 36.99H6.96C5.33 36.99 4 35.66 4 34.03V15.96C4 14.33 5.33 13 6.96 13H30.55C33.01 13 35 15 35 17.45Z" fill="#221F1F"/>
<path d="M6.96 15H30.55C31.9 15 33 16.1 33 17.45V32.54C33 33.89 31.9 34.99 30.55 34.99H6.96C6.43 34.99 6 34.56 6 34.03V15.96C6 15.43 6.43 15 6.96 15Z" fill="#FCD26E"/>
<path d="M29 31C25.69 31 23 28.31 23 25C23 21.69 25.69 19 29 19H34.84C36.58 19 38 20.42 38 22.16V27.84C38 29.58 36.58 31 34.84 31H29Z" fill="#221F1F"/>
<path d="M29 21H34.84C35.48 21 36 21.52 36 22.16V27.84C36 28.48 35.48 29 34.84 29H29C26.79 29 25 27.21 25 25C25 22.79 26.79 21 29 21Z" fill="#FCD26E"/>
<path d="M29 27C30.1046 27 31 26.1046 31 25C31 23.8954 30.1046 23 29 23C27.8954 23 27 23.8954 27 25C27 26.1046 27.8954 27 29 27Z" fill="#221F1F"/>
<path d="M10.84 15H6.96C6.43 15 6 15.43 6 15.96V34.04C6 34.57 6.43 35 6.96 35H20.65C18.56 27.26 15.16 20.42 10.83 15H10.84Z" fill="#E0B344"/>
</svg>
