<svg width="42" height="42" viewBox="0 0 42 42" fill="none" xmlns="http://www.w3.org/2000/svg">
<path fill-rule="evenodd" clip-rule="evenodd" d="M36 5H28C26.94 5 25.92 5.16 24.94 5.44C24.67 3.5 23.01 2 21 2C18.99 2 17.33 3.5 17.06 5.44C16.09 5.16 15.06 5 14 5H6C3.79 5 2 6.79 2 9C2 12.05 4.23 14.62 7.33 15.31C8.16 16.38 9.31 17.17 10.63 17.61C9.66 18.73 9.18 20.24 9.27 21.94C9.36 23.61 10.1 24.96 11.49 25.98C10.92 26.88 10.7 27.95 10.87 29.03C11.08 30.41 11.77 31.54 12.92 32.4C12.51 33.22 12.41 34.05 12.43 34.76C12.51 37.31 14.03 39.03 16.94 39.87C17.21 39.95 17.5 39.99 17.78 39.99C18.36 39.99 18.92 39.82 19.39 39.52C19.86 39.82 20.41 39.99 21 39.99C21.59 39.99 22.15 39.82 22.61 39.52C23.08 39.82 23.63 39.99 24.22 39.99C24.51 39.99 24.79 39.95 25.06 39.87C27.98 39.03 29.5 37.31 29.58 34.76C29.6 34.05 29.5 33.22 29.09 32.4C30.24 31.53 30.92 30.41 31.14 29.03C31.31 27.95 31.09 26.88 30.52 25.98C31.91 24.96 32.65 23.61 32.74 21.94C32.86 19.76 32.04 18.4 31.31 17.63C32.65 17.2 33.83 16.4 34.68 15.31C37.78 14.61 40.01 12.05 40.01 9C40.01 6.79 38.22 5 36.01 5H36Z" fill="white"/>
<path d="M21 38C20.45 38 20 37.55 20 37V11C20 10.45 20.45 10 21 10C21.55 10 22 10.45 22 11V37C22 37.55 21.55 38 21 38Z" fill="#221F1F"/>
<path d="M21 38C20.45 38 20 37.55 20 37V29.02C20 28.47 20.45 28.02 21 28.02C21.55 28.02 22 28.47 22 29.02V37C22 37.55 21.55 38 21 38Z" fill="#221F1F"/>
<path d="M21 21.79C20.45 21.79 20 21.34 20 20.79V7C20 6.45 20.45 6 21 6C21.55 6 22 6.45 22 7V20.79C22 21.34 21.55 21.79 21 21.79Z" fill="#221F1F"/>
<path d="M21 8C22.1046 8 23 7.10457 23 6C23 4.89543 22.1046 4 21 4C19.8954 4 19 4.89543 19 6C19 7.10457 19.8954 8 21 8Z" fill="#221F1F"/>
<path d="M13 16C11.03 16 9.32 14.97 8.51 13.48C5.98 13.26 4 11.33 4 9C4 7.9 4.9 7 6 7H14C16.82 7 19.37 8.26 20.83 10.36C21.59 11.46 22 12.72 22 14C22 15.1 21.1 16 20 16H13Z" fill="#221F1F"/>
<path d="M19.19 11.5C18.15 10.01 16.22 9 14 9H6C6 10.38 7.34 11.5 9 11.5H10C10 12.88 11.34 14 13 14H20C20 13.09 19.7 12.24 19.19 11.5Z" fill="#A2D6FF"/>
<path d="M22 16C20.9 16 20 15.1 20 14C20 12.72 20.4 11.46 21.17 10.36C22.63 8.26 25.19 7 28 7H36C37.1 7 38 7.9 38 9C38 11.33 36.02 13.26 33.49 13.48C32.68 14.97 30.97 16 29 16H22Z" fill="#221F1F"/>
<path d="M22.81 11.5C23.85 10.01 25.78 9 28 9H36C36 10.38 34.66 11.5 33 11.5H32C32 12.88 30.66 14 29 14H22C22 13.09 22.3 12.24 22.81 11.5Z" fill="#A2D6FF"/>
<path d="M17.7801 38C17.6901 38 17.5901 37.99 17.5001 37.96C16.0201 37.53 14.4901 36.81 14.4201 34.7C14.3201 31.64 18.0801 31.1 21.4001 30.63C24.0001 30.26 26.9601 29.84 27.1701 28.42C27.2001 28.25 27.1701 28.17 27.1001 28.08C26.4501 27.22 23.3601 26.83 20.8701 26.52C16.2401 25.94 11.4401 25.34 11.2601 21.83C11.1701 20.13 11.8401 19.15 12.4101 18.63C13.8901 17.29 16.1301 17.6 16.3801 17.64C16.9301 17.72 17.3001 18.24 17.2201 18.78C17.1401 19.33 16.6201 19.7 16.0801 19.62C15.6501 19.56 14.4001 19.53 13.7501 20.12C13.3801 20.46 13.2201 20.98 13.2601 21.73C13.3601 23.57 17.6601 24.11 21.1201 24.55C24.5601 24.98 27.5401 25.36 28.6901 26.89C29.0901 27.42 29.2501 28.06 29.1401 28.74C28.6901 31.62 24.9601 32.15 21.6701 32.62C18.5601 33.06 16.3701 33.46 16.4101 34.64C16.4301 35.22 16.5501 35.61 18.0501 36.04C18.5801 36.19 18.8901 36.75 18.7301 37.28C18.6001 37.72 18.2001 38 17.7701 38H17.7801Z" fill="#221F1F"/>
<path d="M24.2203 38C23.7903 38 23.3903 37.72 23.2603 37.28C23.1103 36.75 23.4103 36.2 23.9403 36.04C25.4403 35.61 25.5603 35.22 25.5803 34.64C25.6203 33.46 23.4203 33.06 20.3203 32.62C17.0303 32.15 13.2903 31.62 12.8503 28.74C12.7503 28.06 12.9003 27.42 13.3003 26.89C14.4503 25.36 17.4303 24.99 20.8703 24.55C24.3303 24.12 28.6403 23.57 28.7303 21.73C28.7703 21.03 28.6203 20.55 28.3103 20.3C27.7003 19.8 26.4203 19.99 26.0203 20.1C25.4903 20.24 24.9403 19.93 24.8003 19.4C24.6603 18.87 24.9703 18.32 25.5003 18.18C25.7603 18.11 28.0503 17.53 29.5703 18.75C30.1503 19.22 30.8303 20.14 30.7403 21.85C30.5603 25.36 25.7603 25.96 21.1303 26.54C18.6403 26.85 15.5503 27.24 14.9003 28.1C14.8403 28.18 14.8003 28.27 14.8303 28.44C15.0503 29.86 18.0003 30.28 20.6003 30.65C23.9203 31.12 27.6803 31.65 27.5803 34.72C27.5103 36.82 25.9803 37.55 24.5003 37.98C24.4103 38.01 24.3103 38.02 24.2203 38.02V38Z" fill="#221F1F"/>
<path d="M25.96 17.25C24.53 17.25 23.35 17.89 23 18.75C23.34 19.61 24.53 20.25 25.96 20.25C27.39 20.25 28.57 19.61 28.92 18.75C28.58 17.89 27.39 17.25 25.96 17.25Z" fill="#221F1F"/>
<path d="M16.0401 17.25C17.4701 17.25 18.6501 17.89 19.0001 18.75C18.6601 19.61 17.4701 20.25 16.0401 20.25C14.6101 20.25 13.4301 19.61 13.0801 18.75C13.4201 17.89 14.6101 17.25 16.0401 17.25Z" fill="#221F1F"/>
</svg>
