<svg width="42" height="42" viewBox="0 0 42 42" fill="none" xmlns="http://www.w3.org/2000/svg">
<path d="M5.20004 21.3C4.40004 22.5 4.40004 24.1 5.10004 25.4C5.50004 26.2 6.20004 26.8 7.10004 27.2V28.7C7.10004 32.3 10 35.2 13.6 35.2H15.3C15.3 37.9 17.5 40.1 20.2 40.1H29.3C30.7 40.1 32 39.5 33 38.4C33.9 37.3 34.4 35.9 34.2 34.5C33.8 31 34.2 27.7 35.5 24.5C36.9 22.1 37.6 19.3 37.5 16.5C37.1 8.7 30.7 2.3 22.9 2C22.7 2 22.5 2 22.2 2C18.3 2 14.7 3.5 11.9 6.2C9.00004 9.1 7.30004 12.9 7.30004 17C7.30004 17.2 7.30004 17.4 7.30004 17.5C7.30004 17.7 7.30004 17.8 7.20004 17.9L5.20004 21.3Z" fill="white"/>
<path fill-rule="evenodd" clip-rule="evenodd" d="M8.69968 24.4H9.49968C9.89968 24.4 10.1997 24.7 10.1997 25.1V28.6C10.1997 30.5 11.7997 32.1 13.6997 32.1H18.3997V35.1C18.3997 36.2 19.2997 37 20.2997 37H29.3997C30.5997 37 31.3997 36 31.2997 34.8C30.5997 29.4 31.8997 25.4 32.8997 23.1C33.9997 21.2 34.5997 19 34.5997 16.6C34.1997 10.3 29.0997 5.19999 22.7997 4.99999C15.9997 4.79999 10.2997 10.2 10.2997 17C10.2997 17.1 10.2997 17.3 10.2997 17.4C10.2997 18.1 10.0997 18.9 9.79969 19.5L7.79968 22.8C7.29968 23.6 7.79968 24.4 8.69968 24.4Z" fill="#EDD286"/>
<path d="M29.3996 38H20.2996C18.6996 38 17.3996 36.7 17.3996 35.1V33.1H13.6996C11.2996 33.1 9.19956 31 9.19956 28.6V25.4H8.69956C7.89956 25.4 7.19956 25 6.79956 24.4C6.39956 23.8 6.49956 23 6.89956 22.3L8.89956 19C9.09956 18.6 9.29956 17.9 9.29956 17.4V17C9.29956 13.5 10.6996 10.2 13.1996 7.7C15.7996 5.2 19.1996 3.9 22.7996 4C29.4996 4.2 35.0996 9.7 35.5996 16.5C35.5996 19.1 34.9996 21.4 33.7996 23.5C32.2996 27 31.7996 30.7 32.2996 34.6C32.3996 35.5 32.0996 36.4 31.4996 37C30.9996 37.7 30.1996 38 29.3996 38ZM8.59956 23.4H9.49956C10.4996 23.4 11.1996 24.1 11.1996 25.1V28.6C11.1996 30 12.2996 31.1 13.6996 31.1H18.3996C18.9996 31.1 19.3996 31.5 19.3996 32.1V35.1C19.3996 35.7 19.8996 36 20.2996 36H29.3996C29.6996 36 29.8996 35.9 29.9996 35.7C30.1996 35.5 30.2996 35.2 30.2996 34.9C29.6996 30.7 30.2996 26.6 31.9996 22.7C31.9996 22.7 31.9996 22.6 32.0996 22.6C33.0996 20.8 33.6996 18.8 33.6996 16.6C33.1996 10.9 28.4996 6.2 22.7996 6C19.7996 5.9 16.8996 6.99999 14.6996 9.2C12.5996 11.3 11.3996 14.1 11.3996 17V17.4C11.3996 18.2 11.1996 19.2 10.7996 19.9L8.59956 23.4Z" fill="#221F1F"/>
<path fill-rule="evenodd" clip-rule="evenodd" d="M21.2002 28.9H11.2002C11.4002 30.1 12.4002 31.1 13.7002 31.1H18.4002C19.0002 31.1 19.4002 31.5 19.4002 32.1V35.1C19.4002 35.6 19.8002 36 20.3002 36H22.9002V30.6C22.8002 29.6 22.1002 28.9 21.2002 28.9Z" fill="#D0B366"/>
<path fill-rule="evenodd" clip-rule="evenodd" d="M15.5 17.5C18.8 18.4 21.4 21 22.3 24.3C23.2 21 25.8 18.4 29.1 17.5C25.8 16.6 23.2 14 22.3 10.7C21.3 14 18.7 16.6 15.5 17.5Z" fill="#A2D6FF"/>
<path d="M22.3 25.3C21.8 25.3 21.5 25 21.3 24.6C20.5 21.6 18.2 19.3 15.2 18.5C14.8 18.4 14.5 18 14.5 17.5C14.5 17.1 14.8 16.7 15.2 16.5C18.1 15.7 20.4 13.3 21.3 10.4C21.4 10 21.8 9.7 22.3 9.7C22.7 9.7 23.1 10 23.3 10.4C24.1 13.4 26.4 15.7 29.4 16.5C29.8 16.6 30.1 17 30.1 17.5C30.1 18 29.8 18.3 29.4 18.5C26.4 19.3 24.1 21.6 23.3 24.6C23.1 25 22.8 25.3 22.3 25.3ZM18.1 17.5C19.9 18.5 21.3 19.9 22.3 21.7C23.3 20 24.7 18.5 26.5 17.5C24.7 16.5 23.3 15.1 22.3 13.3C21.3 15 19.8 16.5 18.1 17.5Z" fill="#221F1F"/>
</svg>
