<svg width="42" height="42" viewBox="0 0 42 42" fill="none" xmlns="http://www.w3.org/2000/svg">
<path d="M21.2098 24.73C20.5198 24.73 19.8298 24.55 19.2298 24.2C17.5598 23.25 16.8098 21.24 17.4298 19.42L21.1598 8.61C21.6298 7.25 22.7998 6.24 24.2098 5.98C24.4498 5.94 24.6998 5.91 24.9398 5.91C25.4998 5.91 26.0398 6.02 26.5298 6.24L28.9498 3.4C29.7098 2.51 30.8198 2 31.9898 2C32.6798 2 33.3698 2.18 33.9698 2.53C35.6398 3.48 36.3898 5.49 35.7698 7.31L32.0398 18.12C31.5698 19.48 30.3998 20.49 28.9898 20.75C28.7498 20.79 28.4998 20.82 28.2598 20.82C27.6998 20.82 27.1598 20.71 26.6698 20.49L24.2498 23.33C23.4898 24.22 22.3798 24.73 21.2098 24.73Z" fill="white"/>
<path d="M5.64974 21.8301C4.87974 23.0801 4.84974 24.6401 5.55974 25.9201C6.00974 26.7201 6.69974 27.3301 7.51974 27.6701V29.1301C7.51974 32.7101 10.4397 35.6301 14.0197 35.6301H15.7097C15.7097 38.3501 17.9097 40.5501 20.6197 40.5501H29.6697C31.0797 40.5501 32.4197 39.9501 33.3497 38.8901C34.2797 37.8301 34.7197 36.4201 34.5397 35.0201C34.0997 31.5601 34.5397 28.1901 35.8497 25.0101C37.2297 22.5901 37.9097 19.8401 37.8097 17.0401C37.5297 9.21005 31.1797 2.85005 23.3697 2.56005C23.1497 2.56005 22.9297 2.55005 22.6997 2.55005C18.8497 2.55005 15.1797 4.05005 12.3597 6.76005C9.38974 9.62005 7.75974 13.4601 7.75974 17.5801C7.75974 17.7601 7.75974 17.9501 7.76974 18.1301C7.76974 18.2901 7.73974 18.4401 7.66974 18.5501L5.64974 21.8301Z" fill="white"/>
<path fill-rule="evenodd" clip-rule="evenodd" d="M9.09005 24.9801H9.86005C10.2301 24.9801 10.5201 25.2801 10.5201 25.6401V29.1201C10.5201 31.0501 12.0901 32.6201 14.0201 32.6201H18.7101V35.6301C18.7101 36.6801 19.5601 37.5401 20.6201 37.5401H29.6701C30.8201 37.5401 31.7001 36.5301 31.5601 35.3801C30.8801 30.0101 32.1901 25.9301 33.1501 23.6601C34.2701 21.7601 34.8901 19.5201 34.8001 17.1301C34.5801 10.8801 29.4801 5.77009 23.2301 5.54009C16.3801 5.29009 10.7501 10.7701 10.7501 17.5601C10.7501 17.7101 10.7501 17.8501 10.7501 17.9901C10.7801 18.7301 10.6001 19.4701 10.2101 20.1001L8.19005 23.3801C7.76005 24.0701 8.26005 24.9601 9.07005 24.9601L9.09005 24.9801Z" fill="#F0AA97"/>
<path d="M29.6805 38.54H20.6305C19.0305 38.54 17.7205 37.24 17.7205 35.63V33.62H14.0305C11.5505 33.62 9.53046 31.6 9.53046 29.12V25.98H9.10046C8.36046 25.98 7.68046 25.58 7.32046 24.94C6.96046 24.3 6.98046 23.51 7.36046 22.88L9.38046 19.6C9.66046 19.15 9.79046 18.61 9.77046 18.05C9.77046 17.9 9.77046 17.74 9.77046 17.58C9.77046 14.01 11.1905 10.68 13.7605 8.20002C16.3305 5.72002 19.7105 4.40002 23.2905 4.56002C30.0805 4.81002 35.5805 10.32 35.8205 17.11C35.9105 19.58 35.3005 22 34.0605 24.13C32.5805 27.67 32.0805 31.42 32.5605 35.27C32.6705 36.1 32.4105 36.94 31.8505 37.57C31.3005 38.19 30.5105 38.55 29.6705 38.55L29.6805 38.54ZM22.7905 6.54002C19.9205 6.54002 17.2105 7.63002 15.1405 9.63002C12.9605 11.73 11.7605 14.55 11.7605 17.57C11.7605 17.7 11.7605 17.83 11.7605 17.96C11.8005 18.92 11.5605 19.85 11.0705 20.64L9.05046 23.92L9.08046 23.98H9.85046C10.7705 23.98 11.5105 24.73 11.5105 25.64V29.12C11.5105 30.5 12.6305 31.62 14.0105 31.62H18.7005C19.2505 31.62 19.7005 32.07 19.7005 32.62V35.63C19.7005 36.13 20.1105 36.54 20.6105 36.54H29.6605C29.9205 36.54 30.1605 36.43 30.3405 36.23C30.5205 36.03 30.6005 35.77 30.5605 35.51C30.0305 31.28 30.5805 27.17 32.2205 23.28C32.2405 23.24 32.2605 23.2 32.2805 23.16C33.3505 21.35 33.8705 19.28 33.8005 17.17C33.6005 11.42 28.9405 6.76002 23.1905 6.55002C23.0505 6.55002 22.9105 6.55002 22.7705 6.55002L22.7905 6.54002Z" fill="#221F1F"/>
<path fill-rule="evenodd" clip-rule="evenodd" d="M21.5996 29.4399H11.5596C11.7196 30.6699 12.7596 31.6199 14.0296 31.6199H18.7196C19.2696 31.6199 19.7196 32.0699 19.7196 32.6199V35.6299C19.7196 36.1299 20.1296 36.5399 20.6296 36.5399H23.2596V31.0899C23.2596 30.1699 22.5196 29.4299 21.5996 29.4299V29.4399Z" fill="#D88C7D"/>
<path d="M21.2102 22.73C20.8702 22.73 20.5302 22.64 20.2202 22.47C19.3902 21.99 19.0102 20.99 19.3202 20.08L23.0502 9.27001C23.2802 8.59001 23.8702 8.09001 24.5802 7.96001C24.7002 7.94001 24.8202 7.93001 24.9402 7.93001C25.5202 7.93001 26.0902 8.19001 26.4702 8.64001L26.8002 9.03001L30.4802 4.71001C30.8702 4.25001 31.4302 4.01001 32.0002 4.01001C32.3402 4.01001 32.6802 4.10001 32.9902 4.27001C33.8202 4.75001 34.2002 5.75001 33.8902 6.66001L30.1602 17.47C29.9302 18.15 29.3402 18.65 28.6302 18.78C28.5102 18.8 28.3902 18.81 28.2702 18.81C27.6902 18.81 27.1202 18.55 26.7402 18.1L26.4102 17.71L22.7302 22.03C22.3402 22.49 21.7802 22.73 21.2102 22.73Z" fill="#221F1F"/>
<path d="M28.27 16.81L32 6L26.78 12.12L24.94 9.92L21.21 20.73L26.42 14.61L28.27 16.81Z" fill="#F7DF69"/>
</svg>
