<svg width="42" height="42" viewBox="0 0 42 42" fill="none" xmlns="http://www.w3.org/2000/svg">
<path d="M5.10004 25.4C5.50004 26.2 6.20004 26.8 7.10004 27.2V28.7C7.10004 32.3 10 35.2 13.6 35.2H15.3C15.3 37.9 17.5 40.1 20.2 40.1H29.3C30.7 40.1 32 39.5 33 38.4C33.9 37.3 34.4 35.9 34.2 34.5C33.8 31 34.2 27.7 35.5 24.5C36.9 22.1 37.6 19.3 37.5 16.5C37.1 8.7 30.7 2.3 22.9 2C22.7 2 22.5 2 22.3 2C18.4 2 14.7 3.5 11.9 6.2C9.00004 9.1 7.30004 12.9 7.30004 17C7.30004 17.2 7.30004 17.4 7.30004 17.5C7.30004 17.7 7.30004 17.8 7.20004 17.9L5.20004 21.2C4.40004 22.5 4.40004 24.1 5.10004 25.4Z" fill="white"/>
<path fill-rule="evenodd" clip-rule="evenodd" d="M8.69968 24.4H9.49968C9.89968 24.4 10.1997 24.7 10.1997 25.1V28.6C10.1997 30.5 11.7997 32.1 13.6997 32.1H18.3997V35.1C18.3997 36.2 19.2997 37 20.2997 37H29.3997C30.5997 37 31.3997 36 31.2997 34.8C30.5997 29.4 31.8997 25.4 32.8997 23.1C33.9997 21.2 34.5997 19 34.5997 16.6C34.1997 10.3 29.0997 5.20001 22.7997 5.00001C15.9997 4.80001 10.2997 10.2 10.2997 17C10.2997 17.1 10.2997 17.3 10.2997 17.4C10.2997 18.1 10.0997 18.9 9.79969 19.5L7.79968 22.8C7.29968 23.5 7.79968 24.4 8.69968 24.4Z" fill="#EDB7B7"/>
<path fill-rule="evenodd" clip-rule="evenodd" d="M21.2002 28.9H10.7002C10.9002 30.1 11.9002 31.5 13.2002 31.5H18.4002C19.0002 31.5 19.1002 31.5 19.1002 32.1V35.1C19.1002 35.6 19.8002 36.5 20.3002 36.5H22.9002V30.6C22.8002 29.6 22.1002 28.9 21.2002 28.9Z" fill="#DB9C9C"/>
<path d="M26.9996 9.4C21.4996 5.7 13.6996 9.4 14.1996 16C14.3996 20.1 19.1996 23.3 23.2996 21.7C27.4996 20.1 28.3996 14 23.9996 12.2C22.0996 11.4 19.5996 11.9 18.5996 13.8C17.3996 15.8 18.7996 18.7 21.3996 18.4C22.0996 18.3 22.7996 17.8 22.9996 17.1C23.1996 16.4 22.3996 15.7 21.7996 16C21.5996 16.1 21.3996 16.2 21.2996 16.4C21.1996 16.5 21.1996 16.5 20.9996 16.5C19.6996 16.3 20.0996 14.5 20.9996 14.1C21.9996 13.4 23.4996 13.8 24.1996 14.7C25.0996 15.7 25.0996 17.2 24.4996 18.3C23.4996 20.2 20.7996 20.8 18.8996 19.8C13.6996 17.2 16.5996 9.8 22.0996 9.9C27.0996 9.8 30.3996 15.1 28.2996 19.4C26.2996 24.2 19.7996 25.3 15.6996 22.3C15.4996 22.2 15.2996 22.1 15.0996 22.1C14.5996 22.1 14.0996 22.5 14.0996 23.1C14.0996 23.4 14.2996 23.7 14.4996 23.9C16.4996 25.4 19.0996 26.2 22.1996 25.9C30.6996 25 34.1996 14.1 26.9996 9.4Z" fill="#221F1F"/>
<path d="M35.2996 16.6C35.0996 9.89999 29.5996 4.29998 22.7996 4.09998C19.2996 3.89998 15.8996 5.19998 13.2996 7.69998C10.6996 10.2 9.29957 13.5 9.29957 17.1C9.29957 17.3 9.29957 17.4 9.29957 17.6C9.29957 18.1 9.19957 18.6 8.89957 19.1L6.89957 22.4C6.59957 23.1 6.49957 23.9 6.89957 24.5C7.29957 25.1 7.99957 25.5 8.69957 25.5H8.99957V28.6C8.99957 31.1 10.9996 33.1 13.4996 33.1H17.1996V35.1C17.1996 36.7 18.4996 38 20.0996 38H29.1996C30.0996 38 30.8996 37.6 31.2996 37C31.7996 36.4 32.0996 35.5 31.9996 34.7C31.4996 30.9 31.9996 27.1 33.4996 23.6C34.7996 21.5 35.3996 19.1 35.2996 16.6ZM31.3996 24.5C30.1996 27.9 29.8996 31.5 30.2996 35.1C30.3996 35.3 30.2996 35.6 30.0996 35.8C29.8996 36 29.6996 36.1 29.3996 36.1H20.2996C19.7996 36.1 19.3996 35.7 19.3996 35.2V32.2C19.3996 31.6 18.9996 31.2 18.3996 31.2H13.6996C12.2996 31.2 11.1996 30.1 11.1996 28.7V25.2C11.1996 24.2 10.3996 23.5 9.49957 23.5H8.69957V23.4L10.6996 20.1C11.1996 19.3 11.3996 18.4 11.3996 17.4C11.3996 17.3 11.3996 17.1 11.3996 17C11.3996 14 12.5996 11.2 14.7996 9.09999C16.7996 7.09999 19.4996 5.99998 22.3996 5.99998C22.4996 5.99998 22.5996 5.99998 22.7996 5.99998C28.4996 6.19998 33.1996 10.9 33.5996 16.8C33.6996 18.9 33.1996 21 32.0996 22.8C31.8996 23.2 31.5996 24 31.3996 24.5Z" fill="#221F1F"/>
</svg>
