<svg width="42" height="42" viewBox="0 0 42 42" fill="none" xmlns="http://www.w3.org/2000/svg">
<path d="M5.10004 25.4C5.50004 26.2 6.20004 26.8 7.10004 27.2V28.7C7.10004 32.3 10 35.2 13.6 35.2H15.3C15.3 37.9 17.5 40.1 20.2 40.1H29.3C30.7 40.1 32 39.5 33 38.4C33.9 37.3 34.4 35.9 34.2 34.5C33.8 31 34.2 27.7 35.5 24.5C36.9 22.1 37.6 19.3 37.5 16.5C37.1 8.7 30.7 2.3 22.9 2C22.7 2 22.5 2 22.3 2C18.4 2 14.7 3.5 11.9 6.2C9.00004 9.1 7.30004 12.9 7.30004 17C7.30004 17.2 7.30004 17.4 7.30004 17.5C7.30004 17.7 7.30004 17.8 7.20004 17.9L5.20004 21.2C4.40004 22.5 4.40004 24.1 5.10004 25.4Z" fill="white"/>
<path fill-rule="evenodd" clip-rule="evenodd" d="M8.70066 24.4H9.50066C9.90066 24.4 10.2007 24.7 10.2007 25.1V28.6C10.2007 30.5 11.8007 32.1 13.7007 32.1H18.4007V35.1C18.4007 36.2 19.3007 37 20.3007 37H29.4007C30.6007 37 31.4007 36 31.3007 34.8C30.6007 29.4 31.9007 25.4 32.9007 23.1C34.0007 21.2 34.6007 19 34.6007 16.6C34.2007 10.3 29.1007 5.19999 22.8007 4.99999C16.0007 4.79999 10.3007 10.2 10.3007 17C10.3007 17.1 10.3007 17.3 10.3007 17.4C10.3007 18.1 10.1007 18.9 9.80066 19.5L7.80066 22.8C7.30066 23.5 7.80066 24.4 8.70066 24.4Z" fill="#EDD286"/>
<path d="M29.4004 38H20.3004C18.7004 38 17.4004 36.7 17.4004 35.1V33.1H13.7004C11.3004 33.1 9.20044 31 9.20044 28.6V25.4H8.70044C7.90044 25.4 7.20044 25 6.80044 24.3C6.50044 23.6 6.50044 22.8 7.00044 22.2L9.00044 19C9.20044 18.6 9.40044 17.9 9.40044 17.4V17C9.40044 13.5 10.8004 10.2 13.3004 7.7C15.9004 5.2 19.3004 3.9 22.9004 4C29.6004 4.2 35.2004 9.7 35.7004 16.5C35.7004 19.1 35.1004 21.4 33.9004 23.5C32.4004 27 31.9004 30.7 32.4004 34.6C32.5004 35.5 32.2004 36.4 31.6004 37C31.0004 37.7 30.2004 38 29.4004 38ZM8.60044 23.4H9.50044C10.5004 23.4 11.2004 24.1 11.2004 25.1V28.6C11.2004 30 12.3004 31.1 13.7004 31.1H18.4004C19.0004 31.1 19.4004 31.5 19.4004 32.1V35.1C19.4004 35.7 19.9004 36 20.3004 36H29.4004C29.7004 36 29.9004 35.9 30.0004 35.7C30.2004 35.5 30.3004 35.2 30.3004 34.9C29.7004 30.7 30.3004 26.6 32.0004 22.7C32.0004 22.7 32.0004 22.6 32.1004 22.6C33.1004 20.8 33.7004 18.8 33.7004 16.6C33.2004 10.9 28.5004 6.2 22.8004 6C19.8004 5.9 16.9004 6.99999 14.7004 9.2C12.6004 11.3 11.4004 14.1 11.4004 17V17.4C11.4004 18.2 11.2004 19.2 10.8004 19.9L8.60044 23.4Z" fill="#221F1F"/>
<path fill-rule="evenodd" clip-rule="evenodd" d="M21.2002 28.9H11.2002C11.4002 30.1 12.4002 31.1 13.7002 31.1H18.4002C19.0002 31.1 19.4002 31.5 19.4002 32.1V35.1C19.4002 35.6 19.8002 36 20.3002 36H22.9002V30.6C22.8002 29.6 22.1002 28.9 21.2002 28.9Z" fill="#D0B366"/>
<path d="M22.3998 23.2C20.5998 23.2 18.7998 22.3 17.6998 20.8C17.3998 20.4 17.4998 19.7 17.8998 19.4C18.2998 19.1 18.9998 19.2 19.2998 19.6C20.0998 20.6 21.1998 21.2 22.3998 21.2C24.5998 21.2 26.2998 19.5 26.2998 17.3C26.2998 15.1 24.5998 13.4 22.3998 13.4C20.8998 13.4 19.8998 14.2 19.3998 14.8C19.0998 15.2 18.3998 15.3 17.9998 14.9C17.5998 14.6 17.4998 13.9 17.8998 13.5C18.9998 12.1 20.6998 11.3 22.4998 11.3C25.7998 11.3 28.3998 13.9 28.3998 17.2C28.3998 20.5 25.6998 23.2 22.3998 23.2Z" fill="#221F1F"/>
<path fill-rule="evenodd" clip-rule="evenodd" d="M17.5996 11.7L16.5996 15.8L20.8996 15.5L17.5996 11.7Z" fill="#221F1F"/>
<path d="M16.5998 16.8C16.2998 16.8 15.9998 16.7 15.7998 16.4C15.5998 16.2 15.4998 15.8 15.5998 15.5L16.5998 11.4C16.6998 11 16.9998 10.8 17.2998 10.7C17.6998 10.6 17.9998 10.7 18.2998 11L21.5998 14.8C21.7998 15.1 21.8998 15.5 21.7998 15.8C21.6998 16.2 21.2998 16.4 20.8998 16.4L16.5998 16.8ZM18.0998 13.8L17.8998 14.7L18.7998 14.6L18.0998 13.8Z" fill="#221F1F"/>
</svg>
