<svg width="42" height="42" viewBox="0 0 42 42" fill="none" xmlns="http://www.w3.org/2000/svg">
<path d="M39.4997 14.3C39.3997 13.8 39.2997 13.4 39.1997 12.9L40.3997 11.7C40.9997 11.1 41.2997 10.4 41.2997 9.59999C41.2997 8.79999 40.9997 7.99999 40.3997 7.49999L36.5997 3.69999C35.9997 3.09999 35.2997 2.79999 34.4997 2.79999C33.6997 2.79999 32.8997 2.99999 32.3997 3.59999L31.6997 4.29999C31.0997 4.09999 30.4997 3.89999 29.8997 3.79999C29.1997 3.69999 28.4997 3.59999 27.7997 3.59999C24.9997 3.59999 22.3997 4.69999 20.1997 6.69999C17.9997 4.69999 15.3997 3.59999 12.5997 3.59999C11.8997 3.59999 11.1997 3.69999 10.4997 3.79999C5.49974 4.79999 1.59974 8.99999 0.799738 14.3C0.199738 18.4 0.699738 28.9 18.6997 38.8L19.1997 39.1C19.4997 39.3 19.7997 39.3 20.1997 39.3C20.5997 39.3 20.8997 39.2 21.1997 39.1L21.6997 38.8C39.5997 28.9 40.0997 18.4 39.4997 14.3Z" fill="white"/>
<path fill-rule="evenodd" clip-rule="evenodd" d="M20.1995 36.1C-12.0005 18.5 11.2995 -3.29998 20.1995 11.4C29.0995 -3.29998 52.3995 18.6 20.1995 36.1Z" fill="#F0AA97"/>
<path d="M20.1994 37.3L19.6994 37C2.79942 27.8 2.19942 18.3 2.79942 14.6C3.49942 10.1 6.69942 6.60001 10.7994 5.80001C14.2994 5.10001 17.6994 6.50001 20.0994 9.70001C22.4994 6.50001 25.8994 5.10001 29.4994 5.80001C33.5994 6.60001 36.7994 10.2 37.4994 14.6C38.0994 18.3 37.4994 27.8 20.5994 37L20.1994 37.3ZM12.5994 7.60001C12.1994 7.60001 11.6994 7.60001 11.1994 7.70001C7.89942 8.40001 5.29942 11.2 4.79942 14.9C4.29942 18.1 4.79942 26.5 20.1994 35C35.4994 26.5 35.9994 18.1 35.4994 14.9C34.8994 11.3 32.3994 8.40001 29.0994 7.70001C25.9994 7.10001 22.9994 8.60001 20.9994 12L20.0994 13.4L19.2994 12C17.5994 9.10001 15.1994 7.60001 12.5994 7.60001Z" fill="#221F1F"/>
<path fill-rule="evenodd" clip-rule="evenodd" d="M4.89932 14.4C4.89932 14.6 4.79932 14.7 4.79932 14.9C4.29932 18.1 4.79932 26.5 20.1993 35C23.0993 33.4 25.3993 31.8 27.3993 30.3C17.9993 27.9 10.0993 22.2 4.89932 14.4Z" fill="#D88C7D"/>
<path fill-rule="evenodd" clip-rule="evenodd" d="M19.4 28.5L10 19L13.8 15.2L19.4 20.8L34.5 5.70001L38.3 9.60001L19.4 28.5Z" fill="#9CDB9C"/>
<path d="M19.4 29.5C19.1 29.5 18.9 29.4 18.7 29.2L9.3 19.8C8.9 19.4 8.9 18.8 9.3 18.4L13.1 14.6C13.5 14.2 14.1 14.2 14.5 14.6L19.4 19.5L33.8 5.00001C34.2 4.60001 34.8 4.60001 35.2 5.00001L39 8.90001C39.2 9.10001 39.3 9.30001 39.3 9.60001C39.3 9.90001 39.2 10.1 39 10.3L20.1 29.2C19.9 29.4 19.7 29.5 19.4 29.5ZM11.4 19L19.4 27L36.9 9.60001L34.5 7.20001L20.1 21.5C19.7 21.9 19.1 21.9 18.7 21.5L13.8 16.6L11.4 19Z" fill="#221F1F"/>
</svg>
