<svg width="42" height="42" viewBox="0 0 42 42" fill="none" xmlns="http://www.w3.org/2000/svg">
<path d="M11.5003 40C7.36027 40 4.00027 36.64 4.00027 32.5C4.00027 32.21 4.02027 31.92 4.05027 31.63C3.11027 30.92 2.43027 29.9 2.12027 28.67C2.10027 28.58 2.08027 28.51 2.07027 28.44C1.58027 25.82 3.21027 23.22 5.77027 22.48C7.76027 21.79 9.48027 19.94 9.96027 17.96C10.3603 16.53 11.1103 15.39 12.1703 14.59C12.3203 14.47 12.4803 14.35 12.6603 14.25C12.6903 14.23 13.0803 14.02 13.1703 13.98H13.1903C13.0603 13.32 12.9903 12.65 12.9903 11.98C12.9903 7.01998 16.5803 2.97998 20.9903 2.97998C25.4003 2.97998 28.9903 7.01998 28.9903 11.98C28.9903 12.64 28.9203 13.31 28.7903 13.96C29.0103 14.07 29.2103 14.18 29.4003 14.3C29.5903 14.42 29.7503 14.54 29.9103 14.68C30.6803 15.29 31.2903 16.08 31.6803 16.97C31.7203 17.07 31.7603 17.17 31.8003 17.28C31.8803 17.51 31.9603 17.75 32.0303 17.98C32.1903 18.48 32.3603 19 32.5203 19.27L32.6303 19.46C33.3303 20.81 34.8103 22.02 36.4003 22.53C38.9103 23.38 40.3403 25.75 39.9203 28.31C39.7003 29.65 38.9703 30.83 37.9403 31.62C37.9703 31.9 37.9903 32.19 37.9903 32.48C37.9903 36.62 34.6303 39.98 30.4903 39.98H11.5003V40Z" fill="white"/>
<path d="M11.4999 38C8.46993 38 5.99993 35.53 5.99993 32.5C5.99993 31.82 6.11993 31.17 6.34993 30.56C5.20993 30.26 4.35993 29.41 4.05993 28.19C4.05993 28.15 4.03993 28.11 4.03993 28.07C3.73993 26.43 4.74993 24.83 6.36993 24.39C9.03993 23.49 11.2599 21.11 11.9099 18.44C12.1799 17.47 12.6899 16.71 13.4099 16.18C13.4899 16.11 13.5799 16.05 13.6799 15.99C13.7199 15.97 13.9799 15.82 14.0499 15.79C14.5399 15.53 15.0899 15.32 15.6499 15.14C15.2299 14.18 14.9999 13.1 14.9999 11.99C14.9999 8.12999 17.6899 4.98999 20.9999 4.98999C24.3099 4.98999 26.9999 8.12999 26.9999 11.99C26.9999 13.1 26.7699 14.18 26.3499 15.14C27.0699 15.37 27.7799 15.65 28.3499 16.01C28.4499 16.08 28.5499 16.15 28.6399 16.23C29.1699 16.64 29.5899 17.17 29.8599 17.78C29.8799 17.83 29.8999 17.88 29.9199 17.94C29.9999 18.16 30.0699 18.38 30.1399 18.6C30.3399 19.24 30.5399 19.84 30.8099 20.3C30.8299 20.33 30.8499 20.36 30.8599 20.39C31.8099 22.22 33.6999 23.77 35.7999 24.44C37.3399 24.96 38.2199 26.42 37.9599 27.99C37.7499 29.27 36.8399 30.26 35.6599 30.58C35.8799 31.17 35.9999 31.82 35.9999 32.49C35.9999 35.52 33.5299 37.99 30.4999 37.99H11.4999V38Z" fill="#221F1F"/>
<path d="M6.94036 26.3201C10.2604 25.2301 13.0204 22.3401 13.8604 18.9201C14.5904 16.3101 18.4304 17.3501 17.7304 19.9701C16.4704 23.3001 13.9004 26.1401 10.6704 27.6201C9.50036 28.0301 6.51037 29.7201 6.01037 27.7101C5.89037 27.0601 6.32036 26.4601 6.94036 26.3101V26.3201Z" fill="#9891F5"/>
<path d="M34.6002 28.68C31.1502 28.02 28.1202 26.11 26.0602 23.27C25.0102 21.7 22.8902 18.81 25.3902 17.56C26.4002 17.11 27.5902 17.58 28.0302 18.59C28.3502 19.51 28.5902 20.47 29.0902 21.32C30.3202 23.68 32.6902 25.56 35.1902 26.36C36.5902 26.83 36.0502 28.93 34.6002 28.68Z" fill="#9891F5"/>
<path d="M26.5 17.5H15.5V32.5H26.5V17.5Z" fill="#9891F5"/>
<path d="M14.7002 17.72C15.9502 16.94 18.8002 16.32 20.9902 16.25C23.1802 16.18 20.4502 21 20.4502 21L16.7302 20.91L14.7102 17.72H14.7002Z" fill="#9891F5"/>
<path d="M27.2999 17.72C26.0499 16.94 23.1999 16.32 21.0099 16.25C18.8199 16.18 21.5499 21 21.5499 21L25.2699 20.91L27.2899 17.72H27.2999Z" fill="#9891F5"/>
<path d="M34.6003 28.68C36.0503 28.93 36.5903 26.83 35.1903 26.36C32.6903 25.56 30.3203 23.68 29.0903 21.32C28.5903 20.47 28.3503 19.51 28.0303 18.59C27.8703 18.22 27.6103 17.93 27.2903 17.72C26.0403 16.93 23.1903 16.31 21.0003 16.24C21.0003 16.24 21.0003 16.24 20.9903 16.24C20.9903 16.24 20.9903 16.24 20.9803 16.24C19.3003 16.29 17.2603 16.68 15.8203 17.2C17.2403 21.64 20.5203 29.53 26.4903 32.27V23.82C28.5303 26.35 31.3703 28.07 34.5903 28.68H34.6003Z" fill="#B9B9FF"/>
<path d="M30.5 36C32.433 36 34 34.433 34 32.5C34 30.567 32.433 29 30.5 29C28.567 29 27 30.567 27 32.5C27 34.433 28.567 36 30.5 36Z" fill="#B9B9FF"/>
<path d="M30.5 35.9999H15.25V34.7399L29.88 31.6599L30.5 35.9999Z" fill="#B9B9FF"/>
<path d="M15.23 35.9999L14.71 34.2799L29.35 29.1899L30.69 34.7199L16.03 35.9999H15.23Z" fill="#B9B9FF"/>
<path d="M14.7896 27.7L24.9496 32.12C25.6796 32.44 26.0596 33.7499 25.8296 34.5099L25.6996 34.95L13.5596 31.34L14.7996 27.7H14.7896Z" fill="#221F1F"/>
<path d="M11.5 36C13.433 36 15 34.433 15 32.5C15 30.567 13.433 29 11.5 29C9.567 29 8 30.567 8 32.5C8 34.433 9.567 36 11.5 36Z" fill="#9891F5"/>
<path d="M11.5 35.9999H26.75V34.7399L12.12 31.6599L11.5 35.9999Z" fill="#9891F5"/>
<path d="M26.7698 35.9999L26.8898 35.5899C27.1098 34.8599 26.7198 34.0799 25.9898 33.8299L12.6398 29.1899L11.2998 34.7199L25.9698 35.9999H26.7698Z" fill="#9891F5"/>
<path d="M21 17C23.2091 17 25 14.7614 25 12C25 9.23858 23.2091 7 21 7C18.7909 7 17 9.23858 17 12C17 14.7614 18.7909 17 21 17Z" fill="#9891F5"/>
<path d="M21.0003 7C19.9503 7 19.0003 7.52 18.2803 8.35C18.2803 11.75 20.7803 14.57 24.0703 15.16C24.6403 14.3 24.9903 13.2 24.9903 12C24.9903 9.24 23.2003 7 20.9903 7H21.0003Z" fill="#B9B9FF"/>
<path d="M26.0004 33.83L12.6504 29.19C12.2904 29.08 11.9104 29 11.5004 29C10.3004 29 9.25035 29.6 8.61035 30.52L26.9404 35.06C26.9004 34.51 26.5404 34.02 25.9904 33.83H26.0004Z" fill="#B9B9FF"/>
</svg>
