<svg width="42" height="42" viewBox="0 0 42 42" fill="none" xmlns="http://www.w3.org/2000/svg">
<path fill-rule="evenodd" clip-rule="evenodd" d="M15.6 40C14 40 12.6 39.3 11.6 38C10.6 36.7 10.3 34.9 10.7 33.3C11.2 31.6 11.8 30.2 12.5 28.8C10.1 26.5 7.2 24.8 4.1 23.9C2.9 23.5 2 22.3 2 21C2 19.7 2.9 18.5 4.2 18.1C10.9 16.2 16.2 10.8 18.2 4.1C18.5 2.9 19.7 2 21 2C22.3 2 23.5 2.9 23.9 4.2C25.8 10.9 31.2 16.2 37.9 18.2C39.2 18.6 40.1 19.8 40.1 21.1C40.1 22.4 39.2 23.6 37.9 24C34.8 24.9 31.9 26.6 29.5 28.9C30.2 30.2 30.9 31.7 31.3 33.4C31.8 35 31.4 36.8 30.4 38.1C29.4 39.4 28 40.1 26.4 40.1H15.6V40Z" fill="white"/>
<path fill-rule="evenodd" clip-rule="evenodd" d="M5 21C12.7 23.2 18.8 29.3 21 37C23.2 29.3 29.3 23.2 37 21C29.3 18.8 23.2 12.7 21 5C18.8 12.7 12.7 18.8 5 21Z" fill="#A2D6FF"/>
<path d="M21 38C20.6 38 20.2 37.7 20 37.3C17.9 30 12 24.1 4.7 22C4.3 21.8 4 21.4 4 21C4 20.6 4.3 20.2 4.7 20C12 17.9 17.9 12 20 4.7C20.2 4.3 20.6 4 21 4C21.4 4 21.8 4.3 22 4.7C24.1 12 30 17.9 37.3 20C37.7 20.1 38 20.5 38 21C38 21.4 37.7 21.8 37.3 22C30 24.1 24.1 30 22 37.3C21.8 37.7 21.4 38 21 38ZM8 21C13.8 23.5 18.6 28.2 21 34C23.5 28.2 28.2 23.5 34 21C28.2 18.5 23.4 13.8 21 8C18.5 13.8 13.8 18.5 8 21Z" fill="#221F1F"/>
<path fill-rule="evenodd" clip-rule="evenodd" d="M15.5996 37H26.3996C27.7996 37 28.7996 35.5 28.3996 34.1C26.9996 29.3 24.1996 26 20.9996 26C17.7996 26 14.9996 29.3 13.5996 34.1C13.1996 35.5 14.1996 37 15.5996 37Z" fill="#EDD286"/>
<path d="M21 26C23.2091 26 25 23.9853 25 21.5C25 19.0147 23.2091 17 21 17C18.7909 17 17 19.0147 17 21.5C17 23.9853 18.7909 26 21 26Z" fill="#EDD286"/>
<path d="M21 27C18.2 27 16 24.5 16 21.5C16 18.5 18.2 16 21 16C23.8 16 26 18.5 26 21.5C26 24.5 23.8 27 21 27ZM21 18C19.3 18 18 19.6 18 21.5C18 23.4 19.3 25 21 25C22.7 25 24 23.4 24 21.5C24 19.6 22.7 18 21 18Z" fill="#221F1F"/>
<path fill-rule="evenodd" clip-rule="evenodd" d="M17.3998 28.9C16.2998 30.2 15.2998 32.1 14.5998 34.3C14.4998 34.7 14.5998 35.2 14.7998 35.5C14.8998 35.7 15.1998 35.9 15.5998 35.9H23.0998C20.3998 34.7 18.1998 32.1 17.3998 28.9Z" fill="#D0B366"/>
<path d="M26.4003 38H15.6003C14.7003 38 13.8003 37.6 13.2003 36.8C12.6003 36 12.4003 34.9 12.7003 33.8C14.3003 28.4 17.5003 25 21.0003 25C24.6003 25 27.7003 28.4 29.3003 33.8C29.6003 34.8 29.4003 35.9 28.8003 36.8C28.2003 37.6 27.3003 38 26.4003 38ZM21.0003 27C18.4003 27 15.9003 29.9 14.6003 34.4C14.5003 34.8 14.6003 35.3 14.8003 35.6C14.9003 35.8 15.2003 36 15.6003 36H26.4003C26.8003 36 27.1003 35.7 27.2003 35.6C27.5003 35.3 27.5003 34.8 27.4003 34.4C26.1003 29.9 23.6003 27 21.0003 27Z" fill="#221F1F"/>
</svg>
